P3
64 64
255
0 0 0 0 0 0 0 0 0 0 0 0 0 0 0 0 0 0 0 0 0 0 0 0 0 0 0 0 0 0 0 0 0 0 0 0 0 0 0 0 0 0 0 0 0 0 0 0 0 0 0 0 0 0 0 0 0 0 0 0 0 0 0 0 0 0 0 0 0 0 0 0 0 0 0 0 0 0 0 0 0 0 0 0 0 0 0 0 0 0 0 0 0 0 0 0 0 0 0 0 0 0 0 0 0 0 0 0 0 0 0 0 0 0 0 0 0 0 0 0 0 0 0 0 0 0 0 0 0 0 0 0 0 0 0 0 0 0 0 0 0 0 0 0 0 0 0 0 0 0 0 0 0 0 0 0 0 0 0 0 0 0 0 0 0 0 0 0 0 0 0 0 0 0 0 0 0 0 0 0 0 0 0 0 0 0 0 0 0 0 0 0 
0 0 0 0 0 0 0 0 0 0 0 0 0 0 0 0 0 0 0 0 0 0 0 0 0 0 0 0 0 0 0 0 0 0 0 0 0 0 0 0 0 0 0 0 0 0 0 0 0 0 0 0 0 0 0 0 0 0 0 0 0 0 0 0 0 0 0 0 0 0 0 0 216 96 32 153 51 0 0 0 0 0 0 0 0 0 0 0 0 0 0 0 0 0 0 0 0 0 0 0 0 0 0 0 0 0 0 0 0 0 0 0 0 0 0 0 0 0 0 0 0 0 0 0 0 0 0 0 0 0 0 0 0 0 0 0 0 0 0 0 0 0 0 0 0 0 0 0 0 0 0 0 0 0 0 0 0 0 0 0 0 0 0 0 0 0 0 0 0 0 0 0 0 0 0 0 0 0 0 0 0 0 0 0 0 0 0 0 0 0 0 0 
0 0 0 0 0 0 0 0 0 0 0 0 0 0 0 0 0 0 0 0 0 0 0 0 0 0 0 0 0 0 0 0 0 0 0 0 0 0 0 0 0 0 0 0 0 0 0 0 0 0 0 0 0 0 0 0 0 0 0 0 0 0 0 0 0 0 0 0 0 216 96 32 248 192 96 153 51 0 0 0 0 0 0 0 0 0 0 0 0 0 0 0 0 0 0 0 0 0 0 0 0 0 0 0 0 0 0 0 0 0 0 0 0 0 0 0 0 0 0 0 216 96 32 216 96 32 216 96 32 0 0 0 0 0 0 0 0 0 0 0 0 0 0 0 0 0 0 0 0 0 0 0 0 0 0 0 0 0 0 0 0 0 0 0 0 0 0 0 0 0 0 0 0 0 0 0 0 0 0 0 0 0 0 0 0 0 0 0 0 0 0 0 
0 0 0 0 0 0 0 0 0 0 0 0 0 0 0 0 0 0 0 0 0 0 0 0 0 0 0 0 0 0 0 0 0 0 0 0 0 0 0 0 0 0 0 0 0 0 0 0 0 0 0 0 0 0 0 0 0 0 0 0 0 0 0 0 0 0 153 51 0 248 192 96 248 192 96 153 51 0 0 0 0 0 0 0 0 0 0 0 0 0 0 0 0 0 0 0 0 0 0 0 0 0 0 0 0 0 0 0 0 0 0 0 0 0 0 0 0 0 0 0 153 51 0 248 192 96 248 192 96 153 51 0 153 51 0 0 0 0 0 0 0 0 0 0 0 0 0 0 0 0 0 0 0 0 0 0 0 0 0 0 0 0 0 0 0 0 0 0 0 0 0 0 0 0 0 0 0 0 0 0 0 0 0 0 0 0 0 0 0 0 0 0 
0 0 0 0 0 0 0 0 0 0 0 0 0 0 0 0 0 0 0 0 0 0 0 0 0 0 0 0 0 0 0 0 0 0 0 0 0 0 0 0 0 0 0 0 0 0 0 0 0 0 0 0 0 0 0 0 0 0 0 0 0 0 0 153 51 0 248 144 64 248 192 96 16 16 16 0 0 0 0 0 0 0 0 0 0 0 0 0 0 0 0 0 0 0 0 0 0 0 0 0 0 0 0 0 0 0 0 0 0 0 0 0 0 0 0 0 0 0 0 0 0 0 0 153 51 0 248 144 64 248 144 64 216 96 32 153 51 0 0 0 0 0 0 0 0 0 0 0 0 0 0 0 0 0 0 0 0 0 0 0 0 0 0 0 0 0 0 0 0 0 0 0 0 0 0 0 0 0 0 0 0 0 0 0 0 0 0 0 0 0 0 0 
0 0 0 0 0 0 0 0 0 0 0 0 0 0 0 0 0 0 0 0 0 0 0 0 0 0 0 0 0 0 0 0 0 0 0 0 0 0 0 0 0 0 0 0 0 0 0 0 0 0 0 216 96 32 153 51 0 153 51 0 153 51 0 248 144 64 248 144 64 216 96 32 16 16 16 0 0 0 0 0 0 0 0 0 0 0 0 0 0 0 0 0 0 0 0 0 0 0 0 0 0 0 0 0 0 0 0 0 0 0 0 0 0 0 0 0 0 0 0 0 0 0 0 0 0 0 153 51 0 216 96 32 216 96 32 216 96 32 153 51 0 0 0 0 0 0 0 0 0 0 0 0 0 0 0 0 0 0 0 0 0 0 0 0 0 0 0 0 0 0 0 0 0 0 0 0 0 0 0 0 0 0 0 0 0 0 0 0 0 0 0 0 
0 0 0 0 0 0 0 0 0 0 0 0 0 0 0 0 0 0 0 0 0 0 0 0 0 0 0 0 0 0 0 0 0 0 0 0 0 0 0 0 0 0 216 96 32 153 51 0 153 51 0 248 144 64 248 144 64 248 144 64 248 144 64 248 144 64 216 96 32 16 16 16 0 0 0 0 0 0 0 0 0 0 0 0 0 0 0 0 0 0 0 0 0 0 0 0 0 0 0 0 0 0 0 0 0 0 0 0 0 0 0 0 0 0 0 0 0 0 0 0 0 0 0 0 0 0 0 0 0 153 51 0 216 96 32 216 96 32 216 96 32 153 51 0 0 0 0 0 0 0 0 0 0 0 0 0 0 0 0 0 0 0 0 0 0 0 0 0 0 0 0 0 0 0 0 0 0 0 0 0 0 0 0 0 0 0 0 0 0 0 0 0 
0 0 0 0 0 0 0 0 0 0 0 0 0 0 0 0 0 0 0 0 0 0 0 0 0 0 0 216 96 32 153 51 0 153 51 0 153 51 0 248 144 64 248 144 64 248 144 64 248 144 64 248 144 64 216 96 32 248 144 64 216 96 32 216 96 32 16 16 16 0 0 0 0 0 0 0 0 0 0 0 0 0 0 0 0 0 0 0 0 0 0 0 0 0 0 0 0 0 0 0 0 0 0 0 0 0 0 0 0 0 0 0 0 0 0 0 0 0 0 0 0 0 0 0 0 0 0 0 0 153 51 0 248 144 64 216 96 32 216 96 32 216 96 32 153 51 0 0 0 0 0 0 0 0 0 0 0 0 0 0 0 0 0 0 0 0 0 0 0 0 0 0 0 0 0 0 0 0 0 0 0 0 0 0 0 0 0 0 0 0 0 0 
0 0 0 0 0 0 0 0 0 0 0 0 0 0 0 0 0 0 0 0 0 153 51 0 153 51 0 248 144 64 248 144 64 248 144 64 248 144 64 216 96 32 216 96 32 216 96 32 16 16 16 16 16 16 16 16 16 216 96 32 216 96 32 216 96 32 16 16 16 0 0 0 0 0 0 0 0 0 0 0 0 0 0 0 0 0 0 0 0 0 0 0 0 0 0 0 0 0 0 0 0 0 0 0 0 0 0 0 0 0 0 0 0 0 0 0 0 0 0 0 0 0 0 0 0 0 0 0 0 153 51 0 248 144 64 153 51 0 153 51 0 216 96 32 216 96 32 153 51 0 0 0 0 0 0 0 0 0 0 0 0 0 0 0 0 0 0 0 0 0 0 0 0 0 0 0 0 0 0 0 0 0 0 0 0 0 0 0 0 0 0 0 
0 0 0 0 0 0 0 0 0 0 0 0 0 0 0 0 0 0 0 0 0 153 51 0 248 144 64 248 144 64 216 96 32 216 96 32 216 96 32 16 16 16 16 16 16 16 16 16 24 64 104 24 64 104 24 64 104 16 16 16 216 96 32 216 96 32 16 16 16 0 0 0 0 0 0 0 0 0 0 0 0 0 0 0 153 51 0 153 51 0 153 51 0 153 51 0 153 51 0 153 51 0 0 0 0 0 0 0 0 0 0 0 0 0 0 0 0 0 0 0 0 0 0 0 0 0 0 0 0 153 51 0 248 144 64 153 51 0 24 64 104 16 16 16 216 96 32 216 96 32 0 0 0 0 0 0 0 0 0 0 0 0 0 0 0 0 0 0 0 0 0 0 0 0 0 0 0 0 0 0 0 0 0 0 0 0 0 0 0 0 0 0 
0 0 0 0 0 0 0 0 0 0 0 0 0 0 0 0 0 0 153 51 0 248 144 64 248 144 64 216 96 32 16 16 16 16 16 16 16 16 16 24 64 104 24 64 104 24 64 104 24 64 104 24 64 104 24 64 104 16 16 16 216 96 32 216 96 32 16 16 16 0 0 0 153 51 0 153 51 0 153 51 0 153 51 0 248 144 64 248 144 64 248 192 96 248 192 96 248 192 96 248 144 64 153 51 0 153 51 0 153 51 0 153 51 0 153 51 0 153 51 0 153 51 0 153 51 0 0 0 0 153 51 0 248 144 64 153 51 0 24 64 104 24 64 104 153 51 0 216 96 32 153 51 0 0 0 0 0 0 0 0 0 0 0 0 0 0 0 0 0 0 0 0 0 0 0 0 0 0 0 0 0 0 0 0 0 0 0 0 0 0 0 0 
0 0 0 0 0 0 0 0 0 0 0 0 0 0 0 0 0 0 153 51 0 248 144 64 216 96 32 16 16 16 24 64 104 24 64 104 24 64 104 24 64 104 24 64 104 24 64 104 24 64 104 24 64 104 24 64 104 24 64 104 16 16 16 153 51 0 153 51 0 153 51 0 248 192 96 216 96 32 248 144 64 153 51 0 248 144 64 248 192 96 16 16 16 153 51 0 153 51 0 216 96 32 248 144 64 248 144 64 248 192 96 248 192 96 216 96 32 216 96 32 216 96 32 216 96 32 16 16 16 153 51 0 248 144 64 153 51 0 24 64 104 24 64 104 24 64 104 248 144 64 16 16 16 0 0 0 0 0 0 0 0 0 0 0 0 0 0 0 0 0 0 0 0 0 0 0 0 0 0 0 0 0 0 0 0 0 0 0 0 0 0 0 
0 0 0 0 0 0 0 0 0 0 0 0 0 0 0 0 0 0 153 51 0 248 144 64 16 16 16 24 64 104 24 64 104 24 64 104 24 64 104 24 64 104 24 64 104 24 64 104 24 64 104 24 64 104 24 64 104 153 51 0 153 51 0 248 192 96 248 192 96 248 192 96 153 51 0 153 51 0 248 144 64 216 96 32 248 144 64 16 16 16 248 248 248 248 248 248 248 248 248 153 51 0 248 144 64 248 144 64 248 144 64 216 96 32 216 96 32 16 16 16 16 16 16 16 16 16 16 16 16 153 51 0 248 144 64 153 51 0 24 64 104 24 64 104 24 64 104 248 144 64 216 96 32 153 51 0 0 0 0 0 0 0 0 0 0 0 0 0 0 0 0 0 0 0 0 0 0 0 0 0 0 0 0 0 0 0 0 0 0 0 0 0 
0 0 0 0 0 0 0 0 0 0 0 0 0 0 0 153 51 0 248 144 64 216 96 32 16 16 16 24 64 104 24 64 104 32 120 144 32 120 144 32 120 144 32 120 144 24 64 104 24 64 104 24 64 104 153 51 0 248 192 96 248 192 96 248 192 96 248 192 96 248 192 96 248 192 96 248 144 64 248 144 64 216 96 32 153 51 0 248 248 248 16 16 16 40 168 184 248 248 248 216 96 32 248 144 64 216 96 32 216 96 32 16 16 16 153 51 0 0 0 0 0 0 0 0 0 0 153 51 0 248 144 64 216 96 32 153 51 0 24 64 104 24 64 104 24 64 104 153 51 0 216 96 32 16 16 16 0 0 0 0 0 0 0 0 0 0 0 0 0 0 0 0 0 0 0 0 0 0 0 0 0 0 0 0 0 0 0 0 0 0 0 0 
0 0 0 0 0 0 0 0 0 0 0 0 0 0 0 153 51 0 248 144 64 216 96 32 24 64 104 24 64 104 32 120 144 32 120 144 32 120 144 32 120 144 32 120 144 32 120 144 24 64 104 24 64 104 16 16 16 216 96 32 248 192 96 248 192 96 153 51 0 248 144 64 248 144 64 248 144 64 248 144 64 248 144 64 248 144 64 248 144 64 248 144 64 248 144 64 248 144 64 248 144 64 248 144 64 216 96 32 16 16 16 0 0 0 0 0 0 0 0 0 0 0 0 153 51 0 248 144 64 216 96 32 216 96 32 153 51 0 24 64 104 24 64 104 24 64 104 24 64 104 248 144 64 16 16 16 0 0 0 0 0 0 0 0 0 0 0 0 0 0 0 0 0 0 0 0 0 0 0 0 0 0 0 0 0 0 0 0 0 0 0 0 
0 0 0 0 0 0 0 0 0 0 0 0 153 51 0 248 144 64 216 96 32 24 64 104 24 64 104 32 120 144 32 120 144 32 120 144 32 120 144 32 120 144 32 120 144 32 120 144 24 64 104 24 64 104 16 16 16 248 144 64 248 144 64 248 144 64 248 144 64 248 144 64 248 144 64 248 144 64 248 144 64 248 144 64 248 144 64 248 144 64 248 144 64 248 144 64 248 144 64 216 96 32 216 96 32 216 96 32 16 16 16 0 0 0 0 0 0 0 0 0 0 0 0 153 51 0 248 144 64 216 96 32 16 16 16 24 64 104 24 64 104 24 64 104 24 64 104 24 64 104 248 144 64 216 96 32 153 51 0 0 0 0 0 0 0 0 0 0 0 0 0 0 0 0 0 0 0 0 0 0 0 0 0 0 0 0 0 0 0 0 0 0 
0 0 0 0 0 0 0 0 0 0 0 0 153 51 0 248 144 64 216 96 32 24 64 104 32 120 144 32 120 144 32 120 144 32 120 144 32 120 144 32 120 144 32 120 144 32 120 144 24 64 104 24 64 104 16 16 16 248 144 64 248 144 64 248 144 64 248 144 64 248 144 64 248 144 64 248 144 64 248 144 64 248 144 64 248 144 64 216 96 32 216 96 32 216 96 32 216 96 32 216 96 32 216 96 32 216 96 32 216 96 32 16 16 16 0 0 0 0 0 0 0 0 0 153 51 0 216 96 32 16 16 16 24 64 104 24 64 104 24 64 104 24 64 104 24 64 104 24 64 104 153 51 0 216 96 32 153 51 0 0 0 0 0 0 0 0 0 0 0 0 0 0 0 0 0 0 0 0 0 0 0 0 0 0 0 0 0 0 0 0 0 0 
0 0 0 0 0 0 0 0 0 153 51 0 248 144 64 216 96 32 24 64 104 32 120 144 32 120 144 32 120 144 32 120 144 32 120 144 32 120 144 32 120 144 32 120 144 32 120 144 32 120 144 24 64 104 24 64 104 16 16 16 204 204 204 153 51 0 216 96 32 216 96 32 204 204 204 153 51 0 216 96 32 216 96 32 216 96 32 216 96 32 153 51 0 153 51 0 216 96 32 216 96 32 216 96 32 216 96 32 216 96 32 153 51 0 0 0 0 0 0 0 0 0 0 153 51 0 216 96 32 16 16 16 24 64 104 24 64 104 24 64 104 24 64 104 24 64 104 24 64 104 24 64 104 216 96 32 16 16 16 0 0 0 0 0 0 0 0 0 0 0 0 0 0 0 0 0 0 0 0 0 0 0 0 0 0 0 0 0 0 0 0 0 
0 0 0 0 0 0 0 0 0 153 51 0 248 144 64 216 96 32 24 64 104 32 120 144 32 120 144 32 120 144 32 120 144 32 120 144 32 120 144 32 120 144 32 120 144 32 120 144 32 120 144 24 64 104 24 64 104 24 64 104 248 248 248 16 16 16 16 16 16 16 16 16 248 248 248 153 51 0 153 51 0 16 16 16 16 16 16 16 16 16 16 16 16 153 51 0 153 51 0 216 96 32 216 96 32 216 96 32 216 96 32 216 96 32 16 16 16 0 0 0 0 0 0 153 51 0 216 96 32 16 16 16 24 64 104 24 64 104 24 64 104 24 64 104 24 64 104 24 64 104 24 64 104 216 96 32 16 16 16 0 0 0 0 0 0 0 0 0 0 0 0 0 0 0 0 0 0 0 0 0 0 0 0 0 0 0 0 0 0 0 0 0 
0 0 0 0 0 0 216 96 32 248 144 64 216 96 32 24 64 104 32 120 144 32 120 144 32 120 144 32 120 144 32 120 144 32 120 144 32 120 144 32 120 144 32 120 144 32 120 144 32 120 144 24 64 104 24 64 104 24 64 104 24 64 104 153 51 0 216 96 32 153 51 0 153 51 0 16 16 16 16 16 16 153 51 0 192 48 32 192 48 32 153 51 0 16 16 16 248 144 64 216 96 32 216 96 32 216 96 32 216 96 32 216 96 32 216 96 32 16 16 16 153 51 0 216 96 32 216 96 32 16 16 16 24 64 104 24 64 104 24 64 104 24 64 104 24 64 104 24 64 104 24 64 104 216 96 32 16 16 16 0 0 0 0 0 0 0 0 0 0 0 0 192 48 32 0 0 0 0 0 0 0 0 0 0 0 0 0 0 0 0 0 0 
0 0 0 0 0 0 153 51 0 248 144 64 216 96 32 24 64 104 32 120 144 32 120 144 32 120 144 32 120 144 32 120 144 32 120 144 32 120 144 32 120 144 32 120 144 32 120 144 24 64 104 24 64 104 24 64 104 24 64 104 153 51 0 216 96 32 153 51 0 0 0 0 0 0 0 0 0 0 16 16 16 153 51 0 192 48 32 232 80 64 192 48 32 16 16 16 248 144 64 216 96 32 216 96 32 216 96 32 216 96 32 216 96 32 216 96 32 16 16 16 153 51 0 216 96 32 153 51 0 24 64 104 24 64 104 24 64 104 24 64 104 24 64 104 24 64 104 24 64 104 24 64 104 216 96 32 16 16 16 0 0 0 0 0 0 0 0 0 0 0 0 192 48 32 192 48 32 0 0 0 0 0 0 0 0 0 0 0 0 0 0 0 
0 0 0 0 0 0 153 51 0 248 144 64 216 96 32 24 64 104 32 120 144 32 120 144 32 120 144 40 168 184 32 120 144 40 168 184 32 120 144 32 120 144 32 120 144 32 120 144 24 64 104 24 64 104 24 64 104 24 64 104 153 51 0 216 96 32 153 51 0 0 0 0 0 0 0 16 16 16 153 51 0 192 48 32 232 80 64 232 80 64 192 48 32 16 16 16 248 144 64 216 96 32 216 96 32 216 96 32 216 96 32 216 96 32 216 96 32 216 96 32 153 51 0 216 96 32 153 51 0 24 64 104 24 64 104 24 64 104 24 64 104 24 64 104 24 64 104 24 64 104 24 64 104 216 96 32 16 16 16 0 0 0 0 0 0 0 0 0 0 0 0 192 48 32 192 48 32 0 0 0 0 0 0 0 0 0 0 0 0 0 0 0 
0 0 0 0 0 0 153 51 0 248 144 64 216 96 32 24 64 104 32 120 144 32 120 144 40 168 184 32 120 144 40 168 184 32 120 144 40 168 184 32 120 144 32 120 144 24 64 104 32 120 144 24 64 104 24 64 104 24 64 104 153 51 0 216 96 32 153 51 0 0 0 0 0 0 0 16 16 16 153 51 0 232 80 64 232 80 64 232 80 64 192 48 32 153 51 0 248 144 64 216 96 32 216 96 32 153 51 0 216 96 32 216 96 32 216 96 32 216 96 32 16 16 16 16 16 16 24 64 104 24 64 104 24 64 104 24 64 104 24 64 104 24 64 104 24 64 104 32 120 144 24 64 104 216 96 32 16 16 16 0 0 0 0 0 0 0 0 0 0 0 0 0 0 0 192 48 32 0 0 0 0 0 0 0 0 0 0 0 0 0 0 0 
0 0 0 216 96 32 248 144 64 216 96 32 24 64 104 32 120 144 32 120 144 32 120 144 32 120 144 40 168 184 32 120 144 40 168 184 32 120 144 32 120 144 32 120 144 24 64 104 24 64 104 32 120 144 24 64 104 24 64 104 153 51 0 216 96 32 153 51 0 0 0 0 0 0 0 16 16 16 153 51 0 232 80 64 232 80 64 232 80 64 153 51 0 153 51 0 248 144 64 216 96 32 153 51 0 216 96 32 216 96 32 216 96 32 216 96 32 216 96 32 216 96 32 16 16 16 24 64 104 24 64 104 24 64 104 24 64 104 24 64 104 24 64 104 32 120 144 24 64 104 24 64 104 216 96 32 153 51 0 0 0 0 0 0 0 0 0 0 0 0 0 0 0 0 0 0 0 0 0 0 0 0 0 0 0 0 0 0 0 0 0 0 
0 0 0 153 51 0 248 144 64 216 96 32 24 64 104 32 120 144 32 120 144 32 120 144 40 168 184 32 120 144 40 168 184 32 120 144 40 168 184 32 120 144 24 64 104 24 64 104 32 120 144 24 64 104 32 120 144 24 64 104 24 64 104 216 96 32 216 96 32 153 51 0 153 51 0 16 16 16 153 51 0 232 80 64 232 80 64 153 51 0 153 51 0 216 96 32 216 96 32 16 16 16 153 51 0 153 51 0 216 96 32 216 96 32 216 96 32 216 96 32 216 96 32 153 51 0 16 16 16 24 64 104 24 64 104 24 64 104 24 64 104 24 64 104 24 64 104 32 120 144 216 96 32 216 96 32 153 51 0 0 0 0 0 0 0 0 0 0 0 0 0 192 48 32 0 0 0 0 0 0 0 0 0 0 0 0 0 0 0 0 0 0 
0 0 0 153 51 0 248 144 64 216 96 32 24 64 104 32 120 144 32 120 144 40 168 184 40 168 184 40 168 184 32 120 144 40 168 184 32 120 144 32 120 144 24 64 104 32 120 144 24 64 104 32 120 144 24 64 104 32 120 144 24 64 104 153 51 0 216 96 32 216 96 32 153 51 0 248 248 248 153 51 0 153 51 0 153 51 0 248 248 248 153 51 0 248 144 64 216 96 32 16 16 16 216 96 32 216 96 32 216 96 32 216 96 32 216 96 32 216 96 32 216 96 32 216 96 32 16 16 16 24 64 104 24 64 104 24 64 104 24 64 104 24 64 104 32 120 144 32 120 144 216 96 32 16 16 16 0 0 0 0 0 0 0 0 0 0 0 0 0 0 0 192 48 32 0 0 0 0 0 0 0 0 0 0 0 0 0 0 0 0 0 0 
0 0 0 153 51 0 248 144 64 216 96 32 24 64 104 32 120 144 32 120 144 40 168 184 40 168 184 40 168 184 40 168 184 32 120 144 32 120 144 32 120 144 24 64 104 24 64 104 32 120 144 24 64 104 32 120 144 24 64 104 24 64 104 24 64 104 24 64 104 24 64 104 153 51 0 248 192 96 216 96 32 153 51 0 153 51 0 153 51 0 248 144 64 216 96 32 16 16 16 0 0 0 153 51 0 248 144 64 216 96 32 216 96 32 216 96 32 216 96 32 216 96 32 216 96 32 16 16 16 24 64 104 24 64 104 24 64 104 24 64 104 32 120 144 32 120 144 32 120 144 216 96 32 16 16 16 0 0 0 0 0 0 0 0 0 192 48 32 0 0 0 192 48 32 192 48 32 0 0 0 0 0 0 0 0 0 0 0 0 0 0 0 
0 0 0 153 51 0 248 144 64 216 96 32 24 64 104 32 120 144 40 168 184 40 168 184 40 168 184 40 168 184 40 168 184 40 168 184 32 120 144 24 64 104 24 64 104 32 120 144 24 64 104 32 120 144 24 64 104 32 120 144 24 64 104 24 64 104 24 64 104 24 64 104 24 64 104 153 51 0 248 192 96 248 144 64 248 144 64 248 144 64 216 96 32 16 16 16 0 0 0 0 0 0 153 51 0 248 144 64 248 144 64 216 96 32 216 96 32 216 96 32 216 96 32 216 96 32 153 51 0 16 16 16 24 64 104 24 64 104 24 64 104 32 120 144 32 120 144 216 96 32 153 51 0 0 0 0 0 0 0 0 0 0 0 0 0 192 48 32 192 48 32 192 48 32 192 48 32 192 48 32 0 0 0 0 0 0 0 0 0 0 0 0 
153 51 0 248 144 64 216 96 32 24 64 104 32 120 144 32 120 144 40 168 184 40 168 184 40 168 184 40 168 184 40 168 184 40 168 184 32 120 144 24 64 104 40 168 184 24 64 104 32 120 144 24 64 104 32 120 144 24 64 104 32 120 144 24 64 104 24 64 104 24 64 104 24 64 104 24 64 104 16 16 16 16 16 16 16 16 16 16 16 16 16 16 16 0 0 0 0 0 0 0 0 0 153 51 0 248 144 64 248 144 64 248 144 64 216 96 32 216 96 32 216 96 32 216 96 32 216 96 32 16 16 16 24 64 104 32 120 144 24 64 104 24 64 104 32 120 144 216 96 32 16 16 16 0 0 0 0 0 0 0 0 0 0 0 0 0 0 0 192 48 32 192 48 32 192 48 32 192 48 32 192 48 32 0 0 0 0 0 0 0 0 0 
153 51 0 248 144 64 216 96 32 24 64 104 32 120 144 32 120 144 40 168 184 16 16 16 16 16 16 24 64 104 24 64 104 40 168 184 32 120 144 40 168 184 32 120 144 32 120 144 32 120 144 24 64 104 16 16 16 16 16 16 16 16 16 16 16 16 16 16 16 24 64 104 24 64 104 24 64 104 24 64 104 153 51 0 216 96 32 216 96 32 216 96 32 153 51 0 0 0 0 0 0 0 153 51 0 248 144 64 248 144 64 248 144 64 216 96 32 216 96 32 216 96 32 216 96 32 216 96 32 16 16 16 24 64 104 32 120 144 24 64 104 24 64 104 216 96 32 16 16 16 0 0 0 0 0 0 0 0 0 0 0 0 0 0 0 0 0 0 192 48 32 192 48 32 192 48 32 192 48 32 192 48 32 0 0 0 0 0 0 0 0 0 
153 51 0 248 144 64 216 96 32 24 64 104 32 120 144 40 168 184 16 16 16 0 0 0 0 0 0 0 0 0 0 0 0 32 120 144 40 168 184 32 120 144 40 168 184 24 64 104 24 64 104 0 0 0 0 0 0 0 0 0 0 0 0 0 0 0 0 0 0 16 16 16 16 16 16 24 64 104 24 64 104 24 64 104 153 51 0 216 96 32 216 96 32 153 51 0 0 0 0 153 51 0 248 144 64 248 144 64 248 144 64 248 144 64 248 144 64 216 96 32 216 96 32 216 96 32 216 96 32 153 51 0 24 64 104 0 0 0 32 120 144 24 64 104 216 96 32 16 16 16 0 0 0 0 0 0 0 0 0 0 0 0 0 0 0 0 0 0 0 0 0 192 48 32 248 160 88 192 48 32 192 48 32 192 48 32 0 0 0 0 0 0 
153 51 0 248 144 64 216 96 32 24 64 104 32 120 144 16 16 16 0 0 0 0 0 0 0 0 0 0 0 0 0 0 0 0 0 0 32 120 144 40 168 184 24 64 104 0 0 0 0 0 0 0 0 0 0 0 0 0 0 0 0 0 0 0 0 0 0 0 0 0 0 0 0 0 0 16 16 16 24 64 104 24 64 104 153 51 0 216 96 32 153 51 0 153 51 0 153 51 0 216 96 32 248 144 64 248 144 64 248 144 64 248 144 64 248 144 64 216 96 32 216 96 32 216 96 32 216 96 32 216 96 32 153 51 0 0 0 0 0 0 0 216 96 32 16 16 16 0 0 0 0 0 0 0 0 0 0 0 0 0 0 0 0 0 0 0 0 0 0 0 0 192 48 32 248 160 88 192 48 32 248 160 88 192 48 32 0 0 0 0 0 0 
153 51 0 248 144 64 216 96 32 24 64 104 16 16 16 0 0 0 0 0 0 0 0 0 0 0 0 0 0 0 0 0 0 0 0 0 24 64 104 24 64 104 0 0 0 0 0 0 0 0 0 0 0 0 0 0 0 0 0 0 0 0 0 0 0 0 0 0 0 0 0 0 0 0 0 0 0 0 16 16 16 24 64 104 153 51 0 153 51 0 216 96 32 248 144 64 248 144 64 248 144 64 248 144 64 248 144 64 248 144 64 248 144 64 248 144 64 216 96 32 216 96 32 216 96 32 216 96 32 216 96 32 16 16 16 0 0 0 0 0 0 216 96 32 16 16 16 0 0 0 0 0 0 0 0 0 0 0 0 0 0 0 0 0 0 192 48 32 0 0 0 192 48 32 248 160 88 248 160 88 248 160 88 192 48 32 192 48 32 0 0 0 
153 51 0 248 144 64 216 96 32 24 64 104 16 16 16 0 0 0 0 0 0 0 0 0 0 0 0 0 0 0 0 0 0 0 0 0 0 0 0 0 0 0 0 0 0 0 0 0 0 0 0 0 0 0 0 0 0 0 0 0 0 0 0 0 0 0 0 0 0 0 0 0 0 0 0 0 0 0 16 16 16 153 51 0 216 96 32 248 144 64 248 144 64 248 144 64 248 144 64 248 144 64 248 144 64 248 144 64 248 144 64 248 144 64 248 144 64 216 96 32 216 96 32 216 96 32 216 96 32 216 96 32 16 16 16 0 0 0 0 0 0 16 16 16 0 0 0 0 0 0 153 51 0 153 51 0 0 0 0 0 0 0 0 0 0 0 0 0 192 48 32 192 48 32 248 160 88 248 160 88 248 160 88 192 48 32 248 160 88 192 48 32 
153 51 0 248 144 64 216 96 32 24 64 104 0 0 0 0 0 0 0 0 0 0 0 0 0 0 0 0 0 0 0 0 0 0 0 0 0 0 0 0 0 0 0 0 0 0 0 0 0 0 0 0 0 0 0 0 0 0 0 0 0 0 0 0 0 0 0 0 0 0 0 0 0 0 0 0 0 0 153 51 0 248 144 64 248 144 64 153 51 0 248 144 64 248 144 64 248 144 64 248 144 64 248 144 64 248 144 64 248 144 64 248 144 64 216 96 32 216 96 32 216 96 32 216 96 32 216 96 32 216 96 32 16 16 16 16 16 16 0 0 0 0 0 0 0 0 0 153 51 0 248 248 248 204 204 204 16 16 16 0 0 0 0 0 0 192 48 32 248 160 88 248 160 88 248 160 88 248 208 104 248 160 88 248 208 104 248 160 88 192 48 32 
0 0 0 153 51 0 216 96 32 153 51 0 0 0 0 0 0 0 0 0 0 0 0 0 0 0 0 0 0 0 0 0 0 0 0 0 0 0 0 0 0 0 0 0 0 0 0 0 0 0 0 0 0 0 0 0 0 0 0 0 0 0 0 0 0 0 0 0 0 0 0 0 0 0 0 153 51 0 248 144 64 248 144 64 153 51 0 248 192 96 248 192 96 248 144 64 248 144 64 153 51 0 216 96 32 248 144 64 248 144 64 248 144 64 216 96 32 216 96 32 216 96 32 216 96 32 216 96 32 216 96 32 16 16 16 216 96 32 16 16 16 0 0 0 153 51 0 248 192 96 248 192 96 16 16 16 0 0 0 0 0 0 0 0 0 192 48 32 248 160 88 248 208 104 248 208 104 248 208 104 192 48 32 248 208 104 248 160 88 192 48 32 
0 0 0 153 51 0 216 96 32 153 51 0 0 0 0 0 0 0 0 0 0 0 0 0 0 0 0 0 0 0 0 0 0 0 0 0 0 0 0 0 0 0 0 0 0 0 0 0 0 0 0 0 0 0 0 0 0 0 0 0 0 0 0 0 0 0 0 0 0 0 0 0 153 51 0 248 144 64 248 144 64 248 144 64 153 51 0 248 192 96 248 192 96 248 144 64 248 144 64 216 96 32 153 51 0 248 144 64 216 96 32 216 96 32 216 96 32 216 96 32 216 96 32 216 96 32 216 96 32 216 96 32 153 51 0 216 96 32 16 16 16 153 51 0 153 51 0 248 192 96 216 96 32 16 16 16 153 51 0 0 0 0 0 0 0 192 48 32 248 160 88 248 208 104 248 208 104 248 208 104 232 80 64 248 208 104 248 160 88 192 48 32 
0 0 0 153 51 0 216 96 32 153 51 0 0 0 0 0 0 0 0 0 0 0 0 0 0 0 0 0 0 0 0 0 0 0 0 0 0 0 0 0 0 0 0 0 0 0 0 0 0 0 0 0 0 0 0 0 0 0 0 0 0 0 0 0 0 0 0 0 0 153 51 0 216 96 32 248 144 64 248 144 64 216 96 32 153 51 0 248 192 96 248 144 64 248 144 64 248 144 64 216 96 32 16 16 16 216 96 32 216 96 32 216 96 32 216 96 32 216 96 32 216 96 32 216 96 32 216 96 32 216 96 32 216 96 32 153 51 0 153 51 0 204 204 204 248 192 96 216 96 32 216 96 32 216 96 32 16 16 16 16 16 16 0 0 0 0 0 0 248 160 88 248 208 104 248 208 104 232 80 64 232 80 64 248 208 104 248 208 104 248 160 88 
0 0 0 153 51 0 216 96 32 153 51 0 0 0 0 0 0 0 0 0 0 0 0 0 0 0 0 0 0 0 0 0 0 0 0 0 216 96 32 153 51 0 153 51 0 153 51 0 153 51 0 153 51 0 216 96 32 0 0 0 0 0 0 0 0 0 153 51 0 216 96 32 248 144 64 248 144 64 248 144 64 153 51 0 248 144 64 248 144 64 248 144 64 153 51 0 216 96 32 216 96 32 16 16 16 216 96 32 216 96 32 216 96 32 248 208 104 248 208 104 248 208 104 248 208 104 248 208 104 216 96 32 216 96 32 16 16 16 153 51 0 248 248 248 153 51 0 216 96 32 216 96 32 216 96 32 248 144 64 248 248 248 16 16 16 0 0 0 192 48 32 248 208 104 248 208 104 232 80 64 232 80 64 248 208 104 248 208 104 192 48 32 
0 0 0 0 0 0 153 51 0 0 0 0 0 0 0 0 0 0 0 0 0 0 0 0 0 0 0 216 96 32 153 51 0 153 51 0 248 192 96 248 192 96 248 192 96 248 192 96 248 192 96 248 192 96 248 144 64 216 96 32 153 51 0 153 51 0 153 51 0 248 144 64 248 144 64 248 144 64 216 96 32 153 51 0 248 144 64 248 144 64 153 51 0 216 96 32 216 96 32 16 16 16 216 96 32 216 96 32 248 224 152 248 224 152 248 224 152 248 224 152 248 224 152 248 224 152 248 224 152 248 208 104 216 96 32 16 16 16 248 144 64 153 51 0 248 144 64 216 96 32 216 96 32 216 96 32 16 16 16 16 16 16 0 0 0 0 0 0 192 48 32 248 208 104 232 80 64 232 80 64 232 80 64 248 208 104 192 48 32 0 0 0 
0 0 0 0 0 0 0 0 0 0 0 0 0 0 0 0 0 0 0 0 0 153 51 0 216 96 32 248 144 64 248 192 96 248 192 96 248 192 96 248 192 96 248 192 96 248 144 64 248 144 64 248 144 64 248 144 64 248 144 64 248 144 64 16 16 16 248 144 64 248 144 64 248 144 64 248 144 64 153 51 0 248 144 64 248 144 64 248 144 64 16 16 16 16 16 16 16 16 16 16 16 16 216 96 32 248 224 152 248 224 152 248 224 152 248 224 152 248 224 152 248 224 152 248 224 152 248 224 152 248 224 152 248 208 104 16 16 16 248 144 64 248 144 64 248 144 64 216 96 32 216 96 32 16 16 16 0 0 0 0 0 0 0 0 0 0 0 0 192 48 32 192 48 32 232 80 64 232 80 64 248 208 104 192 48 32 192 48 32 0 0 0 
0 0 0 0 0 0 0 0 0 0 0 0 0 0 0 153 51 0 216 96 32 248 144 64 248 144 64 248 192 96 248 192 96 248 192 96 248 144 64 248 144 64 248 144 64 248 144 64 248 144 64 248 144 64 248 144 64 248 144 64 153 51 0 216 96 32 248 144 64 248 144 64 248 144 64 216 96 32 153 51 0 248 144 64 153 51 0 16 16 16 248 144 64 248 144 64 248 144 64 216 96 32 153 51 0 16 16 16 248 224 152 248 224 152 248 224 152 248 224 152 248 224 152 248 224 152 248 224 152 248 224 152 248 208 104 16 16 16 248 144 64 153 51 0 16 16 16 16 16 16 16 16 16 0 0 0 0 0 0 0 0 0 0 0 0 0 0 0 0 0 0 153 51 0 248 144 64 232 80 64 192 48 32 192 48 32 0 0 0 0 0 0 
0 0 0 0 0 0 0 0 0 0 0 0 153 51 0 216 96 32 248 144 64 248 144 64 248 192 96 248 192 96 248 144 64 248 144 64 248 144 64 248 144 64 248 144 64 248 144 64 248 144 64 248 144 64 248 144 64 153 51 0 16 16 16 248 144 64 248 144 64 248 144 64 248 144 64 153 51 0 248 144 64 248 144 64 248 144 64 248 144 64 248 144 64 216 96 32 153 51 0 153 51 0 216 96 32 204 204 204 16 16 16 248 224 152 248 224 152 248 224 152 248 224 152 248 224 152 248 224 152 248 208 104 248 208 104 16 16 16 216 96 32 216 96 32 16 16 16 0 0 0 0 0 0 0 0 0 0 0 0 0 0 0 0 0 0 0 0 0 153 51 0 248 144 64 248 144 64 153 51 0 0 0 0 0 0 0 0 0 0 0 0 0 
0 0 0 0 0 0 0 0 0 153 51 0 216 96 32 248 144 64 248 144 64 248 144 64 248 192 96 248 144 64 248 144 64 248 144 64 248 144 64 216 96 32 216 96 32 248 144 64 248 144 64 248 144 64 153 51 0 153 51 0 216 96 32 248 144 64 248 144 64 248 144 64 248 144 64 153 51 0 248 144 64 153 51 0 248 144 64 248 144 64 216 96 32 216 96 32 248 248 248 204 204 204 16 16 16 16 16 16 16 16 16 248 224 152 248 224 152 248 224 152 248 224 152 248 224 152 248 224 152 248 208 104 248 208 104 153 51 0 216 96 32 16 16 16 0 0 0 0 0 0 0 0 0 0 0 0 0 0 0 0 0 0 153 51 0 153 51 0 248 144 64 248 144 64 153 51 0 0 0 0 0 0 0 0 0 0 0 0 0 0 0 0 
0 0 0 0 0 0 0 0 0 153 51 0 216 96 32 248 144 64 248 144 64 248 144 64 248 144 64 248 144 64 248 144 64 153 51 0 216 96 32 16 16 16 16 16 16 16 16 16 16 16 16 153 51 0 216 96 32 16 16 16 216 96 32 248 144 64 248 144 64 248 144 64 248 144 64 248 144 64 153 51 0 16 16 16 216 96 32 216 96 32 216 96 32 16 16 16 16 16 16 248 248 248 16 16 16 248 224 152 248 224 152 248 224 152 248 224 152 248 224 152 248 224 152 248 224 152 248 208 104 248 208 104 248 208 104 153 51 0 16 16 16 0 0 0 0 0 0 0 0 0 0 0 0 16 16 16 16 16 16 153 51 0 216 96 32 248 144 64 248 144 64 16 16 16 0 0 0 0 0 0 0 0 0 0 0 0 0 0 0 0 0 0 
0 0 0 0 0 0 153 51 0 216 96 32 248 144 64 248 144 64 248 144 64 248 144 64 248 144 64 248 144 64 248 144 64 153 51 0 16 16 16 0 0 0 0 0 0 153 51 0 153 51 0 216 96 32 16 16 16 153 51 0 153 51 0 248 144 64 248 144 64 248 144 64 248 144 64 248 144 64 216 96 32 216 96 32 16 16 16 16 16 16 248 248 248 16 16 16 248 160 88 16 16 16 248 248 248 248 224 152 248 224 152 248 224 152 248 224 152 248 224 152 248 224 152 248 208 104 248 208 104 248 208 104 248 160 88 153 51 0 216 96 32 16 16 16 16 16 16 16 16 16 153 51 0 216 96 32 216 96 32 216 96 32 216 96 32 216 96 32 16 16 16 0 0 0 0 0 0 0 0 0 0 0 0 0 0 0 0 0 0 0 0 0 
0 0 0 0 0 0 153 51 0 216 96 32 248 144 64 248 144 64 248 144 64 248 144 64 248 144 64 248 144 64 248 144 64 248 144 64 153 51 0 153 51 0 153 51 0 216 96 32 216 96 32 216 96 32 16 16 16 248 144 64 248 144 64 248 144 64 248 144 64 248 144 64 248 144 64 216 96 32 153 51 0 216 96 32 216 96 32 16 16 16 248 248 248 16 16 16 248 160 88 248 160 88 248 208 104 248 224 152 248 224 152 248 224 152 248 224 152 248 208 104 248 208 104 248 208 104 248 208 104 248 208 104 248 160 88 216 96 32 153 51 0 216 96 32 216 96 32 216 96 32 216 96 32 216 96 32 216 96 32 216 96 32 216 96 32 16 16 16 0 0 0 0 0 0 0 0 0 0 0 0 0 0 0 0 0 0 0 0 0 0 0 0 
0 0 0 0 0 0 153 51 0 216 96 32 248 144 64 248 144 64 248 144 64 248 144 64 248 144 64 248 144 64 248 144 64 248 144 64 248 144 64 248 144 64 248 144 64 216 96 32 216 96 32 16 16 16 248 144 64 248 144 64 248 144 64 248 144 64 248 144 64 248 144 64 248 144 64 248 144 64 216 96 32 153 51 0 248 160 88 248 160 88 16 16 16 248 160 88 248 160 88 248 160 88 248 208 104 248 208 104 248 208 104 248 208 104 248 208 104 248 208 104 248 208 104 248 208 104 248 208 104 248 208 104 153 51 0 216 96 32 216 96 32 153 51 0 216 96 32 216 96 32 216 96 32 216 96 32 216 96 32 16 16 16 153 51 0 0 0 0 0 0 0 0 0 0 0 0 0 0 0 0 0 0 0 0 0 0 0 0 0 0 0 0 
0 0 0 0 0 0 153 51 0 216 96 32 216 96 32 248 144 64 216 96 32 248 144 64 248 144 64 248 144 64 248 144 64 248 144 64 248 144 64 248 144 64 216 96 32 216 96 32 16 16 16 248 144 64 248 144 64 248 192 96 248 192 96 248 192 96 248 144 64 248 144 64 248 144 64 248 144 64 216 96 32 216 96 32 153 51 0 248 160 88 248 160 88 248 160 88 248 160 88 248 208 104 248 208 104 248 208 104 248 208 104 248 208 104 248 208 104 248 208 104 248 208 104 248 208 104 248 208 104 248 160 88 153 51 0 216 96 32 216 96 32 16 16 16 216 96 32 216 96 32 216 96 32 16 16 16 16 16 16 0 0 0 0 0 0 0 0 0 0 0 0 0 0 0 0 0 0 0 0 0 0 0 0 0 0 0 0 0 0 0 0 0 
0 0 0 0 0 0 153 51 0 216 96 32 216 96 32 216 96 32 248 144 64 216 96 32 248 144 64 216 96 32 248 144 64 216 96 32 248 144 64 216 96 32 216 96 32 216 96 32 16 16 16 248 144 64 248 192 96 248 192 96 248 192 96 248 192 96 248 192 96 248 144 64 248 144 64 248 144 64 216 96 32 216 96 32 153 51 0 248 160 88 248 160 88 248 160 88 248 208 104 248 160 88 248 208 104 248 208 104 248 208 104 248 208 104 248 208 104 248 208 104 248 208 104 248 208 104 248 160 88 153 51 0 216 96 32 216 96 32 216 96 32 16 16 16 16 16 16 16 16 16 153 51 0 0 0 0 0 0 0 0 0 0 0 0 0 0 0 0 0 0 0 0 0 0 0 0 0 0 0 0 0 0 0 0 0 0 0 0 0 0 0 0 
0 0 0 0 0 0 0 0 0 216 96 32 216 96 32 216 96 32 216 96 32 248 144 64 216 96 32 248 144 64 216 96 32 248 144 64 216 96 32 216 96 32 216 96 32 216 96 32 153 51 0 248 144 64 248 192 96 248 192 96 248 192 96 248 192 96 248 192 96 248 144 64 248 144 64 248 144 64 216 96 32 216 96 32 216 96 32 153 51 0 248 160 88 248 208 104 248 160 88 248 208 104 248 160 88 248 208 104 248 208 104 248 208 104 248 208 104 248 208 104 248 208 104 248 160 88 153 51 0 216 96 32 216 96 32 216 96 32 216 96 32 16 16 16 0 0 0 0 0 0 0 0 0 0 0 0 0 0 0 0 0 0 0 0 0 0 0 0 0 0 0 0 0 0 0 0 0 0 0 0 0 0 0 0 0 0 0 0 0 0 0 0 
0 0 0 0 0 0 0 0 0 16 16 16 216 96 32 216 96 32 216 96 32 216 96 32 216 96 32 216 96 32 216 96 32 216 96 32 216 96 32 216 96 32 216 96 32 153 51 0 248 144 64 248 144 64 248 192 96 248 192 96 248 192 96 248 192 96 248 144 64 248 144 64 248 144 64 248 144 64 248 144 64 216 96 32 216 96 32 16 16 16 248 160 88 248 160 88 248 208 104 248 160 88 248 208 104 248 160 88 248 208 104 248 160 88 248 208 104 248 208 104 248 160 88 153 51 0 216 96 32 216 96 32 216 96 32 216 96 32 153 51 0 16 16 16 0 0 0 0 0 0 0 0 0 0 0 0 0 0 0 0 0 0 0 0 0 0 0 0 0 0 0 0 0 0 0 0 0 0 0 0 0 0 0 0 0 0 0 0 0 0 0 0 
0 0 0 0 0 0 0 0 0 0 0 0 16 16 16 216 96 32 216 96 32 216 96 32 216 96 32 216 96 32 216 96 32 216 96 32 216 96 32 216 96 32 216 96 32 16 16 16 248 144 64 248 144 64 248 144 64 248 192 96 248 192 96 248 144 64 248 192 96 248 144 64 248 144 64 248 144 64 248 144 64 216 96 32 216 96 32 16 16 16 248 160 88 248 160 88 248 160 88 248 208 104 248 160 88 248 208 104 248 160 88 248 208 104 248 160 88 153 51 0 153 51 0 216 96 32 216 96 32 216 96 32 216 96 32 216 96 32 153 51 0 0 0 0 0 0 0 0 0 0 0 0 0 0 0 0 0 0 0 0 0 0 0 0 0 0 0 0 0 0 0 0 0 0 0 0 0 0 0 0 0 0 0 0 0 0 0 0 0 0 0 0 
0 0 0 0 0 0 0 0 0 0 0 0 0 0 0 16 16 16 216 96 32 216 96 32 216 96 32 216 96 32 216 96 32 216 96 32 216 96 32 216 96 32 216 96 32 16 16 16 248 144 64 248 144 64 248 144 64 248 144 64 248 144 64 248 192 96 248 144 64 248 144 64 248 144 64 248 144 64 248 144 64 216 96 32 216 96 32 16 16 16 248 160 88 248 160 88 248 160 88 248 160 88 248 160 88 248 160 88 248 160 88 153 51 0 153 51 0 216 96 32 216 96 32 216 96 32 216 96 32 216 96 32 216 96 32 153 51 0 16 16 16 0 0 0 0 0 0 0 0 0 0 0 0 0 0 0 0 0 0 0 0 0 0 0 0 0 0 0 0 0 0 0 0 0 0 0 0 0 0 0 0 0 0 0 0 0 0 0 0 0 0 0 
0 0 0 0 0 0 0 0 0 0 0 0 0 0 0 0 0 0 153 51 0 16 16 16 248 160 88 248 160 88 248 160 88 248 160 88 248 160 88 248 160 88 248 160 88 153 51 0 216 96 32 248 144 64 248 144 64 248 144 64 248 144 64 248 144 64 248 144 64 248 144 64 248 144 64 248 144 64 216 96 32 216 96 32 216 96 32 16 16 16 248 160 88 248 160 88 248 160 88 248 160 88 16 16 16 16 16 16 16 16 16 153 51 0 216 96 32 216 96 32 216 96 32 216 96 32 216 96 32 216 96 32 153 51 0 16 16 16 0 0 0 0 0 0 0 0 0 0 0 0 0 0 0 0 0 0 0 0 0 0 0 0 0 0 0 0 0 0 0 0 0 0 0 0 0 0 0 0 0 0 0 0 0 0 0 0 0 0 0 0 0 0 
0 0 0 0 0 0 0 0 0 0 0 0 0 0 0 0 0 0 0 0 0 0 0 0 153 51 0 16 16 16 16 16 16 248 160 88 248 160 88 248 160 88 248 160 88 248 160 88 16 16 16 216 96 32 248 144 64 248 144 64 248 144 64 248 144 64 248 144 64 248 144 64 248 144 64 248 144 64 216 96 32 216 96 32 153 51 0 16 16 16 16 16 16 16 16 16 16 16 16 153 51 0 0 0 0 153 51 0 216 96 32 216 96 32 153 51 0 216 96 32 216 96 32 216 96 32 216 96 32 153 51 0 16 16 16 216 96 32 153 51 0 153 51 0 0 0 0 0 0 0 0 0 0 0 0 0 0 0 0 0 0 0 0 0 0 0 0 0 0 0 0 0 0 0 0 0 0 0 0 0 0 0 0 0 0 0 0 0 0 0 0 0 
0 0 0 0 0 0 0 0 0 0 0 0 0 0 0 0 0 0 0 0 0 0 0 0 0 0 0 0 0 0 0 0 0 153 51 0 16 16 16 16 16 16 16 16 16 16 16 16 16 16 16 153 51 0 216 96 32 248 144 64 248 144 64 248 144 64 248 144 64 248 144 64 248 144 64 216 96 32 216 96 32 153 51 0 16 16 16 0 0 0 0 0 0 0 0 0 0 0 0 0 0 0 0 0 0 153 51 0 216 96 32 216 96 32 216 96 32 216 96 32 216 96 32 216 96 32 216 96 32 216 96 32 216 96 32 216 96 32 248 144 64 248 144 64 16 16 16 0 0 0 0 0 0 0 0 0 0 0 0 0 0 0 0 0 0 0 0 0 0 0 0 0 0 0 0 0 0 0 0 0 0 0 0 0 0 0 0 0 0 0 0 0 
0 0 0 0 0 0 0 0 0 0 0 0 0 0 0 0 0 0 0 0 0 0 0 0 0 0 0 0 0 0 0 0 0 0 0 0 0 0 0 0 0 0 0 0 0 0 0 0 0 0 0 153 51 0 248 144 64 248 144 64 248 144 64 248 144 64 248 144 64 216 96 32 216 96 32 216 96 32 16 16 16 153 51 0 0 0 0 0 0 0 0 0 0 0 0 0 0 0 0 0 0 0 0 0 0 0 0 0 16 16 16 16 16 16 16 16 16 153 51 0 216 96 32 216 96 32 248 144 64 248 144 64 248 144 64 248 144 64 248 144 64 16 16 16 204 204 204 16 16 16 0 0 0 0 0 0 0 0 0 0 0 0 0 0 0 0 0 0 0 0 0 0 0 0 0 0 0 0 0 0 0 0 0 0 0 0 0 0 0 0 0 0 
0 0 0 0 0 0 0 0 0 0 0 0 0 0 0 0 0 0 0 0 0 0 0 0 0 0 0 0 0 0 0 0 0 0 0 0 0 0 0 0 0 0 0 0 0 0 0 0 153 51 0 216 96 32 248 144 64 248 144 64 216 96 32 216 96 32 216 96 32 216 96 32 216 96 32 216 96 32 216 96 32 16 16 16 0 0 0 0 0 0 0 0 0 0 0 0 0 0 0 0 0 0 0 0 0 0 0 0 0 0 0 0 0 0 0 0 0 0 0 0 16 16 16 16 16 16 16 16 16 153 51 0 216 96 32 216 96 32 204 204 204 248 248 248 16 16 16 16 16 16 0 0 0 0 0 0 0 0 0 0 0 0 0 0 0 0 0 0 0 0 0 0 0 0 0 0 0 0 0 0 0 0 0 0 0 0 0 0 0 0 0 0 
0 0 0 0 0 0 0 0 0 0 0 0 0 0 0 0 0 0 0 0 0 0 0 0 0 0 0 0 0 0 0 0 0 0 0 0 0 0 0 0 0 0 0 0 0 0 0 0 153 51 0 248 248 248 153 51 0 216 96 32 153 51 0 153 51 0 216 96 32 153 51 0 153 51 0 216 96 32 216 96 32 16 16 16 0 0 0 0 0 0 0 0 0 0 0 0 0 0 0 0 0 0 0 0 0 0 0 0 0 0 0 0 0 0 0 0 0 0 0 0 0 0 0 0 0 0 0 0 0 16 16 16 16 16 16 16 16 16 16 16 16 16 16 16 16 16 16 0 0 0 0 0 0 0 0 0 0 0 0 0 0 0 0 0 0 0 0 0 0 0 0 0 0 0 0 0 0 0 0 0 0 0 0 0 0 0 0 0 0 0 0 0 
0 0 0 0 0 0 0 0 0 0 0 0 0 0 0 0 0 0 0 0 0 0 0 0 0 0 0 0 0 0 0 0 0 0 0 0 0 0 0 0 0 0 0 0 0 153 51 0 248 248 248 204 204 204 204 204 204 153 51 0 248 248 248 204 204 204 153 51 0 248 248 248 204 204 204 153 51 0 16 16 16 0 0 0 0 0 0 0 0 0 0 0 0 0 0 0 0 0 0 0 0 0 0 0 0 0 0 0 0 0 0 0 0 0 0 0 0 0 0 0 0 0 0 0 0 0 0 0 0 0 0 0 0 0 0 0 0 0 0 0 0 0 0 0 0 0 0 0 0 0 0 0 0 0 0 0 0 0 0 0 0 0 0 0 0 0 0 0 0 0 0 0 0 0 0 0 0 0 0 0 0 0 0 0 0 0 0 0 0 0 0 0 
0 0 0 0 0 0 0 0 0 0 0 0 0 0 0 0 0 0 0 0 0 0 0 0 0 0 0 0 0 0 0 0 0 0 0 0 0 0 0 0 0 0 0 0 0 16 16 16 16 16 16 16 16 16 16 16 16 248 248 248 204 204 204 16 16 16 16 16 16 248 248 248 153 51 0 16 16 16 0 0 0 0 0 0 0 0 0 0 0 0 0 0 0 0 0 0 0 0 0 0 0 0 0 0 0 0 0 0 0 0 0 0 0 0 0 0 0 0 0 0 0 0 0 0 0 0 0 0 0 0 0 0 0 0 0 0 0 0 0 0 0 0 0 0 0 0 0 0 0 0 0 0 0 0 0 0 0 0 0 0 0 0 0 0 0 0 0 0 0 0 0 0 0 0 0 0 0 0 0 0 0 0 0 0 0 0 0 0 0 0 0 0 
0 0 0 0 0 0 0 0 0 0 0 0 0 0 0 0 0 0 0 0 0 0 0 0 0 0 0 0 0 0 0 0 0 0 0 0 0 0 0 0 0 0 0 0 0 0 0 0 0 0 0 0 0 0 0 0 0 16 16 16 16 16 16 0 0 0 0 0 0 16 16 16 16 16 16 0 0 0 0 0 0 0 0 0 0 0 0 0 0 0 0 0 0 0 0 0 0 0 0 0 0 0 0 0 0 0 0 0 0 0 0 0 0 0 0 0 0 0 0 0 0 0 0 0 0 0 0 0 0 0 0 0 0 0 0 0 0 0 0 0 0 0 0 0 0 0 0 0 0 0 0 0 0 0 0 0 0 0 0 0 0 0 0 0 0 0 0 0 0 0 0 0 0 0 0 0 0 0 0 0 0 0 0 0 0 0 0 0 0 0 0 0 
0 0 0 0 0 0 0 0 0 0 0 0 0 0 0 0 0 0 0 0 0 0 0 0 0 0 0 0 0 0 0 0 0 0 0 0 0 0 0 0 0 0 0 0 0 0 0 0 0 0 0 0 0 0 0 0 0 0 0 0 0 0 0 0 0 0 0 0 0 0 0 0 0 0 0 0 0 0 0 0 0 0 0 0 0 0 0 0 0 0 0 0 0 0 0 0 0 0 0 0 0 0 0 0 0 0 0 0 0 0 0 0 0 0 0 0 0 0 0 0 0 0 0 0 0 0 0 0 0 0 0 0 0 0 0 0 0 0 0 0 0 0 0 0 0 0 0 0 0 0 0 0 0 0 0 0 0 0 0 0 0 0 0 0 0 0 0 0 0 0 0 0 0 0 0 0 0 0 0 0 0 0 0 0 0 0 0 0 0 0 0 0 
