P3
64 64
255
255 255 255 255 255 255 255 255 255 255 255 255 255 255 255 255 255 255 255 255 255 255 255 255 255 255 255 255 255 255 255 255 255 255 255 255 255 255 255 255 255 255 255 255 255 255 255 255 255 255 255 255 255 255 255 255 255 255 255 255 255 255 255 255 255 255 255 255 255 255 255 255 255 255 255 255 255 255 255 255 255 255 255 255 255 255 255 255 255 255 255 255 255 255 255 255 255 255 255 255 255 255 255 255 255 255 255 255 255 255 255 255 255 255 255 255 255 255 255 255 255 255 255 255 255 255 255 255 255 255 255 255 255 255 255 255 255 255 255 255 255 255 255 255 255 255 255 255 255 255 255 255 255 255 255 255 255 255 255 255 255 255 255 255 255 255 255 255 255 255 255 255 255 255 255 255 255 255 255 255 255 255 255 255 255 255 255 255 255 255 255 255 
255 255 255 255 255 255 255 255 255 255 255 255 255 255 255 255 255 255 255 255 255 255 255 255 255 255 255 255 255 255 255 255 255 255 255 255 255 255 255 255 255 255 255 255 255 255 255 255 255 255 255 255 255 255 255 255 255 255 255 255 255 255 255 255 255 255 255 255 255 255 255 255 255 255 255 255 255 255 255 255 255 255 255 255 255 255 255 192 104 56 192 104 56 255 255 255 255 255 255 255 255 255 255 255 255 255 255 255 255 255 255 255 255 255 255 255 255 255 255 255 255 255 255 255 255 255 255 255 255 255 255 255 255 255 255 255 255 255 255 255 255 255 255 255 255 255 255 255 255 255 255 255 255 255 255 255 255 255 255 255 255 255 255 255 255 255 255 255 255 255 255 255 255 255 255 255 255 255 255 255 255 255 255 255 255 255 255 255 255 255 255 255 
255 255 255 255 255 255 255 255 255 255 255 255 255 255 255 255 255 255 255 255 255 255 255 255 255 255 255 255 255 255 255 255 255 255 255 255 255 255 255 255 255 255 255 255 255 255 255 255 255 255 255 255 255 255 255 255 255 255 255 255 255 255 255 255 255 255 255 255 255 192 104 56 255 255 255 255 255 255 255 255 255 255 255 255 255 255 255 192 104 56 240 192 136 128 64 24 255 255 255 255 255 255 255 255 255 255 255 255 255 255 255 255 255 255 255 255 255 192 104 56 128 64 24 255 255 255 255 255 255 255 255 255 255 255 255 255 255 255 255 255 255 255 255 255 255 255 255 255 255 255 255 255 255 255 255 255 255 255 255 255 255 255 255 255 255 255 255 255 255 255 255 255 255 255 255 255 255 255 255 255 255 255 255 255 255 255 255 255 255 255 255 255 
255 255 255 255 255 255 255 255 255 255 255 255 255 255 255 255 255 255 255 255 255 255 255 255 255 255 255 255 255 255 255 255 255 255 255 255 255 255 255 255 255 255 255 255 255 255 255 255 255 255 255 255 255 255 255 255 255 255 255 255 255 255 255 255 255 255 192 104 56 240 192 136 128 64 24 255 255 255 255 255 255 255 255 255 255 255 255 128 64 24 240 192 136 16 16 16 255 255 255 255 255 255 255 255 255 255 255 255 255 255 255 255 255 255 192 104 56 240 192 136 16 16 16 255 255 255 255 255 255 255 255 255 255 255 255 255 255 255 255 255 255 255 255 255 255 255 255 255 255 255 255 255 255 255 255 255 255 255 255 255 255 255 255 255 255 255 255 255 255 255 255 255 255 255 255 255 255 255 255 255 255 255 255 255 255 255 255 255 255 255 255 255 
255 255 255 255 255 255 255 255 255 255 255 255 255 255 255 255 255 255 255 255 255 255 255 255 255 255 255 255 255 255 255 255 255 255 255 255 255 255 255 255 255 255 255 255 255 255 255 255 160 136 64 112 80 16 255 255 255 255 255 255 255 255 255 255 255 255 128 64 24 240 192 136 128 64 24 255 255 255 255 255 255 255 255 255 255 255 255 128 64 24 240 192 136 16 16 16 255 255 255 255 255 255 255 255 255 255 255 255 255 255 255 128 64 24 240 192 136 240 192 136 16 16 16 255 255 255 255 255 255 255 255 255 255 255 255 255 255 255 255 255 255 255 255 255 255 255 255 255 255 255 255 255 255 255 255 255 255 255 255 255 255 255 255 255 255 255 255 255 255 255 255 255 255 255 255 255 255 255 255 255 255 255 255 255 255 255 255 255 255 255 255 255 
255 255 255 255 255 255 255 255 255 255 255 255 255 255 255 255 255 255 255 255 255 255 255 255 255 255 255 255 255 255 255 255 255 255 255 255 255 255 255 255 255 255 255 255 255 160 136 64 240 232 160 160 136 64 16 16 16 255 255 255 255 255 255 255 255 255 128 64 24 240 192 136 232 136 72 16 16 16 255 255 255 255 255 255 255 255 255 128 64 24 240 192 136 232 136 72 128 64 24 255 255 255 255 255 255 255 255 255 255 255 255 128 64 24 240 192 136 232 136 72 128 64 24 255 255 255 255 255 255 255 255 255 255 255 255 255 255 255 255 255 255 255 255 255 255 255 255 255 255 255 255 255 255 255 255 255 255 255 255 255 255 255 255 255 255 255 255 255 255 255 255 255 255 255 255 255 255 255 255 255 255 255 255 255 255 255 255 255 255 255 255 255 
255 255 255 255 255 255 255 255 255 255 255 255 255 255 255 255 255 255 255 255 255 255 255 255 255 255 255 255 255 255 255 255 255 255 255 255 255 255 255 255 255 255 160 136 64 240 232 160 160 136 64 248 248 248 248 248 248 16 16 16 255 255 255 255 255 255 128 64 24 240 192 136 232 136 72 128 64 24 255 255 255 255 255 255 255 255 255 128 64 24 232 136 72 232 136 72 16 16 16 255 255 255 255 255 255 255 255 255 128 64 24 232 136 72 232 136 72 128 64 24 255 255 255 255 255 255 255 255 255 255 255 255 255 255 255 255 255 255 192 104 56 192 104 56 255 255 255 255 255 255 255 255 255 255 255 255 255 255 255 255 255 255 255 255 255 255 255 255 255 255 255 255 255 255 255 255 255 255 255 255 255 255 255 255 255 255 255 255 255 255 255 255 
255 255 255 255 255 255 255 255 255 255 255 255 255 255 255 255 255 255 255 255 255 255 255 255 255 255 255 255 255 255 160 136 64 160 136 64 112 80 16 255 255 255 112 80 16 240 232 160 160 136 64 240 232 160 240 232 160 16 16 16 255 255 255 255 255 255 255 255 255 128 64 24 232 136 72 232 136 72 16 16 16 255 255 255 255 255 255 128 64 24 232 136 72 232 136 72 16 16 16 255 255 255 255 255 255 255 255 255 128 64 24 232 136 72 192 104 56 16 16 16 255 255 255 255 255 255 255 255 255 255 255 255 255 255 255 192 104 56 240 192 136 16 16 16 255 255 255 255 255 255 255 255 255 255 255 255 255 255 255 255 255 255 255 255 255 255 255 255 255 255 255 255 255 255 255 255 255 255 255 255 255 255 255 255 255 255 255 255 255 255 255 255 
255 255 255 255 255 255 255 255 255 255 255 255 255 255 255 255 255 255 255 255 255 255 255 255 255 255 255 112 80 16 216 192 104 216 192 104 112 80 16 112 80 16 240 232 160 240 232 160 112 80 16 240 232 160 128 64 24 128 64 24 255 255 255 255 255 255 255 255 255 128 64 24 232 136 72 232 136 72 128 64 24 255 255 255 255 255 255 128 64 24 232 136 72 192 104 56 16 16 16 255 255 255 255 255 255 128 64 24 192 104 56 232 136 72 192 104 56 128 64 24 255 255 255 255 255 255 255 255 255 255 255 255 128 64 24 240 192 136 192 104 56 16 16 16 255 255 255 255 255 255 255 255 255 255 255 255 255 255 255 255 255 255 255 255 255 255 255 255 255 255 255 255 255 255 255 255 255 255 255 255 255 255 255 255 255 255 255 255 255 255 255 255 
255 255 255 255 255 255 255 255 255 255 255 255 255 255 255 255 255 255 255 255 255 255 255 255 255 255 255 160 136 64 216 192 104 112 80 16 240 232 160 240 232 160 16 16 16 240 232 160 112 80 16 128 64 24 240 192 136 240 192 136 16 16 16 255 255 255 255 255 255 128 64 24 232 136 72 232 136 72 192 104 56 16 16 16 255 255 255 128 64 24 232 136 72 192 104 56 128 64 24 255 255 255 255 255 255 128 64 24 232 136 72 232 136 72 128 64 24 255 255 255 255 255 255 255 255 255 255 255 255 128 64 24 232 136 72 192 104 56 16 16 16 255 255 255 255 255 255 255 255 255 255 255 255 255 255 255 255 255 255 255 255 255 255 255 255 255 255 255 255 255 255 255 255 255 255 255 255 255 255 255 255 255 255 255 255 255 255 255 255 255 255 255 
255 255 255 255 255 255 255 255 255 255 255 255 255 255 255 255 255 255 255 255 255 255 255 255 160 136 64 240 232 160 216 192 104 112 80 16 240 232 160 240 232 160 112 80 16 240 232 160 112 80 16 216 192 104 128 64 24 240 192 136 232 136 72 16 16 16 255 255 255 128 64 24 232 136 72 232 136 72 192 104 56 128 64 24 128 64 24 192 104 56 232 136 72 192 104 56 192 104 56 128 64 24 128 64 24 232 136 72 232 136 72 192 104 56 16 16 16 255 255 255 255 255 255 255 255 255 128 64 24 232 136 72 192 104 56 16 16 16 255 255 255 255 255 255 255 255 255 255 255 255 255 255 255 255 255 255 255 255 255 255 255 255 255 255 255 255 255 255 255 255 255 255 255 255 255 255 255 255 255 255 255 255 255 255 255 255 255 255 255 255 255 255 
255 255 255 255 255 255 255 255 255 255 255 255 255 255 255 255 255 255 255 255 255 255 255 255 112 80 16 240 232 160 216 192 104 112 80 16 240 232 160 240 232 160 240 232 160 16 16 16 112 80 16 216 192 104 128 64 24 240 192 136 240 192 136 232 136 72 128 64 24 128 64 24 232 136 72 192 104 56 192 104 56 192 104 56 192 104 56 192 104 56 192 104 56 192 104 56 128 64 24 128 64 24 192 104 56 232 136 72 232 136 72 192 104 56 16 16 16 255 255 255 255 255 255 128 64 24 232 136 72 232 136 72 192 104 56 16 16 16 255 255 255 255 255 255 255 255 255 255 255 255 255 255 255 255 255 255 255 255 255 255 255 255 255 255 255 255 255 255 255 255 255 255 255 255 255 255 255 255 255 255 255 255 255 255 255 255 255 255 255 255 255 255 
255 255 255 255 255 255 255 255 255 255 255 255 255 255 255 255 255 255 255 255 255 160 136 64 112 80 16 112 80 16 112 80 16 240 232 160 112 80 16 216 192 104 240 232 160 16 16 16 16 16 16 216 192 104 216 192 104 128 64 24 240 192 136 232 136 72 232 136 72 232 136 72 192 104 56 192 104 56 192 104 56 192 104 56 192 104 56 192 104 56 192 104 56 192 104 56 192 104 56 192 104 56 192 104 56 192 104 56 192 104 56 192 104 56 16 16 16 255 255 255 128 64 24 232 136 72 232 136 72 192 104 56 16 16 16 255 255 255 255 255 255 255 255 255 255 255 255 255 255 255 255 255 255 255 255 255 255 255 255 255 255 255 255 255 255 255 255 255 255 255 255 255 255 255 255 255 255 255 255 255 255 255 255 255 255 255 255 255 255 255 255 255 
255 255 255 255 255 255 255 255 255 255 255 255 255 255 255 255 255 255 255 255 255 112 80 16 112 80 16 248 248 248 248 248 248 112 80 16 112 80 16 216 192 104 216 192 104 216 192 104 16 16 16 216 192 104 160 136 64 128 64 24 232 136 72 232 136 72 192 104 56 192 104 56 192 104 56 192 104 56 192 104 56 192 104 56 192 104 56 128 64 24 128 64 24 128 64 24 192 104 56 192 104 56 192 104 56 192 104 56 192 104 56 192 104 56 128 64 24 128 64 24 232 136 72 232 136 72 192 104 56 192 104 56 128 64 24 255 255 255 255 255 255 255 255 255 128 64 24 128 64 24 16 16 16 255 255 255 255 255 255 255 255 255 255 255 255 255 255 255 255 255 255 255 255 255 255 255 255 255 255 255 255 255 255 255 255 255 255 255 255 255 255 255 
255 255 255 255 255 255 255 255 255 255 255 255 255 255 255 255 255 255 112 80 16 112 80 16 248 248 248 240 232 160 240 232 160 240 232 160 112 80 16 112 80 16 216 192 104 160 136 64 112 80 16 160 136 64 160 136 64 128 64 24 232 136 72 128 64 24 16 16 16 16 16 16 192 104 56 192 104 56 192 104 56 128 64 24 128 64 24 232 136 72 232 136 72 232 136 72 128 64 24 16 16 16 192 104 56 192 104 56 192 104 56 192 104 56 192 104 56 192 104 56 192 104 56 192 104 56 192 104 56 128 64 24 255 255 255 255 255 255 128 64 24 128 64 24 232 136 72 232 136 72 16 16 16 255 255 255 255 255 255 255 255 255 255 255 255 255 255 255 255 255 255 255 255 255 255 255 255 255 255 255 255 255 255 255 255 255 255 255 255 255 255 255 
255 255 255 255 255 255 255 255 255 255 255 255 255 255 255 255 255 255 112 80 16 112 80 16 240 232 160 240 232 160 240 232 160 112 80 16 240 232 160 112 80 16 216 192 104 160 136 64 160 136 64 112 80 16 112 80 16 128 64 24 128 64 24 240 192 136 240 192 136 240 192 136 128 64 24 16 16 16 16 16 16 232 136 72 232 136 72 240 192 136 240 192 136 232 136 72 232 136 72 192 104 56 16 16 16 192 104 56 192 104 56 192 104 56 192 104 56 192 104 56 192 104 56 192 104 56 192 104 56 128 64 24 128 64 24 128 64 24 232 136 72 232 136 72 192 104 56 16 16 16 255 255 255 255 255 255 160 136 64 160 136 64 112 80 16 255 255 255 255 255 255 255 255 255 255 255 255 255 255 255 255 255 255 255 255 255 255 255 255 255 255 255 
255 255 255 160 136 64 160 136 64 160 136 64 255 255 255 112 80 16 240 232 160 112 80 16 240 232 160 240 232 160 240 232 160 112 80 16 240 232 160 112 80 16 112 80 16 160 136 64 112 80 16 112 80 16 128 64 24 128 64 24 240 192 136 240 192 136 240 192 136 232 136 72 232 136 72 232 136 72 232 136 72 232 136 72 240 192 136 240 192 136 240 192 136 232 136 72 232 136 72 192 104 56 192 104 56 16 16 16 192 104 56 192 104 56 192 104 56 192 104 56 192 104 56 192 104 56 192 104 56 128 64 24 128 64 24 192 104 56 192 104 56 192 104 56 16 16 16 255 255 255 255 255 255 160 136 64 240 232 160 240 232 160 240 232 160 112 80 16 255 255 255 255 255 255 255 255 255 255 255 255 255 255 255 255 255 255 255 255 255 255 255 255 
160 136 64 216 192 104 240 232 160 240 232 160 112 80 16 240 232 160 240 232 160 112 80 16 240 232 160 240 232 160 112 80 16 240 232 160 240 232 160 240 232 160 112 80 16 160 136 64 112 80 16 240 232 160 16 16 16 240 192 136 232 136 72 232 136 72 232 136 72 232 136 72 232 136 72 232 136 72 232 136 72 240 192 136 240 192 136 240 192 136 232 136 72 232 136 72 232 136 72 192 104 56 192 104 56 192 104 56 128 64 24 16 16 16 16 16 16 16 16 16 192 104 56 192 104 56 192 104 56 192 104 56 192 104 56 192 104 56 192 104 56 16 16 16 255 255 255 255 255 255 255 255 255 160 136 64 160 136 64 240 232 160 216 192 104 16 16 16 255 255 255 255 255 255 255 255 255 255 255 255 255 255 255 255 255 255 255 255 255 255 255 255 
112 80 16 112 80 16 216 192 104 112 80 16 216 192 104 240 232 160 112 80 16 248 248 248 240 232 160 240 232 160 16 16 16 112 80 16 216 192 104 240 232 160 240 232 160 112 80 16 240 232 160 240 232 160 16 16 16 232 136 72 232 136 72 248 248 248 248 248 248 248 248 248 216 216 240 232 136 72 232 136 72 232 136 72 232 136 72 232 136 72 232 136 72 232 136 72 232 136 72 232 136 72 192 104 56 192 104 56 192 104 56 192 104 56 192 104 56 192 104 56 128 64 24 16 16 16 192 104 56 192 104 56 192 104 56 192 104 56 192 104 56 16 16 16 255 255 255 255 255 255 160 136 64 240 232 160 240 232 160 112 80 16 216 192 104 216 192 104 16 16 16 255 255 255 255 255 255 255 255 255 255 255 255 255 255 255 255 255 255 255 255 255 
255 255 255 255 255 255 16 16 16 112 80 16 216 192 104 160 136 64 112 80 16 240 232 160 240 232 160 240 232 160 16 16 16 216 192 104 16 16 16 216 192 104 240 232 160 112 80 16 240 232 160 240 232 160 128 64 24 232 136 72 248 248 248 248 248 248 248 248 248 248 248 248 248 248 248 216 216 240 232 136 72 232 136 72 232 136 72 232 136 72 232 136 72 232 136 72 232 136 72 232 136 72 232 136 72 192 104 56 192 104 56 192 104 56 192 104 56 192 104 56 192 104 56 192 104 56 16 16 16 192 104 56 192 104 56 192 104 56 128 64 24 128 64 24 255 255 255 160 136 64 240 232 160 216 192 104 216 192 104 112 80 16 216 192 104 112 80 16 112 80 16 255 255 255 255 255 255 255 255 255 255 255 255 255 255 255 255 255 255 255 255 255 
255 255 255 255 255 255 255 255 255 255 255 255 16 16 16 16 16 16 112 80 16 240 232 160 160 136 64 160 136 64 16 16 16 216 192 104 16 16 16 216 192 104 112 80 16 240 232 160 240 232 160 16 16 16 232 136 72 232 136 72 248 248 248 248 248 248 248 248 248 248 248 248 248 248 248 248 248 248 192 104 56 232 136 72 232 136 72 232 136 72 232 136 72 232 136 72 232 136 72 232 136 72 232 136 72 232 136 72 192 104 56 192 104 56 192 104 56 192 104 56 192 104 56 192 104 56 192 104 56 16 16 16 192 104 56 192 104 56 128 64 24 192 104 56 112 80 16 240 232 160 240 232 160 216 192 104 16 16 16 216 192 104 112 80 16 240 232 160 248 248 248 112 80 16 255 255 255 255 255 255 255 255 255 255 255 255 255 255 255 255 255 255 
255 255 255 255 255 255 255 255 255 255 255 255 255 255 255 255 255 255 160 136 64 240 232 160 240 232 160 240 232 160 16 16 16 216 192 104 112 80 16 16 16 16 112 80 16 240 232 160 240 232 160 16 16 16 232 136 72 232 136 72 192 104 56 248 248 248 248 248 248 248 248 248 248 248 248 248 248 248 192 104 56 232 136 72 232 136 72 232 136 72 232 136 72 232 136 72 232 136 72 216 216 240 248 248 248 248 248 248 216 216 240 192 104 56 192 104 56 192 104 56 192 104 56 192 104 56 192 104 56 192 104 56 128 64 24 192 104 56 128 64 24 192 104 56 16 16 16 240 232 160 240 232 160 16 16 16 112 80 16 240 232 160 112 80 16 112 80 16 248 248 248 240 232 160 112 80 16 255 255 255 255 255 255 255 255 255 255 255 255 255 255 255 
255 255 255 255 255 255 255 255 255 255 255 255 255 255 255 160 136 64 240 232 160 240 232 160 240 232 160 216 192 104 216 192 104 112 80 16 255 255 255 16 16 16 112 80 16 240 232 160 240 232 160 128 64 24 232 136 72 232 136 72 232 136 72 192 104 56 248 248 248 248 248 248 16 16 16 248 248 248 192 104 56 232 136 72 232 136 72 232 136 72 232 136 72 232 136 72 248 248 248 248 248 248 248 248 248 248 248 248 248 248 248 216 216 240 192 104 56 192 104 56 192 104 56 192 104 56 192 104 56 192 104 56 128 64 24 192 104 56 192 104 56 128 64 24 16 16 16 240 232 160 112 80 16 255 255 255 112 80 16 112 80 16 240 232 160 216 192 104 112 80 16 240 232 160 16 16 16 255 255 255 255 255 255 255 255 255 255 255 255 255 255 255 
255 255 255 255 255 255 255 255 255 255 255 255 255 255 255 112 80 16 240 232 160 128 64 24 128 64 24 128 64 24 128 64 24 112 80 16 255 255 255 255 255 255 160 136 64 160 136 64 240 232 160 240 232 160 112 80 16 16 16 16 112 80 16 232 136 72 192 104 56 192 104 56 216 216 240 216 216 240 192 104 56 232 136 72 232 136 72 232 136 72 232 136 72 216 216 240 248 248 248 248 248 248 248 248 248 248 248 248 248 248 248 216 216 240 192 104 56 192 104 56 192 104 56 112 80 16 112 80 16 192 104 56 192 104 56 128 64 24 192 104 56 192 104 56 16 16 16 112 80 16 255 255 255 255 255 255 112 80 16 240 232 160 240 232 160 216 192 104 112 80 16 240 232 160 16 16 16 255 255 255 255 255 255 255 255 255 255 255 255 255 255 255 
255 255 255 255 255 255 255 255 255 255 255 255 255 255 255 128 64 24 128 64 24 232 136 72 240 192 136 240 232 160 240 232 160 128 64 24 255 255 255 255 255 255 160 136 64 240 232 160 240 232 160 240 232 160 240 232 160 16 16 16 248 248 248 112 80 16 232 136 72 112 80 16 192 104 56 192 104 56 192 104 56 232 136 72 232 136 72 232 136 72 232 136 72 248 248 248 16 16 16 248 248 248 248 248 248 248 248 248 248 248 248 248 248 248 192 104 56 192 104 56 192 104 56 112 80 16 240 232 160 112 80 16 192 104 56 128 64 24 192 104 56 192 104 56 128 64 24 128 64 24 255 255 255 112 80 16 240 232 160 240 232 160 216 192 104 16 16 16 160 136 64 240 232 160 16 16 16 255 255 255 255 255 255 255 255 255 255 255 255 255 255 255 
255 255 255 255 255 255 255 255 255 255 255 255 255 255 255 128 64 24 232 136 72 232 136 72 240 192 136 240 192 136 240 192 136 240 232 160 128 64 24 255 255 255 112 80 16 240 232 160 240 232 160 240 232 160 240 232 160 240 232 160 240 232 160 112 80 16 112 80 16 248 248 248 16 16 16 232 136 72 232 136 72 232 136 72 232 136 72 232 136 72 232 136 72 248 248 248 248 248 248 248 248 248 248 248 248 248 248 248 192 104 56 192 104 56 192 104 56 192 104 56 112 80 16 240 232 160 240 232 160 16 16 16 192 104 56 128 64 24 192 104 56 128 64 24 216 192 104 16 16 16 112 80 16 240 232 160 240 232 160 216 192 104 16 16 16 160 136 64 216 192 104 240 232 160 16 16 16 255 255 255 255 255 255 255 255 255 255 255 255 255 255 255 
255 255 255 255 255 255 255 255 255 255 255 255 128 64 24 232 136 72 232 136 72 232 136 72 232 136 72 240 192 136 240 192 136 240 192 136 128 64 24 255 255 255 16 16 16 216 192 104 240 232 160 240 232 160 240 232 160 240 232 160 240 232 160 112 80 16 216 192 104 248 248 248 16 16 16 192 104 56 232 136 72 232 136 72 232 136 72 232 136 72 232 136 72 232 136 72 112 80 16 16 16 16 192 104 56 112 80 16 192 104 56 192 104 56 192 104 56 192 104 56 112 80 16 240 232 160 240 232 160 16 16 16 192 104 56 192 104 56 192 104 56 128 64 24 216 192 104 16 16 16 240 232 160 216 192 104 216 192 104 16 16 16 112 80 16 216 192 104 216 192 104 240 232 160 16 16 16 255 255 255 255 255 255 255 255 255 255 255 255 255 255 255 
255 255 255 255 255 255 255 255 255 255 255 255 128 64 24 232 136 72 232 136 72 232 136 72 232 136 72 240 192 136 240 192 136 240 192 136 232 136 72 128 64 24 112 80 16 160 136 64 240 232 160 240 232 160 240 232 160 240 232 160 240 232 160 216 192 104 216 192 104 248 248 248 16 16 16 192 104 56 232 136 72 232 136 72 232 136 72 232 136 72 232 136 72 112 80 16 240 232 160 16 16 16 112 80 16 248 248 248 16 16 16 192 104 56 192 104 56 112 80 16 240 232 160 240 232 160 216 192 104 16 16 16 192 104 56 192 104 56 192 104 56 128 64 24 216 192 104 16 16 16 240 232 160 216 192 104 16 16 16 255 255 255 112 80 16 216 192 104 216 192 104 240 232 160 112 80 16 255 255 255 255 255 255 255 255 255 255 255 255 255 255 255 
255 255 255 255 255 255 255 255 255 255 255 255 192 104 56 232 136 72 232 136 72 232 136 72 232 136 72 232 136 72 240 192 136 240 192 136 232 136 72 128 64 24 255 255 255 112 80 16 216 192 104 240 232 160 240 232 160 240 232 160 240 232 160 240 232 160 240 232 160 240 232 160 248 248 248 112 80 16 192 104 56 192 104 56 192 104 56 192 104 56 112 80 16 248 248 248 240 232 160 16 16 16 240 232 160 248 248 248 16 16 16 112 80 16 112 80 16 240 232 160 240 232 160 216 192 104 216 192 104 16 16 16 192 104 56 192 104 56 192 104 56 128 64 24 112 80 16 112 80 16 216 192 104 16 16 16 255 255 255 255 255 255 112 80 16 216 192 104 216 192 104 240 232 160 240 232 160 112 80 16 255 255 255 255 255 255 255 255 255 255 255 255 
255 255 255 255 255 255 255 255 255 192 104 56 232 136 72 232 136 72 232 136 72 232 136 72 232 136 72 232 136 72 232 136 72 240 192 136 232 136 72 128 64 24 255 255 255 112 80 16 160 136 64 216 192 104 240 232 160 240 232 160 240 232 160 240 232 160 240 232 160 240 232 160 240 232 160 216 192 104 112 80 16 112 80 16 112 80 16 112 80 16 248 248 248 240 232 160 240 232 160 160 136 64 240 232 160 240 232 160 240 232 160 240 232 160 240 232 160 240 232 160 216 192 104 216 192 104 216 192 104 16 16 16 112 80 16 192 104 56 128 64 24 216 192 104 160 136 64 112 80 16 112 80 16 255 255 255 255 255 255 255 255 255 255 255 255 112 80 16 216 192 104 240 232 160 240 232 160 16 16 16 255 255 255 255 255 255 255 255 255 255 255 255 
255 255 255 255 255 255 255 255 255 128 64 24 232 136 72 232 136 72 232 136 72 232 136 72 232 136 72 232 136 72 232 136 72 232 136 72 232 136 72 192 104 56 128 64 24 160 136 64 240 232 160 240 232 160 160 136 64 240 232 160 240 232 160 240 232 160 240 232 160 240 232 160 240 232 160 240 232 160 240 232 160 240 232 160 240 232 160 240 232 160 240 232 160 240 232 160 240 232 160 240 232 160 240 232 160 240 232 160 240 232 160 240 232 160 240 232 160 216 192 104 216 192 104 216 192 104 216 192 104 112 80 16 216 192 104 112 80 16 216 192 104 216 192 104 112 80 16 112 80 16 255 255 255 255 255 255 255 255 255 255 255 255 255 255 255 112 80 16 216 192 104 216 192 104 240 232 160 16 16 16 255 255 255 255 255 255 255 255 255 255 255 255 
255 255 255 255 255 255 255 255 255 128 64 24 128 64 24 232 136 72 232 136 72 232 136 72 232 136 72 232 136 72 232 136 72 232 136 72 232 136 72 192 104 56 16 16 16 255 255 255 160 136 64 240 232 160 240 232 160 160 136 64 240 232 160 240 232 160 240 232 160 240 232 160 240 232 160 240 232 160 240 232 160 240 232 160 240 232 160 240 232 160 240 232 160 240 232 160 240 232 160 240 232 160 240 232 160 240 232 160 240 232 160 216 192 104 216 192 104 216 192 104 216 192 104 160 136 64 112 80 16 216 192 104 216 192 104 112 80 16 216 192 104 112 80 16 216 192 104 216 192 104 112 80 16 16 16 16 255 255 255 255 255 255 255 255 255 112 80 16 216 192 104 216 192 104 240 232 160 16 16 16 255 255 255 255 255 255 255 255 255 255 255 255 
255 255 255 255 255 255 255 255 255 128 64 24 128 64 24 192 104 56 232 136 72 232 136 72 232 136 72 232 136 72 232 136 72 232 136 72 192 104 56 192 104 56 16 16 16 255 255 255 255 255 255 160 136 64 216 192 104 216 192 104 160 136 64 216 192 104 216 192 104 240 232 160 240 232 160 240 232 160 240 232 160 240 232 160 240 232 160 240 232 160 240 232 160 240 232 160 240 232 160 216 192 104 216 192 104 216 192 104 216 192 104 216 192 104 216 192 104 216 192 104 216 192 104 216 192 104 216 192 104 216 192 104 216 192 104 160 136 64 112 80 16 216 192 104 216 192 104 216 192 104 216 192 104 216 192 104 112 80 16 16 16 16 255 255 255 112 80 16 216 192 104 216 192 104 240 232 160 112 80 16 112 80 16 160 136 64 255 255 255 255 255 255 
255 255 255 255 255 255 255 255 255 128 64 24 192 104 56 16 16 16 128 64 24 232 136 72 232 136 72 232 136 72 232 136 72 232 136 72 192 104 56 192 104 56 16 16 16 255 255 255 255 255 255 255 255 255 112 80 16 216 192 104 216 192 104 112 80 16 216 192 104 216 192 104 216 192 104 216 192 104 216 192 104 216 192 104 216 192 104 216 192 104 128 64 24 128 64 24 128 64 24 128 64 24 128 64 24 112 80 16 160 136 64 160 136 64 160 136 64 216 192 104 216 192 104 216 192 104 216 192 104 216 192 104 216 192 104 160 136 64 112 80 16 112 80 16 112 80 16 216 192 104 216 192 104 216 192 104 216 192 104 240 232 160 112 80 16 112 80 16 16 16 16 16 16 16 240 232 160 216 192 104 112 80 16 216 192 104 160 136 64 255 255 255 
255 255 255 255 255 255 255 255 255 128 64 24 192 104 56 16 16 16 16 16 16 232 136 72 232 136 72 232 136 72 232 136 72 232 136 72 192 104 56 192 104 56 16 16 16 255 255 255 255 255 255 255 255 255 255 255 255 255 255 255 16 16 16 16 16 16 160 136 64 216 192 104 216 192 104 128 64 24 128 64 24 128 64 24 128 64 24 128 64 24 192 104 56 192 104 56 192 104 56 192 104 56 192 104 56 128 64 24 240 232 160 240 232 160 216 192 104 160 136 64 160 136 64 216 192 104 216 192 104 160 136 64 160 136 64 112 80 16 16 16 16 255 255 255 255 255 255 16 16 16 112 80 16 240 232 160 240 232 160 240 232 160 240 232 160 240 232 160 240 232 160 240 232 160 112 80 16 216 192 104 112 80 16 216 192 104 216 192 104 160 136 64 
255 255 255 255 255 255 255 255 255 128 64 24 192 104 56 128 64 24 16 16 16 232 136 72 232 136 72 232 136 72 232 136 72 232 136 72 192 104 56 192 104 56 16 16 16 255 255 255 255 255 255 255 255 255 255 255 255 255 255 255 255 255 255 255 255 255 128 64 24 128 64 24 128 64 24 192 104 56 232 136 72 232 136 72 232 136 72 232 136 72 192 104 56 192 104 56 192 104 56 192 104 56 192 104 56 192 104 56 128 64 24 128 64 24 216 192 104 216 192 104 216 192 104 112 80 16 160 136 64 160 136 64 16 16 16 16 16 16 255 255 255 255 255 255 255 255 255 255 255 255 255 255 255 16 16 16 112 80 16 240 232 160 240 232 160 240 232 160 240 232 160 16 16 16 216 192 104 16 16 16 16 16 16 16 16 16 216 192 104 112 80 16 
255 255 255 255 255 255 255 255 255 128 64 24 192 104 56 192 104 56 16 16 16 192 104 56 232 136 72 232 136 72 232 136 72 232 136 72 192 104 56 192 104 56 16 16 16 255 255 255 255 255 255 255 255 255 255 255 255 255 255 255 192 104 56 128 64 24 240 192 136 240 192 136 240 192 136 232 136 72 232 136 72 232 136 72 232 136 72 232 136 72 232 136 72 232 136 72 232 136 72 192 104 56 192 104 56 192 104 56 192 104 56 192 104 56 128 64 24 128 64 24 160 136 64 16 16 16 16 16 16 16 16 16 255 255 255 255 255 255 255 255 255 255 255 255 255 255 255 255 255 255 255 255 255 255 255 255 255 255 255 16 16 16 216 192 104 216 192 104 16 16 16 216 192 104 216 192 104 112 80 16 16 16 16 255 255 255 16 16 16 112 80 16 
255 255 255 255 255 255 255 255 255 255 255 255 128 64 24 192 104 56 192 104 56 128 64 24 232 136 72 232 136 72 232 136 72 232 136 72 192 104 56 192 104 56 128 64 24 255 255 255 255 255 255 255 255 255 255 255 255 192 104 56 240 232 160 240 232 160 240 232 160 240 192 136 240 192 136 240 192 136 232 136 72 232 136 72 232 136 72 232 136 72 232 136 72 232 136 72 232 136 72 232 136 72 232 136 72 192 104 56 192 104 56 192 104 56 192 104 56 192 104 56 128 64 24 128 64 24 255 255 255 255 255 255 255 255 255 255 255 255 255 255 255 255 255 255 255 255 255 255 255 255 255 255 255 255 255 255 255 255 255 255 255 255 16 16 16 216 192 104 112 80 16 112 80 16 112 80 16 216 192 104 16 16 16 255 255 255 255 255 255 255 255 255 
255 255 255 255 255 255 255 255 255 255 255 255 16 16 16 192 104 56 192 104 56 16 16 16 232 136 72 232 136 72 232 136 72 232 136 72 192 104 56 128 64 24 255 255 255 255 255 255 255 255 255 255 255 255 192 104 56 240 232 160 240 232 160 240 232 160 240 192 136 240 192 136 240 192 136 240 192 136 232 136 72 232 136 72 232 136 72 232 136 72 232 136 72 232 136 72 232 136 72 232 136 72 232 136 72 232 136 72 192 104 56 192 104 56 192 104 56 192 104 56 192 104 56 192 104 56 128 64 24 16 16 16 16 16 16 16 16 16 255 255 255 255 255 255 255 255 255 255 255 255 255 255 255 255 255 255 255 255 255 255 255 255 255 255 255 112 80 16 112 80 16 248 248 248 248 248 248 216 192 104 16 16 16 255 255 255 255 255 255 255 255 255 
255 255 255 255 255 255 255 255 255 255 255 255 255 255 255 16 16 16 192 104 56 16 16 16 232 136 72 232 136 72 232 136 72 192 104 56 192 104 56 16 16 16 255 255 255 255 255 255 255 255 255 255 255 255 128 64 24 240 232 160 240 192 136 240 192 136 240 192 136 240 192 136 240 192 136 232 136 72 232 136 72 232 136 72 232 136 72 232 136 72 232 136 72 232 136 72 232 136 72 232 136 72 232 136 72 232 136 72 232 136 72 192 104 56 192 104 56 192 104 56 192 104 56 192 104 56 192 104 56 192 104 56 192 104 56 192 104 56 16 16 16 255 255 255 255 255 255 255 255 255 255 255 255 255 255 255 255 255 255 255 255 255 255 255 255 112 80 16 248 248 248 248 248 248 248 248 248 216 192 104 112 80 16 255 255 255 255 255 255 255 255 255 
255 255 255 255 255 255 255 255 255 255 255 255 255 255 255 255 255 255 16 16 16 16 16 16 232 136 72 232 136 72 232 136 72 192 104 56 192 104 56 128 64 24 255 255 255 255 255 255 255 255 255 255 255 255 192 104 56 240 192 136 240 192 136 232 136 72 232 136 72 232 136 72 232 136 72 232 136 72 232 136 72 232 136 72 232 136 72 232 136 72 232 136 72 232 136 72 232 136 72 232 136 72 232 136 72 232 136 72 232 136 72 232 136 72 232 136 72 232 136 72 232 136 72 192 104 56 192 104 56 192 104 56 192 104 56 192 104 56 192 104 56 16 16 16 255 255 255 255 255 255 255 255 255 255 255 255 255 255 255 255 255 255 255 255 255 112 80 16 240 232 160 240 232 160 216 192 104 112 80 16 255 255 255 255 255 255 255 255 255 255 255 255 
255 255 255 255 255 255 255 255 255 255 255 255 255 255 255 255 255 255 255 255 255 16 16 16 232 136 72 232 136 72 192 104 56 192 104 56 128 64 24 255 255 255 255 255 255 255 255 255 255 255 255 192 104 56 240 192 136 240 192 136 232 136 72 232 136 72 232 136 72 232 136 72 232 136 72 232 136 72 232 136 72 232 136 72 232 136 72 232 136 72 232 136 72 232 136 72 232 136 72 232 136 72 232 136 72 232 136 72 232 136 72 232 136 72 232 136 72 232 136 72 232 136 72 232 136 72 232 136 72 192 104 56 192 104 56 192 104 56 192 104 56 192 104 56 16 16 16 255 255 255 255 255 255 255 255 255 255 255 255 255 255 255 255 255 255 112 80 16 240 232 160 216 192 104 216 192 104 16 16 16 255 255 255 255 255 255 255 255 255 255 255 255 
255 255 255 255 255 255 255 255 255 255 255 255 255 255 255 255 255 255 255 255 255 16 16 16 192 104 56 192 104 56 192 104 56 192 104 56 16 16 16 255 255 255 255 255 255 255 255 255 192 104 56 240 192 136 240 192 136 232 136 72 232 136 72 232 136 72 232 136 72 232 136 72 232 136 72 232 136 72 232 136 72 232 136 72 232 136 72 232 136 72 232 136 72 232 136 72 232 136 72 232 136 72 232 136 72 232 136 72 232 136 72 232 136 72 232 136 72 232 136 72 232 136 72 232 136 72 232 136 72 232 136 72 192 104 56 192 104 56 192 104 56 192 104 56 192 104 56 16 16 16 255 255 255 255 255 255 255 255 255 255 255 255 112 80 16 216 192 104 240 232 160 216 192 104 112 80 16 255 255 255 255 255 255 255 255 255 255 255 255 255 255 255 
255 255 255 255 255 255 255 255 255 255 255 255 255 255 255 255 255 255 255 255 255 128 64 24 192 104 56 192 104 56 192 104 56 16 16 16 255 255 255 255 255 255 255 255 255 192 104 56 240 192 136 240 192 136 232 136 72 232 136 72 232 136 72 232 136 72 232 136 72 232 136 72 232 136 72 232 136 72 232 136 72 232 136 72 232 136 72 232 136 72 232 136 72 232 136 72 232 136 72 232 136 72 232 136 72 232 136 72 232 136 72 232 136 72 232 136 72 232 136 72 232 136 72 232 136 72 232 136 72 232 136 72 232 136 72 192 104 56 192 104 56 192 104 56 192 104 56 128 64 24 255 255 255 255 255 255 255 255 255 255 255 255 112 80 16 240 232 160 240 232 160 216 192 104 16 16 16 255 255 255 255 255 255 255 255 255 255 255 255 255 255 255 
255 255 255 255 255 255 255 255 255 255 255 255 255 255 255 255 255 255 16 16 16 192 104 56 192 104 56 128 64 24 16 16 16 255 255 255 255 255 255 255 255 255 255 255 255 128 64 24 240 192 136 240 192 136 232 136 72 232 136 72 232 136 72 232 136 72 232 136 72 232 136 72 232 136 72 232 136 72 232 136 72 232 136 72 232 136 72 232 136 72 232 136 72 232 136 72 232 136 72 232 136 72 232 136 72 232 136 72 232 136 72 232 136 72 232 136 72 232 136 72 232 136 72 232 136 72 232 136 72 232 136 72 232 136 72 192 104 56 192 104 56 192 104 56 192 104 56 192 104 56 16 16 16 255 255 255 255 255 255 112 80 16 216 192 104 240 232 160 216 192 104 216 192 104 16 16 16 255 255 255 255 255 255 255 255 255 255 255 255 255 255 255 
255 255 255 255 255 255 255 255 255 255 255 255 255 255 255 255 255 255 255 255 255 16 16 16 16 16 16 255 255 255 255 255 255 255 255 255 255 255 255 255 255 255 192 104 56 240 192 136 240 192 136 240 192 136 232 136 72 232 136 72 232 136 72 232 136 72 232 136 72 232 136 72 232 136 72 232 136 72 232 136 72 232 136 72 232 136 72 232 136 72 232 136 72 232 136 72 232 136 72 232 136 72 232 136 72 232 136 72 232 136 72 232 136 72 232 136 72 232 136 72 232 136 72 232 136 72 232 136 72 232 136 72 232 136 72 192 104 56 192 104 56 192 104 56 192 104 56 192 104 56 16 16 16 255 255 255 112 80 16 112 80 16 216 192 104 240 232 160 216 192 104 112 80 16 255 255 255 255 255 255 255 255 255 255 255 255 255 255 255 255 255 255 
255 255 255 255 255 255 255 255 255 255 255 255 255 255 255 255 255 255 255 255 255 255 255 255 255 255 255 255 255 255 255 255 255 255 255 255 255 255 255 255 255 255 128 64 24 240 192 136 240 192 136 240 192 136 232 136 72 232 136 72 232 136 72 232 136 72 232 136 72 232 136 72 192 104 56 128 64 24 16 16 16 16 16 16 128 64 24 192 104 56 232 136 72 232 136 72 232 136 72 232 136 72 232 136 72 232 136 72 232 136 72 232 136 72 232 136 72 232 136 72 232 136 72 232 136 72 232 136 72 232 136 72 192 104 56 192 104 56 192 104 56 192 104 56 192 104 56 192 104 56 128 64 24 112 80 16 240 232 160 240 232 160 240 232 160 112 80 16 216 192 104 112 80 16 255 255 255 255 255 255 255 255 255 255 255 255 255 255 255 255 255 255 
255 255 255 255 255 255 255 255 255 255 255 255 255 255 255 255 255 255 255 255 255 255 255 255 255 255 255 255 255 255 255 255 255 255 255 255 255 255 255 255 255 255 128 64 24 232 136 72 240 192 136 240 192 136 232 136 72 232 136 72 232 136 72 232 136 72 192 104 56 16 16 16 128 64 24 255 255 255 255 255 255 255 255 255 255 255 255 16 16 16 192 104 56 192 104 56 232 136 72 232 136 72 232 136 72 232 136 72 192 104 56 192 104 56 192 104 56 192 104 56 192 104 56 192 104 56 232 136 72 192 104 56 192 104 56 192 104 56 192 104 56 192 104 56 192 104 56 192 104 56 192 104 56 112 80 16 112 80 16 240 232 160 240 232 160 216 192 104 112 80 16 16 16 16 255 255 255 255 255 255 255 255 255 255 255 255 255 255 255 255 255 255 
255 255 255 255 255 255 255 255 255 255 255 255 255 255 255 255 255 255 255 255 255 255 255 255 255 255 255 255 255 255 255 255 255 255 255 255 255 255 255 255 255 255 255 255 255 128 64 24 240 192 136 240 192 136 240 192 136 232 136 72 232 136 72 192 104 56 16 16 16 255 255 255 255 255 255 255 255 255 255 255 255 255 255 255 255 255 255 255 255 255 16 16 16 128 64 24 192 104 56 192 104 56 192 104 56 192 104 56 192 104 56 128 64 24 128 64 24 128 64 24 128 64 24 192 104 56 192 104 56 192 104 56 192 104 56 192 104 56 192 104 56 192 104 56 192 104 56 192 104 56 192 104 56 216 192 104 216 192 104 112 80 16 240 232 160 216 192 104 216 192 104 16 16 16 255 255 255 255 255 255 255 255 255 255 255 255 255 255 255 255 255 255 
255 255 255 255 255 255 255 255 255 255 255 255 255 255 255 255 255 255 255 255 255 255 255 255 255 255 255 255 255 255 255 255 255 255 255 255 255 255 255 255 255 255 255 255 255 128 64 24 240 192 136 240 192 136 240 192 136 232 136 72 192 104 56 16 16 16 255 255 255 255 255 255 255 255 255 255 255 255 255 255 255 255 255 255 255 255 255 255 255 255 255 255 255 255 255 255 128 64 24 16 16 16 16 16 16 16 16 16 16 16 16 255 255 255 16 16 16 16 16 16 16 16 16 16 16 16 192 104 56 192 104 56 192 104 56 192 104 56 192 104 56 192 104 56 192 104 56 192 104 56 128 64 24 216 192 104 216 192 104 216 192 104 216 192 104 216 192 104 216 192 104 16 16 16 255 255 255 255 255 255 255 255 255 255 255 255 255 255 255 255 255 255 
255 255 255 255 255 255 255 255 255 255 255 255 255 255 255 255 255 255 255 255 255 255 255 255 255 255 255 255 255 255 255 255 255 255 255 255 255 255 255 255 255 255 255 255 255 255 255 255 128 64 24 240 192 136 240 192 136 232 136 72 128 64 24 255 255 255 255 255 255 255 255 255 255 255 255 128 64 24 128 64 24 128 64 24 128 64 24 255 255 255 255 255 255 255 255 255 255 255 255 255 255 255 255 255 255 255 255 255 255 255 255 255 255 255 16 16 16 16 16 16 16 16 16 16 16 16 128 64 24 192 104 56 192 104 56 192 104 56 192 104 56 192 104 56 192 104 56 192 104 56 128 64 24 216 192 104 216 192 104 216 192 104 112 80 16 216 192 104 160 136 64 16 16 16 255 255 255 255 255 255 255 255 255 255 255 255 255 255 255 255 255 255 
255 255 255 255 255 255 255 255 255 255 255 255 255 255 255 255 255 255 255 255 255 255 255 255 255 255 255 255 255 255 255 255 255 255 255 255 255 255 255 255 255 255 255 255 255 255 255 255 255 255 255 128 64 24 240 192 136 232 136 72 16 16 16 255 255 255 255 255 255 255 255 255 128 64 24 192 104 56 192 104 56 192 104 56 192 104 56 128 64 24 255 255 255 255 255 255 255 255 255 255 255 255 255 255 255 255 255 255 255 255 255 128 64 24 16 16 16 16 16 16 16 16 16 16 16 16 16 16 16 192 104 56 192 104 56 192 104 56 192 104 56 192 104 56 192 104 56 192 104 56 128 64 24 216 192 104 216 192 104 160 136 64 112 80 16 160 136 64 16 16 16 255 255 255 255 255 255 255 255 255 255 255 255 255 255 255 255 255 255 255 255 255 
255 255 255 255 255 255 255 255 255 255 255 255 255 255 255 255 255 255 255 255 255 255 255 255 255 255 255 255 255 255 255 255 255 255 255 255 255 255 255 255 255 255 255 255 255 255 255 255 255 255 255 255 255 255 128 64 24 232 136 72 16 16 16 255 255 255 255 255 255 255 255 255 16 16 16 16 16 16 192 104 56 192 104 56 192 104 56 192 104 56 128 64 24 128 64 24 255 255 255 255 255 255 255 255 255 255 255 255 128 64 24 16 16 16 16 16 16 16 16 16 16 16 16 192 104 56 192 104 56 16 16 16 16 16 16 128 64 24 192 104 56 192 104 56 192 104 56 192 104 56 128 64 24 160 136 64 160 136 64 112 80 16 16 16 16 16 16 16 255 255 255 255 255 255 255 255 255 255 255 255 255 255 255 255 255 255 255 255 255 255 255 255 
255 255 255 255 255 255 255 255 255 255 255 255 255 255 255 255 255 255 255 255 255 255 255 255 255 255 255 255 255 255 255 255 255 255 255 255 255 255 255 255 255 255 255 255 255 255 255 255 255 255 255 255 255 255 255 255 255 16 16 16 16 16 16 255 255 255 255 255 255 255 255 255 255 255 255 255 255 255 16 16 16 192 104 56 192 104 56 192 104 56 192 104 56 192 104 56 128 64 24 16 16 16 16 16 16 16 16 16 16 16 16 16 16 16 192 104 56 192 104 56 192 104 56 192 104 56 192 104 56 192 104 56 192 104 56 192 104 56 128 64 24 192 104 56 192 104 56 128 64 24 112 80 16 16 16 16 16 16 16 255 255 255 255 255 255 255 255 255 255 255 255 255 255 255 255 255 255 255 255 255 255 255 255 255 255 255 255 255 255 255 255 255 
255 255 255 255 255 255 255 255 255 255 255 255 255 255 255 255 255 255 255 255 255 255 255 255 255 255 255 255 255 255 255 255 255 255 255 255 255 255 255 255 255 255 255 255 255 255 255 255 255 255 255 255 255 255 255 255 255 255 255 255 255 255 255 255 255 255 255 255 255 255 255 255 255 255 255 255 255 255 255 255 255 16 16 16 128 64 24 192 104 56 192 104 56 192 104 56 192 104 56 192 104 56 192 104 56 192 104 56 192 104 56 192 104 56 192 104 56 192 104 56 192 104 56 192 104 56 192 104 56 192 104 56 192 104 56 192 104 56 128 64 24 192 104 56 128 64 24 16 16 16 255 255 255 255 255 255 255 255 255 255 255 255 255 255 255 255 255 255 255 255 255 255 255 255 255 255 255 255 255 255 255 255 255 255 255 255 255 255 255 255 255 255 
255 255 255 255 255 255 255 255 255 255 255 255 255 255 255 255 255 255 255 255 255 255 255 255 255 255 255 255 255 255 255 255 255 255 255 255 255 255 255 255 255 255 255 255 255 255 255 255 255 255 255 255 255 255 255 255 255 255 255 255 255 255 255 255 255 255 255 255 255 255 255 255 255 255 255 255 255 255 255 255 255 255 255 255 255 255 255 16 16 16 232 136 72 232 136 72 192 104 56 192 104 56 192 104 56 192 104 56 192 104 56 192 104 56 192 104 56 192 104 56 192 104 56 192 104 56 192 104 56 192 104 56 192 104 56 192 104 56 192 104 56 128 64 24 16 16 16 255 255 255 255 255 255 255 255 255 255 255 255 255 255 255 255 255 255 255 255 255 255 255 255 255 255 255 255 255 255 255 255 255 255 255 255 255 255 255 255 255 255 255 255 255 
255 255 255 255 255 255 255 255 255 255 255 255 255 255 255 255 255 255 255 255 255 255 255 255 255 255 255 255 255 255 255 255 255 255 255 255 255 255 255 255 255 255 255 255 255 255 255 255 255 255 255 255 255 255 255 255 255 255 255 255 255 255 255 255 255 255 255 255 255 255 255 255 255 255 255 255 255 255 255 255 255 255 255 255 255 255 255 255 255 255 16 16 16 232 136 72 232 136 72 232 136 72 192 104 56 192 104 56 192 104 56 192 104 56 192 104 56 192 104 56 192 104 56 192 104 56 192 104 56 192 104 56 192 104 56 192 104 56 192 104 56 16 16 16 255 255 255 255 255 255 255 255 255 255 255 255 255 255 255 255 255 255 255 255 255 255 255 255 255 255 255 255 255 255 255 255 255 255 255 255 255 255 255 255 255 255 255 255 255 255 255 255 
255 255 255 255 255 255 255 255 255 255 255 255 255 255 255 255 255 255 255 255 255 255 255 255 255 255 255 255 255 255 255 255 255 255 255 255 255 255 255 255 255 255 255 255 255 255 255 255 255 255 255 255 255 255 255 255 255 255 255 255 255 255 255 255 255 255 255 255 255 255 255 255 255 255 255 255 255 255 255 255 255 255 255 255 255 255 255 255 255 255 128 64 24 192 104 56 232 136 72 232 136 72 232 136 72 232 136 72 192 104 56 192 104 56 192 104 56 192 104 56 192 104 56 192 104 56 192 104 56 192 104 56 192 104 56 192 104 56 16 16 16 255 255 255 255 255 255 255 255 255 255 255 255 255 255 255 255 255 255 255 255 255 255 255 255 255 255 255 255 255 255 255 255 255 255 255 255 255 255 255 255 255 255 255 255 255 255 255 255 255 255 255 
255 255 255 255 255 255 255 255 255 255 255 255 255 255 255 255 255 255 255 255 255 255 255 255 255 255 255 255 255 255 255 255 255 255 255 255 255 255 255 255 255 255 255 255 255 255 255 255 255 255 255 255 255 255 255 255 255 255 255 255 255 255 255 255 255 255 255 255 255 255 255 255 255 255 255 255 255 255 255 255 255 255 255 255 255 255 255 255 255 255 255 255 255 128 64 24 192 104 56 232 136 72 232 136 72 232 136 72 232 136 72 192 104 56 192 104 56 192 104 56 192 104 56 192 104 56 192 104 56 192 104 56 128 64 24 16 16 16 255 255 255 255 255 255 255 255 255 255 255 255 255 255 255 255 255 255 255 255 255 255 255 255 255 255 255 255 255 255 255 255 255 255 255 255 255 255 255 255 255 255 255 255 255 255 255 255 255 255 255 255 255 255 
255 255 255 255 255 255 255 255 255 255 255 255 255 255 255 255 255 255 255 255 255 255 255 255 255 255 255 255 255 255 255 255 255 255 255 255 255 255 255 255 255 255 255 255 255 255 255 255 255 255 255 255 255 255 255 255 255 255 255 255 255 255 255 255 255 255 255 255 255 255 255 255 255 255 255 255 255 255 255 255 255 255 255 255 255 255 255 255 255 255 255 255 255 255 255 255 16 16 16 16 16 16 128 64 24 192 104 56 232 136 72 232 136 72 232 136 72 232 136 72 192 104 56 128 64 24 16 16 16 16 16 16 255 255 255 255 255 255 255 255 255 255 255 255 255 255 255 255 255 255 255 255 255 255 255 255 255 255 255 255 255 255 255 255 255 255 255 255 255 255 255 255 255 255 255 255 255 255 255 255 255 255 255 255 255 255 255 255 255 255 255 255 
255 255 255 255 255 255 255 255 255 255 255 255 255 255 255 255 255 255 255 255 255 255 255 255 255 255 255 255 255 255 255 255 255 255 255 255 255 255 255 255 255 255 255 255 255 255 255 255 255 255 255 255 255 255 255 255 255 255 255 255 255 255 255 255 255 255 255 255 255 255 255 255 255 255 255 255 255 255 255 255 255 255 255 255 255 255 255 255 255 255 255 255 255 255 255 255 255 255 255 255 255 255 255 255 255 128 64 24 16 16 16 16 16 16 16 16 16 16 16 16 128 64 24 255 255 255 255 255 255 255 255 255 255 255 255 255 255 255 255 255 255 255 255 255 255 255 255 255 255 255 255 255 255 255 255 255 255 255 255 255 255 255 255 255 255 255 255 255 255 255 255 255 255 255 255 255 255 255 255 255 255 255 255 255 255 255 255 255 255 255 255 255 
255 255 255 255 255 255 255 255 255 255 255 255 255 255 255 255 255 255 255 255 255 255 255 255 255 255 255 255 255 255 255 255 255 255 255 255 255 255 255 255 255 255 255 255 255 255 255 255 255 255 255 255 255 255 255 255 255 255 255 255 255 255 255 255 255 255 255 255 255 255 255 255 255 255 255 255 255 255 255 255 255 255 255 255 255 255 255 255 255 255 255 255 255 255 255 255 255 255 255 255 255 255 255 255 255 255 255 255 255 255 255 255 255 255 255 255 255 255 255 255 255 255 255 255 255 255 255 255 255 255 255 255 255 255 255 255 255 255 255 255 255 255 255 255 255 255 255 255 255 255 255 255 255 255 255 255 255 255 255 255 255 255 255 255 255 255 255 255 255 255 255 255 255 255 255 255 255 255 255 255 255 255 255 255 255 255 255 255 255 255 255 255 
255 255 255 255 255 255 255 255 255 255 255 255 255 255 255 255 255 255 255 255 255 255 255 255 255 255 255 255 255 255 255 255 255 255 255 255 255 255 255 255 255 255 255 255 255 255 255 255 255 255 255 255 255 255 255 255 255 255 255 255 255 255 255 255 255 255 255 255 255 255 255 255 255 255 255 255 255 255 255 255 255 255 255 255 255 255 255 255 255 255 255 255 255 255 255 255 255 255 255 255 255 255 255 255 255 255 255 255 255 255 255 255 255 255 255 255 255 255 255 255 255 255 255 255 255 255 255 255 255 255 255 255 255 255 255 255 255 255 255 255 255 255 255 255 255 255 255 255 255 255 255 255 255 255 255 255 255 255 255 255 255 255 255 255 255 255 255 255 255 255 255 255 255 255 255 255 255 255 255 255 255 255 255 255 255 255 255 255 255 255 255 255 
255 255 255 255 255 255 255 255 255 255 255 255 255 255 255 255 255 255 255 255 255 255 255 255 255 255 255 255 255 255 255 255 255 255 255 255 255 255 255 255 255 255 255 255 255 255 255 255 255 255 255 255 255 255 255 255 255 255 255 255 255 255 255 255 255 255 255 255 255 255 255 255 255 255 255 255 255 255 255 255 255 255 255 255 255 255 255 255 255 255 255 255 255 255 255 255 255 255 255 255 255 255 255 255 255 255 255 255 255 255 255 255 255 255 255 255 255 255 255 255 255 255 255 255 255 255 255 255 255 255 255 255 255 255 255 255 255 255 255 255 255 255 255 255 255 255 255 255 255 255 255 255 255 255 255 255 255 255 255 255 255 255 255 255 255 255 255 255 255 255 255 255 255 255 255 255 255 255 255 255 255 255 255 255 255 255 255 255 255 255 255 255 
