P3
64 64
255
255 255 255 255 255 255 255 255 255 255 255 255 255 255 255 255 255 255 255 255 255 255 255 255 255 255 255 255 255 255 255 255 255 255 255 255 255 255 255 255 255 255 255 255 255 255 255 255 255 255 255 255 255 255 255 255 255 255 255 255 255 255 255 255 255 255 255 255 255 255 255 255 255 255 255 255 255 255 255 255 255 255 255 255 255 255 255 255 255 255 255 255 255 255 255 255 255 255 255 255 255 255 255 255 255 255 255 255 255 255 255 255 255 255 255 255 255 255 255 255 255 255 255 255 255 255 255 255 255 255 255 255 255 255 255 255 255 255 255 255 255 255 255 255 255 255 255 255 255 255 255 255 255 255 255 255 255 255 255 255 255 255 255 255 255 255 255 255 255 255 255 255 255 255 255 255 255 255 255 255 255 255 255 255 255 255 255 255 255 255 255 255 
255 255 255 255 255 255 255 255 255 255 255 255 255 255 255 255 255 255 255 255 255 255 255 255 255 255 255 255 255 255 255 255 255 255 255 255 255 255 255 255 255 255 255 255 255 255 255 255 255 255 255 255 255 255 255 255 255 255 255 255 255 255 255 255 255 255 255 255 255 255 255 255 255 255 255 255 255 255 255 255 255 255 255 255 255 255 255 255 255 255 255 255 255 255 255 255 255 255 255 255 255 255 255 255 255 255 255 255 255 255 255 255 255 255 255 255 255 255 255 255 255 255 255 255 255 255 255 255 255 255 255 255 255 255 255 255 255 255 255 255 255 255 255 255 255 255 255 255 255 255 255 255 255 255 255 255 255 255 255 255 255 255 255 255 255 255 255 255 255 255 255 255 255 255 255 255 255 255 255 255 255 255 255 255 255 255 255 255 255 255 255 255 
255 255 255 255 255 255 255 255 255 255 255 255 255 255 255 255 255 255 255 255 255 255 255 255 255 255 255 255 255 255 255 255 255 255 255 255 255 255 255 255 255 255 255 255 255 255 255 255 255 255 255 255 255 255 255 255 255 255 255 255 255 255 255 255 255 255 255 255 255 255 255 255 255 255 255 255 255 255 255 255 255 255 255 255 255 255 255 255 255 255 255 255 255 255 255 255 255 255 255 255 255 255 255 255 255 255 255 255 255 255 255 255 255 255 255 255 255 255 255 255 255 255 255 255 255 255 255 255 255 255 255 255 255 255 255 255 255 255 255 255 255 255 255 255 255 255 255 255 255 255 255 255 255 255 255 255 255 255 255 255 255 255 255 255 255 255 255 255 255 255 255 255 255 255 255 255 255 255 255 255 255 255 255 255 255 255 255 255 255 255 255 255 
255 255 255 255 255 255 255 255 255 255 255 255 255 255 255 255 255 255 255 255 255 255 255 255 255 255 255 255 255 255 255 255 255 255 255 255 255 255 255 255 255 255 255 255 255 255 255 255 255 255 255 255 255 255 255 255 255 255 255 255 255 255 255 255 255 255 255 255 255 255 255 255 255 255 255 255 255 255 255 255 255 255 255 255 255 255 255 255 255 255 255 255 255 255 255 255 255 255 255 255 255 255 255 255 255 255 255 255 255 255 255 255 255 255 255 255 255 255 255 255 255 255 255 255 255 255 255 255 255 255 255 255 255 255 255 255 255 255 255 255 255 255 255 255 255 255 255 255 255 255 255 255 255 255 255 255 255 255 255 255 255 255 255 255 255 255 255 255 255 255 255 255 255 255 255 255 255 255 255 255 255 255 255 255 255 255 255 255 255 255 255 255 
255 255 255 255 255 255 255 255 255 255 255 255 255 255 255 255 255 255 255 255 255 255 255 255 255 255 255 255 255 255 255 255 255 255 255 255 255 255 255 255 255 255 255 255 255 255 255 255 255 255 255 255 255 255 255 255 255 255 255 255 255 255 255 255 255 255 255 255 255 255 255 255 255 255 255 255 255 255 255 255 255 255 255 255 255 255 255 255 255 255 255 255 255 255 255 255 255 255 255 255 255 255 255 255 255 255 255 255 255 255 255 255 255 255 255 255 255 255 255 255 255 255 255 255 255 255 255 255 255 255 255 255 255 255 255 255 255 255 255 255 255 255 255 255 255 255 255 255 255 255 255 255 255 255 255 255 255 255 255 255 255 255 255 255 255 255 255 255 255 255 255 255 255 255 255 255 255 255 255 255 255 255 255 255 255 255 255 255 255 255 255 255 
255 255 255 255 255 255 255 255 255 255 255 255 255 255 255 255 255 255 255 255 255 255 255 255 255 255 255 255 255 255 255 255 255 255 255 255 255 255 255 255 255 255 255 255 255 255 255 255 255 255 255 255 255 255 255 255 255 255 255 255 255 255 255 255 255 255 255 255 255 255 255 255 255 255 255 255 255 255 255 255 255 255 255 255 255 255 255 255 255 255 255 255 255 255 255 255 255 255 255 255 255 255 255 255 255 255 255 255 255 255 255 255 255 255 255 255 255 255 255 255 255 255 255 255 255 255 255 255 255 255 255 255 255 255 255 255 255 255 255 255 255 255 255 255 255 255 255 255 255 255 255 255 255 255 255 255 255 255 255 255 255 255 255 255 255 255 255 255 255 255 255 255 255 255 255 255 255 255 255 255 255 255 255 255 255 255 255 255 255 255 255 255 
255 255 255 255 255 255 255 255 255 255 255 255 255 255 255 255 255 255 255 255 255 255 255 255 255 255 255 255 255 255 255 255 255 255 255 255 255 255 255 255 255 255 255 255 255 255 255 255 255 255 255 255 255 255 255 255 255 255 255 255 255 255 255 255 255 255 255 255 255 255 255 255 255 255 255 255 255 255 255 255 255 255 255 255 255 255 255 255 255 255 255 255 255 255 255 255 255 255 255 144 88 152 88 48 112 88 48 112 88 48 112 88 48 112 144 88 152 255 255 255 255 255 255 255 255 255 255 255 255 255 255 255 255 255 255 255 255 255 255 255 255 255 255 255 255 255 255 255 255 255 255 255 255 255 255 255 255 255 255 255 255 255 255 255 255 255 255 255 255 255 255 255 255 255 255 255 255 255 255 255 255 255 255 255 255 255 255 255 255 255 255 255 
255 255 255 255 255 255 255 255 255 255 255 255 255 255 255 255 255 255 255 255 255 255 255 255 255 255 255 255 255 255 255 255 255 255 255 255 255 255 255 255 255 255 255 255 255 255 255 255 255 255 255 255 255 255 255 255 255 255 255 255 255 255 255 255 255 255 255 255 255 255 255 255 255 255 255 255 255 255 255 255 255 255 255 255 255 255 255 255 255 255 88 48 112 88 48 112 144 88 152 224 184 216 224 184 216 224 184 216 224 184 216 224 184 216 224 184 216 144 88 152 88 48 112 88 48 112 88 48 112 88 48 112 144 88 152 255 255 255 255 255 255 255 255 255 255 255 255 255 255 255 255 255 255 255 255 255 255 255 255 255 255 255 255 255 255 255 255 255 255 255 255 255 255 255 255 255 255 255 255 255 255 255 255 255 255 255 255 255 255 255 255 255 
255 255 255 255 255 255 255 255 255 255 255 255 255 255 255 255 255 255 255 255 255 255 255 255 255 255 255 255 255 255 255 255 255 255 255 255 255 255 255 255 255 255 255 255 255 255 255 255 255 255 255 255 255 255 255 255 255 255 255 255 255 255 255 255 255 255 255 255 255 255 255 255 255 255 255 255 255 255 255 255 255 144 88 152 88 48 112 88 48 112 144 88 152 232 216 232 232 216 232 224 184 216 224 184 216 224 184 216 224 184 216 224 184 216 224 184 216 224 184 216 224 184 216 224 184 216 224 184 216 192 152 176 192 152 176 144 88 152 16 16 16 255 255 255 255 255 255 255 255 255 255 255 255 255 255 255 255 255 255 255 255 255 255 255 255 255 255 255 255 255 255 255 255 255 255 255 255 255 255 255 255 255 255 255 255 255 255 255 255 255 255 255 
255 255 255 255 255 255 255 255 255 255 255 255 255 255 255 255 255 255 255 255 255 255 255 255 255 255 255 255 255 255 255 255 255 255 255 255 255 255 255 255 255 255 255 255 255 255 255 255 255 255 255 255 255 255 255 255 255 255 255 255 255 255 255 255 255 255 255 255 255 255 255 255 255 255 255 88 48 112 144 88 152 224 184 216 88 48 112 224 184 216 232 216 232 232 216 232 232 216 232 232 216 232 232 216 232 232 216 232 232 216 232 232 216 232 232 216 232 224 184 216 224 184 216 224 184 216 224 184 216 224 184 216 192 152 176 192 152 176 144 88 152 16 16 16 255 255 255 255 255 255 255 255 255 255 255 255 255 255 255 255 255 255 255 255 255 255 255 255 255 255 255 255 255 255 255 255 255 255 255 255 255 255 255 255 255 255 255 255 255 255 255 255 
255 255 255 255 255 255 255 255 255 255 255 255 255 255 255 255 255 255 255 255 255 255 255 255 255 255 255 255 255 255 255 255 255 255 255 255 255 255 255 255 255 255 255 255 255 255 255 255 255 255 255 255 255 255 255 255 255 255 255 255 255 255 255 144 88 152 88 48 112 88 48 112 88 48 112 192 152 176 192 152 176 88 48 112 224 184 216 224 184 216 224 184 216 232 216 232 232 216 232 232 216 232 232 216 232 232 216 232 232 216 232 224 184 216 224 184 216 224 184 216 224 184 216 224 184 216 88 48 112 192 152 176 192 152 176 192 152 176 144 88 152 144 88 152 16 16 16 255 255 255 255 255 255 255 255 255 255 255 255 255 255 255 255 255 255 255 255 255 255 255 255 255 255 255 255 255 255 255 255 255 255 255 255 255 255 255 255 255 255 255 255 255 
255 255 255 255 255 255 255 255 255 255 255 255 255 255 255 255 255 255 255 255 255 255 255 255 255 255 255 255 255 255 255 255 255 255 255 255 255 255 255 255 255 255 255 255 255 255 255 255 255 255 255 255 255 255 255 255 255 144 88 152 144 88 152 224 184 216 224 184 216 224 184 216 192 152 176 192 152 176 88 48 112 88 48 112 192 152 176 192 152 176 224 184 216 224 184 216 232 216 232 232 216 232 232 216 232 224 184 216 224 184 216 224 184 216 224 184 216 224 184 216 224 184 216 224 184 216 224 184 216 88 48 112 192 152 176 192 152 176 192 152 176 144 88 152 144 88 152 16 16 16 255 255 255 255 255 255 255 255 255 255 255 255 255 255 255 255 255 255 255 255 255 255 255 255 255 255 255 255 255 255 255 255 255 255 255 255 255 255 255 255 255 255 
255 255 255 255 255 255 255 255 255 255 255 255 255 255 255 255 255 255 255 255 255 255 255 255 255 255 255 255 255 255 255 255 255 255 255 255 255 255 255 255 255 255 255 255 255 255 255 255 255 255 255 255 255 255 144 88 152 224 184 216 224 184 216 224 184 216 224 184 216 192 152 176 192 152 176 192 152 176 88 48 112 192 152 176 192 152 176 192 152 176 192 152 176 224 184 216 224 184 216 224 184 216 224 184 216 192 152 176 192 152 176 192 152 176 224 184 216 224 184 216 224 184 216 224 184 216 224 184 216 224 184 216 88 48 112 192 152 176 192 152 176 144 88 152 144 88 152 88 48 112 255 255 255 255 255 255 255 255 255 255 255 255 255 255 255 255 255 255 255 255 255 255 255 255 255 255 255 255 255 255 255 255 255 255 255 255 255 255 255 255 255 255 
255 255 255 255 255 255 255 255 255 255 255 255 255 255 255 255 255 255 255 255 255 255 255 255 255 255 255 255 255 255 255 255 255 255 255 255 255 255 255 255 255 255 255 255 255 255 255 255 255 255 255 255 255 255 88 48 112 192 152 176 224 184 216 224 184 216 224 184 216 224 184 216 192 152 176 192 152 176 88 48 112 192 152 176 192 152 176 192 152 176 192 152 176 192 152 176 192 152 176 192 152 176 192 152 176 192 152 176 144 88 152 144 88 152 192 152 176 192 152 176 224 184 216 224 184 216 224 184 216 192 152 176 88 48 112 192 152 176 192 152 176 144 88 152 88 48 112 144 88 152 16 16 16 255 255 255 255 255 255 255 255 255 255 255 255 255 255 255 255 255 255 255 255 255 255 255 255 255 255 255 255 255 255 255 255 255 255 255 255 255 255 255 
255 255 255 255 255 255 255 255 255 255 255 255 255 255 255 255 255 255 255 255 255 255 255 255 255 255 255 255 255 255 255 255 255 255 255 255 255 255 255 255 255 255 255 255 255 255 255 255 255 255 255 255 255 255 88 48 112 192 152 176 192 152 176 192 152 176 192 152 176 192 152 176 192 152 176 88 48 112 192 152 176 224 184 216 224 184 216 224 184 216 224 184 216 192 152 176 192 152 176 192 152 176 192 152 176 144 88 152 16 16 16 144 88 152 144 88 152 224 184 216 192 152 176 224 184 216 192 152 176 224 184 216 192 152 176 88 48 112 192 152 176 144 88 152 16 16 16 144 88 152 16 16 16 255 255 255 255 255 255 255 255 255 255 255 255 255 255 255 255 255 255 255 255 255 255 255 255 255 255 255 255 255 255 255 255 255 255 255 255 255 255 255 
255 255 255 255 255 255 255 255 255 255 255 255 255 255 255 255 255 255 255 255 255 255 255 255 255 255 255 255 255 255 255 255 255 255 255 255 255 255 255 255 255 255 255 255 255 255 255 255 255 255 255 255 255 255 255 255 255 88 48 112 144 88 152 192 152 176 192 152 176 192 152 176 192 152 176 88 48 112 224 184 216 224 184 216 224 184 216 224 184 216 224 184 216 192 152 176 192 152 176 192 152 176 144 88 152 16 16 16 144 88 152 144 88 152 144 88 152 192 152 176 224 184 216 192 152 176 224 184 216 192 152 176 192 152 176 88 48 112 192 152 176 144 88 152 16 16 16 144 88 152 88 48 112 255 255 255 255 255 255 255 255 255 255 255 255 255 255 255 255 255 255 255 255 255 255 255 255 255 255 255 255 255 255 255 255 255 255 255 255 255 255 255 
255 255 255 255 255 255 255 255 255 255 255 255 255 255 255 255 255 255 255 255 255 255 255 255 255 255 255 255 255 255 255 255 255 255 255 255 255 255 255 255 255 255 255 255 255 255 255 255 255 255 255 255 255 255 255 255 255 255 255 255 255 255 255 144 88 152 88 48 112 88 48 112 88 48 112 232 216 232 232 216 232 224 184 216 224 184 216 224 184 216 224 184 216 224 184 216 192 152 176 192 152 176 144 88 152 16 16 16 88 48 112 144 88 152 144 88 152 144 88 152 192 152 176 192 152 176 192 152 176 192 152 176 192 152 176 16 16 16 144 88 152 144 88 152 16 16 16 144 88 152 144 88 152 16 16 16 255 255 255 255 255 255 255 255 255 255 255 255 255 255 255 255 255 255 255 255 255 255 255 255 255 255 255 255 255 255 255 255 255 255 255 255 
255 255 255 255 255 255 255 255 255 255 255 255 255 255 255 255 255 255 255 255 255 255 255 255 255 255 255 255 255 255 255 255 255 255 255 255 255 255 255 255 255 255 255 255 255 255 255 255 255 255 255 255 255 255 255 255 255 255 255 255 255 255 255 255 255 255 255 255 255 144 88 152 224 184 216 232 216 232 232 216 232 232 216 232 224 184 216 224 184 216 224 184 216 224 184 216 192 152 176 144 88 152 16 16 16 255 255 255 255 255 255 88 48 112 144 88 152 144 88 152 144 88 152 192 152 176 192 152 176 192 152 176 144 88 152 16 16 16 144 88 152 16 16 16 144 88 152 144 88 152 144 88 152 16 16 16 255 255 255 255 255 255 255 255 255 255 255 255 255 255 255 255 255 255 255 255 255 255 255 255 255 255 255 255 255 255 255 255 255 255 255 255 
255 255 255 255 255 255 255 255 255 255 255 255 255 255 255 255 255 255 255 255 255 255 255 255 255 255 255 255 255 255 255 255 255 255 255 255 255 255 255 255 255 255 255 255 255 255 255 255 255 255 255 255 255 255 255 255 255 255 255 255 255 255 255 255 255 255 255 255 255 88 48 112 224 184 216 224 184 216 224 184 216 224 184 216 224 184 216 224 184 216 224 184 216 192 152 176 192 152 176 88 48 112 255 255 255 255 255 255 255 255 255 88 48 112 144 88 152 144 88 152 144 88 152 144 88 152 144 88 152 144 88 152 144 88 152 16 16 16 144 88 152 16 16 16 144 88 152 144 88 152 144 88 152 88 48 112 255 255 255 255 255 255 255 255 255 255 255 255 255 255 255 255 255 255 255 255 255 255 255 255 255 255 255 255 255 255 255 255 255 255 255 255 
255 255 255 255 255 255 255 255 255 255 255 255 255 255 255 255 255 255 255 255 255 255 255 255 255 255 255 255 255 255 255 255 255 255 255 255 255 255 255 255 255 255 255 255 255 255 255 255 255 255 255 255 255 255 255 255 255 255 255 255 255 255 255 255 255 255 255 255 255 88 48 112 192 152 176 192 152 176 224 184 216 224 184 216 224 184 216 224 184 216 192 152 176 192 152 176 144 88 152 16 16 16 255 255 255 255 255 255 255 255 255 255 255 255 88 48 112 144 88 152 144 88 152 144 88 152 144 88 152 144 88 152 144 88 152 16 16 16 16 16 16 144 88 152 144 88 152 144 88 152 88 48 112 144 88 152 88 48 112 255 255 255 255 255 255 255 255 255 255 255 255 255 255 255 255 255 255 255 255 255 255 255 255 255 255 255 255 255 255 255 255 255 
255 255 255 255 255 255 255 255 255 255 255 255 255 255 255 255 255 255 255 255 255 255 255 255 255 255 255 255 255 255 255 255 255 255 255 255 255 255 255 255 255 255 255 255 255 255 255 255 255 255 255 255 255 255 255 255 255 255 255 255 255 255 255 255 255 255 255 255 255 16 16 16 144 88 152 192 152 176 192 152 176 192 152 176 192 152 176 192 152 176 192 152 176 192 152 176 16 16 16 255 255 255 255 255 255 255 255 255 255 255 255 255 255 255 255 255 255 16 16 16 144 88 152 144 88 152 144 88 152 144 88 152 16 16 16 192 152 176 144 88 152 144 88 152 144 88 152 144 88 152 88 48 112 192 152 176 88 48 112 255 255 255 255 255 255 255 255 255 255 255 255 255 255 255 255 255 255 255 255 255 255 255 255 255 255 255 255 255 255 255 255 255 
255 255 255 255 255 255 255 255 255 255 255 255 255 255 255 255 255 255 255 255 255 255 255 255 255 255 255 255 255 255 255 255 255 255 255 255 255 255 255 255 255 255 255 255 255 255 255 255 255 255 255 255 255 255 255 255 255 255 255 255 255 255 255 255 255 255 255 255 255 255 255 255 16 16 16 16 16 16 144 88 152 144 88 152 144 88 152 144 88 152 144 88 152 16 16 16 88 48 112 88 48 112 88 48 112 88 48 112 144 88 152 255 255 255 255 255 255 255 255 255 88 48 112 16 16 16 16 16 16 16 16 16 192 152 176 192 152 176 192 152 176 192 152 176 144 88 152 88 48 112 88 48 112 192 152 176 192 152 176 88 48 112 255 255 255 255 255 255 255 255 255 255 255 255 255 255 255 255 255 255 255 255 255 255 255 255 255 255 255 255 255 255 
255 255 255 255 255 255 255 255 255 255 255 255 255 255 255 255 255 255 255 255 255 255 255 255 255 255 255 255 255 255 255 255 255 255 255 255 255 255 255 255 255 255 255 255 255 255 255 255 255 255 255 255 255 255 255 255 255 255 255 255 255 255 255 88 48 112 88 48 112 144 88 152 224 184 216 224 184 216 88 48 112 16 16 16 16 16 16 16 16 16 16 16 16 192 152 176 192 152 176 192 152 176 192 152 176 192 152 176 192 152 176 88 48 112 88 48 112 255 255 255 88 48 112 192 152 176 192 152 176 192 152 176 192 152 176 192 152 176 192 152 176 192 152 176 192 152 176 192 152 176 192 152 176 192 152 176 192 152 176 144 88 152 255 255 255 255 255 255 255 255 255 255 255 255 255 255 255 255 255 255 255 255 255 255 255 255 255 255 255 255 255 255 
255 255 255 255 255 255 255 255 255 255 255 255 255 255 255 255 255 255 255 255 255 255 255 255 255 255 255 255 255 255 255 255 255 255 255 255 255 255 255 255 255 255 255 255 255 255 255 255 255 255 255 255 255 255 255 255 255 144 88 152 144 88 152 224 184 216 224 184 216 224 184 216 224 184 216 192 152 176 192 152 176 192 152 176 192 152 176 192 152 176 192 152 176 192 152 176 192 152 176 192 152 176 144 88 152 144 88 152 144 88 152 144 88 152 144 88 152 88 48 112 88 48 112 88 48 112 192 152 176 192 152 176 88 48 112 88 48 112 192 152 176 192 152 176 192 152 176 192 152 176 88 48 112 192 152 176 192 152 176 144 88 152 88 48 112 255 255 255 255 255 255 255 255 255 255 255 255 255 255 255 255 255 255 255 255 255 255 255 255 255 255 255 
255 255 255 255 255 255 255 255 255 255 255 255 255 255 255 255 255 255 255 255 255 255 255 255 255 255 255 255 255 255 255 255 255 255 255 255 255 255 255 255 255 255 255 255 255 255 255 255 255 255 255 144 88 152 144 88 152 224 184 216 224 184 216 192 152 176 192 152 176 192 152 176 192 152 176 192 152 176 144 88 152 144 88 152 144 88 152 144 88 152 144 88 152 144 88 152 144 88 152 144 88 152 144 88 152 192 152 176 192 152 176 192 152 176 144 88 152 144 88 152 144 88 152 144 88 152 88 48 112 144 88 152 144 88 152 144 88 152 88 48 112 16 16 16 16 16 16 16 16 16 144 88 152 88 48 112 144 88 152 144 88 152 16 16 16 255 255 255 255 255 255 255 255 255 255 255 255 255 255 255 255 255 255 255 255 255 255 255 255 255 255 255 
255 255 255 255 255 255 255 255 255 255 255 255 255 255 255 255 255 255 255 255 255 255 255 255 255 255 255 255 255 255 255 255 255 255 255 255 255 255 255 255 255 255 255 255 255 144 88 152 144 88 152 224 184 216 224 184 216 224 184 216 192 152 176 192 152 176 192 152 176 192 152 176 192 152 176 192 152 176 192 152 176 192 152 176 192 152 176 144 88 152 144 88 152 144 88 152 144 88 152 192 152 176 192 152 176 192 152 176 192 152 176 192 152 176 192 152 176 144 88 152 144 88 152 144 88 152 88 48 112 144 88 152 144 88 152 144 88 152 144 88 152 144 88 152 144 88 152 144 88 152 192 152 176 144 88 152 88 48 112 144 88 152 16 16 16 255 255 255 255 255 255 255 255 255 255 255 255 255 255 255 255 255 255 255 255 255 255 255 255 255 255 255 
255 255 255 255 255 255 255 255 255 255 255 255 255 255 255 255 255 255 255 255 255 255 255 255 255 255 255 255 255 255 255 255 255 255 255 255 255 255 255 255 255 255 144 88 152 192 152 176 232 216 232 232 216 232 224 184 216 224 184 216 224 184 216 224 184 216 224 184 216 224 184 216 224 184 216 192 152 176 192 152 176 192 152 176 192 152 176 192 152 176 192 152 176 192 152 176 192 152 176 192 152 176 192 152 176 192 152 176 192 152 176 192 152 176 192 152 176 144 88 152 144 88 152 88 48 112 192 152 176 192 152 176 144 88 152 144 88 152 144 88 152 144 88 152 144 88 152 192 152 176 192 152 176 144 88 152 144 88 152 88 48 112 16 16 16 255 255 255 255 255 255 255 255 255 255 255 255 255 255 255 255 255 255 255 255 255 255 255 255 255 255 255 
255 255 255 255 255 255 255 255 255 255 255 255 255 255 255 255 255 255 255 255 255 255 255 255 255 255 255 255 255 255 255 255 255 255 255 255 255 255 255 88 48 112 224 184 216 224 184 216 232 216 232 232 216 232 224 184 216 224 184 216 224 184 216 224 184 216 192 152 176 192 152 176 192 152 176 192 152 176 192 152 176 192 152 176 144 88 152 144 88 152 144 88 152 144 88 152 144 88 152 144 88 152 192 152 176 192 152 176 192 152 176 192 152 176 192 152 176 144 88 152 144 88 152 88 48 112 192 152 176 192 152 176 144 88 152 144 88 152 144 88 152 192 152 176 192 152 176 192 152 176 192 152 176 192 152 176 144 88 152 88 48 112 255 255 255 255 255 255 255 255 255 255 255 255 255 255 255 255 255 255 255 255 255 255 255 255 255 255 255 255 255 255 
255 255 255 255 255 255 255 255 255 255 255 255 255 255 255 255 255 255 255 255 255 255 255 255 255 255 255 255 255 255 255 255 255 255 255 255 88 48 112 192 152 176 224 184 216 232 216 232 232 216 232 224 184 216 224 184 216 224 184 216 224 184 216 224 184 216 192 152 176 192 152 176 192 152 176 192 152 176 144 88 152 144 88 152 16 16 16 16 16 16 16 16 16 16 16 16 88 48 112 88 48 112 144 88 152 144 88 152 192 152 176 192 152 176 144 88 152 144 88 152 144 88 152 88 48 112 192 152 176 144 88 152 192 152 176 192 152 176 192 152 176 192 152 176 144 88 152 88 48 112 88 48 112 192 152 176 192 152 176 144 88 152 88 48 112 255 255 255 255 255 255 255 255 255 255 255 255 255 255 255 255 255 255 255 255 255 255 255 255 255 255 255 
255 255 255 255 255 255 255 255 255 255 255 255 255 255 255 255 255 255 255 255 255 255 255 255 255 255 255 255 255 255 255 255 255 128 136 152 232 216 232 16 16 16 224 184 216 224 184 216 224 184 216 224 184 216 224 184 216 224 184 216 192 152 176 192 152 176 192 152 176 192 152 176 88 48 112 144 88 152 16 16 16 16 16 16 232 216 232 232 216 232 232 216 232 232 216 232 144 88 152 144 88 152 88 48 112 144 88 152 144 88 152 144 88 152 144 88 152 144 88 152 144 88 152 144 88 152 88 48 112 144 88 152 88 48 112 144 88 152 144 88 152 144 88 152 16 16 16 144 88 152 144 88 152 144 88 152 192 152 176 144 88 152 16 16 16 255 255 255 255 255 255 255 255 255 255 255 255 255 255 255 255 255 255 255 255 255 255 255 255 255 255 255 
255 255 255 255 255 255 255 255 255 255 255 255 255 255 255 255 255 255 255 255 255 255 255 255 255 255 255 255 255 255 255 255 255 128 136 152 232 216 232 232 216 232 192 152 176 192 152 176 224 184 216 224 184 216 224 184 216 192 152 176 192 152 176 192 152 176 192 152 176 144 88 152 88 48 112 88 48 112 232 216 232 232 216 232 16 16 16 232 216 232 232 216 232 232 216 232 144 88 152 144 88 152 192 152 176 192 152 176 192 152 176 192 152 176 144 88 152 144 88 152 144 88 152 144 88 152 88 48 112 144 88 152 144 88 152 88 48 112 16 16 16 16 16 16 144 88 152 144 88 152 144 88 152 144 88 152 192 152 176 144 88 152 16 16 16 255 255 255 255 255 255 255 255 255 255 255 255 255 255 255 255 255 255 255 255 255 255 255 255 255 255 255 
255 255 255 255 255 255 255 255 255 255 255 255 255 255 255 255 255 255 255 255 255 255 255 255 255 255 255 255 255 255 144 88 152 88 48 112 232 216 232 16 16 16 88 48 112 192 152 176 192 152 176 192 152 176 192 152 176 192 152 176 192 152 176 192 152 176 144 88 152 144 88 152 144 88 152 144 88 152 144 88 152 88 48 112 88 48 112 88 48 112 144 88 152 144 88 152 192 152 176 192 152 176 192 152 176 192 152 176 192 152 176 192 152 176 192 152 176 144 88 152 144 88 152 144 88 152 88 48 112 144 88 152 144 88 152 144 88 152 144 88 152 144 88 152 144 88 152 144 88 152 144 88 152 192 152 176 192 152 176 192 152 176 88 48 112 255 255 255 255 255 255 255 255 255 255 255 255 255 255 255 255 255 255 255 255 255 255 255 255 255 255 255 
255 255 255 255 255 255 255 255 255 255 255 255 255 255 255 255 255 255 255 255 255 255 255 255 255 255 255 144 88 152 224 184 216 224 184 216 88 48 112 88 48 112 144 88 152 192 152 176 192 152 176 192 152 176 192 152 176 192 152 176 144 88 152 144 88 152 144 88 152 144 88 152 144 88 152 192 152 176 192 152 176 192 152 176 144 88 152 144 88 152 144 88 152 192 152 176 192 152 176 144 88 152 144 88 152 192 152 176 192 152 176 192 152 176 192 152 176 192 152 176 192 152 176 88 48 112 144 88 152 144 88 152 144 88 152 144 88 152 144 88 152 144 88 152 144 88 152 144 88 152 192 152 176 224 184 216 224 184 216 192 152 176 192 152 176 88 48 112 255 255 255 255 255 255 255 255 255 255 255 255 255 255 255 255 255 255 255 255 255 255 255 255 
255 255 255 255 255 255 255 255 255 255 255 255 255 255 255 255 255 255 255 255 255 255 255 255 144 88 152 224 184 216 224 184 216 224 184 216 224 184 216 224 184 216 144 88 152 192 152 176 192 152 176 192 152 176 144 88 152 144 88 152 144 88 152 144 88 152 144 88 152 144 88 152 192 152 176 192 152 176 192 152 176 144 88 152 144 88 152 192 152 176 192 152 176 192 152 176 144 88 152 16 16 16 16 16 16 144 88 152 192 152 176 192 152 176 192 152 176 192 152 176 192 152 176 88 48 112 144 88 152 144 88 152 144 88 152 144 88 152 144 88 152 144 88 152 144 88 152 192 152 176 192 152 176 224 184 216 192 152 176 192 152 176 192 152 176 192 152 176 255 255 255 255 255 255 255 255 255 255 255 255 255 255 255 255 255 255 255 255 255 255 255 255 
255 255 255 255 255 255 255 255 255 255 255 255 255 255 255 255 255 255 255 255 255 255 255 255 144 88 152 224 184 216 224 184 216 224 184 216 224 184 216 224 184 216 224 184 216 144 88 152 144 88 152 144 88 152 144 88 152 144 88 152 144 88 152 144 88 152 192 152 176 192 152 176 192 152 176 192 152 176 144 88 152 144 88 152 192 152 176 192 152 176 192 152 176 144 88 152 16 16 16 16 16 16 16 16 16 144 88 152 144 88 152 192 152 176 192 152 176 192 152 176 88 48 112 88 48 112 144 88 152 144 88 152 144 88 152 144 88 152 144 88 152 144 88 152 144 88 152 192 152 176 192 152 176 192 152 176 192 152 176 88 48 112 192 152 176 192 152 176 88 48 112 255 255 255 255 255 255 255 255 255 255 255 255 255 255 255 255 255 255 255 255 255 
255 255 255 255 255 255 255 255 255 255 255 255 255 255 255 255 255 255 255 255 255 255 255 255 255 255 255 144 88 152 144 88 152 192 152 176 192 152 176 224 184 216 224 184 216 224 184 216 144 88 152 144 88 152 144 88 152 144 88 152 192 152 176 192 152 176 192 152 176 192 152 176 144 88 152 144 88 152 144 88 152 192 152 176 224 184 216 192 152 176 144 88 152 88 48 112 16 16 16 16 16 16 16 16 16 144 88 152 144 88 152 192 152 176 192 152 176 192 152 176 88 48 112 88 48 112 144 88 152 144 88 152 144 88 152 88 48 112 144 88 152 144 88 152 144 88 152 144 88 152 192 152 176 144 88 152 88 48 112 192 152 176 192 152 176 88 48 112 16 16 16 255 255 255 255 255 255 255 255 255 255 255 255 255 255 255 255 255 255 255 255 255 
255 255 255 255 255 255 255 255 255 255 255 255 255 255 255 255 255 255 255 255 255 255 255 255 255 255 255 255 255 255 88 48 112 88 48 112 144 88 152 144 88 152 192 152 176 192 152 176 192 152 176 192 152 176 192 152 176 192 152 176 192 152 176 192 152 176 144 88 152 144 88 152 88 48 112 88 48 112 88 48 112 88 48 112 224 184 216 224 184 216 88 48 112 16 16 16 16 16 16 16 16 16 16 16 16 144 88 152 144 88 152 192 152 176 192 152 176 88 48 112 144 88 152 88 48 112 144 88 152 144 88 152 144 88 152 144 88 152 88 48 112 88 48 112 144 88 152 144 88 152 144 88 152 88 48 112 88 48 112 192 152 176 192 152 176 192 152 176 16 16 16 255 255 255 255 255 255 255 255 255 255 255 255 255 255 255 255 255 255 255 255 255 
255 255 255 255 255 255 255 255 255 255 255 255 255 255 255 255 255 255 255 255 255 255 255 255 255 255 255 255 255 255 255 255 255 192 152 176 88 48 112 88 48 112 144 88 152 144 88 152 144 88 152 144 88 152 144 88 152 144 88 152 144 88 152 88 48 112 88 48 112 88 48 112 16 16 16 16 16 16 16 16 16 16 16 16 88 48 112 224 184 216 88 48 112 16 16 16 16 16 16 16 16 16 16 16 16 144 88 152 144 88 152 192 152 176 192 152 176 88 48 112 144 88 152 88 48 112 144 88 152 144 88 152 144 88 152 144 88 152 144 88 152 144 88 152 88 48 112 16 16 16 16 16 16 144 88 152 192 152 176 192 152 176 192 152 176 192 152 176 16 16 16 255 255 255 255 255 255 255 255 255 255 255 255 255 255 255 255 255 255 255 255 255 
255 255 255 255 255 255 255 255 255 255 255 255 255 255 255 255 255 255 255 255 255 255 255 255 255 255 255 255 255 255 255 255 255 255 255 255 88 48 112 192 152 176 88 48 112 88 48 112 88 48 112 88 48 112 88 48 112 88 48 112 16 16 16 16 16 16 16 16 16 16 16 16 16 16 16 16 16 16 16 16 16 16 16 16 88 48 112 224 184 216 88 48 112 16 16 16 16 16 16 16 16 16 16 16 16 144 88 152 144 88 152 144 88 152 192 152 176 192 152 176 144 88 152 144 88 152 88 48 112 144 88 152 144 88 152 144 88 152 144 88 152 144 88 152 144 88 152 144 88 152 144 88 152 192 152 176 224 184 216 224 184 216 192 152 176 192 152 176 16 16 16 255 255 255 255 255 255 255 255 255 255 255 255 255 255 255 255 255 255 255 255 255 
255 255 255 255 255 255 255 255 255 255 255 255 255 255 255 255 255 255 255 255 255 255 255 255 255 255 255 255 255 255 255 255 255 255 255 255 88 48 112 192 152 176 88 48 112 16 16 16 16 16 16 16 16 16 16 16 16 16 16 16 16 16 16 16 16 16 16 16 16 16 16 16 16 16 16 16 16 16 16 16 16 16 16 16 88 48 112 192 152 176 88 48 112 16 16 16 16 16 16 16 16 16 16 16 16 144 88 152 144 88 152 144 88 152 192 152 176 192 152 176 144 88 152 192 152 176 144 88 152 144 88 152 144 88 152 144 88 152 144 88 152 144 88 152 192 152 176 192 152 176 192 152 176 224 184 216 192 152 176 192 152 176 192 152 176 192 152 176 88 48 112 255 255 255 255 255 255 255 255 255 255 255 255 255 255 255 255 255 255 255 255 255 
255 255 255 255 255 255 255 255 255 255 255 255 255 255 255 255 255 255 255 255 255 255 255 255 255 255 255 255 255 255 255 255 255 255 255 255 88 48 112 192 152 176 88 48 112 16 16 16 16 16 16 16 16 16 16 16 16 16 16 16 16 16 16 16 16 16 16 16 16 16 16 16 64 72 88 64 72 88 64 72 88 64 72 88 88 48 112 192 152 176 88 48 112 64 72 88 64 72 88 64 72 88 64 72 88 144 88 152 144 88 152 144 88 152 192 152 176 192 152 176 144 88 152 192 152 176 192 152 176 192 152 176 144 88 152 144 88 152 144 88 152 192 152 176 192 152 176 224 184 216 224 184 216 224 184 216 192 152 176 192 152 176 192 152 176 192 152 176 144 88 152 88 48 112 255 255 255 255 255 255 255 255 255 255 255 255 255 255 255 255 255 255 
255 255 255 255 255 255 255 255 255 255 255 255 255 255 255 255 255 255 255 255 255 255 255 255 255 255 255 255 255 255 255 255 255 255 255 255 88 48 112 192 152 176 88 48 112 16 16 16 16 16 16 16 16 16 16 16 16 16 16 16 16 16 16 16 16 16 64 72 88 64 72 88 128 136 152 128 136 152 128 136 152 128 136 152 88 48 112 192 152 176 88 48 112 128 136 152 128 136 152 128 136 152 64 72 88 144 88 152 144 88 152 144 88 152 192 152 176 192 152 176 192 152 176 144 88 152 192 152 176 192 152 176 192 152 176 192 152 176 224 184 216 224 184 216 224 184 216 224 184 216 224 184 216 224 184 216 192 152 176 192 152 176 88 48 112 192 152 176 144 88 152 16 16 16 255 255 255 255 255 255 255 255 255 255 255 255 255 255 255 255 255 255 
255 255 255 255 255 255 255 255 255 255 255 255 255 255 255 255 255 255 255 255 255 255 255 255 255 255 255 255 255 255 144 88 152 144 88 152 88 48 112 192 152 176 88 48 112 16 16 16 16 16 16 16 16 16 16 16 16 16 16 16 64 72 88 64 72 88 168 176 184 168 176 184 168 176 184 168 176 184 168 176 184 168 176 184 88 48 112 224 184 216 192 152 176 88 48 112 128 136 152 128 136 152 128 136 152 64 72 88 144 88 152 144 88 152 192 152 176 192 152 176 192 152 176 192 152 176 192 152 176 192 152 176 88 48 112 192 152 176 224 184 216 224 184 216 224 184 216 192 152 176 88 48 112 144 88 152 192 152 176 192 152 176 88 48 112 192 152 176 144 88 152 16 16 16 255 255 255 255 255 255 255 255 255 255 255 255 255 255 255 255 255 255 
255 255 255 255 255 255 255 255 255 255 255 255 255 255 255 255 255 255 255 255 255 255 255 255 255 255 255 144 88 152 232 216 232 232 216 232 88 48 112 192 152 176 88 48 112 16 16 16 16 16 16 16 16 16 16 16 16 64 72 88 168 176 184 168 176 184 168 176 184 168 176 184 168 176 184 168 176 184 168 176 184 168 176 184 88 48 112 224 184 216 192 152 176 88 48 112 168 176 184 128 136 152 128 136 152 64 72 88 144 88 152 144 88 152 192 152 176 192 152 176 192 152 176 144 88 152 192 152 176 192 152 176 144 88 152 88 48 112 192 152 176 192 152 176 192 152 176 88 48 112 144 88 152 144 88 152 144 88 152 192 152 176 88 48 112 88 48 112 144 88 152 16 16 16 255 255 255 255 255 255 255 255 255 255 255 255 255 255 255 255 255 255 
255 255 255 255 255 255 255 255 255 255 255 255 255 255 255 255 255 255 255 255 255 255 255 255 88 48 112 232 216 232 192 152 176 224 184 216 88 48 112 88 48 112 16 16 16 16 16 16 16 16 16 16 16 16 64 72 88 168 176 184 168 176 184 168 176 184 168 176 184 168 176 184 168 176 184 168 176 184 168 176 184 168 176 184 88 48 112 224 184 216 192 152 176 88 48 112 168 176 184 128 136 152 128 136 152 64 72 88 144 88 152 144 88 152 192 152 176 192 152 176 192 152 176 192 152 176 144 88 152 144 88 152 144 88 152 144 88 152 88 48 112 88 48 112 88 48 112 144 88 152 144 88 152 144 88 152 144 88 152 88 48 112 88 48 112 192 152 176 88 48 112 16 16 16 255 255 255 255 255 255 255 255 255 255 255 255 255 255 255 255 255 255 
255 255 255 255 255 255 255 255 255 255 255 255 255 255 255 255 255 255 255 255 255 255 255 255 144 88 152 232 216 232 192 152 176 192 152 176 88 48 112 16 16 16 16 16 16 16 16 16 16 16 16 64 72 88 168 176 184 168 176 184 168 176 184 168 176 184 168 176 184 168 176 184 168 176 184 168 176 184 168 176 184 168 176 184 88 48 112 192 152 176 192 152 176 144 88 152 88 48 112 128 136 152 128 136 152 64 72 88 144 88 152 144 88 152 192 152 176 192 152 176 192 152 176 192 152 176 144 88 152 144 88 152 144 88 152 144 88 152 144 88 152 144 88 152 144 88 152 144 88 152 144 88 152 144 88 152 88 48 112 88 48 112 192 152 176 224 184 216 224 184 216 16 16 16 255 255 255 255 255 255 255 255 255 255 255 255 255 255 255 255 255 255 
255 255 255 255 255 255 255 255 255 255 255 255 255 255 255 255 255 255 144 88 152 144 88 152 224 184 216 224 184 216 224 184 216 88 48 112 16 16 16 16 16 16 16 16 16 16 16 16 64 72 88 168 176 184 168 176 184 168 176 184 168 176 184 168 176 184 168 176 184 168 176 184 168 176 184 168 176 184 168 176 184 88 48 112 88 48 112 192 152 176 192 152 176 144 88 152 88 48 112 128 136 152 128 136 152 64 72 88 144 88 152 144 88 152 88 48 112 192 152 176 192 152 176 192 152 176 192 152 176 144 88 152 144 88 152 144 88 152 144 88 152 144 88 152 144 88 152 144 88 152 144 88 152 144 88 152 144 88 152 144 88 152 192 152 176 224 184 216 224 184 216 16 16 16 88 48 112 255 255 255 255 255 255 255 255 255 255 255 255 255 255 255 
255 255 255 255 255 255 255 255 255 255 255 255 144 88 152 192 152 176 192 152 176 224 184 216 224 184 216 144 88 152 224 184 216 88 48 112 16 16 16 16 16 16 16 16 16 16 16 16 64 72 88 128 136 152 128 136 152 168 176 184 168 176 184 168 176 184 168 176 184 168 176 184 128 136 152 128 136 152 128 136 152 88 48 112 224 184 216 192 152 176 192 152 176 144 88 152 88 48 112 88 48 112 144 88 152 144 88 152 144 88 152 88 48 112 144 88 152 192 152 176 192 152 176 192 152 176 144 88 152 144 88 152 144 88 152 144 88 152 144 88 152 144 88 152 144 88 152 144 88 152 144 88 152 144 88 152 144 88 152 144 88 152 192 152 176 224 184 216 144 88 152 88 48 112 224 184 216 16 16 16 255 255 255 255 255 255 255 255 255 255 255 255 
255 255 255 255 255 255 255 255 255 144 88 152 192 152 176 192 152 176 192 152 176 224 184 216 144 88 152 224 184 216 88 48 112 192 152 176 88 48 112 16 16 16 16 16 16 64 72 88 128 136 152 128 136 152 128 136 152 128 136 152 128 136 152 128 136 152 128 136 152 128 136 152 128 136 152 88 48 112 88 48 112 224 184 216 224 184 216 192 152 176 192 152 176 192 152 176 224 184 216 192 152 176 88 48 112 88 48 112 88 48 112 192 152 176 192 152 176 192 152 176 192 152 176 144 88 152 144 88 152 144 88 152 144 88 152 88 48 112 88 48 112 88 48 112 144 88 152 144 88 152 144 88 152 144 88 152 144 88 152 144 88 152 144 88 152 144 88 152 144 88 152 88 48 112 224 184 216 224 184 216 16 16 16 255 255 255 255 255 255 255 255 255 
255 255 255 255 255 255 144 88 152 232 216 232 232 216 232 224 184 216 192 152 176 144 88 152 224 184 216 224 184 216 144 88 152 192 152 176 192 152 176 88 48 112 16 16 16 64 72 88 128 136 152 88 48 112 88 48 112 88 48 112 88 48 112 88 48 112 88 48 112 88 48 112 88 48 112 192 152 176 224 184 216 224 184 216 192 152 176 192 152 176 192 152 176 224 184 216 224 184 216 224 184 216 192 152 176 192 152 176 192 152 176 192 152 176 192 152 176 144 88 152 144 88 152 144 88 152 144 88 152 144 88 152 144 88 152 144 88 152 144 88 152 144 88 152 88 48 112 144 88 152 144 88 152 144 88 152 144 88 152 144 88 152 144 88 152 144 88 152 88 48 112 224 184 216 224 184 216 224 184 216 224 184 216 16 16 16 255 255 255 255 255 255 
255 255 255 144 88 152 224 184 216 232 216 232 232 216 232 224 184 216 224 184 216 88 48 112 224 184 216 224 184 216 144 88 152 144 88 152 192 152 176 224 184 216 88 48 112 88 48 112 88 48 112 224 184 216 232 216 232 232 216 232 224 184 216 224 184 216 224 184 216 192 152 176 192 152 176 192 152 176 192 152 176 192 152 176 192 152 176 224 184 216 224 184 216 224 184 216 192 152 176 192 152 176 192 152 176 192 152 176 192 152 176 192 152 176 192 152 176 192 152 176 192 152 176 192 152 176 144 88 152 144 88 152 144 88 152 144 88 152 144 88 152 144 88 152 144 88 152 88 48 112 144 88 152 144 88 152 144 88 152 144 88 152 144 88 152 144 88 152 192 152 176 192 152 176 192 152 176 192 152 176 224 184 216 88 48 112 255 255 255 255 255 255 
255 255 255 88 48 112 192 152 176 224 184 216 224 184 216 88 48 112 88 48 112 144 88 152 144 88 152 192 152 176 192 152 176 144 88 152 192 152 176 192 152 176 192 152 176 224 184 216 224 184 216 224 184 216 224 184 216 224 184 216 224 184 216 192 152 176 192 152 176 192 152 176 192 152 176 192 152 176 192 152 176 88 48 112 88 48 112 192 152 176 192 152 176 192 152 176 192 152 176 88 48 112 88 48 112 88 48 112 88 48 112 88 48 112 88 48 112 88 48 112 192 152 176 192 152 176 192 152 176 144 88 152 144 88 152 144 88 152 144 88 152 144 88 152 144 88 152 144 88 152 88 48 112 88 48 112 144 88 152 144 88 152 192 152 176 192 152 176 192 152 176 192 152 176 192 152 176 192 152 176 144 88 152 88 48 112 88 48 112 255 255 255 
255 255 255 88 48 112 192 152 176 192 152 176 192 152 176 88 48 112 144 88 152 144 88 152 144 88 152 192 152 176 192 152 176 192 152 176 144 88 152 144 88 152 144 88 152 192 152 176 192 152 176 192 152 176 192 152 176 192 152 176 144 88 152 144 88 152 144 88 152 144 88 152 144 88 152 192 152 176 192 152 176 192 152 176 192 152 176 88 48 112 88 48 112 88 48 112 88 48 112 88 48 112 144 88 152 144 88 152 144 88 152 144 88 152 144 88 152 144 88 152 88 48 112 88 48 112 88 48 112 144 88 152 144 88 152 144 88 152 144 88 152 144 88 152 144 88 152 144 88 152 144 88 152 144 88 152 88 48 112 88 48 112 88 48 112 192 152 176 192 152 176 144 88 152 144 88 152 144 88 152 144 88 152 88 48 112 16 16 16 255 255 255 
255 255 255 255 255 255 88 48 112 88 48 112 88 48 112 192 152 176 192 152 176 144 88 152 144 88 152 144 88 152 192 152 176 224 184 216 192 152 176 144 88 152 144 88 152 144 88 152 144 88 152 144 88 152 144 88 152 144 88 152 144 88 152 144 88 152 144 88 152 144 88 152 144 88 152 144 88 152 144 88 152 144 88 152 144 88 152 144 88 152 144 88 152 144 88 152 144 88 152 144 88 152 144 88 152 144 88 152 144 88 152 144 88 152 144 88 152 144 88 152 144 88 152 144 88 152 144 88 152 88 48 112 16 16 16 16 16 16 144 88 152 144 88 152 144 88 152 144 88 152 144 88 152 144 88 152 144 88 152 144 88 152 144 88 152 88 48 112 144 88 152 144 88 152 144 88 152 144 88 152 88 48 112 16 16 16 255 255 255 255 255 255 
255 255 255 255 255 255 255 255 255 255 255 255 88 48 112 192 152 176 192 152 176 192 152 176 192 152 176 192 152 176 192 152 176 224 184 216 224 184 216 232 216 232 224 184 216 144 88 152 144 88 152 144 88 152 144 88 152 144 88 152 144 88 152 144 88 152 144 88 152 144 88 152 144 88 152 144 88 152 144 88 152 144 88 152 144 88 152 144 88 152 144 88 152 144 88 152 144 88 152 144 88 152 144 88 152 144 88 152 144 88 152 144 88 152 144 88 152 144 88 152 144 88 152 144 88 152 144 88 152 144 88 152 144 88 152 144 88 152 88 48 112 16 16 16 144 88 152 144 88 152 144 88 152 144 88 152 144 88 152 144 88 152 144 88 152 144 88 152 88 48 112 144 88 152 88 48 112 16 16 16 16 16 16 255 255 255 255 255 255 255 255 255 
255 255 255 255 255 255 255 255 255 255 255 255 16 16 16 88 48 112 144 88 152 192 152 176 192 152 176 192 152 176 192 152 176 192 152 176 224 184 216 232 216 232 232 216 232 224 184 216 224 184 216 144 88 152 144 88 152 144 88 152 144 88 152 144 88 152 192 152 176 192 152 176 192 152 176 192 152 176 192 152 176 192 152 176 192 152 176 192 152 176 192 152 176 192 152 176 192 152 176 192 152 176 192 152 176 144 88 152 144 88 152 144 88 152 144 88 152 144 88 152 144 88 152 144 88 152 144 88 152 144 88 152 144 88 152 144 88 152 144 88 152 144 88 152 88 48 112 144 88 152 144 88 152 144 88 152 144 88 152 144 88 152 144 88 152 88 48 112 16 16 16 16 16 16 255 255 255 255 255 255 255 255 255 255 255 255 255 255 255 255 255 255 
255 255 255 255 255 255 255 255 255 255 255 255 255 255 255 16 16 16 16 16 16 144 88 152 144 88 152 144 88 152 88 48 112 192 152 176 192 152 176 192 152 176 224 184 216 224 184 216 224 184 216 224 184 216 224 184 216 224 184 216 192 152 176 192 152 176 192 152 176 192 152 176 192 152 176 192 152 176 192 152 176 192 152 176 192 152 176 192 152 176 192 152 176 192 152 176 192 152 176 192 152 176 192 152 176 192 152 176 192 152 176 144 88 152 144 88 152 144 88 152 144 88 152 144 88 152 144 88 152 144 88 152 144 88 152 144 88 152 144 88 152 88 48 112 16 16 16 88 48 112 144 88 152 144 88 152 144 88 152 144 88 152 88 48 112 16 16 16 255 255 255 255 255 255 255 255 255 255 255 255 255 255 255 255 255 255 255 255 255 255 255 255 
255 255 255 255 255 255 255 255 255 255 255 255 255 255 255 255 255 255 255 255 255 88 48 112 16 16 16 16 16 16 192 152 176 16 16 16 16 16 16 16 16 16 192 152 176 192 152 176 192 152 176 192 152 176 192 152 176 192 152 176 192 152 176 192 152 176 192 152 176 144 88 152 144 88 152 144 88 152 88 48 112 16 16 16 16 16 16 16 16 16 16 16 16 16 16 16 88 48 112 144 88 152 144 88 152 144 88 152 144 88 152 144 88 152 144 88 152 144 88 152 16 16 16 16 16 16 144 88 152 144 88 152 144 88 152 144 88 152 88 48 112 16 16 16 255 255 255 255 255 255 88 48 112 16 16 16 16 16 16 16 16 16 255 255 255 255 255 255 255 255 255 255 255 255 255 255 255 255 255 255 255 255 255 255 255 255 255 255 255 255 255 255 
255 255 255 255 255 255 255 255 255 255 255 255 255 255 255 255 255 255 255 255 255 255 255 255 255 255 255 255 255 255 255 255 255 255 255 255 255 255 255 255 255 255 16 16 16 16 16 16 144 88 152 144 88 152 144 88 152 144 88 152 144 88 152 144 88 152 144 88 152 144 88 152 88 48 112 16 16 16 255 255 255 255 255 255 255 255 255 255 255 255 255 255 255 255 255 255 255 255 255 88 48 112 16 16 16 144 88 152 144 88 152 144 88 152 88 48 112 16 16 16 255 255 255 255 255 255 88 48 112 16 16 16 16 16 16 16 16 16 88 48 112 255 255 255 255 255 255 255 255 255 255 255 255 255 255 255 255 255 255 255 255 255 255 255 255 255 255 255 255 255 255 255 255 255 255 255 255 255 255 255 255 255 255 255 255 255 255 255 255 255 255 255 
255 255 255 255 255 255 255 255 255 255 255 255 255 255 255 255 255 255 255 255 255 255 255 255 255 255 255 255 255 255 255 255 255 255 255 255 255 255 255 255 255 255 255 255 255 255 255 255 88 48 112 16 16 16 16 16 16 16 16 16 16 16 16 16 16 16 16 16 16 88 48 112 255 255 255 255 255 255 255 255 255 255 255 255 255 255 255 255 255 255 255 255 255 255 255 255 255 255 255 255 255 255 255 255 255 88 48 112 16 16 16 16 16 16 255 255 255 255 255 255 255 255 255 255 255 255 255 255 255 255 255 255 255 255 255 255 255 255 255 255 255 255 255 255 255 255 255 255 255 255 255 255 255 255 255 255 255 255 255 255 255 255 255 255 255 255 255 255 255 255 255 255 255 255 255 255 255 255 255 255 255 255 255 255 255 255 255 255 255 255 255 255 
255 255 255 255 255 255 255 255 255 255 255 255 255 255 255 255 255 255 255 255 255 255 255 255 255 255 255 255 255 255 255 255 255 255 255 255 255 255 255 255 255 255 255 255 255 255 255 255 255 255 255 255 255 255 255 255 255 255 255 255 255 255 255 255 255 255 255 255 255 255 255 255 255 255 255 255 255 255 255 255 255 255 255 255 255 255 255 255 255 255 255 255 255 255 255 255 255 255 255 255 255 255 255 255 255 255 255 255 255 255 255 255 255 255 255 255 255 255 255 255 255 255 255 255 255 255 255 255 255 255 255 255 255 255 255 255 255 255 255 255 255 255 255 255 255 255 255 255 255 255 255 255 255 255 255 255 255 255 255 255 255 255 255 255 255 255 255 255 255 255 255 255 255 255 255 255 255 255 255 255 255 255 255 255 255 255 255 255 255 255 255 255 
255 255 255 255 255 255 255 255 255 255 255 255 255 255 255 255 255 255 255 255 255 255 255 255 255 255 255 255 255 255 255 255 255 255 255 255 255 255 255 255 255 255 255 255 255 255 255 255 255 255 255 255 255 255 255 255 255 255 255 255 255 255 255 255 255 255 255 255 255 255 255 255 255 255 255 255 255 255 255 255 255 255 255 255 255 255 255 255 255 255 255 255 255 255 255 255 255 255 255 255 255 255 255 255 255 255 255 255 255 255 255 255 255 255 255 255 255 255 255 255 255 255 255 255 255 255 255 255 255 255 255 255 255 255 255 255 255 255 255 255 255 255 255 255 255 255 255 255 255 255 255 255 255 255 255 255 255 255 255 255 255 255 255 255 255 255 255 255 255 255 255 255 255 255 255 255 255 255 255 255 255 255 255 255 255 255 255 255 255 255 255 255 
255 255 255 255 255 255 255 255 255 255 255 255 255 255 255 255 255 255 255 255 255 255 255 255 255 255 255 255 255 255 255 255 255 255 255 255 255 255 255 255 255 255 255 255 255 255 255 255 255 255 255 255 255 255 255 255 255 255 255 255 255 255 255 255 255 255 255 255 255 255 255 255 255 255 255 255 255 255 255 255 255 255 255 255 255 255 255 255 255 255 255 255 255 255 255 255 255 255 255 255 255 255 255 255 255 255 255 255 255 255 255 255 255 255 255 255 255 255 255 255 255 255 255 255 255 255 255 255 255 255 255 255 255 255 255 255 255 255 255 255 255 255 255 255 255 255 255 255 255 255 255 255 255 255 255 255 255 255 255 255 255 255 255 255 255 255 255 255 255 255 255 255 255 255 255 255 255 255 255 255 255 255 255 255 255 255 255 255 255 255 255 255 
255 255 255 255 255 255 255 255 255 255 255 255 255 255 255 255 255 255 255 255 255 255 255 255 255 255 255 255 255 255 255 255 255 255 255 255 255 255 255 255 255 255 255 255 255 255 255 255 255 255 255 255 255 255 255 255 255 255 255 255 255 255 255 255 255 255 255 255 255 255 255 255 255 255 255 255 255 255 255 255 255 255 255 255 255 255 255 255 255 255 255 255 255 255 255 255 255 255 255 255 255 255 255 255 255 255 255 255 255 255 255 255 255 255 255 255 255 255 255 255 255 255 255 255 255 255 255 255 255 255 255 255 255 255 255 255 255 255 255 255 255 255 255 255 255 255 255 255 255 255 255 255 255 255 255 255 255 255 255 255 255 255 255 255 255 255 255 255 255 255 255 255 255 255 255 255 255 255 255 255 255 255 255 255 255 255 255 255 255 255 255 255 
