P3
64 64
255
255 255 255 255 255 255 255 255 255 255 255 255 255 255 255 255 255 255 255 255 255 255 255 255 255 255 255 255 255 255 255 255 255 255 255 255 255 255 255 255 255 255 255 255 255 255 255 255 255 255 255 255 255 255 255 255 255 255 255 255 255 255 255 255 255 255 255 255 255 255 255 255 255 255 255 255 255 255 255 255 255 255 255 255 255 255 255 255 255 255 255 255 255 255 255 255 255 255 255 255 255 255 255 255 255 255 255 255 255 255 255 255 255 255 255 255 255 255 255 255 255 255 255 255 255 255 255 255 255 255 255 255 255 255 255 255 255 255 255 255 255 255 255 255 255 255 255 255 255 255 255 255 255 255 255 255 255 255 255 255 255 255 255 255 255 255 255 255 255 255 255 255 255 255 255 255 255 255 255 255 255 255 255 255 255 255 255 255 255 255 255 255 
255 255 255 255 255 255 255 255 255 255 255 255 255 255 255 255 255 255 255 255 255 255 255 255 255 255 255 255 255 255 255 255 255 255 255 255 255 255 255 255 255 255 255 255 255 255 255 255 255 255 255 255 255 255 255 255 255 255 255 255 255 255 255 255 255 255 255 255 255 255 255 255 255 255 255 255 255 255 255 255 255 255 255 255 255 255 255 255 255 255 255 255 255 255 255 255 255 255 255 255 255 255 255 255 255 255 255 255 255 255 255 255 255 255 255 255 255 255 255 255 255 255 255 255 255 255 255 255 255 255 255 255 255 255 255 255 255 255 255 255 255 255 255 255 255 255 255 255 255 255 255 255 255 255 255 255 255 255 255 255 255 255 255 255 255 255 255 255 255 255 255 255 255 255 255 255 255 255 255 255 255 255 255 255 255 255 255 255 255 255 255 255 
255 255 255 255 255 255 255 255 255 255 255 255 255 255 255 255 255 255 255 255 255 255 255 255 255 255 255 255 255 255 255 255 255 255 255 255 255 255 255 255 255 255 255 255 255 255 255 255 255 255 255 255 255 255 255 255 255 255 255 255 255 255 255 255 255 255 255 255 255 255 255 255 255 255 255 255 255 255 255 255 255 255 255 255 255 255 255 255 255 255 255 255 255 255 255 255 255 255 255 255 255 255 255 255 255 255 255 255 255 255 255 255 255 255 255 255 255 255 255 255 255 255 255 255 255 255 255 255 255 255 255 255 255 255 255 255 255 255 255 255 255 255 255 255 255 255 255 255 255 255 255 255 255 255 255 255 255 255 255 255 255 255 255 255 255 255 255 255 255 255 255 255 255 255 255 255 255 255 255 255 255 255 255 255 255 255 255 255 255 255 255 255 
255 255 255 255 255 255 255 255 255 255 255 255 255 255 255 255 255 255 255 255 255 255 255 255 255 255 255 255 255 255 255 255 255 255 255 255 255 255 255 255 255 255 255 255 255 255 255 255 255 255 255 255 255 255 255 255 255 255 255 255 255 255 255 255 255 255 255 255 255 255 255 255 255 255 255 255 255 255 255 255 255 255 255 255 255 255 255 255 255 255 255 255 255 255 255 255 255 255 255 255 255 255 255 255 255 255 255 255 255 255 255 255 255 255 255 255 255 255 255 255 255 255 255 255 255 255 255 255 255 255 255 255 255 255 255 255 255 255 255 255 255 255 255 255 255 255 255 255 255 255 255 255 255 255 255 255 255 255 255 255 255 255 255 255 255 255 255 255 255 255 255 255 255 255 255 255 255 255 255 255 255 255 255 255 255 255 255 255 255 255 255 255 
255 255 255 255 255 255 255 255 255 255 255 255 255 255 255 255 255 255 255 255 255 255 255 255 255 255 255 255 255 255 255 255 255 255 255 255 255 255 255 255 255 255 255 255 255 255 255 255 255 255 255 255 255 255 255 255 255 255 255 255 255 255 255 255 255 255 255 255 255 255 255 255 255 255 255 255 255 255 255 255 255 255 255 255 255 255 255 255 255 255 255 255 255 255 255 255 255 255 255 255 255 255 255 255 255 255 255 255 255 255 255 255 255 255 255 255 255 255 255 255 255 255 255 255 255 255 255 255 255 255 255 255 255 255 255 255 255 255 255 255 255 255 255 255 255 255 255 255 255 255 255 255 255 255 255 255 255 255 255 255 255 255 255 255 255 255 255 255 255 255 255 255 255 255 255 255 255 255 255 255 255 255 255 255 255 255 255 255 255 255 255 255 
255 255 255 255 255 255 255 255 255 255 255 255 255 255 255 255 255 255 255 255 255 255 255 255 255 255 255 255 255 255 255 255 255 255 255 255 255 255 255 255 255 255 255 255 255 255 255 255 255 255 255 255 255 255 255 255 255 255 255 255 255 255 255 255 255 255 255 255 255 255 255 255 255 255 255 255 255 255 255 255 255 255 255 255 255 255 255 255 255 255 255 255 255 255 255 255 255 255 255 255 255 255 255 255 255 255 255 255 255 255 255 255 255 255 255 255 255 255 255 255 255 255 255 255 255 255 255 255 255 255 255 255 255 255 255 255 255 255 255 255 255 255 255 255 255 255 255 255 255 255 255 255 255 255 255 255 255 255 255 255 255 255 255 255 255 255 255 255 255 255 255 255 255 255 255 255 255 255 255 255 255 255 255 255 255 255 255 255 255 255 255 255 
255 255 255 255 255 255 255 255 255 255 255 255 255 255 255 255 255 255 255 255 255 255 255 255 255 255 255 255 255 255 255 255 255 255 255 255 255 255 255 255 255 255 255 255 255 255 255 255 255 255 255 255 255 255 255 255 255 255 255 255 255 255 255 255 255 255 255 255 255 255 255 255 255 255 255 255 255 255 255 255 255 255 255 255 255 255 255 255 255 255 255 255 255 255 255 255 255 255 255 255 255 255 255 255 255 255 255 255 255 255 255 255 255 255 255 255 255 255 255 255 255 255 255 255 255 255 255 255 255 255 255 255 255 255 255 255 255 255 255 255 255 255 255 255 255 255 255 255 255 255 255 255 255 255 255 255 255 255 255 255 255 255 255 255 255 255 255 255 255 255 255 255 255 255 255 255 255 255 255 255 255 255 255 255 255 255 255 255 255 255 255 255 
255 255 255 255 255 255 255 255 255 255 255 255 255 255 255 255 255 255 255 255 255 255 255 255 255 255 255 255 255 255 255 255 255 255 255 255 255 255 255 255 255 255 255 255 255 255 255 255 255 255 255 255 255 255 255 255 255 255 255 255 255 255 255 255 255 255 255 255 255 255 255 255 255 255 255 255 255 255 255 255 255 255 255 255 255 255 255 255 255 255 255 255 255 255 255 255 255 255 255 255 255 255 255 255 255 255 255 255 255 255 255 255 255 255 255 255 255 255 255 255 255 255 255 255 255 255 255 255 255 255 255 255 255 255 255 255 255 255 255 255 255 255 255 255 255 255 255 255 255 255 255 255 255 255 255 255 255 255 255 255 255 255 255 255 255 255 255 255 255 255 255 255 255 255 255 255 255 255 255 255 255 255 255 255 255 255 255 255 255 255 255 255 
255 255 255 255 255 255 255 255 255 255 255 255 255 255 255 255 255 255 255 255 255 255 255 255 255 255 255 255 255 255 152 120 32 152 120 32 88 48 0 88 48 0 88 48 0 255 255 255 255 255 255 255 255 255 255 255 255 255 255 255 255 255 255 255 255 255 255 255 255 255 255 255 255 255 255 255 255 255 255 255 255 255 255 255 255 255 255 255 255 255 255 255 255 255 255 255 255 255 255 255 255 255 255 255 255 255 255 255 255 255 255 255 255 255 255 255 255 255 255 255 255 255 255 255 255 255 255 255 255 255 255 255 255 255 255 255 255 255 255 255 255 255 255 255 255 255 255 255 255 255 255 255 255 255 255 255 255 255 255 255 255 255 255 255 255 255 255 255 255 255 255 255 255 255 255 255 255 255 255 255 255 255 255 255 255 255 255 255 255 255 255 255 
255 255 255 255 255 255 255 255 255 255 255 255 255 255 255 255 255 255 255 255 255 255 255 255 255 255 255 152 120 32 224 200 112 200 160 64 200 160 64 200 160 64 152 120 32 88 48 0 0 0 0 255 255 255 255 255 255 255 255 255 255 255 255 255 255 255 255 255 255 255 255 255 255 255 255 255 255 255 255 255 255 255 255 255 255 255 255 255 255 255 255 255 255 255 255 255 255 255 255 255 255 255 255 255 255 255 255 255 255 255 255 255 255 255 255 255 255 255 255 255 255 255 255 255 255 255 255 255 255 255 255 255 255 255 255 255 255 255 255 255 255 255 255 255 255 255 255 255 255 255 255 255 255 255 255 255 255 255 255 255 255 255 255 255 255 255 255 255 255 255 255 255 255 255 255 255 255 255 255 255 255 255 255 255 255 255 255 255 255 255 255 255 
255 255 255 255 255 255 255 255 255 255 255 255 255 255 255 255 255 255 255 255 255 255 255 255 88 48 0 224 200 112 224 200 112 224 200 112 200 160 64 200 160 64 200 160 64 152 120 32 152 120 32 0 0 0 255 255 255 255 255 255 255 255 255 255 255 255 255 255 255 255 255 255 255 255 255 255 255 255 255 255 255 255 255 255 255 255 255 255 255 255 255 255 255 255 255 255 255 255 255 255 255 255 255 255 255 255 255 255 255 255 255 255 255 255 255 255 255 255 255 255 255 255 255 255 255 255 255 255 255 255 255 255 255 255 255 255 255 255 255 255 255 255 255 255 255 255 255 255 255 255 255 255 255 255 255 255 255 255 255 255 255 255 255 255 255 255 255 255 255 255 255 255 255 255 255 255 255 255 255 255 255 255 255 255 255 255 255 255 255 255 255 255 
255 255 255 255 255 255 255 255 255 255 255 255 255 255 255 255 255 255 255 255 255 255 255 255 152 120 32 224 200 112 224 200 112 224 200 112 200 160 64 200 160 64 200 160 64 152 120 32 152 120 32 152 120 32 0 0 0 255 255 255 255 255 255 255 255 255 255 255 255 255 255 255 255 255 255 255 255 255 255 255 255 255 255 255 255 255 255 255 255 255 255 255 255 255 255 255 255 255 255 255 255 255 255 255 255 255 255 255 255 255 255 255 255 255 255 255 255 255 255 255 255 255 255 255 255 255 255 255 255 255 255 255 255 255 255 255 255 255 152 120 32 152 120 32 88 48 0 88 48 0 88 48 0 88 48 0 88 48 0 255 255 255 255 255 255 255 255 255 255 255 255 255 255 255 255 255 255 255 255 255 255 255 255 255 255 255 255 255 255 255 255 255 
255 255 255 255 255 255 255 255 255 255 255 255 255 255 255 255 255 255 255 255 255 152 120 32 200 160 64 224 200 112 224 200 112 200 160 64 200 160 64 200 160 64 200 160 64 152 120 32 152 120 32 152 120 32 88 48 0 255 255 255 255 255 255 255 255 255 255 255 255 255 255 255 255 255 255 255 255 255 255 255 255 255 255 255 255 255 255 255 255 255 255 255 255 255 255 255 255 255 255 255 255 255 255 255 255 255 255 255 255 255 255 255 255 255 255 255 255 255 255 255 255 255 255 255 255 255 255 255 255 255 255 255 255 255 255 152 120 32 224 200 112 224 200 112 224 200 112 200 160 64 200 160 64 200 160 64 200 160 64 0 0 0 255 255 255 255 255 255 255 255 255 255 255 255 255 255 255 255 255 255 255 255 255 255 255 255 255 255 255 255 255 255 
255 255 255 255 255 255 255 255 255 255 255 255 255 255 255 255 255 255 255 255 255 88 48 0 200 160 64 200 160 64 200 160 64 200 160 64 200 160 64 200 160 64 200 160 64 152 120 32 152 120 32 152 120 32 152 120 32 88 48 0 255 255 255 255 255 255 216 184 136 120 88 40 0 0 0 0 0 0 255 255 255 255 255 255 255 255 255 255 255 255 255 255 255 255 255 255 255 255 255 255 255 255 120 88 40 0 0 0 255 255 255 255 255 255 255 255 255 255 255 255 255 255 255 255 255 255 255 255 255 255 255 255 152 120 32 200 160 64 224 200 112 224 200 112 224 200 112 224 200 112 200 160 64 200 160 64 200 160 64 200 160 64 0 0 0 255 255 255 255 255 255 255 255 255 255 255 255 255 255 255 255 255 255 255 255 255 255 255 255 255 255 255 
255 255 255 255 255 255 255 255 255 255 255 255 255 255 255 255 255 255 255 255 255 88 48 0 200 160 64 200 160 64 200 160 64 200 160 64 200 160 64 200 160 64 152 120 32 152 120 32 152 120 32 152 120 32 152 120 32 88 48 0 255 255 255 255 255 255 216 184 136 248 248 208 248 248 208 248 224 176 0 0 0 255 255 255 255 255 255 255 255 255 255 255 255 255 255 255 255 255 255 120 88 40 248 248 208 0 0 0 255 255 255 255 255 255 255 255 255 255 255 255 255 255 255 255 255 255 255 255 255 255 255 255 88 48 0 200 160 64 200 160 64 224 200 112 224 200 112 224 200 112 200 160 64 200 160 64 200 160 64 200 160 64 200 160 64 88 48 0 255 255 255 255 255 255 255 255 255 255 255 255 255 255 255 255 255 255 255 255 255 255 255 255 
255 255 255 255 255 255 255 255 255 255 255 255 255 255 255 255 255 255 255 255 255 0 0 0 200 160 64 200 160 64 200 160 64 200 160 64 200 160 64 200 160 64 152 120 32 152 120 32 152 120 32 152 120 32 152 120 32 88 48 0 255 255 255 255 255 255 216 184 136 248 248 208 152 120 32 248 224 176 216 184 136 120 88 40 0 0 0 255 255 255 255 255 255 255 255 255 120 88 40 248 248 208 248 224 176 0 0 0 255 255 255 255 255 255 255 255 255 255 255 255 255 255 255 255 255 255 255 255 255 88 48 0 152 120 32 200 160 64 200 160 64 200 160 64 200 160 64 200 160 64 200 160 64 200 160 64 200 160 64 200 160 64 200 160 64 0 0 0 255 255 255 255 255 255 255 255 255 255 255 255 255 255 255 255 255 255 255 255 255 255 255 255 
255 255 255 255 255 255 255 255 255 255 255 255 255 255 255 255 255 255 255 255 255 0 0 0 152 120 32 200 160 64 200 160 64 200 160 64 200 160 64 152 120 32 152 120 32 88 48 0 152 120 32 152 120 32 88 48 0 255 255 255 255 255 255 255 255 255 120 88 40 248 224 176 200 160 64 152 120 32 216 184 136 120 88 40 248 248 208 0 0 0 255 255 255 120 88 40 248 248 208 248 224 176 216 184 136 0 0 0 255 255 255 120 88 40 0 0 0 255 255 255 255 255 255 255 255 255 255 255 255 88 48 0 152 120 32 200 160 64 200 160 64 152 120 32 152 120 32 200 160 64 200 160 64 200 160 64 200 160 64 200 160 64 200 160 64 0 0 0 255 255 255 255 255 255 255 255 255 255 255 255 255 255 255 255 255 255 255 255 255 255 255 255 
255 255 255 255 255 255 255 255 255 255 255 255 255 255 255 255 255 255 255 255 255 0 0 0 152 120 32 152 120 32 152 120 32 152 120 32 152 120 32 152 120 32 152 120 32 88 48 0 152 120 32 88 48 0 88 48 0 0 0 0 255 255 255 255 255 255 120 88 40 248 224 176 200 160 64 200 160 64 152 120 32 120 88 40 248 248 208 0 0 0 120 88 40 248 248 208 248 224 176 248 224 176 216 184 136 0 0 0 120 88 40 216 184 136 0 0 0 255 255 255 255 255 255 120 88 40 120 88 40 88 48 0 152 120 32 152 120 32 88 48 0 152 120 32 88 48 0 200 160 64 200 160 64 200 160 64 200 160 64 200 160 64 152 120 32 0 0 0 255 255 255 255 255 255 255 255 255 255 255 255 255 255 255 255 255 255 255 255 255 255 255 255 
255 255 255 255 255 255 255 255 255 255 255 255 255 255 255 255 255 255 255 255 255 255 255 255 0 0 0 152 120 32 152 120 32 152 120 32 152 120 32 152 120 32 88 48 0 152 120 32 88 48 0 0 0 0 0 0 0 0 0 0 255 255 255 255 255 255 120 88 40 248 224 176 200 160 64 200 160 64 120 88 40 248 248 208 248 248 208 0 0 0 248 248 208 248 224 176 248 224 176 216 184 136 216 184 136 0 0 0 216 184 136 120 88 40 248 248 208 120 88 40 120 88 40 248 248 208 248 224 176 88 48 0 88 48 0 152 120 32 88 48 0 88 48 0 152 120 32 152 120 32 200 160 64 200 160 64 200 160 64 152 120 32 152 120 32 0 0 0 255 255 255 255 255 255 255 255 255 255 255 255 255 255 255 255 255 255 255 255 255 255 255 255 
255 255 255 255 255 255 255 255 255 255 255 255 255 255 255 255 255 255 255 255 255 255 255 255 255 255 255 0 0 0 0 0 0 0 0 0 0 0 0 0 0 0 88 48 0 88 48 0 0 0 0 64 64 64 0 0 0 0 0 0 255 255 255 120 88 40 120 88 40 248 224 176 120 88 40 120 88 40 248 248 208 248 248 208 248 224 176 216 184 136 248 224 176 248 224 176 248 224 176 216 184 136 216 184 136 216 184 136 216 184 136 248 224 176 248 224 176 120 88 40 248 248 208 248 224 176 0 0 0 216 184 136 0 0 0 120 88 40 152 120 32 88 48 0 152 120 32 152 120 32 152 120 32 152 120 32 152 120 32 152 120 32 88 48 0 255 255 255 255 255 255 255 255 255 255 255 255 255 255 255 255 255 255 255 255 255 255 255 255 255 255 255 
255 255 255 255 255 255 255 255 255 255 255 255 255 255 255 255 255 255 255 255 255 255 255 255 255 255 255 255 255 255 255 255 255 255 255 255 255 255 255 0 0 0 64 64 64 64 64 64 120 120 120 64 64 64 0 0 0 0 0 0 255 255 255 120 88 40 120 88 40 248 224 176 120 88 40 248 224 176 248 224 176 248 224 176 248 224 176 248 224 176 248 224 176 248 224 176 248 224 176 248 224 176 216 184 136 216 184 136 216 184 136 216 184 136 152 120 32 248 248 208 248 224 176 0 0 0 152 120 32 216 184 136 0 0 0 88 48 0 88 48 0 88 48 0 152 120 32 152 120 32 152 120 32 152 120 32 152 120 32 152 120 32 0 0 0 255 255 255 255 255 255 255 255 255 255 255 255 255 255 255 255 255 255 255 255 255 255 255 255 255 255 255 
255 255 255 255 255 255 255 255 255 255 255 255 255 255 255 255 255 255 255 255 255 255 255 255 255 255 255 255 255 255 255 255 255 255 255 255 255 255 255 0 0 0 64 64 64 120 120 120 120 120 120 0 0 0 0 0 0 255 255 255 255 255 255 120 88 40 248 224 176 216 184 136 216 184 136 248 224 176 248 224 176 248 224 176 248 224 176 248 224 176 248 224 176 248 224 176 248 224 176 248 224 176 216 184 136 120 88 40 216 184 136 120 88 40 216 184 136 248 224 176 0 0 0 152 120 32 152 120 32 216 184 136 0 0 0 120 120 120 120 120 120 0 0 0 88 48 0 152 120 32 152 120 32 152 120 32 152 120 32 0 0 0 255 255 255 255 255 255 255 255 255 255 255 255 255 255 255 255 255 255 255 255 255 255 255 255 255 255 255 255 255 255 
255 255 255 255 255 255 255 255 255 255 255 255 255 255 255 255 255 255 255 255 255 255 255 255 255 255 255 255 255 255 255 255 255 255 255 255 255 255 255 255 255 255 0 0 0 0 0 0 0 0 0 0 0 0 88 48 0 255 255 255 120 88 40 248 224 176 248 224 176 248 224 176 248 224 176 248 224 176 248 224 176 248 224 176 248 224 176 248 224 176 248 224 176 248 224 176 248 224 176 248 224 176 120 88 40 152 120 32 216 184 136 152 120 32 120 88 40 216 184 136 152 120 32 152 120 32 152 120 32 216 184 136 0 0 0 120 120 120 64 64 64 0 0 0 0 0 0 88 48 0 88 48 0 88 48 0 88 48 0 255 255 255 255 255 255 255 255 255 255 255 255 255 255 255 255 255 255 255 255 255 255 255 255 255 255 255 255 255 255 255 255 255 
255 255 255 255 255 255 255 255 255 255 255 255 255 255 255 255 255 255 255 255 255 255 255 255 255 255 255 255 255 255 255 255 255 255 255 255 255 255 255 255 255 255 88 48 0 152 120 32 152 120 32 152 120 32 152 120 32 120 88 40 120 88 40 216 184 136 216 184 136 248 248 208 248 224 176 248 224 176 248 224 176 248 224 176 248 224 176 248 224 176 248 224 176 248 224 176 216 184 136 248 224 176 248 224 176 216 184 136 216 184 136 216 184 136 216 184 136 216 184 136 152 120 32 152 120 32 152 120 32 216 184 136 88 48 0 0 0 0 0 0 0 0 0 0 0 0 0 0 0 0 0 0 0 255 255 255 255 255 255 255 255 255 255 255 255 255 255 255 255 255 255 255 255 255 255 255 255 255 255 255 255 255 255 255 255 255 255 255 255 255 255 255 
255 255 255 255 255 255 255 255 255 255 255 255 255 255 255 255 255 255 255 255 255 255 255 255 255 255 255 255 255 255 255 255 255 255 255 255 255 255 255 255 255 255 88 48 0 200 160 64 120 88 40 120 88 40 120 88 40 120 88 40 248 224 176 216 184 136 120 88 40 216 184 136 248 248 208 248 224 176 248 224 176 248 224 176 248 224 176 248 224 176 248 224 176 248 224 176 248 224 176 248 224 176 120 88 40 152 120 32 248 224 176 152 120 32 120 88 40 216 184 136 216 184 136 216 184 136 152 120 32 216 184 136 88 48 0 152 120 32 152 120 32 0 0 0 0 0 0 0 0 0 255 255 255 255 255 255 255 255 255 255 255 255 255 255 255 255 255 255 255 255 255 255 255 255 255 255 255 255 255 255 255 255 255 255 255 255 255 255 255 255 255 255 
255 255 255 255 255 255 255 255 255 255 255 255 255 255 255 255 255 255 255 255 255 255 255 255 255 255 255 255 255 255 255 255 255 255 255 255 255 255 255 255 255 255 88 48 0 200 160 64 120 88 40 248 224 176 248 224 176 248 224 176 248 224 176 216 184 136 248 248 248 0 0 0 216 184 136 216 184 136 216 184 136 216 184 136 248 224 176 248 224 176 248 224 176 120 88 40 120 88 40 248 224 176 248 224 176 120 88 40 248 224 176 120 88 40 216 184 136 216 184 136 216 184 136 216 184 136 216 184 136 216 184 136 88 48 0 200 160 64 152 120 32 152 120 32 0 0 0 255 255 255 255 255 255 255 255 255 255 255 255 255 255 255 255 255 255 255 255 255 255 255 255 255 255 255 255 255 255 255 255 255 255 255 255 255 255 255 255 255 255 255 255 255 
255 255 255 255 255 255 255 255 255 255 255 255 255 255 255 255 255 255 255 255 255 255 255 255 255 255 255 255 255 255 255 255 255 255 255 255 255 255 255 255 255 255 255 255 255 88 48 0 0 0 0 0 0 0 216 184 136 248 224 176 248 224 176 120 88 40 248 248 248 248 248 248 0 0 0 216 184 136 120 88 40 216 184 136 216 184 136 216 184 136 120 88 40 248 248 208 248 248 208 248 248 208 248 224 176 248 224 176 216 184 136 216 184 136 216 184 136 216 184 136 216 184 136 216 184 136 216 184 136 216 184 136 88 48 0 200 160 64 200 160 64 152 120 32 0 0 0 255 255 255 255 255 255 255 255 255 255 255 255 255 255 255 255 255 255 255 255 255 255 255 255 255 255 255 255 255 255 255 255 255 255 255 255 255 255 255 255 255 255 255 255 255 
255 255 255 255 255 255 255 255 255 255 255 255 255 255 255 255 255 255 255 255 255 255 255 255 255 255 255 255 255 255 255 255 255 255 255 255 255 255 255 255 255 255 255 255 255 255 255 255 88 48 0 152 120 32 0 0 0 216 184 136 248 224 176 120 88 40 248 248 248 248 248 248 248 248 248 0 0 0 0 0 0 216 184 136 216 184 136 120 88 40 248 248 208 248 224 176 248 224 176 248 224 176 248 224 176 248 224 176 248 224 176 216 184 136 216 184 136 216 184 136 216 184 136 216 184 136 216 184 136 88 48 0 200 160 64 200 160 64 200 160 64 200 160 64 0 0 0 255 255 255 255 255 255 255 255 255 255 255 255 255 255 255 255 255 255 255 255 255 255 255 255 255 255 255 255 255 255 255 255 255 255 255 255 255 255 255 255 255 255 255 255 255 
255 255 255 255 255 255 255 255 255 255 255 255 255 255 255 255 255 255 255 255 255 255 255 255 255 255 255 255 255 255 255 255 255 255 255 255 255 255 255 255 255 255 255 255 255 255 255 255 255 255 255 120 88 40 248 224 176 248 224 176 248 224 176 120 88 40 120 88 40 248 248 248 0 0 0 248 248 248 120 88 40 216 184 136 216 184 136 216 184 136 0 0 0 0 0 0 0 0 0 0 0 0 0 0 0 0 0 0 0 0 0 120 88 40 216 184 136 216 184 136 120 88 40 120 88 40 216 184 136 88 48 0 200 160 64 200 160 64 152 120 32 0 0 0 255 255 255 255 255 255 255 255 255 255 255 255 255 255 255 255 255 255 255 255 255 255 255 255 255 255 255 255 255 255 255 255 255 255 255 255 255 255 255 255 255 255 255 255 255 255 255 255 
255 255 255 255 255 255 255 255 255 255 255 255 255 255 255 255 255 255 255 255 255 255 255 255 255 255 255 255 255 255 255 255 255 255 255 255 255 255 255 255 255 255 255 255 255 255 255 255 120 88 40 216 184 136 216 184 136 248 224 176 248 224 176 248 224 176 216 184 136 120 88 40 120 88 40 120 88 40 120 88 40 120 88 40 120 88 40 216 184 136 120 88 40 216 216 216 216 216 216 216 216 216 216 216 216 216 216 216 120 88 40 216 184 136 216 184 136 216 184 136 120 88 40 216 184 136 88 48 0 200 160 64 200 160 64 152 120 32 152 120 32 0 0 0 255 255 255 255 255 255 255 255 255 255 255 255 255 255 255 255 255 255 255 255 255 255 255 255 255 255 255 255 255 255 255 255 255 255 255 255 255 255 255 255 255 255 255 255 255 255 255 255 
255 255 255 255 255 255 255 255 255 255 255 255 255 255 255 255 255 255 255 255 255 255 255 255 255 255 255 255 255 255 255 255 255 255 255 255 255 255 255 255 255 255 255 255 255 255 255 255 120 88 40 120 88 40 216 184 136 216 184 136 248 224 176 248 224 176 248 224 176 216 184 136 120 88 40 248 144 88 248 144 88 248 144 88 248 144 88 120 88 40 120 88 40 248 248 248 0 0 0 248 248 248 248 248 248 248 248 248 120 88 40 216 184 136 216 184 136 216 184 136 120 88 40 120 88 40 200 160 64 200 160 64 152 120 32 152 120 32 0 0 0 88 48 0 120 88 40 255 255 255 88 48 0 0 0 0 0 0 0 255 255 255 255 255 255 255 255 255 255 255 255 255 255 255 255 255 255 255 255 255 255 255 255 255 255 255 255 255 255 255 255 255 
255 255 255 255 255 255 255 255 255 255 255 255 255 255 255 255 255 255 255 255 255 255 255 255 255 255 255 255 255 255 255 255 255 255 255 255 255 255 255 255 255 255 255 255 255 0 0 0 248 224 176 248 224 176 248 224 176 248 224 176 248 224 176 248 224 176 248 224 176 120 88 40 248 144 88 0 0 0 248 144 88 248 144 88 248 144 88 248 144 88 120 88 40 120 88 40 120 88 40 120 88 40 248 248 248 120 88 40 216 184 136 216 184 136 216 184 136 216 184 136 216 184 136 120 88 40 200 160 64 152 120 32 152 120 32 152 120 32 88 48 0 216 184 136 120 88 40 88 48 0 224 200 112 200 160 64 152 120 32 88 48 0 255 255 255 255 255 255 255 255 255 255 255 255 255 255 255 255 255 255 255 255 255 255 255 255 255 255 255 255 255 255 
255 255 255 255 255 255 255 255 255 255 255 255 255 255 255 255 255 255 255 255 255 255 255 255 255 255 255 255 255 255 255 255 255 255 255 255 255 255 255 255 255 255 255 255 255 255 255 255 0 0 0 216 184 136 216 184 136 248 224 176 248 224 176 248 224 176 248 224 176 120 88 40 248 144 88 0 0 0 248 144 88 248 144 88 0 0 0 248 144 88 184 72 48 0 0 0 216 184 136 216 184 136 216 184 136 216 184 136 216 184 136 216 184 136 216 184 136 216 184 136 216 184 136 120 88 40 200 160 64 216 184 136 152 120 32 120 88 40 216 184 136 216 184 136 88 48 0 224 200 112 224 200 112 200 160 64 152 120 32 0 0 0 255 255 255 255 255 255 255 255 255 255 255 255 255 255 255 255 255 255 255 255 255 255 255 255 255 255 255 255 255 255 
255 255 255 255 255 255 255 255 255 255 255 255 255 255 255 255 255 255 255 255 255 255 255 255 255 255 255 255 255 255 255 255 255 255 255 255 255 255 255 255 255 255 255 255 255 255 255 255 255 255 255 0 0 0 216 184 136 248 224 176 248 224 176 248 224 176 248 224 176 120 88 40 184 72 48 248 144 88 248 144 88 248 144 88 0 0 0 248 144 88 184 72 48 0 0 0 216 184 136 216 184 136 216 184 136 216 184 136 216 184 136 216 184 136 216 184 136 216 184 136 216 184 136 216 184 136 120 88 40 216 184 136 120 88 40 216 184 136 216 184 136 216 184 136 88 48 0 200 160 64 200 160 64 152 120 32 152 120 32 0 0 0 0 0 0 0 0 0 255 255 255 255 255 255 255 255 255 255 255 255 255 255 255 255 255 255 255 255 255 255 255 255 
255 255 255 255 255 255 255 255 255 255 255 255 255 255 255 255 255 255 255 255 255 255 255 255 255 255 255 255 255 255 255 255 255 255 255 255 255 255 255 255 255 255 255 255 255 255 255 255 120 88 40 248 224 176 248 224 176 248 224 176 248 224 176 248 224 176 248 224 176 248 224 176 0 0 0 184 72 48 184 72 48 184 72 48 184 72 48 184 72 48 184 72 48 0 0 0 216 184 136 216 184 136 216 184 136 216 184 136 216 184 136 216 184 136 216 184 136 216 184 136 216 184 136 216 184 136 216 184 136 216 184 136 216 184 136 216 184 136 216 184 136 88 48 0 200 160 64 200 160 64 152 120 32 152 120 32 152 120 32 0 0 0 152 120 32 152 120 32 88 48 0 255 255 255 255 255 255 255 255 255 255 255 255 255 255 255 255 255 255 255 255 255 
255 255 255 255 255 255 255 255 255 255 255 255 255 255 255 255 255 255 255 255 255 255 255 255 255 255 255 255 255 255 255 255 255 255 255 255 255 255 255 255 255 255 255 255 255 0 0 0 248 224 176 248 224 176 248 224 176 248 224 176 248 224 176 248 224 176 248 224 176 248 224 176 248 224 176 0 0 0 0 0 0 184 72 48 184 72 48 184 72 48 0 0 0 216 184 136 216 184 136 216 184 136 216 184 136 216 184 136 216 184 136 216 184 136 216 184 136 216 184 136 216 184 136 216 184 136 216 184 136 216 184 136 0 0 0 0 0 0 0 0 0 88 48 0 200 160 64 200 160 64 152 120 32 152 120 32 88 48 0 152 120 32 152 120 32 152 120 32 0 0 0 255 255 255 255 255 255 255 255 255 255 255 255 255 255 255 255 255 255 255 255 255 
255 255 255 255 255 255 255 255 255 255 255 255 255 255 255 255 255 255 255 255 255 255 255 255 255 255 255 255 255 255 255 255 255 255 255 255 255 255 255 255 255 255 255 255 255 255 255 255 0 0 0 216 184 136 216 184 136 216 184 136 248 224 176 248 224 176 248 224 176 248 224 176 248 224 176 216 184 136 216 184 136 0 0 0 0 0 0 0 0 0 216 184 136 216 184 136 216 184 136 216 184 136 216 184 136 216 184 136 216 184 136 216 184 136 216 184 136 216 184 136 216 184 136 88 48 0 88 48 0 0 0 0 64 64 64 64 64 64 88 48 0 200 160 64 200 160 64 200 160 64 152 120 32 88 48 0 152 120 32 152 120 32 152 120 32 152 120 32 0 0 0 255 255 255 255 255 255 255 255 255 255 255 255 255 255 255 255 255 255 255 255 255 
255 255 255 255 255 255 255 255 255 255 255 255 255 255 255 255 255 255 255 255 255 255 255 255 255 255 255 255 255 255 255 255 255 255 255 255 255 255 255 255 255 255 255 255 255 255 255 255 255 255 255 0 0 0 0 0 0 216 184 136 248 224 176 248 224 176 248 224 176 248 224 176 248 224 176 248 224 176 248 224 176 216 184 136 216 184 136 216 184 136 216 184 136 216 184 136 216 184 136 216 184 136 216 184 136 216 184 136 216 184 136 216 184 136 216 184 136 88 48 0 88 48 0 200 160 64 200 160 64 64 64 64 64 64 64 0 0 0 88 48 0 200 160 64 200 160 64 152 120 32 152 120 32 152 120 32 152 120 32 152 120 32 152 120 32 0 0 0 255 255 255 255 255 255 255 255 255 255 255 255 255 255 255 255 255 255 255 255 255 255 255 255 
255 255 255 255 255 255 255 255 255 255 255 255 255 255 255 255 255 255 255 255 255 255 255 255 255 255 255 255 255 255 255 255 255 255 255 255 255 255 255 255 255 255 255 255 255 255 255 255 255 255 255 255 255 255 0 0 0 248 224 176 248 224 176 248 224 176 248 224 176 248 224 176 248 224 176 248 224 176 248 224 176 248 224 176 248 224 176 248 224 176 248 224 176 216 184 136 216 184 136 216 184 136 216 184 136 216 184 136 216 184 136 216 184 136 88 48 0 88 48 0 200 160 64 200 160 64 88 48 0 120 120 120 120 120 120 0 0 0 88 48 0 200 160 64 200 160 64 152 120 32 152 120 32 152 120 32 152 120 32 88 48 0 0 0 0 255 255 255 255 255 255 255 255 255 255 255 255 255 255 255 255 255 255 255 255 255 255 255 255 255 255 255 
255 255 255 255 255 255 255 255 255 255 255 255 255 255 255 255 255 255 255 255 255 255 255 255 255 255 255 255 255 255 255 255 255 255 255 255 255 255 255 255 255 255 255 255 255 255 255 255 255 255 255 0 0 0 248 224 176 248 224 176 216 184 136 248 224 176 248 224 176 248 224 176 248 224 176 248 224 176 248 224 176 248 224 176 248 224 176 248 224 176 248 224 176 248 224 176 216 184 136 216 184 136 216 184 136 216 184 136 216 184 136 216 184 136 88 48 0 200 160 64 200 160 64 152 120 32 88 48 0 120 120 120 120 120 120 0 0 0 88 48 0 200 160 64 200 160 64 152 120 32 152 120 32 152 120 32 152 120 32 0 0 0 255 255 255 255 255 255 255 255 255 255 255 255 255 255 255 255 255 255 255 255 255 255 255 255 255 255 255 255 255 255 
255 255 255 255 255 255 255 255 255 255 255 255 255 255 255 255 255 255 255 255 255 255 255 255 255 255 255 255 255 255 255 255 255 255 255 255 255 255 255 255 255 255 255 255 255 255 255 255 0 0 0 0 0 0 0 0 0 216 184 136 248 224 176 248 224 176 216 184 136 248 224 176 248 224 176 248 224 176 248 224 176 216 184 136 216 184 136 216 184 136 120 88 40 248 224 176 120 88 40 248 224 176 248 224 176 216 184 136 216 184 136 216 184 136 88 48 0 152 120 32 152 120 32 88 48 0 88 48 0 120 120 120 0 0 0 88 48 0 200 160 64 200 160 64 200 160 64 152 120 32 152 120 32 152 120 32 88 48 0 255 255 255 255 255 255 255 255 255 255 255 255 255 255 255 255 255 255 255 255 255 255 255 255 255 255 255 255 255 255 255 255 255 
255 255 255 255 255 255 255 255 255 255 255 255 255 255 255 255 255 255 255 255 255 255 255 255 255 255 255 255 255 255 255 255 255 255 255 255 255 255 255 255 255 255 255 255 255 255 255 255 255 255 255 255 255 255 255 255 255 120 88 40 248 224 176 216 184 136 216 184 136 248 224 176 248 224 176 120 88 40 248 224 176 120 88 40 216 184 136 216 184 136 216 184 136 120 88 40 248 224 176 120 88 40 248 224 176 0 0 0 216 184 136 216 184 136 88 48 0 152 120 32 152 120 32 152 120 32 88 48 0 0 0 0 0 0 0 88 48 0 200 160 64 200 160 64 152 120 32 152 120 32 152 120 32 152 120 32 0 0 0 255 255 255 255 255 255 255 255 255 255 255 255 255 255 255 255 255 255 255 255 255 255 255 255 255 255 255 255 255 255 255 255 255 
255 255 255 255 255 255 255 255 255 255 255 255 255 255 255 255 255 255 255 255 255 255 255 255 255 255 255 255 255 255 255 255 255 255 255 255 255 255 255 255 255 255 255 255 255 255 255 255 255 255 255 255 255 255 255 255 255 120 88 40 248 224 176 216 184 136 0 0 0 248 224 176 248 224 176 248 224 176 120 88 40 216 184 136 216 184 136 216 184 136 216 184 136 216 184 136 120 88 40 216 184 136 0 0 0 216 184 136 216 184 136 216 184 136 216 184 136 88 48 0 88 48 0 88 48 0 216 184 136 0 0 0 0 0 0 88 48 0 200 160 64 200 160 64 152 120 32 152 120 32 152 120 32 152 120 32 0 0 0 255 255 255 255 255 255 255 255 255 255 255 255 255 255 255 255 255 255 255 255 255 255 255 255 255 255 255 255 255 255 255 255 255 
255 255 255 255 255 255 255 255 255 255 255 255 255 255 255 255 255 255 255 255 255 255 255 255 255 255 255 255 255 255 255 255 255 255 255 255 255 255 255 255 255 255 255 255 255 255 255 255 255 255 255 255 255 255 255 255 255 120 88 40 216 184 136 0 0 0 0 0 0 248 224 176 248 224 176 216 184 136 216 184 136 216 184 136 216 184 136 216 184 136 216 184 136 216 184 136 216 184 136 216 184 136 216 184 136 216 184 136 216 184 136 216 184 136 0 0 0 248 224 176 216 184 136 216 184 136 216 184 136 120 88 40 120 88 40 88 48 0 200 160 64 200 160 64 152 120 32 152 120 32 152 120 32 0 0 0 255 255 255 255 255 255 255 255 255 255 255 255 255 255 255 255 255 255 255 255 255 255 255 255 255 255 255 255 255 255 255 255 255 255 255 255 
255 255 255 255 255 255 255 255 255 255 255 255 255 255 255 255 255 255 255 255 255 255 255 255 255 255 255 255 255 255 255 255 255 255 255 255 255 255 255 255 255 255 255 255 255 255 255 255 255 255 255 255 255 255 255 255 255 255 255 255 0 0 0 255 255 255 255 255 255 120 88 40 248 224 176 248 224 176 0 0 0 248 224 176 216 184 136 216 184 136 216 184 136 0 0 0 216 184 136 216 184 136 216 184 136 0 0 0 216 184 136 120 88 40 0 0 0 216 184 136 120 88 40 0 0 0 0 0 0 255 255 255 255 255 255 88 48 0 200 160 64 200 160 64 152 120 32 152 120 32 152 120 32 0 0 0 255 255 255 255 255 255 255 255 255 255 255 255 255 255 255 255 255 255 255 255 255 255 255 255 255 255 255 255 255 255 255 255 255 255 255 255 
255 255 255 255 255 255 255 255 255 255 255 255 255 255 255 255 255 255 255 255 255 255 255 255 255 255 255 255 255 255 255 255 255 255 255 255 255 255 255 255 255 255 255 255 255 255 255 255 255 255 255 255 255 255 255 255 255 255 255 255 255 255 255 255 255 255 255 255 255 120 88 40 248 224 176 0 0 0 255 255 255 120 88 40 120 88 40 216 184 136 0 0 0 152 120 32 0 0 0 248 224 176 216 184 136 0 0 0 0 0 0 255 255 255 255 255 255 120 88 40 0 0 0 255 255 255 255 255 255 255 255 255 255 255 255 255 255 255 88 48 0 200 160 64 152 120 32 152 120 32 88 48 0 0 0 0 255 255 255 255 255 255 255 255 255 255 255 255 255 255 255 255 255 255 255 255 255 255 255 255 255 255 255 255 255 255 255 255 255 255 255 255 
255 255 255 255 255 255 255 255 255 255 255 255 255 255 255 255 255 255 255 255 255 255 255 255 255 255 255 255 255 255 255 255 255 255 255 255 255 255 255 255 255 255 255 255 255 255 255 255 255 255 255 255 255 255 255 255 255 255 255 255 255 255 255 255 255 255 255 255 255 120 88 40 0 0 0 255 255 255 255 255 255 255 255 255 88 48 0 0 0 0 152 120 32 152 120 32 152 120 32 0 0 0 88 48 0 255 255 255 255 255 255 255 255 255 255 255 255 255 255 255 0 0 0 255 255 255 255 255 255 255 255 255 255 255 255 255 255 255 255 255 255 88 48 0 0 0 0 0 0 0 0 0 0 255 255 255 255 255 255 255 255 255 255 255 255 255 255 255 255 255 255 255 255 255 255 255 255 255 255 255 255 255 255 255 255 255 255 255 255 255 255 255 
255 255 255 255 255 255 255 255 255 255 255 255 255 255 255 255 255 255 255 255 255 255 255 255 255 255 255 255 255 255 255 255 255 255 255 255 255 255 255 255 255 255 255 255 255 255 255 255 255 255 255 255 255 255 255 255 255 255 255 255 255 255 255 255 255 255 255 255 255 255 255 255 255 255 255 255 255 255 255 255 255 255 255 255 88 48 0 152 120 32 152 120 32 152 120 32 0 0 0 0 0 0 0 0 0 0 0 0 88 48 0 255 255 255 255 255 255 255 255 255 255 255 255 255 255 255 255 255 255 255 255 255 255 255 255 255 255 255 255 255 255 255 255 255 255 255 255 255 255 255 255 255 255 255 255 255 255 255 255 255 255 255 255 255 255 255 255 255 255 255 255 255 255 255 255 255 255 255 255 255 255 255 255 255 255 255 255 255 255 255 255 255 
255 255 255 255 255 255 255 255 255 255 255 255 255 255 255 255 255 255 255 255 255 255 255 255 255 255 255 255 255 255 255 255 255 255 255 255 255 255 255 255 255 255 255 255 255 255 255 255 255 255 255 255 255 255 255 255 255 255 255 255 255 255 255 255 255 255 255 255 255 255 255 255 255 255 255 255 255 255 255 255 255 255 255 255 255 255 255 0 0 0 120 120 120 64 64 64 64 64 64 0 0 0 0 0 0 0 0 0 152 120 32 0 0 0 255 255 255 255 255 255 255 255 255 255 255 255 255 255 255 255 255 255 255 255 255 255 255 255 255 255 255 255 255 255 255 255 255 255 255 255 255 255 255 255 255 255 255 255 255 255 255 255 255 255 255 255 255 255 255 255 255 255 255 255 255 255 255 255 255 255 255 255 255 255 255 255 255 255 255 255 255 255 
255 255 255 255 255 255 255 255 255 255 255 255 255 255 255 255 255 255 255 255 255 255 255 255 255 255 255 255 255 255 255 255 255 255 255 255 255 255 255 255 255 255 255 255 255 255 255 255 255 255 255 255 255 255 255 255 255 255 255 255 255 255 255 255 255 255 255 255 255 255 255 255 255 255 255 255 255 255 255 255 255 255 255 255 255 255 255 0 0 0 120 120 120 120 120 120 64 64 64 0 0 0 0 0 0 152 120 32 152 120 32 0 0 0 255 255 255 255 255 255 255 255 255 255 255 255 255 255 255 255 255 255 255 255 255 255 255 255 255 255 255 255 255 255 255 255 255 255 255 255 255 255 255 255 255 255 255 255 255 255 255 255 255 255 255 255 255 255 255 255 255 255 255 255 255 255 255 255 255 255 255 255 255 255 255 255 255 255 255 255 255 255 
255 255 255 255 255 255 255 255 255 255 255 255 255 255 255 255 255 255 255 255 255 255 255 255 255 255 255 255 255 255 255 255 255 255 255 255 255 255 255 255 255 255 255 255 255 255 255 255 255 255 255 255 255 255 255 255 255 255 255 255 255 255 255 255 255 255 255 255 255 255 255 255 255 255 255 255 255 255 255 255 255 255 255 255 88 48 0 200 160 64 0 0 0 0 0 0 0 0 0 0 0 0 200 160 64 152 120 32 152 120 32 0 0 0 255 255 255 255 255 255 255 255 255 255 255 255 255 255 255 255 255 255 255 255 255 255 255 255 255 255 255 255 255 255 255 255 255 255 255 255 255 255 255 255 255 255 255 255 255 255 255 255 255 255 255 255 255 255 255 255 255 255 255 255 255 255 255 255 255 255 255 255 255 255 255 255 255 255 255 255 255 255 
255 255 255 255 255 255 255 255 255 255 255 255 255 255 255 255 255 255 255 255 255 255 255 255 255 255 255 255 255 255 255 255 255 255 255 255 255 255 255 255 255 255 255 255 255 255 255 255 255 255 255 255 255 255 255 255 255 255 255 255 255 255 255 255 255 255 255 255 255 255 255 255 255 255 255 255 255 255 88 48 0 88 48 0 224 200 112 224 200 112 200 160 64 200 160 64 200 160 64 200 160 64 152 120 32 152 120 32 0 0 0 255 255 255 255 255 255 255 255 255 255 255 255 255 255 255 255 255 255 255 255 255 255 255 255 255 255 255 255 255 255 255 255 255 255 255 255 255 255 255 255 255 255 255 255 255 255 255 255 255 255 255 255 255 255 255 255 255 255 255 255 255 255 255 255 255 255 255 255 255 255 255 255 255 255 255 255 255 255 255 255 255 
255 255 255 255 255 255 255 255 255 255 255 255 255 255 255 255 255 255 255 255 255 255 255 255 255 255 255 255 255 255 255 255 255 255 255 255 255 255 255 255 255 255 255 255 255 255 255 255 255 255 255 255 255 255 255 255 255 255 255 255 255 255 255 255 255 255 255 255 255 255 255 255 255 255 255 88 48 0 224 200 112 200 160 64 152 120 32 88 48 0 224 200 112 200 160 64 200 160 64 152 120 32 152 120 32 0 0 0 255 255 255 255 255 255 255 255 255 255 255 255 255 255 255 255 255 255 255 255 255 255 255 255 255 255 255 255 255 255 255 255 255 255 255 255 255 255 255 255 255 255 255 255 255 255 255 255 255 255 255 255 255 255 255 255 255 255 255 255 255 255 255 255 255 255 255 255 255 255 255 255 255 255 255 255 255 255 255 255 255 255 255 255 
255 255 255 255 255 255 255 255 255 255 255 255 255 255 255 255 255 255 255 255 255 255 255 255 255 255 255 255 255 255 255 255 255 255 255 255 255 255 255 255 255 255 255 255 255 255 255 255 255 255 255 255 255 255 255 255 255 255 255 255 255 255 255 255 255 255 255 255 255 255 255 255 255 255 255 88 48 0 200 160 64 200 160 64 88 48 0 224 200 112 224 200 112 200 160 64 200 160 64 152 120 32 0 0 0 255 255 255 255 255 255 255 255 255 255 255 255 255 255 255 255 255 255 255 255 255 255 255 255 255 255 255 255 255 255 255 255 255 255 255 255 255 255 255 255 255 255 255 255 255 255 255 255 255 255 255 255 255 255 255 255 255 255 255 255 255 255 255 255 255 255 255 255 255 255 255 255 255 255 255 255 255 255 255 255 255 255 255 255 255 255 255 
255 255 255 255 255 255 255 255 255 255 255 255 255 255 255 255 255 255 255 255 255 255 255 255 255 255 255 255 255 255 255 255 255 255 255 255 255 255 255 255 255 255 255 255 255 255 255 255 255 255 255 255 255 255 255 255 255 255 255 255 255 255 255 255 255 255 255 255 255 255 255 255 255 255 255 88 48 0 152 120 32 152 120 32 0 0 0 200 160 64 200 160 64 200 160 64 152 120 32 152 120 32 0 0 0 255 255 255 255 255 255 255 255 255 255 255 255 255 255 255 255 255 255 255 255 255 255 255 255 255 255 255 255 255 255 255 255 255 255 255 255 255 255 255 255 255 255 255 255 255 255 255 255 255 255 255 255 255 255 255 255 255 255 255 255 255 255 255 255 255 255 255 255 255 255 255 255 255 255 255 255 255 255 255 255 255 255 255 255 255 255 255 
255 255 255 255 255 255 255 255 255 255 255 255 255 255 255 255 255 255 255 255 255 255 255 255 255 255 255 255 255 255 255 255 255 255 255 255 255 255 255 255 255 255 255 255 255 255 255 255 255 255 255 255 255 255 255 255 255 255 255 255 255 255 255 255 255 255 255 255 255 255 255 255 255 255 255 255 255 255 0 0 0 0 0 0 0 0 0 152 120 32 152 120 32 152 120 32 152 120 32 0 0 0 255 255 255 255 255 255 255 255 255 255 255 255 255 255 255 255 255 255 255 255 255 255 255 255 255 255 255 255 255 255 255 255 255 255 255 255 255 255 255 255 255 255 255 255 255 255 255 255 255 255 255 255 255 255 255 255 255 255 255 255 255 255 255 255 255 255 255 255 255 255 255 255 255 255 255 255 255 255 255 255 255 255 255 255 255 255 255 255 255 255 
255 255 255 255 255 255 255 255 255 255 255 255 255 255 255 255 255 255 255 255 255 255 255 255 255 255 255 255 255 255 255 255 255 255 255 255 255 255 255 255 255 255 255 255 255 255 255 255 255 255 255 255 255 255 255 255 255 255 255 255 255 255 255 255 255 255 255 255 255 255 255 255 255 255 255 255 255 255 255 255 255 255 255 255 255 255 255 0 0 0 0 0 0 0 0 0 0 0 0 255 255 255 255 255 255 255 255 255 255 255 255 255 255 255 255 255 255 255 255 255 255 255 255 255 255 255 255 255 255 255 255 255 255 255 255 255 255 255 255 255 255 255 255 255 255 255 255 255 255 255 255 255 255 255 255 255 255 255 255 255 255 255 255 255 255 255 255 255 255 255 255 255 255 255 255 255 255 255 255 255 255 255 255 255 255 255 255 255 255 255 255 255 
255 255 255 255 255 255 255 255 255 255 255 255 255 255 255 255 255 255 255 255 255 255 255 255 255 255 255 255 255 255 255 255 255 255 255 255 255 255 255 255 255 255 255 255 255 255 255 255 255 255 255 255 255 255 255 255 255 255 255 255 255 255 255 255 255 255 255 255 255 255 255 255 255 255 255 255 255 255 255 255 255 255 255 255 255 255 255 255 255 255 255 255 255 255 255 255 255 255 255 255 255 255 255 255 255 255 255 255 255 255 255 255 255 255 255 255 255 255 255 255 255 255 255 255 255 255 255 255 255 255 255 255 255 255 255 255 255 255 255 255 255 255 255 255 255 255 255 255 255 255 255 255 255 255 255 255 255 255 255 255 255 255 255 255 255 255 255 255 255 255 255 255 255 255 255 255 255 255 255 255 255 255 255 255 255 255 255 255 255 255 255 255 
255 255 255 255 255 255 255 255 255 255 255 255 255 255 255 255 255 255 255 255 255 255 255 255 255 255 255 255 255 255 255 255 255 255 255 255 255 255 255 255 255 255 255 255 255 255 255 255 255 255 255 255 255 255 255 255 255 255 255 255 255 255 255 255 255 255 255 255 255 255 255 255 255 255 255 255 255 255 255 255 255 255 255 255 255 255 255 255 255 255 255 255 255 255 255 255 255 255 255 255 255 255 255 255 255 255 255 255 255 255 255 255 255 255 255 255 255 255 255 255 255 255 255 255 255 255 255 255 255 255 255 255 255 255 255 255 255 255 255 255 255 255 255 255 255 255 255 255 255 255 255 255 255 255 255 255 255 255 255 255 255 255 255 255 255 255 255 255 255 255 255 255 255 255 255 255 255 255 255 255 255 255 255 255 255 255 255 255 255 255 255 255 
255 255 255 255 255 255 255 255 255 255 255 255 255 255 255 255 255 255 255 255 255 255 255 255 255 255 255 255 255 255 255 255 255 255 255 255 255 255 255 255 255 255 255 255 255 255 255 255 255 255 255 255 255 255 255 255 255 255 255 255 255 255 255 255 255 255 255 255 255 255 255 255 255 255 255 255 255 255 255 255 255 255 255 255 255 255 255 255 255 255 255 255 255 255 255 255 255 255 255 255 255 255 255 255 255 255 255 255 255 255 255 255 255 255 255 255 255 255 255 255 255 255 255 255 255 255 255 255 255 255 255 255 255 255 255 255 255 255 255 255 255 255 255 255 255 255 255 255 255 255 255 255 255 255 255 255 255 255 255 255 255 255 255 255 255 255 255 255 255 255 255 255 255 255 255 255 255 255 255 255 255 255 255 255 255 255 255 255 255 255 255 255 
255 255 255 255 255 255 255 255 255 255 255 255 255 255 255 255 255 255 255 255 255 255 255 255 255 255 255 255 255 255 255 255 255 255 255 255 255 255 255 255 255 255 255 255 255 255 255 255 255 255 255 255 255 255 255 255 255 255 255 255 255 255 255 255 255 255 255 255 255 255 255 255 255 255 255 255 255 255 255 255 255 255 255 255 255 255 255 255 255 255 255 255 255 255 255 255 255 255 255 255 255 255 255 255 255 255 255 255 255 255 255 255 255 255 255 255 255 255 255 255 255 255 255 255 255 255 255 255 255 255 255 255 255 255 255 255 255 255 255 255 255 255 255 255 255 255 255 255 255 255 255 255 255 255 255 255 255 255 255 255 255 255 255 255 255 255 255 255 255 255 255 255 255 255 255 255 255 255 255 255 255 255 255 255 255 255 255 255 255 255 255 255 
255 255 255 255 255 255 255 255 255 255 255 255 255 255 255 255 255 255 255 255 255 255 255 255 255 255 255 255 255 255 255 255 255 255 255 255 255 255 255 255 255 255 255 255 255 255 255 255 255 255 255 255 255 255 255 255 255 255 255 255 255 255 255 255 255 255 255 255 255 255 255 255 255 255 255 255 255 255 255 255 255 255 255 255 255 255 255 255 255 255 255 255 255 255 255 255 255 255 255 255 255 255 255 255 255 255 255 255 255 255 255 255 255 255 255 255 255 255 255 255 255 255 255 255 255 255 255 255 255 255 255 255 255 255 255 255 255 255 255 255 255 255 255 255 255 255 255 255 255 255 255 255 255 255 255 255 255 255 255 255 255 255 255 255 255 255 255 255 255 255 255 255 255 255 255 255 255 255 255 255 255 255 255 255 255 255 255 255 255 255 255 255 
255 255 255 255 255 255 255 255 255 255 255 255 255 255 255 255 255 255 255 255 255 255 255 255 255 255 255 255 255 255 255 255 255 255 255 255 255 255 255 255 255 255 255 255 255 255 255 255 255 255 255 255 255 255 255 255 255 255 255 255 255 255 255 255 255 255 255 255 255 255 255 255 255 255 255 255 255 255 255 255 255 255 255 255 255 255 255 255 255 255 255 255 255 255 255 255 255 255 255 255 255 255 255 255 255 255 255 255 255 255 255 255 255 255 255 255 255 255 255 255 255 255 255 255 255 255 255 255 255 255 255 255 255 255 255 255 255 255 255 255 255 255 255 255 255 255 255 255 255 255 255 255 255 255 255 255 255 255 255 255 255 255 255 255 255 255 255 255 255 255 255 255 255 255 255 255 255 255 255 255 255 255 255 255 255 255 255 255 255 255 255 255 
255 255 255 255 255 255 255 255 255 255 255 255 255 255 255 255 255 255 255 255 255 255 255 255 255 255 255 255 255 255 255 255 255 255 255 255 255 255 255 255 255 255 255 255 255 255 255 255 255 255 255 255 255 255 255 255 255 255 255 255 255 255 255 255 255 255 255 255 255 255 255 255 255 255 255 255 255 255 255 255 255 255 255 255 255 255 255 255 255 255 255 255 255 255 255 255 255 255 255 255 255 255 255 255 255 255 255 255 255 255 255 255 255 255 255 255 255 255 255 255 255 255 255 255 255 255 255 255 255 255 255 255 255 255 255 255 255 255 255 255 255 255 255 255 255 255 255 255 255 255 255 255 255 255 255 255 255 255 255 255 255 255 255 255 255 255 255 255 255 255 255 255 255 255 255 255 255 255 255 255 255 255 255 255 255 255 255 255 255 255 255 255 
