P3
64 64
255
255 255 255 255 255 255 255 255 255 255 255 255 255 255 255 255 255 255 255 255 255 255 255 255 255 255 255 255 255 255 255 255 255 255 255 255 255 255 255 255 255 255 255 255 255 255 255 255 255 255 255 255 255 255 255 255 255 255 255 255 255 255 255 255 255 255 255 255 255 255 255 255 255 255 255 255 255 255 255 255 255 255 255 255 255 255 255 255 255 255 255 255 255 255 255 255 255 255 255 255 255 255 255 255 255 255 255 255 255 255 255 255 255 255 255 255 255 255 255 255 255 255 255 255 255 255 255 255 255 255 255 255 255 255 255 255 255 255 255 255 255 255 255 255 255 255 255 255 255 255 255 255 255 255 255 255 255 255 255 255 255 255 255 255 255 255 255 255 255 255 255 255 255 255 255 255 255 255 255 255 255 255 255 255 255 255 255 255 255 255 255 255 
255 255 255 255 255 255 255 255 255 255 255 255 255 255 255 255 255 255 255 255 255 255 255 255 255 255 255 255 255 255 255 255 255 255 255 255 255 255 255 255 255 255 255 255 255 255 255 255 255 255 255 255 255 255 255 255 255 255 255 255 255 255 255 255 255 255 255 255 255 255 255 255 255 255 255 255 255 255 255 255 255 255 255 255 255 255 255 255 255 255 255 255 255 255 255 255 255 255 255 255 255 255 255 255 255 255 255 255 255 255 255 255 255 255 255 255 255 255 255 255 255 255 255 255 255 255 255 255 255 255 255 255 255 255 255 255 255 255 255 255 255 255 255 255 255 255 255 255 255 255 255 255 255 255 255 255 255 255 255 255 255 255 255 255 255 255 255 255 255 255 255 255 255 255 255 255 255 255 255 255 255 255 255 255 255 255 255 255 255 255 255 255 
255 255 255 255 255 255 255 255 255 255 255 255 255 255 255 255 255 255 255 255 255 255 255 255 255 255 255 255 255 255 255 255 255 255 255 255 255 255 255 255 255 255 255 255 255 255 255 255 255 255 255 255 255 255 255 255 255 255 255 255 255 255 255 255 255 255 255 255 255 255 255 255 255 255 255 255 255 255 255 255 255 255 255 255 255 255 255 255 255 255 255 255 255 255 255 255 255 255 255 255 255 255 255 255 255 255 255 255 255 255 255 255 255 255 255 255 255 255 255 255 255 255 255 255 255 255 255 255 255 255 255 255 255 255 255 255 255 255 255 255 255 255 255 255 255 255 255 255 255 255 255 255 255 255 255 255 255 255 255 255 255 255 255 255 255 255 255 255 255 255 255 255 255 255 255 255 255 255 255 255 255 255 255 255 255 255 255 255 255 255 255 255 
255 255 255 255 255 255 255 255 255 255 255 255 255 255 255 255 255 255 255 255 255 255 255 255 255 255 255 255 255 255 255 255 255 255 255 255 255 255 255 255 255 255 255 255 255 255 255 255 255 255 255 255 255 255 255 255 255 255 255 255 255 255 255 255 255 255 255 255 255 255 255 255 255 255 255 255 255 255 255 255 255 255 255 255 255 255 255 255 255 255 255 255 255 255 255 255 255 255 255 255 255 255 255 255 255 255 255 255 255 255 255 255 255 255 255 255 255 255 255 255 255 255 255 255 255 255 255 255 255 255 255 255 255 255 255 255 255 255 255 255 255 255 255 255 255 255 255 255 255 255 255 255 255 255 255 255 255 255 255 255 255 255 255 255 255 255 255 255 255 255 255 255 255 255 255 255 255 255 255 255 255 255 255 255 255 255 255 255 255 255 255 255 
255 255 255 255 255 255 255 255 255 255 255 255 255 255 255 255 255 255 255 255 255 255 255 255 255 255 255 255 255 255 255 255 255 255 255 255 255 255 255 255 255 255 255 255 255 255 255 255 255 255 255 255 255 255 255 255 255 255 255 255 255 255 255 255 255 255 255 255 255 255 255 255 255 255 255 255 255 255 255 255 255 255 255 255 255 255 255 255 255 255 255 255 255 255 255 255 255 255 255 255 255 255 255 255 255 255 255 255 255 255 255 255 255 255 255 255 255 255 255 255 255 255 255 255 255 255 255 255 255 255 255 255 255 255 255 255 255 255 255 255 255 255 255 255 255 255 255 255 255 255 255 255 255 255 255 255 255 255 255 255 255 255 255 255 255 255 255 255 255 255 255 255 255 255 255 255 255 255 255 255 255 255 255 255 255 255 255 255 255 255 255 255 
255 255 255 255 255 255 255 255 255 255 255 255 255 255 255 255 255 255 255 255 255 255 255 255 255 255 255 255 255 255 255 255 255 255 255 255 255 255 255 255 255 255 255 255 255 255 255 255 255 255 255 255 255 255 255 255 255 255 255 255 255 255 255 255 255 255 255 255 255 255 255 255 255 255 255 255 255 255 255 255 255 255 255 255 255 255 255 255 255 255 255 255 255 255 255 255 255 255 255 255 255 255 255 255 255 255 255 255 64 64 88 64 64 88 255 255 255 255 255 255 255 255 255 255 255 255 255 255 255 255 255 255 255 255 255 255 255 255 255 255 255 255 255 255 255 255 255 255 255 255 255 255 255 255 255 255 255 255 255 255 255 255 255 255 255 255 255 255 255 255 255 255 255 255 255 255 255 255 255 255 255 255 255 255 255 255 255 255 255 255 255 255 
255 255 255 255 255 255 255 255 255 255 255 255 255 255 255 255 255 255 255 255 255 255 255 255 255 255 255 255 255 255 255 255 255 255 255 255 255 255 255 255 255 255 255 255 255 255 255 255 255 255 255 255 255 255 255 255 255 255 255 255 255 255 255 255 255 255 255 255 255 255 255 255 255 255 255 255 255 255 255 255 255 255 255 255 255 255 255 255 255 255 255 255 255 255 255 255 255 255 255 255 255 255 255 255 255 64 64 88 136 136 176 136 136 176 64 64 88 255 255 255 255 255 255 255 255 255 255 255 255 255 255 255 255 255 255 255 255 255 255 255 255 255 255 255 255 255 255 255 255 255 255 255 255 255 255 255 255 255 255 255 255 255 255 255 255 255 255 255 255 255 255 255 255 255 255 255 255 255 255 255 255 255 255 255 255 255 255 255 255 255 255 255 
255 255 255 255 255 255 255 255 255 255 255 255 255 255 255 255 255 255 255 255 255 255 255 255 255 255 255 255 255 255 255 255 255 255 255 255 255 255 255 255 255 255 255 255 255 255 255 255 255 255 255 255 255 255 255 255 255 255 255 255 255 255 255 255 255 255 255 255 255 255 255 255 255 255 255 255 255 255 255 255 255 255 255 255 255 255 255 255 255 255 255 255 255 255 255 255 255 255 255 255 255 255 255 255 255 112 112 144 136 136 176 136 136 176 136 136 176 64 64 88 255 255 255 255 255 255 255 255 255 255 255 255 255 255 255 255 255 255 255 255 255 255 255 255 255 255 255 255 255 255 255 255 255 255 255 255 255 255 255 255 255 255 255 255 255 255 255 255 255 255 255 255 255 255 255 255 255 255 255 255 255 255 255 255 255 255 255 255 255 255 255 255 
255 255 255 255 255 255 255 255 255 255 255 255 255 255 255 255 255 255 255 255 255 255 255 255 255 255 255 255 255 255 255 255 255 255 255 255 255 255 255 255 255 255 255 255 255 255 255 255 255 255 255 255 255 255 255 255 255 255 255 255 255 255 255 255 255 255 255 255 255 255 255 255 255 255 255 255 255 255 255 255 255 255 255 255 255 255 255 255 255 255 255 255 255 255 255 255 255 255 255 255 255 255 112 112 144 136 136 176 136 136 176 136 136 176 136 136 176 64 64 88 255 255 255 255 255 255 255 255 255 255 255 255 255 255 255 255 255 255 255 255 255 255 255 255 255 255 255 255 255 255 255 255 255 255 255 255 255 255 255 255 255 255 255 255 255 255 255 255 255 255 255 255 255 255 255 255 255 255 255 255 255 255 255 255 255 255 255 255 255 255 255 255 
255 255 255 255 255 255 255 255 255 255 255 255 255 255 255 255 255 255 255 255 255 255 255 255 255 255 255 255 255 255 255 255 255 255 255 255 255 255 255 255 255 255 255 255 255 255 255 255 255 255 255 255 255 255 255 255 255 255 255 255 255 255 255 255 255 255 255 255 255 255 255 255 255 255 255 255 255 255 255 255 255 255 255 255 255 255 255 255 255 255 255 255 255 255 255 255 255 255 255 255 255 255 64 64 88 136 136 176 136 136 176 136 136 176 136 136 176 136 136 176 64 64 88 64 64 88 64 64 88 64 64 88 64 64 88 64 64 88 255 255 255 255 255 255 255 255 255 255 255 255 255 255 255 255 255 255 255 255 255 255 255 255 255 255 255 255 255 255 255 255 255 255 255 255 255 255 255 255 255 255 255 255 255 255 255 255 255 255 255 255 255 255 
255 255 255 255 255 255 255 255 255 255 255 255 255 255 255 255 255 255 255 255 255 255 255 255 255 255 255 255 255 255 255 255 255 255 255 255 255 255 255 255 255 255 255 255 255 255 255 255 255 255 255 255 255 255 255 255 255 255 255 255 255 255 255 255 255 255 255 255 255 255 255 255 255 255 255 255 255 255 255 255 255 255 255 255 255 255 255 255 255 255 255 255 255 255 255 255 255 255 255 64 64 88 136 136 176 136 136 176 136 136 176 136 136 176 136 136 176 136 136 176 136 136 176 136 136 176 136 136 176 136 136 176 136 136 176 136 136 176 64 64 88 64 64 88 64 64 88 64 64 88 255 255 255 255 255 255 255 255 255 255 255 255 255 255 255 255 255 255 255 255 255 255 255 255 255 255 255 255 255 255 255 255 255 255 255 255 255 255 255 255 255 255 
255 255 255 255 255 255 255 255 255 255 255 255 255 255 255 255 255 255 255 255 255 255 255 255 255 255 255 255 255 255 255 255 255 255 255 255 255 255 255 255 255 255 255 255 255 255 255 255 255 255 255 255 255 255 104 104 112 104 104 112 255 255 255 255 255 255 255 255 255 16 16 16 255 255 255 255 255 255 255 255 255 255 255 255 255 255 255 255 255 255 255 255 255 255 255 255 64 64 88 136 136 176 136 136 176 88 88 112 88 88 112 88 88 112 88 88 112 88 88 112 136 136 176 136 136 176 136 136 176 136 136 176 136 136 176 112 112 144 112 112 144 112 112 144 112 112 144 112 112 144 64 64 88 64 64 88 64 64 88 255 255 255 255 255 255 255 255 255 255 255 255 64 64 88 64 64 88 16 16 16 16 16 16 255 255 255 255 255 255 255 255 255 
255 255 255 255 255 255 255 255 255 255 255 255 255 255 255 255 255 255 255 255 255 255 255 255 255 255 255 255 255 255 255 255 255 255 255 255 255 255 255 255 255 255 255 255 255 255 255 255 255 255 255 255 255 255 104 104 112 248 248 248 16 16 16 255 255 255 104 104 112 248 248 248 16 16 16 255 255 255 255 255 255 255 255 255 255 255 255 255 255 255 255 255 255 64 64 88 136 136 176 88 88 112 64 64 88 240 240 152 240 240 152 240 240 152 240 240 152 240 240 152 64 64 88 136 136 176 136 136 176 112 112 144 64 64 88 64 64 88 64 64 88 112 112 144 112 112 144 112 112 144 112 112 144 112 112 144 112 112 144 64 64 88 16 16 16 16 16 16 64 64 88 136 136 176 136 136 176 112 112 144 88 88 112 16 16 16 255 255 255 255 255 255 
255 255 255 255 255 255 255 255 255 255 255 255 255 255 255 255 255 255 255 255 255 255 255 255 255 255 255 255 255 255 255 255 255 255 255 255 255 255 255 255 255 255 255 255 255 255 255 255 255 255 255 255 255 255 104 104 112 208 208 216 208 208 216 16 16 16 104 104 112 208 208 216 16 16 16 255 255 255 255 255 255 255 255 255 255 255 255 255 255 255 112 112 144 88 88 112 88 88 112 248 248 200 248 248 200 240 240 152 240 240 152 240 240 152 240 240 152 240 240 152 240 240 152 64 64 88 64 64 88 152 152 80 240 240 152 240 240 152 240 240 152 64 64 88 64 64 88 112 112 144 112 112 144 112 112 144 88 88 112 88 88 112 136 136 176 136 136 176 136 136 176 136 136 176 112 112 144 112 112 144 88 88 112 16 16 16 255 255 255 255 255 255 
255 255 255 255 255 255 255 255 255 255 255 255 255 255 255 255 255 255 255 255 255 255 255 255 255 255 255 255 255 255 255 255 255 255 255 255 255 255 255 255 255 255 255 255 255 104 104 112 104 104 112 255 255 255 104 104 112 88 88 112 88 88 112 136 136 176 64 64 88 64 64 88 64 64 88 255 255 255 255 255 255 255 255 255 255 255 255 255 255 255 88 88 112 240 240 152 240 240 152 240 240 152 16 16 16 16 16 16 240 240 152 240 240 152 240 240 152 240 240 152 240 240 152 240 240 152 240 240 152 240 240 152 240 240 152 240 240 152 240 240 152 240 240 152 240 240 152 64 64 88 64 64 88 112 112 144 112 112 144 112 112 144 112 112 144 136 136 176 136 136 176 112 112 144 112 112 144 88 88 112 88 88 112 16 16 16 255 255 255 255 255 255 
255 255 255 255 255 255 255 255 255 255 255 255 255 255 255 255 255 255 255 255 255 255 255 255 255 255 255 255 255 255 255 255 255 255 255 255 255 255 255 255 255 255 255 255 255 104 104 112 248 248 248 104 104 112 64 64 88 136 136 176 136 136 176 136 136 176 136 136 176 112 112 144 112 112 144 16 16 16 255 255 255 255 255 255 255 255 255 88 88 112 248 248 200 248 248 200 248 248 200 248 248 200 248 248 200 248 248 200 16 16 16 16 16 16 152 152 80 240 240 152 240 240 152 240 240 152 240 240 152 240 240 152 240 240 152 240 240 152 240 240 152 240 240 152 240 240 152 240 240 152 240 240 152 64 64 88 112 112 144 112 112 144 112 112 144 112 112 144 112 112 144 112 112 144 112 112 144 88 88 112 88 88 112 16 16 16 255 255 255 255 255 255 
255 255 255 255 255 255 255 255 255 255 255 255 255 255 255 255 255 255 255 255 255 255 255 255 255 255 255 255 255 255 255 255 255 255 255 255 255 255 255 255 255 255 255 255 255 104 104 112 208 208 216 64 64 88 136 136 176 136 136 176 136 136 176 136 136 176 136 136 176 112 112 144 112 112 144 112 112 144 16 16 16 255 255 255 255 255 255 88 88 112 248 248 200 248 248 200 248 248 200 248 248 200 248 248 200 248 248 200 248 248 200 248 248 200 240 240 152 240 240 152 240 240 152 240 240 152 240 240 152 240 240 152 240 240 152 240 240 152 240 240 152 240 240 152 240 240 152 240 240 152 240 240 152 240 240 152 64 64 88 112 112 144 112 112 144 112 112 144 112 112 144 112 112 144 88 88 112 88 88 112 64 64 88 255 255 255 255 255 255 255 255 255 
255 255 255 255 255 255 255 255 255 255 255 255 255 255 255 255 255 255 255 255 255 255 255 255 255 255 255 255 255 255 255 255 255 255 255 255 255 255 255 255 255 255 255 255 255 255 255 255 88 88 112 88 88 112 136 136 176 136 136 176 136 136 176 136 136 176 136 136 176 112 112 144 112 112 144 112 112 144 64 64 88 255 255 255 88 88 112 248 248 200 248 248 200 248 248 200 248 248 200 248 248 200 248 248 200 248 248 200 248 248 200 240 240 152 240 240 152 240 240 152 240 240 152 240 240 152 240 240 152 152 152 80 16 16 16 16 16 16 16 16 16 240 240 152 240 240 152 240 240 152 240 240 152 240 240 152 240 240 152 64 64 88 112 112 144 112 112 144 112 112 144 112 112 144 88 88 112 88 88 112 16 16 16 255 255 255 255 255 255 255 255 255 
255 255 255 255 255 255 255 255 255 255 255 255 255 255 255 255 255 255 255 255 255 255 255 255 255 255 255 255 255 255 255 255 255 255 255 255 255 255 255 255 255 255 255 255 255 255 255 255 64 64 88 136 136 176 136 136 176 136 136 176 136 136 176 136 136 176 136 136 176 112 112 144 112 112 144 112 112 144 112 112 144 64 64 88 88 88 112 248 248 200 248 248 200 248 248 200 248 248 200 248 248 200 248 248 200 16 16 16 248 248 200 248 248 200 248 248 200 240 240 152 240 240 152 240 240 152 240 240 152 240 240 152 240 240 152 240 240 152 240 240 152 16 16 16 16 16 16 240 240 152 240 240 152 240 240 152 224 216 144 64 64 88 112 112 144 112 112 144 112 112 144 88 88 112 88 88 112 88 88 112 16 16 16 255 255 255 255 255 255 255 255 255 
255 255 255 255 255 255 255 255 255 255 255 255 255 255 255 255 255 255 255 255 255 255 255 255 255 255 255 255 255 255 255 255 255 255 255 255 255 255 255 255 255 255 255 255 255 255 255 255 64 64 88 136 136 176 136 136 176 136 136 176 136 136 176 136 136 176 112 112 144 112 112 144 112 112 144 112 112 144 112 112 144 64 64 88 88 88 112 248 248 200 248 248 200 248 248 200 248 248 200 248 248 200 248 248 200 248 248 200 152 152 80 16 16 16 152 152 80 248 248 200 248 248 200 240 240 152 240 240 152 240 240 152 240 240 152 240 240 152 240 240 152 240 240 152 240 240 152 240 240 152 240 240 152 240 240 152 224 216 144 224 216 144 64 64 88 112 112 144 112 112 144 88 88 112 88 88 112 88 88 112 16 16 16 255 255 255 255 255 255 255 255 255 
255 255 255 255 255 255 255 255 255 255 255 255 255 255 255 255 255 255 255 255 255 255 255 255 255 255 255 255 255 255 255 255 255 255 255 255 255 255 255 255 255 255 255 255 255 255 255 255 64 64 88 112 112 144 136 136 176 136 136 176 136 136 176 112 112 144 112 112 144 112 112 144 112 112 144 112 112 144 152 152 80 152 152 80 152 152 80 152 152 80 152 152 80 152 152 80 152 152 80 152 152 80 224 216 144 248 248 200 248 248 200 248 248 200 248 248 200 152 152 80 16 16 16 16 16 16 152 152 80 248 248 200 240 240 152 240 240 152 240 240 152 240 240 152 240 240 152 240 240 152 240 240 152 224 216 144 224 216 144 224 216 144 64 64 88 112 112 144 112 112 144 88 88 112 88 88 112 64 64 88 255 255 255 255 255 255 255 255 255 255 255 255 
255 255 255 255 255 255 255 255 255 255 255 255 255 255 255 255 255 255 255 255 255 255 255 255 255 255 255 255 255 255 255 255 255 255 255 255 255 255 255 255 255 255 255 255 255 255 255 255 64 64 88 112 112 144 112 112 144 112 112 144 112 112 144 112 112 144 112 112 144 152 152 80 152 152 80 224 216 144 248 248 200 248 248 200 248 248 200 248 248 200 248 248 200 248 248 200 248 248 200 248 248 200 248 248 200 224 216 144 152 152 80 152 152 80 152 152 80 240 240 152 240 240 152 240 240 152 240 240 152 240 240 152 240 240 152 240 240 152 240 240 152 240 240 152 240 240 152 240 240 152 224 216 144 224 216 144 224 216 144 224 216 144 64 64 88 112 112 144 64 64 88 88 88 112 88 88 112 16 16 16 255 255 255 255 255 255 255 255 255 255 255 255 
255 255 255 255 255 255 255 255 255 255 255 255 255 255 255 255 255 255 255 255 255 255 255 255 255 255 255 255 255 255 255 255 255 255 255 255 255 255 255 255 255 255 255 255 255 255 255 255 255 255 255 64 64 88 112 112 144 112 112 144 112 112 144 152 152 80 152 152 80 248 248 200 248 248 200 248 248 200 248 248 200 248 248 200 248 248 200 248 248 200 248 248 200 248 248 200 248 248 200 248 248 200 248 248 200 248 248 200 248 248 200 248 248 200 248 248 200 224 216 144 152 152 80 152 152 80 152 152 80 240 240 152 240 240 152 240 240 152 240 240 152 240 240 152 224 216 144 224 216 144 224 216 144 224 216 144 224 216 144 224 216 144 224 216 144 64 64 88 248 248 248 64 64 88 88 88 112 16 16 16 104 104 112 16 16 16 255 255 255 255 255 255 
255 255 255 255 255 255 255 255 255 255 255 255 255 255 255 255 255 255 255 255 255 255 255 255 255 255 255 255 255 255 255 255 255 255 255 255 255 255 255 255 255 255 255 255 255 255 255 255 255 255 255 64 64 88 112 112 144 152 152 80 152 152 80 248 248 200 248 248 200 248 248 200 248 248 200 248 248 200 248 248 200 248 248 200 248 248 200 248 248 200 248 248 200 248 248 200 248 248 200 248 248 200 248 248 200 248 248 200 248 248 200 248 248 200 248 248 200 248 248 200 248 248 200 248 248 200 240 240 152 152 152 80 152 152 80 224 216 144 224 216 144 224 216 144 224 216 144 224 216 144 224 216 144 224 216 144 224 216 144 224 216 144 224 216 144 64 64 88 208 208 216 208 208 216 64 64 88 104 104 112 248 248 248 16 16 16 255 255 255 255 255 255 
255 255 255 255 255 255 255 255 255 112 112 144 16 16 16 255 255 255 255 255 255 255 255 255 255 255 255 255 255 255 16 16 16 255 255 255 255 255 255 255 255 255 255 255 255 255 255 255 255 255 255 152 152 80 152 152 80 248 248 200 248 248 200 248 248 200 248 248 200 248 248 200 248 248 200 248 248 200 248 248 200 248 248 200 248 248 200 248 248 200 248 248 200 248 248 200 248 248 200 248 248 200 248 248 200 248 248 200 248 248 200 248 248 200 248 248 200 248 248 200 248 248 200 240 240 152 240 240 152 240 240 152 240 240 152 152 152 80 152 152 80 224 216 144 224 216 144 224 216 144 224 216 144 224 216 144 224 216 144 224 216 144 224 216 144 88 88 112 88 88 112 88 88 112 88 88 112 248 248 248 208 208 216 16 16 16 104 104 112 255 255 255 
255 255 255 255 255 255 255 255 255 104 104 112 248 248 248 16 16 16 255 255 255 255 255 255 255 255 255 104 104 112 248 248 248 16 16 16 255 255 255 255 255 255 255 255 255 255 255 255 152 152 80 240 240 152 248 248 200 248 248 200 248 248 200 248 248 200 248 248 200 248 248 200 248 248 200 248 248 200 248 248 200 248 248 200 248 248 200 248 248 200 248 248 200 248 248 200 248 248 200 248 248 200 248 248 200 248 248 200 248 248 200 248 248 200 248 248 200 240 240 152 240 240 152 240 240 152 240 240 152 240 240 152 240 240 152 240 240 152 240 240 152 152 152 80 224 216 144 224 216 144 224 216 144 224 216 144 224 216 144 224 216 144 224 216 144 136 136 176 136 136 176 136 136 176 136 136 176 88 88 112 88 88 112 104 104 112 248 248 248 16 16 16 
255 255 255 255 255 255 255 255 255 104 104 112 248 248 248 208 208 216 16 16 16 255 255 255 104 104 112 248 248 248 248 248 248 112 112 144 255 255 255 255 255 255 255 255 255 152 152 80 240 240 152 240 240 152 240 240 152 248 248 200 248 248 200 248 248 200 248 248 200 248 248 200 248 248 200 248 248 200 248 248 200 248 248 200 248 248 200 248 248 200 248 248 200 248 248 200 248 248 200 248 248 200 248 248 200 248 248 200 248 248 200 248 248 200 240 240 152 240 240 152 240 240 152 240 240 152 240 240 152 240 240 152 240 240 152 240 240 152 240 240 152 224 216 144 152 152 80 224 216 144 224 216 144 224 216 144 224 216 144 224 216 144 88 88 112 136 136 176 136 136 176 136 136 176 136 136 176 112 112 144 136 136 176 248 248 248 248 248 248 16 16 16 
255 255 255 255 255 255 255 255 255 104 104 112 248 248 248 208 208 216 208 208 216 152 152 80 104 104 112 248 248 248 248 248 248 208 208 216 16 16 16 255 255 255 152 152 80 240 240 152 240 240 152 240 240 152 240 240 152 240 240 152 240 240 152 248 248 200 248 248 200 248 248 200 248 248 200 248 248 200 248 248 200 248 248 200 248 248 200 248 248 200 248 248 200 248 248 200 248 248 200 248 248 200 248 248 200 240 240 152 240 240 152 240 240 152 240 240 152 240 240 152 240 240 152 240 240 152 240 240 152 240 240 152 240 240 152 240 240 152 240 240 152 240 240 152 240 240 152 152 152 80 224 216 144 224 216 144 224 216 144 64 64 88 136 136 176 136 136 176 136 136 176 136 136 176 112 112 144 112 112 144 112 112 144 248 248 248 248 248 248 16 16 16 
104 104 112 16 16 16 255 255 255 104 104 112 208 208 216 208 208 216 152 152 80 240 240 152 152 152 80 152 152 80 248 248 248 248 248 248 16 16 16 152 152 80 240 240 152 240 240 152 240 240 152 240 240 152 240 240 152 240 240 152 240 240 152 240 240 152 240 240 152 240 240 152 248 248 200 248 248 200 248 248 200 248 248 200 248 248 200 248 248 200 248 248 200 248 248 200 240 240 152 240 240 152 240 240 152 240 240 152 240 240 152 240 240 152 240 240 152 240 240 152 240 240 152 240 240 152 240 240 152 240 240 152 240 240 152 240 240 152 240 240 152 240 240 152 240 240 152 224 216 144 152 152 80 224 216 144 64 64 88 88 88 112 136 136 176 136 136 176 136 136 176 112 112 144 112 112 144 112 112 144 112 112 144 88 88 112 88 88 112 16 16 16 
104 104 112 248 248 248 16 16 16 112 112 144 152 152 80 152 152 80 240 240 152 240 240 152 240 240 152 240 240 152 152 152 80 152 152 80 152 152 80 16 16 16 240 240 152 240 240 152 240 240 152 240 240 152 240 240 152 240 240 152 240 240 152 240 240 152 240 240 152 240 240 152 240 240 152 240 240 152 240 240 152 240 240 152 240 240 152 240 240 152 240 240 152 240 240 152 240 240 152 240 240 152 240 240 152 240 240 152 240 240 152 240 240 152 240 240 152 240 240 152 240 240 152 240 240 152 240 240 152 240 240 152 240 240 152 240 240 152 240 240 152 240 240 152 240 240 152 224 216 144 88 88 112 64 64 88 88 88 112 112 112 144 112 112 144 136 136 176 112 112 144 112 112 144 112 112 144 112 112 144 88 88 112 88 88 112 88 88 112 16 16 16 
104 104 112 248 248 248 208 208 216 152 152 80 240 240 152 224 216 144 224 216 144 224 216 144 224 216 144 240 240 152 240 240 152 248 248 200 248 248 200 16 16 16 240 240 152 240 240 152 240 240 152 240 240 152 240 240 152 240 240 152 240 240 152 240 240 152 240 240 152 240 240 152 240 240 152 240 240 152 240 240 152 240 240 152 240 240 152 240 240 152 240 240 152 240 240 152 240 240 152 240 240 152 240 240 152 240 240 152 240 240 152 240 240 152 240 240 152 240 240 152 240 240 152 240 240 152 240 240 152 240 240 152 240 240 152 240 240 152 240 240 152 240 240 152 240 240 152 224 216 144 88 88 112 64 64 88 112 112 144 112 112 144 112 112 144 112 112 144 112 112 144 112 112 144 112 112 144 112 112 144 88 88 112 88 88 112 88 88 112 16 16 16 
104 104 112 248 248 248 152 152 80 224 216 144 224 216 144 224 216 144 224 216 144 224 216 144 224 216 144 224 216 144 224 216 144 240 240 152 248 248 200 152 152 80 240 240 152 240 240 152 240 240 152 240 240 152 240 240 152 240 240 152 240 240 152 240 240 152 240 240 152 240 240 152 240 240 152 240 240 152 240 240 152 240 240 152 240 240 152 240 240 152 240 240 152 240 240 152 240 240 152 240 240 152 240 240 152 240 240 152 240 240 152 240 240 152 240 240 152 240 240 152 240 240 152 240 240 152 240 240 152 240 240 152 240 240 152 240 240 152 240 240 152 240 240 152 224 216 144 152 152 80 88 88 112 88 88 112 112 112 144 112 112 144 112 112 144 112 112 144 112 112 144 112 112 144 112 112 144 88 88 112 88 88 112 88 88 112 88 88 112 64 64 88 
255 255 255 104 104 112 152 152 80 224 216 144 224 216 144 224 216 144 224 216 144 224 216 144 224 216 144 224 216 144 224 216 144 224 216 144 240 240 152 240 240 152 16 16 16 240 240 152 240 240 152 240 240 152 240 240 152 240 240 152 240 240 152 240 240 152 240 240 152 240 240 152 240 240 152 240 240 152 240 240 152 240 240 152 240 240 152 240 240 152 240 240 152 240 240 152 240 240 152 240 240 152 240 240 152 240 240 152 240 240 152 104 104 112 16 16 16 240 240 152 240 240 152 240 240 152 240 240 152 240 240 152 240 240 152 240 240 152 240 240 152 224 216 144 224 216 144 64 64 88 88 88 112 88 88 112 112 112 144 112 112 144 112 112 144 112 112 144 112 112 144 112 112 144 112 112 144 88 88 112 88 88 112 88 88 112 64 64 88 255 255 255 
255 255 255 152 152 80 224 216 144 224 216 144 224 216 144 224 216 144 224 216 144 224 216 144 224 216 144 224 216 144 224 216 144 224 216 144 240 240 152 240 240 152 152 152 80 224 216 144 240 240 152 240 240 152 240 240 152 240 240 152 240 240 152 240 240 152 240 240 152 240 240 152 240 240 152 240 240 152 240 240 152 240 240 152 240 240 152 240 240 152 240 240 152 240 240 152 240 240 152 240 240 152 240 240 152 240 240 152 104 104 112 248 248 248 112 112 144 240 240 152 240 240 152 240 240 152 240 240 152 240 240 152 240 240 152 240 240 152 224 216 144 224 216 144 224 216 144 64 64 88 88 88 112 88 88 112 88 88 112 112 112 144 112 112 144 112 112 144 112 112 144 112 112 144 88 88 112 88 88 112 88 88 112 88 88 112 16 16 16 255 255 255 
255 255 255 152 152 80 224 216 144 224 216 144 224 216 144 224 216 144 224 216 144 224 216 144 224 216 144 224 216 144 224 216 144 224 216 144 224 216 144 240 240 152 240 240 152 152 152 80 240 240 152 240 240 152 240 240 152 240 240 152 240 240 152 240 240 152 240 240 152 240 240 152 240 240 152 240 240 152 240 240 152 240 240 152 240 240 152 240 240 152 240 240 152 240 240 152 240 240 152 240 240 152 240 240 152 152 152 80 104 104 112 248 248 248 208 208 216 16 16 16 240 240 152 240 240 152 240 240 152 240 240 152 104 104 112 104 104 112 224 216 144 224 216 144 224 216 144 64 64 88 88 88 112 88 88 112 88 88 112 88 88 112 112 112 144 112 112 144 112 112 144 88 88 112 88 88 112 88 88 112 88 88 112 88 88 112 16 16 16 255 255 255 
255 255 255 152 152 80 224 216 144 224 216 144 224 216 144 224 216 144 224 216 144 224 216 144 224 216 144 224 216 144 224 216 144 224 216 144 224 216 144 240 240 152 240 240 152 16 16 16 224 216 144 224 216 144 240 240 152 240 240 152 240 240 152 240 240 152 240 240 152 240 240 152 240 240 152 240 240 152 240 240 152 240 240 152 240 240 152 240 240 152 240 240 152 240 240 152 240 240 152 240 240 152 152 152 80 104 104 112 248 248 248 208 208 216 208 208 216 16 16 16 152 152 80 240 240 152 240 240 152 104 104 112 248 248 248 16 16 16 224 216 144 224 216 144 224 216 144 64 64 88 88 88 112 88 88 112 88 88 112 88 88 112 88 88 112 88 88 112 88 88 112 88 88 112 88 88 112 88 88 112 88 88 112 64 64 88 255 255 255 255 255 255 
255 255 255 152 152 80 224 216 144 224 216 144 224 216 144 224 216 144 160 104 40 160 104 40 160 104 40 160 104 40 224 216 144 224 216 144 224 216 144 224 216 144 240 240 152 16 16 16 224 216 144 224 216 144 224 216 144 240 240 152 240 240 152 240 240 152 240 240 152 240 240 152 240 240 152 240 240 152 240 240 152 240 240 152 240 240 152 240 240 152 240 240 152 240 240 152 240 240 152 152 152 80 248 248 200 152 152 80 248 248 248 208 208 216 208 208 216 152 152 80 248 248 200 152 152 80 104 104 112 248 248 248 248 248 248 16 16 16 224 216 144 224 216 144 64 64 88 88 88 112 88 88 112 88 88 112 88 88 112 88 88 112 88 88 112 88 88 112 88 88 112 88 88 112 88 88 112 88 88 112 88 88 112 16 16 16 255 255 255 255 255 255 
255 255 255 152 152 80 224 216 144 224 216 144 224 216 144 160 104 40 232 168 112 232 168 112 232 168 112 232 168 112 160 104 40 224 216 144 224 216 144 224 216 144 240 240 152 16 16 16 224 216 144 224 216 144 224 216 144 224 216 144 224 216 144 240 240 152 240 240 152 240 240 152 240 240 152 240 240 152 240 240 152 240 240 152 240 240 152 240 240 152 240 240 152 240 240 152 152 152 80 248 248 200 248 248 200 248 248 200 152 152 80 152 152 80 152 152 80 248 248 200 240 240 152 112 112 144 208 208 216 208 208 216 248 248 248 16 16 16 224 216 144 224 216 144 64 64 88 88 88 112 88 88 112 88 88 112 88 88 112 88 88 112 88 88 112 88 88 112 88 88 112 88 88 112 88 88 112 88 88 112 64 64 88 255 255 255 255 255 255 255 255 255 
255 255 255 152 152 80 224 216 144 224 216 144 160 104 40 232 168 112 232 168 112 232 168 112 232 168 112 232 168 112 232 168 112 160 104 40 224 216 144 224 216 144 224 216 144 16 16 16 224 216 144 224 216 144 224 216 144 224 216 144 224 216 144 224 216 144 224 216 144 224 216 144 240 240 152 240 240 152 240 240 152 240 240 152 240 240 152 240 240 152 224 216 144 152 152 80 240 240 152 248 248 200 248 248 200 248 248 200 240 240 152 240 240 152 240 240 152 240 240 152 240 240 152 152 152 80 208 208 216 208 208 216 208 208 216 16 16 16 224 216 144 64 64 88 112 112 144 88 88 112 88 88 112 88 88 112 88 88 112 88 88 112 88 88 112 88 88 112 88 88 112 88 88 112 88 88 112 88 88 112 16 16 16 255 255 255 255 255 255 255 255 255 
255 255 255 255 255 255 152 152 80 224 216 144 232 168 112 208 152 88 208 152 88 208 152 88 208 152 88 232 168 112 232 168 112 160 104 40 224 216 144 224 216 144 224 216 144 16 16 16 224 216 144 224 216 144 224 216 144 224 216 144 224 216 144 224 216 144 224 216 144 224 216 144 224 216 144 224 216 144 224 216 144 224 216 144 224 216 144 224 216 144 224 216 144 152 152 80 240 240 152 240 240 152 240 240 152 224 216 144 224 216 144 224 216 144 224 216 144 224 216 144 224 216 144 240 240 152 152 152 80 152 152 80 152 152 80 64 64 88 112 112 144 112 112 144 112 112 144 88 88 112 88 88 112 88 88 112 88 88 112 88 88 112 88 88 112 88 88 112 88 88 112 88 88 112 88 88 112 64 64 88 255 255 255 255 255 255 255 255 255 255 255 255 
255 255 255 255 255 255 152 152 80 224 216 144 208 152 88 208 152 88 208 152 88 208 152 88 208 152 88 208 152 88 232 168 112 160 104 40 224 216 144 224 216 144 224 216 144 16 16 16 64 64 88 224 216 144 224 216 144 224 216 144 224 216 144 224 216 144 224 216 144 224 216 144 224 216 144 224 216 144 224 216 144 224 216 144 224 216 144 224 216 144 152 152 80 240 240 152 240 240 152 240 240 152 224 216 144 224 216 144 224 216 144 224 216 144 224 216 144 224 216 144 224 216 144 224 216 144 224 216 144 240 240 152 240 240 152 240 240 152 152 152 80 64 64 88 64 64 88 64 64 88 16 16 16 88 88 112 88 88 112 88 88 112 88 88 112 88 88 112 88 88 112 88 88 112 88 88 112 16 16 16 255 255 255 255 255 255 255 255 255 255 255 255 
255 255 255 255 255 255 152 152 80 224 216 144 208 152 88 208 152 88 208 152 88 208 152 88 208 152 88 208 152 88 208 152 88 160 104 40 224 216 144 224 216 144 224 216 144 16 16 16 88 88 112 64 64 88 64 64 88 224 216 144 224 216 144 224 216 144 224 216 144 224 216 144 224 216 144 224 216 144 224 216 144 224 216 144 224 216 144 224 216 144 152 152 80 240 240 152 240 240 152 224 216 144 224 216 144 224 216 144 224 216 144 224 216 144 224 216 144 224 216 144 224 216 144 224 216 144 224 216 144 224 216 144 240 240 152 152 152 80 208 208 216 208 208 216 248 248 248 248 248 248 16 16 16 88 88 112 88 88 112 88 88 112 88 88 112 88 88 112 88 88 112 88 88 112 64 64 88 255 255 255 255 255 255 255 255 255 255 255 255 255 255 255 
255 255 255 255 255 255 255 255 255 152 152 80 160 104 40 208 152 88 208 152 88 208 152 88 208 152 88 208 152 88 208 152 88 160 104 40 224 216 144 224 216 144 152 152 80 88 88 112 88 88 112 88 88 112 88 88 112 64 64 88 64 64 88 224 216 144 224 216 144 224 216 144 224 216 144 224 216 144 224 216 144 224 216 144 224 216 144 152 152 80 240 240 152 240 240 152 224 216 144 224 216 144 160 104 40 160 104 40 160 104 40 160 104 40 224 216 144 224 216 144 224 216 144 224 216 144 224 216 144 224 216 144 224 216 144 152 152 80 208 208 216 208 208 216 248 248 248 16 16 16 88 88 112 88 88 112 88 88 112 88 88 112 88 88 112 88 88 112 88 88 112 88 88 112 16 16 16 255 255 255 255 255 255 255 255 255 255 255 255 255 255 255 
255 255 255 255 255 255 255 255 255 152 152 80 224 216 144 160 104 40 208 152 88 208 152 88 208 152 88 208 152 88 160 104 40 224 216 144 224 216 144 224 216 144 16 16 16 88 88 112 88 88 112 88 88 112 88 88 112 88 88 112 88 88 112 64 64 88 64 64 88 64 64 88 64 64 88 224 216 144 224 216 144 224 216 144 224 216 144 152 152 80 240 240 152 240 240 152 224 216 144 160 104 40 232 168 112 232 168 112 232 168 112 232 168 112 160 104 40 160 104 40 224 216 144 224 216 144 224 216 144 224 216 144 224 216 144 152 152 80 208 208 216 208 208 216 16 16 16 88 88 112 88 88 112 88 88 112 88 88 112 88 88 112 88 88 112 88 88 112 88 88 112 64 64 88 255 255 255 255 255 255 255 255 255 255 255 255 255 255 255 255 255 255 
255 255 255 255 255 255 255 255 255 255 255 255 152 152 80 224 216 144 160 104 40 160 104 40 160 104 40 160 104 40 224 216 144 224 216 144 224 216 144 16 16 16 88 88 112 88 88 112 88 88 112 88 88 112 88 88 112 88 88 112 88 88 112 88 88 112 88 88 112 88 88 112 88 88 112 64 64 88 64 64 88 64 64 88 64 64 88 152 152 80 240 240 152 240 240 152 160 104 40 232 168 112 232 168 112 232 168 112 232 168 112 232 168 112 232 168 112 232 168 112 160 104 40 224 216 144 224 216 144 224 216 144 224 216 144 224 216 144 152 152 80 16 16 16 88 88 112 88 88 112 88 88 112 88 88 112 88 88 112 88 88 112 88 88 112 88 88 112 88 88 112 16 16 16 255 255 255 255 255 255 255 255 255 255 255 255 255 255 255 255 255 255 
255 255 255 255 255 255 255 255 255 255 255 255 255 255 255 152 152 80 224 216 144 224 216 144 224 216 144 224 216 144 224 216 144 152 152 80 16 16 16 88 88 112 88 88 112 88 88 112 88 88 112 88 88 112 88 88 112 88 88 112 88 88 112 88 88 112 88 88 112 88 88 112 88 88 112 88 88 112 88 88 112 88 88 112 88 88 112 16 16 16 240 240 152 240 240 152 160 104 40 232 168 112 232 168 112 232 168 112 232 168 112 232 168 112 232 168 112 232 168 112 232 168 112 160 104 40 224 216 144 224 216 144 224 216 144 224 216 144 224 216 144 16 16 16 88 88 112 88 88 112 88 88 112 88 88 112 88 88 112 88 88 112 88 88 112 88 88 112 64 64 88 255 255 255 255 255 255 255 255 255 255 255 255 255 255 255 255 255 255 255 255 255 
255 255 255 255 255 255 255 255 255 255 255 255 255 255 255 255 255 255 152 152 80 16 16 16 16 16 16 16 16 16 16 16 16 88 88 112 88 88 112 88 88 112 88 88 112 88 88 112 88 88 112 88 88 112 88 88 112 88 88 112 88 88 112 88 88 112 88 88 112 88 88 112 88 88 112 88 88 112 88 88 112 88 88 112 88 88 112 16 16 16 240 240 152 224 216 144 160 104 40 232 168 112 232 168 112 232 168 112 232 168 112 208 152 88 208 152 88 208 152 88 232 168 112 160 104 40 224 216 144 224 216 144 224 216 144 224 216 144 16 16 16 88 88 112 88 88 112 88 88 112 88 88 112 88 88 112 88 88 112 88 88 112 88 88 112 88 88 112 16 16 16 255 255 255 255 255 255 255 255 255 255 255 255 255 255 255 255 255 255 255 255 255 
255 255 255 255 255 255 255 255 255 255 255 255 255 255 255 255 255 255 255 255 255 64 64 88 88 88 112 88 88 112 88 88 112 88 88 112 88 88 112 88 88 112 88 88 112 88 88 112 88 88 112 88 88 112 88 88 112 88 88 112 88 88 112 88 88 112 88 88 112 88 88 112 88 88 112 88 88 112 88 88 112 88 88 112 88 88 112 16 16 16 240 240 152 224 216 144 160 104 40 232 168 112 232 168 112 208 152 88 208 152 88 208 152 88 208 152 88 208 152 88 208 152 88 160 104 40 224 216 144 224 216 144 224 216 144 224 216 144 16 16 16 88 88 112 88 88 112 88 88 112 88 88 112 88 88 112 88 88 112 88 88 112 88 88 112 64 64 88 255 255 255 255 255 255 255 255 255 255 255 255 255 255 255 255 255 255 255 255 255 255 255 255 
255 255 255 255 255 255 255 255 255 255 255 255 255 255 255 255 255 255 255 255 255 64 64 88 88 88 112 88 88 112 88 88 112 88 88 112 88 88 112 88 88 112 88 88 112 88 88 112 88 88 112 88 88 112 88 88 112 88 88 112 88 88 112 88 88 112 88 88 112 88 88 112 88 88 112 88 88 112 88 88 112 88 88 112 88 88 112 88 88 112 152 152 80 224 216 144 224 216 144 160 104 40 208 152 88 208 152 88 208 152 88 208 152 88 208 152 88 208 152 88 208 152 88 160 104 40 224 216 144 224 216 144 224 216 144 16 16 16 88 88 112 88 88 112 88 88 112 88 88 112 88 88 112 88 88 112 88 88 112 88 88 112 88 88 112 16 16 16 255 255 255 255 255 255 255 255 255 255 255 255 255 255 255 255 255 255 255 255 255 255 255 255 
255 255 255 255 255 255 255 255 255 255 255 255 255 255 255 255 255 255 255 255 255 255 255 255 16 16 16 88 88 112 88 88 112 88 88 112 88 88 112 88 88 112 88 88 112 88 88 112 88 88 112 88 88 112 88 88 112 88 88 112 88 88 112 88 88 112 88 88 112 88 88 112 88 88 112 88 88 112 88 88 112 88 88 112 88 88 112 88 88 112 16 16 16 224 216 144 224 216 144 224 216 144 160 104 40 160 104 40 208 152 88 208 152 88 208 152 88 208 152 88 160 104 40 224 216 144 224 216 144 224 216 144 224 216 144 16 16 16 88 88 112 88 88 112 88 88 112 88 88 112 88 88 112 88 88 112 88 88 112 88 88 112 16 16 16 255 255 255 255 255 255 255 255 255 255 255 255 255 255 255 255 255 255 255 255 255 255 255 255 255 255 255 
255 255 255 255 255 255 255 255 255 255 255 255 255 255 255 255 255 255 255 255 255 255 255 255 255 255 255 16 16 16 88 88 112 88 88 112 88 88 112 88 88 112 88 88 112 88 88 112 88 88 112 88 88 112 88 88 112 88 88 112 88 88 112 88 88 112 88 88 112 88 88 112 88 88 112 88 88 112 88 88 112 88 88 112 88 88 112 88 88 112 88 88 112 16 16 16 224 216 144 224 216 144 224 216 144 224 216 144 160 104 40 160 104 40 160 104 40 160 104 40 224 216 144 224 216 144 224 216 144 224 216 144 16 16 16 88 88 112 88 88 112 88 88 112 88 88 112 88 88 112 88 88 112 88 88 112 88 88 112 16 16 16 255 255 255 255 255 255 255 255 255 255 255 255 255 255 255 255 255 255 255 255 255 255 255 255 255 255 255 255 255 255 
255 255 255 255 255 255 255 255 255 255 255 255 255 255 255 255 255 255 255 255 255 255 255 255 255 255 255 255 255 255 16 16 16 88 88 112 88 88 112 88 88 112 88 88 112 88 88 112 88 88 112 88 88 112 88 88 112 88 88 112 88 88 112 88 88 112 88 88 112 88 88 112 88 88 112 88 88 112 88 88 112 88 88 112 88 88 112 88 88 112 88 88 112 88 88 112 16 16 16 224 216 144 224 216 144 224 216 144 224 216 144 224 216 144 224 216 144 224 216 144 224 216 144 224 216 144 224 216 144 16 16 16 88 88 112 88 88 112 88 88 112 88 88 112 88 88 112 88 88 112 88 88 112 88 88 112 16 16 16 255 255 255 255 255 255 255 255 255 255 255 255 255 255 255 255 255 255 255 255 255 255 255 255 255 255 255 255 255 255 255 255 255 
255 255 255 255 255 255 255 255 255 255 255 255 255 255 255 255 255 255 255 255 255 255 255 255 255 255 255 255 255 255 255 255 255 16 16 16 64 64 88 88 88 112 112 112 144 112 112 144 88 88 112 88 88 112 88 88 112 88 88 112 88 88 112 88 88 112 88 88 112 88 88 112 88 88 112 88 88 112 88 88 112 88 88 112 88 88 112 88 88 112 88 88 112 88 88 112 88 88 112 16 16 16 152 152 80 224 216 144 224 216 144 224 216 144 224 216 144 224 216 144 224 216 144 152 152 80 16 16 16 88 88 112 88 88 112 88 88 112 88 88 112 88 88 112 88 88 112 88 88 112 88 88 112 16 16 16 255 255 255 255 255 255 255 255 255 255 255 255 255 255 255 255 255 255 255 255 255 255 255 255 255 255 255 255 255 255 255 255 255 255 255 255 
255 255 255 255 255 255 255 255 255 255 255 255 255 255 255 255 255 255 255 255 255 255 255 255 255 255 255 255 255 255 255 255 255 255 255 255 255 255 255 16 16 16 64 64 88 112 112 144 112 112 144 112 112 144 112 112 144 88 88 112 88 88 112 88 88 112 88 88 112 88 88 112 88 88 112 88 88 112 88 88 112 88 88 112 88 88 112 88 88 112 88 88 112 88 88 112 88 88 112 88 88 112 88 88 112 16 16 16 16 16 16 16 16 16 16 16 16 16 16 16 16 16 16 88 88 112 88 88 112 88 88 112 88 88 112 88 88 112 88 88 112 88 88 112 88 88 112 88 88 112 16 16 16 255 255 255 255 255 255 255 255 255 255 255 255 255 255 255 255 255 255 255 255 255 255 255 255 255 255 255 255 255 255 255 255 255 255 255 255 255 255 255 
255 255 255 255 255 255 255 255 255 255 255 255 255 255 255 255 255 255 255 255 255 255 255 255 255 255 255 255 255 255 255 255 255 255 255 255 255 255 255 255 255 255 255 255 255 16 16 16 64 64 88 88 88 112 112 112 144 112 112 144 112 112 144 112 112 144 112 112 144 88 88 112 88 88 112 88 88 112 88 88 112 88 88 112 88 88 112 88 88 112 88 88 112 88 88 112 88 88 112 88 88 112 88 88 112 88 88 112 88 88 112 88 88 112 88 88 112 88 88 112 88 88 112 88 88 112 88 88 112 88 88 112 88 88 112 88 88 112 88 88 112 112 112 144 16 16 16 16 16 16 255 255 255 255 255 255 255 255 255 255 255 255 255 255 255 255 255 255 255 255 255 255 255 255 255 255 255 255 255 255 255 255 255 255 255 255 255 255 255 255 255 255 
255 255 255 255 255 255 255 255 255 255 255 255 255 255 255 255 255 255 255 255 255 255 255 255 255 255 255 255 255 255 255 255 255 255 255 255 255 255 255 255 255 255 255 255 255 255 255 255 255 255 255 16 16 16 64 64 88 88 88 112 112 112 144 112 112 144 112 112 144 112 112 144 112 112 144 112 112 144 112 112 144 88 88 112 88 88 112 88 88 112 88 88 112 88 88 112 88 88 112 88 88 112 88 88 112 88 88 112 88 88 112 88 88 112 88 88 112 88 88 112 88 88 112 88 88 112 88 88 112 88 88 112 112 112 144 112 112 144 64 64 88 16 16 16 255 255 255 255 255 255 255 255 255 255 255 255 255 255 255 255 255 255 255 255 255 255 255 255 255 255 255 255 255 255 255 255 255 255 255 255 255 255 255 255 255 255 255 255 255 255 255 255 
255 255 255 255 255 255 255 255 255 255 255 255 255 255 255 255 255 255 255 255 255 255 255 255 255 255 255 255 255 255 255 255 255 255 255 255 255 255 255 255 255 255 255 255 255 255 255 255 255 255 255 255 255 255 255 255 255 16 16 16 16 16 16 64 64 88 88 88 112 112 112 144 112 112 144 112 112 144 112 112 144 112 112 144 112 112 144 112 112 144 112 112 144 112 112 144 112 112 144 112 112 144 112 112 144 112 112 144 112 112 144 112 112 144 112 112 144 112 112 144 112 112 144 112 112 144 88 88 112 64 64 88 16 16 16 16 16 16 255 255 255 255 255 255 255 255 255 255 255 255 255 255 255 255 255 255 255 255 255 255 255 255 255 255 255 255 255 255 255 255 255 255 255 255 255 255 255 255 255 255 255 255 255 255 255 255 255 255 255 255 255 255 
255 255 255 255 255 255 255 255 255 255 255 255 255 255 255 255 255 255 255 255 255 255 255 255 255 255 255 255 255 255 255 255 255 255 255 255 255 255 255 255 255 255 255 255 255 255 255 255 255 255 255 255 255 255 255 255 255 255 255 255 255 255 255 255 255 255 16 16 16 16 16 16 16 16 16 64 64 88 88 88 112 112 112 144 112 112 144 112 112 144 112 112 144 112 112 144 112 112 144 112 112 144 112 112 144 112 112 144 112 112 144 112 112 144 88 88 112 64 64 88 16 16 16 16 16 16 16 16 16 255 255 255 255 255 255 255 255 255 255 255 255 255 255 255 255 255 255 255 255 255 255 255 255 255 255 255 255 255 255 255 255 255 255 255 255 255 255 255 255 255 255 255 255 255 255 255 255 255 255 255 255 255 255 255 255 255 255 255 255 255 255 255 
255 255 255 255 255 255 255 255 255 255 255 255 255 255 255 255 255 255 255 255 255 255 255 255 255 255 255 255 255 255 255 255 255 255 255 255 255 255 255 255 255 255 255 255 255 255 255 255 255 255 255 255 255 255 255 255 255 255 255 255 255 255 255 255 255 255 255 255 255 255 255 255 255 255 255 255 255 255 16 16 16 16 16 16 16 16 16 16 16 16 16 16 16 16 16 16 16 16 16 16 16 16 16 16 16 16 16 16 16 16 16 16 16 16 16 16 16 255 255 255 255 255 255 255 255 255 255 255 255 255 255 255 255 255 255 255 255 255 255 255 255 255 255 255 255 255 255 255 255 255 255 255 255 255 255 255 255 255 255 255 255 255 255 255 255 255 255 255 255 255 255 255 255 255 255 255 255 255 255 255 255 255 255 255 255 255 255 255 255 255 255 255 
255 255 255 255 255 255 255 255 255 255 255 255 255 255 255 255 255 255 255 255 255 255 255 255 255 255 255 255 255 255 255 255 255 255 255 255 255 255 255 255 255 255 255 255 255 255 255 255 255 255 255 255 255 255 255 255 255 255 255 255 255 255 255 255 255 255 255 255 255 255 255 255 255 255 255 255 255 255 255 255 255 255 255 255 255 255 255 255 255 255 255 255 255 255 255 255 255 255 255 255 255 255 255 255 255 255 255 255 255 255 255 255 255 255 255 255 255 255 255 255 255 255 255 255 255 255 255 255 255 255 255 255 255 255 255 255 255 255 255 255 255 255 255 255 255 255 255 255 255 255 255 255 255 255 255 255 255 255 255 255 255 255 255 255 255 255 255 255 255 255 255 255 255 255 255 255 255 255 255 255 255 255 255 255 255 255 255 255 255 255 255 255 
255 255 255 255 255 255 255 255 255 255 255 255 255 255 255 255 255 255 255 255 255 255 255 255 255 255 255 255 255 255 255 255 255 255 255 255 255 255 255 255 255 255 255 255 255 255 255 255 255 255 255 255 255 255 255 255 255 255 255 255 255 255 255 255 255 255 255 255 255 255 255 255 255 255 255 255 255 255 255 255 255 255 255 255 255 255 255 255 255 255 255 255 255 255 255 255 255 255 255 255 255 255 255 255 255 255 255 255 255 255 255 255 255 255 255 255 255 255 255 255 255 255 255 255 255 255 255 255 255 255 255 255 255 255 255 255 255 255 255 255 255 255 255 255 255 255 255 255 255 255 255 255 255 255 255 255 255 255 255 255 255 255 255 255 255 255 255 255 255 255 255 255 255 255 255 255 255 255 255 255 255 255 255 255 255 255 255 255 255 255 255 255 
255 255 255 255 255 255 255 255 255 255 255 255 255 255 255 255 255 255 255 255 255 255 255 255 255 255 255 255 255 255 255 255 255 255 255 255 255 255 255 255 255 255 255 255 255 255 255 255 255 255 255 255 255 255 255 255 255 255 255 255 255 255 255 255 255 255 255 255 255 255 255 255 255 255 255 255 255 255 255 255 255 255 255 255 255 255 255 255 255 255 255 255 255 255 255 255 255 255 255 255 255 255 255 255 255 255 255 255 255 255 255 255 255 255 255 255 255 255 255 255 255 255 255 255 255 255 255 255 255 255 255 255 255 255 255 255 255 255 255 255 255 255 255 255 255 255 255 255 255 255 255 255 255 255 255 255 255 255 255 255 255 255 255 255 255 255 255 255 255 255 255 255 255 255 255 255 255 255 255 255 255 255 255 255 255 255 255 255 255 255 255 255 
255 255 255 255 255 255 255 255 255 255 255 255 255 255 255 255 255 255 255 255 255 255 255 255 255 255 255 255 255 255 255 255 255 255 255 255 255 255 255 255 255 255 255 255 255 255 255 255 255 255 255 255 255 255 255 255 255 255 255 255 255 255 255 255 255 255 255 255 255 255 255 255 255 255 255 255 255 255 255 255 255 255 255 255 255 255 255 255 255 255 255 255 255 255 255 255 255 255 255 255 255 255 255 255 255 255 255 255 255 255 255 255 255 255 255 255 255 255 255 255 255 255 255 255 255 255 255 255 255 255 255 255 255 255 255 255 255 255 255 255 255 255 255 255 255 255 255 255 255 255 255 255 255 255 255 255 255 255 255 255 255 255 255 255 255 255 255 255 255 255 255 255 255 255 255 255 255 255 255 255 255 255 255 255 255 255 255 255 255 255 255 255 
255 255 255 255 255 255 255 255 255 255 255 255 255 255 255 255 255 255 255 255 255 255 255 255 255 255 255 255 255 255 255 255 255 255 255 255 255 255 255 255 255 255 255 255 255 255 255 255 255 255 255 255 255 255 255 255 255 255 255 255 255 255 255 255 255 255 255 255 255 255 255 255 255 255 255 255 255 255 255 255 255 255 255 255 255 255 255 255 255 255 255 255 255 255 255 255 255 255 255 255 255 255 255 255 255 255 255 255 255 255 255 255 255 255 255 255 255 255 255 255 255 255 255 255 255 255 255 255 255 255 255 255 255 255 255 255 255 255 255 255 255 255 255 255 255 255 255 255 255 255 255 255 255 255 255 255 255 255 255 255 255 255 255 255 255 255 255 255 255 255 255 255 255 255 255 255 255 255 255 255 255 255 255 255 255 255 255 255 255 255 255 255 
