P3
64 64
255
255 255 255 255 255 255 255 255 255 255 255 255 255 255 255 255 255 255 255 255 255 255 255 255 255 255 255 255 255 255 255 255 255 255 255 255 255 255 255 255 255 255 255 255 255 255 255 255 255 255 255 255 255 255 255 255 255 255 255 255 255 255 255 255 255 255 255 255 255 255 255 255 255 255 255 255 255 255 255 255 255 255 255 255 255 255 255 255 255 255 255 255 255 255 255 255 255 255 255 255 255 255 255 255 255 255 255 255 255 255 255 255 255 255 255 255 255 255 255 255 255 255 255 255 255 255 255 255 255 255 255 255 255 255 255 255 255 255 255 255 255 255 255 255 255 255 255 255 255 255 255 255 255 255 255 255 255 255 255 255 255 255 255 255 255 255 255 255 255 255 255 255 255 255 255 255 255 255 255 255 255 255 255 255 255 255 255 255 255 255 255 255 
255 255 255 255 255 255 255 255 255 255 255 255 255 255 255 255 255 255 255 255 255 255 255 255 255 255 255 255 255 255 255 255 255 255 255 255 255 255 255 255 255 255 255 255 255 255 255 255 255 255 255 255 255 255 255 255 255 255 255 255 255 255 255 255 255 255 255 255 255 255 255 255 255 255 255 255 255 255 255 255 255 255 255 255 255 255 255 255 255 255 255 255 255 255 255 255 255 255 255 255 255 255 255 255 255 255 255 255 255 255 255 255 255 255 255 255 255 255 255 255 255 255 255 255 255 255 255 255 255 255 255 255 255 255 255 255 255 255 255 255 255 255 255 255 255 255 255 255 255 255 255 255 255 255 255 255 255 255 255 255 255 255 255 255 255 255 255 255 255 255 255 255 255 255 255 255 255 255 255 255 255 255 255 255 255 255 255 255 255 255 255 255 
255 255 255 255 255 255 255 255 255 255 255 255 255 255 255 255 255 255 255 255 255 255 255 255 255 255 255 255 255 255 255 255 255 255 255 255 255 255 255 255 255 255 255 255 255 255 255 255 255 255 255 255 255 255 255 255 255 255 255 255 255 255 255 255 255 255 255 255 255 255 255 255 255 255 255 255 255 255 255 255 255 255 255 255 255 255 255 255 255 255 255 255 255 255 255 255 255 255 255 255 255 255 255 255 255 255 255 255 255 255 255 255 255 255 255 255 255 255 255 255 255 255 255 255 255 255 255 255 255 255 255 255 255 255 255 255 255 255 255 255 255 255 255 255 255 255 255 255 255 255 255 255 255 255 255 255 255 255 255 255 255 255 255 255 255 255 255 255 255 255 255 255 255 255 255 255 255 255 255 255 255 255 255 255 255 255 255 255 255 255 255 255 
255 255 255 255 255 255 255 255 255 255 255 255 255 255 255 255 255 255 255 255 255 255 255 255 255 255 255 255 255 255 255 255 255 255 255 255 255 255 255 255 255 255 255 255 255 255 255 255 255 255 255 255 255 255 255 255 255 255 255 255 255 255 255 255 255 255 255 255 255 255 255 255 255 255 255 255 255 255 255 255 255 255 255 255 255 255 255 255 255 255 255 255 255 255 255 255 255 255 255 255 255 255 255 255 255 255 255 255 255 255 255 255 255 255 255 255 255 255 255 255 255 255 255 255 255 255 255 255 255 255 255 255 255 255 255 255 255 255 255 255 255 255 255 255 255 255 255 255 255 255 255 255 255 255 255 255 255 255 255 255 255 255 255 255 255 255 255 255 255 255 255 255 255 255 255 255 255 255 255 255 255 255 255 255 255 255 255 255 255 255 255 255 
255 255 255 255 255 255 255 255 255 255 255 255 255 255 255 255 255 255 255 255 255 255 255 255 255 255 255 255 255 255 255 255 255 255 255 255 255 255 255 255 255 255 255 255 255 255 255 255 255 255 255 255 255 255 255 255 255 255 255 255 255 255 255 255 255 255 255 255 255 255 255 255 255 255 255 255 255 255 255 255 255 255 255 255 255 255 255 255 255 255 255 255 255 255 255 255 255 255 255 255 255 255 255 255 255 255 255 255 255 255 255 208 176 0 136 96 0 255 255 255 255 255 255 255 255 255 255 255 255 255 255 255 255 255 255 255 255 255 255 255 255 255 255 255 255 255 255 255 255 255 255 255 255 255 255 255 255 255 255 255 255 255 255 255 255 255 255 255 255 255 255 255 255 255 255 255 255 255 255 255 255 255 255 255 255 255 255 255 255 255 255 255 
255 255 255 255 255 255 255 255 255 255 255 255 255 255 255 255 255 255 255 255 255 255 255 255 255 255 255 255 255 255 255 255 255 255 255 255 255 255 255 255 255 255 255 255 255 255 255 255 255 255 255 255 255 255 255 255 255 255 255 255 255 255 255 255 255 255 255 255 255 255 255 255 255 255 255 255 255 255 255 255 255 255 255 255 255 255 255 255 255 255 255 255 255 255 255 255 255 255 255 255 255 255 255 255 255 255 255 255 208 176 0 248 232 40 16 16 16 255 255 255 255 255 255 255 255 255 255 255 255 255 255 255 255 255 255 255 255 255 255 255 255 255 255 255 255 255 255 255 255 255 255 255 255 255 255 255 255 255 255 255 255 255 255 255 255 255 255 255 255 255 255 255 255 255 255 255 255 255 255 255 255 255 255 255 255 255 255 255 255 255 255 255 
255 255 255 255 255 255 255 255 255 255 255 255 255 255 255 255 255 255 255 255 255 255 255 255 255 255 255 255 255 255 255 255 255 255 255 255 255 255 255 255 255 255 255 255 255 255 255 255 255 255 255 255 255 255 255 255 255 255 255 255 255 255 255 255 255 255 255 255 255 255 255 255 255 255 255 255 255 255 255 255 255 255 255 255 255 255 255 255 255 255 255 255 255 255 255 255 255 255 255 255 255 255 255 255 255 208 176 0 248 232 40 248 232 40 16 16 16 255 255 255 255 255 255 255 255 255 255 255 255 255 255 255 255 255 255 255 255 255 255 255 255 255 255 255 255 255 255 255 255 255 255 255 255 255 255 255 255 255 255 255 255 255 255 255 255 255 255 255 255 255 255 255 255 255 255 255 255 255 255 255 255 255 255 255 255 255 255 255 255 255 255 255 
255 255 255 255 255 255 255 255 255 255 255 255 255 255 255 255 255 255 255 255 255 255 255 255 255 255 255 255 255 255 255 255 255 255 255 255 255 255 255 255 255 255 208 176 0 136 96 0 255 255 255 255 255 255 255 255 255 255 255 255 255 255 255 255 255 255 255 255 255 255 255 255 255 255 255 255 255 255 255 255 255 255 255 255 255 255 255 255 255 255 255 255 255 255 255 255 255 255 255 255 255 255 208 176 0 248 232 40 248 232 40 208 176 0 16 16 16 255 255 255 255 255 255 255 255 255 255 255 255 255 255 255 255 255 255 255 255 255 255 255 255 255 255 255 255 255 255 255 255 255 255 255 255 255 255 255 255 255 255 255 255 255 255 255 255 255 255 255 255 255 255 255 255 255 255 255 255 255 255 255 255 255 255 255 255 255 255 255 255 255 255 255 
255 255 255 255 255 255 255 255 255 255 255 255 255 255 255 255 255 255 255 255 255 255 255 255 255 255 255 255 255 255 255 255 255 255 255 255 255 255 255 255 255 255 208 176 0 248 232 40 208 176 0 136 96 0 255 255 255 255 255 255 255 255 255 255 255 255 255 255 255 255 255 255 255 255 255 255 255 255 255 255 255 255 255 255 255 255 255 255 255 255 255 255 255 255 255 255 255 255 255 136 96 0 248 232 40 248 232 40 248 232 40 208 176 0 136 96 0 255 255 255 255 255 255 255 255 255 255 255 255 255 255 255 255 255 255 255 255 255 255 255 255 255 255 255 255 255 255 255 255 255 255 255 255 255 255 255 255 255 255 255 255 255 255 255 255 255 255 255 255 255 255 255 255 255 255 255 255 255 255 255 255 255 255 255 255 255 255 255 255 255 255 255 
255 255 255 255 255 255 255 255 255 255 255 255 255 255 255 255 255 255 255 255 255 255 255 255 255 255 255 255 255 255 255 255 255 255 255 255 255 255 255 255 255 255 255 255 255 208 176 0 248 232 40 248 232 40 208 176 0 136 96 0 255 255 255 255 255 255 255 255 255 255 255 255 255 255 255 255 255 255 255 255 255 255 255 255 255 255 255 255 255 255 255 255 255 255 255 255 136 96 0 248 232 40 248 232 40 248 232 40 208 176 0 136 96 0 255 255 255 255 255 255 255 255 255 255 255 255 255 255 255 255 255 255 255 255 255 255 255 255 255 255 255 255 255 255 255 255 255 255 255 255 255 255 255 255 255 255 255 255 255 255 255 255 255 255 255 255 255 255 255 255 255 255 255 255 255 255 255 255 255 255 255 255 255 255 255 255 255 255 255 255 255 255 
255 255 255 255 255 255 255 255 255 255 255 255 255 255 255 255 255 255 255 255 255 255 255 255 255 255 255 255 255 255 255 255 255 255 255 255 255 255 255 255 255 255 255 255 255 136 96 0 248 232 40 248 232 40 248 232 40 248 232 40 136 96 0 136 96 0 255 255 255 255 255 255 255 255 255 255 255 255 255 255 255 255 255 255 255 255 255 255 255 255 255 255 255 136 96 0 248 232 40 248 232 40 248 232 40 248 232 40 208 176 0 16 16 16 255 255 255 255 255 255 255 255 255 255 255 255 255 255 255 255 255 255 255 255 255 255 255 255 255 255 255 255 255 255 255 255 255 255 255 255 255 255 255 255 255 255 255 255 255 255 255 255 255 255 255 255 255 255 255 255 255 255 255 255 255 255 255 255 255 255 255 255 255 255 255 255 255 255 255 255 255 255 
255 255 255 255 255 255 255 255 255 255 255 255 255 255 255 255 255 255 255 255 255 255 255 255 255 255 255 255 255 255 255 255 255 255 255 255 255 255 255 255 255 255 255 255 255 255 255 255 208 176 0 248 232 40 248 232 40 248 232 40 248 232 40 208 176 0 136 96 0 136 96 0 255 255 255 208 176 0 136 96 0 136 96 0 136 96 0 136 96 0 136 96 0 248 232 40 248 232 40 248 232 40 248 232 40 208 176 0 208 176 0 16 16 16 255 255 255 255 255 255 255 255 255 255 255 255 255 255 255 255 255 255 255 255 255 255 255 255 255 255 255 255 255 255 255 255 255 255 255 255 255 255 255 255 255 255 255 255 255 255 255 255 255 255 255 255 255 255 255 255 255 255 255 255 255 255 255 255 255 255 255 255 255 255 255 255 255 255 255 255 255 255 
255 255 255 255 255 255 255 255 255 255 255 255 255 255 255 255 255 255 255 255 255 255 255 255 255 255 255 255 255 255 255 255 255 255 255 255 255 255 255 255 255 255 255 255 255 255 255 255 136 96 0 248 232 40 248 232 40 248 232 40 208 176 0 208 176 0 208 176 0 136 96 0 136 96 0 248 248 120 248 232 40 248 232 40 208 176 0 208 176 0 248 232 40 248 232 40 248 232 40 248 232 40 248 232 40 208 176 0 208 176 0 16 16 16 255 255 255 255 255 255 255 255 255 255 255 255 255 255 255 255 255 255 255 255 255 255 255 255 255 255 255 255 255 255 255 255 255 255 255 255 255 255 255 255 255 255 255 255 255 255 255 255 255 255 255 255 255 255 255 255 255 255 255 255 255 255 255 255 255 255 255 255 255 255 255 255 255 255 255 255 255 255 
255 255 255 255 255 255 255 255 255 255 255 255 255 255 255 255 255 255 255 255 255 255 255 255 255 255 255 255 255 255 255 255 255 255 255 255 255 255 255 255 255 255 255 255 255 255 255 255 255 255 255 136 96 0 248 232 40 248 232 40 208 176 0 208 176 0 136 96 0 248 248 120 248 248 120 248 248 120 248 248 120 248 232 40 248 232 40 248 232 40 248 232 40 248 232 40 248 232 40 248 232 40 248 232 40 208 176 0 208 176 0 16 16 16 255 255 255 255 255 255 255 255 255 255 255 255 255 255 255 255 255 255 255 255 255 255 255 255 255 255 255 255 255 255 255 255 255 255 255 255 255 255 255 255 255 255 255 255 255 255 255 255 255 255 255 255 255 255 255 255 255 255 255 255 255 255 255 255 255 255 255 255 255 255 255 255 255 255 255 255 255 255 
255 255 255 255 255 255 255 255 255 255 255 255 255 255 255 255 255 255 255 255 255 255 255 255 255 255 255 255 255 255 255 255 255 255 255 255 255 255 255 255 255 255 255 255 255 255 255 255 255 255 255 136 96 0 248 232 40 248 232 40 208 176 0 136 96 0 248 248 120 248 248 120 248 248 120 248 248 120 248 248 120 248 248 120 248 232 40 248 232 40 248 232 40 248 232 40 248 232 40 248 232 40 248 232 40 208 176 0 208 176 0 16 16 16 255 255 255 255 255 255 255 255 255 255 255 255 255 255 255 255 255 255 255 255 255 255 255 255 255 255 255 255 255 255 255 255 255 255 255 255 255 255 255 255 255 255 255 255 255 255 255 255 255 255 255 255 255 255 255 255 255 255 255 255 255 255 255 255 255 255 255 255 255 255 255 255 255 255 255 255 255 255 
255 255 255 255 255 255 255 255 255 255 255 255 255 255 255 255 255 255 255 255 255 255 255 255 255 255 255 255 255 255 255 255 255 255 255 255 255 255 255 255 255 255 255 255 255 255 255 255 255 255 255 255 255 255 136 96 0 248 232 40 136 96 0 248 248 120 248 248 120 248 248 120 248 248 120 248 248 120 248 248 120 248 248 120 248 232 40 248 232 40 248 232 40 248 232 40 248 232 40 248 232 40 208 176 0 208 176 0 208 176 0 16 16 16 255 255 255 255 255 255 255 255 255 255 255 255 255 255 255 255 255 255 255 255 255 255 255 255 255 255 255 255 255 255 255 255 255 255 255 255 255 255 255 255 255 255 255 255 255 255 255 255 255 255 255 255 255 255 255 255 255 255 255 255 255 255 255 255 255 255 255 255 255 255 255 255 255 255 255 255 255 255 
255 255 255 255 255 255 255 255 255 255 255 255 255 255 255 255 255 255 255 255 255 255 255 255 255 255 255 255 255 255 255 255 255 255 255 255 255 255 255 255 255 255 255 255 255 255 255 255 255 255 255 255 255 255 136 96 0 248 232 40 208 176 0 248 248 120 248 248 120 248 248 120 248 248 120 248 248 120 248 248 120 248 248 120 248 232 40 248 232 40 248 232 40 248 232 40 248 232 40 208 176 0 208 176 0 208 176 0 208 176 0 136 96 0 16 16 16 255 255 255 255 255 255 255 255 255 255 255 255 255 255 255 255 255 255 255 255 255 255 255 255 255 255 255 255 255 255 255 255 255 255 255 255 255 255 255 255 255 255 255 255 255 255 255 255 255 255 255 255 255 255 255 255 255 255 255 255 255 255 255 255 255 255 255 255 255 255 255 255 255 255 255 
255 255 255 255 255 255 255 255 255 255 255 255 255 255 255 255 255 255 255 255 255 255 255 255 255 255 255 255 255 255 255 255 255 255 255 255 255 255 255 255 255 255 255 255 255 255 255 255 255 255 255 255 255 255 255 255 255 136 96 0 248 232 40 248 232 40 248 248 120 248 248 120 248 248 120 248 248 120 248 248 120 248 232 40 248 232 40 248 232 40 248 232 40 208 176 0 208 176 0 208 176 0 208 176 0 208 176 0 208 176 0 208 176 0 136 96 0 255 255 255 255 255 255 255 255 255 255 255 255 255 255 255 255 255 255 255 255 255 255 255 255 255 255 255 255 255 255 255 255 255 255 255 255 255 255 255 255 255 255 255 255 255 255 255 255 255 255 255 255 255 255 255 255 255 255 255 255 255 255 255 255 255 255 255 255 255 255 255 255 255 255 255 
255 255 255 255 255 255 255 255 255 255 255 255 255 255 255 255 255 255 255 255 255 255 255 255 255 255 255 255 255 255 255 255 255 255 255 255 255 255 255 255 255 255 255 255 255 255 255 255 255 255 255 255 255 255 255 255 255 136 96 0 248 232 40 248 232 40 248 232 40 248 248 120 248 248 120 248 248 120 248 232 40 248 232 40 248 232 40 248 232 40 248 232 40 248 232 40 136 96 0 208 176 0 208 176 0 208 176 0 208 176 0 208 176 0 208 176 0 136 96 0 255 255 255 255 255 255 255 255 255 255 255 255 255 255 255 255 255 255 255 255 255 255 255 255 255 255 255 255 255 255 255 255 255 255 255 255 255 255 255 255 255 255 255 255 255 255 255 255 255 255 255 255 255 255 255 255 255 255 255 255 255 255 255 255 255 255 255 255 255 255 255 255 
255 255 255 255 255 255 255 255 255 255 255 255 255 255 255 255 255 255 255 255 255 255 255 255 255 255 255 255 255 255 255 255 255 255 255 255 255 255 255 255 255 255 255 255 255 255 255 255 255 255 255 255 255 255 255 255 255 136 96 0 248 232 40 248 232 40 248 232 40 248 232 40 248 232 40 248 232 40 248 232 40 248 232 40 248 248 120 248 248 120 136 96 0 136 96 0 136 96 0 208 176 0 208 176 0 208 176 0 208 176 0 208 176 0 208 176 0 208 176 0 16 16 16 255 255 255 255 255 255 255 255 255 255 255 255 255 255 255 255 255 255 255 255 255 255 255 255 255 255 255 255 255 255 255 255 255 255 255 255 255 255 255 255 255 255 255 255 255 255 255 255 255 255 255 255 255 255 255 255 255 255 255 255 255 255 255 255 255 255 255 255 255 
255 255 255 255 255 255 255 255 255 255 255 255 255 255 255 255 255 255 255 255 255 255 255 255 255 255 255 255 255 255 255 255 255 255 255 255 255 255 255 255 255 255 255 255 255 255 255 255 255 255 255 255 255 255 255 255 255 136 96 0 208 176 0 208 176 0 248 248 120 248 232 40 248 232 40 248 232 40 248 232 40 248 248 120 136 96 0 136 96 0 248 248 248 248 248 248 208 176 0 208 176 0 208 176 0 208 176 0 208 176 0 208 176 0 208 176 0 136 96 0 16 16 16 255 255 255 255 255 255 255 255 255 255 255 255 255 255 255 255 255 255 255 255 255 255 255 255 255 255 255 255 255 255 255 255 255 255 255 255 255 255 255 255 255 255 255 255 255 255 255 255 255 255 255 255 255 255 255 255 255 255 255 255 255 255 255 255 255 255 255 255 255 
255 255 255 255 255 255 255 255 255 88 88 88 88 88 88 255 255 255 255 255 255 255 255 255 255 255 255 255 255 255 255 255 255 255 255 255 255 255 255 255 255 255 255 255 255 255 255 255 255 255 255 255 255 255 136 96 0 248 232 40 208 176 0 248 248 248 136 96 0 248 232 40 248 232 40 248 232 40 248 232 40 136 96 0 216 216 216 16 16 16 248 248 248 136 96 0 208 176 0 208 176 0 208 176 0 208 176 0 208 176 0 136 96 0 16 16 16 16 16 16 102 51 0 102 51 0 102 51 0 102 51 0 255 255 255 255 255 255 255 255 255 255 255 255 255 255 255 255 255 255 255 255 255 255 255 255 255 255 255 255 255 255 255 255 255 255 255 255 255 255 255 255 255 255 255 255 255 255 255 255 255 255 255 255 255 255 255 255 255 255 255 255 
255 255 255 255 255 255 255 255 255 88 88 88 216 216 216 88 88 88 255 255 255 136 96 0 136 96 0 255 255 255 255 255 255 255 255 255 255 255 255 255 255 255 255 255 255 255 255 255 255 255 255 136 96 0 248 232 40 248 232 40 248 232 40 136 96 0 248 248 248 16 16 16 248 232 40 248 232 40 248 232 40 136 96 0 136 96 0 136 96 0 208 176 0 208 176 0 208 176 0 208 176 0 208 176 0 136 96 0 16 16 16 16 16 16 136 96 16 136 96 16 136 96 16 168 128 40 168 128 40 168 128 40 102 51 0 102 51 0 255 255 255 255 255 255 255 255 255 255 255 255 255 255 255 255 255 255 255 255 255 255 255 255 255 255 255 255 255 255 255 255 255 255 255 255 255 255 255 255 255 255 255 255 255 255 255 255 255 255 255 255 255 255 
255 255 255 255 255 255 255 255 255 88 88 88 176 176 176 176 176 176 136 96 0 248 248 120 248 248 120 208 176 0 136 96 0 136 96 0 255 255 255 255 255 255 255 255 255 255 255 255 255 255 255 136 96 0 248 232 40 248 232 40 248 232 40 248 232 40 136 96 0 136 96 0 248 232 40 248 232 40 248 232 40 136 96 0 208 176 0 208 176 0 208 176 0 208 176 0 208 176 0 136 96 0 16 16 16 16 16 16 136 96 16 136 96 16 136 96 16 136 96 16 168 128 40 168 128 40 168 128 40 168 128 40 168 128 40 168 128 40 102 51 0 255 255 255 255 255 255 255 255 255 255 255 255 255 255 255 255 255 255 255 255 255 255 255 255 255 255 255 255 255 255 255 255 255 255 255 255 255 255 255 255 255 255 255 255 255 255 255 255 255 255 255 
255 255 255 255 255 255 255 255 255 255 255 255 136 96 0 136 96 0 248 248 120 248 248 120 248 248 120 248 232 40 248 232 40 248 232 40 136 96 0 136 96 0 255 255 255 255 255 255 255 255 255 255 255 255 136 96 0 136 96 0 16 16 16 208 176 0 248 232 40 136 96 0 208 176 0 248 232 40 136 96 0 208 176 0 208 176 0 208 176 0 208 176 0 136 96 0 16 16 16 16 16 16 136 96 16 16 16 16 136 96 16 136 96 16 136 96 16 168 128 40 168 128 40 168 128 40 168 128 40 168 128 40 168 128 40 168 128 40 136 96 16 16 16 16 255 255 255 255 255 255 255 255 255 255 255 255 255 255 255 255 255 255 255 255 255 255 255 255 255 255 255 255 255 255 255 255 255 255 255 255 255 255 255 255 255 255 255 255 255 255 255 255 
255 255 255 255 255 255 255 255 255 255 255 255 136 96 0 248 232 40 248 232 40 248 232 40 248 232 40 248 232 40 248 232 40 248 232 40 208 176 0 208 176 0 136 96 0 255 255 255 255 255 255 255 255 255 255 255 255 255 255 255 255 255 255 16 16 16 208 176 0 136 96 0 208 176 0 248 232 40 136 96 0 208 176 0 208 176 0 208 176 0 136 96 0 16 16 16 16 16 16 136 96 16 136 96 16 16 16 16 136 96 16 136 96 16 136 96 16 136 96 16 168 128 40 168 128 40 168 128 40 168 128 40 136 96 16 136 96 16 136 96 16 16 16 16 255 255 255 255 255 255 255 255 255 255 255 255 255 255 255 255 255 255 255 255 255 255 255 255 255 255 255 255 255 255 255 255 255 255 255 255 255 255 255 255 255 255 255 255 255 255 255 255 
255 255 255 255 255 255 255 255 255 208 176 0 248 232 40 248 232 40 248 232 40 136 96 0 248 232 40 248 232 40 248 232 40 248 232 40 208 176 0 208 176 0 16 16 16 255 255 255 255 255 255 255 255 255 255 255 255 255 255 255 102 51 0 168 128 40 102 51 0 136 96 0 248 232 40 248 232 40 136 96 0 208 176 0 208 176 0 102 51 0 16 16 16 16 16 16 16 16 16 136 96 16 136 96 16 102 51 0 136 96 16 136 96 16 136 96 16 136 96 16 136 96 16 136 96 16 136 96 16 136 96 16 136 96 16 102 51 0 16 16 16 255 255 255 255 255 255 255 255 255 255 255 255 255 255 255 255 255 255 255 255 255 255 255 255 255 255 255 255 255 255 255 255 255 255 255 255 255 255 255 255 255 255 255 255 255 255 255 255 255 255 255 
255 255 255 255 255 255 255 255 255 136 96 0 248 232 40 248 232 40 208 176 0 136 96 0 248 232 40 248 232 40 248 232 40 136 96 0 136 96 0 208 176 0 208 176 0 16 16 16 255 255 255 255 255 255 255 255 255 255 255 255 102 51 0 102 51 0 102 51 0 102 51 0 248 232 40 248 232 40 136 96 0 208 176 0 208 176 0 208 176 0 208 176 0 208 176 0 102 51 0 102 51 0 136 96 16 136 96 16 102 51 0 136 96 16 136 96 16 136 96 16 136 96 16 136 96 16 102 51 0 16 16 16 16 16 16 16 16 16 255 255 255 255 255 255 255 255 255 255 255 255 255 255 255 255 255 255 255 255 255 255 255 255 255 255 255 255 255 255 255 255 255 255 255 255 255 255 255 255 255 255 255 255 255 255 255 255 255 255 255 255 255 255 
255 255 255 255 255 255 255 255 255 136 96 0 248 232 40 208 176 0 136 96 0 248 232 40 248 232 40 248 232 40 136 96 0 208 176 0 208 176 0 208 176 0 208 176 0 208 176 0 16 16 16 255 255 255 255 255 255 255 255 255 102 51 0 248 232 40 208 176 0 102 51 0 248 232 40 248 232 40 248 232 40 208 176 0 102 51 0 16 16 16 16 16 16 102 51 0 208 176 0 208 176 0 16 16 16 136 96 16 102 51 0 16 16 16 102 51 0 102 51 0 102 51 0 16 16 16 16 16 16 208 176 0 208 176 0 16 16 16 255 255 255 255 255 255 255 255 255 255 255 255 255 255 255 255 255 255 255 255 255 255 255 255 255 255 255 255 255 255 255 255 255 255 255 255 255 255 255 255 255 255 255 255 255 255 255 255 255 255 255 255 255 255 
255 255 255 255 255 255 255 255 255 16 16 16 248 232 40 208 176 0 136 96 0 248 232 40 248 232 40 248 232 40 136 96 0 102 51 0 208 176 0 208 176 0 208 176 0 208 176 0 16 16 16 16 16 16 255 255 255 102 51 0 248 232 40 208 176 0 102 51 0 102 51 0 248 232 40 248 232 40 102 51 0 208 176 0 16 16 16 168 128 40 168 128 40 168 128 40 102 51 0 208 176 0 208 176 0 16 16 16 136 96 16 102 51 0 16 16 16 16 16 16 16 16 16 16 16 16 16 16 16 136 96 0 248 232 40 208 176 0 16 16 16 255 255 255 255 255 255 255 255 255 255 255 255 255 255 255 255 255 255 255 255 255 255 255 255 255 255 255 255 255 255 255 255 255 255 255 255 255 255 255 255 255 255 255 255 255 255 255 255 255 255 255 
255 255 255 255 255 255 255 255 255 255 255 255 16 16 16 16 16 16 136 96 0 248 232 40 248 232 40 136 96 0 176 176 176 216 216 216 88 88 88 88 88 88 88 88 88 208 176 0 16 16 16 168 128 40 102 51 0 248 232 40 248 232 40 102 51 0 102 51 0 102 51 0 136 96 0 248 232 40 248 232 40 208 176 0 16 16 16 168 128 40 168 128 40 168 128 40 16 16 16 208 176 0 248 232 40 208 176 0 16 16 16 136 96 16 102 51 0 102 51 0 136 96 16 16 16 16 255 255 255 255 255 255 136 96 0 248 232 40 208 176 0 102 51 0 16 16 16 16 16 16 255 255 255 255 255 255 255 255 255 255 255 255 255 255 255 255 255 255 255 255 255 255 255 255 255 255 255 255 255 255 255 255 255 255 255 255 255 255 255 255 255 255 
255 255 255 255 255 255 255 255 255 255 255 255 255 255 255 255 255 255 16 16 16 248 232 40 208 176 0 136 96 0 176 176 176 216 216 216 248 248 248 216 216 216 176 176 176 88 88 88 168 128 40 168 128 40 102 51 0 248 232 40 248 232 40 16 16 16 208 176 0 102 51 0 16 16 16 16 16 16 16 16 16 16 16 16 168 128 40 168 128 40 168 128 40 136 96 16 136 96 16 16 16 16 248 232 40 248 232 40 16 16 16 136 96 16 136 96 16 136 96 16 136 96 16 16 16 16 255 255 255 255 255 255 102 51 0 102 51 0 102 51 0 208 176 80 208 176 80 168 128 40 102 51 0 255 255 255 255 255 255 255 255 255 255 255 255 255 255 255 255 255 255 255 255 255 255 255 255 255 255 255 255 255 255 255 255 255 255 255 255 255 255 255 
255 255 255 255 255 255 255 255 255 255 255 255 255 255 255 255 255 255 16 16 16 208 176 0 208 176 0 136 96 0 88 88 88 248 248 248 248 248 248 248 248 248 216 216 216 176 176 176 88 88 88 168 128 40 102 51 0 248 232 40 248 232 40 16 16 16 102 51 0 255 255 255 255 255 255 255 255 255 255 255 255 255 255 255 102 51 0 136 96 16 136 96 16 136 96 16 136 96 16 16 16 16 248 232 40 248 232 40 208 176 0 16 16 16 136 96 16 136 96 16 102 51 0 102 51 0 102 51 0 102 51 0 208 176 80 208 176 80 208 176 80 208 176 80 168 128 40 168 128 40 136 96 16 102 51 0 255 255 255 255 255 255 255 255 255 255 255 255 255 255 255 255 255 255 255 255 255 255 255 255 255 255 255 255 255 255 255 255 255 255 255 255 
255 255 255 255 255 255 255 255 255 255 255 255 255 255 255 255 255 255 255 255 255 16 16 16 16 16 16 248 232 40 88 88 88 248 248 248 248 248 248 248 248 248 216 216 216 176 176 176 88 88 88 168 128 40 102 51 0 248 232 40 248 232 40 16 16 16 255 255 255 255 255 255 255 255 255 255 255 255 255 255 255 255 255 255 255 255 255 102 51 0 16 16 16 16 16 16 16 16 16 16 16 16 248 232 40 248 232 40 248 232 40 102 51 0 136 96 16 102 51 0 102 51 0 208 176 80 208 176 80 208 176 80 208 176 80 208 176 80 168 128 40 168 128 40 168 128 40 136 96 16 136 96 16 16 16 16 255 255 255 255 255 255 255 255 255 255 255 255 255 255 255 255 255 255 255 255 255 255 255 255 255 255 255 255 255 255 255 255 255 255 255 255 
255 255 255 255 255 255 255 255 255 255 255 255 255 255 255 255 255 255 255 255 255 255 255 255 16 16 16 248 232 40 88 88 88 248 248 248 248 248 248 216 216 216 216 216 216 176 176 176 88 88 88 168 128 40 102 51 0 248 232 40 248 232 40 16 16 16 255 255 255 255 255 255 255 255 255 255 255 255 255 255 255 255 255 255 255 255 255 255 255 255 255 255 255 255 255 255 102 51 0 136 96 16 16 16 16 248 232 40 248 232 40 208 176 0 102 51 0 168 128 40 168 128 40 168 128 40 208 176 80 208 176 80 168 128 40 168 128 40 168 128 40 136 96 16 136 96 16 136 96 16 102 51 0 16 16 16 255 255 255 255 255 255 255 255 255 255 255 255 255 255 255 255 255 255 255 255 255 255 255 255 255 255 255 255 255 255 255 255 255 255 255 255 
255 255 255 255 255 255 255 255 255 255 255 255 255 255 255 255 255 255 255 255 255 255 255 255 16 16 16 248 232 40 248 232 40 88 88 88 216 216 216 216 216 216 176 176 176 88 88 88 136 96 16 136 96 16 102 51 0 248 232 40 208 176 0 16 16 16 255 255 255 255 255 255 255 255 255 255 255 255 255 255 255 255 255 255 88 88 88 88 88 88 88 88 88 88 88 88 255 255 255 102 51 0 16 16 16 208 176 0 248 232 40 102 51 0 102 51 0 102 51 0 102 51 0 168 128 40 168 128 40 168 128 40 168 128 40 136 96 16 136 96 16 136 96 16 136 96 16 102 51 0 16 16 16 255 255 255 255 255 255 255 255 255 255 255 255 255 255 255 255 255 255 255 255 255 255 255 255 255 255 255 255 255 255 255 255 255 255 255 255 255 255 255 
255 255 255 255 255 255 255 255 255 255 255 255 255 255 255 255 255 255 255 255 255 255 255 255 255 255 255 136 96 0 16 16 16 255 255 255 88 88 88 88 88 88 88 88 88 102 51 0 102 51 0 102 51 0 248 232 40 248 232 40 208 176 0 16 16 16 255 255 255 255 255 255 255 255 255 255 255 255 255 255 255 88 88 88 248 248 248 248 248 248 216 216 216 216 216 216 88 88 88 208 176 0 208 176 0 102 51 0 102 51 0 208 176 0 248 232 40 16 16 16 16 16 16 102 51 0 168 128 40 168 128 40 136 96 16 136 96 16 136 96 16 136 96 16 102 51 0 16 16 16 255 255 255 255 255 255 255 255 255 255 255 255 255 255 255 255 255 255 255 255 255 255 255 255 255 255 255 255 255 255 255 255 255 255 255 255 255 255 255 255 255 255 
255 255 255 255 255 255 255 255 255 255 255 255 255 255 255 255 255 255 255 255 255 255 255 255 255 255 255 255 255 255 255 255 255 255 255 255 102 51 0 248 232 40 248 232 40 248 232 40 248 232 40 248 232 40 248 232 40 248 232 40 208 176 0 16 16 16 255 255 255 255 255 255 255 255 255 255 255 255 255 255 255 88 88 88 248 248 248 248 248 248 216 216 216 216 216 216 176 176 176 88 88 88 102 51 0 248 248 120 248 232 40 248 232 40 248 232 40 248 232 40 16 16 16 16 16 16 102 51 0 136 96 16 136 96 16 136 96 16 102 51 0 16 16 16 255 255 255 255 255 255 255 255 255 255 255 255 255 255 255 255 255 255 255 255 255 255 255 255 255 255 255 255 255 255 255 255 255 255 255 255 255 255 255 255 255 255 255 255 255 255 255 255 
255 255 255 255 255 255 255 255 255 255 255 255 255 255 255 255 255 255 255 255 255 255 255 255 255 255 255 255 255 255 255 255 255 255 255 255 255 255 255 136 96 0 248 232 40 248 232 40 248 232 40 248 232 40 248 232 40 208 176 0 136 96 0 16 16 16 255 255 255 255 255 255 255 255 255 255 255 255 255 255 255 88 88 88 248 248 248 216 216 216 216 216 216 176 176 176 176 176 176 102 51 0 248 248 120 248 248 120 248 248 120 248 232 40 248 232 40 248 232 40 208 176 0 16 16 16 102 51 0 136 96 16 136 96 16 102 51 0 16 16 16 255 255 255 255 255 255 255 255 255 255 255 255 255 255 255 255 255 255 255 255 255 255 255 255 255 255 255 255 255 255 255 255 255 255 255 255 255 255 255 255 255 255 255 255 255 255 255 255 255 255 255 
255 255 255 255 255 255 255 255 255 255 255 255 255 255 255 255 255 255 255 255 255 255 255 255 255 255 255 255 255 255 255 255 255 255 255 255 136 96 0 248 232 40 208 176 0 208 176 0 248 232 40 248 232 40 248 232 40 208 176 0 16 16 16 255 255 255 255 255 255 255 255 255 255 255 255 255 255 255 255 255 255 255 255 255 88 88 88 216 216 216 176 176 176 176 176 176 176 176 176 136 96 0 248 232 40 248 248 120 248 248 120 248 248 120 248 232 40 248 232 40 208 176 0 16 16 16 102 51 0 136 96 16 16 16 16 16 16 16 255 255 255 255 255 255 255 255 255 255 255 255 255 255 255 255 255 255 255 255 255 255 255 255 255 255 255 255 255 255 255 255 255 255 255 255 255 255 255 255 255 255 255 255 255 255 255 255 255 255 255 255 255 255 
255 255 255 255 255 255 255 255 255 255 255 255 255 255 255 255 255 255 255 255 255 255 255 255 255 255 255 255 255 255 255 255 255 255 255 255 255 255 255 136 96 0 136 96 0 136 96 0 248 232 40 248 232 40 248 232 40 208 176 0 16 16 16 255 255 255 255 255 255 255 255 255 255 255 255 255 255 255 136 96 0 136 96 0 248 232 40 88 88 88 88 88 88 88 88 88 102 51 0 248 232 40 248 232 40 136 96 0 248 248 120 248 232 40 248 232 40 208 176 0 136 96 0 102 51 0 136 96 16 136 96 16 16 16 16 255 255 255 255 255 255 255 255 255 255 255 255 255 255 255 255 255 255 255 255 255 255 255 255 255 255 255 255 255 255 255 255 255 255 255 255 255 255 255 255 255 255 255 255 255 255 255 255 255 255 255 255 255 255 255 255 255 
255 255 255 255 255 255 255 255 255 255 255 255 255 255 255 255 255 255 255 255 255 255 255 255 255 255 255 255 255 255 255 255 255 255 255 255 255 255 255 255 255 255 136 96 0 208 176 0 208 176 0 208 176 0 208 176 0 16 16 16 255 255 255 255 255 255 255 255 255 102 51 0 102 51 0 102 51 0 248 232 40 248 232 40 208 176 0 208 176 0 16 16 16 255 255 255 136 96 0 248 232 40 208 176 0 208 176 0 136 96 0 248 232 40 248 232 40 208 176 0 16 16 16 16 16 16 16 16 16 16 16 16 208 176 0 102 51 0 255 255 255 255 255 255 255 255 255 255 255 255 255 255 255 255 255 255 255 255 255 255 255 255 255 255 255 255 255 255 255 255 255 255 255 255 255 255 255 255 255 255 255 255 255 255 255 255 255 255 255 255 255 255 
255 255 255 255 255 255 255 255 255 255 255 255 255 255 255 255 255 255 255 255 255 255 255 255 255 255 255 255 255 255 255 255 255 255 255 255 255 255 255 255 255 255 136 96 0 16 16 16 16 16 16 16 16 16 16 16 16 255 255 255 255 255 255 255 255 255 102 51 0 168 128 40 168 128 40 102 51 0 248 232 40 208 176 0 208 176 0 16 16 16 255 255 255 255 255 255 136 96 0 208 176 0 208 176 0 16 16 16 16 16 16 248 232 40 208 176 0 208 176 0 16 16 16 176 176 176 88 88 88 248 232 40 248 232 40 208 176 0 102 51 0 102 51 0 16 16 16 255 255 255 255 255 255 255 255 255 255 255 255 255 255 255 255 255 255 255 255 255 255 255 255 255 255 255 255 255 255 255 255 255 255 255 255 255 255 255 255 255 255 255 255 255 
255 255 255 255 255 255 255 255 255 255 255 255 255 255 255 255 255 255 255 255 255 255 255 255 255 255 255 255 255 255 255 255 255 255 255 255 255 255 255 255 255 255 255 255 255 255 255 255 255 255 255 255 255 255 255 255 255 255 255 255 255 255 255 102 51 0 208 176 80 208 176 80 168 128 40 168 128 40 102 51 0 102 51 0 102 51 0 255 255 255 255 255 255 255 255 255 255 255 255 136 96 0 16 16 16 255 255 255 16 16 16 208 176 0 208 176 0 136 96 0 88 88 88 88 88 88 176 176 176 88 88 88 248 232 40 208 176 0 102 51 0 136 96 16 136 96 16 102 51 0 16 16 16 16 16 16 16 16 16 255 255 255 255 255 255 255 255 255 255 255 255 255 255 255 255 255 255 255 255 255 255 255 255 255 255 255 255 255 255 255 255 255 
255 255 255 255 255 255 255 255 255 255 255 255 255 255 255 255 255 255 255 255 255 255 255 255 255 255 255 255 255 255 255 255 255 255 255 255 255 255 255 255 255 255 255 255 255 255 255 255 255 255 255 255 255 255 255 255 255 255 255 255 255 255 255 102 51 0 208 176 80 208 176 80 168 128 40 136 96 16 136 96 16 102 51 0 102 51 0 16 16 16 255 255 255 255 255 255 255 255 255 255 255 255 255 255 255 255 255 255 136 96 0 208 176 0 208 176 0 16 16 16 255 255 255 88 88 88 88 88 88 88 88 88 208 176 0 208 176 0 102 51 0 168 128 40 168 128 40 136 96 16 136 96 16 102 51 0 136 96 16 16 16 16 255 255 255 255 255 255 255 255 255 255 255 255 255 255 255 255 255 255 255 255 255 255 255 255 255 255 255 255 255 255 
255 255 255 255 255 255 255 255 255 255 255 255 255 255 255 255 255 255 255 255 255 255 255 255 255 255 255 255 255 255 255 255 255 255 255 255 255 255 255 255 255 255 255 255 255 255 255 255 255 255 255 255 255 255 255 255 255 255 255 255 255 255 255 102 51 0 168 128 40 168 128 40 168 128 40 136 96 16 136 96 16 136 96 16 136 96 16 102 51 0 16 16 16 255 255 255 255 255 255 255 255 255 255 255 255 255 255 255 255 255 255 136 96 0 16 16 16 16 16 16 255 255 255 255 255 255 255 255 255 255 255 255 102 51 0 102 51 0 102 51 0 208 176 80 168 128 40 136 96 16 136 96 16 136 96 16 136 96 16 16 16 16 255 255 255 255 255 255 255 255 255 255 255 255 255 255 255 255 255 255 255 255 255 255 255 255 255 255 255 255 255 255 
255 255 255 255 255 255 255 255 255 255 255 255 255 255 255 255 255 255 255 255 255 255 255 255 255 255 255 255 255 255 255 255 255 255 255 255 255 255 255 255 255 255 255 255 255 255 255 255 255 255 255 255 255 255 255 255 255 255 255 255 255 255 255 102 51 0 168 128 40 168 128 40 136 96 16 136 96 16 136 96 16 16 16 16 16 16 16 102 51 0 16 16 16 255 255 255 255 255 255 255 255 255 255 255 255 255 255 255 255 255 255 255 255 255 255 255 255 255 255 255 255 255 255 255 255 255 255 255 255 255 255 255 255 255 255 102 51 0 208 176 80 208 176 80 168 128 40 136 96 16 136 96 16 136 96 16 16 16 16 136 96 0 16 16 16 255 255 255 255 255 255 255 255 255 255 255 255 255 255 255 255 255 255 255 255 255 255 255 255 255 255 255 
255 255 255 255 255 255 255 255 255 255 255 255 255 255 255 255 255 255 255 255 255 255 255 255 255 255 255 255 255 255 255 255 255 255 255 255 255 255 255 255 255 255 255 255 255 255 255 255 255 255 255 255 255 255 255 255 255 255 255 255 255 255 255 102 51 0 136 96 16 136 96 16 136 96 16 16 16 16 16 16 16 208 176 0 208 176 0 16 16 16 16 16 16 255 255 255 255 255 255 255 255 255 255 255 255 255 255 255 255 255 255 255 255 255 255 255 255 255 255 255 255 255 255 255 255 255 255 255 255 255 255 255 255 255 255 102 51 0 168 128 40 168 128 40 168 128 40 136 96 16 136 96 16 16 16 16 136 96 0 208 176 0 208 176 0 136 96 0 16 16 16 255 255 255 255 255 255 255 255 255 255 255 255 255 255 255 255 255 255 255 255 255 
255 255 255 255 255 255 255 255 255 255 255 255 255 255 255 255 255 255 255 255 255 255 255 255 255 255 255 255 255 255 255 255 255 255 255 255 255 255 255 255 255 255 255 255 255 255 255 255 255 255 255 255 255 255 255 255 255 255 255 255 255 255 255 255 255 255 102 51 0 136 96 16 136 96 16 16 16 16 208 176 0 208 176 0 208 176 0 208 176 0 16 16 16 255 255 255 255 255 255 255 255 255 255 255 255 255 255 255 255 255 255 255 255 255 255 255 255 255 255 255 255 255 255 255 255 255 255 255 255 255 255 255 255 255 255 255 255 255 102 51 0 16 16 16 16 16 16 136 96 16 136 96 16 16 16 16 136 96 0 208 176 0 208 176 0 208 176 0 136 96 0 16 16 16 255 255 255 255 255 255 255 255 255 255 255 255 255 255 255 255 255 255 
255 255 255 255 255 255 255 255 255 255 255 255 255 255 255 255 255 255 255 255 255 255 255 255 255 255 255 255 255 255 255 255 255 255 255 255 255 255 255 255 255 255 255 255 255 255 255 255 255 255 255 255 255 255 255 255 255 255 255 255 255 255 255 255 255 255 136 96 0 16 16 16 16 16 16 208 176 0 248 232 40 208 176 0 208 176 0 208 176 0 136 96 0 255 255 255 255 255 255 255 255 255 255 255 255 255 255 255 255 255 255 255 255 255 255 255 255 255 255 255 255 255 255 255 255 255 255 255 255 255 255 255 255 255 255 255 255 255 255 255 255 136 96 0 208 176 0 16 16 16 16 16 16 136 96 0 248 232 40 248 232 40 208 176 0 208 176 0 208 176 0 16 16 16 255 255 255 255 255 255 255 255 255 255 255 255 255 255 255 255 255 255 
255 255 255 255 255 255 255 255 255 255 255 255 255 255 255 255 255 255 255 255 255 255 255 255 255 255 255 255 255 255 255 255 255 255 255 255 255 255 255 255 255 255 255 255 255 255 255 255 255 255 255 255 255 255 255 255 255 255 255 255 255 255 255 136 96 0 208 176 0 248 232 40 248 232 40 248 232 40 248 232 40 208 176 0 208 176 0 208 176 0 208 176 0 136 96 0 255 255 255 255 255 255 255 255 255 255 255 255 255 255 255 255 255 255 255 255 255 255 255 255 255 255 255 255 255 255 255 255 255 255 255 255 255 255 255 255 255 255 255 255 255 255 255 255 136 96 0 208 176 0 208 176 0 208 176 0 248 232 40 248 232 40 248 232 40 208 176 0 208 176 0 136 96 0 255 255 255 255 255 255 255 255 255 255 255 255 255 255 255 255 255 255 
255 255 255 255 255 255 255 255 255 255 255 255 255 255 255 255 255 255 255 255 255 255 255 255 255 255 255 255 255 255 255 255 255 255 255 255 255 255 255 255 255 255 255 255 255 255 255 255 255 255 255 255 255 255 255 255 255 255 255 255 255 255 255 136 96 0 248 248 120 248 232 40 248 232 40 248 232 40 248 232 40 248 232 40 208 176 0 208 176 0 208 176 0 16 16 16 255 255 255 255 255 255 255 255 255 255 255 255 255 255 255 255 255 255 255 255 255 255 255 255 255 255 255 255 255 255 255 255 255 255 255 255 255 255 255 255 255 255 255 255 255 255 255 255 136 96 0 248 232 40 248 232 40 248 232 40 248 232 40 248 232 40 248 232 40 208 176 0 208 176 0 208 176 0 16 16 16 255 255 255 255 255 255 255 255 255 255 255 255 255 255 255 
255 255 255 255 255 255 255 255 255 255 255 255 255 255 255 255 255 255 255 255 255 255 255 255 255 255 255 255 255 255 255 255 255 255 255 255 255 255 255 255 255 255 255 255 255 255 255 255 255 255 255 255 255 255 255 255 255 255 255 255 136 96 0 248 248 120 248 248 120 248 232 40 248 232 40 248 232 40 248 248 120 248 232 40 208 176 0 208 176 0 208 176 0 16 16 16 255 255 255 255 255 255 255 255 255 255 255 255 255 255 255 255 255 255 255 255 255 255 255 255 255 255 255 255 255 255 255 255 255 255 255 255 255 255 255 255 255 255 255 255 255 255 255 255 136 96 0 248 232 40 248 232 40 248 232 40 248 232 40 248 232 40 248 232 40 208 176 0 208 176 0 208 176 0 136 96 0 255 255 255 255 255 255 255 255 255 255 255 255 255 255 255 
255 255 255 255 255 255 255 255 255 255 255 255 255 255 255 255 255 255 255 255 255 255 255 255 255 255 255 255 255 255 255 255 255 255 255 255 255 255 255 255 255 255 255 255 255 255 255 255 255 255 255 255 255 255 255 255 255 88 88 88 136 96 0 248 248 120 248 232 40 208 176 0 248 232 40 248 248 120 248 248 120 208 176 0 208 176 0 208 176 0 208 176 0 16 16 16 255 255 255 255 255 255 255 255 255 255 255 255 255 255 255 255 255 255 255 255 255 255 255 255 255 255 255 255 255 255 255 255 255 255 255 255 255 255 255 255 255 255 255 255 255 255 255 255 255 255 255 136 96 0 248 248 120 248 232 40 248 232 40 208 176 0 248 232 40 208 176 0 208 176 0 208 176 0 208 176 0 136 96 0 255 255 255 255 255 255 255 255 255 255 255 255 
255 255 255 255 255 255 255 255 255 255 255 255 255 255 255 255 255 255 255 255 255 255 255 255 255 255 255 255 255 255 255 255 255 255 255 255 255 255 255 255 255 255 255 255 255 255 255 255 255 255 255 255 255 255 88 88 88 248 248 248 136 96 0 248 232 40 208 176 0 208 176 0 136 96 0 248 232 40 136 96 0 136 96 0 208 176 0 208 176 0 136 96 0 16 16 16 255 255 255 255 255 255 255 255 255 255 255 255 255 255 255 255 255 255 255 255 255 255 255 255 255 255 255 255 255 255 255 255 255 255 255 255 255 255 255 255 255 255 255 255 255 255 255 255 255 255 255 136 96 0 248 248 120 248 248 120 248 232 40 208 176 0 136 96 0 208 176 0 136 96 0 136 96 0 208 176 0 16 16 16 255 255 255 255 255 255 255 255 255 255 255 255 
255 255 255 255 255 255 255 255 255 255 255 255 255 255 255 255 255 255 255 255 255 255 255 255 255 255 255 255 255 255 255 255 255 255 255 255 255 255 255 255 255 255 255 255 255 255 255 255 255 255 255 88 88 88 248 248 248 216 216 216 176 176 176 136 96 0 208 176 0 16 16 16 208 176 0 136 96 0 248 248 248 216 216 216 136 96 0 208 176 0 208 176 0 16 16 16 255 255 255 255 255 255 255 255 255 255 255 255 255 255 255 255 255 255 255 255 255 255 255 255 255 255 255 255 255 255 255 255 255 255 255 255 255 255 255 255 255 255 255 255 255 255 255 255 255 255 255 136 96 0 136 96 0 136 96 0 208 176 0 208 176 0 16 16 16 136 96 0 216 216 216 216 216 216 136 96 0 16 16 16 255 255 255 255 255 255 255 255 255 255 255 255 
255 255 255 255 255 255 255 255 255 255 255 255 255 255 255 255 255 255 255 255 255 255 255 255 255 255 255 255 255 255 255 255 255 255 255 255 255 255 255 255 255 255 255 255 255 255 255 255 255 255 255 136 96 0 16 16 16 16 16 16 16 16 16 16 16 16 16 16 16 16 16 16 136 96 0 248 248 248 216 216 216 176 176 176 16 16 16 16 16 16 16 16 16 255 255 255 255 255 255 255 255 255 255 255 255 255 255 255 255 255 255 255 255 255 255 255 255 255 255 255 255 255 255 255 255 255 255 255 255 255 255 255 255 255 255 255 255 255 255 255 255 255 255 255 255 255 255 88 88 88 216 216 216 216 216 216 136 96 0 16 16 16 16 16 16 16 16 16 176 176 176 216 216 216 16 16 16 16 16 16 255 255 255 255 255 255 255 255 255 255 255 255 
255 255 255 255 255 255 255 255 255 255 255 255 255 255 255 255 255 255 255 255 255 255 255 255 255 255 255 255 255 255 255 255 255 255 255 255 255 255 255 255 255 255 255 255 255 255 255 255 255 255 255 255 255 255 255 255 255 255 255 255 255 255 255 255 255 255 255 255 255 255 255 255 16 16 16 16 16 16 16 16 16 16 16 16 255 255 255 255 255 255 255 255 255 255 255 255 255 255 255 255 255 255 255 255 255 255 255 255 255 255 255 255 255 255 255 255 255 255 255 255 255 255 255 255 255 255 255 255 255 255 255 255 255 255 255 255 255 255 255 255 255 255 255 255 255 255 255 88 88 88 216 216 216 176 176 176 16 16 16 255 255 255 255 255 255 255 255 255 88 88 88 176 176 176 16 16 16 255 255 255 255 255 255 255 255 255 255 255 255 255 255 255 
255 255 255 255 255 255 255 255 255 255 255 255 255 255 255 255 255 255 255 255 255 255 255 255 255 255 255 255 255 255 255 255 255 255 255 255 255 255 255 255 255 255 255 255 255 255 255 255 255 255 255 255 255 255 255 255 255 255 255 255 255 255 255 255 255 255 255 255 255 255 255 255 255 255 255 255 255 255 255 255 255 255 255 255 255 255 255 255 255 255 255 255 255 255 255 255 255 255 255 255 255 255 255 255 255 255 255 255 255 255 255 255 255 255 255 255 255 255 255 255 255 255 255 255 255 255 255 255 255 255 255 255 255 255 255 255 255 255 255 255 255 255 255 255 255 255 255 88 88 88 176 176 176 16 16 16 255 255 255 255 255 255 255 255 255 255 255 255 255 255 255 88 88 88 16 16 16 255 255 255 255 255 255 255 255 255 255 255 255 255 255 255 
255 255 255 255 255 255 255 255 255 255 255 255 255 255 255 255 255 255 255 255 255 255 255 255 255 255 255 255 255 255 255 255 255 255 255 255 255 255 255 255 255 255 255 255 255 255 255 255 255 255 255 255 255 255 255 255 255 255 255 255 255 255 255 255 255 255 255 255 255 255 255 255 255 255 255 255 255 255 255 255 255 255 255 255 255 255 255 255 255 255 255 255 255 255 255 255 255 255 255 255 255 255 255 255 255 255 255 255 255 255 255 255 255 255 255 255 255 255 255 255 255 255 255 255 255 255 255 255 255 255 255 255 255 255 255 255 255 255 255 255 255 255 255 255 255 255 255 88 88 88 16 16 16 255 255 255 255 255 255 255 255 255 255 255 255 255 255 255 255 255 255 255 255 255 255 255 255 255 255 255 255 255 255 255 255 255 255 255 255 255 255 255 
255 255 255 255 255 255 255 255 255 255 255 255 255 255 255 255 255 255 255 255 255 255 255 255 255 255 255 255 255 255 255 255 255 255 255 255 255 255 255 255 255 255 255 255 255 255 255 255 255 255 255 255 255 255 255 255 255 255 255 255 255 255 255 255 255 255 255 255 255 255 255 255 255 255 255 255 255 255 255 255 255 255 255 255 255 255 255 255 255 255 255 255 255 255 255 255 255 255 255 255 255 255 255 255 255 255 255 255 255 255 255 255 255 255 255 255 255 255 255 255 255 255 255 255 255 255 255 255 255 255 255 255 255 255 255 255 255 255 255 255 255 255 255 255 255 255 255 255 255 255 255 255 255 255 255 255 255 255 255 255 255 255 255 255 255 255 255 255 255 255 255 255 255 255 255 255 255 255 255 255 255 255 255 255 255 255 255 255 255 255 255 255 
255 255 255 255 255 255 255 255 255 255 255 255 255 255 255 255 255 255 255 255 255 255 255 255 255 255 255 255 255 255 255 255 255 255 255 255 255 255 255 255 255 255 255 255 255 255 255 255 255 255 255 255 255 255 255 255 255 255 255 255 255 255 255 255 255 255 255 255 255 255 255 255 255 255 255 255 255 255 255 255 255 255 255 255 255 255 255 255 255 255 255 255 255 255 255 255 255 255 255 255 255 255 255 255 255 255 255 255 255 255 255 255 255 255 255 255 255 255 255 255 255 255 255 255 255 255 255 255 255 255 255 255 255 255 255 255 255 255 255 255 255 255 255 255 255 255 255 255 255 255 255 255 255 255 255 255 255 255 255 255 255 255 255 255 255 255 255 255 255 255 255 255 255 255 255 255 255 255 255 255 255 255 255 255 255 255 255 255 255 255 255 255 
255 255 255 255 255 255 255 255 255 255 255 255 255 255 255 255 255 255 255 255 255 255 255 255 255 255 255 255 255 255 255 255 255 255 255 255 255 255 255 255 255 255 255 255 255 255 255 255 255 255 255 255 255 255 255 255 255 255 255 255 255 255 255 255 255 255 255 255 255 255 255 255 255 255 255 255 255 255 255 255 255 255 255 255 255 255 255 255 255 255 255 255 255 255 255 255 255 255 255 255 255 255 255 255 255 255 255 255 255 255 255 255 255 255 255 255 255 255 255 255 255 255 255 255 255 255 255 255 255 255 255 255 255 255 255 255 255 255 255 255 255 255 255 255 255 255 255 255 255 255 255 255 255 255 255 255 255 255 255 255 255 255 255 255 255 255 255 255 255 255 255 255 255 255 255 255 255 255 255 255 255 255 255 255 255 255 255 255 255 255 255 255 
255 255 255 255 255 255 255 255 255 255 255 255 255 255 255 255 255 255 255 255 255 255 255 255 255 255 255 255 255 255 255 255 255 255 255 255 255 255 255 255 255 255 255 255 255 255 255 255 255 255 255 255 255 255 255 255 255 255 255 255 255 255 255 255 255 255 255 255 255 255 255 255 255 255 255 255 255 255 255 255 255 255 255 255 255 255 255 255 255 255 255 255 255 255 255 255 255 255 255 255 255 255 255 255 255 255 255 255 255 255 255 255 255 255 255 255 255 255 255 255 255 255 255 255 255 255 255 255 255 255 255 255 255 255 255 255 255 255 255 255 255 255 255 255 255 255 255 255 255 255 255 255 255 255 255 255 255 255 255 255 255 255 255 255 255 255 255 255 255 255 255 255 255 255 255 255 255 255 255 255 255 255 255 255 255 255 255 255 255 255 255 255 
