P3
64 64
255
255 255 255 255 255 255 255 255 255 255 255 255 255 255 255 255 255 255 255 255 255 255 255 255 255 255 255 255 255 255 255 255 255 255 255 255 255 255 255 255 255 255 255 255 255 255 255 255 255 255 255 255 255 255 255 255 255 255 255 255 255 255 255 255 255 255 80 96 40 255 255 255 255 255 255 255 255 255 255 255 255 255 255 255 255 255 255 255 255 255 255 255 255 255 255 255 255 255 255 255 255 255 255 255 255 80 96 40 16 16 16 255 255 255 255 255 255 255 255 255 255 255 255 255 255 255 255 255 255 255 255 255 255 255 255 255 255 255 255 255 255 255 255 255 255 255 255 255 255 255 255 255 255 255 255 255 255 255 255 255 255 255 255 255 255 255 255 255 255 255 255 255 255 255 255 255 255 255 255 255 255 255 255 255 255 255 255 255 255 255 255 255 
255 255 255 255 255 255 255 255 255 255 255 255 255 255 255 255 255 255 255 255 255 255 255 255 255 255 255 255 255 255 255 255 255 255 255 255 255 255 255 255 255 255 255 255 255 255 255 255 255 255 255 255 255 255 255 255 255 255 255 255 255 255 255 80 96 40 112 168 48 80 96 40 255 255 255 255 255 255 255 255 255 255 255 255 255 255 255 255 255 255 255 255 255 255 255 255 255 255 255 255 255 255 80 96 40 112 168 48 16 16 16 255 255 255 255 255 255 255 255 255 255 255 255 255 255 255 255 255 255 255 255 255 255 255 255 255 255 255 255 255 255 255 255 255 255 255 255 255 255 255 255 255 255 255 255 255 255 255 255 255 255 255 255 255 255 255 255 255 255 255 255 255 255 255 255 255 255 255 255 255 255 255 255 255 255 255 255 255 255 255 255 255 
255 255 255 255 255 255 255 255 255 255 255 255 255 255 255 255 255 255 255 255 255 255 255 255 255 255 255 255 255 255 255 255 255 255 255 255 255 255 255 255 255 255 255 255 255 255 255 255 255 255 255 255 255 255 255 255 255 255 255 255 255 255 255 80 96 40 112 168 48 80 96 40 255 255 255 255 255 255 255 255 255 255 255 255 255 255 255 255 255 255 255 255 255 255 255 255 255 255 255 80 96 40 112 168 48 80 96 40 255 255 255 255 255 255 255 255 255 255 255 255 255 255 255 255 255 255 255 255 255 255 255 255 255 255 255 255 255 255 255 255 255 255 255 255 255 255 255 255 255 255 255 255 255 255 255 255 255 255 255 255 255 255 255 255 255 255 255 255 255 255 255 255 255 255 255 255 255 255 255 255 255 255 255 255 255 255 255 255 255 255 255 255 
255 255 255 255 255 255 255 255 255 255 255 255 255 255 255 255 255 255 255 255 255 255 255 255 255 255 255 255 255 255 255 255 255 255 255 255 255 255 255 255 255 255 255 255 255 255 255 255 255 255 255 255 255 255 255 255 255 255 255 255 255 255 255 80 96 40 112 168 48 112 168 48 16 16 16 255 255 255 255 255 255 255 255 255 255 255 255 255 255 255 255 255 255 255 255 255 80 96 40 112 168 48 112 168 48 16 16 16 255 255 255 255 255 255 255 255 255 255 255 255 255 255 255 255 255 255 255 255 255 255 255 255 255 255 255 255 255 255 255 255 255 255 255 255 255 255 255 255 255 255 255 255 255 255 255 255 255 255 255 255 255 255 255 255 255 255 255 255 255 255 255 255 255 255 255 255 255 255 255 255 255 255 255 255 255 255 255 255 255 255 255 255 
255 255 255 255 255 255 255 255 255 255 255 255 255 255 255 255 255 255 255 255 255 255 255 255 255 255 255 255 255 255 255 255 255 255 255 255 255 255 255 255 255 255 255 255 255 255 255 255 255 255 255 255 255 255 255 255 255 255 255 255 255 255 255 80 96 40 112 168 48 152 208 72 80 96 40 255 255 255 255 255 255 255 255 255 255 255 255 255 255 255 255 255 255 80 96 40 152 208 72 112 168 48 112 168 48 16 16 16 255 255 255 255 255 255 255 255 255 255 255 255 255 255 255 255 255 255 255 255 255 255 255 255 255 255 255 255 255 255 255 255 255 255 255 255 255 255 255 255 255 255 255 255 255 255 255 255 255 255 255 255 255 255 255 255 255 255 255 255 255 255 255 255 255 255 255 255 255 255 255 255 255 255 255 255 255 255 255 255 255 255 255 255 
255 255 255 255 255 255 255 255 255 255 255 255 255 255 255 255 255 255 255 255 255 255 255 255 255 255 255 255 255 255 255 255 255 255 255 255 255 255 255 255 255 255 255 255 255 255 255 255 255 255 255 255 255 255 255 255 255 255 255 255 255 255 255 80 96 40 112 168 48 152 208 72 152 208 72 16 16 16 255 255 255 255 255 255 255 255 255 255 255 255 80 96 40 152 208 72 152 208 72 152 208 72 16 16 16 255 255 255 255 255 255 255 255 255 255 255 255 255 255 255 255 255 255 255 255 255 255 255 255 255 255 255 255 255 255 255 255 255 255 255 255 255 255 255 255 255 255 255 255 255 255 255 255 255 255 255 255 255 255 255 255 255 255 255 255 255 255 255 255 255 255 255 255 255 255 255 255 255 255 255 255 255 255 255 255 255 255 255 255 255 255 255 
255 255 255 255 255 255 255 255 255 255 255 255 255 255 255 255 255 255 255 255 255 255 255 255 255 255 255 255 255 255 255 255 255 255 255 255 255 255 255 255 255 255 255 255 255 255 255 255 255 255 255 255 255 255 255 255 255 255 255 255 255 255 255 80 96 40 152 208 72 152 208 72 152 208 72 80 96 40 255 255 255 255 255 255 255 255 255 255 255 255 112 168 48 152 208 72 152 208 72 152 208 72 80 96 40 255 255 255 255 255 255 255 255 255 255 255 255 255 255 255 255 255 255 255 255 255 255 255 255 112 168 48 80 96 40 80 96 40 80 96 40 80 96 40 80 96 40 255 255 255 255 255 255 255 255 255 255 255 255 255 255 255 255 255 255 255 255 255 255 255 255 255 255 255 255 255 255 255 255 255 255 255 255 255 255 255 255 255 255 255 255 255 
255 255 255 255 255 255 255 255 255 255 255 255 255 255 255 255 255 255 255 255 255 255 255 255 255 255 255 255 255 255 255 255 255 255 255 255 255 255 255 255 255 255 255 255 255 255 255 255 255 255 255 255 255 255 255 255 255 255 255 255 255 255 255 80 96 40 152 208 72 152 208 72 184 248 112 184 248 112 16 16 16 255 255 255 255 255 255 80 96 40 184 248 112 152 208 72 184 248 112 16 16 16 255 255 255 255 255 255 255 255 255 255 255 255 255 255 255 255 255 255 80 96 40 80 96 40 112 168 48 152 208 72 112 168 48 112 168 48 112 168 48 112 168 48 112 168 48 16 16 16 16 16 16 255 255 255 255 255 255 255 255 255 255 255 255 255 255 255 255 255 255 255 255 255 255 255 255 255 255 255 255 255 255 255 255 255 255 255 255 255 255 255 
255 255 255 255 255 255 255 255 255 255 255 255 255 255 255 255 255 255 255 255 255 255 255 255 255 255 255 255 255 255 255 255 255 255 255 255 255 255 255 255 255 255 255 255 255 255 255 255 255 255 255 255 255 255 255 255 255 255 255 255 255 255 255 112 168 48 184 248 112 152 208 72 184 248 112 184 248 112 16 16 16 255 255 255 255 255 255 112 168 48 184 248 112 184 248 112 184 248 112 16 16 16 255 255 255 255 255 255 255 255 255 255 255 255 80 96 40 112 168 48 152 208 72 152 208 72 152 208 72 152 208 72 152 208 72 152 208 72 112 168 48 80 96 40 16 16 16 255 255 255 255 255 255 255 255 255 255 255 255 255 255 255 255 255 255 255 255 255 255 255 255 255 255 255 255 255 255 255 255 255 255 255 255 255 255 255 255 255 255 255 255 255 
255 255 255 255 255 255 255 255 255 255 255 255 255 255 255 255 255 255 255 255 255 255 255 255 255 255 255 255 255 255 255 255 255 255 255 255 255 255 255 255 255 255 255 255 255 255 255 255 255 255 255 255 255 255 255 255 255 255 255 255 255 255 255 255 255 255 112 168 48 184 248 112 184 248 112 184 248 112 80 96 40 255 255 255 80 96 40 184 248 112 184 248 112 184 248 112 80 96 40 255 255 255 255 255 255 255 255 255 80 96 40 112 168 48 184 248 112 184 248 112 152 208 72 152 208 72 152 208 72 152 208 72 112 168 48 80 96 40 16 16 16 255 255 255 255 255 255 255 255 255 255 255 255 255 255 255 255 255 255 255 255 255 255 255 255 255 255 255 255 255 255 255 255 255 255 255 255 255 255 255 255 255 255 255 255 255 255 255 255 255 255 255 
255 255 255 255 255 255 255 255 255 255 255 255 255 255 255 255 255 255 255 255 255 80 96 40 80 96 40 80 96 40 80 96 40 80 96 40 80 96 40 112 168 48 255 255 255 255 255 255 255 255 255 255 255 255 255 255 255 255 255 255 255 255 255 255 255 255 80 96 40 184 248 112 152 208 72 184 248 112 152 208 72 80 96 40 80 96 40 184 248 112 152 208 72 184 248 112 16 16 16 255 255 255 255 255 255 80 96 40 184 248 112 184 248 112 184 248 112 152 208 72 152 208 72 184 248 112 184 248 112 80 96 40 16 16 16 255 255 255 255 255 255 255 255 255 255 255 255 255 255 255 255 255 255 255 255 255 255 255 255 255 255 255 255 255 255 255 255 255 255 255 255 255 255 255 255 255 255 255 255 255 255 255 255 255 255 255 255 255 255 255 255 255 
255 255 255 255 255 255 255 255 255 255 255 255 255 255 255 255 255 255 255 255 255 255 255 255 80 96 40 112 168 48 112 168 48 112 168 48 112 168 48 112 168 48 80 96 40 80 96 40 112 168 48 255 255 255 255 255 255 255 255 255 255 255 255 255 255 255 80 96 40 152 208 72 152 208 72 152 208 72 152 208 72 16 16 16 80 96 40 152 208 72 152 208 72 152 208 72 16 16 16 255 255 255 80 96 40 184 248 112 184 248 112 152 208 72 184 248 112 184 248 112 184 248 112 80 96 40 16 16 16 255 255 255 255 255 255 255 255 255 255 255 255 255 255 255 255 255 255 255 255 255 255 255 255 255 255 255 255 255 255 255 255 255 255 255 255 255 255 255 255 255 255 255 255 255 255 255 255 255 255 255 255 255 255 255 255 255 255 255 255 255 255 255 
255 255 255 255 255 255 255 255 255 255 255 255 255 255 255 255 255 255 255 255 255 255 255 255 255 255 255 80 96 40 112 168 48 152 208 72 152 208 72 152 208 72 112 168 48 152 208 72 112 168 48 80 96 40 112 168 48 255 255 255 255 255 255 255 255 255 255 255 255 112 168 48 152 208 72 152 208 72 152 208 72 16 16 16 152 208 72 152 208 72 152 208 72 152 208 72 80 96 40 80 96 40 152 208 72 152 208 72 152 208 72 152 208 72 152 208 72 184 248 112 16 16 16 255 255 255 255 255 255 112 168 48 80 96 40 80 96 40 16 16 16 16 16 16 16 16 16 16 16 16 255 255 255 255 255 255 255 255 255 255 255 255 255 255 255 255 255 255 255 255 255 255 255 255 255 255 255 255 255 255 255 255 255 255 255 255 255 255 255 255 255 255 
255 255 255 255 255 255 255 255 255 255 255 255 255 255 255 255 255 255 255 255 255 255 255 255 255 255 255 255 255 255 80 96 40 112 168 48 152 208 72 152 208 72 152 208 72 184 248 112 184 248 112 184 248 112 112 168 48 80 96 40 112 168 48 255 255 255 255 255 255 80 96 40 152 208 72 152 208 72 152 208 72 80 96 40 152 208 72 152 208 72 152 208 72 80 96 40 80 96 40 152 208 72 152 208 72 152 208 72 152 208 72 152 208 72 184 248 112 16 16 16 80 96 40 80 96 40 112 168 48 184 248 112 184 248 112 152 208 72 152 208 72 112 168 48 112 168 48 112 168 48 80 96 40 80 96 40 16 16 16 255 255 255 255 255 255 255 255 255 255 255 255 255 255 255 255 255 255 255 255 255 255 255 255 255 255 255 255 255 255 255 255 255 
255 255 255 255 255 255 255 255 255 255 255 255 255 255 255 255 255 255 255 255 255 255 255 255 255 255 255 255 255 255 255 255 255 80 96 40 80 96 40 152 208 72 152 208 72 152 208 72 184 248 112 184 248 112 184 248 112 184 248 112 152 208 72 80 96 40 80 96 40 80 96 40 112 168 48 152 208 72 152 208 72 112 168 48 80 96 40 152 208 72 152 208 72 80 96 40 152 208 72 152 208 72 152 208 72 152 208 72 152 208 72 152 208 72 16 16 16 80 96 40 184 248 112 184 248 112 184 248 112 152 208 72 152 208 72 152 208 72 152 208 72 152 208 72 152 208 72 152 208 72 112 168 48 112 168 48 112 168 48 80 96 40 16 16 16 255 255 255 255 255 255 255 255 255 255 255 255 255 255 255 255 255 255 255 255 255 255 255 255 255 255 255 
255 255 255 255 255 255 255 255 255 255 255 255 255 255 255 255 255 255 255 255 255 255 255 255 255 255 255 255 255 255 255 255 255 255 255 255 255 255 255 16 16 16 184 248 112 184 248 112 184 248 112 184 248 112 184 248 112 152 208 72 152 208 72 152 208 72 152 208 72 80 96 40 80 96 40 112 168 48 152 208 72 112 168 48 80 96 40 152 208 72 112 168 48 80 96 40 152 208 72 152 208 72 152 208 72 152 208 72 152 208 72 80 96 40 80 96 40 152 208 72 152 208 72 184 248 112 184 248 112 184 248 112 184 248 112 184 248 112 152 208 72 152 208 72 152 208 72 152 208 72 152 208 72 152 208 72 112 168 48 112 168 48 112 168 48 16 16 16 255 255 255 255 255 255 255 255 255 255 255 255 255 255 255 255 255 255 255 255 255 255 255 255 
255 255 255 255 255 255 255 255 255 255 255 255 255 255 255 255 255 255 255 255 255 255 255 255 255 255 255 255 255 255 255 255 255 255 255 255 255 255 255 255 255 255 16 16 16 80 96 40 184 248 112 152 208 72 152 208 72 152 208 72 152 208 72 152 208 72 152 208 72 112 168 48 80 96 40 112 168 48 112 168 48 112 168 48 80 96 40 112 168 48 80 96 40 112 168 48 152 208 72 152 208 72 112 168 48 80 96 40 80 96 40 152 208 72 152 208 72 152 208 72 152 208 72 152 208 72 152 208 72 184 248 112 152 208 72 152 208 72 152 208 72 112 168 48 112 168 48 16 16 16 16 16 16 16 16 16 16 16 16 16 16 16 16 16 16 80 96 40 255 255 255 255 255 255 255 255 255 255 255 255 255 255 255 255 255 255 255 255 255 255 255 255 
255 255 255 255 255 255 255 255 255 255 255 255 255 255 255 255 255 255 255 255 255 255 255 255 255 255 255 255 255 255 255 255 255 255 255 255 255 255 255 255 255 255 255 255 255 255 255 255 16 16 16 184 248 112 152 208 72 152 208 72 152 208 72 152 208 72 152 208 72 152 208 72 112 168 48 80 96 40 112 168 48 112 168 48 80 96 40 112 168 48 80 96 40 112 168 48 112 168 48 112 168 48 80 96 40 112 168 48 152 208 72 152 208 72 152 208 72 152 208 72 152 208 72 152 208 72 184 248 112 184 248 112 184 248 112 16 16 16 16 16 16 16 16 16 80 96 40 255 255 255 255 255 255 255 255 255 255 255 255 255 255 255 255 255 255 255 255 255 255 255 255 255 255 255 255 255 255 255 255 255 255 255 255 255 255 255 255 255 255 255 255 255 
255 255 255 255 255 255 255 255 255 255 255 255 255 255 255 255 255 255 255 255 255 255 255 255 255 255 255 255 255 255 255 255 255 255 255 255 255 255 255 255 255 255 255 255 255 255 255 255 255 255 255 16 16 16 80 96 40 152 208 72 152 208 72 152 208 72 152 208 72 112 168 48 112 168 48 112 168 48 80 96 40 112 168 48 80 96 40 112 168 48 80 96 40 112 168 48 112 168 48 80 96 40 112 168 48 152 208 72 152 208 72 152 208 72 152 208 72 152 208 72 152 208 72 112 168 48 16 16 16 16 16 16 16 16 16 255 255 255 255 255 255 255 255 255 255 255 255 255 255 255 255 255 255 255 255 255 255 255 255 255 255 255 255 255 255 255 255 255 255 255 255 255 255 255 255 255 255 255 255 255 255 255 255 255 255 255 255 255 255 255 255 255 
255 255 255 255 255 255 255 255 255 255 255 255 255 255 255 255 255 255 255 255 255 255 255 255 255 255 255 255 255 255 255 255 255 255 255 255 255 255 255 255 255 255 255 255 255 255 255 255 255 255 255 255 255 255 255 255 255 80 96 40 16 16 16 112 168 48 112 168 48 112 168 48 112 168 48 112 168 48 80 96 40 112 168 48 112 168 48 112 168 48 16 16 16 112 168 48 80 96 40 112 168 48 112 168 48 112 168 48 152 208 72 152 208 72 152 208 72 112 168 48 16 16 16 16 16 16 255 255 255 255 255 255 255 255 255 255 255 255 255 255 255 255 255 255 255 255 255 255 255 255 255 255 255 255 255 255 255 255 255 255 255 255 255 255 255 255 255 255 255 255 255 255 255 255 255 255 255 255 255 255 255 255 255 255 255 255 255 255 255 255 255 255 
255 255 255 255 255 255 255 255 255 255 255 255 255 255 255 255 255 255 255 255 255 255 255 255 255 255 255 255 255 255 255 255 255 255 255 255 255 255 255 255 255 255 80 96 40 16 16 16 16 16 16 16 16 16 16 16 16 16 16 16 16 16 16 16 16 16 16 16 16 80 96 40 112 168 48 112 168 48 112 168 48 16 16 16 112 168 48 80 96 40 16 16 16 112 168 48 80 96 40 112 168 48 112 168 48 112 168 48 112 168 48 112 168 48 80 96 40 16 16 16 255 255 255 255 255 255 160 104 32 16 16 16 16 16 16 16 16 16 16 16 16 160 104 32 255 255 255 255 255 255 255 255 255 255 255 255 255 255 255 255 255 255 255 255 255 255 255 255 255 255 255 255 255 255 255 255 255 255 255 255 255 255 255 255 255 255 255 255 255 255 255 255 
255 255 255 255 255 255 255 255 255 255 255 255 255 255 255 255 255 255 255 255 255 255 255 255 255 255 255 255 255 255 255 255 255 80 96 40 80 96 40 112 168 48 184 248 112 184 248 112 152 208 72 152 208 72 152 208 72 152 208 72 152 208 72 112 168 48 112 168 48 112 168 48 80 96 40 80 96 40 80 96 40 80 96 40 16 16 16 80 96 40 16 16 16 80 96 40 112 168 48 112 168 48 80 96 40 80 96 40 80 96 40 80 96 40 80 96 40 255 255 255 16 16 16 160 104 32 224 168 88 224 168 88 248 216 104 16 16 16 248 248 248 248 248 248 160 104 32 16 16 16 16 16 16 255 255 255 255 255 255 255 255 255 255 255 255 255 255 255 255 255 255 255 255 255 255 255 255 255 255 255 255 255 255 255 255 255 255 255 255 255 255 255 
255 255 255 255 255 255 255 255 255 255 255 255 255 255 255 255 255 255 255 255 255 255 255 255 255 255 255 80 96 40 112 168 48 184 248 112 184 248 112 184 248 112 184 248 112 152 208 72 152 208 72 152 208 72 152 208 72 152 208 72 152 208 72 152 208 72 152 208 72 112 168 48 112 168 48 80 96 40 112 168 48 80 96 40 80 96 40 80 96 40 80 96 40 80 96 40 80 96 40 80 96 40 152 208 72 152 208 72 152 208 72 80 96 40 80 96 40 160 104 32 224 168 88 224 168 88 248 216 104 248 216 104 160 104 32 248 248 248 248 248 248 16 16 16 248 248 248 248 232 160 248 232 160 16 16 16 255 255 255 255 255 255 255 255 255 255 255 255 255 255 255 255 255 255 255 255 255 255 255 255 255 255 255 255 255 255 255 255 255 255 255 255 
255 255 255 255 255 255 255 255 255 255 255 255 255 255 255 255 255 255 255 255 255 255 255 255 80 96 40 152 208 72 184 248 112 152 208 72 152 208 72 184 248 112 184 248 112 152 208 72 152 208 72 152 208 72 152 208 72 152 208 72 152 208 72 152 208 72 112 168 48 112 168 48 112 168 48 80 96 40 16 16 16 16 16 16 16 16 16 80 96 40 80 96 40 80 96 40 112 168 48 152 208 72 152 208 72 152 208 72 152 208 72 184 248 112 184 248 112 80 96 40 80 96 40 224 168 88 248 216 104 248 216 104 224 168 88 224 168 88 248 248 248 248 232 160 248 232 160 248 232 160 16 16 16 16 16 16 255 255 255 255 255 255 255 255 255 255 255 255 255 255 255 255 255 255 255 255 255 255 255 255 255 255 255 255 255 255 255 255 255 255 255 255 
255 255 255 255 255 255 255 255 255 255 255 255 255 255 255 255 255 255 255 255 255 80 96 40 152 208 72 152 208 72 152 208 72 152 208 72 184 248 112 184 248 112 184 248 112 184 248 112 184 248 112 152 208 72 152 208 72 152 208 72 112 168 48 80 96 40 80 96 40 80 96 40 80 96 40 112 168 48 112 168 48 112 168 48 112 168 48 80 96 40 80 96 40 112 168 48 152 208 72 152 208 72 152 208 72 184 248 112 184 248 112 184 248 112 152 208 72 184 248 112 184 248 112 80 96 40 224 168 88 248 216 104 248 216 104 248 216 104 248 232 160 248 232 160 248 232 160 16 16 16 248 248 248 160 104 32 160 104 32 255 255 255 255 255 255 255 255 255 255 255 255 255 255 255 255 255 255 255 255 255 255 255 255 255 255 255 255 255 255 255 255 255 
255 255 255 255 255 255 255 255 255 255 255 255 255 255 255 255 255 255 80 96 40 112 168 48 152 208 72 152 208 72 152 208 72 152 208 72 152 208 72 184 248 112 184 248 112 152 208 72 112 168 48 80 96 40 16 16 16 16 16 16 80 96 40 152 208 72 152 208 72 152 208 72 152 208 72 112 168 48 112 168 48 16 16 16 16 16 16 80 96 40 80 96 40 80 96 40 16 16 16 16 16 16 16 16 16 16 16 16 112 168 48 184 248 112 184 248 112 152 208 72 152 208 72 152 208 72 80 96 40 248 216 104 248 216 104 248 216 104 160 104 32 16 16 16 16 16 16 16 16 16 160 104 32 160 104 32 248 232 160 160 104 32 255 255 255 255 255 255 255 255 255 255 255 255 255 255 255 255 255 255 255 255 255 255 255 255 255 255 255 255 255 255 
255 255 255 255 255 255 255 255 255 255 255 255 255 255 255 80 96 40 112 168 48 152 208 72 152 208 72 112 168 48 152 208 72 152 208 72 152 208 72 112 168 48 16 16 16 16 16 16 16 16 16 255 255 255 80 96 40 112 168 48 184 248 112 152 208 72 152 208 72 152 208 72 152 208 72 152 208 72 16 16 16 80 96 40 80 96 40 80 96 40 160 104 32 160 104 32 224 168 88 224 168 88 224 168 88 224 168 88 16 16 16 16 16 16 16 16 16 112 168 48 152 208 72 152 208 72 152 208 72 80 96 40 248 216 104 248 216 104 248 216 104 224 168 88 160 104 32 160 104 32 160 104 32 248 232 160 248 232 160 16 16 16 255 255 255 255 255 255 255 255 255 255 255 255 255 255 255 255 255 255 255 255 255 255 255 255 255 255 255 255 255 255 
255 255 255 255 255 255 255 255 255 255 255 255 255 255 255 80 96 40 152 208 72 152 208 72 112 168 48 152 208 72 152 208 72 112 168 48 16 16 16 16 16 16 255 255 255 255 255 255 255 255 255 112 168 48 184 248 112 184 248 112 152 208 72 184 248 112 152 208 72 152 208 72 16 16 16 16 16 16 160 104 32 160 104 32 80 96 40 160 104 32 248 216 104 248 216 104 248 216 104 248 216 104 248 216 104 248 216 104 224 168 88 224 168 88 224 168 88 16 16 16 80 96 40 152 208 72 112 168 48 112 168 48 80 96 40 248 216 104 248 216 104 248 216 104 248 216 104 248 216 104 248 216 104 248 216 104 248 232 160 16 16 16 255 255 255 255 255 255 255 255 255 255 255 255 255 255 255 255 255 255 255 255 255 255 255 255 255 255 255 255 255 255 
255 255 255 255 255 255 255 255 255 255 255 255 80 96 40 112 168 48 152 208 72 112 168 48 112 168 48 112 168 48 16 16 16 16 16 16 255 255 255 255 255 255 255 255 255 255 255 255 112 168 48 184 248 112 184 248 112 184 248 112 184 248 112 184 248 112 16 16 16 16 16 16 160 104 32 160 104 32 224 168 88 224 168 88 160 104 32 248 216 104 248 232 160 248 232 160 248 232 160 248 216 104 248 216 104 248 216 104 248 216 104 224 168 88 224 168 88 224 168 88 16 16 16 16 16 16 16 16 16 112 168 48 80 96 40 248 216 104 248 216 104 248 216 104 248 216 104 248 216 104 248 216 104 248 216 104 248 216 104 16 16 16 255 255 255 255 255 255 255 255 255 255 255 255 255 255 255 255 255 255 255 255 255 255 255 255 255 255 255 255 255 255 
255 255 255 255 255 255 255 255 255 255 255 255 80 96 40 112 168 48 112 168 48 112 168 48 16 16 16 16 16 16 255 255 255 255 255 255 255 255 255 255 255 255 255 255 255 112 168 48 152 208 72 152 208 72 152 208 72 184 248 112 184 248 112 16 16 16 160 104 32 160 104 32 224 168 88 224 168 88 224 168 88 160 104 32 248 232 160 248 232 160 248 232 160 248 232 160 248 232 160 248 232 160 248 232 160 248 216 104 248 216 104 248 216 104 224 168 88 224 168 88 16 16 16 160 104 32 224 168 88 16 16 16 80 96 40 248 216 104 248 216 104 248 216 104 248 216 104 248 216 104 248 216 104 248 216 104 224 168 88 16 16 16 255 255 255 255 255 255 255 255 255 255 255 255 255 255 255 255 255 255 255 255 255 255 255 255 255 255 255 255 255 255 
255 255 255 255 255 255 255 255 255 255 255 255 80 96 40 112 168 48 112 168 48 16 16 16 255 255 255 255 255 255 255 255 255 255 255 255 255 255 255 255 255 255 255 255 255 80 96 40 152 208 72 152 208 72 184 248 112 152 208 72 16 16 16 160 104 32 224 168 88 224 168 88 224 168 88 224 168 88 224 168 88 160 104 32 248 232 160 16 16 16 248 232 160 248 232 160 248 232 160 16 16 16 248 232 160 248 232 160 248 216 104 248 216 104 224 168 88 224 168 88 224 168 88 16 16 16 224 168 88 224 168 88 248 216 104 248 216 104 248 216 104 248 216 104 248 216 104 248 216 104 248 216 104 224 168 88 224 168 88 160 104 32 255 255 255 255 255 255 255 255 255 255 255 255 255 255 255 255 255 255 255 255 255 255 255 255 255 255 255 255 255 255 
255 255 255 255 255 255 255 255 255 255 255 255 80 96 40 112 168 48 16 16 16 255 255 255 255 255 255 255 255 255 255 255 255 255 255 255 255 255 255 255 255 255 112 168 48 152 208 72 152 208 72 152 208 72 152 208 72 16 16 16 160 104 32 224 168 88 224 168 88 224 168 88 224 168 88 224 168 88 160 104 32 224 168 88 16 16 16 248 248 248 248 232 160 248 232 160 248 232 160 224 168 88 16 16 16 160 104 32 224 168 88 248 216 104 248 216 104 224 168 88 224 168 88 16 16 16 160 104 32 224 168 88 224 168 88 248 216 104 248 216 104 248 216 104 248 216 104 248 216 104 224 168 88 224 168 88 160 104 32 255 255 255 255 255 255 255 255 255 255 255 255 255 255 255 255 255 255 255 255 255 255 255 255 255 255 255 255 255 255 255 255 255 
255 255 255 255 255 255 255 255 255 255 255 255 80 96 40 16 16 16 255 255 255 255 255 255 255 255 255 255 255 255 255 255 255 255 255 255 255 255 255 255 255 255 80 96 40 112 168 48 152 208 72 112 168 48 16 16 16 255 255 255 160 104 32 248 216 104 248 216 104 248 216 104 224 168 88 224 168 88 160 104 32 248 248 248 248 248 248 248 248 248 248 232 160 248 232 160 248 232 160 248 248 248 248 248 248 248 248 248 248 248 248 248 216 104 248 216 104 224 168 88 224 168 88 224 168 88 160 104 32 224 168 88 224 168 88 224 168 88 224 168 88 224 168 88 224 168 88 224 168 88 224 168 88 224 168 88 16 16 16 255 255 255 255 255 255 255 255 255 255 255 255 255 255 255 255 255 255 255 255 255 255 255 255 255 255 255 255 255 255 255 255 255 
255 255 255 255 255 255 255 255 255 255 255 255 255 255 255 255 255 255 255 255 255 255 255 255 255 255 255 255 255 255 255 255 255 255 255 255 255 255 255 80 96 40 112 168 48 112 168 48 112 168 48 16 16 16 255 255 255 160 104 32 248 216 104 248 216 104 248 216 104 248 216 104 248 216 104 224 168 88 160 104 32 248 248 248 16 16 16 224 168 88 248 232 160 248 232 160 248 232 160 224 168 88 16 16 16 248 248 248 224 168 88 248 216 104 248 216 104 224 168 88 224 168 88 224 168 88 16 16 16 224 168 88 224 168 88 224 168 88 224 168 88 224 168 88 224 168 88 224 168 88 224 168 88 16 16 16 255 255 255 255 255 255 255 255 255 255 255 255 255 255 255 255 255 255 255 255 255 255 255 255 255 255 255 255 255 255 255 255 255 255 255 255 
255 255 255 255 255 255 255 255 255 255 255 255 255 255 255 255 255 255 255 255 255 255 255 255 255 255 255 255 255 255 255 255 255 255 255 255 255 255 255 80 96 40 112 168 48 112 168 48 16 16 16 255 255 255 255 255 255 160 104 32 160 104 32 160 104 32 224 168 88 248 216 104 248 216 104 160 104 32 248 216 104 224 168 88 224 168 88 248 232 160 248 232 160 248 232 160 248 232 160 248 232 160 224 168 88 224 168 88 248 216 104 248 216 104 248 216 104 224 168 88 224 168 88 224 168 88 16 16 16 16 16 16 224 168 88 224 168 88 224 168 88 224 168 88 224 168 88 160 104 32 16 16 16 255 255 255 255 255 255 255 255 255 255 255 255 255 255 255 255 255 255 255 255 255 255 255 255 255 255 255 255 255 255 255 255 255 255 255 255 255 255 255 
255 255 255 255 255 255 255 255 255 255 255 255 255 255 255 255 255 255 255 255 255 255 255 255 255 255 255 255 255 255 255 255 255 255 255 255 255 255 255 80 96 40 112 168 48 80 96 40 255 255 255 255 255 255 160 104 32 248 216 104 16 16 16 248 248 248 248 248 248 248 216 104 248 216 104 160 104 32 224 168 88 248 216 104 248 216 104 248 216 104 248 232 160 248 232 160 248 232 160 248 216 104 248 216 104 248 216 104 248 216 104 16 16 16 248 216 104 224 168 88 224 168 88 224 168 88 16 16 16 96 64 16 96 64 16 16 16 16 16 16 16 16 16 16 16 16 16 16 16 16 255 255 255 255 255 255 255 255 255 255 255 255 255 255 255 255 255 255 255 255 255 255 255 255 255 255 255 255 255 255 255 255 255 255 255 255 255 255 255 255 255 255 
255 255 255 255 255 255 255 255 255 255 255 255 255 255 255 255 255 255 255 255 255 255 255 255 255 255 255 255 255 255 255 255 255 255 255 255 255 255 255 80 96 40 112 168 48 16 16 16 255 255 255 255 255 255 160 104 32 248 216 104 248 216 104 248 216 104 248 216 104 248 216 104 248 216 104 248 216 104 16 16 16 224 168 88 248 216 104 248 216 104 248 216 104 248 216 104 248 216 104 248 216 104 248 216 104 224 168 88 16 16 16 248 216 104 248 216 104 224 168 88 224 168 88 224 168 88 16 16 16 96 64 16 136 112 64 136 112 64 136 112 64 136 112 64 96 64 16 136 112 64 96 64 16 255 255 255 255 255 255 255 255 255 255 255 255 255 255 255 255 255 255 255 255 255 255 255 255 255 255 255 255 255 255 255 255 255 255 255 255 255 255 255 
255 255 255 255 255 255 255 255 255 255 255 255 255 255 255 255 255 255 255 255 255 255 255 255 255 255 255 255 255 255 255 255 255 255 255 255 255 255 255 80 96 40 16 16 16 255 255 255 255 255 255 255 255 255 160 104 32 248 216 104 248 216 104 248 216 104 248 216 104 248 216 104 248 216 104 248 216 104 160 104 32 248 248 248 160 104 32 16 16 16 16 16 16 16 16 16 16 16 16 16 16 16 16 16 16 248 248 248 160 104 32 248 216 104 248 216 104 224 168 88 224 168 88 224 168 88 16 16 16 96 64 16 136 112 64 136 112 64 136 112 64 136 112 64 96 64 16 136 112 64 136 112 64 16 16 16 255 255 255 255 255 255 255 255 255 255 255 255 255 255 255 255 255 255 255 255 255 255 255 255 255 255 255 255 255 255 255 255 255 255 255 255 
255 255 255 255 255 255 255 255 255 255 255 255 255 255 255 255 255 255 255 255 255 255 255 255 255 255 255 255 255 255 255 255 255 255 255 255 255 255 255 80 96 40 255 255 255 255 255 255 255 255 255 255 255 255 160 104 32 248 216 104 248 216 104 248 216 104 248 216 104 248 216 104 248 216 104 248 216 104 248 216 104 160 104 32 160 104 32 160 104 32 160 104 32 160 104 32 224 168 88 224 168 88 224 168 88 224 168 88 160 104 32 248 216 104 224 168 88 224 168 88 224 168 88 96 64 16 96 64 16 136 112 64 136 112 64 136 112 64 136 112 64 136 112 64 96 64 16 136 112 64 136 112 64 136 112 64 16 16 16 255 255 255 255 255 255 255 255 255 255 255 255 255 255 255 255 255 255 255 255 255 255 255 255 255 255 255 255 255 255 255 255 255 
255 255 255 255 255 255 255 255 255 255 255 255 255 255 255 255 255 255 255 255 255 255 255 255 255 255 255 255 255 255 255 255 255 255 255 255 255 255 255 255 255 255 255 255 255 255 255 255 255 255 255 255 255 255 224 168 88 248 216 104 248 216 104 248 216 104 160 104 32 248 216 104 248 216 104 248 216 104 248 216 104 160 104 32 248 216 104 160 104 32 160 104 32 224 168 88 224 168 88 224 168 88 224 168 88 160 104 32 224 168 88 224 168 88 224 168 88 224 168 88 224 168 88 16 16 16 136 112 64 136 112 64 136 112 64 136 112 64 136 112 64 96 64 16 136 112 64 136 112 64 136 112 64 136 112 64 136 112 64 16 16 16 255 255 255 255 255 255 255 255 255 255 255 255 255 255 255 255 255 255 255 255 255 255 255 255 255 255 255 255 255 255 
255 255 255 255 255 255 255 255 255 255 255 255 255 255 255 255 255 255 255 255 255 255 255 255 255 255 255 255 255 255 255 255 255 255 255 255 255 255 255 255 255 255 255 255 255 255 255 255 255 255 255 255 255 255 255 255 255 160 104 32 160 104 32 160 104 32 248 248 248 248 216 104 248 216 104 248 216 104 248 216 104 248 216 104 160 104 32 248 216 104 160 104 32 224 168 88 224 168 88 224 168 88 224 168 88 160 104 32 224 168 88 224 168 88 224 168 88 224 168 88 16 16 16 136 112 64 136 112 64 136 112 64 136 112 64 136 112 64 136 112 64 96 64 16 136 112 64 136 112 64 136 112 64 136 112 64 136 112 64 96 64 16 16 16 16 255 255 255 255 255 255 255 255 255 255 255 255 255 255 255 255 255 255 255 255 255 255 255 255 255 255 255 
255 255 255 255 255 255 255 255 255 255 255 255 255 255 255 255 255 255 255 255 255 255 255 255 255 255 255 255 255 255 255 255 255 255 255 255 255 255 255 255 255 255 255 255 255 255 255 255 255 255 255 255 255 255 255 255 255 224 168 88 248 216 104 248 216 104 248 216 104 248 216 104 248 216 104 248 216 104 248 216 104 248 216 104 224 168 88 16 16 16 224 168 88 160 104 32 160 104 32 160 104 32 160 104 32 224 168 88 224 168 88 224 168 88 224 168 88 16 16 16 136 112 64 136 112 64 136 112 64 136 112 64 136 112 64 136 112 64 96 64 16 136 112 64 136 112 64 136 112 64 136 112 64 136 112 64 136 112 64 96 64 16 16 16 16 255 255 255 255 255 255 255 255 255 255 255 255 255 255 255 255 255 255 255 255 255 255 255 255 255 255 255 
255 255 255 255 255 255 255 255 255 255 255 255 255 255 255 255 255 255 255 255 255 255 255 255 255 255 255 255 255 255 255 255 255 255 255 255 255 255 255 255 255 255 255 255 255 255 255 255 255 255 255 255 255 255 255 255 255 255 255 255 160 104 32 160 104 32 248 216 104 248 216 104 248 216 104 248 216 104 248 216 104 248 216 104 224 168 88 224 168 88 16 16 16 16 16 16 224 168 88 224 168 88 224 168 88 224 168 88 224 168 88 16 16 16 16 16 16 176 152 72 136 112 64 136 112 64 136 112 64 136 112 64 136 112 64 96 64 16 136 112 64 136 112 64 136 112 64 136 112 64 136 112 64 136 112 64 136 112 64 96 64 16 136 112 64 16 16 16 255 255 255 255 255 255 255 255 255 255 255 255 255 255 255 255 255 255 255 255 255 255 255 255 
255 255 255 255 255 255 255 255 255 255 255 255 255 255 255 255 255 255 255 255 255 255 255 255 255 255 255 255 255 255 255 255 255 255 255 255 255 255 255 255 255 255 255 255 255 255 255 255 255 255 255 255 255 255 255 255 255 255 255 255 255 255 255 16 16 16 16 16 16 248 216 104 248 216 104 248 216 104 248 216 104 224 168 88 160 104 32 16 16 16 255 255 255 255 255 255 160 104 32 16 16 16 16 16 16 16 16 16 160 104 32 176 152 72 176 152 72 176 152 72 136 112 64 136 112 64 136 112 64 136 112 64 96 64 16 136 112 64 136 112 64 136 112 64 136 112 64 136 112 64 136 112 64 136 112 64 96 64 16 136 112 64 136 112 64 96 64 16 255 255 255 255 255 255 255 255 255 255 255 255 255 255 255 255 255 255 255 255 255 255 255 255 
255 255 255 255 255 255 255 255 255 255 255 255 255 255 255 255 255 255 255 255 255 255 255 255 255 255 255 255 255 255 255 255 255 255 255 255 255 255 255 255 255 255 255 255 255 255 255 255 255 255 255 255 255 255 255 255 255 255 255 255 255 255 255 255 255 255 255 255 255 16 16 16 16 16 16 16 16 16 16 16 16 160 104 32 255 255 255 255 255 255 255 255 255 255 255 255 255 255 255 96 64 16 96 64 16 176 152 72 176 152 72 176 152 72 176 152 72 176 152 72 176 152 72 136 112 64 96 64 16 96 64 16 136 112 64 136 112 64 136 112 64 136 112 64 136 112 64 136 112 64 136 112 64 176 152 72 96 64 16 176 152 72 136 112 64 136 112 64 96 64 16 255 255 255 255 255 255 255 255 255 255 255 255 255 255 255 255 255 255 255 255 255 
255 255 255 255 255 255 255 255 255 255 255 255 255 255 255 255 255 255 255 255 255 255 255 255 255 255 255 255 255 255 255 255 255 255 255 255 255 255 255 255 255 255 255 255 255 255 255 255 255 255 255 255 255 255 255 255 255 255 255 255 255 255 255 255 255 255 255 255 255 255 255 255 255 255 255 255 255 255 255 255 255 255 255 255 255 255 255 255 255 255 255 255 255 255 255 255 255 255 255 96 64 16 136 112 64 96 64 16 96 64 16 96 64 16 96 64 16 96 64 16 136 112 64 136 112 64 176 152 72 176 152 72 136 112 64 136 112 64 136 112 64 136 112 64 136 112 64 176 152 72 176 152 72 96 64 16 176 152 72 176 152 72 176 152 72 136 112 64 16 16 16 255 255 255 255 255 255 255 255 255 255 255 255 255 255 255 255 255 255 255 255 255 
255 255 255 255 255 255 255 255 255 255 255 255 255 255 255 255 255 255 255 255 255 255 255 255 255 255 255 255 255 255 255 255 255 255 255 255 255 255 255 255 255 255 255 255 255 255 255 255 255 255 255 255 255 255 255 255 255 255 255 255 255 255 255 255 255 255 255 255 255 255 255 255 255 255 255 255 255 255 255 255 255 255 255 255 255 255 255 255 255 255 255 255 255 255 255 255 255 255 255 255 255 255 136 112 64 176 152 72 176 152 72 176 152 72 176 152 72 176 152 72 176 152 72 176 152 72 176 152 72 176 152 72 176 152 72 176 152 72 176 152 72 176 152 72 176 152 72 176 152 72 96 64 16 176 152 72 176 152 72 176 152 72 176 152 72 136 112 64 16 16 16 255 255 255 255 255 255 255 255 255 255 255 255 255 255 255 255 255 255 255 255 255 
255 255 255 255 255 255 255 255 255 255 255 255 255 255 255 255 255 255 255 255 255 255 255 255 255 255 255 255 255 255 255 255 255 255 255 255 255 255 255 255 255 255 255 255 255 255 255 255 255 255 255 255 255 255 255 255 255 255 255 255 255 255 255 255 255 255 255 255 255 255 255 255 255 255 255 255 255 255 255 255 255 255 255 255 255 255 255 255 255 255 255 255 255 255 255 255 255 255 255 255 255 255 96 64 16 176 152 72 176 152 72 176 152 72 176 152 72 176 152 72 176 152 72 176 152 72 176 152 72 176 152 72 176 152 72 176 152 72 176 152 72 176 152 72 176 152 72 96 64 16 176 152 72 176 152 72 176 152 72 176 152 72 176 152 72 136 112 64 16 16 16 255 255 255 255 255 255 255 255 255 255 255 255 255 255 255 255 255 255 255 255 255 
255 255 255 255 255 255 255 255 255 255 255 255 255 255 255 255 255 255 255 255 255 255 255 255 255 255 255 255 255 255 255 255 255 255 255 255 255 255 255 255 255 255 255 255 255 255 255 255 255 255 255 255 255 255 255 255 255 255 255 255 255 255 255 255 255 255 255 255 255 255 255 255 255 255 255 255 255 255 255 255 255 255 255 255 255 255 255 255 255 255 255 255 255 255 255 255 255 255 255 255 255 255 96 64 16 176 152 72 176 152 72 176 152 72 176 152 72 176 152 72 176 152 72 176 152 72 176 152 72 176 152 72 176 152 72 176 152 72 176 152 72 136 112 64 96 64 16 176 152 72 176 152 72 176 152 72 176 152 72 176 152 72 136 112 64 96 64 16 16 16 16 255 255 255 255 255 255 255 255 255 255 255 255 255 255 255 255 255 255 255 255 255 
255 255 255 255 255 255 255 255 255 255 255 255 255 255 255 255 255 255 255 255 255 255 255 255 255 255 255 255 255 255 255 255 255 255 255 255 255 255 255 255 255 255 255 255 255 255 255 255 255 255 255 255 255 255 255 255 255 255 255 255 255 255 255 255 255 255 255 255 255 255 255 255 255 255 255 255 255 255 255 255 255 255 255 255 255 255 255 102 102 102 102 102 102 255 255 255 255 255 255 255 255 255 255 255 255 96 64 16 176 152 72 176 152 72 176 152 72 176 152 72 176 152 72 176 152 72 176 152 72 176 152 72 136 112 64 96 64 16 96 64 16 176 152 72 176 152 72 176 152 72 176 152 72 176 152 72 176 152 72 176 152 72 136 112 64 136 112 64 136 112 64 16 16 16 255 255 255 255 255 255 255 255 255 255 255 255 255 255 255 255 255 255 
255 255 255 255 255 255 255 255 255 255 255 255 255 255 255 255 255 255 255 255 255 255 255 255 255 255 255 255 255 255 255 255 255 255 255 255 255 255 255 255 255 255 255 255 255 255 255 255 255 255 255 255 255 255 255 255 255 255 255 255 255 255 255 255 255 255 255 255 255 255 255 255 102 102 102 16 16 16 255 255 255 255 255 255 255 255 255 102 102 102 248 248 248 16 16 16 255 255 255 255 255 255 255 255 255 96 64 16 96 64 16 136 112 64 136 112 64 136 112 64 136 112 64 96 64 16 96 64 16 96 64 16 176 152 72 176 152 72 176 152 72 176 152 72 176 152 72 176 152 72 176 152 72 176 152 72 176 152 72 176 152 72 96 64 16 136 112 64 176 152 72 16 16 16 255 255 255 255 255 255 255 255 255 255 255 255 255 255 255 255 255 255 
255 255 255 255 255 255 255 255 255 255 255 255 255 255 255 255 255 255 255 255 255 255 255 255 255 255 255 255 255 255 255 255 255 255 255 255 255 255 255 255 255 255 255 255 255 255 255 255 255 255 255 255 255 255 255 255 255 255 255 255 255 255 255 255 255 255 255 255 255 255 255 255 102 102 102 248 248 248 16 16 16 255 255 255 255 255 255 102 102 102 216 216 216 248 248 248 16 16 16 255 255 255 96 64 16 176 152 72 176 152 72 96 64 16 96 64 16 176 152 72 136 112 64 176 152 72 136 112 64 176 152 72 176 152 72 176 152 72 176 152 72 176 152 72 176 152 72 176 152 72 176 152 72 176 152 72 176 152 72 96 64 16 136 112 64 176 152 72 176 152 72 176 152 72 96 64 16 255 255 255 255 255 255 255 255 255 255 255 255 255 255 255 
255 255 255 255 255 255 255 255 255 255 255 255 255 255 255 255 255 255 255 255 255 255 255 255 255 255 255 255 255 255 255 255 255 255 255 255 255 255 255 255 255 255 255 255 255 255 255 255 255 255 255 255 255 255 255 255 255 255 255 255 255 255 255 255 255 255 255 255 255 255 255 255 102 102 102 216 216 216 248 248 248 16 16 16 255 255 255 102 102 102 216 216 216 216 216 216 16 16 16 96 64 16 96 64 16 96 64 16 176 152 72 176 152 72 176 152 72 96 64 16 136 112 64 136 112 64 176 152 72 136 112 64 176 152 72 136 112 64 176 152 72 136 112 64 176 152 72 176 152 72 176 152 72 176 152 72 16 16 16 136 112 64 176 152 72 176 152 72 176 152 72 176 152 72 16 16 16 255 255 255 255 255 255 255 255 255 255 255 255 255 255 255 
255 255 255 255 255 255 255 255 255 255 255 255 255 255 255 255 255 255 255 255 255 255 255 255 255 255 255 255 255 255 255 255 255 255 255 255 255 255 255 255 255 255 255 255 255 255 255 255 255 255 255 255 255 255 255 255 255 255 255 255 255 255 255 255 255 255 255 255 255 255 255 255 102 102 102 216 216 216 216 216 216 102 102 102 16 16 16 16 16 16 136 112 64 102 102 102 96 64 16 96 64 16 176 152 72 176 152 72 96 64 16 96 64 16 176 152 72 176 152 72 16 16 16 136 112 64 136 112 64 136 112 64 136 112 64 176 152 72 136 112 64 176 152 72 176 152 72 176 152 72 136 112 64 16 16 16 136 112 64 136 112 64 176 152 72 176 152 72 176 152 72 96 64 16 16 16 16 255 255 255 255 255 255 255 255 255 255 255 255 255 255 255 
255 255 255 255 255 255 255 255 255 255 255 255 255 255 255 255 255 255 255 255 255 255 255 255 255 255 255 255 255 255 255 255 255 255 255 255 255 255 255 255 255 255 255 255 255 255 255 255 255 255 255 255 255 255 255 255 255 255 255 255 255 255 255 255 255 255 255 255 255 255 255 255 255 255 255 102 102 102 102 102 102 96 64 16 176 152 72 176 152 72 176 152 72 136 112 64 136 112 64 136 112 64 96 64 16 176 152 72 176 152 72 136 112 64 96 64 16 136 112 64 136 112 64 16 16 16 96 64 16 136 112 64 136 112 64 136 112 64 136 112 64 136 112 64 16 16 16 16 16 16 16 16 16 136 112 64 136 112 64 136 112 64 176 152 72 176 152 72 96 64 16 176 152 72 16 16 16 255 255 255 255 255 255 255 255 255 255 255 255 255 255 255 
255 255 255 255 255 255 255 255 255 255 255 255 255 255 255 255 255 255 255 255 255 255 255 255 255 255 255 255 255 255 255 255 255 255 255 255 255 255 255 255 255 255 255 255 255 255 255 255 255 255 255 255 255 255 255 255 255 255 255 255 255 255 255 255 255 255 255 255 255 255 255 255 255 255 255 96 64 16 176 152 72 176 152 72 176 152 72 176 152 72 176 152 72 176 152 72 136 112 64 136 112 64 136 112 64 96 64 16 176 152 72 136 112 64 96 64 16 136 112 64 136 112 64 136 112 64 16 16 16 16 16 16 16 16 16 16 16 16 16 16 16 16 16 16 136 112 64 16 16 16 136 112 64 96 64 16 96 64 16 96 64 16 96 64 16 96 64 16 176 152 72 96 64 16 255 255 255 255 255 255 255 255 255 255 255 255 255 255 255 255 255 255 
255 255 255 255 255 255 255 255 255 255 255 255 255 255 255 255 255 255 255 255 255 255 255 255 255 255 255 255 255 255 255 255 255 255 255 255 255 255 255 255 255 255 255 255 255 255 255 255 255 255 255 255 255 255 255 255 255 255 255 255 255 255 255 255 255 255 255 255 255 255 255 255 255 255 255 96 64 16 176 152 72 176 152 72 248 216 104 248 216 104 248 216 104 248 216 104 176 152 72 136 112 64 136 112 64 96 64 16 136 112 64 136 112 64 136 112 64 96 64 16 136 112 64 16 16 16 96 64 16 255 255 255 255 255 255 255 255 255 255 255 255 16 16 16 136 112 64 16 16 16 136 112 64 136 112 64 136 112 64 136 112 64 136 112 64 176 152 72 176 152 72 16 16 16 255 255 255 255 255 255 255 255 255 255 255 255 255 255 255 255 255 255 
255 255 255 255 255 255 255 255 255 255 255 255 255 255 255 255 255 255 255 255 255 255 255 255 255 255 255 255 255 255 255 255 255 255 255 255 255 255 255 255 255 255 255 255 255 255 255 255 255 255 255 255 255 255 255 255 255 255 255 255 255 255 255 255 255 255 255 255 255 255 255 255 255 255 255 255 255 255 136 112 64 248 216 104 248 216 104 248 216 104 248 216 104 248 216 104 248 216 104 136 112 64 136 112 64 136 112 64 96 64 16 136 112 64 136 112 64 16 16 16 96 64 16 255 255 255 255 255 255 255 255 255 255 255 255 255 255 255 255 255 255 16 16 16 136 112 64 136 112 64 96 64 16 96 64 16 136 112 64 136 112 64 136 112 64 136 112 64 96 64 16 136 112 64 16 16 16 255 255 255 255 255 255 255 255 255 255 255 255 255 255 255 
255 255 255 255 255 255 255 255 255 255 255 255 255 255 255 255 255 255 255 255 255 255 255 255 255 255 255 255 255 255 255 255 255 255 255 255 255 255 255 255 255 255 255 255 255 255 255 255 255 255 255 255 255 255 255 255 255 255 255 255 255 255 255 255 255 255 255 255 255 255 255 255 255 255 255 255 255 255 96 64 16 248 216 104 248 216 104 248 216 104 248 216 104 248 216 104 248 216 104 176 152 72 136 112 64 136 112 64 16 16 16 136 112 64 16 16 16 255 255 255 255 255 255 255 255 255 255 255 255 255 255 255 255 255 255 255 255 255 255 255 255 96 64 16 136 112 64 136 112 64 136 112 64 136 112 64 96 64 16 96 64 16 96 64 16 96 64 16 136 112 64 136 112 64 16 16 16 255 255 255 255 255 255 255 255 255 255 255 255 255 255 255 
255 255 255 255 255 255 255 255 255 255 255 255 255 255 255 255 255 255 255 255 255 255 255 255 255 255 255 255 255 255 255 255 255 255 255 255 255 255 255 255 255 255 255 255 255 255 255 255 255 255 255 255 255 255 255 255 255 255 255 255 255 255 255 255 255 255 255 255 255 255 255 255 255 255 255 255 255 255 255 255 255 136 112 64 248 216 104 248 216 104 248 216 104 248 216 104 248 216 104 248 216 104 136 112 64 136 112 64 16 16 16 136 112 64 255 255 255 255 255 255 255 255 255 255 255 255 255 255 255 255 255 255 255 255 255 255 255 255 255 255 255 255 255 255 16 16 16 136 112 64 136 112 64 136 112 64 136 112 64 176 152 72 176 152 72 176 152 72 176 152 72 176 152 72 176 152 72 16 16 16 255 255 255 255 255 255 255 255 255 255 255 255 
255 255 255 255 255 255 255 255 255 255 255 255 255 255 255 255 255 255 255 255 255 255 255 255 255 255 255 255 255 255 255 255 255 255 255 255 255 255 255 255 255 255 255 255 255 255 255 255 255 255 255 255 255 255 255 255 255 255 255 255 255 255 255 255 255 255 255 255 255 255 255 255 255 255 255 255 255 255 255 255 255 96 64 16 248 216 104 248 216 104 248 216 104 248 216 104 248 216 104 248 216 104 136 112 64 136 112 64 16 16 16 16 16 16 255 255 255 255 255 255 255 255 255 255 255 255 255 255 255 255 255 255 255 255 255 255 255 255 255 255 255 255 255 255 16 16 16 136 112 64 136 112 64 248 248 248 216 216 216 136 112 64 176 152 72 176 152 72 176 152 72 248 248 248 216 216 216 102 102 102 255 255 255 255 255 255 255 255 255 255 255 255 
255 255 255 255 255 255 255 255 255 255 255 255 255 255 255 255 255 255 255 255 255 255 255 255 255 255 255 255 255 255 255 255 255 255 255 255 255 255 255 255 255 255 255 255 255 255 255 255 255 255 255 255 255 255 255 255 255 255 255 255 255 255 255 255 255 255 255 255 255 255 255 255 255 255 255 255 255 255 255 255 255 255 255 255 96 64 16 248 216 104 248 216 104 248 216 104 248 216 104 136 112 64 136 112 64 96 64 16 16 16 16 255 255 255 255 255 255 255 255 255 255 255 255 255 255 255 255 255 255 255 255 255 255 255 255 255 255 255 255 255 255 255 255 255 255 255 255 16 16 16 102 102 102 248 248 248 248 248 248 248 248 248 16 16 16 16 16 16 16 16 16 248 248 248 248 248 248 216 216 216 16 16 16 255 255 255 255 255 255 255 255 255 
255 255 255 255 255 255 255 255 255 255 255 255 255 255 255 255 255 255 255 255 255 255 255 255 255 255 255 255 255 255 255 255 255 255 255 255 255 255 255 255 255 255 255 255 255 255 255 255 255 255 255 255 255 255 255 255 255 255 255 255 255 255 255 255 255 255 255 255 255 255 255 255 255 255 255 255 255 255 255 255 255 255 255 255 255 255 255 16 16 16 136 112 64 136 112 64 136 112 64 136 112 64 96 64 16 16 16 16 255 255 255 255 255 255 255 255 255 255 255 255 255 255 255 255 255 255 255 255 255 255 255 255 255 255 255 255 255 255 255 255 255 255 255 255 255 255 255 255 255 255 102 102 102 16 16 16 16 16 16 16 16 16 255 255 255 255 255 255 255 255 255 102 102 102 16 16 16 16 16 16 16 16 16 255 255 255 255 255 255 255 255 255 
255 255 255 255 255 255 255 255 255 255 255 255 255 255 255 255 255 255 255 255 255 255 255 255 255 255 255 255 255 255 255 255 255 255 255 255 255 255 255 255 255 255 255 255 255 255 255 255 255 255 255 255 255 255 255 255 255 255 255 255 255 255 255 255 255 255 255 255 255 255 255 255 255 255 255 255 255 255 255 255 255 255 255 255 255 255 255 255 255 255 96 64 16 16 16 16 16 16 16 16 16 16 255 255 255 255 255 255 255 255 255 255 255 255 255 255 255 255 255 255 255 255 255 255 255 255 255 255 255 255 255 255 255 255 255 255 255 255 255 255 255 255 255 255 255 255 255 255 255 255 255 255 255 255 255 255 255 255 255 255 255 255 255 255 255 255 255 255 255 255 255 255 255 255 255 255 255 255 255 255 255 255 255 255 255 255 255 255 255 255 255 255 
