P3
64 64
255
255 255 255 255 255 255 255 255 255 255 255 255 255 255 255 255 255 255 255 255 255 255 255 255 255 255 255 255 255 255 255 255 255 255 255 255 255 255 255 255 255 255 255 255 255 255 255 255 255 255 255 255 255 255 255 255 255 255 255 255 255 255 255 255 255 255 255 255 255 255 255 255 255 255 255 255 255 255 255 255 255 255 255 255 255 255 255 255 255 255 255 255 255 255 255 255 255 255 255 255 255 255 255 255 255 255 255 255 255 255 255 255 255 255 255 255 255 255 255 255 255 255 255 255 255 255 255 255 255 255 255 255 255 255 255 255 255 255 64 64 104 64 64 104 255 255 255 255 255 255 255 255 255 255 255 255 255 255 255 255 255 255 255 255 255 255 255 255 255 255 255 255 255 255 255 255 255 255 255 255 255 255 255 255 255 255 255 255 255 255 255 255 
255 255 255 255 255 255 255 255 255 255 255 255 255 255 255 255 255 255 255 255 255 255 255 255 255 255 255 255 255 255 255 255 255 255 255 255 255 255 255 255 255 255 255 255 255 255 255 255 255 255 255 255 255 255 255 255 255 255 255 255 255 255 255 255 255 255 255 255 255 255 255 255 255 255 255 255 255 255 255 255 255 255 255 255 255 255 255 255 255 255 255 255 255 255 255 255 255 255 255 255 255 255 255 255 255 255 255 255 255 255 255 255 255 255 255 255 255 255 255 255 255 255 255 255 255 255 255 255 255 255 255 255 255 255 255 64 64 104 104 104 88 168 176 192 255 255 255 255 255 255 255 255 255 255 255 255 255 255 255 255 255 255 255 255 255 255 255 255 255 255 255 255 255 255 64 64 104 255 255 255 255 255 255 255 255 255 255 255 255 255 255 255 
255 255 255 255 255 255 255 255 255 255 255 255 255 255 255 255 255 255 255 255 255 255 255 255 255 255 255 255 255 255 255 255 255 255 255 255 255 255 255 255 255 255 255 255 255 255 255 255 255 255 255 255 255 255 255 255 255 255 255 255 255 255 255 255 255 255 255 255 255 255 255 255 255 255 255 255 255 255 255 255 255 255 255 255 255 255 255 255 255 255 255 255 255 255 255 255 255 255 255 255 255 255 255 255 255 255 255 255 255 255 255 255 255 255 255 255 255 255 255 255 255 255 255 255 255 255 255 255 255 255 255 255 64 64 104 104 104 88 248 248 248 168 176 192 216 224 240 168 176 192 255 255 255 255 255 255 255 255 255 255 255 255 255 255 255 255 255 255 255 255 255 168 176 192 104 104 88 64 64 104 255 255 255 255 255 255 255 255 255 255 255 255 
255 255 255 255 255 255 255 255 255 255 255 255 255 255 255 255 255 255 255 255 255 255 255 255 255 255 255 255 255 255 255 255 255 255 255 255 255 255 255 255 255 255 255 255 255 255 255 255 255 255 255 255 255 255 255 255 255 255 255 255 255 255 255 255 255 255 255 255 255 255 255 255 255 255 255 255 255 255 255 255 255 255 255 255 255 255 255 255 255 255 255 255 255 255 255 255 255 255 255 255 255 255 255 255 255 255 255 255 255 255 255 255 255 255 255 255 255 255 255 255 255 255 255 255 255 255 255 255 255 64 64 104 104 104 88 248 248 248 168 176 192 248 248 248 168 176 192 216 224 240 64 64 104 64 64 104 255 255 255 168 176 192 255 255 255 168 176 192 104 120 144 248 248 248 104 104 88 64 64 104 255 255 255 255 255 255 255 255 255 255 255 255 
255 255 255 255 255 255 255 255 255 255 255 255 255 255 255 255 255 255 255 255 255 255 255 255 255 255 255 255 255 255 255 255 255 255 255 255 255 255 255 255 255 255 255 255 255 255 255 255 255 255 255 255 255 255 255 255 255 255 255 255 255 255 255 255 255 255 255 255 255 255 255 255 255 255 255 255 255 255 255 255 255 255 255 255 255 255 255 255 255 255 255 255 255 255 255 255 255 255 255 255 255 255 255 255 255 255 255 255 255 255 255 255 255 255 255 255 255 255 255 255 255 255 255 255 255 255 255 255 255 64 64 104 104 104 88 248 248 248 168 176 192 248 248 248 168 176 192 64 64 104 128 160 224 64 64 104 168 176 192 248 248 248 168 176 192 104 120 144 168 176 192 248 248 248 104 104 88 64 64 104 255 255 255 255 255 255 255 255 255 255 255 255 
255 255 255 255 255 255 255 255 255 255 255 255 255 255 255 255 255 255 255 255 255 255 255 255 255 255 255 255 255 255 255 255 255 255 255 255 255 255 255 255 255 255 255 255 255 255 255 255 255 255 255 255 255 255 255 255 255 255 255 255 255 255 255 255 255 255 255 255 255 255 255 255 255 255 255 255 255 255 255 255 255 255 255 255 255 255 255 104 120 144 104 120 144 255 255 255 255 255 255 255 255 255 255 255 255 255 255 255 255 255 255 255 255 255 255 255 255 255 255 255 255 255 255 255 255 255 255 255 255 64 64 104 104 104 88 248 248 248 168 176 192 216 224 240 216 224 240 64 64 104 96 128 160 64 64 104 216 224 240 248 248 248 168 176 192 248 248 248 168 176 192 104 104 88 104 104 88 64 64 104 255 255 255 255 255 255 255 255 255 255 255 255 
255 255 255 255 255 255 255 255 255 255 255 255 255 255 255 255 255 255 255 255 255 255 255 255 255 255 255 255 255 255 255 255 255 255 255 255 255 255 255 255 255 255 255 255 255 255 255 255 255 255 255 255 255 255 255 255 255 255 255 255 255 255 255 255 255 255 255 255 255 255 255 255 255 255 255 255 255 255 255 255 255 255 255 255 104 120 144 248 248 248 0 0 0 255 255 255 255 255 255 255 255 255 255 255 255 255 255 255 255 255 255 255 255 255 255 255 255 255 255 255 104 120 144 104 120 144 255 255 255 255 255 255 64 64 104 104 104 88 216 224 240 216 224 240 64 64 104 128 160 224 96 128 160 64 64 104 216 224 240 168 176 192 248 248 248 248 248 248 104 104 88 104 104 88 64 64 104 255 255 255 255 255 255 255 255 255 255 255 255 255 255 255 
255 255 255 255 255 255 255 255 255 255 255 255 255 255 255 255 255 255 255 255 255 255 255 255 255 255 255 255 255 255 255 255 255 255 255 255 255 255 255 255 255 255 255 255 255 255 255 255 255 255 255 255 255 255 255 255 255 255 255 255 255 255 255 255 255 255 255 255 255 255 255 255 255 255 255 255 255 255 255 255 255 104 120 144 248 248 248 248 248 248 0 0 0 255 255 255 255 255 255 255 255 255 255 255 255 255 255 255 255 255 255 255 255 255 255 255 255 255 255 255 104 120 144 248 248 248 104 120 144 255 255 255 255 255 255 64 64 104 104 104 88 104 104 88 64 64 104 128 160 224 96 128 160 64 64 104 216 224 240 104 104 88 104 104 88 104 104 88 64 64 104 64 64 104 255 255 255 255 255 255 255 255 255 255 255 255 255 255 255 255 255 255 
255 255 255 255 255 255 255 255 255 255 255 255 255 255 255 255 255 255 255 255 255 255 255 255 255 255 255 255 255 255 255 255 255 255 255 255 255 255 255 255 255 255 255 255 255 255 255 255 255 255 255 255 255 255 255 255 255 255 255 255 255 255 255 255 255 255 255 255 255 255 255 255 255 255 255 255 255 255 255 255 255 104 120 144 248 248 248 168 176 192 0 0 0 255 255 255 255 255 255 255 255 255 255 255 255 255 255 255 255 255 255 255 255 255 255 255 255 255 255 255 104 120 144 216 224 240 0 0 0 255 255 255 255 255 255 255 255 255 64 64 104 64 64 104 64 64 104 128 160 224 96 128 160 64 64 104 104 104 88 64 64 104 64 64 104 64 64 104 255 255 255 255 255 255 255 255 255 255 255 255 255 255 255 255 255 255 255 255 255 255 255 255 
255 255 255 255 255 255 255 255 255 255 255 255 255 255 255 255 255 255 255 255 255 255 255 255 255 255 255 255 255 255 255 255 255 255 255 255 255 255 255 255 255 255 255 255 255 255 255 255 255 255 255 255 255 255 255 255 255 255 255 255 255 255 255 255 255 255 255 255 255 255 255 255 255 255 255 255 255 255 104 120 144 248 248 248 216 224 240 168 176 192 0 0 0 255 255 255 255 255 255 255 255 255 255 255 255 255 255 255 255 255 255 255 255 255 255 255 255 104 120 144 248 248 248 216 224 240 0 0 0 255 255 255 255 255 255 255 255 255 255 255 255 255 255 255 64 64 104 96 128 160 64 64 104 64 64 104 64 64 104 255 255 255 255 255 255 255 255 255 255 255 255 255 255 255 255 255 255 255 255 255 255 255 255 255 255 255 255 255 255 255 255 255 
255 255 255 255 255 255 255 255 255 255 255 255 255 255 255 255 255 255 255 255 255 255 255 255 255 255 255 255 255 255 255 255 255 255 255 255 255 255 255 255 255 255 255 255 255 255 255 255 255 255 255 255 255 255 255 255 255 255 255 255 255 255 255 255 255 255 255 255 255 255 255 255 255 255 255 255 255 255 104 120 144 248 248 248 216 224 240 168 176 192 0 0 0 255 255 255 255 255 255 255 255 255 255 255 255 255 255 255 104 120 144 104 120 144 255 255 255 104 120 144 248 248 248 168 176 192 0 0 0 255 255 255 104 120 144 0 0 0 255 255 255 255 255 255 255 255 255 64 64 104 128 160 224 128 160 224 64 64 104 255 255 255 255 255 255 255 255 255 255 255 255 255 255 255 255 255 255 255 255 255 255 255 255 255 255 255 255 255 255 255 255 255 
255 255 255 255 255 255 255 255 255 255 255 255 255 255 255 255 255 255 255 255 255 255 255 255 255 255 255 255 255 255 255 255 255 255 255 255 255 255 255 255 255 255 255 255 255 255 255 255 255 255 255 255 255 255 255 255 255 255 255 255 255 255 255 255 255 255 255 255 255 255 255 255 255 255 255 255 255 255 104 120 144 248 248 248 216 224 240 168 176 192 0 0 0 255 255 255 104 120 144 0 0 0 255 255 255 255 255 255 104 120 144 248 248 248 104 120 144 248 248 248 216 224 240 168 176 192 0 0 0 64 64 104 168 176 192 0 0 0 255 255 255 255 255 255 64 64 104 176 200 248 176 200 248 128 160 224 64 64 104 64 64 104 255 255 255 255 255 255 255 255 255 255 255 255 255 255 255 255 255 255 255 255 255 255 255 255 255 255 255 255 255 255 
255 255 255 255 255 255 255 255 255 255 255 255 255 255 255 255 255 255 255 255 255 255 255 255 255 255 255 255 255 255 255 255 255 255 255 255 255 255 255 255 255 255 255 255 255 255 255 255 255 255 255 255 255 255 255 255 255 255 255 255 255 255 255 255 255 255 104 120 144 104 120 144 255 255 255 104 120 144 248 248 248 248 248 248 216 224 240 168 176 192 104 104 88 104 104 88 248 248 248 0 0 0 255 255 255 255 255 255 104 120 144 248 248 248 64 64 104 248 248 248 168 176 192 168 176 192 64 64 104 168 176 192 168 176 192 0 0 0 255 255 255 255 255 255 64 64 104 248 248 144 128 160 224 64 64 104 128 160 224 128 160 224 64 64 104 255 255 255 255 255 255 255 255 255 255 255 255 255 255 255 255 255 255 255 255 255 255 255 255 255 255 255 
255 255 255 255 255 255 255 255 255 255 255 255 255 255 255 255 255 255 255 255 255 255 255 255 255 255 255 255 255 255 255 255 255 255 255 255 255 255 255 255 255 255 255 255 255 255 255 255 255 255 255 255 255 255 255 255 255 255 255 255 255 255 255 255 255 255 104 120 144 248 248 248 104 120 144 104 120 144 248 248 248 248 248 248 216 224 240 216 224 240 104 104 88 248 248 248 216 224 240 0 0 0 64 64 104 64 64 104 104 120 144 216 224 240 216 224 240 216 224 240 168 176 192 168 176 192 168 176 192 168 176 192 0 0 0 255 255 255 255 255 255 255 255 255 96 128 160 248 248 144 96 128 160 128 160 224 128 160 224 128 160 224 128 160 224 0 0 0 255 255 255 255 255 255 255 255 255 255 255 255 255 255 255 255 255 255 255 255 255 255 255 255 
255 255 255 255 255 255 255 255 255 255 255 255 255 255 255 255 255 255 255 255 255 255 255 255 255 255 255 255 255 255 255 255 255 255 255 255 255 255 255 255 255 255 255 255 255 255 255 255 255 255 255 255 255 255 255 255 255 255 255 255 255 255 255 255 255 255 104 104 88 248 248 248 248 248 248 104 120 144 64 64 104 64 64 104 64 64 104 216 224 240 168 176 192 216 224 240 168 176 192 0 0 0 176 200 248 176 200 248 104 120 144 216 224 240 216 224 240 168 176 192 168 176 192 168 176 192 168 176 192 64 64 104 64 64 104 255 255 255 255 255 255 255 255 255 255 255 255 96 128 160 64 64 104 176 200 248 176 200 248 96 128 160 64 64 104 64 64 104 255 255 255 255 255 255 255 255 255 255 255 255 255 255 255 255 255 255 255 255 255 255 255 255 
255 255 255 255 255 255 255 255 255 255 255 255 255 255 255 255 255 255 255 255 255 255 255 255 255 255 255 255 255 255 255 255 255 255 255 255 255 255 255 255 255 255 255 255 255 255 255 255 255 255 255 255 255 255 255 255 255 255 255 255 255 255 255 255 255 255 0 0 0 248 248 248 248 248 248 64 64 104 128 160 224 128 160 224 64 64 104 216 224 240 216 224 240 216 224 240 0 0 0 176 200 248 176 200 248 176 200 248 104 120 144 216 224 240 216 224 240 64 64 104 0 0 0 0 0 0 64 64 104 128 160 224 128 160 224 64 64 104 255 255 255 255 255 255 255 255 255 255 255 255 64 64 104 248 248 144 64 64 104 176 200 248 128 160 224 128 160 224 0 0 0 255 255 255 255 255 255 255 255 255 255 255 255 255 255 255 255 255 255 255 255 255 
255 255 255 255 255 255 255 255 255 255 255 255 255 255 255 255 255 255 255 255 255 255 255 255 255 255 255 255 255 255 255 255 255 255 255 255 255 255 255 255 255 255 255 255 255 96 128 160 64 64 104 255 255 255 255 255 255 255 255 255 255 255 255 255 255 255 0 0 0 248 248 248 64 64 104 128 160 224 96 128 160 64 64 104 168 176 192 168 176 192 168 176 192 216 224 240 0 0 0 64 64 104 64 64 104 176 200 248 64 64 104 64 64 104 64 64 104 128 160 224 128 160 224 128 160 224 128 160 224 128 160 224 128 160 224 128 160 224 64 64 104 255 255 255 255 255 255 255 255 255 64 64 104 96 128 160 128 160 224 128 160 224 128 160 224 128 160 224 128 160 224 0 0 0 255 255 255 255 255 255 255 255 255 255 255 255 255 255 255 255 255 255 
255 255 255 255 255 255 255 255 255 255 255 255 255 255 255 255 255 255 255 255 255 255 255 255 255 255 255 255 255 255 255 255 255 255 255 255 255 255 255 255 255 255 96 128 160 128 160 224 64 64 104 255 255 255 255 255 255 255 255 255 255 255 255 255 255 255 255 255 255 64 64 104 64 64 104 128 160 224 96 128 160 64 64 104 168 176 192 168 176 192 168 176 192 168 176 192 0 0 0 96 128 160 64 64 104 64 64 104 128 160 224 128 160 224 128 160 224 128 160 224 128 160 224 128 160 224 128 160 224 128 160 224 128 160 224 128 160 224 0 0 0 255 255 255 255 255 255 255 255 255 255 255 255 64 64 104 128 160 224 128 160 224 64 64 104 64 64 104 64 64 104 64 64 104 255 255 255 255 255 255 255 255 255 255 255 255 255 255 255 255 255 255 
255 255 255 255 255 255 255 255 255 255 255 255 255 255 255 255 255 255 255 255 255 255 255 255 255 255 255 255 255 255 255 255 255 255 255 255 255 255 255 255 255 255 64 64 104 128 160 224 64 64 104 255 255 255 255 255 255 255 255 255 255 255 255 64 64 104 64 64 104 64 64 104 128 160 224 96 128 160 0 0 0 168 176 192 168 176 192 168 176 192 0 0 0 0 0 0 96 128 160 96 128 160 128 160 224 128 160 224 64 64 104 128 160 224 128 160 224 128 160 224 96 128 160 96 128 160 96 128 160 96 128 160 96 128 160 64 64 104 0 0 0 255 255 255 255 255 255 255 255 255 255 255 255 64 64 104 248 248 144 64 64 104 128 160 224 128 160 224 128 160 224 64 64 104 0 0 0 255 255 255 255 255 255 255 255 255 255 255 255 255 255 255 
255 255 255 255 255 255 255 255 255 255 255 255 255 255 255 255 255 255 255 255 255 255 255 255 255 255 255 255 255 255 255 255 255 255 255 255 255 255 255 255 255 255 64 64 104 128 160 224 64 64 104 255 255 255 255 255 255 64 64 104 64 64 104 64 64 104 64 64 104 128 160 224 96 128 160 0 0 0 168 176 192 168 176 192 168 176 192 64 64 104 96 128 160 96 128 160 96 128 160 128 160 224 128 160 224 128 160 224 128 160 224 64 64 104 96 128 160 96 128 160 96 128 160 96 128 160 96 128 160 96 128 160 96 128 160 0 0 0 64 64 104 64 64 104 255 255 255 255 255 255 255 255 255 255 255 255 64 64 104 96 128 160 176 200 248 176 200 248 128 160 224 128 160 224 0 0 0 255 255 255 255 255 255 255 255 255 255 255 255 255 255 255 
255 255 255 255 255 255 255 255 255 255 255 255 255 255 255 255 255 255 64 64 104 255 255 255 255 255 255 255 255 255 255 255 255 255 255 255 255 255 255 255 255 255 64 64 104 96 128 160 64 64 104 64 64 104 64 64 104 128 160 224 176 200 248 64 64 104 128 160 224 96 128 160 64 64 104 0 0 0 168 176 192 168 176 192 64 64 104 96 128 160 96 128 160 96 128 160 128 160 224 128 160 224 128 160 224 128 160 224 96 128 160 64 64 104 96 128 160 96 128 160 96 128 160 96 128 160 96 128 160 96 128 160 96 128 160 0 0 0 96 128 160 96 128 160 64 64 104 255 255 255 255 255 255 255 255 255 0 0 0 248 248 144 248 248 144 176 200 248 64 64 104 64 64 104 0 0 0 255 255 255 255 255 255 255 255 255 255 255 255 255 255 255 
255 255 255 255 255 255 255 255 255 255 255 255 255 255 255 64 64 104 64 64 104 255 255 255 255 255 255 255 255 255 255 255 255 96 128 160 64 64 104 255 255 255 64 64 104 96 128 160 128 160 224 64 64 104 128 160 224 176 200 248 176 200 248 64 64 104 96 128 160 96 128 160 0 0 0 176 200 248 0 0 0 64 64 104 96 128 160 96 128 160 96 128 160 128 160 224 128 160 224 128 160 224 128 160 224 96 128 160 96 128 160 96 128 160 64 64 104 96 128 160 96 128 160 96 128 160 96 128 160 96 128 160 96 128 160 0 0 0 96 128 160 128 160 224 128 160 224 64 64 104 255 255 255 255 255 255 0 0 0 248 248 144 64 64 104 96 128 160 176 200 248 128 160 224 128 160 224 64 64 104 255 255 255 255 255 255 255 255 255 255 255 255 
255 255 255 255 255 255 255 255 255 255 255 255 255 255 255 64 64 104 0 0 0 255 255 255 255 255 255 255 255 255 96 128 160 128 160 224 128 160 224 64 64 104 64 64 104 96 128 160 128 160 224 64 64 104 128 160 224 176 200 248 64 64 104 128 160 224 96 128 160 0 0 0 176 200 248 176 200 248 176 200 248 0 0 0 96 128 160 96 128 160 128 160 224 128 160 224 128 160 224 128 160 224 96 128 160 96 128 160 96 128 160 96 128 160 64 64 104 96 128 160 96 128 160 96 128 160 96 128 160 96 128 160 96 128 160 64 64 104 200 200 128 128 160 224 128 160 224 128 160 224 64 64 104 255 255 255 0 0 0 96 128 160 96 128 160 128 160 224 176 200 248 176 200 248 128 160 224 128 160 224 64 64 104 255 255 255 255 255 255 255 255 255 
255 255 255 255 255 255 255 255 255 255 255 255 255 255 255 64 64 104 0 0 0 255 255 255 255 255 255 255 255 255 64 64 104 128 160 224 128 160 224 64 64 104 64 64 104 64 64 104 96 128 160 64 64 104 128 160 224 64 64 104 128 160 224 96 128 160 0 0 0 176 200 248 176 200 248 176 200 248 176 200 248 176 200 248 0 0 0 96 128 160 128 160 224 128 160 224 128 160 224 96 128 160 96 128 160 96 128 160 96 128 160 96 128 160 64 64 104 96 128 160 96 128 160 96 128 160 96 128 160 96 128 160 96 128 160 96 128 160 64 64 104 248 248 144 128 160 224 128 160 224 96 128 160 255 255 255 255 255 255 64 64 104 248 248 144 128 160 224 128 160 224 176 200 248 128 160 224 96 128 160 0 0 0 255 255 255 255 255 255 255 255 255 
255 255 255 255 255 255 255 255 255 255 255 255 255 255 255 64 64 104 128 160 224 0 0 0 255 255 255 255 255 255 64 64 104 128 160 224 128 160 224 64 64 104 216 224 240 64 64 104 96 128 160 64 64 104 64 64 104 128 160 224 96 128 160 96 128 160 0 0 0 176 200 248 176 200 248 176 200 248 176 200 248 128 160 224 128 160 224 64 64 104 128 160 224 128 160 224 128 160 224 96 128 160 96 128 160 96 128 160 96 128 160 96 128 160 64 64 104 64 64 104 64 64 104 64 64 104 96 128 160 96 128 160 96 128 160 96 128 160 64 64 104 248 248 144 248 248 144 128 160 224 128 160 224 64 64 104 255 255 255 64 64 104 248 248 144 248 248 144 128 160 224 96 128 160 96 128 160 96 128 160 0 0 0 255 255 255 255 255 255 255 255 255 
255 255 255 255 255 255 255 255 255 255 255 255 255 255 255 64 64 104 128 160 224 0 0 0 255 255 255 255 255 255 255 255 255 64 64 104 128 160 224 128 160 224 248 248 248 64 64 104 64 64 104 128 160 224 128 160 224 96 128 160 96 128 160 0 0 0 176 200 248 176 200 248 128 160 224 128 160 224 128 160 224 128 160 224 128 160 224 0 0 0 128 160 224 128 160 224 96 128 160 96 128 160 96 128 160 96 128 160 128 160 224 128 160 224 176 200 248 176 200 248 176 200 248 128 160 224 0 0 0 96 128 160 96 128 160 96 128 160 64 64 104 200 200 128 248 248 144 128 160 224 128 160 224 0 0 0 255 255 255 64 64 104 248 248 144 248 248 144 64 64 104 64 64 104 64 64 104 64 64 104 64 64 104 0 0 0 255 255 255 255 255 255 
255 255 255 255 255 255 255 255 255 255 255 255 255 255 255 64 64 104 64 64 104 128 160 224 0 0 0 255 255 255 255 255 255 64 64 104 128 160 224 128 160 224 248 248 248 204 51 51 64 64 104 128 160 224 128 160 224 96 128 160 64 64 104 176 200 248 128 160 224 128 160 224 128 160 224 64 64 104 64 64 104 64 64 104 64 64 104 64 64 104 64 64 104 64 64 104 64 64 104 96 128 160 96 128 160 128 160 224 176 200 248 176 200 248 176 200 248 128 160 224 128 160 224 128 160 224 0 0 0 96 128 160 96 128 160 96 128 160 64 64 104 200 200 128 248 248 144 248 248 144 128 160 224 0 0 0 255 255 255 255 255 255 96 128 160 64 64 104 176 200 248 176 200 248 176 200 248 176 200 248 128 160 224 0 0 0 255 255 255 255 255 255 
255 255 255 255 255 255 255 255 255 255 255 255 104 104 88 248 248 248 248 248 248 64 64 104 128 160 224 64 64 104 64 64 104 128 160 224 64 64 104 64 64 104 204 51 51 0 0 0 64 64 104 128 160 224 96 128 160 96 128 160 64 64 104 64 64 104 64 64 104 64 64 104 64 64 104 96 128 160 96 128 160 96 128 160 96 128 160 128 160 224 128 160 224 128 160 224 64 64 104 128 160 224 128 160 224 176 200 248 176 200 248 128 160 224 128 160 224 128 160 224 0 0 0 0 0 0 96 128 160 96 128 160 96 128 160 96 128 160 0 0 0 200 200 128 200 200 128 248 248 144 128 160 224 128 160 224 64 64 104 255 255 255 64 64 104 128 160 224 176 200 248 176 200 248 176 200 248 176 200 248 128 160 224 0 0 0 255 255 255 255 255 255 
255 255 255 255 255 255 255 255 255 255 255 255 0 0 0 248 248 248 248 248 248 216 224 240 64 64 104 64 64 104 128 160 224 128 160 224 64 64 104 176 200 248 176 200 248 0 0 0 64 64 104 96 128 160 96 128 160 96 128 160 96 128 160 96 128 160 96 128 160 96 128 160 96 128 160 96 128 160 96 128 160 96 128 160 0 0 0 0 0 0 64 64 104 64 64 104 128 160 224 176 200 248 176 200 248 128 160 224 128 160 224 128 160 224 0 0 0 0 0 0 96 128 160 96 128 160 96 128 160 96 128 160 96 128 160 64 64 104 96 128 160 200 200 128 200 200 128 248 248 144 128 160 224 128 160 224 0 0 0 255 255 255 64 64 104 128 160 224 128 160 224 176 200 248 176 200 248 176 200 248 128 160 224 96 128 160 64 64 104 255 255 255 
255 255 255 255 255 255 255 255 255 255 255 255 0 0 0 248 248 248 248 248 248 216 224 240 216 224 240 64 64 104 104 104 88 104 104 88 176 200 248 176 200 248 64 64 104 176 200 248 64 64 104 96 128 160 96 128 160 96 128 160 96 128 160 0 0 0 0 0 0 0 0 0 0 0 0 0 0 0 0 0 0 64 64 104 96 128 160 96 128 160 64 64 104 128 160 224 176 200 248 128 160 224 128 160 224 128 160 224 0 0 0 0 0 0 96 128 160 96 128 160 96 128 160 96 128 160 96 128 160 96 128 160 96 128 160 0 0 0 96 128 160 96 128 160 200 200 128 200 200 128 96 128 160 128 160 224 0 0 0 255 255 255 0 0 0 128 160 224 128 160 224 96 128 160 96 128 160 96 128 160 96 128 160 96 128 160 0 0 0 255 255 255 
255 255 255 255 255 255 255 255 255 255 255 255 104 104 88 248 248 248 248 248 248 216 224 240 216 224 240 64 64 104 248 248 144 248 248 144 104 104 88 104 104 88 176 200 248 176 200 248 176 200 248 64 64 104 0 0 0 0 0 0 0 0 0 204 51 51 204 51 51 248 248 248 248 248 248 248 248 248 216 224 240 128 160 224 96 128 160 96 128 160 96 128 160 64 64 104 128 160 224 128 160 224 64 64 104 0 0 0 0 0 0 96 128 160 96 128 160 96 128 160 96 128 160 96 128 160 96 128 160 96 128 160 0 0 0 96 128 160 96 128 160 96 128 160 96 128 160 96 128 160 96 128 160 96 128 160 0 0 0 255 255 255 0 0 0 128 160 224 64 64 104 64 64 104 64 64 104 64 64 104 64 64 104 96 128 160 0 0 0 255 255 255 
255 255 255 255 255 255 255 255 255 255 255 255 255 255 255 104 104 88 248 248 248 216 224 240 64 64 104 248 248 144 248 248 144 248 248 144 248 248 144 248 248 144 104 104 88 176 200 248 176 200 248 64 64 104 176 200 248 176 200 248 0 0 0 0 0 0 204 51 51 248 248 248 248 248 248 216 224 240 128 160 224 128 160 224 128 160 224 128 160 224 128 160 224 128 160 224 64 64 104 64 64 104 96 128 160 96 128 160 0 0 0 96 128 160 96 128 160 96 128 160 96 128 160 96 128 160 96 128 160 0 0 0 200 200 128 200 200 128 96 128 160 96 128 160 96 128 160 96 128 160 96 128 160 96 128 160 0 0 0 255 255 255 0 0 0 64 64 104 128 160 224 176 200 248 176 200 248 128 160 224 96 128 160 64 64 104 0 0 0 255 255 255 
255 255 255 255 255 255 255 255 255 255 255 255 255 255 255 104 104 88 168 176 192 248 248 248 64 64 104 248 248 144 104 104 88 104 104 88 248 248 144 248 248 144 248 248 248 104 104 88 104 104 88 176 200 248 176 200 248 176 200 248 64 64 104 96 128 160 96 128 160 248 248 248 248 248 248 96 128 160 128 160 224 128 160 224 128 160 224 128 160 224 64 64 104 64 64 104 128 160 224 128 160 224 0 0 0 96 128 160 0 0 0 96 128 160 96 128 160 96 128 160 96 128 160 96 128 160 0 0 0 200 200 128 200 200 128 200 200 128 200 200 128 96 128 160 96 128 160 96 128 160 96 128 160 64 64 104 0 0 0 255 255 255 0 0 0 128 160 224 128 160 224 176 200 248 176 200 248 128 160 224 128 160 224 96 128 160 64 64 104 255 255 255 
64 64 104 176 200 248 255 255 255 255 255 255 255 255 255 255 255 255 104 104 88 168 176 192 168 176 192 104 104 88 248 248 248 248 248 248 104 104 88 248 248 144 248 248 144 248 248 248 248 248 248 104 104 88 128 160 224 128 160 224 128 160 224 128 160 224 128 160 224 96 128 160 96 128 160 128 160 224 128 160 224 128 160 224 128 160 224 128 160 224 128 160 224 96 128 160 64 64 104 128 160 224 0 0 0 96 128 160 0 0 0 96 128 160 96 128 160 96 128 160 0 0 0 0 0 0 200 200 128 200 200 128 200 200 128 200 200 128 200 200 128 96 128 160 96 128 160 96 128 160 96 128 160 64 64 104 64 64 104 64 64 104 64 64 104 128 160 224 176 200 248 176 200 248 176 200 248 128 160 224 128 160 224 96 128 160 96 128 160 64 64 104 
255 255 255 64 64 104 176 200 248 255 255 255 255 255 255 104 104 88 248 248 248 216 224 240 216 224 240 104 104 88 248 248 248 0 0 0 144 32 0 0 0 0 0 0 0 248 248 144 248 248 144 248 248 248 104 104 88 128 160 224 128 160 224 128 160 224 128 160 224 128 160 224 128 160 224 128 160 224 96 128 160 96 128 160 96 128 160 96 128 160 96 128 160 96 128 160 96 128 160 0 0 0 96 128 160 96 128 160 0 0 0 0 0 0 0 0 0 0 0 0 248 248 248 248 248 144 200 200 128 200 200 128 200 200 128 200 200 128 200 200 128 96 128 160 96 128 160 96 128 160 64 64 104 248 248 144 128 160 224 0 0 0 128 160 224 128 160 224 128 160 224 128 160 224 128 160 224 128 160 224 96 128 160 96 128 160 96 128 160 0 0 0 
255 255 255 255 255 255 64 64 104 176 200 248 255 255 255 0 0 0 248 248 248 216 224 240 168 176 192 248 248 144 0 0 0 144 32 0 144 32 0 144 32 0 144 32 0 104 104 88 104 104 88 248 248 144 248 248 144 104 104 88 128 160 224 128 160 224 128 160 224 128 160 224 128 160 224 128 160 224 64 64 104 96 128 160 96 128 160 96 128 160 96 128 160 96 128 160 96 128 160 0 0 0 96 128 160 0 0 0 255 255 255 104 104 88 248 248 248 248 248 248 248 248 248 248 248 144 200 200 128 200 200 128 200 200 128 200 200 128 200 200 128 96 128 160 96 128 160 64 64 104 64 64 104 248 248 144 128 160 224 128 160 224 0 0 0 128 160 224 128 160 224 128 160 224 128 160 224 96 128 160 96 128 160 96 128 160 200 200 128 0 0 0 
255 255 255 255 255 255 64 64 104 176 200 248 255 255 255 0 0 0 248 248 248 248 248 248 168 176 192 248 248 144 0 0 0 144 32 0 144 32 0 144 32 0 0 0 0 248 248 248 248 248 248 104 104 88 248 248 144 0 0 0 128 160 224 128 160 224 128 160 224 128 160 224 128 160 224 128 160 224 128 160 224 64 64 104 64 64 104 0 0 0 0 0 0 0 0 0 0 0 0 0 0 0 0 0 0 255 255 255 255 255 255 104 104 88 248 248 248 248 248 248 248 248 248 248 248 144 248 248 144 200 200 128 200 200 128 200 200 128 96 128 160 96 128 160 64 64 104 64 64 104 200 200 128 200 200 128 128 160 224 128 160 224 0 0 0 128 160 224 64 64 104 64 64 104 64 64 104 64 64 104 64 64 104 96 128 160 200 200 128 0 0 0 
255 255 255 255 255 255 64 64 104 96 128 160 255 255 255 255 255 255 0 0 0 0 0 0 0 0 0 248 248 144 0 0 0 144 32 0 144 32 0 0 0 0 0 0 0 248 248 248 0 0 0 104 104 88 200 200 128 0 0 0 128 160 224 128 160 224 96 128 160 96 128 160 128 160 224 128 160 224 128 160 224 128 160 224 0 0 0 128 160 224 128 160 224 128 160 224 128 160 224 64 64 104 64 64 104 64 64 104 64 64 104 64 64 104 64 64 104 64 64 104 0 0 0 248 248 248 248 248 144 200 200 128 200 200 128 96 128 160 64 64 104 64 64 104 96 128 160 200 200 128 200 200 128 200 200 128 96 128 160 128 160 224 0 0 0 64 64 104 128 160 224 128 160 224 128 160 224 128 160 224 128 160 224 64 64 104 200 200 128 0 0 0 
255 255 255 255 255 255 64 64 104 96 128 160 255 255 255 255 255 255 255 255 255 255 255 255 255 255 255 248 248 144 0 0 0 144 32 0 144 32 0 0 0 0 0 0 0 0 0 0 0 0 0 104 104 88 200 200 128 0 0 0 96 128 160 96 128 160 96 128 160 96 128 160 96 128 160 128 160 224 128 160 224 128 160 224 0 0 0 64 64 104 64 64 104 64 64 104 64 64 104 128 160 224 128 160 224 128 160 224 128 160 224 128 160 224 0 0 0 0 0 0 104 104 88 104 104 88 104 104 88 104 104 88 64 64 104 64 64 104 96 128 160 96 128 160 96 128 160 200 200 128 200 200 128 200 200 128 96 128 160 128 160 224 0 0 0 128 160 224 128 160 224 128 160 224 128 160 224 128 160 224 96 128 160 96 128 160 64 64 104 64 64 104 
255 255 255 255 255 255 64 64 104 96 128 160 255 255 255 255 255 255 255 255 255 255 255 255 104 104 88 248 248 144 0 0 0 144 32 0 0 0 0 0 0 0 0 0 0 0 0 0 0 0 0 104 104 88 200 200 128 0 0 0 96 128 160 96 128 160 96 128 160 96 128 160 96 128 160 96 128 160 96 128 160 96 128 160 0 0 0 216 224 240 216 224 240 216 224 240 216 224 240 64 64 104 64 64 104 0 0 0 0 0 0 0 0 0 255 255 255 104 104 88 248 248 248 248 248 248 248 248 144 200 200 128 200 200 128 200 200 128 96 128 160 96 128 160 96 128 160 96 128 160 200 200 128 96 128 160 96 128 160 128 160 224 64 64 104 64 64 104 128 160 224 128 160 224 128 160 224 128 160 224 96 128 160 96 128 160 64 64 104 96 128 160 
255 255 255 64 64 104 96 128 160 64 64 104 255 255 255 255 255 255 255 255 255 255 255 255 104 104 88 248 248 144 144 32 0 0 0 0 144 32 0 144 32 0 144 32 0 0 0 0 0 0 0 104 104 88 200 200 128 0 0 0 96 128 160 96 128 160 96 128 160 96 128 160 96 128 160 0 0 0 0 0 0 0 0 0 216 224 240 216 224 240 216 224 240 216 224 240 216 224 240 216 224 240 216 224 240 216 224 240 104 104 88 255 255 255 255 255 255 0 0 0 248 248 248 248 248 248 248 248 144 200 200 128 200 200 128 200 200 128 200 200 128 96 128 160 96 128 160 96 128 160 96 128 160 96 128 160 96 128 160 64 64 104 96 128 160 64 64 104 64 64 104 64 64 104 128 160 224 96 128 160 96 128 160 200 200 128 96 128 160 0 0 0 
255 255 255 64 64 104 96 128 160 64 64 104 255 255 255 255 255 255 255 255 255 104 104 88 248 248 144 104 104 88 0 0 0 144 32 0 204 51 51 204 51 51 204 51 51 144 32 0 0 0 0 104 104 88 200 200 128 0 0 0 96 128 160 96 128 160 96 128 160 0 0 0 0 0 0 216 224 240 216 224 240 216 224 240 216 224 240 216 224 240 216 224 240 248 248 248 248 248 248 248 248 248 248 248 248 104 104 88 255 255 255 255 255 255 255 255 255 255 255 255 104 104 88 248 248 248 248 248 248 248 248 144 200 200 128 200 200 128 200 200 128 96 128 160 96 128 160 96 128 160 96 128 160 96 128 160 64 64 104 200 200 128 96 128 160 96 128 160 0 0 0 96 128 160 64 64 104 96 128 160 200 200 128 200 200 128 96 128 160 0 0 0 
255 255 255 96 128 160 64 64 104 255 255 255 255 255 255 255 255 255 255 255 255 248 248 144 104 104 88 0 0 0 204 51 51 208 136 96 208 136 96 204 51 51 204 51 51 204 51 51 0 0 0 104 104 88 200 200 128 104 104 88 96 128 160 96 128 160 0 0 0 168 176 192 168 176 192 168 176 192 168 176 192 248 248 248 248 248 248 248 248 248 248 248 248 248 248 248 248 248 248 248 248 248 0 0 0 255 255 255 255 255 255 255 255 255 255 255 255 255 255 255 0 0 0 248 248 248 248 248 248 248 248 144 200 200 128 200 200 128 200 200 128 96 128 160 96 128 160 96 128 160 96 128 160 64 64 104 200 200 128 200 200 128 96 128 160 96 128 160 0 0 0 96 128 160 96 128 160 64 64 104 200 200 128 200 200 128 96 128 160 0 0 0 
64 64 104 96 128 160 64 64 104 255 255 255 255 255 255 255 255 255 255 255 255 200 200 128 248 248 248 0 0 0 208 136 96 208 136 96 208 136 96 208 136 96 204 51 51 204 51 51 0 0 0 104 104 88 200 200 128 104 104 88 96 128 160 0 0 0 216 224 240 216 224 240 216 224 240 216 224 240 216 224 240 168 176 192 248 248 248 248 248 248 248 248 248 248 248 248 248 248 248 0 0 0 255 255 255 255 255 255 255 255 255 255 255 255 255 255 255 255 255 255 255 255 255 0 0 0 248 248 248 248 248 144 248 248 144 200 200 128 96 128 160 96 128 160 96 128 160 64 64 104 64 64 104 200 200 128 200 200 128 200 200 128 96 128 160 96 128 160 0 0 0 200 200 128 200 200 128 64 64 104 200 200 128 96 128 160 96 128 160 0 0 0 
64 64 104 96 128 160 255 255 255 255 255 255 255 255 255 255 255 255 104 104 88 200 200 128 248 248 248 204 51 51 208 136 96 208 136 96 208 136 96 208 136 96 204 51 51 204 51 51 104 104 88 200 200 128 200 200 128 0 0 0 96 128 160 0 0 0 216 224 240 216 224 240 216 224 240 216 224 240 216 224 240 216 224 240 168 176 192 248 248 248 248 248 248 248 248 248 104 104 88 255 255 255 255 255 255 255 255 255 255 255 255 255 255 255 255 255 255 255 255 255 255 255 255 255 255 255 104 104 88 104 104 88 104 104 88 64 64 104 64 64 104 64 64 104 64 64 104 96 128 160 96 128 160 200 200 128 200 200 128 200 200 128 96 128 160 96 128 160 0 0 0 200 200 128 200 200 128 96 128 160 64 64 104 96 128 160 0 0 0 255 255 255 
64 64 104 96 128 160 255 255 255 255 255 255 255 255 255 255 255 255 0 0 0 248 248 144 104 104 88 204 51 51 204 51 51 208 136 96 208 136 96 204 51 51 204 51 51 104 104 88 200 200 128 200 200 128 96 128 160 176 200 248 0 0 0 0 0 0 104 104 88 104 104 88 248 248 248 248 248 248 248 248 248 248 248 248 168 176 192 104 104 88 248 248 248 248 248 248 0 0 0 255 255 255 255 255 255 255 255 255 255 255 255 255 255 255 255 255 255 255 255 255 255 255 255 255 255 255 0 0 0 128 160 224 200 200 128 200 200 128 200 200 128 96 128 160 96 128 160 96 128 160 96 128 160 96 128 160 200 200 128 200 200 128 96 128 160 96 128 160 64 64 104 200 200 128 200 200 128 96 128 160 64 64 104 96 128 160 0 0 0 255 255 255 
64 64 104 96 128 160 255 255 255 255 255 255 255 255 255 64 64 104 176 200 248 200 200 128 248 248 144 104 104 88 204 51 51 204 51 51 248 248 248 204 51 51 104 104 88 200 200 128 200 200 128 0 0 0 0 0 0 0 0 0 176 200 248 64 64 104 255 255 255 255 255 255 104 104 88 248 248 248 248 248 248 248 248 248 104 104 88 255 255 255 0 0 0 0 0 0 0 0 0 255 255 255 255 255 255 255 255 255 255 255 255 255 255 255 255 255 255 255 255 255 255 255 255 255 255 255 0 0 0 248 248 144 248 248 144 248 248 144 200 200 128 200 200 128 96 128 160 96 128 160 96 128 160 96 128 160 96 128 160 96 128 160 96 128 160 64 64 104 200 200 128 200 200 128 96 128 160 96 128 160 64 64 104 0 0 0 255 255 255 255 255 255 
64 64 104 96 128 160 64 64 104 255 255 255 255 255 255 64 64 104 176 200 248 104 104 88 200 200 128 248 248 144 104 104 88 104 104 88 248 248 248 204 51 51 104 104 88 200 200 128 0 0 0 255 255 255 255 255 255 0 0 0 176 200 248 64 64 104 255 255 255 255 255 255 255 255 255 104 104 88 248 248 248 248 248 248 104 104 88 255 255 255 255 255 255 255 255 255 255 255 255 255 255 255 255 255 255 64 64 104 64 64 104 64 64 104 255 255 255 255 255 255 255 255 255 255 255 255 255 255 255 104 104 88 248 248 144 248 248 144 248 248 144 200 200 128 200 200 128 96 128 160 96 128 160 96 128 160 96 128 160 96 128 160 96 128 160 0 0 0 96 128 160 96 128 160 96 128 160 96 128 160 0 0 0 255 255 255 255 255 255 255 255 255 
255 255 255 96 128 160 176 200 248 64 64 104 64 64 104 176 200 248 64 64 104 255 255 255 0 0 0 0 0 0 248 248 144 248 248 144 104 104 88 104 104 88 200 200 128 104 104 88 0 0 0 255 255 255 255 255 255 64 64 104 176 200 248 64 64 104 255 255 255 255 255 255 255 255 255 255 255 255 104 104 88 248 248 248 248 248 248 104 104 88 255 255 255 255 255 255 255 255 255 64 64 104 96 128 160 96 128 160 96 128 160 64 64 104 64 64 104 255 255 255 255 255 255 255 255 255 255 255 255 0 0 0 248 248 248 248 248 144 248 248 144 200 200 128 200 200 128 96 128 160 96 128 160 96 128 160 96 128 160 96 128 160 0 0 0 96 128 160 96 128 160 96 128 160 96 128 160 64 64 104 255 255 255 255 255 255 255 255 255 255 255 255 
255 255 255 64 64 104 96 128 160 176 200 248 176 200 248 64 64 104 255 255 255 255 255 255 255 255 255 255 255 255 0 0 0 104 104 88 248 248 144 200 200 128 200 200 128 0 0 0 255 255 255 255 255 255 255 255 255 64 64 104 96 128 160 64 64 104 255 255 255 255 255 255 255 255 255 255 255 255 104 104 88 248 248 248 248 248 248 0 0 0 255 255 255 255 255 255 64 64 104 176 200 248 64 64 104 64 64 104 255 255 255 255 255 255 255 255 255 64 64 104 255 255 255 255 255 255 255 255 255 255 255 255 0 0 0 200 200 128 248 248 144 248 248 144 200 200 128 200 200 128 96 128 160 96 128 160 96 128 160 0 0 0 200 200 128 96 128 160 96 128 160 96 128 160 96 128 160 0 0 0 255 255 255 255 255 255 255 255 255 255 255 255 
255 255 255 255 255 255 64 64 104 64 64 104 64 64 104 255 255 255 255 255 255 255 255 255 255 255 255 255 255 255 255 255 255 255 255 255 0 0 0 0 0 0 0 0 0 255 255 255 255 255 255 255 255 255 255 255 255 255 255 255 96 128 160 64 64 104 255 255 255 255 255 255 255 255 255 255 255 255 255 255 255 0 0 0 0 0 0 0 0 0 255 255 255 64 64 104 176 200 248 64 64 104 255 255 255 255 255 255 255 255 255 255 255 255 255 255 255 255 255 255 255 255 255 255 255 255 255 255 255 255 255 255 255 255 255 0 0 0 104 104 88 200 200 128 248 248 144 248 248 144 96 128 160 64 64 104 0 0 0 200 200 128 200 200 128 200 200 128 96 128 160 96 128 160 0 0 0 255 255 255 255 255 255 255 255 255 255 255 255 255 255 255 
255 255 255 255 255 255 255 255 255 255 255 255 255 255 255 255 255 255 255 255 255 255 255 255 255 255 255 255 255 255 255 255 255 255 255 255 255 255 255 255 255 255 255 255 255 255 255 255 255 255 255 255 255 255 255 255 255 255 255 255 64 64 104 96 128 160 255 255 255 255 255 255 255 255 255 255 255 255 255 255 255 255 255 255 255 255 255 255 255 255 255 255 255 64 64 104 176 200 248 64 64 104 255 255 255 255 255 255 255 255 255 255 255 255 255 255 255 255 255 255 255 255 255 255 255 255 255 255 255 255 255 255 255 255 255 255 255 255 255 255 255 0 0 0 104 104 88 64 64 104 64 64 104 248 248 144 248 248 144 248 248 144 200 200 128 200 200 128 0 0 0 0 0 0 255 255 255 255 255 255 255 255 255 255 255 255 255 255 255 255 255 255 
255 255 255 255 255 255 255 255 255 255 255 255 255 255 255 255 255 255 255 255 255 255 255 255 255 255 255 255 255 255 255 255 255 255 255 255 255 255 255 255 255 255 255 255 255 255 255 255 255 255 255 255 255 255 255 255 255 255 255 255 64 64 104 96 128 160 64 64 104 255 255 255 255 255 255 255 255 255 255 255 255 255 255 255 255 255 255 255 255 255 64 64 104 176 200 248 64 64 104 255 255 255 255 255 255 255 255 255 255 255 255 255 255 255 255 255 255 255 255 255 255 255 255 255 255 255 255 255 255 255 255 255 255 255 255 255 255 255 255 255 255 255 255 255 255 255 255 255 255 255 255 255 255 104 104 88 0 0 0 0 0 0 0 0 0 0 0 0 255 255 255 255 255 255 255 255 255 255 255 255 255 255 255 255 255 255 255 255 255 255 255 255 
255 255 255 255 255 255 255 255 255 255 255 255 255 255 255 255 255 255 255 255 255 255 255 255 255 255 255 255 255 255 255 255 255 255 255 255 255 255 255 255 255 255 255 255 255 255 255 255 255 255 255 255 255 255 255 255 255 255 255 255 255 255 255 64 64 104 96 128 160 64 64 104 64 64 104 255 255 255 255 255 255 255 255 255 64 64 104 64 64 104 176 200 248 64 64 104 255 255 255 255 255 255 255 255 255 255 255 255 255 255 255 255 255 255 255 255 255 255 255 255 255 255 255 255 255 255 255 255 255 255 255 255 255 255 255 255 255 255 255 255 255 255 255 255 255 255 255 255 255 255 255 255 255 255 255 255 255 255 255 255 255 255 255 255 255 255 255 255 255 255 255 255 255 255 255 255 255 255 255 255 255 255 255 255 255 255 255 255 255 255 255 255 
255 255 255 255 255 255 255 255 255 255 255 255 255 255 255 255 255 255 255 255 255 255 255 255 255 255 255 255 255 255 255 255 255 255 255 255 255 255 255 255 255 255 255 255 255 255 255 255 255 255 255 255 255 255 255 255 255 255 255 255 255 255 255 255 255 255 64 64 104 96 128 160 96 128 160 96 128 160 96 128 160 96 128 160 96 128 160 96 128 160 64 64 104 255 255 255 255 255 255 255 255 255 255 255 255 255 255 255 255 255 255 255 255 255 255 255 255 255 255 255 255 255 255 255 255 255 255 255 255 255 255 255 255 255 255 255 255 255 255 255 255 255 255 255 255 255 255 255 255 255 255 255 255 255 255 255 255 255 255 255 255 255 255 255 255 255 255 255 255 255 255 255 255 255 255 255 255 255 255 255 255 255 255 255 255 255 255 255 255 255 255 255 
255 255 255 255 255 255 255 255 255 255 255 255 255 255 255 255 255 255 255 255 255 255 255 255 255 255 255 255 255 255 255 255 255 255 255 255 255 255 255 255 255 255 255 255 255 255 255 255 255 255 255 255 255 255 255 255 255 255 255 255 255 255 255 255 255 255 255 255 255 255 255 255 64 64 104 64 64 104 64 64 104 64 64 104 64 64 104 255 255 255 255 255 255 255 255 255 255 255 255 255 255 255 255 255 255 255 255 255 255 255 255 255 255 255 255 255 255 255 255 255 255 255 255 255 255 255 255 255 255 255 255 255 255 255 255 255 255 255 255 255 255 255 255 255 255 255 255 255 255 255 255 255 255 255 255 255 255 255 255 255 255 255 255 255 255 255 255 255 255 255 255 255 255 255 255 255 255 255 255 255 255 255 255 255 255 255 255 255 255 255 255 255 
255 255 255 255 255 255 255 255 255 255 255 255 255 255 255 255 255 255 255 255 255 255 255 255 255 255 255 255 255 255 255 255 255 255 255 255 255 255 255 255 255 255 255 255 255 255 255 255 255 255 255 255 255 255 255 255 255 255 255 255 255 255 255 255 255 255 255 255 255 255 255 255 255 255 255 255 255 255 255 255 255 255 255 255 255 255 255 255 255 255 255 255 255 255 255 255 255 255 255 255 255 255 255 255 255 255 255 255 255 255 255 255 255 255 255 255 255 255 255 255 255 255 255 255 255 255 255 255 255 255 255 255 255 255 255 255 255 255 255 255 255 255 255 255 255 255 255 255 255 255 255 255 255 255 255 255 255 255 255 255 255 255 255 255 255 255 255 255 255 255 255 255 255 255 255 255 255 255 255 255 255 255 255 255 255 255 255 255 255 255 255 255 
255 255 255 255 255 255 255 255 255 255 255 255 255 255 255 255 255 255 255 255 255 255 255 255 255 255 255 255 255 255 255 255 255 255 255 255 255 255 255 255 255 255 255 255 255 255 255 255 255 255 255 255 255 255 255 255 255 255 255 255 255 255 255 255 255 255 255 255 255 255 255 255 255 255 255 255 255 255 255 255 255 255 255 255 255 255 255 255 255 255 255 255 255 255 255 255 255 255 255 255 255 255 255 255 255 255 255 255 255 255 255 255 255 255 255 255 255 255 255 255 255 255 255 255 255 255 255 255 255 255 255 255 255 255 255 255 255 255 255 255 255 255 255 255 255 255 255 255 255 255 255 255 255 255 255 255 255 255 255 255 255 255 255 255 255 255 255 255 255 255 255 255 255 255 255 255 255 255 255 255 255 255 255 255 255 255 255 255 255 255 255 255 
255 255 255 255 255 255 255 255 255 255 255 255 255 255 255 255 255 255 255 255 255 255 255 255 255 255 255 255 255 255 255 255 255 255 255 255 255 255 255 255 255 255 255 255 255 255 255 255 255 255 255 255 255 255 255 255 255 255 255 255 255 255 255 255 255 255 255 255 255 255 255 255 255 255 255 255 255 255 255 255 255 255 255 255 255 255 255 255 255 255 255 255 255 255 255 255 255 255 255 255 255 255 255 255 255 255 255 255 255 255 255 255 255 255 255 255 255 255 255 255 255 255 255 255 255 255 255 255 255 255 255 255 255 255 255 255 255 255 255 255 255 255 255 255 255 255 255 255 255 255 255 255 255 255 255 255 255 255 255 255 255 255 255 255 255 255 255 255 255 255 255 255 255 255 255 255 255 255 255 255 255 255 255 255 255 255 255 255 255 255 255 255 
255 255 255 255 255 255 255 255 255 255 255 255 255 255 255 255 255 255 255 255 255 255 255 255 255 255 255 255 255 255 255 255 255 255 255 255 255 255 255 255 255 255 255 255 255 255 255 255 255 255 255 255 255 255 255 255 255 255 255 255 255 255 255 255 255 255 255 255 255 255 255 255 255 255 255 255 255 255 255 255 255 255 255 255 255 255 255 255 255 255 255 255 255 255 255 255 255 255 255 255 255 255 255 255 255 255 255 255 255 255 255 255 255 255 255 255 255 255 255 255 255 255 255 255 255 255 255 255 255 255 255 255 255 255 255 255 255 255 255 255 255 255 255 255 255 255 255 255 255 255 255 255 255 255 255 255 255 255 255 255 255 255 255 255 255 255 255 255 255 255 255 255 255 255 255 255 255 255 255 255 255 255 255 255 255 255 255 255 255 255 255 255 
255 255 255 255 255 255 255 255 255 255 255 255 255 255 255 255 255 255 255 255 255 255 255 255 255 255 255 255 255 255 255 255 255 255 255 255 255 255 255 255 255 255 255 255 255 255 255 255 255 255 255 255 255 255 255 255 255 255 255 255 255 255 255 255 255 255 255 255 255 255 255 255 255 255 255 255 255 255 255 255 255 255 255 255 255 255 255 255 255 255 255 255 255 255 255 255 255 255 255 255 255 255 255 255 255 255 255 255 255 255 255 255 255 255 255 255 255 255 255 255 255 255 255 255 255 255 255 255 255 255 255 255 255 255 255 255 255 255 255 255 255 255 255 255 255 255 255 255 255 255 255 255 255 255 255 255 255 255 255 255 255 255 255 255 255 255 255 255 255 255 255 255 255 255 255 255 255 255 255 255 255 255 255 255 255 255 255 255 255 255 255 255 
255 255 255 255 255 255 255 255 255 255 255 255 255 255 255 255 255 255 255 255 255 255 255 255 255 255 255 255 255 255 255 255 255 255 255 255 255 255 255 255 255 255 255 255 255 255 255 255 255 255 255 255 255 255 255 255 255 255 255 255 255 255 255 255 255 255 255 255 255 255 255 255 255 255 255 255 255 255 255 255 255 255 255 255 255 255 255 255 255 255 255 255 255 255 255 255 255 255 255 255 255 255 255 255 255 255 255 255 255 255 255 255 255 255 255 255 255 255 255 255 255 255 255 255 255 255 255 255 255 255 255 255 255 255 255 255 255 255 255 255 255 255 255 255 255 255 255 255 255 255 255 255 255 255 255 255 255 255 255 255 255 255 255 255 255 255 255 255 255 255 255 255 255 255 255 255 255 255 255 255 255 255 255 255 255 255 255 255 255 255 255 255 
255 255 255 255 255 255 255 255 255 255 255 255 255 255 255 255 255 255 255 255 255 255 255 255 255 255 255 255 255 255 255 255 255 255 255 255 255 255 255 255 255 255 255 255 255 255 255 255 255 255 255 255 255 255 255 255 255 255 255 255 255 255 255 255 255 255 255 255 255 255 255 255 255 255 255 255 255 255 255 255 255 255 255 255 255 255 255 255 255 255 255 255 255 255 255 255 255 255 255 255 255 255 255 255 255 255 255 255 255 255 255 255 255 255 255 255 255 255 255 255 255 255 255 255 255 255 255 255 255 255 255 255 255 255 255 255 255 255 255 255 255 255 255 255 255 255 255 255 255 255 255 255 255 255 255 255 255 255 255 255 255 255 255 255 255 255 255 255 255 255 255 255 255 255 255 255 255 255 255 255 255 255 255 255 255 255 255 255 255 255 255 255 
255 255 255 255 255 255 255 255 255 255 255 255 255 255 255 255 255 255 255 255 255 255 255 255 255 255 255 255 255 255 255 255 255 255 255 255 255 255 255 255 255 255 255 255 255 255 255 255 255 255 255 255 255 255 255 255 255 255 255 255 255 255 255 255 255 255 255 255 255 255 255 255 255 255 255 255 255 255 255 255 255 255 255 255 255 255 255 255 255 255 255 255 255 255 255 255 255 255 255 255 255 255 255 255 255 255 255 255 255 255 255 255 255 255 255 255 255 255 255 255 255 255 255 255 255 255 255 255 255 255 255 255 255 255 255 255 255 255 255 255 255 255 255 255 255 255 255 255 255 255 255 255 255 255 255 255 255 255 255 255 255 255 255 255 255 255 255 255 255 255 255 255 255 255 255 255 255 255 255 255 255 255 255 255 255 255 255 255 255 255 255 255 
