P3
64 64
255
255 255 255 255 255 255 255 255 255 255 255 255 255 255 255 255 255 255 255 255 255 255 255 255 255 255 255 255 255 255 255 255 255 255 255 255 255 255 255 255 255 255 255 255 255 255 255 255 255 255 255 255 255 255 255 255 255 255 255 255 255 255 255 255 255 255 255 255 255 255 255 255 255 255 255 255 255 255 255 255 255 255 255 255 255 255 255 255 255 255 255 255 255 255 255 255 255 255 255 255 255 255 255 255 255 255 255 255 255 255 255 255 255 255 255 255 255 255 255 255 255 255 255 255 255 255 255 255 255 255 255 255 255 255 255 255 255 255 255 255 255 255 255 255 255 255 255 255 255 255 255 255 255 255 255 255 255 255 255 255 255 255 255 255 255 255 255 255 255 255 255 255 255 255 255 255 255 255 255 255 255 255 255 255 255 255 255 255 255 255 255 255 
255 255 255 255 255 255 255 255 255 255 255 255 255 255 255 255 255 255 255 255 255 255 255 255 255 255 255 255 255 255 255 255 255 255 255 255 255 255 255 255 255 255 255 255 255 255 255 255 255 255 255 255 255 255 255 255 255 255 255 255 255 255 255 255 255 255 255 255 255 255 255 255 255 255 255 255 255 255 255 255 255 255 255 255 255 255 255 255 255 255 255 255 255 255 255 255 255 255 255 255 255 255 255 255 255 255 255 255 255 255 255 255 255 255 255 255 255 255 255 255 255 255 255 255 255 255 255 255 255 255 255 255 255 255 255 255 255 255 255 255 255 255 255 255 255 255 255 255 255 255 255 255 255 255 255 255 255 255 255 255 255 255 255 255 255 255 255 255 255 255 255 255 255 255 255 255 255 255 255 255 255 255 255 255 255 255 255 255 255 255 255 255 
255 255 255 255 255 255 255 255 255 255 255 255 255 255 255 255 255 255 255 255 255 255 255 255 102 153 102 48 88 64 255 255 255 255 255 255 255 255 255 255 255 255 255 255 255 255 255 255 255 255 255 255 255 255 255 255 255 255 255 255 255 255 255 255 255 255 255 255 255 255 255 255 255 255 255 255 255 255 255 255 255 255 255 255 255 255 255 255 255 255 255 255 255 255 255 255 255 255 255 255 255 255 255 255 255 255 255 255 255 255 255 255 255 255 255 255 255 255 255 255 255 255 255 255 255 255 255 255 255 255 255 255 255 255 255 255 255 255 255 255 255 255 255 255 102 153 102 48 88 64 48 88 64 48 88 64 255 255 255 255 255 255 255 255 255 255 255 255 255 255 255 255 255 255 255 255 255 255 255 255 255 255 255 255 255 255 255 255 255 255 255 255 
255 255 255 255 255 255 255 255 255 255 255 255 255 255 255 255 255 255 255 255 255 102 153 102 200 240 208 102 153 102 48 88 64 255 255 255 255 255 255 255 255 255 255 255 255 255 255 255 255 255 255 255 255 255 255 255 255 255 255 255 255 255 255 255 255 255 255 255 255 255 255 255 255 255 255 255 255 255 255 255 255 255 255 255 255 255 255 255 255 255 255 255 255 255 255 255 255 255 255 255 255 255 255 255 255 255 255 255 255 255 255 255 255 255 255 255 255 255 255 255 255 255 255 255 255 255 255 255 255 255 255 255 255 255 255 48 88 64 48 88 64 102 153 102 200 240 208 200 240 208 168 208 176 48 88 64 48 88 64 102 153 102 255 255 255 255 255 255 255 255 255 255 255 255 255 255 255 255 255 255 255 255 255 255 255 255 255 255 255 255 255 255 
255 255 255 255 255 255 255 255 255 102 153 102 102 153 102 102 153 102 255 255 255 102 153 102 200 240 208 102 153 102 16 16 16 255 255 255 255 255 255 255 255 255 255 255 255 255 255 255 255 255 255 255 255 255 255 255 255 255 255 255 255 255 255 255 255 255 255 255 255 255 255 255 255 255 255 255 255 255 255 255 255 255 255 255 255 255 255 255 255 255 255 255 255 255 255 255 255 255 255 255 255 255 255 255 255 255 255 255 255 255 255 255 255 255 255 255 255 255 255 255 255 255 255 255 255 255 255 255 255 102 153 102 102 153 102 168 208 176 48 88 64 200 240 208 168 208 176 102 153 102 48 88 64 168 208 176 168 208 176 168 208 176 16 16 16 255 255 255 255 255 255 255 255 255 255 255 255 255 255 255 255 255 255 255 255 255 255 255 255 255 255 255 
255 255 255 255 255 255 102 153 102 200 240 208 200 240 208 48 88 64 48 88 64 48 88 64 168 208 176 102 153 102 16 16 16 48 88 64 255 255 255 255 255 255 255 255 255 255 255 255 255 255 255 255 255 255 255 255 255 255 255 255 255 255 255 255 255 255 255 255 255 255 255 255 255 255 255 255 255 255 255 255 255 255 255 255 255 255 255 255 255 255 160 168 40 112 96 0 255 255 255 255 255 255 255 255 255 255 255 255 255 255 255 255 255 255 255 255 255 255 255 255 255 255 255 255 255 255 102 153 102 200 240 208 200 240 208 168 208 176 16 16 16 102 153 102 102 153 102 16 16 16 16 16 16 168 208 176 168 208 176 48 88 64 48 88 64 16 16 16 255 255 255 255 255 255 255 255 255 255 255 255 255 255 255 255 255 255 255 255 255 255 255 255 
255 255 255 255 255 255 102 153 102 168 208 176 168 208 176 102 153 102 16 16 16 48 88 64 168 208 176 102 153 102 16 16 16 102 153 102 48 88 64 255 255 255 255 255 255 255 255 255 255 255 255 255 255 255 255 255 255 255 255 255 255 255 255 255 255 255 255 255 255 255 255 255 255 255 255 255 255 255 255 255 255 255 255 255 255 255 255 160 168 40 248 248 248 248 248 248 16 16 16 255 255 255 255 255 255 255 255 255 255 255 255 255 255 255 255 255 255 255 255 255 255 255 255 255 255 255 48 88 64 168 208 176 102 153 102 16 16 16 102 153 102 16 16 16 16 16 16 102 153 102 16 16 16 102 153 102 48 88 64 168 208 176 168 208 176 48 88 64 16 16 16 255 255 255 255 255 255 255 255 255 255 255 255 255 255 255 255 255 255 255 255 255 
255 255 255 102 153 102 102 153 102 48 88 64 102 153 102 102 153 102 16 16 16 16 16 16 16 16 16 16 16 16 102 153 102 102 153 102 48 88 64 48 88 64 48 88 64 255 255 255 255 255 255 255 255 255 255 255 255 255 255 255 255 255 255 255 255 255 255 255 255 255 255 255 112 96 0 112 96 0 255 255 255 255 255 255 112 96 0 248 248 248 192 200 72 192 200 72 192 200 72 16 16 16 255 255 255 160 168 40 112 96 0 112 96 0 255 255 255 255 255 255 255 255 255 255 255 255 255 255 255 48 88 64 16 16 16 16 16 16 102 153 102 102 153 102 102 153 102 102 153 102 102 153 102 16 16 16 168 208 176 168 208 176 48 88 64 48 88 64 16 16 16 255 255 255 255 255 255 255 255 255 255 255 255 255 255 255 255 255 255 255 255 255 
255 255 255 102 153 102 200 240 208 168 208 176 48 88 64 16 16 16 16 16 16 102 153 102 102 153 102 102 153 102 102 153 102 48 88 64 200 240 208 168 208 176 102 153 102 48 88 64 255 255 255 255 255 255 255 255 255 255 255 255 255 255 255 255 255 255 255 255 255 112 96 0 192 200 72 192 200 72 112 96 0 112 96 0 248 248 248 192 200 72 192 200 72 192 200 72 192 200 72 16 16 16 112 96 0 248 248 248 248 248 248 248 248 248 112 96 0 255 255 255 255 255 255 255 255 255 255 255 255 255 255 255 255 255 255 255 255 255 16 16 16 102 153 102 102 153 102 102 153 102 102 153 102 16 16 16 16 16 16 16 16 16 102 153 102 102 153 102 16 16 16 255 255 255 255 255 255 255 255 255 255 255 255 255 255 255 255 255 255 255 255 255 
255 255 255 48 88 64 168 208 176 168 208 176 102 153 102 16 16 16 102 153 102 102 153 102 102 153 102 168 208 176 102 153 102 48 88 64 168 208 176 102 153 102 102 153 102 48 88 64 255 255 255 255 255 255 255 255 255 255 255 255 255 255 255 255 255 255 160 168 40 248 248 248 192 200 72 192 200 72 192 200 72 16 16 16 248 248 248 192 200 72 192 200 72 192 200 72 192 200 72 112 96 0 248 248 248 192 200 72 192 200 72 192 200 72 192 200 72 112 96 0 255 255 255 255 255 255 255 255 255 255 255 255 102 153 102 48 88 64 48 88 64 48 88 64 102 153 102 102 153 102 168 208 176 48 88 64 168 208 176 102 153 102 102 153 102 102 153 102 16 16 16 255 255 255 255 255 255 255 255 255 255 255 255 255 255 255 255 255 255 255 255 255 
102 153 102 48 88 64 48 88 64 48 88 64 102 153 102 16 16 16 102 153 102 102 153 102 168 208 176 168 208 176 168 208 176 102 153 102 16 16 16 16 16 16 16 16 16 255 255 255 255 255 255 255 255 255 255 255 255 255 255 255 255 255 255 255 255 255 112 96 0 248 248 248 192 200 72 192 200 72 112 96 0 248 248 248 192 200 72 192 200 72 192 200 72 192 200 72 16 16 16 248 248 248 192 200 72 192 200 72 192 200 72 192 200 72 192 200 72 16 16 16 255 255 255 255 255 255 255 255 255 102 153 102 200 240 208 200 240 208 168 208 176 102 153 102 102 153 102 168 208 176 168 208 176 48 88 64 168 208 176 102 153 102 102 153 102 102 153 102 16 16 16 255 255 255 255 255 255 255 255 255 255 255 255 255 255 255 255 255 255 255 255 255 
102 153 102 168 208 176 168 208 176 16 16 16 16 16 16 102 153 102 102 153 102 48 88 64 168 208 176 168 208 176 168 208 176 102 153 102 102 153 102 16 16 16 255 255 255 255 255 255 255 255 255 255 255 255 255 255 255 255 255 255 255 255 255 255 255 255 112 96 0 248 248 248 192 200 72 192 200 72 16 16 16 248 248 248 192 200 72 192 200 72 192 200 72 112 96 0 248 248 248 192 200 72 192 200 72 48 88 64 48 88 64 48 88 64 192 200 72 16 16 16 255 255 255 255 255 255 255 255 255 102 153 102 168 208 176 168 208 176 102 153 102 102 153 102 102 153 102 168 208 176 168 208 176 168 208 176 168 208 176 168 208 176 102 153 102 102 153 102 16 16 16 48 88 64 255 255 255 255 255 255 255 255 255 255 255 255 255 255 255 255 255 255 
48 88 64 168 208 176 102 153 102 16 16 16 102 153 102 102 153 102 102 153 102 48 88 64 16 16 16 16 16 16 16 16 16 48 88 64 255 255 255 255 255 255 255 255 255 255 255 255 255 255 255 255 255 255 255 255 255 255 255 255 255 255 255 255 255 255 255 255 255 112 96 0 248 248 248 192 200 72 16 16 16 248 248 248 192 200 72 192 200 72 112 96 0 248 248 248 192 200 72 192 200 72 48 88 64 102 153 102 102 153 102 102 153 102 48 88 64 16 16 16 255 255 255 255 255 255 255 255 255 255 255 255 48 88 64 48 88 64 48 88 64 102 153 102 102 153 102 102 153 102 168 208 176 168 208 176 168 208 176 102 153 102 48 88 64 102 153 102 48 88 64 48 88 64 255 255 255 255 255 255 255 255 255 255 255 255 255 255 255 255 255 255 
255 255 255 48 88 64 48 88 64 16 16 16 168 208 176 168 208 176 102 153 102 16 16 16 102 153 102 102 153 102 16 16 16 255 255 255 255 255 255 255 255 255 255 255 255 255 255 255 255 255 255 255 255 255 255 255 255 48 88 64 48 88 64 48 88 64 48 88 64 112 96 0 248 248 248 192 200 72 16 16 16 248 248 248 192 200 72 192 200 72 112 96 0 248 248 248 192 200 72 48 88 64 168 208 176 102 153 102 102 153 102 102 153 102 102 153 102 16 16 16 255 255 255 255 255 255 255 255 255 255 255 255 255 255 255 255 255 255 255 255 255 48 88 64 16 16 16 16 16 16 16 16 16 16 16 16 16 16 16 48 88 64 102 153 102 102 153 102 102 153 102 102 153 102 48 88 64 255 255 255 255 255 255 255 255 255 255 255 255 255 255 255 
255 255 255 255 255 255 255 255 255 48 88 64 16 16 16 16 16 16 16 16 16 102 153 102 102 153 102 102 153 102 16 16 16 255 255 255 255 255 255 255 255 255 255 255 255 255 255 255 255 255 255 48 88 64 48 88 64 168 208 176 168 208 176 168 208 176 102 153 102 48 88 64 16 16 16 248 248 248 112 96 0 248 248 248 192 200 72 112 96 0 248 248 248 160 168 40 48 88 64 48 88 64 48 88 64 102 153 102 102 153 102 102 153 102 102 153 102 48 88 64 255 255 255 255 255 255 48 88 64 48 88 64 48 88 64 48 88 64 255 255 255 255 255 255 255 255 255 255 255 255 48 88 64 102 153 102 102 153 102 102 153 102 102 153 102 102 153 102 102 153 102 102 153 102 48 88 64 16 16 16 255 255 255 255 255 255 255 255 255 255 255 255 
255 255 255 255 255 255 255 255 255 255 255 255 48 88 64 102 153 102 102 153 102 102 153 102 168 208 176 168 208 176 168 208 176 16 16 16 255 255 255 255 255 255 48 88 64 48 88 64 48 88 64 48 88 64 168 208 176 168 208 176 168 208 176 102 153 102 102 153 102 48 88 64 204 204 204 16 16 16 112 96 0 248 248 248 112 96 0 112 96 0 248 248 248 48 88 64 48 88 64 248 248 248 248 248 248 204 204 204 102 153 102 102 153 102 102 153 102 48 88 64 16 16 16 102 153 102 168 208 176 168 208 176 168 208 176 102 153 102 48 88 64 48 88 64 255 255 255 48 88 64 48 88 64 48 88 64 168 208 176 168 208 176 168 208 176 102 153 102 102 153 102 102 153 102 102 153 102 48 88 64 16 16 16 255 255 255 255 255 255 255 255 255 
255 255 255 255 255 255 255 255 255 255 255 255 48 88 64 168 208 176 168 208 176 168 208 176 48 88 64 168 208 176 168 208 176 16 16 16 48 88 64 48 88 64 200 240 208 200 240 208 168 208 176 102 153 102 168 208 176 168 208 176 48 88 64 48 88 64 48 88 64 48 88 64 248 248 248 16 16 16 102 153 102 48 88 64 168 208 176 112 96 0 248 248 248 16 16 16 248 56 56 248 56 56 248 248 248 204 204 204 102 153 102 102 153 102 112 96 0 160 168 40 112 96 0 168 208 176 200 240 208 200 240 208 168 208 176 168 208 176 168 208 176 102 153 102 48 88 64 168 208 176 168 208 176 48 88 64 168 208 176 168 208 176 168 208 176 168 208 176 168 208 176 168 208 176 102 153 102 102 153 102 102 153 102 16 16 16 255 255 255 255 255 255 
255 255 255 255 255 255 255 255 255 255 255 255 102 153 102 168 208 176 168 208 176 168 208 176 48 88 64 168 208 176 168 208 176 102 153 102 16 16 16 200 240 208 200 240 208 168 208 176 168 208 176 48 88 64 48 88 64 48 88 64 168 208 176 168 208 176 112 96 0 48 88 64 248 248 248 248 56 56 102 153 102 168 208 176 168 208 176 168 208 176 48 88 64 16 16 16 153 0 0 248 56 56 248 248 248 204 204 204 112 96 0 112 96 0 232 240 112 192 200 72 160 168 40 112 96 0 200 240 208 168 208 176 168 208 176 168 208 176 168 208 176 102 153 102 102 153 102 168 208 176 168 208 176 168 208 176 48 88 64 168 208 176 168 208 176 168 208 176 168 208 176 168 208 176 168 208 176 102 153 102 102 153 102 102 153 102 48 88 64 255 255 255 
255 255 255 255 255 255 255 255 255 102 153 102 168 208 176 200 240 208 168 208 176 168 208 176 48 88 64 168 208 176 168 208 176 102 153 102 102 153 102 16 16 16 168 208 176 168 208 176 168 208 176 48 88 64 200 240 208 200 240 208 168 208 176 112 96 0 248 248 248 48 88 64 248 248 248 248 56 56 102 153 102 168 208 176 168 208 176 168 208 176 200 240 208 16 16 16 153 0 0 112 96 0 112 96 0 112 96 0 232 240 112 232 240 112 232 240 112 192 200 72 160 168 40 16 16 16 168 208 176 48 88 64 48 88 64 16 16 16 168 208 176 102 153 102 102 153 102 102 153 102 168 208 176 168 208 176 16 16 16 200 240 208 168 208 176 168 208 176 168 208 176 168 208 176 168 208 176 102 153 102 102 153 102 102 153 102 16 16 16 255 255 255 
255 255 255 255 255 255 255 255 255 48 88 64 168 208 176 200 240 208 168 208 176 168 208 176 168 208 176 48 88 64 102 153 102 102 153 102 102 153 102 16 16 16 168 208 176 168 208 176 48 88 64 200 240 208 200 240 208 168 208 176 168 208 176 112 96 0 248 248 248 248 248 248 112 96 0 112 96 0 102 153 102 168 208 176 168 208 176 168 208 176 112 96 0 112 96 0 112 96 0 232 240 112 232 240 112 232 240 112 232 240 112 232 240 112 112 96 0 192 200 72 160 168 40 16 16 16 168 208 176 102 153 102 102 153 102 102 153 102 16 16 16 16 16 16 102 153 102 168 208 176 48 88 64 16 16 16 16 16 16 200 240 208 168 208 176 168 208 176 48 88 64 168 208 176 168 208 176 168 208 176 102 153 102 102 153 102 16 16 16 255 255 255 
255 255 255 255 255 255 255 255 255 48 88 64 168 208 176 200 240 208 168 208 176 168 208 176 168 208 176 48 88 64 102 153 102 102 153 102 102 153 102 16 16 16 168 208 176 48 88 64 200 240 208 200 240 208 200 240 208 168 208 176 168 208 176 112 96 0 160 168 40 248 248 248 248 248 248 248 248 248 248 248 248 112 96 0 112 96 0 112 96 0 232 240 112 232 240 112 232 240 112 192 200 72 192 200 72 192 200 72 16 16 16 16 16 16 160 168 40 192 200 72 160 168 40 16 16 16 168 208 176 168 208 176 168 208 176 168 208 176 102 153 102 102 153 102 16 16 16 168 208 176 168 208 176 168 208 176 16 16 16 200 240 208 168 208 176 168 208 176 48 88 64 168 208 176 168 208 176 168 208 176 102 153 102 102 153 102 16 16 16 255 255 255 
255 255 255 255 255 255 255 255 255 255 255 255 102 153 102 200 240 208 168 208 176 168 208 176 168 208 176 168 208 176 102 153 102 102 153 102 102 153 102 48 88 64 102 153 102 48 88 64 200 240 208 200 240 208 168 208 176 168 208 176 168 208 176 112 96 0 232 240 112 112 96 0 232 240 112 232 240 112 248 248 248 248 248 248 248 248 248 232 240 112 232 240 112 192 200 72 192 200 72 16 16 16 16 16 16 16 16 16 16 16 16 160 168 40 192 200 72 192 200 72 160 168 40 16 16 16 168 208 176 168 208 176 48 88 64 16 16 16 16 16 16 102 153 102 102 153 102 16 16 16 168 208 176 168 208 176 48 88 64 200 240 208 200 240 208 168 208 176 168 208 176 48 88 64 102 153 102 102 153 102 102 153 102 102 153 102 16 16 16 255 255 255 
255 255 255 255 255 255 255 255 255 255 255 255 48 88 64 168 208 176 168 208 176 168 208 176 102 153 102 102 153 102 168 208 176 102 153 102 48 88 64 102 153 102 102 153 102 48 88 64 200 240 208 168 208 176 168 208 176 168 208 176 168 208 176 168 208 176 112 96 0 232 240 112 112 96 0 16 16 16 16 16 16 232 240 112 232 240 112 232 240 112 16 16 16 16 16 16 16 16 16 248 56 56 248 56 56 248 56 56 16 16 16 192 200 72 192 200 72 192 200 72 16 16 16 168 208 176 48 88 64 48 88 64 168 208 176 168 208 176 102 153 102 16 16 16 102 153 102 102 153 102 16 16 16 102 153 102 102 153 102 48 88 64 200 240 208 168 208 176 168 208 176 102 153 102 48 88 64 102 153 102 102 153 102 102 153 102 16 16 16 255 255 255 
255 255 255 255 255 255 255 255 255 255 255 255 255 255 255 48 88 64 102 153 102 102 153 102 102 153 102 102 153 102 102 153 102 102 153 102 102 153 102 102 153 102 102 153 102 48 88 64 168 208 176 168 208 176 168 208 176 168 208 176 168 208 176 102 153 102 112 96 0 112 96 0 232 240 112 16 16 16 153 0 0 16 16 16 16 16 16 112 96 0 248 56 56 248 56 56 248 56 56 248 56 56 248 56 56 248 56 56 16 16 16 192 200 72 192 200 72 48 88 64 48 88 64 48 88 64 102 153 102 168 208 176 168 208 176 168 208 176 102 153 102 102 153 102 16 16 16 102 153 102 16 16 16 102 153 102 102 153 102 48 88 64 48 88 64 102 153 102 102 153 102 102 153 102 48 88 64 48 88 64 102 153 102 16 16 16 255 255 255 255 255 255 
255 255 255 255 255 255 255 255 255 255 255 255 255 255 255 255 255 255 16 16 16 16 16 16 16 16 16 16 16 16 16 16 16 102 153 102 102 153 102 102 153 102 102 153 102 48 88 64 168 208 176 168 208 176 168 208 176 168 208 176 168 208 176 102 153 102 102 153 102 112 96 0 232 240 112 112 96 0 153 0 0 153 0 0 248 56 56 248 56 56 248 56 56 248 56 56 248 56 56 248 56 56 248 56 56 112 96 0 192 200 72 192 200 72 48 88 64 102 153 102 200 240 208 168 208 176 168 208 176 168 208 176 168 208 176 168 208 176 102 153 102 48 88 64 16 16 16 102 153 102 102 153 102 16 16 16 102 153 102 102 153 102 102 153 102 102 153 102 48 88 64 48 88 64 16 16 16 16 16 16 48 88 64 255 255 255 255 255 255 255 255 255 
255 255 255 255 255 255 255 255 255 255 255 255 255 255 255 255 255 255 255 255 255 255 255 255 255 255 255 255 255 255 255 255 255 48 88 64 16 16 16 16 16 16 16 16 16 16 16 16 48 88 64 168 208 176 168 208 176 168 208 176 102 153 102 102 153 102 168 208 176 112 96 0 232 240 112 192 200 72 112 96 0 153 0 0 248 56 56 248 56 56 248 56 56 248 56 56 248 56 56 112 96 0 112 96 0 192 200 72 160 168 40 16 16 16 48 88 64 200 240 208 200 240 208 168 208 176 168 208 176 168 208 176 168 208 176 168 208 176 102 153 102 48 88 64 102 153 102 16 16 16 102 153 102 16 16 16 102 153 102 102 153 102 102 153 102 16 16 16 16 16 16 255 255 255 255 255 255 255 255 255 255 255 255 255 255 255 255 255 255 255 255 255 
255 255 255 255 255 255 255 255 255 255 255 255 255 255 255 255 255 255 255 255 255 255 255 255 255 255 255 255 255 255 255 255 255 255 255 255 255 255 255 255 255 255 255 255 255 102 153 102 48 88 64 168 208 176 168 208 176 168 208 176 168 208 176 168 208 176 168 208 176 168 208 176 112 96 0 192 200 72 160 168 40 112 96 0 16 16 16 16 16 16 16 16 16 16 16 16 112 96 0 192 200 72 160 168 40 160 168 40 16 16 16 102 153 102 48 88 64 200 240 208 168 208 176 168 208 176 168 208 176 168 208 176 168 208 176 168 208 176 102 153 102 102 153 102 102 153 102 16 16 16 102 153 102 16 16 16 16 16 16 16 16 16 16 16 16 255 255 255 255 255 255 255 255 255 255 255 255 255 255 255 255 255 255 255 255 255 255 255 255 255 255 255 
255 255 255 255 255 255 255 255 255 255 255 255 255 255 255 255 255 255 255 255 255 255 255 255 255 255 255 255 255 255 255 255 255 255 255 255 255 255 255 255 255 255 255 255 255 102 153 102 168 208 176 48 88 64 168 208 176 102 153 102 102 153 102 168 208 176 168 208 176 168 208 176 168 208 176 112 96 0 192 200 72 192 200 72 192 200 72 192 200 72 192 200 72 192 200 72 192 200 72 192 200 72 16 16 16 16 16 16 102 153 102 102 153 102 48 88 64 200 240 208 168 208 176 168 208 176 168 208 176 168 208 176 168 208 176 168 208 176 102 153 102 102 153 102 102 153 102 16 16 16 102 153 102 16 16 16 255 255 255 255 255 255 255 255 255 255 255 255 255 255 255 255 255 255 255 255 255 255 255 255 255 255 255 255 255 255 255 255 255 255 255 255 
255 255 255 255 255 255 255 255 255 255 255 255 255 255 255 255 255 255 255 255 255 255 255 255 255 255 255 255 255 255 255 255 255 255 255 255 255 255 255 255 255 255 102 153 102 168 208 176 200 240 208 168 208 176 168 208 176 102 153 102 48 88 64 168 208 176 200 240 208 168 208 176 168 208 176 168 208 176 112 96 0 16 16 16 16 16 16 16 16 16 16 16 16 16 16 16 16 16 16 112 96 0 102 153 102 102 153 102 102 153 102 102 153 102 48 88 64 102 153 102 168 208 176 168 208 176 168 208 176 168 208 176 168 208 176 168 208 176 168 208 176 102 153 102 16 16 16 102 153 102 102 153 102 16 16 16 255 255 255 255 255 255 255 255 255 255 255 255 255 255 255 255 255 255 255 255 255 255 255 255 255 255 255 255 255 255 255 255 255 255 255 255 
255 255 255 255 255 255 255 255 255 255 255 255 255 255 255 255 255 255 255 255 255 255 255 255 255 255 255 255 255 255 255 255 255 255 255 255 255 255 255 255 255 255 48 88 64 168 208 176 200 240 208 168 208 176 168 208 176 102 153 102 16 16 16 200 240 208 168 208 176 200 240 208 168 208 176 168 208 176 168 208 176 102 153 102 102 153 102 102 153 102 48 88 64 102 153 102 102 153 102 102 153 102 102 153 102 102 153 102 102 153 102 102 153 102 102 153 102 48 88 64 102 153 102 168 208 176 168 208 176 168 208 176 168 208 176 168 208 176 168 208 176 102 153 102 16 16 16 102 153 102 48 88 64 102 153 102 16 16 16 255 255 255 255 255 255 255 255 255 255 255 255 255 255 255 255 255 255 255 255 255 255 255 255 255 255 255 255 255 255 255 255 255 
255 255 255 255 255 255 255 255 255 255 255 255 255 255 255 255 255 255 255 255 255 255 255 255 255 255 255 255 255 255 255 255 255 255 255 255 255 255 255 255 255 255 48 88 64 168 208 176 200 240 208 168 208 176 168 208 176 102 153 102 16 16 16 200 240 208 200 240 208 168 208 176 200 240 208 168 208 176 168 208 176 168 208 176 168 208 176 102 153 102 48 88 64 102 153 102 102 153 102 168 208 176 168 208 176 168 208 176 168 208 176 102 153 102 102 153 102 102 153 102 48 88 64 102 153 102 168 208 176 168 208 176 168 208 176 168 208 176 168 208 176 48 88 64 48 88 64 102 153 102 102 153 102 102 153 102 48 88 64 255 255 255 255 255 255 255 255 255 255 255 255 255 255 255 255 255 255 255 255 255 255 255 255 255 255 255 255 255 255 255 255 255 
255 255 255 255 255 255 255 255 255 255 255 255 255 255 255 255 255 255 255 255 255 255 255 255 255 255 255 255 255 255 255 255 255 255 255 255 255 255 255 255 255 255 255 255 255 102 153 102 168 208 176 168 208 176 168 208 176 102 153 102 16 16 16 200 240 208 200 240 208 200 240 208 168 208 176 168 208 176 168 208 176 168 208 176 168 208 176 102 153 102 16 16 16 102 153 102 200 240 208 168 208 176 200 240 208 168 208 176 168 208 176 168 208 176 102 153 102 102 153 102 102 153 102 48 88 64 168 208 176 168 208 176 168 208 176 168 208 176 168 208 176 48 88 64 16 16 16 102 153 102 102 153 102 102 153 102 102 153 102 48 88 64 255 255 255 255 255 255 255 255 255 255 255 255 255 255 255 255 255 255 255 255 255 255 255 255 255 255 255 255 255 255 
255 255 255 255 255 255 255 255 255 255 255 255 255 255 255 255 255 255 255 255 255 255 255 255 255 255 255 102 153 102 48 88 64 255 255 255 255 255 255 255 255 255 255 255 255 48 88 64 168 208 176 168 208 176 168 208 176 102 153 102 102 153 102 16 16 16 200 240 208 168 208 176 200 240 208 168 208 176 168 208 176 168 208 176 168 208 176 102 153 102 16 16 16 102 153 102 168 208 176 200 240 208 168 208 176 168 208 176 168 208 176 168 208 176 102 153 102 102 153 102 102 153 102 16 16 16 102 153 102 168 208 176 168 208 176 168 208 176 168 208 176 102 153 102 16 16 16 102 153 102 102 153 102 102 153 102 102 153 102 16 16 16 255 255 255 255 255 255 255 255 255 255 255 255 255 255 255 255 255 255 255 255 255 255 255 255 255 255 255 255 255 255 
255 255 255 255 255 255 255 255 255 255 255 255 255 255 255 255 255 255 255 255 255 255 255 255 102 153 102 200 240 208 200 240 208 16 16 16 255 255 255 255 255 255 255 255 255 255 255 255 16 16 16 16 16 16 48 88 64 48 88 64 102 153 102 16 16 16 168 208 176 200 240 208 168 208 176 168 208 176 168 208 176 168 208 176 168 208 176 102 153 102 16 16 16 102 153 102 200 240 208 168 208 176 200 240 208 168 208 176 168 208 176 168 208 176 102 153 102 102 153 102 102 153 102 16 16 16 48 88 64 168 208 176 168 208 176 168 208 176 168 208 176 168 208 176 102 153 102 16 16 16 102 153 102 102 153 102 102 153 102 16 16 16 255 255 255 255 255 255 255 255 255 255 255 255 255 255 255 255 255 255 255 255 255 255 255 255 255 255 255 255 255 255 
255 255 255 255 255 255 255 255 255 255 255 255 255 255 255 255 255 255 255 255 255 255 255 255 48 88 64 168 208 176 200 240 208 168 208 176 48 88 64 16 16 16 255 255 255 16 16 16 48 88 64 168 208 176 168 208 176 102 153 102 102 153 102 102 153 102 48 88 64 168 208 176 168 208 176 168 208 176 168 208 176 168 208 176 168 208 176 102 153 102 48 88 64 48 88 64 168 208 176 200 240 208 168 208 176 168 208 176 168 208 176 102 153 102 102 153 102 102 153 102 102 153 102 16 16 16 16 16 16 168 208 176 168 208 176 168 208 176 168 208 176 168 208 176 168 208 176 102 153 102 16 16 16 102 153 102 102 153 102 16 16 16 255 255 255 255 255 255 255 255 255 255 255 255 255 255 255 255 255 255 255 255 255 255 255 255 255 255 255 255 255 255 
255 255 255 255 255 255 255 255 255 255 255 255 255 255 255 255 255 255 255 255 255 255 255 255 48 88 64 102 153 102 168 208 176 168 208 176 168 208 176 48 88 64 16 16 16 48 88 64 168 208 176 168 208 176 102 153 102 102 153 102 102 153 102 102 153 102 16 16 16 102 153 102 168 208 176 168 208 176 168 208 176 168 208 176 102 153 102 102 153 102 48 88 64 16 16 16 168 208 176 168 208 176 168 208 176 168 208 176 102 153 102 102 153 102 102 153 102 102 153 102 16 16 16 48 88 64 16 16 16 168 208 176 168 208 176 168 208 176 168 208 176 102 153 102 168 208 176 102 153 102 16 16 16 102 153 102 102 153 102 48 88 64 255 255 255 255 255 255 255 255 255 255 255 255 255 255 255 255 255 255 255 255 255 255 255 255 255 255 255 255 255 255 
255 255 255 255 255 255 255 255 255 255 255 255 255 255 255 255 255 255 255 255 255 255 255 255 255 255 255 48 88 64 102 153 102 168 208 176 168 208 176 168 208 176 16 16 16 168 208 176 48 88 64 48 88 64 48 88 64 102 153 102 102 153 102 102 153 102 102 153 102 16 16 16 102 153 102 102 153 102 102 153 102 102 153 102 102 153 102 102 153 102 48 88 64 16 16 16 102 153 102 102 153 102 102 153 102 102 153 102 102 153 102 102 153 102 102 153 102 16 16 16 48 88 64 48 88 64 16 16 16 168 208 176 168 208 176 168 208 176 168 208 176 102 153 102 102 153 102 102 153 102 48 88 64 102 153 102 48 88 64 255 255 255 255 255 255 255 255 255 255 255 255 255 255 255 255 255 255 255 255 255 255 255 255 255 255 255 255 255 255 255 255 255 
255 255 255 255 255 255 255 255 255 255 255 255 255 255 255 255 255 255 255 255 255 255 255 255 102 153 102 48 88 64 48 88 64 168 208 176 168 208 176 102 153 102 16 16 16 168 208 176 168 208 176 168 208 176 102 153 102 48 88 64 102 153 102 102 153 102 102 153 102 102 153 102 48 88 64 16 16 16 16 16 16 16 16 16 16 16 16 48 88 64 102 153 102 102 153 102 48 88 64 16 16 16 16 16 16 16 16 16 16 16 16 16 16 16 16 16 16 48 88 64 102 153 102 48 88 64 16 16 16 168 208 176 168 208 176 168 208 176 168 208 176 102 153 102 102 153 102 102 153 102 102 153 102 102 153 102 16 16 16 255 255 255 255 255 255 255 255 255 255 255 255 255 255 255 255 255 255 255 255 255 255 255 255 255 255 255 255 255 255 255 255 255 
255 255 255 255 255 255 255 255 255 255 255 255 255 255 255 255 255 255 255 255 255 102 153 102 200 240 208 200 240 208 48 88 64 168 208 176 168 208 176 102 153 102 48 88 64 168 208 176 102 153 102 102 153 102 102 153 102 102 153 102 48 88 64 102 153 102 102 153 102 16 16 16 255 255 255 255 255 255 255 255 255 48 88 64 168 208 176 168 208 176 102 153 102 102 153 102 102 153 102 102 153 102 168 208 176 168 208 176 102 153 102 102 153 102 102 153 102 102 153 102 102 153 102 16 16 16 48 88 64 16 16 16 168 208 176 168 208 176 168 208 176 102 153 102 102 153 102 102 153 102 102 153 102 102 153 102 16 16 16 255 255 255 255 255 255 255 255 255 255 255 255 255 255 255 255 255 255 255 255 255 255 255 255 255 255 255 255 255 255 255 255 255 
255 255 255 255 255 255 255 255 255 255 255 255 255 255 255 255 255 255 255 255 255 48 88 64 200 240 208 200 240 208 48 88 64 48 88 64 48 88 64 102 153 102 102 153 102 102 153 102 102 153 102 102 153 102 102 153 102 102 153 102 16 16 16 102 153 102 16 16 16 255 255 255 255 255 255 16 16 16 16 16 16 16 16 16 168 208 176 168 208 176 168 208 176 102 153 102 102 153 102 102 153 102 102 153 102 102 153 102 102 153 102 102 153 102 102 153 102 16 16 16 16 16 16 16 16 16 48 88 64 16 16 16 102 153 102 102 153 102 102 153 102 102 153 102 102 153 102 102 153 102 102 153 102 16 16 16 255 255 255 255 255 255 255 255 255 255 255 255 255 255 255 255 255 255 255 255 255 255 255 255 255 255 255 255 255 255 255 255 255 255 255 255 
255 255 255 255 255 255 255 255 255 255 255 255 255 255 255 255 255 255 255 255 255 48 88 64 168 208 176 200 240 208 48 88 64 168 208 176 168 208 176 48 88 64 102 153 102 48 88 64 48 88 64 102 153 102 48 88 64 48 88 64 16 16 16 48 88 64 16 16 16 16 16 16 48 88 64 102 153 102 102 153 102 16 16 16 16 16 16 48 88 64 48 88 64 48 88 64 48 88 64 48 88 64 48 88 64 48 88 64 48 88 64 16 16 16 16 16 16 16 16 16 16 16 16 102 153 102 102 153 102 102 153 102 16 16 16 102 153 102 102 153 102 102 153 102 102 153 102 102 153 102 102 153 102 16 16 16 255 255 255 255 255 255 255 255 255 255 255 255 255 255 255 255 255 255 255 255 255 255 255 255 255 255 255 255 255 255 255 255 255 255 255 255 
255 255 255 255 255 255 255 255 255 255 255 255 255 255 255 255 255 255 255 255 255 48 88 64 102 153 102 102 153 102 16 16 16 168 208 176 168 208 176 48 88 64 48 88 64 102 153 102 102 153 102 48 88 64 102 153 102 102 153 102 16 16 16 16 16 16 168 208 176 168 208 176 168 208 176 168 208 176 168 208 176 168 208 176 16 16 16 16 16 16 16 16 16 16 16 16 16 16 16 16 16 16 16 16 16 16 16 16 16 16 16 16 16 16 16 16 16 16 16 16 102 153 102 102 153 102 102 153 102 102 153 102 102 153 102 16 16 16 16 16 16 102 153 102 102 153 102 102 153 102 16 16 16 48 88 64 255 255 255 255 255 255 255 255 255 255 255 255 255 255 255 255 255 255 255 255 255 255 255 255 255 255 255 255 255 255 255 255 255 255 255 255 
255 255 255 255 255 255 255 255 255 255 255 255 255 255 255 255 255 255 255 255 255 255 255 255 48 88 64 102 153 102 16 16 16 102 153 102 102 153 102 102 153 102 16 16 16 102 153 102 102 153 102 16 16 16 102 153 102 102 153 102 16 16 16 168 208 176 168 208 176 168 208 176 168 208 176 168 208 176 168 208 176 168 208 176 102 153 102 16 16 16 80 80 80 80 80 80 80 80 80 16 16 16 16 16 16 16 16 16 16 16 16 16 16 16 16 16 16 102 153 102 102 153 102 102 153 102 168 208 176 168 208 176 168 208 176 102 153 102 102 153 102 48 88 64 16 16 16 16 16 16 102 153 102 48 88 64 48 88 64 255 255 255 255 255 255 255 255 255 255 255 255 255 255 255 255 255 255 255 255 255 255 255 255 255 255 255 255 255 255 255 255 255 
255 255 255 255 255 255 255 255 255 255 255 255 255 255 255 255 255 255 255 255 255 255 255 255 255 255 255 16 16 16 16 16 16 16 16 16 102 153 102 102 153 102 16 16 16 102 153 102 102 153 102 16 16 16 16 16 16 16 16 16 168 208 176 168 208 176 168 208 176 168 208 176 168 208 176 168 208 176 168 208 176 168 208 176 102 153 102 16 16 16 80 80 80 80 80 80 80 80 80 80 80 80 16 16 16 16 16 16 16 16 16 16 16 16 102 153 102 102 153 102 168 208 176 168 208 176 168 208 176 168 208 176 168 208 176 168 208 176 168 208 176 102 153 102 102 153 102 102 153 102 102 153 102 102 153 102 168 208 176 48 88 64 255 255 255 255 255 255 255 255 255 255 255 255 255 255 255 255 255 255 255 255 255 255 255 255 255 255 255 255 255 255 
255 255 255 255 255 255 255 255 255 255 255 255 255 255 255 255 255 255 255 255 255 255 255 255 255 255 255 255 255 255 255 255 255 48 88 64 16 16 16 16 16 16 200 240 208 16 16 16 16 16 16 168 208 176 168 208 176 168 208 176 168 208 176 168 208 176 168 208 176 168 208 176 168 208 176 168 208 176 168 208 176 168 208 176 102 153 102 102 153 102 16 16 16 80 80 80 80 80 80 80 80 80 16 16 16 16 16 16 16 16 16 16 16 16 102 153 102 168 208 176 168 208 176 168 208 176 168 208 176 168 208 176 168 208 176 168 208 176 168 208 176 168 208 176 168 208 176 168 208 176 168 208 176 168 208 176 168 208 176 102 153 102 48 88 64 255 255 255 255 255 255 255 255 255 255 255 255 255 255 255 255 255 255 255 255 255 255 255 255 255 255 255 
255 255 255 255 255 255 255 255 255 255 255 255 255 255 255 255 255 255 255 255 255 255 255 255 255 255 255 255 255 255 255 255 255 255 255 255 255 255 255 16 16 16 200 240 208 200 240 208 200 240 208 168 208 176 168 208 176 168 208 176 168 208 176 168 208 176 48 88 64 102 153 102 102 153 102 102 153 102 168 208 176 168 208 176 168 208 176 102 153 102 48 88 64 16 16 16 80 80 80 80 80 80 16 16 16 16 16 16 16 16 16 102 153 102 102 153 102 168 208 176 168 208 176 168 208 176 168 208 176 168 208 176 168 208 176 168 208 176 168 208 176 168 208 176 168 208 176 168 208 176 200 240 208 200 240 208 168 208 176 102 153 102 16 16 16 255 255 255 255 255 255 255 255 255 255 255 255 255 255 255 255 255 255 255 255 255 255 255 255 255 255 255 
255 255 255 255 255 255 255 255 255 255 255 255 255 255 255 255 255 255 255 255 255 255 255 255 255 255 255 255 255 255 255 255 255 255 255 255 255 255 255 16 16 16 200 240 208 200 240 208 168 208 176 168 208 176 168 208 176 168 208 176 168 208 176 168 208 176 102 153 102 48 88 64 102 153 102 102 153 102 102 153 102 102 153 102 102 153 102 102 153 102 48 88 64 16 16 16 80 80 80 80 80 80 80 80 80 16 16 16 16 16 16 102 153 102 102 153 102 102 153 102 168 208 176 168 208 176 102 153 102 102 153 102 102 153 102 48 88 64 168 208 176 168 208 176 168 208 176 168 208 176 168 208 176 200 240 208 168 208 176 102 153 102 16 16 16 255 255 255 255 255 255 255 255 255 255 255 255 255 255 255 255 255 255 255 255 255 255 255 255 255 255 255 
255 255 255 255 255 255 255 255 255 255 255 255 255 255 255 255 255 255 255 255 255 255 255 255 255 255 255 255 255 255 255 255 255 255 255 255 255 255 255 48 88 64 102 153 102 102 153 102 102 153 102 168 208 176 168 208 176 168 208 176 200 240 208 168 208 176 102 153 102 16 16 16 102 153 102 102 153 102 102 153 102 102 153 102 102 153 102 48 88 64 48 88 64 48 88 64 16 16 16 80 80 80 80 80 80 16 16 16 16 16 16 102 153 102 102 153 102 102 153 102 102 153 102 102 153 102 102 153 102 102 153 102 48 88 64 102 153 102 168 208 176 168 208 176 168 208 176 168 208 176 168 208 176 168 208 176 168 208 176 102 153 102 16 16 16 255 255 255 255 255 255 255 255 255 255 255 255 255 255 255 255 255 255 255 255 255 255 255 255 255 255 255 
255 255 255 255 255 255 255 255 255 255 255 255 255 255 255 255 255 255 255 255 255 255 255 255 255 255 255 255 255 255 255 255 255 255 255 255 255 255 255 255 255 255 48 88 64 102 153 102 102 153 102 168 208 176 168 208 176 102 153 102 200 240 208 168 208 176 102 153 102 16 16 16 102 153 102 102 153 102 102 153 102 102 153 102 102 153 102 102 153 102 102 153 102 16 16 16 16 16 16 16 16 16 16 16 16 16 16 16 16 16 16 48 88 64 48 88 64 102 153 102 102 153 102 102 153 102 102 153 102 102 153 102 16 16 16 200 240 208 168 208 176 168 208 176 102 153 102 168 208 176 168 208 176 102 153 102 102 153 102 102 153 102 16 16 16 255 255 255 255 255 255 255 255 255 255 255 255 255 255 255 255 255 255 255 255 255 255 255 255 255 255 255 
255 255 255 255 255 255 255 255 255 255 255 255 255 255 255 255 255 255 255 255 255 255 255 255 255 255 255 255 255 255 255 255 255 255 255 255 255 255 255 255 255 255 102 153 102 168 208 176 168 208 176 168 208 176 168 208 176 102 153 102 200 240 208 168 208 176 102 153 102 16 16 16 48 88 64 102 153 102 102 153 102 102 153 102 102 153 102 16 16 16 16 16 16 255 255 255 255 255 255 255 255 255 255 255 255 16 16 16 48 88 64 102 153 102 102 153 102 102 153 102 102 153 102 102 153 102 102 153 102 102 153 102 16 16 16 200 240 208 168 208 176 168 208 176 102 153 102 168 208 176 168 208 176 102 153 102 102 153 102 48 88 64 255 255 255 255 255 255 255 255 255 255 255 255 255 255 255 255 255 255 255 255 255 255 255 255 255 255 255 255 255 255 
255 255 255 255 255 255 255 255 255 255 255 255 255 255 255 255 255 255 255 255 255 255 255 255 255 255 255 255 255 255 255 255 255 255 255 255 255 255 255 255 255 255 255 255 255 48 88 64 168 208 176 168 208 176 168 208 176 168 208 176 102 153 102 168 208 176 102 153 102 16 16 16 255 255 255 16 16 16 16 16 16 16 16 16 16 16 16 255 255 255 255 255 255 255 255 255 255 255 255 255 255 255 255 255 255 255 255 255 16 16 16 16 16 16 102 153 102 102 153 102 102 153 102 102 153 102 102 153 102 16 16 16 16 16 16 200 240 208 168 208 176 168 208 176 102 153 102 168 208 176 168 208 176 102 153 102 102 153 102 16 16 16 255 255 255 255 255 255 255 255 255 255 255 255 255 255 255 255 255 255 255 255 255 255 255 255 255 255 255 255 255 255 
255 255 255 255 255 255 255 255 255 255 255 255 255 255 255 255 255 255 255 255 255 255 255 255 255 255 255 255 255 255 255 255 255 255 255 255 255 255 255 255 255 255 255 255 255 102 153 102 168 208 176 168 208 176 168 208 176 168 208 176 102 153 102 102 153 102 16 16 16 255 255 255 255 255 255 255 255 255 255 255 255 255 255 255 255 255 255 255 255 255 255 255 255 255 255 255 255 255 255 255 255 255 255 255 255 255 255 255 255 255 255 255 255 255 48 88 64 16 16 16 16 16 16 16 16 16 16 16 16 255 255 255 16 16 16 200 240 208 168 208 176 102 153 102 168 208 176 168 208 176 102 153 102 102 153 102 48 88 64 255 255 255 255 255 255 255 255 255 255 255 255 255 255 255 255 255 255 255 255 255 255 255 255 255 255 255 255 255 255 255 255 255 
255 255 255 255 255 255 255 255 255 255 255 255 255 255 255 255 255 255 255 255 255 255 255 255 255 255 255 255 255 255 255 255 255 255 255 255 255 255 255 255 255 255 255 255 255 255 255 255 48 88 64 168 208 176 168 208 176 168 208 176 102 153 102 102 153 102 16 16 16 255 255 255 255 255 255 255 255 255 255 255 255 255 255 255 255 255 255 255 255 255 255 255 255 255 255 255 255 255 255 255 255 255 255 255 255 255 255 255 255 255 255 255 255 255 255 255 255 255 255 255 255 255 255 255 255 255 255 255 255 255 255 255 255 255 255 48 88 64 102 153 102 102 153 102 168 208 176 168 208 176 102 153 102 102 153 102 16 16 16 255 255 255 255 255 255 255 255 255 255 255 255 255 255 255 255 255 255 255 255 255 255 255 255 255 255 255 255 255 255 255 255 255 
255 255 255 255 255 255 255 255 255 255 255 255 255 255 255 255 255 255 255 255 255 255 255 255 255 255 255 255 255 255 255 255 255 255 255 255 255 255 255 255 255 255 255 255 255 255 255 255 48 88 64 168 208 176 168 208 176 168 208 176 102 153 102 102 153 102 102 153 102 16 16 16 255 255 255 255 255 255 255 255 255 255 255 255 255 255 255 255 255 255 255 255 255 255 255 255 255 255 255 255 255 255 255 255 255 255 255 255 255 255 255 255 255 255 255 255 255 255 255 255 255 255 255 255 255 255 255 255 255 255 255 255 255 255 255 16 16 16 102 153 102 102 153 102 168 208 176 168 208 176 102 153 102 48 88 64 255 255 255 255 255 255 255 255 255 255 255 255 255 255 255 255 255 255 255 255 255 255 255 255 255 255 255 255 255 255 255 255 255 255 255 255 
255 255 255 255 255 255 255 255 255 255 255 255 255 255 255 255 255 255 255 255 255 255 255 255 255 255 255 255 255 255 255 255 255 255 255 255 255 255 255 255 255 255 255 255 255 255 255 255 48 88 64 48 88 64 168 208 176 168 208 176 102 153 102 102 153 102 102 153 102 48 88 64 255 255 255 255 255 255 255 255 255 255 255 255 255 255 255 255 255 255 255 255 255 255 255 255 255 255 255 255 255 255 255 255 255 255 255 255 255 255 255 255 255 255 255 255 255 255 255 255 255 255 255 255 255 255 255 255 255 255 255 255 48 88 64 102 153 102 102 153 102 168 208 176 168 208 176 168 208 176 102 153 102 16 16 16 255 255 255 255 255 255 255 255 255 255 255 255 255 255 255 255 255 255 255 255 255 255 255 255 255 255 255 255 255 255 255 255 255 255 255 255 
255 255 255 255 255 255 255 255 255 255 255 255 255 255 255 255 255 255 255 255 255 255 255 255 255 255 255 255 255 255 255 255 255 255 255 255 255 255 255 255 255 255 48 88 64 102 153 102 168 208 176 168 208 176 168 208 176 102 153 102 102 153 102 102 153 102 102 153 102 102 153 102 48 88 64 255 255 255 255 255 255 255 255 255 255 255 255 255 255 255 255 255 255 255 255 255 255 255 255 255 255 255 255 255 255 255 255 255 255 255 255 255 255 255 255 255 255 255 255 255 255 255 255 255 255 255 255 255 255 255 255 255 48 88 64 168 208 176 168 208 176 168 208 176 168 208 176 168 208 176 48 88 64 16 16 16 255 255 255 255 255 255 255 255 255 255 255 255 255 255 255 255 255 255 255 255 255 255 255 255 255 255 255 255 255 255 255 255 255 255 255 255 
255 255 255 255 255 255 255 255 255 255 255 255 255 255 255 255 255 255 255 255 255 255 255 255 255 255 255 255 255 255 255 255 255 48 88 64 48 88 64 102 153 102 168 208 176 168 208 176 168 208 176 168 208 176 168 208 176 168 208 176 102 153 102 102 153 102 102 153 102 102 153 102 16 16 16 255 255 255 255 255 255 255 255 255 255 255 255 255 255 255 255 255 255 255 255 255 255 255 255 255 255 255 255 255 255 255 255 255 255 255 255 255 255 255 255 255 255 255 255 255 255 255 255 255 255 255 255 255 255 102 153 102 168 208 176 168 208 176 168 208 176 168 208 176 102 153 102 102 153 102 102 153 102 102 153 102 48 88 64 16 16 16 255 255 255 255 255 255 255 255 255 255 255 255 255 255 255 255 255 255 255 255 255 255 255 255 255 255 255 255 255 255 
255 255 255 255 255 255 255 255 255 255 255 255 255 255 255 255 255 255 255 255 255 255 255 255 255 255 255 255 255 255 48 88 64 168 208 176 200 240 208 168 208 176 168 208 176 48 88 64 48 88 64 48 88 64 168 208 176 102 153 102 102 153 102 102 153 102 102 153 102 48 88 64 16 16 16 255 255 255 255 255 255 255 255 255 255 255 255 255 255 255 255 255 255 255 255 255 255 255 255 255 255 255 255 255 255 255 255 255 255 255 255 255 255 255 255 255 255 255 255 255 255 255 255 255 255 255 255 255 255 48 88 64 168 208 176 168 208 176 168 208 176 168 208 176 168 208 176 168 208 176 168 208 176 102 153 102 102 153 102 102 153 102 48 88 64 16 16 16 255 255 255 255 255 255 255 255 255 255 255 255 255 255 255 255 255 255 255 255 255 255 255 255 
255 255 255 255 255 255 255 255 255 255 255 255 255 255 255 255 255 255 255 255 255 255 255 255 255 255 255 255 255 255 16 16 16 200 240 208 168 208 176 102 153 102 48 88 64 200 240 208 200 240 208 168 208 176 102 153 102 102 153 102 102 153 102 102 153 102 16 16 16 16 16 16 255 255 255 255 255 255 255 255 255 255 255 255 255 255 255 255 255 255 255 255 255 255 255 255 255 255 255 255 255 255 255 255 255 255 255 255 255 255 255 255 255 255 255 255 255 255 255 255 255 255 255 255 255 255 255 255 255 48 88 64 102 153 102 168 208 176 168 208 176 168 208 176 168 208 176 168 208 176 48 88 64 48 88 64 48 88 64 168 208 176 200 240 208 200 240 208 16 16 16 255 255 255 255 255 255 255 255 255 255 255 255 255 255 255 255 255 255 255 255 255 
255 255 255 255 255 255 255 255 255 255 255 255 255 255 255 255 255 255 255 255 255 255 255 255 255 255 255 255 255 255 16 16 16 168 208 176 102 153 102 102 153 102 16 16 16 168 208 176 168 208 176 168 208 176 102 153 102 102 153 102 48 88 64 16 16 16 255 255 255 255 255 255 255 255 255 255 255 255 255 255 255 255 255 255 255 255 255 255 255 255 255 255 255 255 255 255 255 255 255 255 255 255 255 255 255 255 255 255 255 255 255 255 255 255 255 255 255 255 255 255 255 255 255 255 255 255 255 255 255 255 255 255 16 16 16 16 16 16 102 153 102 168 208 176 168 208 176 168 208 176 200 240 208 200 240 208 102 153 102 48 88 64 168 208 176 168 208 176 102 153 102 16 16 16 255 255 255 255 255 255 255 255 255 255 255 255 255 255 255 255 255 255 
255 255 255 255 255 255 255 255 255 255 255 255 255 255 255 255 255 255 255 255 255 255 255 255 255 255 255 255 255 255 255 255 255 48 88 64 16 16 16 16 16 16 16 16 16 48 88 64 102 153 102 102 153 102 102 153 102 48 88 64 16 16 16 255 255 255 255 255 255 255 255 255 255 255 255 255 255 255 255 255 255 255 255 255 255 255 255 255 255 255 255 255 255 255 255 255 255 255 255 255 255 255 255 255 255 255 255 255 255 255 255 255 255 255 255 255 255 255 255 255 255 255 255 255 255 255 255 255 255 255 255 255 255 255 255 255 255 255 16 16 16 102 153 102 102 153 102 168 208 176 168 208 176 168 208 176 102 153 102 16 16 16 102 153 102 102 153 102 48 88 64 16 16 16 255 255 255 255 255 255 255 255 255 255 255 255 255 255 255 255 255 255 
255 255 255 255 255 255 255 255 255 255 255 255 255 255 255 255 255 255 255 255 255 255 255 255 255 255 255 255 255 255 255 255 255 255 255 255 255 255 255 255 255 255 255 255 255 16 16 16 16 16 16 16 16 16 16 16 16 255 255 255 255 255 255 255 255 255 255 255 255 255 255 255 255 255 255 255 255 255 255 255 255 255 255 255 255 255 255 255 255 255 255 255 255 255 255 255 255 255 255 255 255 255 255 255 255 255 255 255 255 255 255 255 255 255 255 255 255 255 255 255 255 255 255 255 255 255 255 255 255 255 255 255 255 255 255 255 255 255 255 255 255 16 16 16 16 16 16 102 153 102 102 153 102 102 153 102 48 88 64 16 16 16 16 16 16 16 16 16 16 16 16 255 255 255 255 255 255 255 255 255 255 255 255 255 255 255 255 255 255 255 255 255 
255 255 255 255 255 255 255 255 255 255 255 255 255 255 255 255 255 255 255 255 255 255 255 255 255 255 255 255 255 255 255 255 255 255 255 255 255 255 255 255 255 255 255 255 255 255 255 255 255 255 255 255 255 255 255 255 255 255 255 255 255 255 255 255 255 255 255 255 255 255 255 255 255 255 255 255 255 255 255 255 255 255 255 255 255 255 255 255 255 255 255 255 255 255 255 255 255 255 255 255 255 255 255 255 255 255 255 255 255 255 255 255 255 255 255 255 255 255 255 255 255 255 255 255 255 255 255 255 255 255 255 255 255 255 255 255 255 255 255 255 255 255 255 255 255 255 255 48 88 64 16 16 16 16 16 16 16 16 16 255 255 255 255 255 255 255 255 255 255 255 255 255 255 255 255 255 255 255 255 255 255 255 255 255 255 255 255 255 255 255 255 255 
255 255 255 255 255 255 255 255 255 255 255 255 255 255 255 255 255 255 255 255 255 255 255 255 255 255 255 255 255 255 255 255 255 255 255 255 255 255 255 255 255 255 255 255 255 255 255 255 255 255 255 255 255 255 255 255 255 255 255 255 255 255 255 255 255 255 255 255 255 255 255 255 255 255 255 255 255 255 255 255 255 255 255 255 255 255 255 255 255 255 255 255 255 255 255 255 255 255 255 255 255 255 255 255 255 255 255 255 255 255 255 255 255 255 255 255 255 255 255 255 255 255 255 255 255 255 255 255 255 255 255 255 255 255 255 255 255 255 255 255 255 255 255 255 255 255 255 255 255 255 255 255 255 255 255 255 255 255 255 255 255 255 255 255 255 255 255 255 255 255 255 255 255 255 255 255 255 255 255 255 255 255 255 255 255 255 255 255 255 255 255 255 
