P3
64 64
255
255 255 255 255 255 255 255 255 255 255 255 255 255 255 255 255 255 255 255 255 255 255 255 255 255 255 255 255 255 255 255 255 255 255 255 255 255 255 255 255 255 255 255 255 255 255 255 255 255 255 255 255 255 255 255 255 255 255 255 255 255 255 255 255 255 255 255 255 255 255 255 255 255 255 255 255 255 255 255 255 255 255 255 255 255 255 255 255 255 255 255 255 255 255 255 255 255 255 255 255 255 255 255 255 255 255 255 255 255 255 255 255 255 255 255 255 255 255 255 255 255 255 255 255 255 255 255 255 255 255 255 255 255 255 255 255 255 255 255 255 255 255 255 255 255 255 255 255 255 255 255 255 255 255 255 255 255 255 255 255 255 255 255 255 255 255 255 255 255 255 255 255 255 255 255 255 255 255 255 255 255 255 255 255 255 255 255 255 255 255 255 255 
255 255 255 255 255 255 255 255 255 255 255 255 255 255 255 255 255 255 255 255 255 255 255 255 255 255 255 255 255 255 255 255 255 255 255 255 255 255 255 255 255 255 255 255 255 255 255 255 255 255 255 255 255 255 255 255 255 255 255 255 255 255 255 255 255 255 255 255 255 255 255 255 255 255 255 255 255 255 255 255 255 255 255 255 255 255 255 255 255 255 255 255 255 255 255 255 255 255 255 255 255 255 255 255 255 255 255 255 255 255 255 255 255 255 255 255 255 255 255 255 255 255 255 255 255 255 255 255 255 255 255 255 255 255 255 255 255 255 255 255 255 255 255 255 255 255 255 255 255 255 255 255 255 255 255 255 255 255 255 255 255 255 120 88 72 120 88 72 255 255 255 255 255 255 255 255 255 255 255 255 255 255 255 255 255 255 255 255 255 255 255 255 
255 255 255 255 255 255 255 255 255 255 255 255 255 255 255 255 255 255 255 255 255 255 255 255 255 255 255 255 255 255 255 255 255 255 255 255 255 255 255 255 255 255 255 255 255 255 255 255 255 255 255 255 255 255 255 255 255 255 255 255 255 255 255 255 255 255 255 255 255 255 255 255 255 255 255 255 255 255 255 255 255 255 255 255 255 255 255 255 255 255 255 255 255 255 255 255 255 255 255 255 255 255 255 255 255 255 255 255 255 255 255 255 255 255 255 255 255 255 255 255 255 255 255 255 255 255 255 255 255 255 255 255 255 255 255 255 255 255 255 255 255 255 255 255 255 255 255 255 255 255 255 255 255 255 255 255 255 255 255 120 88 72 224 184 96 120 88 72 255 255 255 255 255 255 255 255 255 255 255 255 255 255 255 255 255 255 255 255 255 255 255 255 
255 255 255 255 255 255 255 255 255 255 255 255 255 255 255 255 255 255 255 255 255 255 255 255 255 255 255 255 255 255 255 255 255 255 255 255 255 255 255 255 255 255 255 255 255 255 255 255 255 255 255 255 255 255 255 255 255 255 255 255 255 255 255 255 255 255 255 255 255 255 255 255 255 255 255 255 255 255 255 255 255 255 255 255 255 255 255 255 255 255 255 255 255 255 255 255 255 255 255 255 255 255 255 255 255 255 255 255 255 255 255 255 255 255 255 255 255 255 255 255 255 255 255 255 255 255 255 255 255 255 255 255 255 255 255 255 255 255 255 255 255 255 255 255 255 255 255 255 255 255 255 255 255 255 255 255 255 255 255 224 184 96 224 184 96 120 88 72 255 255 255 255 255 255 255 255 255 255 255 255 255 255 255 255 255 255 255 255 255 255 255 255 
255 255 255 255 255 255 255 255 255 255 255 255 120 88 72 120 88 72 255 255 255 255 255 255 255 255 255 255 255 255 255 255 255 255 255 255 255 255 255 255 255 255 255 255 255 255 255 255 255 255 255 255 255 255 255 255 255 255 255 255 255 255 255 255 255 255 255 255 255 255 255 255 255 255 255 255 255 255 255 255 255 255 255 255 255 255 255 255 255 255 255 255 255 255 255 255 255 255 255 255 255 255 255 255 255 255 255 255 255 255 255 255 255 255 255 255 255 255 255 255 255 255 255 255 255 255 255 255 255 255 255 255 255 255 255 255 255 255 255 255 255 255 255 255 255 255 255 255 255 255 255 255 255 255 255 255 120 88 72 248 224 136 224 184 96 120 88 72 120 88 72 255 255 255 255 255 255 255 255 255 255 255 255 255 255 255 255 255 255 255 255 255 
255 255 255 255 255 255 255 255 255 168 120 88 248 224 136 224 184 96 120 88 72 255 255 255 255 255 255 255 255 255 255 255 255 255 255 255 255 255 255 255 255 255 255 255 255 255 255 255 255 255 255 255 255 255 255 255 255 255 255 255 255 255 255 255 255 255 255 255 255 255 255 255 255 255 255 255 255 255 255 255 255 255 255 255 255 255 255 255 255 255 255 255 255 255 255 255 255 255 255 255 255 255 255 255 255 255 255 255 255 255 255 255 255 255 255 255 255 255 255 255 255 255 255 255 255 255 255 255 255 255 255 255 255 255 255 255 255 255 255 255 255 255 255 255 255 255 255 255 255 255 255 255 255 120 88 72 248 224 136 224 184 96 120 88 72 224 184 96 120 88 72 255 255 255 255 255 255 255 255 255 255 255 255 255 255 255 255 255 255 255 255 255 
255 255 255 255 255 255 120 88 72 248 224 136 248 224 136 248 224 136 120 88 72 255 255 255 255 255 255 255 255 255 120 88 72 88 56 40 16 16 16 255 255 255 255 255 255 255 255 255 255 255 255 255 255 255 255 255 255 255 255 255 255 255 255 255 255 255 255 255 255 255 255 255 255 255 255 255 255 255 255 255 255 255 255 255 255 255 255 255 255 255 255 255 255 255 255 255 255 255 255 255 255 255 255 255 255 255 255 255 255 255 255 255 255 255 255 255 255 255 255 255 255 255 255 255 255 255 255 255 255 255 255 255 255 255 255 255 255 255 255 255 255 255 255 255 255 255 255 255 255 255 120 88 72 248 224 136 248 224 136 224 184 96 120 88 72 224 184 96 16 16 16 255 255 255 255 255 255 255 255 255 255 255 255 255 255 255 255 255 255 255 255 255 
255 255 255 255 255 255 120 88 72 248 224 136 248 224 136 248 224 136 224 184 96 120 88 72 255 255 255 255 255 255 120 88 72 224 184 96 224 184 96 16 16 16 255 255 255 255 255 255 255 255 255 255 255 255 255 255 255 255 255 255 255 255 255 255 255 255 255 255 255 255 255 255 255 255 255 255 255 255 255 255 255 255 255 255 255 255 255 255 255 255 255 255 255 255 255 255 255 255 255 255 255 255 255 255 255 255 255 255 255 255 255 255 255 255 255 255 255 255 255 255 255 255 255 255 255 255 255 255 255 255 255 255 255 255 255 255 255 255 255 255 255 255 255 255 255 255 255 120 88 72 248 224 136 248 224 136 224 184 96 120 88 72 224 184 96 224 184 96 16 16 16 255 255 255 255 255 255 255 255 255 255 255 255 255 255 255 255 255 255 255 255 255 
255 255 255 255 255 255 168 120 88 248 224 136 248 224 136 248 224 136 248 224 136 120 88 72 255 255 255 255 255 255 120 88 72 224 184 96 224 184 96 88 56 40 255 255 255 255 255 255 255 255 255 255 255 255 255 255 255 255 255 255 255 255 255 255 255 255 255 255 255 255 255 255 255 255 255 255 255 255 255 255 255 255 255 255 255 255 255 255 255 255 255 255 255 255 255 255 255 255 255 255 255 255 255 255 255 255 255 255 255 255 255 255 255 255 255 255 255 255 255 255 255 255 255 255 255 255 255 255 255 255 255 255 255 255 255 255 255 255 255 255 255 255 255 255 120 88 72 248 224 136 248 224 136 224 184 96 120 88 72 224 184 96 224 184 96 224 184 96 16 16 16 255 255 255 255 255 255 255 255 255 255 255 255 255 255 255 255 255 255 255 255 255 
255 255 255 255 255 255 168 120 88 248 224 136 248 224 136 248 224 136 248 224 136 224 184 96 120 88 72 255 255 255 120 88 72 224 184 96 224 184 96 224 184 96 16 16 16 255 255 255 255 255 255 255 255 255 255 255 255 255 255 255 255 255 255 255 255 255 255 255 255 255 255 255 255 255 255 255 255 255 255 255 255 255 255 255 255 255 255 255 255 255 255 255 255 255 255 255 255 255 255 255 255 255 255 255 255 255 255 255 255 255 255 255 255 255 255 255 255 255 255 255 255 255 255 255 255 255 255 255 255 255 255 255 255 255 255 255 255 255 255 255 255 120 88 72 248 224 136 248 224 136 224 184 96 120 88 72 224 184 96 224 184 96 224 184 96 224 184 96 16 16 16 255 255 255 255 255 255 255 255 255 255 255 255 255 255 255 255 255 255 255 255 255 
255 255 255 255 255 255 255 255 255 168 120 88 248 224 136 248 224 136 248 224 136 248 224 136 168 120 88 168 120 88 120 88 72 224 184 96 224 184 96 224 184 96 16 16 16 168 120 88 16 16 16 255 255 255 255 255 255 255 255 255 255 255 255 255 255 255 255 255 255 255 255 255 255 255 255 255 255 255 255 255 255 255 255 255 255 255 255 255 255 255 255 255 255 255 255 255 255 255 255 255 255 255 255 255 255 255 255 255 255 255 255 255 255 255 255 255 255 255 255 255 255 255 255 255 255 255 255 255 255 255 255 255 255 255 255 120 88 72 120 88 72 248 224 136 224 184 96 224 184 96 120 88 72 224 184 96 224 184 96 224 184 96 224 184 96 120 88 72 255 255 255 255 255 255 255 255 255 255 255 255 255 255 255 255 255 255 255 255 255 255 255 255 
255 255 255 255 255 255 255 255 255 120 88 72 248 224 136 248 224 136 248 224 136 248 224 136 224 184 96 168 120 88 120 88 72 224 184 96 224 184 96 224 184 96 168 120 88 224 184 96 224 184 96 16 16 16 255 255 255 255 255 255 255 255 255 255 255 255 255 255 255 255 255 255 255 255 255 255 255 255 255 255 255 255 255 255 255 255 255 255 255 255 255 255 255 255 255 255 255 255 255 255 255 255 255 255 255 255 255 255 255 255 255 255 255 255 255 255 255 255 255 255 255 255 255 255 255 255 255 255 255 120 88 72 120 88 72 248 224 136 248 224 136 224 184 96 224 184 96 120 88 72 224 184 96 224 184 96 224 184 96 224 184 96 224 184 96 16 16 16 255 255 255 255 255 255 255 255 255 255 255 255 255 255 255 255 255 255 255 255 255 255 255 255 
255 255 255 255 255 255 255 255 255 255 255 255 168 120 88 248 224 136 248 224 136 248 224 136 224 184 96 168 120 88 120 88 72 224 184 96 224 184 96 224 184 96 168 120 88 224 184 96 224 184 96 168 120 88 255 255 255 255 255 255 120 88 72 120 88 72 120 88 72 120 88 72 120 88 72 120 88 72 120 88 72 120 88 72 120 88 72 120 88 72 120 88 72 88 56 40 88 56 40 255 255 255 255 255 255 255 255 255 255 255 255 255 255 255 255 255 255 255 255 255 255 255 255 120 88 72 120 88 72 248 224 136 248 224 136 224 184 96 224 184 96 120 88 72 120 88 72 224 184 96 224 184 96 224 184 96 224 184 96 224 184 96 16 16 16 255 255 255 255 255 255 255 255 255 255 255 255 255 255 255 255 255 255 255 255 255 255 255 255 255 255 255 
255 255 255 255 255 255 255 255 255 255 255 255 120 88 72 248 224 136 248 224 136 248 224 136 248 224 136 224 184 96 120 88 72 224 184 96 224 184 96 224 184 96 168 120 88 224 184 96 224 184 96 88 56 40 88 56 40 88 56 40 248 224 136 248 224 136 224 184 96 224 184 96 120 88 72 120 88 72 120 88 72 120 88 72 120 88 72 224 184 96 224 184 96 224 184 96 224 184 96 120 88 72 120 88 72 88 56 40 88 56 40 255 255 255 255 255 255 120 88 72 120 88 72 200 152 120 200 152 120 224 184 96 224 184 96 120 88 72 120 88 72 224 184 96 248 224 136 248 224 136 248 224 136 248 224 136 224 184 96 224 184 96 16 16 16 255 255 255 255 255 255 255 255 255 255 255 255 255 255 255 255 255 255 255 255 255 255 255 255 255 255 255 
255 255 255 255 255 255 255 255 255 255 255 255 255 255 255 168 120 88 248 224 136 248 224 136 248 224 136 224 184 96 224 184 96 88 56 40 224 184 96 224 184 96 88 56 40 88 56 40 88 56 40 248 224 136 224 184 96 224 184 96 120 88 72 120 88 72 120 88 72 120 88 72 224 184 96 224 184 96 224 184 96 224 184 96 224 184 96 120 88 72 120 88 72 120 88 72 120 88 72 224 184 96 224 184 96 224 184 96 224 184 96 120 88 72 120 88 72 200 152 120 200 152 120 224 184 96 224 184 96 88 56 40 88 56 40 224 184 96 248 224 136 248 224 136 248 224 136 248 224 136 248 224 136 224 184 96 224 184 96 16 16 16 248 224 136 120 88 72 255 255 255 255 255 255 255 255 255 255 255 255 255 255 255 255 255 255 255 255 255 255 255 255 
255 255 255 255 255 255 255 255 255 255 255 255 255 255 255 120 88 72 248 224 136 248 224 136 248 224 136 224 184 96 224 184 96 224 184 96 88 56 40 88 56 40 248 240 184 248 224 136 224 184 96 120 88 72 120 88 72 120 88 72 248 224 136 248 224 136 248 224 136 224 184 96 224 184 96 120 88 72 120 88 72 120 88 72 120 88 72 232 96 64 232 96 64 232 96 64 232 96 64 88 56 40 88 56 40 120 88 72 120 88 72 200 152 120 200 152 120 168 120 88 168 120 88 88 56 40 88 56 40 224 184 96 224 184 96 248 224 136 248 224 136 248 224 136 248 224 136 224 184 96 224 184 96 224 184 96 120 88 72 224 184 96 248 224 136 16 16 16 255 255 255 255 255 255 255 255 255 255 255 255 255 255 255 255 255 255 255 255 255 255 255 255 
255 255 255 255 255 255 255 255 255 255 255 255 255 255 255 255 255 255 168 120 88 248 224 136 248 224 136 248 224 136 224 184 96 120 88 72 248 240 184 248 240 184 224 184 96 120 88 72 120 88 72 248 224 136 248 224 136 248 224 136 248 224 136 120 88 72 120 88 72 120 88 72 120 88 72 232 96 64 232 96 64 232 96 64 232 96 64 232 96 64 232 96 64 208 48 24 208 48 24 120 88 72 120 88 72 200 152 120 200 152 120 168 120 88 168 120 88 88 56 40 88 56 40 168 120 88 168 120 88 224 184 96 224 184 96 248 224 136 248 224 136 224 184 96 224 184 96 224 184 96 224 184 96 120 88 72 224 184 96 248 224 136 248 224 136 16 16 16 255 255 255 255 255 255 255 255 255 255 255 255 255 255 255 255 255 255 255 255 255 255 255 255 
255 255 255 255 255 255 255 255 255 255 255 255 255 255 255 255 255 255 120 88 72 248 224 136 248 224 136 248 224 136 120 88 72 248 240 184 248 240 184 224 184 96 224 184 96 248 224 136 248 224 136 248 224 136 120 88 72 120 88 72 120 88 72 248 168 112 248 168 112 232 96 64 232 96 64 232 96 64 232 96 64 232 96 64 208 48 24 208 48 24 208 48 24 208 48 24 120 88 72 200 152 120 200 152 120 168 120 88 168 120 88 88 56 40 88 56 40 224 184 96 168 120 88 224 184 96 224 184 96 168 120 88 224 184 96 248 224 136 224 184 96 224 184 96 224 184 96 224 184 96 120 88 72 224 184 96 248 224 136 248 224 136 248 224 136 16 16 16 255 255 255 255 255 255 255 255 255 255 255 255 255 255 255 255 255 255 255 255 255 255 255 255 
255 255 255 255 255 255 255 255 255 255 255 255 255 255 255 255 255 255 255 255 255 168 120 88 224 184 96 120 88 72 248 240 184 248 240 184 224 184 96 248 240 184 248 240 184 248 224 136 208 48 24 120 88 72 248 168 112 248 168 112 248 168 112 248 168 112 232 96 64 232 96 64 208 48 24 208 48 24 208 48 24 208 48 24 208 48 24 88 56 40 16 16 16 16 16 16 120 88 72 200 152 120 168 120 88 168 120 88 88 56 40 224 184 96 224 184 96 224 184 96 224 184 96 224 184 96 248 224 136 168 120 88 224 184 96 224 184 96 224 184 96 224 184 96 224 184 96 16 16 16 248 224 136 248 224 136 248 224 136 248 224 136 224 184 96 16 16 16 255 255 255 255 255 255 255 255 255 255 255 255 255 255 255 255 255 255 255 255 255 255 255 255 
255 255 255 255 255 255 255 255 255 255 255 255 255 255 255 255 255 255 255 255 255 168 120 88 120 88 72 248 240 184 248 240 184 224 184 96 248 240 184 248 240 184 208 48 24 208 48 24 248 168 112 248 168 112 248 168 112 248 168 112 232 96 64 232 96 64 208 48 24 208 48 24 208 48 24 16 16 16 16 16 16 16 16 16 88 56 40 255 255 255 255 255 255 255 255 255 120 88 72 200 152 120 120 88 72 88 56 40 224 184 96 224 184 96 224 184 96 224 184 96 224 184 96 248 224 136 248 224 136 168 120 88 224 184 96 248 224 136 224 184 96 120 88 72 16 16 16 248 224 136 248 224 136 248 224 136 224 184 96 224 184 96 224 184 96 120 88 72 255 255 255 255 255 255 255 255 255 255 255 255 255 255 255 255 255 255 255 255 255 255 255 255 
255 255 255 255 255 255 255 255 255 255 255 255 255 255 255 255 255 255 255 255 255 120 88 72 224 184 96 248 240 184 224 184 96 248 240 184 248 240 184 208 48 24 248 168 112 248 168 112 248 168 112 232 96 64 232 96 64 232 96 64 208 48 24 208 48 24 16 16 16 16 16 16 88 56 40 255 255 255 255 255 255 255 255 255 255 255 255 255 255 255 255 255 255 88 56 40 200 152 120 168 120 88 88 56 40 224 184 96 224 184 96 224 184 96 224 184 96 224 184 96 248 224 136 248 224 136 168 120 88 120 88 72 120 88 72 120 88 72 120 88 72 248 224 136 248 224 136 248 224 136 248 224 136 224 184 96 224 184 96 224 184 96 16 16 16 255 255 255 255 255 255 255 255 255 255 255 255 255 255 255 255 255 255 255 255 255 255 255 255 255 255 255 
255 255 255 255 255 255 255 255 255 255 255 255 255 255 255 255 255 255 255 255 255 120 88 72 248 224 136 120 88 72 248 240 184 248 240 184 208 48 24 248 168 112 248 168 112 248 168 112 232 96 64 232 96 64 208 48 24 16 16 16 16 16 16 16 16 16 88 56 40 255 255 255 255 255 255 255 255 255 255 255 255 255 255 255 255 255 255 255 255 255 255 255 255 16 16 16 200 152 120 168 120 88 88 56 40 224 184 96 224 184 96 224 184 96 224 184 96 248 224 136 248 224 136 168 120 88 224 184 96 248 224 136 120 88 72 224 184 96 224 184 96 248 224 136 248 224 136 224 184 96 224 184 96 224 184 96 224 184 96 16 16 16 255 255 255 255 255 255 255 255 255 255 255 255 255 255 255 255 255 255 255 255 255 255 255 255 255 255 255 255 255 255 
255 255 255 255 255 255 255 255 255 255 255 255 255 255 255 255 255 255 255 255 255 120 88 72 224 184 96 120 88 72 248 224 136 88 56 40 248 168 112 248 168 112 248 168 112 232 96 64 208 48 24 16 16 16 16 16 16 88 56 40 120 88 72 120 88 72 120 88 72 16 16 16 255 255 255 255 255 255 255 255 255 255 255 255 255 255 255 255 255 255 255 255 255 16 16 16 168 120 88 120 88 72 224 184 96 224 184 96 224 184 96 224 184 96 224 184 96 224 184 96 168 120 88 224 184 96 248 224 136 248 224 136 120 88 72 224 184 96 224 184 96 224 184 96 224 184 96 224 184 96 224 184 96 224 184 96 16 16 16 16 16 16 255 255 255 255 255 255 255 255 255 255 255 255 255 255 255 255 255 255 88 56 40 16 16 16 255 255 255 255 255 255 
255 255 255 255 255 255 255 255 255 255 255 255 255 255 255 255 255 255 255 255 255 120 88 72 88 56 40 248 224 136 224 184 96 88 56 40 208 48 24 88 56 40 88 56 40 16 16 16 88 56 40 16 16 16 120 88 72 120 88 72 120 88 72 120 88 72 120 88 72 120 88 72 16 16 16 255 255 255 255 255 255 255 255 255 255 255 255 255 255 255 88 56 40 200 152 120 168 120 88 120 88 72 224 184 96 224 184 96 224 184 96 224 184 96 168 120 88 168 120 88 224 184 96 248 224 136 248 224 136 248 224 136 120 88 72 224 184 96 224 184 96 224 184 96 224 184 96 224 184 96 224 184 96 16 16 16 224 184 96 88 56 40 255 255 255 255 255 255 255 255 255 88 56 40 88 56 40 88 56 40 232 96 64 16 16 16 255 255 255 255 255 255 
255 255 255 255 255 255 255 255 255 255 255 255 255 255 255 255 255 255 255 255 255 120 88 72 88 56 40 224 184 96 88 56 40 208 48 24 88 56 40 248 248 248 248 248 248 88 56 40 16 16 16 16 16 16 16 16 16 120 88 72 120 88 72 120 88 72 120 88 72 120 88 72 120 88 72 16 16 16 255 255 255 255 255 255 255 255 255 255 255 255 16 16 16 200 152 120 168 120 88 120 88 72 224 184 96 224 184 96 224 184 96 224 184 96 248 224 136 224 184 96 248 224 136 248 224 136 248 224 136 120 88 72 224 184 96 224 184 96 224 184 96 224 184 96 224 184 96 16 16 16 16 16 16 120 88 72 120 88 72 224 184 96 88 56 40 88 56 40 88 56 40 224 184 96 88 56 40 232 96 64 88 56 40 255 255 255 255 255 255 255 255 255 
255 255 255 255 255 255 255 255 255 255 255 255 255 255 255 255 255 255 255 255 255 255 255 255 88 56 40 224 184 96 88 56 40 88 56 40 248 248 248 16 16 16 248 248 248 88 56 40 16 16 16 16 16 16 16 16 16 16 16 16 120 88 72 120 88 72 120 88 72 120 88 72 120 88 72 120 88 72 88 56 40 16 16 16 255 255 255 255 255 255 16 16 16 168 120 88 120 88 72 120 88 72 224 184 96 224 184 96 224 184 96 248 224 136 224 184 96 248 224 136 248 224 136 248 224 136 120 88 72 224 184 96 224 184 96 224 184 96 120 88 72 16 16 16 16 16 16 248 224 136 248 224 136 248 224 136 248 224 136 16 16 16 224 184 96 224 184 96 224 184 96 88 56 40 232 96 64 208 48 24 16 16 16 255 255 255 255 255 255 255 255 255 
255 255 255 255 255 255 255 255 255 255 255 255 255 255 255 255 255 255 255 255 255 255 255 255 88 56 40 224 184 96 88 56 40 153 153 153 248 248 248 16 16 16 88 56 40 16 16 16 16 16 16 16 16 16 16 16 16 16 16 16 168 120 88 168 120 88 120 88 72 120 88 72 120 88 72 120 88 72 120 88 72 120 88 72 16 16 16 16 16 16 200 152 120 168 120 88 120 88 72 224 184 96 224 184 96 224 184 96 224 184 96 224 184 96 248 224 136 224 184 96 168 120 88 120 88 72 120 88 72 120 88 72 120 88 72 120 88 72 224 184 96 248 224 136 248 224 136 248 224 136 248 224 136 224 184 96 224 184 96 16 16 16 88 56 40 88 56 40 88 56 40 208 48 24 208 48 24 16 16 16 255 255 255 255 255 255 255 255 255 255 255 255 
255 255 255 255 255 255 255 255 255 255 255 255 255 255 255 255 255 255 255 255 255 255 255 255 120 88 72 88 56 40 88 56 40 153 153 153 88 56 40 88 56 40 248 224 136 248 224 136 248 224 136 16 16 16 16 16 16 16 16 16 168 120 88 168 120 88 168 120 88 120 88 72 120 88 72 120 88 72 120 88 72 120 88 72 120 88 72 88 56 40 168 120 88 168 120 88 120 88 72 224 184 96 224 184 96 224 184 96 224 184 96 248 224 136 224 184 96 248 224 136 224 184 96 224 184 96 224 184 96 168 120 88 168 120 88 224 184 96 224 184 96 224 184 96 224 184 96 224 184 96 224 184 96 224 184 96 16 16 16 208 48 24 208 48 24 208 48 24 208 48 24 208 48 24 16 16 16 255 255 255 255 255 255 255 255 255 255 255 255 255 255 255 
255 255 255 255 255 255 255 255 255 255 255 255 255 255 255 255 255 255 255 255 255 168 120 88 248 248 248 248 168 112 232 96 64 88 56 40 248 224 136 248 224 136 248 224 136 248 224 136 248 240 184 224 184 96 16 16 16 168 120 88 168 120 88 168 120 88 168 120 88 168 120 88 120 88 72 120 88 72 120 88 72 120 88 72 120 88 72 88 56 40 168 120 88 120 88 72 120 88 72 224 184 96 224 184 96 224 184 96 248 224 136 224 184 96 248 224 136 224 184 96 248 224 136 248 224 136 224 184 96 224 184 96 224 184 96 120 88 72 224 184 96 224 184 96 224 184 96 224 184 96 16 16 16 16 16 16 208 48 24 208 48 24 208 48 24 208 48 24 16 16 16 16 16 16 255 255 255 255 255 255 255 255 255 255 255 255 255 255 255 255 255 255 
255 255 255 255 255 255 255 255 255 255 255 255 255 255 255 255 255 255 168 120 88 248 248 248 248 168 112 232 96 64 232 96 64 232 96 64 88 56 40 248 240 184 248 240 184 248 240 184 248 240 184 248 240 184 16 16 16 224 184 96 168 120 88 168 120 88 168 120 88 168 120 88 168 120 88 120 88 72 120 88 72 120 88 72 88 56 40 200 152 120 168 120 88 120 88 72 224 184 96 224 184 96 224 184 96 224 184 96 224 184 96 248 224 136 224 184 96 248 224 136 168 120 88 120 88 72 248 224 136 248 224 136 248 224 136 120 88 72 224 184 96 16 16 16 16 16 16 16 16 16 255 255 255 16 16 16 16 16 16 16 16 16 16 16 16 16 16 16 255 255 255 255 255 255 255 255 255 255 255 255 255 255 255 255 255 255 255 255 255 255 255 255 
255 255 255 255 255 255 255 255 255 255 255 255 255 255 255 255 255 255 168 120 88 248 248 248 232 96 64 232 96 64 88 56 40 88 56 40 232 96 64 88 56 40 248 240 184 248 240 184 248 240 184 16 16 16 248 224 136 168 120 88 248 224 136 168 120 88 168 120 88 168 120 88 168 120 88 120 88 72 120 88 72 120 88 72 88 56 40 168 120 88 120 88 72 120 88 72 224 184 96 224 184 96 224 184 96 224 184 96 224 184 96 224 184 96 248 224 136 224 184 96 224 184 96 224 184 96 120 88 72 120 88 72 120 88 72 120 88 72 120 88 72 255 255 255 255 255 255 255 255 255 255 255 255 255 255 255 255 255 255 255 255 255 255 255 255 255 255 255 255 255 255 255 255 255 255 255 255 255 255 255 255 255 255 255 255 255 255 255 255 255 255 255 
255 255 255 255 255 255 255 255 255 255 255 255 255 255 255 255 255 255 88 56 40 248 168 112 232 96 64 88 56 40 208 48 24 208 48 24 248 168 112 88 56 40 248 240 184 248 240 184 248 240 184 248 224 136 248 224 136 248 224 136 248 224 136 248 224 136 248 224 136 168 120 88 168 120 88 168 120 88 120 88 72 88 56 40 120 88 72 120 88 72 120 88 72 120 88 72 224 184 96 224 184 96 224 184 96 248 224 136 224 184 96 168 120 88 248 224 136 248 224 136 248 224 136 224 184 96 224 184 96 120 88 72 224 184 96 224 184 96 120 88 72 120 88 72 255 255 255 255 255 255 255 255 255 255 255 255 255 255 255 255 255 255 255 255 255 255 255 255 255 255 255 255 255 255 255 255 255 255 255 255 255 255 255 255 255 255 255 255 255 255 255 255 
255 255 255 255 255 255 255 255 255 255 255 255 255 255 255 255 255 255 255 255 255 88 56 40 88 56 40 255 255 255 88 56 40 248 168 112 88 56 40 248 240 184 248 240 184 248 224 136 248 224 136 248 224 136 248 224 136 248 224 136 248 224 136 248 224 136 248 224 136 248 224 136 168 120 88 168 120 88 120 88 72 120 88 72 120 88 72 120 88 72 120 88 72 120 88 72 224 184 96 224 184 96 224 184 96 248 224 136 248 224 136 224 184 96 168 120 88 168 120 88 248 224 136 248 224 136 248 224 136 120 88 72 224 184 96 248 224 136 248 224 136 248 224 136 16 16 16 255 255 255 255 255 255 255 255 255 255 255 255 255 255 255 255 255 255 255 255 255 255 255 255 255 255 255 255 255 255 255 255 255 255 255 255 255 255 255 255 255 255 255 255 255 
255 255 255 255 255 255 255 255 255 255 255 255 255 255 255 255 255 255 255 255 255 255 255 255 255 255 255 255 255 255 255 255 255 88 56 40 88 56 40 88 56 40 88 56 40 248 224 136 248 224 136 248 224 136 248 224 136 248 224 136 248 224 136 248 224 136 248 224 136 248 224 136 248 224 136 248 224 136 224 184 96 224 184 96 120 88 72 120 88 72 120 88 72 224 184 96 224 184 96 224 184 96 224 184 96 168 120 88 248 224 136 248 224 136 168 120 88 224 184 96 120 88 72 120 88 72 120 88 72 224 184 96 224 184 96 224 184 96 224 184 96 224 184 96 16 16 16 255 255 255 255 255 255 255 255 255 255 255 255 255 255 255 255 255 255 255 255 255 255 255 255 255 255 255 255 255 255 255 255 255 255 255 255 255 255 255 255 255 255 255 255 255 
255 255 255 255 255 255 255 255 255 255 255 255 255 255 255 255 255 255 255 255 255 255 255 255 255 255 255 255 255 255 255 255 255 255 255 255 88 56 40 168 120 88 120 88 72 88 56 40 248 224 136 248 224 136 248 224 136 248 224 136 248 224 136 248 224 136 248 224 136 248 224 136 248 224 136 248 224 136 248 224 136 224 184 96 224 184 96 224 184 96 224 184 96 224 184 96 224 184 96 168 120 88 248 224 136 248 224 136 168 120 88 168 120 88 168 120 88 224 184 96 224 184 96 224 184 96 224 184 96 120 88 72 16 16 16 16 16 16 16 16 16 16 16 16 255 255 255 255 255 255 255 255 255 255 255 255 255 255 255 255 255 255 255 255 255 255 255 255 255 255 255 255 255 255 255 255 255 255 255 255 255 255 255 255 255 255 255 255 255 255 255 255 
255 255 255 255 255 255 255 255 255 255 255 255 255 255 255 255 255 255 255 255 255 255 255 255 255 255 255 255 255 255 255 255 255 255 255 255 255 255 255 120 88 72 168 120 88 120 88 72 88 56 40 248 224 136 248 224 136 248 224 136 248 224 136 248 224 136 248 224 136 248 224 136 248 224 136 248 224 136 248 224 136 248 224 136 224 184 96 224 184 96 224 184 96 224 184 96 224 184 96 224 184 96 168 120 88 168 120 88 224 184 96 120 88 72 120 88 72 224 184 96 224 184 96 224 184 96 224 184 96 224 184 96 224 184 96 16 16 16 255 255 255 255 255 255 255 255 255 255 255 255 255 255 255 255 255 255 255 255 255 255 255 255 255 255 255 255 255 255 255 255 255 255 255 255 255 255 255 255 255 255 255 255 255 255 255 255 255 255 255 255 255 255 
255 255 255 255 255 255 255 255 255 255 255 255 255 255 255 255 255 255 255 255 255 255 255 255 255 255 255 255 255 255 255 255 255 255 255 255 255 255 255 120 88 72 120 88 72 120 88 72 88 56 40 248 224 136 248 224 136 248 240 184 248 224 136 248 240 184 248 224 136 248 240 184 248 240 184 248 224 136 248 224 136 248 224 136 248 224 136 224 184 96 224 184 96 224 184 96 224 184 96 224 184 96 224 184 96 224 184 96 224 184 96 224 184 96 168 120 88 120 88 72 120 88 72 248 224 136 248 224 136 248 224 136 248 224 136 16 16 16 255 255 255 255 255 255 255 255 255 255 255 255 255 255 255 255 255 255 255 255 255 255 255 255 255 255 255 255 255 255 255 255 255 255 255 255 255 255 255 255 255 255 255 255 255 255 255 255 255 255 255 255 255 255 
255 255 255 255 255 255 255 255 255 255 255 255 255 255 255 255 255 255 255 255 255 255 255 255 255 255 255 255 255 255 255 255 255 255 255 255 255 255 255 255 255 255 120 88 72 120 88 72 120 88 72 88 56 40 248 240 184 248 224 136 248 240 184 248 224 136 248 240 184 248 240 184 248 240 184 248 240 184 248 224 136 248 224 136 248 224 136 248 224 136 224 184 96 224 184 96 224 184 96 224 184 96 224 184 96 224 184 96 224 184 96 224 184 96 224 184 96 248 224 136 248 224 136 16 16 16 16 16 16 16 16 16 16 16 16 255 255 255 255 255 255 255 255 255 255 255 255 255 255 255 255 255 255 255 255 255 255 255 255 255 255 255 255 255 255 255 255 255 255 255 255 255 255 255 255 255 255 255 255 255 255 255 255 255 255 255 255 255 255 255 255 255 
255 255 255 255 255 255 255 255 255 255 255 255 255 255 255 255 255 255 255 255 255 255 255 255 255 255 255 255 255 255 255 255 255 255 255 255 255 255 255 255 255 255 255 255 255 255 255 255 88 56 40 88 56 40 248 224 136 248 240 184 248 240 184 248 240 184 248 240 184 248 240 184 248 240 184 248 240 184 248 240 184 248 224 136 248 224 136 248 224 136 248 224 136 224 184 96 224 184 96 224 184 96 224 184 96 224 184 96 120 88 72 120 88 72 224 184 96 224 184 96 248 224 136 16 16 16 255 255 255 255 255 255 255 255 255 255 255 255 255 255 255 255 255 255 255 255 255 255 255 255 255 255 255 255 255 255 255 255 255 255 255 255 255 255 255 255 255 255 255 255 255 255 255 255 255 255 255 255 255 255 255 255 255 255 255 255 255 255 255 255 255 255 
255 255 255 255 255 255 255 255 255 255 255 255 255 255 255 255 255 255 255 255 255 255 255 255 255 255 255 255 255 255 255 255 255 255 255 255 255 255 255 255 255 255 255 255 255 255 255 255 255 255 255 255 255 255 168 120 88 248 240 184 248 240 184 248 240 184 248 240 184 248 240 184 248 240 184 248 240 184 248 240 184 248 240 184 248 224 136 248 224 136 248 224 136 248 224 136 248 224 136 224 184 96 224 184 96 224 184 96 224 184 96 224 184 96 16 16 16 16 16 16 16 16 16 16 16 16 88 56 40 255 255 255 255 255 255 255 255 255 255 255 255 255 255 255 255 255 255 255 255 255 255 255 255 255 255 255 255 255 255 255 255 255 255 255 255 255 255 255 255 255 255 255 255 255 255 255 255 255 255 255 255 255 255 255 255 255 255 255 255 255 255 255 
255 255 255 255 255 255 255 255 255 255 255 255 255 255 255 255 255 255 255 255 255 255 255 255 255 255 255 255 255 255 255 255 255 255 255 255 255 255 255 255 255 255 255 255 255 255 255 255 255 255 255 255 255 255 88 56 40 248 240 184 248 240 184 248 240 184 248 240 184 248 240 184 248 240 184 248 240 184 248 240 184 248 240 184 248 224 136 248 224 136 248 224 136 248 224 136 248 224 136 248 224 136 224 184 96 224 184 96 224 184 96 224 184 96 120 88 72 120 88 72 120 88 72 120 88 72 88 56 40 255 255 255 255 255 255 255 255 255 255 255 255 255 255 255 255 255 255 255 255 255 255 255 255 255 255 255 255 255 255 255 255 255 255 255 255 255 255 255 255 255 255 255 255 255 255 255 255 255 255 255 255 255 255 255 255 255 255 255 255 255 255 255 
255 255 255 255 255 255 255 255 255 255 255 255 255 255 255 255 255 255 255 255 255 255 255 255 255 255 255 255 255 255 255 255 255 255 255 255 255 255 255 255 255 255 255 255 255 255 255 255 255 255 255 255 255 255 88 56 40 248 240 184 248 240 184 248 240 184 248 240 184 248 240 184 248 240 184 248 240 184 248 240 184 248 224 136 248 224 136 248 224 136 248 224 136 248 224 136 248 224 136 248 224 136 224 184 96 224 184 96 224 184 96 224 184 96 224 184 96 224 184 96 120 88 72 88 56 40 120 88 72 88 56 40 255 255 255 255 255 255 255 255 255 255 255 255 255 255 255 255 255 255 255 255 255 255 255 255 255 255 255 255 255 255 255 255 255 255 255 255 255 255 255 255 255 255 255 255 255 255 255 255 255 255 255 255 255 255 255 255 255 255 255 255 
255 255 255 255 255 255 255 255 255 255 255 255 255 255 255 255 255 255 255 255 255 255 255 255 255 255 255 255 255 255 255 255 255 255 255 255 255 255 255 255 255 255 255 255 255 255 255 255 255 255 255 255 255 255 255 255 255 168 120 88 248 240 184 248 240 184 248 240 184 248 240 184 248 224 136 248 240 184 248 224 136 248 240 184 248 224 136 248 224 136 248 224 136 248 224 136 248 224 136 248 224 136 224 184 96 248 224 136 248 224 136 224 184 96 224 184 96 120 88 72 120 88 72 224 184 96 88 56 40 88 56 40 255 255 255 255 255 255 255 255 255 255 255 255 255 255 255 255 255 255 255 255 255 255 255 255 255 255 255 255 255 255 255 255 255 255 255 255 255 255 255 255 255 255 255 255 255 255 255 255 255 255 255 255 255 255 255 255 255 255 255 255 
255 255 255 255 255 255 255 255 255 255 255 255 255 255 255 255 255 255 255 255 255 255 255 255 255 255 255 255 255 255 255 255 255 255 255 255 255 255 255 255 255 255 255 255 255 255 255 255 255 255 255 255 255 255 255 255 255 88 56 40 248 224 136 248 240 184 248 240 184 248 224 136 248 240 184 248 224 136 248 240 184 248 224 136 248 224 136 248 224 136 248 224 136 248 224 136 248 224 136 248 224 136 248 240 184 248 240 184 248 224 136 224 184 96 120 88 72 248 248 248 248 248 248 120 88 72 224 184 96 88 56 40 88 56 40 255 255 255 255 255 255 255 255 255 255 255 255 255 255 255 255 255 255 255 255 255 255 255 255 255 255 255 255 255 255 255 255 255 255 255 255 255 255 255 255 255 255 255 255 255 255 255 255 255 255 255 255 255 255 255 255 255 
255 255 255 255 255 255 255 255 255 255 255 255 255 255 255 255 255 255 255 255 255 255 255 255 255 255 255 255 255 255 255 255 255 255 255 255 255 255 255 255 255 255 255 255 255 255 255 255 255 255 255 255 255 255 255 255 255 88 56 40 248 224 136 248 224 136 248 224 136 248 224 136 248 224 136 248 224 136 248 224 136 248 224 136 248 224 136 248 224 136 248 224 136 248 224 136 248 224 136 248 240 184 248 240 184 248 240 184 248 224 136 120 88 72 248 248 248 153 153 153 153 153 153 120 88 72 224 184 96 88 56 40 88 56 40 88 56 40 88 56 40 88 56 40 255 255 255 255 255 255 255 255 255 255 255 255 255 255 255 255 255 255 255 255 255 255 255 255 255 255 255 255 255 255 255 255 255 255 255 255 255 255 255 255 255 255 255 255 255 255 255 255 
255 255 255 255 255 255 255 255 255 255 255 255 255 255 255 255 255 255 255 255 255 255 255 255 255 255 255 255 255 255 255 255 255 255 255 255 255 255 255 255 255 255 255 255 255 255 255 255 255 255 255 255 255 255 255 255 255 255 255 255 168 120 88 248 224 136 248 224 136 248 224 136 248 224 136 248 224 136 248 224 136 248 224 136 248 224 136 248 224 136 248 224 136 248 224 136 248 224 136 248 240 184 248 240 184 248 240 184 248 224 136 120 88 72 153 153 153 168 120 88 88 56 40 224 184 96 88 56 40 88 56 40 248 248 248 248 248 248 248 248 248 88 56 40 255 255 255 255 255 255 255 255 255 255 255 255 255 255 255 255 255 255 255 255 255 255 255 255 255 255 255 255 255 255 255 255 255 255 255 255 255 255 255 255 255 255 255 255 255 255 255 255 
255 255 255 255 255 255 255 255 255 255 255 255 255 255 255 255 255 255 255 255 255 255 255 255 255 255 255 255 255 255 255 255 255 255 255 255 255 255 255 255 255 255 255 255 255 255 255 255 255 255 255 255 255 255 255 255 255 255 255 255 88 56 40 248 224 136 248 224 136 248 224 136 248 224 136 248 224 136 248 224 136 248 224 136 248 224 136 248 224 136 248 224 136 248 224 136 248 224 136 248 240 184 248 240 184 248 240 184 120 88 72 248 208 176 224 176 144 168 120 88 88 56 40 88 56 40 168 120 88 168 120 88 248 248 248 153 153 153 88 56 40 255 255 255 255 255 255 255 255 255 255 255 255 255 255 255 255 255 255 255 255 255 255 255 255 255 255 255 255 255 255 255 255 255 255 255 255 255 255 255 255 255 255 255 255 255 255 255 255 255 255 255 
255 255 255 255 255 255 255 255 255 255 255 255 255 255 255 255 255 255 255 255 255 255 255 255 255 255 255 255 255 255 255 255 255 255 255 255 255 255 255 255 255 255 255 255 255 255 255 255 255 255 255 255 255 255 255 255 255 168 120 88 248 224 136 168 120 88 248 224 136 248 224 136 248 224 136 248 224 136 248 224 136 248 224 136 248 224 136 248 224 136 248 224 136 168 120 88 248 224 136 248 240 184 248 240 184 248 240 184 120 88 72 248 208 176 248 208 176 88 56 40 168 120 88 88 56 40 248 208 176 168 120 88 88 56 40 88 56 40 255 255 255 255 255 255 255 255 255 255 255 255 255 255 255 255 255 255 255 255 255 255 255 255 255 255 255 255 255 255 255 255 255 255 255 255 255 255 255 255 255 255 255 255 255 255 255 255 255 255 255 255 255 255 
255 255 255 255 255 255 255 255 255 255 255 255 255 255 255 255 255 255 255 255 255 255 255 255 255 255 255 255 255 255 255 255 255 255 255 255 255 255 255 255 255 255 255 255 255 255 255 255 255 255 255 255 255 255 255 255 255 168 120 88 248 240 184 248 224 136 168 120 88 248 224 136 248 224 136 248 224 136 248 224 136 248 224 136 248 224 136 248 224 136 248 224 136 88 56 40 248 224 136 248 224 136 248 240 184 248 240 184 120 88 72 248 208 176 248 208 176 88 56 40 224 176 144 248 208 176 224 176 144 168 120 88 168 120 88 88 56 40 88 56 40 88 56 40 255 255 255 255 255 255 255 255 255 255 255 255 255 255 255 255 255 255 255 255 255 255 255 255 255 255 255 255 255 255 255 255 255 255 255 255 255 255 255 255 255 255 255 255 255 255 255 255 
255 255 255 255 255 255 255 255 255 255 255 255 255 255 255 255 255 255 255 255 255 255 255 255 255 255 255 255 255 255 255 255 255 255 255 255 255 255 255 255 255 255 255 255 255 255 255 255 255 255 255 255 255 255 168 120 88 248 240 184 248 224 136 248 240 184 248 224 136 168 120 88 88 56 40 248 224 136 248 224 136 248 224 136 248 224 136 224 184 96 224 184 96 88 56 40 248 224 136 248 224 136 248 224 136 248 240 184 120 88 72 248 208 176 248 208 176 224 176 144 224 176 144 224 176 144 168 120 88 168 120 88 88 56 40 168 120 88 168 120 88 248 248 248 88 56 40 255 255 255 255 255 255 255 255 255 255 255 255 255 255 255 255 255 255 255 255 255 255 255 255 255 255 255 255 255 255 255 255 255 255 255 255 255 255 255 255 255 255 255 255 255 
255 255 255 255 255 255 255 255 255 255 255 255 255 255 255 255 255 255 255 255 255 255 255 255 255 255 255 255 255 255 255 255 255 255 255 255 255 255 255 255 255 255 255 255 255 255 255 255 255 255 255 255 255 255 168 120 88 248 224 136 248 240 184 248 224 136 248 240 184 248 224 136 248 224 136 168 120 88 88 56 40 224 184 96 224 184 96 224 184 96 224 184 96 224 184 96 16 16 16 224 184 96 248 224 136 248 224 136 120 88 72 248 208 176 248 208 176 224 176 144 168 120 88 168 120 88 168 120 88 168 120 88 168 120 88 168 120 88 88 56 40 153 153 153 248 248 248 88 56 40 88 56 40 88 56 40 255 255 255 255 255 255 255 255 255 255 255 255 255 255 255 255 255 255 255 255 255 255 255 255 255 255 255 255 255 255 255 255 255 255 255 255 
255 255 255 255 255 255 255 255 255 255 255 255 255 255 255 255 255 255 255 255 255 255 255 255 255 255 255 255 255 255 255 255 255 255 255 255 255 255 255 255 255 255 255 255 255 255 255 255 255 255 255 255 255 255 168 120 88 248 240 184 248 240 184 248 240 184 248 224 136 248 224 136 248 224 136 224 184 96 224 184 96 88 56 40 88 56 40 16 16 16 16 16 16 16 16 16 16 16 16 224 184 96 224 184 96 224 184 96 120 88 72 248 208 176 224 176 144 168 120 88 168 120 88 168 120 88 168 120 88 168 120 88 88 56 40 88 56 40 88 56 40 88 56 40 153 153 153 88 56 40 208 48 24 208 48 24 88 56 40 88 56 40 88 56 40 255 255 255 255 255 255 255 255 255 255 255 255 255 255 255 255 255 255 255 255 255 255 255 255 255 255 255 
255 255 255 255 255 255 255 255 255 255 255 255 255 255 255 255 255 255 255 255 255 255 255 255 255 255 255 255 255 255 255 255 255 255 255 255 255 255 255 255 255 255 255 255 255 255 255 255 255 255 255 255 255 255 168 120 88 248 240 184 248 240 184 248 240 184 248 224 136 248 224 136 224 184 96 224 184 96 224 184 96 224 184 96 16 16 16 255 255 255 255 255 255 255 255 255 255 255 255 16 16 16 224 184 96 88 56 40 248 208 176 248 208 176 224 176 144 168 120 88 168 120 88 168 120 88 88 56 40 88 56 40 208 48 24 88 56 40 208 48 24 208 48 24 88 56 40 88 56 40 88 56 40 208 48 24 208 48 24 208 48 24 208 48 24 88 56 40 16 16 16 16 16 16 255 255 255 255 255 255 255 255 255 255 255 255 255 255 255 255 255 255 
255 255 255 255 255 255 255 255 255 255 255 255 255 255 255 255 255 255 255 255 255 255 255 255 255 255 255 255 255 255 255 255 255 255 255 255 255 255 255 255 255 255 255 255 255 255 255 255 255 255 255 255 255 255 88 56 40 88 56 40 248 240 184 248 224 136 248 224 136 224 184 96 224 184 96 224 184 96 224 184 96 16 16 16 255 255 255 255 255 255 255 255 255 255 255 255 255 255 255 255 255 255 16 16 16 88 56 40 248 208 176 224 176 144 168 120 88 168 120 88 168 120 88 88 56 40 208 48 24 88 56 40 208 48 24 208 48 24 88 56 40 208 48 24 208 48 24 208 48 24 208 48 24 88 56 40 88 56 40 208 48 24 232 96 64 208 48 24 232 96 64 232 96 64 88 56 40 16 16 16 255 255 255 255 255 255 255 255 255 255 255 255 
255 255 255 255 255 255 255 255 255 255 255 255 255 255 255 255 255 255 255 255 255 255 255 255 255 255 255 120 88 72 120 88 72 120 88 72 120 88 72 255 255 255 255 255 255 255 255 255 88 56 40 88 56 40 120 88 72 88 56 40 88 56 40 224 184 96 224 184 96 224 184 96 88 56 40 16 16 16 16 16 16 255 255 255 255 255 255 255 255 255 255 255 255 255 255 255 255 255 255 255 255 255 255 255 255 16 16 16 224 176 144 168 120 88 168 120 88 224 176 144 88 56 40 88 56 40 208 48 24 208 48 24 88 56 40 208 48 24 208 48 24 88 56 40 208 48 24 208 48 24 208 48 24 232 96 64 208 48 24 88 56 40 16 16 16 232 96 64 232 96 64 232 96 64 232 96 64 16 16 16 255 255 255 255 255 255 255 255 255 255 255 255 
255 255 255 255 255 255 255 255 255 255 255 255 255 255 255 255 255 255 255 255 255 153 153 153 153 153 153 120 88 72 248 208 176 248 208 176 248 208 176 120 88 72 120 88 72 120 88 72 224 176 144 224 176 144 224 176 144 120 88 72 88 56 40 88 56 40 16 16 16 16 16 16 255 255 255 255 255 255 255 255 255 255 255 255 255 255 255 255 255 255 255 255 255 255 255 255 255 255 255 255 255 255 255 255 255 16 16 16 200 152 120 88 56 40 88 56 40 168 120 88 88 56 40 255 255 255 88 56 40 208 48 24 88 56 40 208 48 24 208 48 24 208 48 24 88 56 40 208 48 24 208 48 24 208 48 24 232 96 64 208 48 24 232 96 64 16 16 16 16 16 16 16 16 16 16 16 16 255 255 255 255 255 255 255 255 255 255 255 255 255 255 255 
255 255 255 255 255 255 255 255 255 255 255 255 255 255 255 255 255 255 153 153 153 248 248 248 248 248 248 153 153 153 88 56 40 88 56 40 248 208 176 248 208 176 248 208 176 248 208 176 248 208 176 224 176 144 120 88 72 88 56 40 255 255 255 255 255 255 255 255 255 255 255 255 255 255 255 255 255 255 255 255 255 255 255 255 255 255 255 255 255 255 255 255 255 255 255 255 255 255 255 255 255 255 255 255 255 255 255 255 88 56 40 248 248 248 153 153 153 16 16 16 255 255 255 255 255 255 88 56 40 208 48 24 208 48 24 88 56 40 208 48 24 208 48 24 208 48 24 208 48 24 88 56 40 232 96 64 208 48 24 232 96 64 232 96 64 232 96 64 16 16 16 255 255 255 255 255 255 255 255 255 255 255 255 255 255 255 255 255 255 255 255 255 
255 255 255 255 255 255 255 255 255 255 255 255 255 255 255 255 255 255 120 88 72 16 16 16 16 16 16 16 16 16 248 208 176 248 208 176 224 176 144 88 56 40 248 208 176 248 208 176 248 208 176 168 120 88 168 120 88 168 120 88 88 56 40 255 255 255 255 255 255 255 255 255 255 255 255 255 255 255 255 255 255 255 255 255 255 255 255 255 255 255 255 255 255 255 255 255 255 255 255 255 255 255 255 255 255 255 255 255 153 153 153 248 248 248 153 153 153 16 16 16 255 255 255 255 255 255 88 56 40 208 48 24 208 48 24 208 48 24 88 56 40 232 96 64 208 48 24 232 96 64 208 48 24 16 16 16 232 96 64 232 96 64 232 96 64 232 96 64 16 16 16 255 255 255 255 255 255 255 255 255 255 255 255 255 255 255 255 255 255 255 255 255 
255 255 255 255 255 255 255 255 255 255 255 255 255 255 255 255 255 255 255 255 255 120 88 72 248 248 248 248 248 248 88 56 40 224 176 144 88 56 40 248 208 176 248 208 176 248 208 176 224 176 144 224 176 144 168 120 88 88 56 40 153 153 153 16 16 16 255 255 255 255 255 255 255 255 255 255 255 255 255 255 255 255 255 255 255 255 255 255 255 255 255 255 255 255 255 255 255 255 255 255 255 255 255 255 255 255 255 255 153 153 153 248 248 248 16 16 16 255 255 255 255 255 255 255 255 255 255 255 255 88 56 40 208 48 24 232 96 64 88 56 40 208 48 24 232 96 64 208 48 24 232 96 64 232 96 64 16 16 16 232 96 64 232 96 64 16 16 16 255 255 255 255 255 255 255 255 255 255 255 255 255 255 255 255 255 255 255 255 255 255 255 255 
255 255 255 255 255 255 255 255 255 255 255 255 255 255 255 255 255 255 255 255 255 120 88 72 248 248 248 16 16 16 16 16 16 88 56 40 88 56 40 88 56 40 248 208 176 224 176 144 168 120 88 168 120 88 16 16 16 16 16 16 16 16 16 255 255 255 255 255 255 255 255 255 255 255 255 255 255 255 255 255 255 255 255 255 255 255 255 255 255 255 255 255 255 255 255 255 255 255 255 255 255 255 255 255 255 255 255 255 255 255 255 16 16 16 16 16 16 255 255 255 255 255 255 255 255 255 255 255 255 88 56 40 232 96 64 208 48 24 232 96 64 16 16 16 232 96 64 232 96 64 232 96 64 232 96 64 232 96 64 16 16 16 16 16 16 255 255 255 255 255 255 255 255 255 255 255 255 255 255 255 255 255 255 255 255 255 255 255 255 255 255 255 
255 255 255 255 255 255 255 255 255 255 255 255 255 255 255 255 255 255 255 255 255 120 88 72 16 16 16 255 255 255 255 255 255 88 56 40 248 248 248 153 153 153 88 56 40 168 120 88 16 16 16 16 16 16 255 255 255 255 255 255 255 255 255 255 255 255 255 255 255 255 255 255 255 255 255 255 255 255 255 255 255 255 255 255 255 255 255 255 255 255 255 255 255 255 255 255 255 255 255 255 255 255 255 255 255 255 255 255 255 255 255 255 255 255 255 255 255 255 255 255 255 255 255 255 255 255 255 255 255 88 56 40 232 96 64 232 96 64 232 96 64 232 96 64 16 16 16 232 96 64 232 96 64 232 96 64 16 16 16 255 255 255 255 255 255 255 255 255 255 255 255 255 255 255 255 255 255 255 255 255 255 255 255 255 255 255 255 255 255 255 255 255 
255 255 255 255 255 255 255 255 255 255 255 255 255 255 255 255 255 255 255 255 255 255 255 255 255 255 255 255 255 255 88 56 40 248 248 248 153 153 153 16 16 16 16 16 16 16 16 16 255 255 255 255 255 255 255 255 255 255 255 255 255 255 255 255 255 255 255 255 255 255 255 255 255 255 255 255 255 255 255 255 255 255 255 255 255 255 255 255 255 255 255 255 255 255 255 255 255 255 255 255 255 255 255 255 255 255 255 255 255 255 255 255 255 255 255 255 255 255 255 255 255 255 255 255 255 255 255 255 255 255 255 255 88 56 40 16 16 16 16 16 16 16 16 16 255 255 255 16 16 16 16 16 16 16 16 16 255 255 255 255 255 255 255 255 255 255 255 255 255 255 255 255 255 255 255 255 255 255 255 255 255 255 255 255 255 255 255 255 255 255 255 255 
255 255 255 255 255 255 255 255 255 255 255 255 255 255 255 255 255 255 255 255 255 255 255 255 255 255 255 255 255 255 88 56 40 16 16 16 16 16 16 255 255 255 255 255 255 255 255 255 255 255 255 255 255 255 255 255 255 255 255 255 255 255 255 255 255 255 255 255 255 255 255 255 255 255 255 255 255 255 255 255 255 255 255 255 255 255 255 255 255 255 255 255 255 255 255 255 255 255 255 255 255 255 255 255 255 255 255 255 255 255 255 255 255 255 255 255 255 255 255 255 255 255 255 255 255 255 255 255 255 255 255 255 255 255 255 255 255 255 255 255 255 255 255 255 255 255 255 255 255 255 255 255 255 255 255 255 255 255 255 255 255 255 255 255 255 255 255 255 255 255 255 255 255 255 255 255 255 255 255 255 255 255 255 255 255 255 255 255 255 255 255 255 
255 255 255 255 255 255 255 255 255 255 255 255 255 255 255 255 255 255 255 255 255 255 255 255 255 255 255 255 255 255 255 255 255 255 255 255 255 255 255 255 255 255 255 255 255 255 255 255 255 255 255 255 255 255 255 255 255 255 255 255 255 255 255 255 255 255 255 255 255 255 255 255 255 255 255 255 255 255 255 255 255 255 255 255 255 255 255 255 255 255 255 255 255 255 255 255 255 255 255 255 255 255 255 255 255 255 255 255 255 255 255 255 255 255 255 255 255 255 255 255 255 255 255 255 255 255 255 255 255 255 255 255 255 255 255 255 255 255 255 255 255 255 255 255 255 255 255 255 255 255 255 255 255 255 255 255 255 255 255 255 255 255 255 255 255 255 255 255 255 255 255 255 255 255 255 255 255 255 255 255 255 255 255 255 255 255 255 255 255 255 255 255 
