P3
64 64
255
255 255 255 255 255 255 255 255 255 255 255 255 255 255 255 255 255 255 255 255 255 255 255 255 255 255 255 255 255 255 255 255 255 255 255 255 255 255 255 255 255 255 255 255 255 255 255 255 255 255 255 255 255 255 255 255 255 255 255 255 255 255 255 255 255 255 255 255 255 255 255 255 255 255 255 255 255 255 255 255 255 255 255 255 255 255 255 255 255 255 255 255 255 255 255 255 255 255 255 255 255 255 255 255 255 255 255 255 255 255 255 255 255 255 255 255 255 255 255 255 255 255 255 255 255 255 255 255 255 255 255 255 255 255 255 255 255 255 255 255 255 255 255 255 255 255 255 255 255 255 255 255 255 255 255 255 255 255 255 255 255 255 255 255 255 255 255 255 255 255 255 255 255 255 255 255 255 255 255 255 255 255 255 255 255 255 255 255 255 255 255 255 
255 255 255 255 255 255 255 255 255 255 255 255 255 255 255 255 255 255 255 255 255 255 255 255 255 255 255 255 255 255 255 255 255 255 255 255 255 255 255 255 255 255 255 255 255 255 255 255 255 255 255 255 255 255 255 255 255 255 255 255 255 255 255 255 255 255 255 255 255 255 255 255 255 255 255 255 255 255 255 255 255 255 255 255 255 255 255 255 255 255 255 255 255 255 255 255 255 255 255 255 255 255 255 255 255 255 255 255 255 255 255 255 255 255 255 255 255 255 255 255 255 255 255 255 255 255 255 255 255 255 255 255 255 255 255 255 255 255 255 255 255 255 255 255 255 255 255 255 255 255 255 255 255 255 255 255 255 255 255 255 255 255 255 255 255 255 255 255 255 255 255 255 255 255 255 255 255 255 255 255 255 255 255 255 255 255 255 255 255 255 255 255 
255 255 255 255 255 255 255 255 255 255 255 255 255 255 255 255 255 255 255 255 255 255 255 255 255 255 255 255 255 255 255 255 255 255 255 255 255 255 255 255 255 255 255 255 255 255 255 255 255 255 255 255 255 255 255 255 255 255 255 255 255 255 255 255 255 255 255 255 255 255 255 255 255 255 255 255 255 255 255 255 255 255 255 255 255 255 255 255 255 255 255 255 255 255 255 255 255 255 255 255 255 255 255 255 255 255 255 255 255 255 255 255 255 255 255 255 255 255 255 255 255 255 255 255 255 255 255 255 255 255 255 255 255 255 255 255 255 255 255 255 255 255 255 255 255 255 255 255 255 255 255 255 255 255 255 255 255 255 255 255 255 255 255 255 255 255 255 255 255 255 255 255 255 255 255 255 255 255 255 255 255 255 255 255 255 255 255 255 255 255 255 255 
255 255 255 255 255 255 255 255 255 255 255 255 255 255 255 255 255 255 255 255 255 255 255 255 255 255 255 255 255 255 255 255 255 255 255 255 255 255 255 255 255 255 255 255 255 255 255 255 255 255 255 255 255 255 255 255 255 255 255 255 255 255 255 255 255 255 255 255 255 255 255 255 255 255 255 255 255 255 255 255 255 255 255 255 255 255 255 255 255 255 255 255 255 255 255 255 255 255 255 255 255 255 255 255 255 255 255 255 255 255 255 255 255 255 255 255 255 255 255 255 255 255 255 255 255 255 255 255 255 255 255 255 255 255 255 255 255 255 255 255 255 255 255 255 255 255 255 255 255 255 255 255 255 255 255 255 255 255 255 255 255 255 255 255 255 255 255 255 255 255 255 255 255 255 255 255 255 255 255 255 255 255 255 255 255 255 255 255 255 255 255 255 
255 255 255 255 255 255 255 255 255 255 255 255 255 255 255 255 255 255 255 255 255 255 255 255 255 255 255 255 255 255 255 255 255 255 255 255 255 255 255 255 255 255 255 255 255 255 255 255 255 255 255 255 255 255 255 255 255 255 255 255 255 255 255 255 255 255 255 255 255 255 255 255 255 255 255 255 255 255 136 136 144 16 16 16 16 16 16 16 16 16 255 255 255 255 255 255 255 255 255 255 255 255 255 255 255 255 255 255 255 255 255 255 255 255 255 255 255 255 255 255 255 255 255 255 255 255 255 255 255 255 255 255 255 255 255 255 255 255 255 255 255 255 255 255 255 255 255 255 255 255 255 255 255 255 255 255 255 255 255 255 255 255 255 255 255 255 255 255 255 255 255 255 255 255 255 255 255 255 255 255 255 255 255 255 255 255 255 255 255 255 255 255 
255 255 255 255 255 255 255 255 255 255 255 255 255 255 255 255 255 255 255 255 255 255 255 255 255 255 255 255 255 255 255 255 255 255 255 255 255 255 255 255 255 255 255 255 255 255 255 255 255 255 255 255 255 255 255 255 255 255 255 255 255 255 255 255 255 255 255 255 255 255 255 255 255 255 255 136 136 144 192 192 184 80 80 88 80 80 88 80 80 88 16 16 16 255 255 255 255 255 255 255 255 255 255 255 255 255 255 255 255 255 255 255 255 255 255 255 255 255 255 255 255 255 255 255 255 255 255 255 255 255 255 255 255 255 255 255 255 255 255 255 255 255 255 255 255 255 255 255 255 255 255 255 255 255 255 255 255 255 255 255 255 255 255 255 255 255 255 255 80 80 88 80 80 88 80 80 88 80 80 88 255 255 255 255 255 255 255 255 255 255 255 255 
255 255 255 255 255 255 255 255 255 255 255 255 255 255 255 255 255 255 255 255 255 255 255 255 255 255 255 80 80 88 80 80 88 136 136 144 255 255 255 255 255 255 255 255 255 255 255 255 255 255 255 255 255 255 255 255 255 255 255 255 255 255 255 255 255 255 255 255 255 255 255 255 136 136 144 192 192 184 16 16 16 136 136 144 136 136 144 136 136 144 16 16 16 255 255 255 255 255 255 255 255 255 255 255 255 255 255 255 255 255 255 255 255 255 255 255 255 255 255 255 255 255 255 255 255 255 255 255 255 255 255 255 255 255 255 255 255 255 255 255 255 255 255 255 255 255 255 255 255 255 255 255 255 255 255 255 255 255 255 255 255 255 80 80 88 80 80 88 192 192 184 192 192 184 192 192 184 16 16 16 255 255 255 255 255 255 255 255 255 255 255 255 
255 255 255 255 255 255 255 255 255 255 255 255 255 255 255 255 255 255 255 255 255 255 255 255 255 255 255 80 80 88 224 224 216 224 224 216 136 136 144 80 80 88 80 80 88 255 255 255 255 255 255 255 255 255 255 255 255 255 255 255 255 255 255 255 255 255 255 255 255 80 80 88 192 192 184 16 16 16 136 136 144 136 136 144 136 136 144 136 136 144 16 16 16 255 255 255 255 255 255 255 255 255 255 255 255 255 255 255 255 255 255 255 255 255 255 255 255 255 255 255 255 255 255 255 255 255 255 255 255 255 255 255 255 255 255 255 255 255 255 255 255 255 255 255 255 255 255 255 255 255 255 255 255 255 255 255 255 255 255 80 80 88 192 192 184 192 192 184 192 192 184 136 136 144 136 136 144 16 16 16 255 255 255 255 255 255 255 255 255 255 255 255 
255 255 255 255 255 255 255 255 255 255 255 255 255 255 255 255 255 255 255 255 255 255 255 255 255 255 255 80 80 88 224 224 216 224 224 216 224 224 216 192 192 184 192 192 184 80 80 88 255 255 255 255 255 255 255 255 255 255 255 255 16 16 16 16 16 16 80 80 88 192 192 184 192 192 184 80 80 88 136 136 144 136 136 144 136 136 144 16 16 16 255 255 255 255 255 255 255 255 255 255 255 255 255 255 255 255 255 255 255 255 255 255 255 255 255 255 255 255 255 255 255 255 255 255 255 255 255 255 255 255 255 255 255 255 255 255 255 255 255 255 255 255 255 255 255 255 255 255 255 255 255 255 255 255 255 255 80 80 88 80 80 88 80 80 88 80 80 88 192 192 184 136 136 144 16 16 16 255 255 255 255 255 255 255 255 255 255 255 255 255 255 255 
255 255 255 255 255 255 255 255 255 255 255 255 255 255 255 255 255 255 255 255 255 255 255 255 255 255 255 255 255 255 80 80 88 224 224 216 192 192 184 192 192 184 192 192 184 136 136 144 80 80 88 80 80 88 16 16 16 16 16 16 192 192 184 80 80 88 192 192 184 192 192 184 16 16 16 136 136 144 136 136 144 136 136 144 136 136 144 16 16 16 80 80 88 255 255 255 255 255 255 255 255 255 255 255 255 255 255 255 255 255 255 255 255 255 255 255 255 255 255 255 255 255 255 255 255 255 255 255 255 255 255 255 255 255 255 255 255 255 255 255 255 255 255 255 255 255 255 255 255 255 255 255 255 80 80 88 224 224 216 224 224 216 192 192 184 192 192 184 80 80 88 136 136 144 80 80 88 255 255 255 255 255 255 255 255 255 255 255 255 255 255 255 
255 255 255 255 255 255 255 255 255 255 255 255 255 255 255 255 255 255 255 255 255 255 255 255 255 255 255 255 255 255 255 255 255 80 80 88 192 192 184 192 192 184 136 136 144 136 136 144 16 16 16 16 16 16 192 192 184 192 192 184 192 192 184 80 80 88 192 192 184 192 192 184 16 16 16 136 136 144 136 136 144 136 136 144 16 16 16 192 192 184 16 16 16 16 16 16 255 255 255 255 255 255 255 255 255 255 255 255 255 255 255 136 136 144 80 80 88 255 255 255 255 255 255 255 255 255 255 255 255 255 255 255 255 255 255 255 255 255 255 255 255 255 255 255 255 255 255 255 255 255 80 80 88 224 224 216 224 224 216 192 192 184 192 192 184 192 192 184 136 136 144 16 16 16 255 255 255 255 255 255 255 255 255 255 255 255 255 255 255 255 255 255 
255 255 255 255 255 255 255 255 255 255 255 255 255 255 255 255 255 255 255 255 255 136 136 144 80 80 88 80 80 88 80 80 88 80 80 88 80 80 88 80 80 88 80 80 88 80 80 88 80 80 88 192 192 184 192 192 184 192 192 184 80 80 88 192 192 184 192 192 184 192 192 184 16 16 16 136 136 144 136 136 144 136 136 144 80 80 88 192 192 184 192 192 184 192 192 184 80 80 88 255 255 255 255 255 255 80 80 88 136 136 144 192 192 184 192 192 184 80 80 88 255 255 255 255 255 255 255 255 255 255 255 255 255 255 255 255 255 255 255 255 255 255 255 255 255 255 255 255 255 255 80 80 88 224 224 216 192 192 184 192 192 184 192 192 184 136 136 144 136 136 144 80 80 88 255 255 255 255 255 255 255 255 255 255 255 255 255 255 255 255 255 255 
255 255 255 255 255 255 255 255 255 255 255 255 255 255 255 255 255 255 80 80 88 224 224 216 224 224 216 224 224 216 224 224 216 224 224 216 224 224 216 192 192 184 192 192 184 192 192 184 192 192 184 192 192 184 192 192 184 192 192 184 80 80 88 192 192 184 192 192 184 192 192 184 16 16 16 136 136 144 192 192 184 192 192 184 80 80 88 192 192 184 192 192 184 192 192 184 192 192 184 16 16 16 16 16 16 192 192 184 192 192 184 80 80 88 192 192 184 16 16 16 255 255 255 255 255 255 255 255 255 255 255 255 255 255 255 255 255 255 255 255 255 255 255 255 255 255 255 80 80 88 224 224 216 224 224 216 192 192 184 192 192 184 136 136 144 136 136 144 16 16 16 255 255 255 255 255 255 255 255 255 255 255 255 255 255 255 255 255 255 255 255 255 
255 255 255 255 255 255 255 255 255 255 255 255 255 255 255 255 255 255 80 80 88 136 136 144 224 224 216 224 224 216 224 224 216 192 192 184 192 192 184 136 136 144 136 136 144 136 136 144 136 136 144 136 136 144 192 192 184 192 192 184 80 80 88 192 192 184 192 192 184 192 192 184 80 80 88 192 192 184 192 192 184 192 192 184 192 192 184 192 192 184 192 192 184 192 192 184 192 192 184 16 16 16 192 192 184 192 192 184 80 80 88 136 136 144 192 192 184 16 16 16 255 255 255 255 255 255 255 255 255 255 255 255 255 255 255 255 255 255 255 255 255 255 255 255 255 255 255 80 80 88 80 80 88 80 80 88 80 80 88 192 192 184 136 136 144 136 136 144 16 16 16 255 255 255 255 255 255 255 255 255 255 255 255 255 255 255 255 255 255 255 255 255 
255 255 255 255 255 255 255 255 255 255 255 255 255 255 255 255 255 255 255 255 255 255 255 255 80 80 88 136 136 144 192 192 184 136 136 144 136 136 144 136 136 144 136 136 144 136 136 144 136 136 144 136 136 144 136 136 144 192 192 184 192 192 184 192 192 184 136 136 144 80 80 88 192 192 184 192 192 184 192 192 184 192 192 184 192 192 184 192 192 184 192 192 184 192 192 184 192 192 184 192 192 184 192 192 184 80 80 88 136 136 144 136 136 144 192 192 184 16 16 16 80 80 88 80 80 88 80 80 88 255 255 255 255 255 255 255 255 255 255 255 255 255 255 255 255 255 255 80 80 88 224 224 216 224 224 216 192 192 184 80 80 88 80 80 88 136 136 144 80 80 88 255 255 255 255 255 255 255 255 255 255 255 255 255 255 255 255 255 255 255 255 255 
255 255 255 255 255 255 255 255 255 255 255 255 255 255 255 255 255 255 255 255 255 255 255 255 255 255 255 255 255 255 16 16 16 16 16 16 192 192 184 136 136 144 136 136 144 136 136 144 136 136 144 136 136 144 136 136 144 192 192 184 192 192 184 192 192 184 192 192 184 192 192 184 192 192 184 192 192 184 192 192 184 192 192 184 192 192 184 192 192 184 80 80 88 192 192 184 192 192 184 192 192 184 192 192 184 80 80 88 136 136 144 192 192 184 80 80 88 192 192 184 192 192 184 192 192 184 16 16 16 255 255 255 255 255 255 255 255 255 255 255 255 255 255 255 80 80 88 224 224 216 224 224 216 192 192 184 192 192 184 136 136 144 136 136 144 16 16 16 255 255 255 255 255 255 255 255 255 255 255 255 255 255 255 255 255 255 255 255 255 255 255 255 
255 255 255 255 255 255 255 255 255 255 255 255 255 255 255 255 255 255 255 255 255 255 255 255 255 255 255 255 255 255 255 255 255 80 80 88 16 16 16 16 16 16 192 192 184 136 136 144 136 136 144 136 136 144 192 192 184 192 192 184 192 192 184 192 192 184 192 192 184 192 192 184 192 192 184 192 192 184 192 192 184 192 192 184 192 192 184 80 80 88 192 192 184 80 80 88 192 192 184 192 192 184 80 80 88 136 136 144 136 136 144 192 192 184 192 192 184 192 192 184 192 192 184 16 16 16 255 255 255 255 255 255 255 255 255 255 255 255 255 255 255 255 255 255 80 80 88 224 224 216 224 224 216 192 192 184 192 192 184 136 136 144 136 136 144 16 16 16 255 255 255 255 255 255 255 255 255 255 255 255 255 255 255 255 255 255 255 255 255 255 255 255 
255 255 255 255 255 255 255 255 255 255 255 255 255 255 255 255 255 255 255 255 255 255 255 255 255 255 255 255 255 255 255 255 255 80 80 88 224 224 216 136 136 144 80 80 88 224 224 216 224 224 216 192 192 184 192 192 184 192 192 184 192 192 184 192 192 184 136 136 144 136 136 144 192 192 184 192 192 184 192 192 184 192 192 184 80 80 88 192 192 184 192 192 184 16 16 16 192 192 184 192 192 184 80 80 88 136 136 144 136 136 144 192 192 184 192 192 184 192 192 184 16 16 16 255 255 255 255 255 255 255 255 255 255 255 255 255 255 255 255 255 255 255 255 255 80 80 88 224 224 216 224 224 216 192 192 184 192 192 184 136 136 144 136 136 144 16 16 16 255 255 255 255 255 255 255 255 255 255 255 255 255 255 255 255 255 255 255 255 255 255 255 255 
255 255 255 255 255 255 255 255 255 255 255 255 255 255 255 255 255 255 255 255 255 255 255 255 255 255 255 255 255 255 80 80 88 224 224 216 224 224 216 224 224 216 224 224 216 224 224 216 224 224 216 192 192 184 192 192 184 192 192 184 192 192 184 136 136 144 136 136 144 136 136 144 16 16 16 192 192 184 192 192 184 192 192 184 192 192 184 192 192 184 136 136 144 16 16 16 136 136 144 192 192 184 80 80 88 136 136 144 136 136 144 192 192 184 192 192 184 16 16 16 255 255 255 255 255 255 255 255 255 255 255 255 255 255 255 255 255 255 255 255 255 255 255 255 80 80 88 224 224 216 224 224 216 192 192 184 192 192 184 136 136 144 136 136 144 16 16 16 255 255 255 255 255 255 255 255 255 255 255 255 255 255 255 255 255 255 255 255 255 255 255 255 
255 255 255 255 255 255 255 255 255 255 255 255 255 255 255 176 160 112 120 104 56 120 104 56 120 104 56 120 104 56 80 80 88 224 224 216 224 224 216 136 136 144 224 224 216 224 224 216 192 192 184 192 192 184 192 192 184 192 192 184 192 192 184 136 136 144 136 136 144 16 16 16 136 136 144 192 192 184 192 192 184 192 192 184 192 192 184 136 136 144 136 136 144 136 136 144 136 136 144 192 192 184 192 192 184 16 16 16 136 136 144 192 192 184 192 192 184 16 16 16 80 80 88 255 255 255 255 255 255 16 16 16 16 16 16 255 255 255 255 255 255 255 255 255 80 80 88 80 80 88 80 80 88 80 80 88 80 80 88 80 80 88 136 136 144 16 16 16 255 255 255 255 255 255 255 255 255 255 255 255 255 255 255 255 255 255 255 255 255 255 255 255 
255 255 255 255 255 255 255 255 255 255 255 255 120 104 56 248 232 192 248 232 192 248 232 192 176 160 112 248 232 192 120 104 56 120 104 56 16 16 16 16 16 16 224 224 216 224 224 216 192 192 184 192 192 184 192 192 184 224 224 216 192 192 184 136 136 144 16 16 16 248 248 248 248 248 248 136 136 144 192 192 184 192 192 184 192 192 184 136 136 144 136 136 144 80 80 88 16 16 16 16 16 16 16 16 16 192 192 184 16 16 16 192 192 184 192 192 184 192 192 184 16 16 16 16 16 16 16 16 16 192 192 184 192 192 184 16 16 16 255 255 255 255 255 255 80 80 88 224 224 216 224 224 216 192 192 184 192 192 184 136 136 144 80 80 88 16 16 16 255 255 255 255 255 255 255 255 255 255 255 255 255 255 255 255 255 255 255 255 255 255 255 255 
255 255 255 255 255 255 255 255 255 255 255 255 120 104 56 224 208 168 224 208 168 248 232 192 120 104 56 248 232 192 248 232 192 120 104 56 248 232 192 248 232 192 80 80 88 80 80 88 192 192 184 192 192 184 80 80 88 224 224 216 136 136 144 16 16 16 160 48 16 224 224 216 248 248 248 136 136 144 192 192 184 192 192 184 192 192 184 192 192 184 192 192 184 192 192 184 192 192 184 192 192 184 16 16 16 192 192 184 192 192 184 192 192 184 192 192 184 16 16 16 16 16 16 192 192 184 192 192 184 136 136 144 136 136 144 16 16 16 255 255 255 80 80 88 192 192 184 224 224 216 224 224 216 192 192 184 192 192 184 136 136 144 136 136 144 136 136 144 16 16 16 255 255 255 255 255 255 255 255 255 255 255 255 255 255 255 255 255 255 255 255 255 
255 255 255 255 255 255 255 255 255 255 255 255 255 255 255 120 104 56 176 160 112 120 104 56 224 208 168 224 208 168 224 208 168 120 104 56 248 232 192 248 232 192 120 104 56 224 208 168 80 80 88 192 192 184 80 80 88 224 224 216 136 136 144 16 16 16 224 224 216 160 48 16 248 248 248 16 16 16 192 192 184 192 192 184 192 192 184 192 192 184 192 192 184 192 192 184 136 136 144 16 16 16 16 16 16 192 192 184 192 192 184 192 192 184 16 16 16 136 136 144 136 136 144 16 16 16 80 80 88 136 136 144 136 136 144 16 16 16 255 255 255 80 80 88 192 192 184 224 224 216 224 224 216 192 192 184 192 192 184 136 136 144 136 136 144 136 136 144 16 16 16 255 255 255 255 255 255 255 255 255 255 255 255 255 255 255 255 255 255 255 255 255 
255 255 255 255 255 255 255 255 255 255 255 255 255 255 255 255 255 255 16 16 16 176 160 112 176 160 112 176 160 112 120 104 56 224 208 168 224 208 168 224 208 168 120 104 56 224 208 168 80 80 88 192 192 184 80 80 88 224 224 216 136 136 144 160 48 16 16 16 16 160 48 16 16 16 16 192 192 184 192 192 184 136 136 144 192 192 184 192 192 184 192 192 184 192 192 184 16 16 16 80 80 88 80 80 88 192 192 184 16 16 16 16 16 16 80 80 88 136 136 144 136 136 144 136 136 144 136 136 144 16 16 16 136 136 144 16 16 16 255 255 255 80 80 88 192 192 184 192 192 184 224 224 216 192 192 184 192 192 184 136 136 144 136 136 144 136 136 144 80 80 88 255 255 255 255 255 255 255 255 255 255 255 255 255 255 255 255 255 255 255 255 255 
255 255 255 255 255 255 255 255 255 255 255 255 255 255 255 255 255 255 255 255 255 16 16 16 176 160 112 120 104 56 176 160 112 176 160 112 224 208 168 224 208 168 120 104 56 224 208 168 80 80 88 192 192 184 80 80 88 192 192 184 16 16 16 248 248 248 160 48 16 16 16 16 192 192 184 192 192 184 136 136 144 16 16 16 16 16 16 192 192 184 192 192 184 192 192 184 136 136 144 16 16 16 80 80 88 136 136 144 136 136 144 136 136 144 136 136 144 136 136 144 136 136 144 136 136 144 136 136 144 136 136 144 16 16 16 16 16 16 255 255 255 16 16 16 192 192 184 192 192 184 192 192 184 192 192 184 192 192 184 192 192 184 136 136 144 136 136 144 136 136 144 80 80 88 255 255 255 255 255 255 255 255 255 255 255 255 255 255 255 255 255 255 
255 255 255 255 255 255 255 255 255 255 255 255 255 255 255 255 255 255 255 255 255 255 255 255 16 16 16 16 16 16 176 160 112 176 160 112 176 160 112 120 104 56 224 208 168 224 208 168 80 80 88 192 192 184 192 192 184 80 80 88 16 16 16 136 136 144 192 192 184 192 192 184 192 192 184 136 136 144 16 16 16 16 16 16 136 136 144 16 16 16 136 136 144 136 136 144 136 136 144 16 16 16 136 136 144 136 136 144 136 136 144 136 136 144 136 136 144 136 136 144 136 136 144 136 136 144 136 136 144 136 136 144 136 136 144 16 16 16 255 255 255 16 16 16 192 192 184 80 80 88 80 80 88 80 80 88 80 80 88 80 80 88 80 80 88 80 80 88 136 136 144 16 16 16 255 255 255 255 255 255 255 255 255 255 255 255 255 255 255 255 255 255 
255 255 255 255 255 255 255 255 255 255 255 255 255 255 255 255 255 255 255 255 255 255 255 255 255 255 255 80 80 88 16 16 16 176 160 112 120 104 56 176 160 112 176 160 112 176 160 112 80 80 88 192 192 184 192 192 184 192 192 184 192 192 184 192 192 184 192 192 184 192 192 184 136 136 144 16 16 16 248 248 248 80 80 88 136 136 144 136 136 144 16 16 16 16 16 16 16 16 16 16 16 16 136 136 144 136 136 144 136 136 144 136 136 144 136 136 144 136 136 144 136 136 144 136 136 144 80 80 88 80 80 88 136 136 144 136 136 144 16 16 16 16 16 16 16 16 16 16 16 16 16 16 16 192 192 184 192 192 184 192 192 184 136 136 144 136 136 144 80 80 88 16 16 16 255 255 255 255 255 255 255 255 255 255 255 255 255 255 255 255 255 255 
255 255 255 255 255 255 255 255 255 255 255 255 255 255 255 255 255 255 255 255 255 255 255 255 255 255 255 255 255 255 80 80 88 16 16 16 176 160 112 176 160 112 176 160 112 80 80 88 192 192 184 192 192 184 192 192 184 192 192 184 192 192 184 192 192 184 192 192 184 136 136 144 16 16 16 248 248 248 248 248 248 248 248 248 80 80 88 136 136 144 16 16 16 80 80 88 80 80 88 136 136 144 136 136 144 136 136 144 80 80 88 136 136 144 136 136 144 136 136 144 136 136 144 136 136 144 136 136 144 136 136 144 80 80 88 136 136 144 136 136 144 16 16 16 192 192 184 192 192 184 192 192 184 16 16 16 192 192 184 192 192 184 192 192 184 136 136 144 136 136 144 80 80 88 16 16 16 255 255 255 255 255 255 255 255 255 255 255 255 255 255 255 
255 255 255 255 255 255 255 255 255 255 255 255 255 255 255 255 255 255 255 255 255 255 255 255 255 255 255 255 255 255 80 80 88 192 192 184 16 16 16 80 80 88 80 80 88 192 192 184 192 192 184 192 192 184 192 192 184 192 192 184 192 192 184 192 192 184 136 136 144 136 136 144 16 16 16 160 48 16 160 48 16 248 248 248 80 80 88 16 16 16 80 80 88 136 136 144 136 136 144 136 136 144 136 136 144 80 80 88 136 136 144 136 136 144 136 136 144 136 136 144 136 136 144 136 136 144 136 136 144 136 136 144 136 136 144 16 16 16 136 136 144 16 16 16 136 136 144 136 136 144 136 136 144 16 16 16 192 192 184 192 192 184 192 192 184 136 136 144 136 136 144 136 136 144 16 16 16 255 255 255 255 255 255 255 255 255 255 255 255 255 255 255 
255 255 255 255 255 255 255 255 255 255 255 255 255 255 255 255 255 255 255 255 255 255 255 255 255 255 255 255 255 255 255 255 255 80 80 88 192 192 184 192 192 184 192 192 184 192 192 184 192 192 184 192 192 184 192 192 184 192 192 184 192 192 184 136 136 144 136 136 144 16 16 16 224 80 56 224 80 56 160 48 16 16 16 16 136 136 144 16 16 16 80 80 88 136 136 144 136 136 144 136 136 144 136 136 144 80 80 88 192 192 184 192 192 184 192 192 184 136 136 144 136 136 144 136 136 144 136 136 144 136 136 144 136 136 144 80 80 88 136 136 144 136 136 144 16 16 16 136 136 144 136 136 144 16 16 16 192 192 184 192 192 184 192 192 184 136 136 144 136 136 144 136 136 144 16 16 16 255 255 255 255 255 255 255 255 255 255 255 255 255 255 255 
255 255 255 255 255 255 255 255 255 255 255 255 255 255 255 255 255 255 255 255 255 255 255 255 255 255 255 255 255 255 255 255 255 80 80 88 136 136 144 192 192 184 192 192 184 192 192 184 16 16 16 192 192 184 192 192 184 192 192 184 136 136 144 136 136 144 16 16 16 224 80 56 224 80 56 160 48 16 16 16 16 136 136 144 136 136 144 16 16 16 80 80 88 136 136 144 136 136 144 136 136 144 80 80 88 192 192 184 224 224 216 224 224 216 192 192 184 192 192 184 136 136 144 136 136 144 136 136 144 136 136 144 136 136 144 136 136 144 16 16 16 136 136 144 16 16 16 136 136 144 16 16 16 192 192 184 192 192 184 192 192 184 192 192 184 192 192 184 136 136 144 136 136 144 136 136 144 16 16 16 255 255 255 255 255 255 255 255 255 255 255 255 
255 255 255 255 255 255 255 255 255 255 255 255 255 255 255 255 255 255 255 255 255 255 255 255 255 255 255 255 255 255 80 80 88 192 192 184 80 80 88 192 192 184 192 192 184 80 80 88 192 192 184 192 192 184 136 136 144 136 136 144 136 136 144 16 16 16 160 48 16 224 80 56 224 80 56 160 48 16 16 16 16 136 136 144 16 16 16 80 80 88 80 80 88 136 136 144 136 136 144 136 136 144 16 16 16 192 192 184 224 224 216 224 224 216 192 192 184 192 192 184 192 192 184 136 136 144 136 136 144 136 136 144 136 136 144 136 136 144 16 16 16 136 136 144 16 16 16 16 16 16 16 16 16 192 192 184 192 192 184 192 192 184 192 192 184 136 136 144 136 136 144 136 136 144 136 136 144 16 16 16 255 255 255 255 255 255 255 255 255 255 255 255 
255 255 255 255 255 255 255 255 255 255 255 255 255 255 255 255 255 255 255 255 255 255 255 255 255 255 255 80 80 88 80 80 88 192 192 184 192 192 184 16 16 16 136 136 144 136 136 144 136 136 144 136 136 144 136 136 144 16 16 16 16 16 16 160 48 16 224 80 56 224 80 56 160 48 16 16 16 16 136 136 144 136 136 144 16 16 16 80 80 88 136 136 144 136 136 144 136 136 144 136 136 144 16 16 16 192 192 184 192 192 184 192 192 184 192 192 184 80 80 88 16 16 16 16 16 16 16 16 16 136 136 144 136 136 144 136 136 144 16 16 16 16 16 16 136 136 144 136 136 144 16 16 16 16 16 16 16 16 16 16 16 16 16 16 16 192 192 184 136 136 144 136 136 144 136 136 144 80 80 88 255 255 255 255 255 255 255 255 255 255 255 255 
255 255 255 255 255 255 255 255 255 255 255 255 255 255 255 255 255 255 255 255 255 255 255 255 80 80 88 192 192 184 80 80 88 192 192 184 192 192 184 192 192 184 16 16 16 16 16 16 16 16 16 16 16 16 16 16 16 192 192 184 112 32 16 112 32 16 16 16 16 16 16 16 16 16 16 136 136 144 136 136 144 16 16 16 80 80 88 80 80 88 136 136 144 136 136 144 136 136 144 136 136 144 16 16 16 192 192 184 192 192 184 16 16 16 80 80 88 136 136 144 80 80 88 80 80 88 80 80 88 16 16 16 136 136 144 136 136 144 16 16 16 16 16 16 136 136 144 136 136 144 136 136 144 16 16 16 136 136 144 136 136 144 16 16 16 80 80 88 80 80 88 136 136 144 136 136 144 136 136 144 80 80 88 255 255 255 255 255 255 255 255 255 
255 255 255 255 255 255 255 255 255 255 255 255 255 255 255 255 255 255 80 80 88 136 136 144 192 192 184 192 192 184 192 192 184 80 80 88 192 192 184 192 192 184 192 192 184 136 136 144 136 136 144 136 136 144 16 16 16 16 16 16 192 192 184 192 192 184 192 192 184 192 192 184 136 136 144 16 16 16 16 16 16 80 80 88 80 80 88 136 136 144 136 136 144 136 136 144 136 136 144 136 136 144 80 80 88 192 192 184 16 16 16 192 192 184 192 192 184 192 192 184 192 192 184 192 192 184 136 136 144 80 80 88 16 16 16 136 136 144 16 16 16 136 136 144 136 136 144 136 136 144 136 136 144 136 136 144 16 16 16 136 136 144 16 16 16 136 136 144 136 136 144 80 80 88 80 80 88 136 136 144 16 16 16 255 255 255 255 255 255 255 255 255 
255 255 255 255 255 255 255 255 255 255 255 255 255 255 255 80 80 88 192 192 184 192 192 184 192 192 184 192 192 184 192 192 184 192 192 184 16 16 16 16 16 16 80 80 88 136 136 144 136 136 144 136 136 144 16 16 16 224 224 216 80 80 88 16 16 16 16 16 16 16 16 16 16 16 16 136 136 144 136 136 144 136 136 144 136 136 144 136 136 144 136 136 144 136 136 144 136 136 144 136 136 144 80 80 88 16 16 16 192 192 184 192 192 184 192 192 184 192 192 184 192 192 184 192 192 184 192 192 184 136 136 144 16 16 16 136 136 144 16 16 16 136 136 144 136 136 144 136 136 144 136 136 144 136 136 144 16 16 16 136 136 144 16 16 16 192 192 184 136 136 144 136 136 144 136 136 144 80 80 88 16 16 16 255 255 255 255 255 255 255 255 255 
255 255 255 255 255 255 255 255 255 255 255 255 80 80 88 192 192 184 224 224 216 224 224 216 192 192 184 192 192 184 192 192 184 192 192 184 192 192 184 136 136 144 136 136 144 16 16 16 136 136 144 136 136 144 16 16 16 224 224 216 192 192 184 192 192 184 136 136 144 136 136 144 16 16 16 16 16 16 16 16 16 136 136 144 136 136 144 136 136 144 136 136 144 136 136 144 136 136 144 80 80 88 80 80 88 16 16 16 192 192 184 192 192 184 192 192 184 192 192 184 192 192 184 192 192 184 192 192 184 136 136 144 16 16 16 16 16 16 136 136 144 136 136 144 136 136 144 136 136 144 136 136 144 136 136 144 136 136 144 16 16 16 192 192 184 136 136 144 136 136 144 136 136 144 136 136 144 136 136 144 16 16 16 255 255 255 255 255 255 255 255 255 
255 255 255 255 255 255 255 255 255 80 80 88 192 192 184 224 224 216 224 224 216 192 192 184 192 192 184 192 192 184 192 192 184 192 192 184 136 136 144 136 136 144 136 136 144 136 136 144 16 16 16 16 16 16 16 16 16 224 224 216 192 192 184 192 192 184 136 136 144 16 16 16 176 160 112 176 160 112 176 160 112 16 16 16 136 136 144 136 136 144 136 136 144 136 136 144 80 80 88 80 80 88 16 16 16 192 192 184 192 192 184 192 192 184 192 192 184 192 192 184 192 192 184 192 192 184 136 136 144 136 136 144 16 16 16 136 136 144 16 16 16 16 16 16 16 16 16 16 16 16 136 136 144 136 136 144 136 136 144 16 16 16 136 136 144 136 136 144 136 136 144 136 136 144 136 136 144 136 136 144 80 80 88 16 16 16 255 255 255 255 255 255 
255 255 255 255 255 255 255 255 255 80 80 88 224 224 216 224 224 216 224 224 216 192 192 184 192 192 184 192 192 184 136 136 144 136 136 144 136 136 144 136 136 144 136 136 144 136 136 144 16 16 16 255 255 255 80 80 88 224 224 216 192 192 184 136 136 144 136 136 144 16 16 16 176 160 112 176 160 112 176 160 112 176 160 112 16 16 16 136 136 144 136 136 144 16 16 16 16 16 16 80 80 88 192 192 184 192 192 184 192 192 184 192 192 184 192 192 184 192 192 184 136 136 144 136 136 144 136 136 144 136 136 144 16 16 16 16 16 16 136 136 144 136 136 144 136 136 144 136 136 144 16 16 16 16 16 16 136 136 144 136 136 144 16 16 16 136 136 144 136 136 144 136 136 144 136 136 144 136 136 144 80 80 88 16 16 16 255 255 255 255 255 255 
255 255 255 255 255 255 80 80 88 192 192 184 224 224 216 224 224 216 192 192 184 192 192 184 136 136 144 136 136 144 136 136 144 136 136 144 136 136 144 136 136 144 136 136 144 80 80 88 255 255 255 255 255 255 80 80 88 224 224 216 192 192 184 136 136 144 16 16 16 176 160 112 176 160 112 248 232 192 248 232 192 176 160 112 176 160 112 16 16 16 16 16 16 136 136 144 192 192 184 224 224 216 224 224 216 224 224 216 192 192 184 192 192 184 192 192 184 136 136 144 136 136 144 136 136 144 136 136 144 16 16 16 136 136 144 136 136 144 136 136 144 136 136 144 136 136 144 136 136 144 136 136 144 136 136 144 16 16 16 136 136 144 16 16 16 136 136 144 136 136 144 136 136 144 136 136 144 136 136 144 80 80 88 16 16 16 255 255 255 255 255 255 
255 255 255 255 255 255 16 16 16 192 192 184 192 192 184 192 192 184 192 192 184 136 136 144 136 136 144 136 136 144 136 136 144 136 136 144 136 136 144 136 136 144 80 80 88 255 255 255 255 255 255 255 255 255 255 255 255 136 136 144 192 192 184 136 136 144 16 16 16 176 160 112 248 232 192 248 232 192 248 232 192 248 232 192 248 232 192 16 16 16 136 136 144 192 192 184 224 224 216 224 224 216 224 224 216 224 224 216 192 192 184 192 192 184 192 192 184 136 136 144 136 136 144 136 136 144 136 136 144 16 16 16 136 136 144 136 136 144 136 136 144 136 136 144 136 136 144 136 136 144 136 136 144 136 136 144 136 136 144 16 16 16 16 16 16 80 80 88 136 136 144 136 136 144 136 136 144 80 80 88 80 80 88 16 16 16 255 255 255 255 255 255 
255 255 255 255 255 255 16 16 16 80 80 88 80 80 88 192 192 184 192 192 184 136 136 144 136 136 144 136 136 144 136 136 144 136 136 144 136 136 144 136 136 144 16 16 16 255 255 255 255 255 255 255 255 255 255 255 255 80 80 88 136 136 144 136 136 144 16 16 16 176 160 112 248 232 192 248 232 192 248 232 192 80 80 88 80 80 88 16 16 16 192 192 184 224 224 216 224 224 216 224 224 216 224 224 216 192 192 184 192 192 184 192 192 184 136 136 144 136 136 144 136 136 144 136 136 144 16 16 16 136 136 144 136 136 144 136 136 144 136 136 144 136 136 144 136 136 144 136 136 144 136 136 144 136 136 144 136 136 144 136 136 144 16 16 16 80 80 88 136 136 144 136 136 144 80 80 88 136 136 144 80 80 88 16 16 16 255 255 255 255 255 255 
255 255 255 255 255 255 136 136 144 248 248 248 248 248 248 80 80 88 136 136 144 136 136 144 136 136 144 136 136 144 136 136 144 136 136 144 136 136 144 80 80 88 16 16 16 255 255 255 255 255 255 255 255 255 255 255 255 255 255 255 80 80 88 16 16 16 176 160 112 248 232 192 248 232 192 248 232 192 80 80 88 248 248 248 248 248 248 80 80 88 192 192 184 192 192 184 224 224 216 224 224 216 192 192 184 192 192 184 192 192 184 192 192 184 136 136 144 136 136 144 136 136 144 16 16 16 136 136 144 136 136 144 136 136 144 136 136 144 136 136 144 136 136 144 136 136 144 136 136 144 136 136 144 136 136 144 136 136 144 136 136 144 80 80 88 16 16 16 136 136 144 136 136 144 136 136 144 80 80 88 80 80 88 16 16 16 255 255 255 255 255 255 
255 255 255 255 255 255 136 136 144 248 248 248 248 248 248 248 248 248 16 16 16 136 136 144 136 136 144 136 136 144 136 136 144 80 80 88 80 80 88 16 16 16 255 255 255 255 255 255 255 255 255 255 255 255 255 255 255 255 255 255 255 255 255 16 16 16 176 160 112 248 232 192 248 232 192 248 232 192 248 232 192 80 80 88 248 248 248 248 248 248 16 16 16 192 192 184 192 192 184 192 192 184 192 192 184 192 192 184 192 192 184 192 192 184 136 136 144 136 136 144 136 136 144 16 16 16 136 136 144 136 136 144 136 136 144 192 192 184 192 192 184 192 192 184 136 136 144 136 136 144 136 136 144 136 136 144 136 136 144 136 136 144 136 136 144 16 16 16 80 80 88 136 136 144 80 80 88 136 136 144 80 80 88 16 16 16 255 255 255 255 255 255 
255 255 255 255 255 255 136 136 144 248 248 248 248 248 248 16 16 16 80 80 88 80 80 88 80 80 88 80 80 88 80 80 88 136 136 144 16 16 16 255 255 255 255 255 255 255 255 255 255 255 255 255 255 255 255 255 255 255 255 255 136 136 144 224 224 216 120 104 56 120 104 56 120 104 56 120 104 56 120 104 56 120 104 56 16 16 16 16 16 16 16 16 16 80 80 88 192 192 184 192 192 184 192 192 184 192 192 184 192 192 184 192 192 184 136 136 144 136 136 144 16 16 16 136 136 144 136 136 144 136 136 144 192 192 184 192 192 184 192 192 184 192 192 184 192 192 184 136 136 144 136 136 144 136 136 144 136 136 144 136 136 144 136 136 144 16 16 16 136 136 144 80 80 88 136 136 144 80 80 88 80 80 88 16 16 16 255 255 255 255 255 255 
255 255 255 255 255 255 255 255 255 136 136 144 248 248 248 16 16 16 80 80 88 248 248 248 248 248 248 16 16 16 16 16 16 248 248 248 16 16 16 255 255 255 255 255 255 255 255 255 255 255 255 255 255 255 255 255 255 255 255 255 80 80 88 224 224 216 120 104 56 224 208 168 248 232 192 248 232 192 248 232 192 248 232 192 224 208 168 80 80 88 248 248 248 80 80 88 192 192 184 192 192 184 192 192 184 192 192 184 192 192 184 136 136 144 136 136 144 80 80 88 16 16 16 136 136 144 136 136 144 192 192 184 192 192 184 192 192 184 192 192 184 192 192 184 192 192 184 136 136 144 136 136 144 136 136 144 136 136 144 136 136 144 136 136 144 16 16 16 80 80 88 136 136 144 80 80 88 80 80 88 16 16 16 255 255 255 255 255 255 255 255 255 
255 255 255 255 255 255 255 255 255 255 255 255 136 136 144 255 255 255 255 255 255 136 136 144 248 248 248 16 16 16 255 255 255 16 16 16 16 16 16 255 255 255 255 255 255 255 255 255 255 255 255 255 255 255 255 255 255 255 255 255 80 80 88 224 224 216 224 224 216 120 104 56 224 208 168 224 208 168 224 208 168 224 208 168 80 80 88 248 248 248 248 248 248 80 80 88 136 136 144 136 136 144 136 136 144 136 136 144 136 136 144 136 136 144 80 80 88 16 16 16 16 16 16 136 136 144 136 136 144 192 192 184 192 192 184 192 192 184 192 192 184 192 192 184 192 192 184 136 136 144 136 136 144 136 136 144 136 136 144 80 80 88 136 136 144 136 136 144 16 16 16 80 80 88 80 80 88 80 80 88 16 16 16 255 255 255 255 255 255 255 255 255 
255 255 255 255 255 255 255 255 255 255 255 255 255 255 255 255 255 255 255 255 255 255 255 255 136 136 144 16 16 16 255 255 255 255 255 255 255 255 255 255 255 255 255 255 255 255 255 255 255 255 255 255 255 255 255 255 255 255 255 255 80 80 88 224 224 216 224 224 216 120 104 56 224 208 168 224 208 168 224 208 168 224 208 168 224 208 168 80 80 88 80 80 88 16 16 16 16 16 16 136 136 144 136 136 144 136 136 144 136 136 144 80 80 88 16 16 16 176 160 112 16 16 16 136 136 144 136 136 144 192 192 184 192 192 184 192 192 184 192 192 184 192 192 184 192 192 184 136 136 144 136 136 144 136 136 144 136 136 144 80 80 88 136 136 144 136 136 144 16 16 16 80 80 88 80 80 88 16 16 16 255 255 255 255 255 255 255 255 255 255 255 255 
255 255 255 255 255 255 255 255 255 255 255 255 255 255 255 255 255 255 255 255 255 255 255 255 255 255 255 255 255 255 255 255 255 255 255 255 255 255 255 255 255 255 255 255 255 255 255 255 255 255 255 255 255 255 255 255 255 255 255 255 136 136 144 224 224 216 224 224 216 192 192 184 120 104 56 176 160 112 224 208 168 224 208 168 224 208 168 224 208 168 224 208 168 16 16 16 248 248 248 16 16 16 136 136 144 136 136 144 16 16 16 16 16 16 176 160 112 176 160 112 80 80 88 136 136 144 136 136 144 192 192 184 192 192 184 192 192 184 192 192 184 192 192 184 192 192 184 136 136 144 136 136 144 136 136 144 136 136 144 80 80 88 136 136 144 136 136 144 16 16 16 80 80 88 80 80 88 16 16 16 255 255 255 255 255 255 255 255 255 255 255 255 
255 255 255 255 255 255 255 255 255 255 255 255 255 255 255 255 255 255 255 255 255 255 255 255 255 255 255 255 255 255 255 255 255 255 255 255 255 255 255 255 255 255 255 255 255 255 255 255 255 255 255 255 255 255 255 255 255 255 255 255 255 255 255 80 80 88 192 192 184 192 192 184 136 136 144 120 104 56 120 104 56 120 104 56 120 104 56 120 104 56 120 104 56 16 16 16 16 16 16 16 16 16 16 16 16 16 16 16 176 160 112 176 160 112 176 160 112 176 160 112 176 160 112 80 80 88 136 136 144 192 192 184 192 192 184 192 192 184 192 192 184 192 192 184 192 192 184 136 136 144 136 136 144 136 136 144 136 136 144 80 80 88 136 136 144 136 136 144 16 16 16 80 80 88 16 16 16 255 255 255 255 255 255 255 255 255 255 255 255 255 255 255 
255 255 255 255 255 255 255 255 255 255 255 255 255 255 255 255 255 255 255 255 255 255 255 255 255 255 255 255 255 255 255 255 255 255 255 255 255 255 255 255 255 255 255 255 255 255 255 255 255 255 255 255 255 255 255 255 255 255 255 255 255 255 255 16 16 16 136 136 144 136 136 144 136 136 144 136 136 144 16 16 16 176 160 112 176 160 112 176 160 112 176 160 112 176 160 112 176 160 112 176 160 112 176 160 112 176 160 112 176 160 112 176 160 112 176 160 112 176 160 112 176 160 112 16 16 16 136 136 144 136 136 144 192 192 184 192 192 184 192 192 184 192 192 184 136 136 144 136 136 144 136 136 144 136 136 144 80 80 88 80 80 88 80 80 88 136 136 144 16 16 16 16 16 16 255 255 255 255 255 255 255 255 255 255 255 255 255 255 255 255 255 255 
255 255 255 255 255 255 255 255 255 255 255 255 255 255 255 255 255 255 255 255 255 255 255 255 255 255 255 255 255 255 255 255 255 255 255 255 255 255 255 255 255 255 255 255 255 255 255 255 255 255 255 255 255 255 255 255 255 255 255 255 255 255 255 255 255 255 16 16 16 136 136 144 136 136 144 136 136 144 136 136 144 16 16 16 16 16 16 176 160 112 176 160 112 176 160 112 176 160 112 176 160 112 176 160 112 176 160 112 176 160 112 176 160 112 176 160 112 120 104 56 120 104 56 80 80 88 136 136 144 136 136 144 136 136 144 136 136 144 136 136 144 136 136 144 136 136 144 136 136 144 136 136 144 80 80 88 80 80 88 80 80 88 80 80 88 16 16 16 16 16 16 255 255 255 255 255 255 255 255 255 255 255 255 255 255 255 255 255 255 255 255 255 
255 255 255 255 255 255 255 255 255 255 255 255 255 255 255 255 255 255 255 255 255 255 255 255 255 255 255 255 255 255 255 255 255 255 255 255 255 255 255 255 255 255 255 255 255 255 255 255 255 255 255 255 255 255 255 255 255 255 255 255 255 255 255 255 255 255 255 255 255 16 16 16 80 80 88 136 136 144 136 136 144 136 136 144 136 136 144 16 16 16 16 16 16 120 104 56 120 104 56 120 104 56 120 104 56 120 104 56 120 104 56 120 104 56 120 104 56 176 160 112 176 160 112 176 160 112 16 16 16 136 136 144 136 136 144 80 80 88 80 80 88 80 80 88 80 80 88 80 80 88 80 80 88 80 80 88 80 80 88 80 80 88 80 80 88 16 16 16 255 255 255 255 255 255 255 255 255 255 255 255 255 255 255 255 255 255 255 255 255 255 255 255 
255 255 255 255 255 255 255 255 255 255 255 255 255 255 255 255 255 255 255 255 255 255 255 255 255 255 255 255 255 255 255 255 255 255 255 255 255 255 255 255 255 255 255 255 255 255 255 255 255 255 255 255 255 255 255 255 255 255 255 255 255 255 255 255 255 255 255 255 255 255 255 255 255 255 255 80 80 88 80 80 88 80 80 88 16 16 16 16 16 16 16 16 16 16 16 16 16 16 16 120 104 56 176 160 112 176 160 112 176 160 112 176 160 112 176 160 112 176 160 112 176 160 112 16 16 16 16 16 16 16 16 16 16 16 16 80 80 88 80 80 88 80 80 88 80 80 88 80 80 88 80 80 88 80 80 88 16 16 16 80 80 88 80 80 88 16 16 16 255 255 255 255 255 255 255 255 255 255 255 255 255 255 255 255 255 255 255 255 255 255 255 255 
255 255 255 255 255 255 255 255 255 255 255 255 255 255 255 255 255 255 255 255 255 255 255 255 255 255 255 255 255 255 255 255 255 255 255 255 255 255 255 255 255 255 255 255 255 255 255 255 255 255 255 255 255 255 255 255 255 255 255 255 255 255 255 255 255 255 255 255 255 255 255 255 255 255 255 16 16 16 136 136 144 136 136 144 136 136 144 136 136 144 136 136 144 136 136 144 136 136 144 136 136 144 16 16 16 16 16 16 16 16 16 16 16 16 16 16 16 16 16 16 16 16 16 255 255 255 255 255 255 16 16 16 136 136 144 16 16 16 16 16 16 16 16 16 16 16 16 16 16 16 16 16 16 16 16 16 136 136 144 136 136 144 80 80 88 80 80 88 16 16 16 255 255 255 255 255 255 255 255 255 255 255 255 255 255 255 255 255 255 255 255 255 
255 255 255 255 255 255 255 255 255 255 255 255 255 255 255 255 255 255 255 255 255 255 255 255 255 255 255 255 255 255 255 255 255 255 255 255 255 255 255 255 255 255 255 255 255 255 255 255 255 255 255 255 255 255 255 255 255 255 255 255 255 255 255 255 255 255 255 255 255 255 255 255 255 255 255 80 80 88 16 16 16 16 16 16 136 136 144 136 136 144 16 16 16 16 16 16 16 16 16 136 136 144 136 136 144 136 136 144 16 16 16 255 255 255 255 255 255 255 255 255 255 255 255 255 255 255 16 16 16 136 136 144 136 136 144 136 136 144 136 136 144 136 136 144 136 136 144 136 136 144 136 136 144 136 136 144 136 136 144 136 136 144 136 136 144 80 80 88 16 16 16 255 255 255 255 255 255 255 255 255 255 255 255 255 255 255 255 255 255 255 255 255 
255 255 255 255 255 255 255 255 255 255 255 255 255 255 255 255 255 255 255 255 255 255 255 255 255 255 255 255 255 255 255 255 255 255 255 255 255 255 255 255 255 255 255 255 255 255 255 255 255 255 255 255 255 255 255 255 255 255 255 255 255 255 255 255 255 255 255 255 255 255 255 255 136 136 144 248 248 248 248 248 248 192 192 184 16 16 16 80 80 88 248 248 248 248 248 248 248 248 248 16 16 16 136 136 144 16 16 16 16 16 16 255 255 255 255 255 255 255 255 255 255 255 255 255 255 255 16 16 16 192 192 184 192 192 184 192 192 184 192 192 184 192 192 184 192 192 184 136 136 144 136 136 144 136 136 144 136 136 144 136 136 144 136 136 144 80 80 88 16 16 16 255 255 255 255 255 255 255 255 255 255 255 255 255 255 255 255 255 255 255 255 255 
255 255 255 255 255 255 255 255 255 255 255 255 255 255 255 255 255 255 255 255 255 255 255 255 255 255 255 255 255 255 255 255 255 255 255 255 255 255 255 255 255 255 255 255 255 255 255 255 255 255 255 255 255 255 255 255 255 255 255 255 255 255 255 255 255 255 255 255 255 136 136 144 248 248 248 248 248 248 192 192 184 16 16 16 16 16 16 80 80 88 248 248 248 248 248 248 192 192 184 16 16 16 16 16 16 16 16 16 255 255 255 255 255 255 255 255 255 255 255 255 255 255 255 136 136 144 224 224 216 80 80 88 80 80 88 192 192 184 192 192 184 192 192 184 192 192 184 80 80 88 80 80 88 80 80 88 136 136 144 136 136 144 136 136 144 80 80 88 16 16 16 255 255 255 255 255 255 255 255 255 255 255 255 255 255 255 255 255 255 255 255 255 
255 255 255 255 255 255 255 255 255 255 255 255 255 255 255 255 255 255 255 255 255 255 255 255 255 255 255 255 255 255 255 255 255 255 255 255 255 255 255 255 255 255 255 255 255 255 255 255 255 255 255 255 255 255 255 255 255 255 255 255 255 255 255 255 255 255 255 255 255 16 16 16 16 16 16 16 16 16 16 16 16 255 255 255 255 255 255 80 80 88 192 192 184 16 16 16 16 16 16 255 255 255 255 255 255 255 255 255 255 255 255 255 255 255 255 255 255 255 255 255 136 136 144 248 248 248 248 248 248 248 248 248 192 192 184 80 80 88 192 192 184 192 192 184 80 80 88 248 248 248 248 248 248 248 248 248 16 16 16 136 136 144 136 136 144 16 16 16 255 255 255 255 255 255 255 255 255 255 255 255 255 255 255 255 255 255 255 255 255 255 255 255 
255 255 255 255 255 255 255 255 255 255 255 255 255 255 255 255 255 255 255 255 255 255 255 255 255 255 255 255 255 255 255 255 255 255 255 255 255 255 255 255 255 255 255 255 255 255 255 255 255 255 255 255 255 255 255 255 255 255 255 255 255 255 255 255 255 255 255 255 255 255 255 255 255 255 255 255 255 255 255 255 255 255 255 255 255 255 255 80 80 88 16 16 16 255 255 255 255 255 255 255 255 255 255 255 255 255 255 255 255 255 255 255 255 255 255 255 255 136 136 144 248 248 248 248 248 248 248 248 248 192 192 184 192 192 184 16 16 16 136 136 144 80 80 88 248 248 248 248 248 248 192 192 184 192 192 184 192 192 184 16 16 16 16 16 16 255 255 255 255 255 255 255 255 255 255 255 255 255 255 255 255 255 255 255 255 255 255 255 255 255 255 255 
255 255 255 255 255 255 255 255 255 255 255 255 255 255 255 255 255 255 255 255 255 255 255 255 255 255 255 255 255 255 255 255 255 255 255 255 255 255 255 255 255 255 255 255 255 255 255 255 255 255 255 255 255 255 255 255 255 255 255 255 255 255 255 255 255 255 255 255 255 255 255 255 255 255 255 255 255 255 255 255 255 255 255 255 255 255 255 255 255 255 255 255 255 255 255 255 255 255 255 255 255 255 255 255 255 255 255 255 255 255 255 255 255 255 255 255 255 80 80 88 80 80 88 16 16 16 16 16 16 16 16 16 16 16 16 16 16 16 16 16 16 80 80 88 192 192 184 192 192 184 192 192 184 16 16 16 16 16 16 255 255 255 255 255 255 255 255 255 255 255 255 255 255 255 255 255 255 255 255 255 255 255 255 255 255 255 255 255 255 255 255 255 
255 255 255 255 255 255 255 255 255 255 255 255 255 255 255 255 255 255 255 255 255 255 255 255 255 255 255 255 255 255 255 255 255 255 255 255 255 255 255 255 255 255 255 255 255 255 255 255 255 255 255 255 255 255 255 255 255 255 255 255 255 255 255 255 255 255 255 255 255 255 255 255 255 255 255 255 255 255 255 255 255 255 255 255 255 255 255 255 255 255 255 255 255 255 255 255 255 255 255 255 255 255 255 255 255 255 255 255 255 255 255 255 255 255 255 255 255 255 255 255 255 255 255 255 255 255 255 255 255 255 255 255 255 255 255 255 255 255 255 255 255 16 16 16 16 16 16 16 16 16 16 16 16 255 255 255 255 255 255 255 255 255 255 255 255 255 255 255 255 255 255 255 255 255 255 255 255 255 255 255 255 255 255 255 255 255 255 255 255 255 255 255 
255 255 255 255 255 255 255 255 255 255 255 255 255 255 255 255 255 255 255 255 255 255 255 255 255 255 255 255 255 255 255 255 255 255 255 255 255 255 255 255 255 255 255 255 255 255 255 255 255 255 255 255 255 255 255 255 255 255 255 255 255 255 255 255 255 255 255 255 255 255 255 255 255 255 255 255 255 255 255 255 255 255 255 255 255 255 255 255 255 255 255 255 255 255 255 255 255 255 255 255 255 255 255 255 255 255 255 255 255 255 255 255 255 255 255 255 255 255 255 255 255 255 255 255 255 255 255 255 255 255 255 255 255 255 255 255 255 255 255 255 255 255 255 255 255 255 255 255 255 255 255 255 255 255 255 255 255 255 255 255 255 255 255 255 255 255 255 255 255 255 255 255 255 255 255 255 255 255 255 255 255 255 255 255 255 255 255 255 255 255 255 255 
255 255 255 255 255 255 255 255 255 255 255 255 255 255 255 255 255 255 255 255 255 255 255 255 255 255 255 255 255 255 255 255 255 255 255 255 255 255 255 255 255 255 255 255 255 255 255 255 255 255 255 255 255 255 255 255 255 255 255 255 255 255 255 255 255 255 255 255 255 255 255 255 255 255 255 255 255 255 255 255 255 255 255 255 255 255 255 255 255 255 255 255 255 255 255 255 255 255 255 255 255 255 255 255 255 255 255 255 255 255 255 255 255 255 255 255 255 255 255 255 255 255 255 255 255 255 255 255 255 255 255 255 255 255 255 255 255 255 255 255 255 255 255 255 255 255 255 255 255 255 255 255 255 255 255 255 255 255 255 255 255 255 255 255 255 255 255 255 255 255 255 255 255 255 255 255 255 255 255 255 255 255 255 255 255 255 255 255 255 255 255 255 
