P3
64 64
255
255 255 255 255 255 255 255 255 255 255 255 255 255 255 255 255 255 255 255 255 255 255 255 255 255 255 255 255 255 255 255 255 255 255 255 255 255 255 255 255 255 255 255 255 255 255 255 255 255 255 255 255 255 255 255 255 255 255 255 255 255 255 255 255 255 255 255 255 255 255 255 255 255 255 255 255 255 255 255 255 255 255 255 255 255 255 255 255 255 255 255 255 255 255 255 255 255 255 255 255 255 255 255 255 255 255 255 255 255 255 255 255 255 255 255 255 255 255 255 255 255 255 255 255 255 255 255 255 255 255 255 255 255 255 255 255 255 255 255 255 255 255 255 255 255 255 255 255 255 255 255 255 255 255 255 255 255 255 255 255 255 255 255 255 255 255 255 255 255 255 255 255 255 255 255 255 255 255 255 255 255 255 255 255 255 255 255 255 255 255 255 255 
255 255 255 255 255 255 255 255 255 255 255 255 255 255 255 255 255 255 255 255 255 255 255 255 255 255 255 255 255 255 255 255 255 255 255 255 255 255 255 255 255 255 255 255 255 255 255 255 255 255 255 255 255 255 255 255 255 255 255 255 255 255 255 255 255 255 255 255 255 255 255 255 255 255 255 255 255 255 255 255 255 255 255 255 255 255 255 255 255 255 255 255 255 255 255 255 255 255 255 255 255 255 255 255 255 255 255 255 255 255 255 255 255 255 255 255 255 255 255 255 255 255 255 255 255 255 255 255 255 255 255 255 255 255 255 255 255 255 255 255 255 255 255 255 255 255 255 255 255 255 255 255 255 255 255 255 255 255 255 255 255 255 255 255 255 255 255 255 255 255 255 255 255 255 255 255 255 255 255 255 255 255 255 255 255 255 255 255 255 255 255 255 
255 255 255 255 255 255 255 255 255 255 255 255 255 255 255 255 255 255 255 255 255 255 255 255 255 255 255 255 255 255 255 255 255 255 255 255 255 255 255 255 255 255 255 255 255 255 255 255 255 255 255 255 255 255 255 255 255 255 255 255 255 255 255 255 255 255 255 255 255 255 255 255 255 255 255 255 255 255 255 255 255 255 255 255 255 255 255 255 255 255 255 255 255 255 255 255 255 255 255 255 255 255 255 255 255 255 255 255 255 255 255 255 255 255 255 255 255 255 255 255 255 255 255 255 255 255 255 255 255 255 255 255 255 255 255 255 255 255 255 255 255 255 255 255 255 255 255 255 255 255 255 255 255 255 255 255 255 255 255 255 255 255 255 255 255 255 255 255 255 255 255 255 255 255 255 255 255 255 255 255 255 255 255 255 255 255 255 255 255 255 255 255 
255 255 255 255 255 255 255 255 255 255 255 255 255 255 255 255 255 255 255 255 255 255 255 255 255 255 255 255 255 255 255 255 255 255 255 255 255 255 255 255 255 255 255 255 255 255 255 255 255 255 255 255 255 255 255 255 255 255 255 255 255 255 255 255 255 255 255 255 255 255 255 255 255 255 255 255 255 255 255 255 255 255 255 255 255 255 255 255 255 255 255 255 255 255 255 255 255 255 255 255 255 255 255 255 255 255 255 255 255 255 255 255 255 255 255 255 255 255 255 255 255 255 255 255 255 255 255 255 255 255 255 255 255 255 255 255 255 255 255 255 255 255 255 255 255 255 255 255 255 255 255 255 255 255 255 255 255 255 255 255 255 255 255 255 255 255 255 255 255 255 255 255 255 255 255 255 255 255 255 255 255 255 255 255 255 255 255 255 255 255 255 255 
255 255 255 255 255 255 255 255 255 255 255 255 255 255 255 255 255 255 255 255 255 255 255 255 255 255 255 255 255 255 255 255 255 255 255 255 255 255 255 255 255 255 255 255 255 255 255 255 255 255 255 255 255 255 255 255 255 255 255 255 255 255 255 255 255 255 255 255 255 255 255 255 255 255 255 255 255 255 255 255 255 255 255 255 255 255 255 255 255 255 255 255 255 255 255 255 255 255 255 255 255 255 255 255 255 255 255 255 255 255 255 255 255 255 255 255 255 255 255 255 255 255 255 255 255 255 255 255 255 255 255 255 255 255 255 255 255 255 255 255 255 255 255 255 255 255 255 255 255 255 255 255 255 255 255 255 255 255 255 255 255 255 255 255 255 255 255 255 255 255 255 255 255 255 255 255 255 255 255 255 255 255 255 255 255 255 255 255 255 255 255 255 
255 255 255 255 255 255 255 255 255 255 255 255 255 255 255 255 255 255 255 255 255 255 255 255 255 255 255 255 255 255 255 255 255 255 255 255 255 255 255 255 255 255 255 255 255 255 255 255 255 255 255 255 255 255 255 255 255 255 255 255 255 255 255 255 255 255 255 255 255 255 255 255 255 255 255 255 255 255 255 255 255 255 255 255 255 255 255 255 255 255 255 255 255 255 255 255 255 255 255 255 255 255 255 255 255 255 255 255 255 255 255 255 255 255 255 255 255 255 255 255 255 255 255 255 255 255 255 255 255 255 255 255 255 255 255 255 255 255 255 255 255 255 255 255 255 255 255 255 255 255 255 255 255 255 255 255 255 255 255 255 255 255 255 255 255 255 255 255 255 255 255 255 255 255 255 255 255 255 255 255 255 255 255 255 255 255 255 255 255 255 255 255 
255 255 255 255 255 255 255 255 255 255 255 255 255 255 255 255 255 255 255 255 255 255 255 255 255 255 255 255 255 255 255 255 255 255 255 255 255 255 255 255 255 255 255 255 255 255 255 255 255 255 255 255 255 255 255 255 255 255 255 255 255 255 255 255 255 255 255 255 255 255 255 255 255 255 255 255 255 255 255 255 255 255 255 255 255 255 255 255 255 255 255 255 255 255 255 255 255 255 255 255 255 255 255 255 255 255 255 255 255 255 255 255 255 255 255 255 255 255 255 255 255 255 255 255 255 255 255 255 255 255 255 255 255 255 255 255 255 255 255 255 255 255 255 255 255 255 255 255 255 255 255 255 255 255 255 255 255 255 255 255 255 255 255 255 255 255 255 255 255 255 255 255 255 255 255 255 255 255 255 255 255 255 255 255 255 255 255 255 255 255 255 255 
255 255 255 255 255 255 255 255 255 255 255 255 255 255 255 255 255 255 255 255 255 255 255 255 255 255 255 255 255 255 255 255 255 255 255 255 255 255 255 255 255 255 255 255 255 208 72 96 208 72 96 208 72 96 208 72 96 208 72 96 255 255 255 255 255 255 255 255 255 255 255 255 255 255 255 255 255 255 255 255 255 255 255 255 255 255 255 255 255 255 255 255 255 255 255 255 255 255 255 255 255 255 255 255 255 255 255 255 255 255 255 255 255 255 255 255 255 255 255 255 255 255 255 255 255 255 208 72 96 208 72 96 208 72 96 184 32 48 255 255 255 255 255 255 255 255 255 255 255 255 255 255 255 255 255 255 255 255 255 255 255 255 255 255 255 255 255 255 255 255 255 255 255 255 255 255 255 255 255 255 255 255 255 255 255 255 255 255 255 255 255 255 
255 255 255 255 255 255 255 255 255 255 255 255 255 255 255 255 255 255 255 255 255 255 255 255 255 255 255 255 255 255 255 255 255 255 255 255 255 255 255 208 72 96 208 72 96 248 208 216 232 120 152 232 120 152 232 120 152 232 120 152 184 32 48 184 32 48 184 32 48 184 32 48 184 32 48 255 255 255 255 255 255 232 120 152 232 120 152 232 120 152 208 72 96 208 72 96 208 72 96 184 32 48 184 32 48 184 32 48 255 255 255 255 255 255 255 255 255 255 255 255 208 72 96 208 72 96 248 208 216 248 208 216 248 208 216 248 208 216 184 32 48 184 32 48 255 255 255 255 255 255 255 255 255 255 255 255 255 255 255 255 255 255 255 255 255 255 255 255 255 255 255 255 255 255 255 255 255 255 255 255 255 255 255 255 255 255 255 255 255 255 255 255 
255 255 255 255 255 255 255 255 255 255 255 255 255 255 255 255 255 255 255 255 255 255 255 255 255 255 255 255 255 255 255 255 255 255 255 255 232 120 152 248 208 216 248 208 216 248 208 216 248 168 192 248 168 192 232 120 152 232 120 152 232 120 152 184 32 48 208 72 96 232 120 152 232 120 152 184 32 48 232 120 152 248 168 192 248 168 192 248 168 192 248 168 192 248 168 192 248 168 192 248 168 192 232 120 152 232 120 152 184 32 48 184 32 48 255 255 255 184 32 48 248 208 216 248 208 216 248 208 216 248 208 216 248 208 216 248 208 216 248 208 216 232 120 152 184 32 48 184 32 48 255 255 255 255 255 255 255 255 255 255 255 255 255 255 255 255 255 255 255 255 255 255 255 255 255 255 255 255 255 255 255 255 255 255 255 255 255 255 255 255 255 255 
255 255 255 255 255 255 255 255 255 255 255 255 255 255 255 255 255 255 255 255 255 255 255 255 255 255 255 255 255 255 255 255 255 232 120 152 248 208 216 248 208 216 248 208 216 248 168 192 248 168 192 248 168 192 248 168 192 232 120 152 232 120 152 232 120 152 208 72 96 184 32 48 184 32 48 248 168 192 248 168 192 248 168 192 248 168 192 248 168 192 248 168 192 248 168 192 248 168 192 248 168 192 248 168 192 248 168 192 232 120 152 232 120 152 184 32 48 248 208 216 248 208 216 248 208 216 248 208 216 248 208 216 248 208 216 248 168 192 248 168 192 248 168 192 232 120 152 232 120 152 184 32 48 255 255 255 255 255 255 255 255 255 255 255 255 255 255 255 255 255 255 255 255 255 255 255 255 255 255 255 255 255 255 255 255 255 255 255 255 255 255 255 
255 255 255 255 255 255 255 255 255 255 255 255 255 255 255 255 255 255 255 255 255 255 255 255 255 255 255 255 255 255 232 120 152 248 208 216 248 208 216 248 208 216 248 208 216 248 168 192 248 168 192 248 168 192 248 168 192 248 168 192 232 120 152 232 120 152 184 32 48 232 120 152 248 208 216 248 208 216 248 208 216 248 168 192 248 168 192 248 168 192 248 168 192 248 168 192 248 168 192 248 168 192 248 168 192 248 168 192 248 168 192 248 168 192 248 168 192 248 208 216 248 208 216 248 208 216 248 208 216 248 208 216 248 168 192 248 168 192 248 168 192 248 168 192 248 168 192 232 120 152 232 120 152 184 32 48 255 255 255 255 255 255 255 255 255 255 255 255 255 255 255 255 255 255 255 255 255 255 255 255 255 255 255 255 255 255 255 255 255 255 255 255 
255 255 255 255 255 255 255 255 255 255 255 255 255 255 255 255 255 255 255 255 255 255 255 255 255 255 255 255 255 255 232 120 152 248 208 216 248 208 216 248 208 216 248 168 192 248 168 192 248 168 192 248 168 192 248 168 192 248 168 192 232 120 152 208 72 96 248 168 192 248 208 216 248 208 216 248 208 216 248 208 216 248 208 216 248 168 192 248 168 192 248 168 192 248 168 192 248 168 192 248 168 192 248 168 192 248 168 192 248 168 192 248 168 192 248 168 192 248 168 192 248 208 216 248 208 216 248 168 192 248 168 192 248 168 192 248 168 192 248 168 192 248 168 192 248 168 192 232 120 152 232 120 152 16 16 16 255 255 255 255 255 255 255 255 255 255 255 255 255 255 255 255 255 255 255 255 255 255 255 255 255 255 255 255 255 255 255 255 255 255 255 255 
255 255 255 255 255 255 255 255 255 255 255 255 255 255 255 255 255 255 255 255 255 255 255 255 255 255 255 232 120 152 248 208 216 248 208 216 248 208 216 248 168 192 248 168 192 248 168 192 248 168 192 248 168 192 248 168 192 248 168 192 248 168 192 248 168 192 248 208 216 248 208 216 248 208 216 248 208 216 248 208 216 248 208 216 248 168 192 248 168 192 248 168 192 248 168 192 248 168 192 248 168 192 248 168 192 248 168 192 248 168 192 248 168 192 248 168 192 248 168 192 248 168 192 248 168 192 248 168 192 248 168 192 248 168 192 248 168 192 248 168 192 248 168 192 248 168 192 232 120 152 232 120 152 232 120 152 16 16 16 255 255 255 255 255 255 255 255 255 255 255 255 255 255 255 255 255 255 255 255 255 255 255 255 255 255 255 255 255 255 255 255 255 
255 255 255 255 255 255 255 255 255 255 255 255 255 255 255 255 255 255 255 255 255 255 255 255 255 255 255 208 72 96 248 208 216 248 168 192 248 168 192 248 168 192 208 72 96 208 72 96 248 168 192 248 168 192 248 168 192 248 168 192 248 168 192 248 208 216 248 208 216 248 208 216 248 208 216 248 208 216 248 248 248 248 208 216 248 168 192 248 168 192 248 248 248 248 168 192 248 168 192 248 168 192 248 168 192 248 168 192 248 168 192 248 168 192 248 168 192 248 168 192 248 168 192 248 168 192 248 168 192 248 168 192 208 72 96 208 72 96 248 168 192 248 168 192 232 120 152 232 120 152 232 120 152 232 120 152 16 16 16 255 255 255 255 255 255 255 255 255 255 255 255 255 255 255 255 255 255 255 255 255 255 255 255 255 255 255 255 255 255 255 255 255 
255 255 255 255 255 255 255 255 255 255 255 255 255 255 255 255 255 255 255 255 255 255 255 255 255 255 255 208 72 96 248 168 192 248 168 192 248 168 192 208 72 96 248 208 216 248 208 216 248 168 192 248 168 192 248 168 192 208 72 96 248 168 192 248 208 216 248 208 216 248 208 216 248 208 216 248 208 216 16 16 16 248 168 192 248 168 192 248 168 192 16 16 16 248 168 192 248 168 192 248 168 192 248 168 192 248 168 192 248 168 192 248 168 192 248 168 192 248 168 192 248 168 192 248 168 192 248 168 192 248 168 192 248 168 192 248 168 192 208 72 96 232 120 152 232 120 152 232 120 152 232 120 152 232 120 152 16 16 16 184 32 48 255 255 255 255 255 255 255 255 255 255 255 255 255 255 255 255 255 255 255 255 255 255 255 255 255 255 255 255 255 255 
255 255 255 255 255 255 255 255 255 255 255 255 255 255 255 255 255 255 255 255 255 255 255 255 255 255 255 208 72 96 248 168 192 248 168 192 208 72 96 248 208 216 248 208 216 248 208 216 248 168 192 248 168 192 184 32 48 248 168 192 248 168 192 248 208 216 248 208 216 248 208 216 248 208 216 248 208 216 16 16 16 248 168 192 248 168 192 248 168 192 16 16 16 248 168 192 248 168 192 248 168 192 248 168 192 248 168 192 248 168 192 248 168 192 248 168 192 248 168 192 248 168 192 248 168 192 248 168 192 248 168 192 248 168 192 248 168 192 232 120 152 184 32 48 232 120 152 232 120 152 232 120 152 232 120 152 16 16 16 208 72 96 184 32 48 255 255 255 255 255 255 255 255 255 255 255 255 255 255 255 255 255 255 255 255 255 255 255 255 255 255 255 
255 255 255 255 255 255 255 255 255 255 255 255 255 255 255 255 255 255 255 255 255 255 255 255 255 255 255 208 72 96 248 168 192 248 168 192 208 72 96 248 208 216 248 168 192 248 168 192 248 168 192 184 32 48 248 168 192 248 168 192 248 168 192 248 168 192 248 208 216 248 208 216 248 168 192 248 168 192 248 168 192 248 168 192 248 168 192 248 168 192 248 168 192 248 168 192 248 168 192 248 168 192 248 168 192 248 168 192 248 168 192 248 168 192 248 168 192 248 168 192 248 168 192 248 168 192 208 72 96 208 72 96 248 168 192 248 168 192 232 120 152 184 32 48 232 120 152 232 120 152 232 120 152 232 120 152 16 16 16 208 72 96 184 32 48 255 255 255 255 255 255 255 255 255 255 255 255 255 255 255 255 255 255 255 255 255 255 255 255 255 255 255 
255 255 255 255 255 255 255 255 255 255 255 255 255 255 255 255 255 255 255 255 255 255 255 255 255 255 255 255 255 255 184 32 48 248 168 192 208 72 96 248 168 192 248 168 192 208 72 96 208 72 96 184 32 48 248 168 192 248 168 192 248 168 192 248 168 192 248 168 192 248 168 192 248 168 192 232 120 152 16 16 16 16 16 16 16 16 16 168 16 32 232 120 152 248 168 192 248 168 192 248 168 192 248 168 192 248 168 192 248 168 192 248 168 192 248 168 192 248 168 192 248 168 192 184 32 48 248 208 216 248 208 216 248 168 192 232 120 152 232 120 152 184 32 48 232 120 152 232 120 152 232 120 152 184 32 48 208 72 96 208 72 96 16 16 16 255 255 255 255 255 255 255 255 255 255 255 255 255 255 255 255 255 255 255 255 255 255 255 255 255 255 255 
255 255 255 255 255 255 255 255 255 255 255 255 255 255 255 255 255 255 255 255 255 255 255 255 255 255 255 255 255 255 255 255 255 184 32 48 184 32 48 248 168 192 248 168 192 232 120 152 184 32 48 248 168 192 248 168 192 248 168 192 248 168 192 248 168 192 248 168 192 248 168 192 248 168 192 248 168 192 16 16 16 168 16 32 208 72 96 168 16 32 232 120 152 248 168 192 248 168 192 248 168 192 248 168 192 248 168 192 248 168 192 248 168 192 248 168 192 248 168 192 248 168 192 184 32 48 248 208 216 248 168 192 232 120 152 232 120 152 232 120 152 184 32 48 232 120 152 232 120 152 208 72 96 16 16 16 208 72 96 208 72 96 16 16 16 255 255 255 255 255 255 255 255 255 255 255 255 255 255 255 255 255 255 255 255 255 255 255 255 255 255 255 
255 255 255 255 255 255 255 255 255 255 255 255 255 255 255 255 255 255 255 255 255 255 255 255 255 255 255 255 255 255 255 255 255 255 255 255 184 32 48 208 72 96 232 120 152 232 120 152 184 32 48 248 168 192 248 168 192 248 168 192 248 168 192 248 168 192 248 168 192 248 168 192 248 168 192 248 168 192 232 120 152 208 72 96 208 72 96 168 16 32 248 168 192 248 168 192 248 168 192 248 168 192 248 168 192 248 168 192 248 168 192 248 168 192 248 168 192 248 168 192 248 168 192 184 32 48 232 120 152 232 120 152 232 120 152 232 120 152 16 16 16 208 72 96 208 72 96 208 72 96 16 16 16 208 72 96 208 72 96 16 16 16 255 255 255 255 255 255 255 255 255 255 255 255 255 255 255 255 255 255 255 255 255 255 255 255 255 255 255 255 255 255 
255 255 255 255 255 255 255 255 255 255 255 255 255 255 255 255 255 255 255 255 255 255 255 255 255 255 255 255 255 255 255 255 255 255 255 255 255 255 255 184 32 48 184 32 48 102 102 102 248 168 192 248 168 192 248 168 192 248 168 192 248 168 192 248 168 192 248 168 192 248 168 192 248 168 192 248 168 192 232 120 152 208 72 96 208 72 96 232 120 152 248 168 192 248 168 192 248 168 192 248 168 192 248 168 192 248 168 192 248 168 192 248 168 192 248 168 192 248 168 192 248 168 192 248 168 192 184 32 48 16 16 16 16 16 16 16 16 16 208 72 96 208 72 96 208 72 96 16 16 16 208 72 96 16 16 16 16 16 16 255 255 255 255 255 255 255 255 255 255 255 255 255 255 255 255 255 255 255 255 255 255 255 255 255 255 255 255 255 255 255 255 255 
255 255 255 255 255 255 255 255 255 255 255 255 255 255 255 255 255 255 255 255 255 255 255 255 255 255 255 255 255 255 255 255 255 255 255 255 255 255 255 255 255 255 255 255 255 102 102 102 248 168 192 248 168 192 248 168 192 248 168 192 248 168 192 248 168 192 248 168 192 248 168 192 248 168 192 248 168 192 248 168 192 168 16 32 168 16 32 248 168 192 248 168 192 248 168 192 248 168 192 248 168 192 248 168 192 248 168 192 248 168 192 248 168 192 248 168 192 248 168 192 248 168 192 248 168 192 232 120 152 232 120 152 232 120 152 232 120 152 184 32 48 16 16 16 16 16 16 16 16 16 16 16 16 255 255 255 255 255 255 255 255 255 255 255 255 255 255 255 255 255 255 255 255 255 255 255 255 255 255 255 255 255 255 255 255 255 255 255 255 255 255 255 
255 255 255 255 255 255 255 255 255 255 255 255 255 255 255 255 255 255 255 255 255 255 255 255 176 176 176 176 176 176 176 176 176 176 176 176 208 72 96 208 72 96 232 120 152 248 168 192 248 168 192 248 168 192 248 168 192 248 168 192 248 168 192 248 168 192 248 168 192 248 168 192 248 168 192 248 168 192 248 168 192 248 168 192 248 168 192 248 168 192 248 168 192 248 168 192 248 168 192 248 168 192 248 168 192 248 168 192 248 168 192 248 168 192 248 168 192 248 168 192 248 168 192 232 120 152 102 102 102 102 102 102 232 120 152 232 120 152 232 120 152 102 102 102 102 102 102 102 102 102 102 102 102 102 102 102 255 255 255 255 255 255 255 255 255 255 255 255 255 255 255 255 255 255 255 255 255 255 255 255 255 255 255 255 255 255 255 255 255 255 255 255 
255 255 255 255 255 255 255 255 255 255 255 255 255 255 255 255 255 255 255 255 255 176 176 176 248 248 248 248 248 248 248 248 248 208 72 96 248 208 216 248 168 192 208 72 96 248 248 248 248 208 216 248 168 192 248 168 192 248 168 192 248 168 192 248 168 192 248 168 192 248 168 192 248 168 192 248 168 192 248 168 192 248 168 192 248 168 192 248 168 192 248 168 192 248 168 192 248 168 192 248 168 192 248 168 192 248 168 192 248 168 192 248 168 192 248 168 192 248 168 192 184 32 48 232 120 152 248 208 216 232 120 152 102 102 102 208 72 96 176 176 176 216 216 216 216 216 216 216 216 216 216 216 216 216 216 216 16 16 16 255 255 255 255 255 255 255 255 255 255 255 255 255 255 255 255 255 255 255 255 255 255 255 255 255 255 255 255 255 255 255 255 255 
255 255 255 255 255 255 255 255 255 255 255 255 255 255 255 255 255 255 255 255 255 176 176 176 248 248 248 248 248 248 248 248 248 208 72 96 248 208 216 248 168 192 248 168 192 208 72 96 248 248 248 248 248 248 248 208 216 248 168 192 248 168 192 248 168 192 248 168 192 248 168 192 248 168 192 248 168 192 248 168 192 248 168 192 248 168 192 248 168 192 248 168 192 248 168 192 248 168 192 248 168 192 248 168 192 248 168 192 248 168 192 248 168 192 248 208 216 184 32 48 248 208 216 248 208 216 248 168 192 232 120 152 102 102 102 248 248 248 248 248 248 248 248 248 216 216 216 216 216 216 216 216 216 216 216 216 16 16 16 255 255 255 255 255 255 255 255 255 255 255 255 255 255 255 255 255 255 255 255 255 255 255 255 255 255 255 255 255 255 255 255 255 
255 255 255 255 255 255 255 255 255 255 255 255 255 255 255 255 255 255 255 255 255 255 255 255 102 102 102 216 216 216 216 216 216 208 72 96 248 208 216 248 168 192 248 168 192 248 168 192 208 72 96 248 248 248 248 248 248 248 208 216 248 168 192 248 168 192 248 168 192 248 168 192 248 168 192 248 168 192 248 168 192 248 168 192 248 168 192 248 168 192 248 168 192 248 168 192 248 168 192 248 168 192 248 168 192 248 168 192 248 168 192 248 208 216 184 32 48 248 208 216 248 208 216 248 168 192 232 120 152 102 102 102 248 248 248 248 248 248 248 248 248 248 248 248 216 216 216 216 216 216 176 176 176 16 16 16 255 255 255 255 255 255 255 255 255 255 255 255 255 255 255 255 255 255 255 255 255 255 255 255 255 255 255 255 255 255 255 255 255 255 255 255 
255 255 255 255 255 255 255 255 255 255 255 255 255 255 255 255 255 255 255 255 255 255 255 255 255 255 255 102 102 102 102 102 102 248 248 248 208 72 96 248 168 192 248 168 192 248 168 192 232 120 152 208 72 96 248 248 248 248 248 248 248 168 192 248 168 192 248 168 192 248 168 192 248 168 192 248 168 192 248 168 192 248 168 192 248 168 192 248 168 192 248 168 192 248 168 192 248 168 192 248 168 192 248 168 192 248 168 192 248 208 216 184 32 48 232 120 152 248 208 216 248 168 192 232 120 152 232 120 152 102 102 102 248 248 248 248 248 248 248 248 248 102 102 102 16 16 16 16 16 16 208 72 96 184 32 48 255 255 255 255 255 255 255 255 255 255 255 255 255 255 255 255 255 255 255 255 255 255 255 255 255 255 255 255 255 255 255 255 255 255 255 255 
255 255 255 255 255 255 255 255 255 255 255 255 255 255 255 255 255 255 255 255 255 255 255 255 176 176 176 248 248 248 248 248 248 248 248 248 208 72 96 248 168 192 248 168 192 248 168 192 248 168 192 208 72 96 248 248 248 248 248 248 248 168 192 248 168 192 248 168 192 248 168 192 248 168 192 248 168 192 248 168 192 248 168 192 248 168 192 248 168 192 248 168 192 248 168 192 248 168 192 248 168 192 248 168 192 248 168 192 248 248 248 184 32 48 248 168 192 248 168 192 232 120 152 232 120 152 102 102 102 176 176 176 216 216 216 248 248 248 248 248 248 248 248 248 248 248 248 216 216 216 102 102 102 102 102 102 255 255 255 255 255 255 255 255 255 255 255 255 255 255 255 255 255 255 255 255 255 255 255 255 255 255 255 255 255 255 255 255 255 255 255 255 
255 255 255 255 255 255 255 255 255 255 255 255 255 255 255 255 255 255 255 255 255 176 176 176 248 248 248 248 248 248 248 248 248 248 248 248 248 248 248 184 32 48 248 168 192 248 168 192 248 168 192 248 208 216 248 248 248 248 208 216 248 168 192 248 168 192 248 168 192 248 168 192 248 168 192 248 168 192 248 168 192 248 168 192 248 168 192 248 168 192 248 168 192 248 168 192 248 168 192 248 168 192 248 168 192 248 168 192 248 248 248 248 208 216 248 168 192 232 120 152 232 120 152 102 102 102 176 176 176 176 176 176 216 216 216 248 248 248 248 248 248 248 248 248 216 216 216 216 216 216 176 176 176 102 102 102 255 255 255 255 255 255 255 255 255 255 255 255 255 255 255 255 255 255 255 255 255 255 255 255 255 255 255 255 255 255 255 255 255 255 255 255 
255 255 255 255 255 255 255 255 255 255 255 255 255 255 255 255 255 255 255 255 255 102 102 102 216 216 216 216 216 216 216 216 216 248 248 248 248 248 248 248 248 248 102 102 102 248 168 192 248 208 216 248 248 248 102 102 102 248 168 192 248 168 192 248 168 192 248 168 192 248 168 192 248 168 192 248 168 192 248 168 192 248 168 192 248 168 192 248 168 192 248 168 192 248 168 192 248 168 192 248 168 192 248 168 192 248 168 192 102 102 102 248 248 248 248 208 216 208 72 96 208 72 96 176 176 176 176 176 176 216 216 216 216 216 216 248 248 248 216 216 216 216 216 216 216 216 216 176 176 176 176 176 176 102 102 102 16 16 16 255 255 255 255 255 255 255 255 255 255 255 255 255 255 255 255 255 255 255 255 255 255 255 255 255 255 255 255 255 255 255 255 255 
255 255 255 255 255 255 255 255 255 255 255 255 255 255 255 255 255 255 255 255 255 255 255 255 102 102 102 102 102 102 102 102 102 248 248 248 248 248 248 248 248 248 248 248 248 248 248 248 216 216 216 102 102 102 248 168 192 248 168 192 248 168 192 248 168 192 248 168 192 248 168 192 176 176 176 176 176 176 176 176 176 176 176 176 248 168 192 248 168 192 248 168 192 248 168 192 248 168 192 248 168 192 248 168 192 248 168 192 248 168 192 102 102 102 248 248 248 248 248 248 248 248 248 248 248 248 248 248 248 248 248 248 248 248 248 248 248 248 102 102 102 102 102 102 102 102 102 16 16 16 16 16 16 208 72 96 16 16 16 255 255 255 255 255 255 255 255 255 255 255 255 255 255 255 255 255 255 255 255 255 255 255 255 255 255 255 255 255 255 255 255 255 
255 255 255 255 255 255 255 255 255 255 255 255 255 255 255 255 255 255 255 255 255 255 255 255 255 255 255 176 176 176 248 248 248 248 248 248 248 248 248 248 248 248 216 216 216 216 216 216 102 102 102 248 168 192 248 168 192 248 168 192 248 168 192 248 168 192 248 168 192 176 176 176 248 248 248 248 248 248 248 248 248 248 248 248 102 102 102 248 168 192 248 168 192 248 168 192 248 168 192 248 168 192 248 168 192 248 168 192 248 168 192 248 168 192 102 102 102 102 102 102 216 216 216 216 216 216 248 248 248 248 248 248 248 248 248 248 248 248 248 248 248 102 102 102 208 72 96 208 72 96 208 72 96 208 72 96 16 16 16 255 255 255 255 255 255 255 255 255 255 255 255 255 255 255 255 255 255 255 255 255 255 255 255 255 255 255 255 255 255 255 255 255 
255 255 255 255 255 255 255 255 255 255 255 255 255 255 255 255 255 255 255 255 255 255 255 255 176 176 176 248 248 248 248 248 248 248 248 248 216 216 216 216 216 216 102 102 102 16 16 16 248 168 192 248 168 192 248 168 192 248 168 192 248 168 192 248 168 192 176 176 176 248 248 248 248 248 248 248 248 248 248 248 248 248 248 248 248 248 248 102 102 102 248 168 192 248 168 192 248 168 192 248 168 192 248 168 192 248 168 192 248 168 192 248 168 192 248 168 192 248 168 192 102 102 102 102 102 102 216 216 216 216 216 216 216 216 216 248 248 248 248 248 248 248 248 248 16 16 16 232 120 152 232 120 152 208 72 96 16 16 16 255 255 255 255 255 255 255 255 255 255 255 255 255 255 255 255 255 255 255 255 255 255 255 255 255 255 255 255 255 255 255 255 255 
255 255 255 255 255 255 255 255 255 255 255 255 255 255 255 255 255 255 255 255 255 255 255 255 102 102 102 216 216 216 216 216 216 216 216 216 102 102 102 16 16 16 248 168 192 248 168 192 248 168 192 248 168 192 248 168 192 248 168 192 248 168 192 176 176 176 248 248 248 248 248 248 248 248 248 248 248 248 248 248 248 248 248 248 248 248 248 216 216 216 102 102 102 248 168 192 248 168 192 248 168 192 248 168 192 248 168 192 248 168 192 248 168 192 248 168 192 248 168 192 248 168 192 232 120 152 102 102 102 102 102 102 216 216 216 216 216 216 216 216 216 216 216 216 16 16 16 232 120 152 232 120 152 208 72 96 16 16 16 255 255 255 255 255 255 255 255 255 255 255 255 255 255 255 255 255 255 255 255 255 255 255 255 255 255 255 255 255 255 255 255 255 
255 255 255 255 255 255 255 255 255 255 255 255 255 255 255 255 255 255 255 255 255 255 255 255 255 255 255 102 102 102 102 102 102 102 102 102 232 120 152 248 168 192 248 168 192 248 168 192 248 168 192 248 168 192 248 168 192 248 168 192 248 168 192 176 176 176 248 248 248 248 248 248 248 248 248 248 248 248 248 248 248 248 248 248 248 248 248 216 216 216 102 102 102 248 168 192 248 168 192 248 168 192 248 168 192 248 168 192 248 168 192 248 168 192 248 168 192 248 168 192 232 120 152 232 120 152 232 120 152 232 120 152 102 102 102 102 102 102 16 16 16 16 16 16 232 120 152 232 120 152 232 120 152 208 72 96 16 16 16 255 255 255 255 255 255 255 255 255 255 255 255 255 255 255 255 255 255 255 255 255 255 255 255 255 255 255 255 255 255 255 255 255 
255 255 255 255 255 255 255 255 255 255 255 255 255 255 255 255 255 255 255 255 255 255 255 255 255 255 255 255 255 255 255 255 255 184 32 48 248 208 216 248 168 192 248 168 192 248 168 192 248 168 192 248 168 192 248 168 192 248 168 192 176 176 176 248 248 248 248 248 248 248 248 248 248 248 248 248 248 248 248 248 248 248 248 248 248 248 248 216 216 216 176 176 176 16 16 16 248 168 192 248 168 192 248 168 192 248 168 192 248 168 192 248 168 192 248 168 192 248 168 192 232 120 152 232 120 152 232 120 152 232 120 152 232 120 152 232 120 152 232 120 152 232 120 152 232 120 152 232 120 152 232 120 152 208 72 96 176 176 176 102 102 102 255 255 255 255 255 255 255 255 255 255 255 255 255 255 255 255 255 255 255 255 255 255 255 255 255 255 255 255 255 255 
255 255 255 255 255 255 255 255 255 255 255 255 255 255 255 255 255 255 255 255 255 255 255 255 255 255 255 255 255 255 176 176 176 184 32 48 248 208 216 248 208 216 248 208 216 248 168 192 248 168 192 248 168 192 248 168 192 248 168 192 176 176 176 248 248 248 248 248 248 248 248 248 248 248 248 248 248 248 248 248 248 248 248 248 248 248 248 216 216 216 176 176 176 16 16 16 248 168 192 248 168 192 248 168 192 248 168 192 248 168 192 248 168 192 248 168 192 232 120 152 232 120 152 232 120 152 232 120 152 232 120 152 232 120 152 232 120 152 232 120 152 232 120 152 232 120 152 232 120 152 176 176 176 176 176 176 176 176 176 176 176 176 102 102 102 102 102 102 255 255 255 255 255 255 255 255 255 255 255 255 255 255 255 255 255 255 255 255 255 255 255 255 
255 255 255 255 255 255 255 255 255 255 255 255 255 255 255 255 255 255 255 255 255 255 255 255 176 176 176 176 176 176 248 248 248 216 216 216 102 102 102 248 208 216 248 208 216 248 208 216 248 208 216 248 208 216 248 168 192 248 168 192 176 176 176 248 248 248 248 248 248 248 248 248 248 248 248 248 248 248 248 248 248 248 248 248 216 216 216 216 216 216 176 176 176 16 16 16 248 168 192 248 168 192 248 168 192 248 168 192 248 168 192 248 168 192 232 120 152 232 120 152 232 120 152 232 120 152 232 120 152 232 120 152 232 120 152 232 120 152 232 120 152 232 120 152 232 120 152 216 216 216 216 216 216 176 176 176 176 176 176 176 176 176 176 176 176 176 176 176 102 102 102 255 255 255 255 255 255 255 255 255 255 255 255 255 255 255 255 255 255 255 255 255 
255 255 255 255 255 255 255 255 255 255 255 255 255 255 255 255 255 255 255 255 255 176 176 176 248 248 248 248 248 248 176 176 176 176 176 176 176 176 176 248 248 248 248 248 248 248 208 216 248 208 216 248 208 216 248 208 216 232 120 152 176 176 176 216 216 216 248 248 248 248 248 248 248 248 248 248 248 248 248 248 248 216 216 216 216 216 216 176 176 176 176 176 176 16 16 16 184 32 48 248 168 192 248 168 192 248 168 192 232 120 152 232 120 152 232 120 152 232 120 152 232 120 152 232 120 152 232 120 152 232 120 152 232 120 152 232 120 152 216 216 216 216 216 216 216 216 216 216 216 216 216 216 216 216 216 216 176 176 176 102 102 102 176 176 176 176 176 176 176 176 176 16 16 16 255 255 255 255 255 255 255 255 255 255 255 255 255 255 255 255 255 255 
255 255 255 255 255 255 255 255 255 255 255 255 255 255 255 255 255 255 255 255 255 176 176 176 176 176 176 176 176 176 248 248 248 248 248 248 176 176 176 248 248 248 248 248 248 248 248 248 248 248 248 248 208 216 248 208 216 232 120 152 184 32 48 184 32 48 176 176 176 216 216 216 216 216 216 216 216 216 216 216 216 216 216 216 176 176 176 176 176 176 184 32 48 184 32 48 184 32 48 248 168 192 232 120 152 232 120 152 232 120 152 232 120 152 232 120 152 232 120 152 232 120 152 232 120 152 216 216 216 216 216 216 216 216 216 216 216 216 216 216 216 216 216 216 216 216 216 216 216 216 216 216 216 216 216 216 216 216 216 176 176 176 102 102 102 16 16 16 16 16 16 16 16 16 255 255 255 255 255 255 255 255 255 255 255 255 255 255 255 255 255 255 
255 255 255 255 255 255 255 255 255 255 255 255 255 255 255 255 255 255 255 255 255 255 255 255 176 176 176 216 216 216 248 248 248 248 248 248 248 248 248 248 248 248 248 248 248 248 248 248 248 248 248 248 248 248 248 248 248 208 72 96 248 168 192 232 120 152 184 32 48 184 32 48 184 32 48 184 32 48 184 32 48 184 32 48 184 32 48 184 32 48 208 72 96 208 72 96 184 32 48 232 120 152 232 120 152 232 120 152 232 120 152 232 120 152 216 216 216 216 216 216 216 216 216 216 216 216 216 216 216 216 216 216 216 216 216 216 216 216 216 216 216 216 216 216 216 216 216 216 216 216 176 176 176 176 176 176 216 216 216 216 216 216 176 176 176 176 176 176 102 102 102 255 255 255 255 255 255 255 255 255 255 255 255 255 255 255 255 255 255 255 255 255 
255 255 255 255 255 255 255 255 255 255 255 255 255 255 255 255 255 255 255 255 255 176 176 176 248 248 248 248 248 248 248 248 248 216 216 216 216 216 216 176 176 176 248 248 248 248 248 248 248 248 248 248 248 248 248 248 248 208 72 96 248 168 192 248 168 192 248 168 192 248 168 192 248 168 192 248 168 192 248 168 192 248 168 192 248 168 192 232 120 152 208 72 96 208 72 96 184 32 48 216 216 216 216 216 216 216 216 216 216 216 216 216 216 216 216 216 216 216 216 216 216 216 216 216 216 216 216 216 216 216 216 216 216 216 216 216 216 216 216 216 216 216 216 216 216 216 216 216 216 216 216 216 216 102 102 102 102 102 102 176 176 176 176 176 176 176 176 176 176 176 176 16 16 16 255 255 255 255 255 255 255 255 255 255 255 255 255 255 255 255 255 255 
255 255 255 255 255 255 255 255 255 255 255 255 255 255 255 255 255 255 176 176 176 248 248 248 248 248 248 216 216 216 216 216 216 176 176 176 102 102 102 248 248 248 248 248 248 248 248 248 248 248 248 248 248 248 248 248 248 216 216 216 208 72 96 248 168 192 248 168 192 248 168 192 248 168 192 248 168 192 248 168 192 248 168 192 232 120 152 232 120 152 208 72 96 16 16 16 176 176 176 216 216 216 216 216 216 216 216 216 216 216 216 216 216 216 216 216 216 216 216 216 216 216 216 216 216 216 216 216 216 216 216 216 216 216 216 216 216 216 176 176 176 176 176 176 216 216 216 216 216 216 216 216 216 216 216 216 102 102 102 102 102 102 176 176 176 176 176 176 176 176 176 16 16 16 255 255 255 255 255 255 255 255 255 255 255 255 255 255 255 255 255 255 
255 255 255 255 255 255 255 255 255 255 255 255 255 255 255 255 255 255 176 176 176 216 216 216 216 216 216 176 176 176 102 102 102 102 102 102 248 248 248 248 248 248 248 248 248 216 216 216 176 176 176 248 248 248 248 248 248 248 248 248 184 32 48 232 120 152 232 120 152 248 168 192 248 168 192 248 168 192 248 168 192 232 120 152 232 120 152 208 72 96 208 72 96 16 16 16 176 176 176 216 216 216 216 216 216 216 216 216 216 216 216 216 216 216 216 216 216 216 216 216 216 216 216 176 176 176 216 216 216 216 216 216 216 216 216 216 216 216 216 216 216 102 102 102 176 176 176 176 176 176 216 216 216 216 216 216 176 176 176 102 102 102 16 16 16 16 16 16 16 16 16 255 255 255 255 255 255 255 255 255 255 255 255 255 255 255 255 255 255 255 255 255 
255 255 255 255 255 255 255 255 255 255 255 255 255 255 255 255 255 255 176 176 176 102 102 102 102 102 102 102 102 102 102 102 102 248 248 248 248 248 248 216 216 216 216 216 216 16 16 16 176 176 176 216 216 216 216 216 216 248 248 248 248 248 248 184 32 48 232 120 152 232 120 152 232 120 152 232 120 152 232 120 152 232 120 152 208 72 96 208 72 96 16 16 16 176 176 176 216 216 216 216 216 216 216 216 216 216 216 216 216 216 216 216 216 216 216 216 216 216 216 216 216 216 216 176 176 176 102 102 102 176 176 176 216 216 216 216 216 216 176 176 176 102 102 102 16 16 16 102 102 102 176 176 176 176 176 176 176 176 176 16 16 16 255 255 255 255 255 255 255 255 255 255 255 255 255 255 255 255 255 255 255 255 255 255 255 255 255 255 255 255 255 255 
255 255 255 255 255 255 255 255 255 255 255 255 255 255 255 255 255 255 255 255 255 255 255 255 255 255 255 255 255 255 102 102 102 216 216 216 216 216 216 176 176 176 16 16 16 255 255 255 102 102 102 216 216 216 216 216 216 216 216 216 216 216 216 216 216 216 184 32 48 184 32 48 208 72 96 208 72 96 208 72 96 208 72 96 16 16 16 16 16 16 176 176 176 216 216 216 216 216 216 216 216 216 216 216 216 216 216 216 216 216 216 216 216 216 216 216 216 216 216 216 176 176 176 176 176 176 176 176 176 16 16 16 176 176 176 176 176 176 176 176 176 16 16 16 255 255 255 255 255 255 102 102 102 16 16 16 16 16 16 255 255 255 255 255 255 255 255 255 255 255 255 255 255 255 255 255 255 255 255 255 255 255 255 255 255 255 255 255 255 255 255 255 
255 255 255 255 255 255 255 255 255 255 255 255 255 255 255 255 255 255 255 255 255 255 255 255 255 255 255 255 255 255 255 255 255 16 16 16 16 16 16 255 255 255 255 255 255 255 255 255 255 255 255 102 102 102 216 216 216 216 216 216 216 216 216 216 216 216 216 216 216 176 176 176 16 16 16 16 16 16 16 16 16 16 16 16 176 176 176 176 176 176 216 216 216 216 216 216 216 216 216 216 216 216 216 216 216 216 216 216 216 216 216 216 216 216 176 176 176 176 176 176 176 176 176 176 176 176 176 176 176 176 176 176 176 176 176 16 16 16 16 16 16 255 255 255 255 255 255 255 255 255 255 255 255 255 255 255 255 255 255 255 255 255 255 255 255 255 255 255 255 255 255 255 255 255 255 255 255 255 255 255 255 255 255 255 255 255 255 255 255 255 255 255 
255 255 255 255 255 255 255 255 255 255 255 255 255 255 255 255 255 255 255 255 255 255 255 255 255 255 255 255 255 255 255 255 255 255 255 255 255 255 255 255 255 255 255 255 255 255 255 255 255 255 255 255 255 255 102 102 102 176 176 176 216 216 216 216 216 216 216 216 216 216 216 216 216 216 216 216 216 216 216 216 216 216 216 216 216 216 216 216 216 216 216 216 216 216 216 216 216 216 216 216 216 216 216 216 216 216 216 216 216 216 216 176 176 176 176 176 176 176 176 176 176 176 176 176 176 176 176 176 176 176 176 176 102 102 102 184 32 48 255 255 255 255 255 255 255 255 255 255 255 255 255 255 255 255 255 255 255 255 255 255 255 255 255 255 255 255 255 255 255 255 255 255 255 255 255 255 255 255 255 255 255 255 255 255 255 255 255 255 255 255 255 255 
255 255 255 255 255 255 255 255 255 255 255 255 255 255 255 255 255 255 255 255 255 255 255 255 255 255 255 255 255 255 255 255 255 255 255 255 255 255 255 255 255 255 255 255 255 255 255 255 255 255 255 255 255 255 255 255 255 255 255 255 102 102 102 176 176 176 216 216 216 216 216 216 216 216 216 216 216 216 216 216 216 216 216 216 216 216 216 216 216 216 216 216 216 216 216 216 216 216 216 216 216 216 216 216 216 176 176 176 176 176 176 176 176 176 176 176 176 176 176 176 176 176 176 176 176 176 102 102 102 102 102 102 184 32 48 16 16 16 255 255 255 255 255 255 255 255 255 255 255 255 255 255 255 255 255 255 255 255 255 255 255 255 255 255 255 255 255 255 255 255 255 255 255 255 255 255 255 255 255 255 255 255 255 255 255 255 255 255 255 255 255 255 
255 255 255 255 255 255 255 255 255 255 255 255 255 255 255 255 255 255 255 255 255 255 255 255 255 255 255 255 255 255 255 255 255 255 255 255 255 255 255 255 255 255 255 255 255 255 255 255 255 255 255 255 255 255 255 255 255 255 255 255 255 255 255 255 255 255 102 102 102 102 102 102 102 102 102 176 176 176 176 176 176 176 176 176 176 176 176 176 176 176 176 176 176 176 176 176 176 176 176 176 176 176 176 176 176 176 176 176 176 176 176 176 176 176 176 176 176 176 176 176 102 102 102 16 16 16 232 120 152 208 72 96 208 72 96 184 32 48 16 16 16 255 255 255 255 255 255 255 255 255 255 255 255 255 255 255 255 255 255 255 255 255 255 255 255 255 255 255 255 255 255 255 255 255 255 255 255 255 255 255 255 255 255 255 255 255 255 255 255 255 255 255 
255 255 255 255 255 255 255 255 255 255 255 255 255 255 255 255 255 255 255 255 255 255 255 255 255 255 255 255 255 255 255 255 255 255 255 255 255 255 255 255 255 255 255 255 255 255 255 255 255 255 255 255 255 255 255 255 255 255 255 255 255 255 255 255 255 255 255 255 255 255 255 255 184 32 48 102 102 102 102 102 102 102 102 102 102 102 102 102 102 102 102 102 102 102 102 102 102 102 102 102 102 102 102 102 102 16 16 16 16 16 16 16 16 16 16 16 16 16 16 16 232 120 152 232 120 152 232 120 152 232 120 152 208 72 96 208 72 96 16 16 16 255 255 255 255 255 255 255 255 255 255 255 255 255 255 255 255 255 255 255 255 255 255 255 255 255 255 255 255 255 255 255 255 255 255 255 255 255 255 255 255 255 255 255 255 255 255 255 255 255 255 255 
255 255 255 255 255 255 255 255 255 255 255 255 255 255 255 255 255 255 255 255 255 255 255 255 255 255 255 255 255 255 255 255 255 255 255 255 255 255 255 255 255 255 255 255 255 255 255 255 255 255 255 255 255 255 255 255 255 255 255 255 255 255 255 255 255 255 255 255 255 255 255 255 184 32 48 232 120 152 208 72 96 208 72 96 208 72 96 208 72 96 16 16 16 255 255 255 255 255 255 255 255 255 255 255 255 255 255 255 255 255 255 255 255 255 255 255 255 255 255 255 184 32 48 208 72 96 232 120 152 232 120 152 232 120 152 208 72 96 16 16 16 255 255 255 255 255 255 255 255 255 255 255 255 255 255 255 255 255 255 255 255 255 255 255 255 255 255 255 255 255 255 255 255 255 255 255 255 255 255 255 255 255 255 255 255 255 255 255 255 255 255 255 
255 255 255 255 255 255 255 255 255 255 255 255 255 255 255 255 255 255 255 255 255 255 255 255 255 255 255 255 255 255 255 255 255 255 255 255 255 255 255 255 255 255 255 255 255 255 255 255 255 255 255 255 255 255 255 255 255 255 255 255 255 255 255 255 255 255 255 255 255 255 255 255 208 72 96 232 120 152 232 120 152 232 120 152 208 72 96 208 72 96 16 16 16 255 255 255 255 255 255 255 255 255 255 255 255 255 255 255 255 255 255 255 255 255 255 255 255 255 255 255 255 255 255 255 255 255 184 32 48 208 72 96 232 120 152 232 120 152 16 16 16 255 255 255 255 255 255 255 255 255 255 255 255 255 255 255 255 255 255 255 255 255 255 255 255 255 255 255 255 255 255 255 255 255 255 255 255 255 255 255 255 255 255 255 255 255 255 255 255 255 255 255 
255 255 255 255 255 255 255 255 255 255 255 255 255 255 255 255 255 255 255 255 255 255 255 255 255 255 255 255 255 255 255 255 255 255 255 255 255 255 255 255 255 255 255 255 255 255 255 255 255 255 255 255 255 255 255 255 255 255 255 255 255 255 255 255 255 255 255 255 255 255 255 255 255 255 255 208 72 96 248 168 192 248 168 192 232 120 152 208 72 96 16 16 16 255 255 255 255 255 255 255 255 255 255 255 255 255 255 255 255 255 255 255 255 255 255 255 255 255 255 255 255 255 255 255 255 255 255 255 255 255 255 255 16 16 16 16 16 16 255 255 255 255 255 255 255 255 255 255 255 255 255 255 255 255 255 255 255 255 255 255 255 255 255 255 255 255 255 255 255 255 255 255 255 255 255 255 255 255 255 255 255 255 255 255 255 255 255 255 255 255 255 255 
255 255 255 255 255 255 255 255 255 255 255 255 255 255 255 255 255 255 255 255 255 255 255 255 255 255 255 255 255 255 255 255 255 255 255 255 255 255 255 255 255 255 255 255 255 255 255 255 255 255 255 255 255 255 255 255 255 255 255 255 255 255 255 255 255 255 255 255 255 255 255 255 255 255 255 208 72 96 248 168 192 248 168 192 232 120 152 16 16 16 255 255 255 255 255 255 255 255 255 255 255 255 255 255 255 255 255 255 255 255 255 255 255 255 255 255 255 255 255 255 255 255 255 255 255 255 255 255 255 255 255 255 255 255 255 255 255 255 255 255 255 255 255 255 255 255 255 255 255 255 255 255 255 255 255 255 255 255 255 255 255 255 255 255 255 255 255 255 255 255 255 255 255 255 255 255 255 255 255 255 255 255 255 255 255 255 255 255 255 255 255 255 
255 255 255 255 255 255 255 255 255 255 255 255 255 255 255 255 255 255 255 255 255 255 255 255 255 255 255 255 255 255 255 255 255 255 255 255 255 255 255 255 255 255 255 255 255 255 255 255 255 255 255 255 255 255 255 255 255 255 255 255 255 255 255 255 255 255 255 255 255 255 255 255 255 255 255 208 72 96 232 120 152 232 120 152 232 120 152 16 16 16 255 255 255 255 255 255 255 255 255 255 255 255 255 255 255 255 255 255 255 255 255 255 255 255 255 255 255 255 255 255 255 255 255 255 255 255 255 255 255 255 255 255 255 255 255 255 255 255 255 255 255 255 255 255 255 255 255 255 255 255 255 255 255 255 255 255 255 255 255 255 255 255 255 255 255 255 255 255 255 255 255 255 255 255 255 255 255 255 255 255 255 255 255 255 255 255 255 255 255 255 255 255 
255 255 255 255 255 255 255 255 255 255 255 255 255 255 255 255 255 255 255 255 255 255 255 255 255 255 255 255 255 255 255 255 255 255 255 255 255 255 255 255 255 255 255 255 255 255 255 255 255 255 255 255 255 255 255 255 255 255 255 255 255 255 255 255 255 255 255 255 255 255 255 255 255 255 255 255 255 255 208 72 96 16 16 16 16 16 16 255 255 255 255 255 255 255 255 255 255 255 255 255 255 255 255 255 255 255 255 255 255 255 255 255 255 255 255 255 255 255 255 255 255 255 255 255 255 255 255 255 255 255 255 255 255 255 255 255 255 255 255 255 255 255 255 255 255 255 255 255 255 255 255 255 255 255 255 255 255 255 255 255 255 255 255 255 255 255 255 255 255 255 255 255 255 255 255 255 255 255 255 255 255 255 255 255 255 255 255 255 255 255 255 255 
255 255 255 255 255 255 255 255 255 255 255 255 255 255 255 255 255 255 255 255 255 255 255 255 255 255 255 255 255 255 255 255 255 255 255 255 255 255 255 255 255 255 255 255 255 255 255 255 255 255 255 255 255 255 255 255 255 255 255 255 255 255 255 255 255 255 255 255 255 255 255 255 255 255 255 255 255 255 255 255 255 255 255 255 255 255 255 255 255 255 255 255 255 255 255 255 255 255 255 255 255 255 255 255 255 255 255 255 255 255 255 255 255 255 255 255 255 255 255 255 255 255 255 255 255 255 255 255 255 255 255 255 255 255 255 255 255 255 255 255 255 255 255 255 255 255 255 255 255 255 255 255 255 255 255 255 255 255 255 255 255 255 255 255 255 255 255 255 255 255 255 255 255 255 255 255 255 255 255 255 255 255 255 255 255 255 255 255 255 255 255 255 
255 255 255 255 255 255 255 255 255 255 255 255 255 255 255 255 255 255 255 255 255 255 255 255 255 255 255 255 255 255 255 255 255 255 255 255 255 255 255 255 255 255 255 255 255 255 255 255 255 255 255 255 255 255 255 255 255 255 255 255 255 255 255 255 255 255 255 255 255 255 255 255 255 255 255 255 255 255 255 255 255 255 255 255 255 255 255 255 255 255 255 255 255 255 255 255 255 255 255 255 255 255 255 255 255 255 255 255 255 255 255 255 255 255 255 255 255 255 255 255 255 255 255 255 255 255 255 255 255 255 255 255 255 255 255 255 255 255 255 255 255 255 255 255 255 255 255 255 255 255 255 255 255 255 255 255 255 255 255 255 255 255 255 255 255 255 255 255 255 255 255 255 255 255 255 255 255 255 255 255 255 255 255 255 255 255 255 255 255 255 255 255 
255 255 255 255 255 255 255 255 255 255 255 255 255 255 255 255 255 255 255 255 255 255 255 255 255 255 255 255 255 255 255 255 255 255 255 255 255 255 255 255 255 255 255 255 255 255 255 255 255 255 255 255 255 255 255 255 255 255 255 255 255 255 255 255 255 255 255 255 255 255 255 255 255 255 255 255 255 255 255 255 255 255 255 255 255 255 255 255 255 255 255 255 255 255 255 255 255 255 255 255 255 255 255 255 255 255 255 255 255 255 255 255 255 255 255 255 255 255 255 255 255 255 255 255 255 255 255 255 255 255 255 255 255 255 255 255 255 255 255 255 255 255 255 255 255 255 255 255 255 255 255 255 255 255 255 255 255 255 255 255 255 255 255 255 255 255 255 255 255 255 255 255 255 255 255 255 255 255 255 255 255 255 255 255 255 255 255 255 255 255 255 255 
255 255 255 255 255 255 255 255 255 255 255 255 255 255 255 255 255 255 255 255 255 255 255 255 255 255 255 255 255 255 255 255 255 255 255 255 255 255 255 255 255 255 255 255 255 255 255 255 255 255 255 255 255 255 255 255 255 255 255 255 255 255 255 255 255 255 255 255 255 255 255 255 255 255 255 255 255 255 255 255 255 255 255 255 255 255 255 255 255 255 255 255 255 255 255 255 255 255 255 255 255 255 255 255 255 255 255 255 255 255 255 255 255 255 255 255 255 255 255 255 255 255 255 255 255 255 255 255 255 255 255 255 255 255 255 255 255 255 255 255 255 255 255 255 255 255 255 255 255 255 255 255 255 255 255 255 255 255 255 255 255 255 255 255 255 255 255 255 255 255 255 255 255 255 255 255 255 255 255 255 255 255 255 255 255 255 255 255 255 255 255 255 
255 255 255 255 255 255 255 255 255 255 255 255 255 255 255 255 255 255 255 255 255 255 255 255 255 255 255 255 255 255 255 255 255 255 255 255 255 255 255 255 255 255 255 255 255 255 255 255 255 255 255 255 255 255 255 255 255 255 255 255 255 255 255 255 255 255 255 255 255 255 255 255 255 255 255 255 255 255 255 255 255 255 255 255 255 255 255 255 255 255 255 255 255 255 255 255 255 255 255 255 255 255 255 255 255 255 255 255 255 255 255 255 255 255 255 255 255 255 255 255 255 255 255 255 255 255 255 255 255 255 255 255 255 255 255 255 255 255 255 255 255 255 255 255 255 255 255 255 255 255 255 255 255 255 255 255 255 255 255 255 255 255 255 255 255 255 255 255 255 255 255 255 255 255 255 255 255 255 255 255 255 255 255 255 255 255 255 255 255 255 255 255 
255 255 255 255 255 255 255 255 255 255 255 255 255 255 255 255 255 255 255 255 255 255 255 255 255 255 255 255 255 255 255 255 255 255 255 255 255 255 255 255 255 255 255 255 255 255 255 255 255 255 255 255 255 255 255 255 255 255 255 255 255 255 255 255 255 255 255 255 255 255 255 255 255 255 255 255 255 255 255 255 255 255 255 255 255 255 255 255 255 255 255 255 255 255 255 255 255 255 255 255 255 255 255 255 255 255 255 255 255 255 255 255 255 255 255 255 255 255 255 255 255 255 255 255 255 255 255 255 255 255 255 255 255 255 255 255 255 255 255 255 255 255 255 255 255 255 255 255 255 255 255 255 255 255 255 255 255 255 255 255 255 255 255 255 255 255 255 255 255 255 255 255 255 255 255 255 255 255 255 255 255 255 255 255 255 255 255 255 255 255 255 255 
