P3
64 64
255
255 255 255 255 255 255 255 255 255 255 255 255 255 255 255 255 255 255 255 255 255 255 255 255 255 255 255 255 255 255 255 255 255 255 255 255 255 255 255 255 255 255 255 255 255 255 255 255 255 255 255 255 255 255 255 255 255 255 255 255 255 255 255 255 255 255 255 255 255 255 255 255 255 255 255 255 255 255 255 255 255 255 255 255 255 255 255 255 255 255 255 255 255 255 255 255 255 255 255 255 255 255 255 255 255 255 255 255 255 255 255 255 255 255 255 255 255 255 255 255 255 255 255 255 255 255 255 255 255 255 255 255 255 255 255 255 255 255 255 255 255 255 255 255 255 255 255 255 255 255 255 255 255 255 255 255 255 255 255 255 255 255 255 255 255 255 255 255 255 255 255 255 255 255 255 255 255 255 255 255 255 255 255 255 255 255 255 255 255 255 255 255 
255 255 255 255 255 255 255 255 255 255 255 255 255 255 255 255 255 255 255 255 255 255 255 255 255 255 255 255 255 255 255 255 255 255 255 255 255 255 255 255 255 255 255 255 255 255 255 255 255 255 255 255 255 255 255 255 255 255 255 255 255 255 255 255 255 255 255 255 255 255 255 255 255 255 255 255 255 255 255 255 255 255 255 255 255 255 255 255 255 255 255 255 255 255 255 255 255 255 255 255 255 255 255 255 255 255 255 255 255 255 255 255 255 255 255 255 255 255 255 255 255 255 255 255 255 255 255 255 255 255 255 255 255 255 255 255 255 255 255 255 255 255 255 255 255 255 255 255 255 255 255 255 255 255 255 255 255 255 255 255 255 255 255 255 255 255 255 255 255 255 255 255 255 255 255 255 255 152 56 176 152 56 176 16 16 16 255 255 255 255 255 255 
255 255 255 255 255 255 255 255 255 255 255 255 255 255 255 255 255 255 255 255 255 255 255 255 255 255 255 255 255 255 255 255 255 255 255 255 255 255 255 255 255 255 255 255 255 255 255 255 255 255 255 255 255 255 255 255 255 255 255 255 255 255 255 255 255 255 255 255 255 255 255 255 255 255 255 255 255 255 255 255 255 255 255 255 255 255 255 255 255 255 255 255 255 255 255 255 255 255 255 255 255 255 255 255 255 255 255 255 255 255 255 255 255 255 255 255 255 255 255 255 255 255 255 255 255 255 255 255 255 255 255 255 255 255 255 255 255 255 255 255 255 255 255 255 255 255 255 255 255 255 255 255 255 255 255 255 255 255 255 255 255 255 255 255 255 255 255 255 255 255 255 112 24 144 152 56 176 192 88 200 192 88 200 16 16 16 255 255 255 255 255 255 
255 255 255 255 255 255 255 255 255 255 255 255 255 255 255 255 255 255 255 255 255 255 255 255 255 255 255 255 255 255 255 255 255 255 255 255 255 255 255 255 255 255 255 255 255 255 255 255 255 255 255 255 255 255 255 255 255 255 255 255 255 255 255 255 255 255 255 255 255 255 255 255 255 255 255 255 255 255 255 255 255 255 255 255 255 255 255 255 255 255 255 255 255 255 255 255 255 255 255 255 255 255 255 255 255 255 255 255 255 255 255 255 255 255 255 255 255 255 255 255 255 255 255 255 255 255 255 255 255 255 255 255 255 255 255 255 255 255 255 255 255 255 255 255 255 255 255 255 255 255 255 255 255 255 255 255 255 255 255 255 255 255 255 255 255 112 24 144 152 56 176 192 88 200 192 88 200 16 16 16 16 16 16 255 255 255 255 255 255 255 255 255 
255 255 255 255 255 255 255 255 255 255 255 255 255 255 255 255 255 255 255 255 255 255 255 255 255 255 255 255 255 255 255 255 255 255 255 255 255 255 255 255 255 255 255 255 255 255 255 255 255 255 255 255 255 255 255 255 255 255 255 255 255 255 255 255 255 255 255 255 255 255 255 255 255 255 255 255 255 255 255 255 255 255 255 255 255 255 255 255 255 255 255 255 255 255 255 255 255 255 255 255 255 255 255 255 255 255 255 255 255 255 255 255 255 255 255 255 255 255 255 255 255 255 255 255 255 255 255 255 255 255 255 255 255 255 255 255 255 255 255 255 255 255 255 255 255 255 255 255 255 255 255 255 255 255 255 255 255 255 255 112 24 144 152 56 176 192 88 200 192 88 200 16 72 112 16 72 112 16 16 16 255 255 255 255 255 255 255 255 255 255 255 255 
255 255 255 255 255 255 255 255 255 255 255 255 255 255 255 255 255 255 255 255 255 255 255 255 255 255 255 255 255 255 255 255 255 255 255 255 255 255 255 255 255 255 255 255 255 255 255 255 255 255 255 255 255 255 255 255 255 255 255 255 255 255 255 255 255 255 255 255 255 255 255 255 255 255 255 255 255 255 255 255 255 255 255 255 255 255 255 255 255 255 255 255 255 255 255 255 255 255 255 255 255 255 255 255 255 255 255 255 255 255 255 255 255 255 255 255 255 255 255 255 255 255 255 255 255 255 255 255 255 255 255 255 255 255 255 255 255 255 255 255 255 255 255 255 255 255 255 255 255 255 255 255 255 255 255 255 152 56 176 192 88 200 192 88 200 16 72 112 16 72 112 16 72 112 16 72 112 16 16 16 255 255 255 255 255 255 255 255 255 255 255 255 
255 255 255 255 255 255 255 255 255 255 255 255 255 255 255 255 255 255 255 255 255 255 255 255 255 255 255 255 255 255 255 255 255 255 255 255 255 255 255 255 255 255 255 255 255 255 255 255 255 255 255 255 255 255 255 255 255 255 255 255 255 255 255 255 255 255 255 255 255 255 255 255 255 255 255 255 255 255 255 255 255 255 255 255 255 255 255 255 255 255 255 255 255 255 255 255 255 255 255 255 255 255 255 255 255 255 255 255 255 255 255 255 255 255 255 255 255 255 255 255 255 255 255 255 255 255 255 255 255 255 255 255 255 255 255 255 255 255 255 255 255 255 255 255 255 255 255 255 255 255 255 255 255 152 56 176 192 88 200 192 88 200 16 72 112 16 72 112 16 72 112 16 72 112 16 16 16 255 255 255 255 255 255 255 255 255 255 255 255 255 255 255 
255 255 255 255 255 255 255 255 255 255 255 255 255 255 255 255 255 255 255 255 255 255 255 255 255 255 255 255 255 255 255 255 255 255 255 255 255 255 255 255 255 255 255 255 255 255 255 255 255 255 255 255 255 255 255 255 255 255 255 255 255 255 255 255 255 255 255 255 255 255 255 255 255 255 255 255 255 255 255 255 255 255 255 255 255 255 255 255 255 255 255 255 255 255 255 255 255 255 255 255 255 255 255 255 255 255 255 255 255 255 255 255 255 255 255 255 255 255 255 255 255 255 255 255 255 255 255 255 255 255 255 255 255 255 255 255 255 255 255 255 255 255 255 255 255 255 255 255 255 255 112 24 144 192 88 200 192 88 200 16 72 112 16 72 112 16 72 112 16 72 112 32 104 144 16 16 16 255 255 255 255 255 255 255 255 255 255 255 255 255 255 255 
255 255 255 255 255 255 255 255 255 255 255 255 255 255 255 255 255 255 255 255 255 255 255 255 255 255 255 255 255 255 255 255 255 255 255 255 255 255 255 255 255 255 255 255 255 255 255 255 255 255 255 255 255 255 255 255 255 255 255 255 255 255 255 255 255 255 255 255 255 255 255 255 255 255 255 255 255 255 255 255 255 255 255 255 255 255 255 255 255 255 255 255 255 255 255 255 255 255 255 255 255 255 255 255 255 255 255 255 255 255 255 255 255 255 255 255 255 255 255 255 255 255 255 255 255 255 255 255 255 255 255 255 255 255 255 255 255 255 255 255 255 255 255 255 255 255 255 112 24 144 192 88 200 192 88 200 112 24 144 16 72 112 16 72 112 16 72 112 32 104 144 32 104 144 16 72 112 255 255 255 255 255 255 255 255 255 255 255 255 255 255 255 
255 255 255 255 255 255 255 255 255 255 255 255 255 255 255 255 255 255 255 255 255 255 255 255 255 255 255 255 255 255 255 255 255 255 255 255 255 255 255 255 255 255 255 255 255 255 255 255 255 255 255 255 255 255 255 255 255 255 255 255 255 255 255 255 255 255 255 255 255 255 255 255 255 255 255 255 255 255 255 255 255 255 255 255 255 255 255 255 255 255 255 255 255 255 255 255 255 255 255 255 255 255 255 255 255 255 255 255 255 255 255 255 255 255 255 255 255 255 255 255 255 255 255 255 255 255 255 255 255 255 255 255 255 255 255 112 24 144 112 24 144 112 24 144 152 56 176 152 56 176 192 88 200 192 88 200 16 16 16 16 72 112 16 72 112 32 104 144 32 104 144 16 16 16 255 255 255 255 255 255 255 255 255 255 255 255 255 255 255 255 255 255 
152 56 176 192 88 200 152 56 176 112 24 144 255 255 255 255 255 255 255 255 255 255 255 255 255 255 255 255 255 255 255 255 255 255 255 255 255 255 255 255 255 255 255 255 255 255 255 255 255 255 255 255 255 255 255 255 255 255 255 255 255 255 255 255 255 255 255 255 255 255 255 255 255 255 255 255 255 255 255 255 255 255 255 255 255 255 255 255 255 255 255 255 255 255 255 255 255 255 255 255 255 255 255 255 255 255 255 255 255 255 255 255 255 255 255 255 255 255 255 255 255 255 255 255 255 255 255 255 255 255 255 255 255 255 255 112 24 144 224 136 240 224 136 240 224 136 240 192 88 200 192 88 200 112 24 144 16 72 112 16 72 112 16 72 112 32 104 144 32 104 144 16 16 16 255 255 255 255 255 255 255 255 255 255 255 255 255 255 255 255 255 255 
16 72 112 32 104 144 112 24 144 192 88 200 192 88 200 112 24 144 152 56 176 255 255 255 255 255 255 255 255 255 255 255 255 255 255 255 255 255 255 255 255 255 255 255 255 255 255 255 255 255 255 255 255 255 255 255 255 255 255 255 255 255 255 255 255 255 255 255 255 255 255 255 255 255 255 255 255 255 255 255 255 255 255 255 255 255 255 255 255 255 255 255 255 255 255 255 255 255 255 255 255 255 255 255 255 255 255 255 255 255 255 255 255 255 255 255 255 255 255 255 255 255 255 255 255 255 255 255 255 255 255 255 255 255 255 255 255 255 16 16 16 224 136 240 192 88 200 192 88 200 192 88 200 16 16 16 16 72 112 16 72 112 32 104 144 32 104 144 32 104 144 16 16 16 255 255 255 255 255 255 255 255 255 255 255 255 255 255 255 255 255 255 
255 255 255 16 72 112 32 104 144 32 104 144 112 24 144 192 88 200 192 88 200 112 24 144 152 56 176 255 255 255 255 255 255 255 255 255 255 255 255 255 255 255 255 255 255 255 255 255 255 255 255 255 255 255 255 255 255 255 255 255 255 255 255 255 255 255 255 255 255 255 255 255 255 255 255 255 255 255 255 255 255 255 255 255 255 255 255 255 255 255 255 255 255 255 255 255 255 255 255 255 255 255 255 255 255 255 255 255 255 255 255 255 255 255 255 255 255 255 255 255 255 255 255 255 255 255 255 255 255 255 255 255 112 24 144 112 24 144 112 24 144 152 56 176 192 88 200 192 88 200 112 24 144 16 72 112 16 72 112 16 72 112 32 104 144 32 104 144 32 104 144 16 72 112 255 255 255 255 255 255 255 255 255 255 255 255 255 255 255 255 255 255 
255 255 255 255 255 255 16 72 112 32 104 144 32 104 144 32 104 144 112 24 144 192 88 200 192 88 200 112 24 144 152 56 176 255 255 255 255 255 255 255 255 255 255 255 255 255 255 255 255 255 255 255 255 255 255 255 255 255 255 255 255 255 255 255 255 255 255 255 255 255 255 255 255 255 255 255 255 255 255 255 255 255 255 255 255 255 255 255 255 255 255 255 255 255 255 255 255 255 255 255 255 255 255 255 255 255 255 255 255 255 255 255 255 255 255 255 255 255 255 255 255 255 255 255 255 255 255 255 255 255 255 255 112 24 144 224 136 240 224 136 240 192 88 200 192 88 200 192 88 200 16 16 16 16 72 112 16 72 112 32 104 144 32 104 144 32 104 144 16 16 16 255 255 255 255 255 255 255 255 255 255 255 255 255 255 255 255 255 255 255 255 255 
255 255 255 255 255 255 255 255 255 16 72 112 32 104 144 32 104 144 32 104 144 112 24 144 192 88 200 192 88 200 192 88 200 112 24 144 152 56 176 255 255 255 255 255 255 255 255 255 112 24 144 112 24 144 16 16 16 255 255 255 255 255 255 255 255 255 255 255 255 255 255 255 255 255 255 255 255 255 255 255 255 255 255 255 255 255 255 255 255 255 255 255 255 255 255 255 255 255 255 255 255 255 255 255 255 255 255 255 255 255 255 255 255 255 255 255 255 255 255 255 255 255 255 255 255 255 255 255 255 255 255 255 255 255 255 16 16 16 16 16 16 192 88 200 192 88 200 16 16 16 16 72 112 16 72 112 16 72 112 32 104 144 32 104 144 32 104 144 16 16 16 255 255 255 255 255 255 255 255 255 255 255 255 255 255 255 255 255 255 255 255 255 
255 255 255 255 255 255 255 255 255 255 255 255 16 72 112 32 104 144 32 104 144 32 104 144 16 16 16 192 88 200 192 88 200 192 88 200 152 56 176 112 24 144 112 24 144 112 24 144 192 88 200 192 88 200 16 16 16 255 255 255 255 255 255 255 255 255 255 255 255 255 255 255 255 255 255 255 255 255 255 255 255 255 255 255 255 255 255 255 255 255 255 255 255 255 255 255 255 255 255 255 255 255 255 255 255 255 255 255 255 255 255 255 255 255 255 255 255 255 255 255 255 255 255 255 255 255 255 255 255 255 255 255 255 255 255 255 255 255 112 24 144 192 88 200 192 88 200 16 16 16 16 72 112 16 72 112 16 72 112 32 104 144 32 104 144 32 104 144 16 72 112 255 255 255 255 255 255 255 255 255 255 255 255 255 255 255 255 255 255 255 255 255 
255 255 255 255 255 255 255 255 255 255 255 255 255 255 255 16 72 112 72 152 184 32 104 144 32 104 144 16 16 16 192 88 200 192 88 200 192 88 200 112 24 144 152 56 176 192 88 200 152 56 176 112 24 144 255 255 255 255 255 255 255 255 255 255 255 255 255 255 255 255 255 255 255 255 255 255 255 255 255 255 255 255 255 255 255 255 255 255 255 255 255 255 255 255 255 255 255 255 255 255 255 255 255 255 255 255 255 255 255 255 255 255 255 255 255 255 255 255 255 255 255 255 255 255 255 255 255 255 255 255 255 255 255 255 255 255 255 255 152 56 176 192 88 200 192 88 200 16 72 112 16 72 112 16 72 112 16 72 112 32 104 144 32 104 144 32 104 144 16 72 112 255 255 255 255 255 255 255 255 255 255 255 255 255 255 255 255 255 255 255 255 255 
255 255 255 255 255 255 255 255 255 255 255 255 255 255 255 255 255 255 16 72 112 72 152 184 32 104 144 32 104 144 16 16 16 192 88 200 192 88 200 192 88 200 192 88 200 192 88 200 112 24 144 112 24 144 16 16 16 255 255 255 255 255 255 255 255 255 255 255 255 255 255 255 255 255 255 255 255 255 255 255 255 255 255 255 255 255 255 255 255 255 255 255 255 255 255 255 255 255 255 255 255 255 255 255 255 255 255 255 255 255 255 255 255 255 255 255 255 255 255 255 255 255 255 255 255 255 255 255 255 255 255 255 255 255 255 255 255 255 152 56 176 192 88 200 192 88 200 16 72 112 16 72 112 16 72 112 16 16 16 32 104 144 32 104 144 16 72 112 255 255 255 255 255 255 255 255 255 255 255 255 255 255 255 255 255 255 255 255 255 255 255 255 
255 255 255 255 255 255 255 255 255 255 255 255 255 255 255 255 255 255 16 72 112 72 152 184 72 152 184 32 104 144 32 104 144 16 16 16 192 88 200 192 88 200 192 88 200 192 88 200 192 88 200 192 88 200 16 16 16 255 255 255 255 255 255 255 255 255 255 255 255 255 255 255 255 255 255 255 255 255 255 255 255 255 255 255 255 255 255 255 255 255 255 255 255 255 255 255 255 255 255 255 255 255 255 255 255 255 255 255 255 255 255 255 255 255 255 255 255 255 255 255 255 255 255 255 255 255 255 255 255 255 255 255 255 255 255 255 255 255 152 56 176 192 88 200 16 16 16 16 72 112 16 72 112 112 24 144 16 16 16 32 104 144 32 104 144 16 72 112 255 255 255 255 255 255 255 255 255 255 255 255 255 255 255 255 255 255 255 255 255 255 255 255 
255 255 255 255 255 255 255 255 255 255 255 255 255 255 255 255 255 255 255 255 255 16 72 112 72 152 184 72 152 184 32 104 144 32 104 144 16 16 16 192 88 200 192 88 200 192 88 200 152 56 176 16 16 16 255 255 255 255 255 255 255 255 255 255 255 255 255 255 255 255 255 255 255 255 255 255 255 255 255 255 255 255 255 255 255 255 255 255 255 255 255 255 255 255 255 255 255 255 255 255 255 255 255 255 255 255 255 255 255 255 255 255 255 255 255 255 255 255 255 255 255 255 255 255 255 255 255 255 255 255 255 255 255 255 255 112 24 144 152 56 176 192 88 200 16 16 16 16 72 112 16 72 112 112 24 144 16 16 16 16 16 16 32 104 144 16 72 112 255 255 255 255 255 255 255 255 255 255 255 255 255 255 255 255 255 255 255 255 255 255 255 255 
255 255 255 255 255 255 255 255 255 255 255 255 255 255 255 255 255 255 255 255 255 16 72 112 72 152 184 72 152 184 72 152 184 32 104 144 32 104 144 16 16 16 192 88 200 192 88 200 16 16 16 16 16 16 255 255 255 255 255 255 255 255 255 255 255 255 255 255 255 255 255 255 255 255 255 255 255 255 255 255 255 255 255 255 255 255 255 255 255 255 255 255 255 255 255 255 255 255 255 255 255 255 255 255 255 255 255 255 255 255 255 255 255 255 255 255 255 255 255 255 255 255 255 255 255 255 255 255 255 255 255 255 255 255 255 112 24 144 152 56 176 192 88 200 16 72 112 16 72 112 16 72 112 16 72 112 112 24 144 16 16 16 32 104 144 16 16 16 255 255 255 255 255 255 255 255 255 255 255 255 255 255 255 255 255 255 255 255 255 255 255 255 
255 255 255 255 255 255 255 255 255 255 255 255 255 255 255 255 255 255 255 255 255 255 255 255 16 72 112 72 152 184 72 152 184 32 104 144 32 104 144 32 104 144 16 16 16 192 88 200 192 88 200 16 16 16 255 255 255 255 255 255 255 255 255 255 255 255 255 255 255 255 255 255 255 255 255 255 255 255 255 255 255 255 255 255 255 255 255 255 255 255 255 255 255 255 255 255 255 255 255 255 255 255 255 255 255 255 255 255 255 255 255 255 255 255 255 255 255 255 255 255 112 24 144 255 255 255 255 255 255 255 255 255 255 255 255 112 24 144 192 88 200 192 88 200 16 72 112 16 72 112 16 72 112 16 72 112 112 24 144 16 16 16 32 104 144 16 16 16 255 255 255 255 255 255 255 255 255 255 255 255 255 255 255 255 255 255 255 255 255 255 255 255 
255 255 255 255 255 255 255 255 255 255 255 255 255 255 255 255 255 255 255 255 255 255 255 255 16 72 112 72 152 184 72 152 184 72 152 184 32 104 144 32 104 144 32 104 144 192 88 200 192 88 200 112 24 144 255 255 255 255 255 255 255 255 255 255 255 255 255 255 255 255 255 255 255 255 255 255 255 255 255 255 255 255 255 255 255 255 255 255 255 255 255 255 255 255 255 255 255 255 255 255 255 255 255 255 255 255 255 255 255 255 255 255 255 255 255 255 255 112 24 144 224 136 240 112 24 144 255 255 255 255 255 255 255 255 255 112 24 144 192 88 200 152 56 176 16 72 112 16 72 112 16 72 112 32 104 144 16 72 112 112 24 144 16 16 16 16 16 16 255 255 255 255 255 255 255 255 255 255 255 255 255 255 255 255 255 255 255 255 255 255 255 255 
255 255 255 255 255 255 255 255 255 255 255 255 255 255 255 255 255 255 255 255 255 255 255 255 255 255 255 16 72 112 72 152 184 72 152 184 32 104 144 32 104 144 32 104 144 16 16 16 192 88 200 192 88 200 16 16 16 255 255 255 255 255 255 255 255 255 255 255 255 255 255 255 255 255 255 255 255 255 255 255 255 255 255 255 255 255 255 255 255 255 255 255 255 255 255 255 255 255 255 255 255 255 255 255 255 255 255 255 255 255 255 255 255 255 255 255 255 112 24 144 224 136 240 112 24 144 255 255 255 255 255 255 255 255 255 112 24 144 192 88 200 112 24 144 16 72 112 16 72 112 32 104 144 32 104 144 32 104 144 112 24 144 16 16 16 16 16 16 255 255 255 255 255 255 255 255 255 255 255 255 255 255 255 255 255 255 255 255 255 255 255 255 
255 255 255 255 255 255 255 255 255 255 255 255 255 255 255 255 255 255 255 255 255 255 255 255 255 255 255 16 72 112 72 152 184 72 152 184 72 152 184 32 104 144 32 104 144 32 104 144 192 88 200 192 88 200 112 24 144 255 255 255 255 255 255 255 255 255 255 255 255 255 255 255 255 255 255 255 255 255 255 255 255 255 255 255 255 255 255 255 255 255 255 255 255 255 255 255 255 255 255 255 255 255 255 255 255 255 255 255 255 255 255 255 255 255 152 56 176 224 136 240 192 88 200 112 24 144 255 255 255 255 255 255 255 255 255 112 24 144 192 88 200 112 24 144 16 72 112 16 72 112 32 104 144 32 104 144 32 104 144 32 104 144 16 72 112 16 16 16 255 255 255 255 255 255 255 255 255 255 255 255 255 255 255 255 255 255 255 255 255 255 255 255 
255 255 255 255 255 255 255 255 255 255 255 255 255 255 255 255 255 255 255 255 255 255 255 255 255 255 255 16 72 112 72 152 184 72 152 184 72 152 184 32 104 144 32 104 144 32 104 144 16 16 16 192 88 200 152 56 176 16 16 16 255 255 255 255 255 255 255 255 255 255 255 255 255 255 255 255 255 255 255 255 255 255 255 255 255 255 255 255 255 255 255 255 255 255 255 255 255 255 255 255 255 255 255 255 255 255 255 255 255 255 255 255 255 255 112 24 144 224 136 240 192 88 200 16 16 16 255 255 255 255 255 255 255 255 255 112 24 144 192 88 200 16 72 112 16 72 112 16 72 112 32 104 144 32 104 144 32 104 144 32 104 144 32 104 144 16 16 16 16 16 16 255 255 255 255 255 255 255 255 255 255 255 255 255 255 255 255 255 255 255 255 255 
255 255 255 255 255 255 255 255 255 255 255 255 255 255 255 255 255 255 255 255 255 255 255 255 255 255 255 255 255 255 16 72 112 72 152 184 72 152 184 32 104 144 32 104 144 32 104 144 32 104 144 192 88 200 192 88 200 16 16 16 255 255 255 255 255 255 255 255 255 152 56 176 152 56 176 112 24 144 255 255 255 255 255 255 255 255 255 255 255 255 255 255 255 255 255 255 255 255 255 255 255 255 255 255 255 255 255 255 255 255 255 255 255 255 152 56 176 192 88 200 152 56 176 16 16 16 255 255 255 255 255 255 255 255 255 112 24 144 192 88 200 16 72 112 16 72 112 32 104 144 32 104 144 32 104 144 32 104 144 32 104 144 32 104 144 16 72 112 16 16 16 255 255 255 255 255 255 255 255 255 255 255 255 255 255 255 255 255 255 255 255 255 
255 255 255 255 255 255 255 255 255 255 255 255 255 255 255 255 255 255 255 255 255 255 255 255 255 255 255 255 255 255 16 72 112 72 152 184 72 152 184 16 72 112 32 104 144 32 104 144 32 104 144 112 24 144 192 88 200 112 24 144 255 255 255 255 255 255 255 255 255 152 56 176 224 136 240 152 56 176 112 24 144 255 255 255 255 255 255 255 255 255 255 255 255 255 255 255 255 255 255 255 255 255 255 255 255 255 255 255 255 255 255 112 24 144 192 88 200 192 88 200 152 56 176 16 16 16 255 255 255 255 255 255 255 255 255 112 24 144 192 88 200 16 72 112 16 72 112 32 104 144 32 104 144 32 104 144 32 104 144 16 72 112 16 16 16 255 255 255 255 255 255 255 255 255 255 255 255 255 255 255 255 255 255 255 255 255 255 255 255 255 255 255 
255 255 255 255 255 255 255 255 255 255 255 255 255 255 255 255 255 255 255 255 255 255 255 255 255 255 255 255 255 255 255 255 255 16 72 112 72 152 184 16 72 112 32 104 144 32 104 144 32 104 144 112 24 144 192 88 200 152 56 176 16 16 16 255 255 255 255 255 255 152 56 176 224 136 240 224 136 240 152 56 176 16 16 16 255 255 255 255 255 255 255 255 255 255 255 255 255 255 255 255 255 255 255 255 255 255 255 255 255 255 255 152 56 176 192 88 200 192 88 200 152 56 176 16 16 16 255 255 255 255 255 255 255 255 255 112 24 144 192 88 200 16 72 112 16 72 112 32 104 144 32 104 144 16 72 112 16 16 16 255 255 255 255 255 255 255 255 255 255 255 255 255 255 255 255 255 255 255 255 255 255 255 255 255 255 255 255 255 255 255 255 255 
255 255 255 255 255 255 255 255 255 255 255 255 255 255 255 255 255 255 255 255 255 255 255 255 255 255 255 255 255 255 255 255 255 16 72 112 72 152 184 16 72 112 32 104 144 32 104 144 32 104 144 32 104 144 192 88 200 192 88 200 16 16 16 255 255 255 255 255 255 255 255 255 152 56 176 224 136 240 224 136 240 152 56 176 16 16 16 255 255 255 255 255 255 255 255 255 255 255 255 255 255 255 255 255 255 255 255 255 112 24 144 192 88 200 192 88 200 192 88 200 152 56 176 16 16 16 255 255 255 255 255 255 255 255 255 112 24 144 192 88 200 16 72 112 16 72 112 32 104 144 16 72 112 16 16 16 255 255 255 255 255 255 255 255 255 255 255 255 255 255 255 255 255 255 255 255 255 255 255 255 255 255 255 255 255 255 255 255 255 255 255 255 
255 255 255 255 255 255 255 255 255 255 255 255 255 255 255 255 255 255 255 255 255 255 255 255 255 255 255 255 255 255 255 255 255 16 72 112 72 152 184 16 16 16 72 152 184 72 152 184 32 104 144 32 104 144 112 24 144 192 88 200 112 24 144 255 255 255 255 255 255 255 255 255 255 255 255 112 24 144 224 136 240 192 88 200 152 56 176 16 16 16 255 255 255 255 255 255 255 255 255 255 255 255 255 255 255 112 24 144 152 56 176 192 88 200 192 88 200 192 88 200 112 24 144 16 16 16 255 255 255 255 255 255 255 255 255 112 24 144 192 88 200 16 72 112 32 104 144 16 72 112 16 16 16 255 255 255 255 255 255 255 255 255 255 255 255 255 255 255 255 255 255 255 255 255 255 255 255 255 255 255 255 255 255 255 255 255 255 255 255 255 255 255 
255 255 255 255 255 255 255 255 255 255 255 255 255 255 255 255 255 255 255 255 255 255 255 255 255 255 255 255 255 255 255 255 255 255 255 255 16 72 112 16 16 16 72 152 184 72 152 184 72 152 184 32 104 144 112 24 144 192 88 200 152 56 176 16 16 16 255 255 255 255 255 255 255 255 255 152 56 176 192 88 200 192 88 200 192 88 200 152 56 176 16 16 16 255 255 255 112 24 144 112 24 144 152 56 176 152 56 176 192 88 200 192 88 200 192 88 200 192 88 200 192 88 200 112 24 144 255 255 255 255 255 255 255 255 255 112 24 144 192 88 200 16 72 112 16 72 112 16 16 16 255 255 255 255 255 255 255 255 255 255 255 255 255 255 255 255 255 255 255 255 255 255 255 255 255 255 255 255 255 255 255 255 255 255 255 255 255 255 255 255 255 255 
255 255 255 255 255 255 255 255 255 255 255 255 255 255 255 255 255 255 255 255 255 255 255 255 255 255 255 255 255 255 255 255 255 255 255 255 16 72 112 72 152 184 72 152 184 72 152 184 72 152 184 32 104 144 32 104 144 192 88 200 192 88 200 112 24 144 255 255 255 255 255 255 255 255 255 255 255 255 112 24 144 192 88 200 192 88 200 192 88 200 152 56 176 112 24 144 192 88 200 192 88 200 192 88 200 192 88 200 192 88 200 192 88 200 192 88 200 16 16 16 192 88 200 152 56 176 16 16 16 255 255 255 112 24 144 152 56 176 192 88 200 16 72 112 16 16 16 255 255 255 255 255 255 255 255 255 255 255 255 255 255 255 255 255 255 255 255 255 255 255 255 255 255 255 255 255 255 255 255 255 255 255 255 255 255 255 255 255 255 255 255 255 
255 255 255 255 255 255 255 255 255 255 255 255 255 255 255 255 255 255 255 255 255 255 255 255 255 255 255 255 255 255 255 255 255 255 255 255 16 72 112 72 152 184 72 152 184 72 152 184 72 152 184 72 152 184 32 104 144 112 24 144 192 88 200 152 56 176 255 255 255 255 255 255 255 255 255 255 255 255 152 56 176 152 56 176 192 88 200 192 88 200 192 88 200 224 136 240 224 136 240 224 136 240 192 88 200 192 88 200 192 88 200 192 88 200 16 16 16 248 208 0 16 16 16 152 56 176 152 56 176 112 24 144 112 24 144 192 88 200 152 56 176 112 24 144 255 255 255 255 255 255 255 255 255 255 255 255 255 255 255 255 255 255 255 255 255 255 255 255 255 255 255 255 255 255 255 255 255 255 255 255 255 255 255 255 255 255 255 255 255 255 255 255 
255 255 255 255 255 255 255 255 255 255 255 255 255 255 255 255 255 255 255 255 255 255 255 255 255 255 255 255 255 255 255 255 255 255 255 255 16 72 112 16 72 112 16 72 112 72 152 184 72 152 184 72 152 184 72 152 184 16 72 112 192 88 200 192 88 200 112 24 144 255 255 255 255 255 255 255 255 255 255 255 255 112 24 144 192 88 200 192 88 200 224 136 240 224 136 240 224 136 240 192 88 200 192 88 200 192 88 200 192 88 200 16 16 16 248 208 0 248 208 0 16 16 16 192 88 200 152 56 176 112 24 144 152 56 176 192 88 200 16 16 16 255 255 255 255 255 255 255 255 255 255 255 255 255 255 255 255 255 255 255 255 255 255 255 255 255 255 255 255 255 255 255 255 255 255 255 255 255 255 255 255 255 255 255 255 255 255 255 255 255 255 255 
255 255 255 255 255 255 255 255 255 255 255 255 255 255 255 255 255 255 255 255 255 255 255 255 255 255 255 255 255 255 255 255 255 255 255 255 255 255 255 255 255 255 255 255 255 16 72 112 16 16 16 16 16 16 72 152 184 72 152 184 16 72 112 192 88 200 152 56 176 112 24 144 255 255 255 255 255 255 255 255 255 255 255 255 152 56 176 16 16 16 192 88 200 224 136 240 192 88 200 192 88 200 192 88 200 192 88 200 192 88 200 248 208 0 16 16 16 204 153 0 192 88 200 192 88 200 112 24 144 152 56 176 192 88 200 16 16 16 255 255 255 255 255 255 255 255 255 255 255 255 255 255 255 255 255 255 255 255 255 255 255 255 255 255 255 255 255 255 255 255 255 255 255 255 255 255 255 255 255 255 255 255 255 255 255 255 255 255 255 255 255 255 
255 255 255 255 255 255 255 255 255 255 255 255 255 255 255 255 255 255 255 255 255 255 255 255 255 255 255 255 255 255 255 255 255 255 255 255 255 255 255 255 255 255 255 255 255 255 255 255 255 255 255 255 255 255 16 16 16 16 16 16 72 152 184 16 72 112 192 88 200 152 56 176 16 16 16 255 255 255 255 255 255 255 255 255 152 56 176 248 208 0 248 208 0 16 16 16 192 88 200 192 88 200 16 16 16 16 16 16 112 24 144 152 56 176 192 88 200 192 88 200 192 88 200 192 88 200 192 88 200 192 88 200 16 16 16 255 255 255 255 255 255 255 255 255 255 255 255 255 255 255 255 255 255 255 255 255 255 255 255 255 255 255 255 255 255 255 255 255 255 255 255 255 255 255 255 255 255 255 255 255 255 255 255 255 255 255 255 255 255 255 255 255 
255 255 255 255 255 255 255 255 255 255 255 255 255 255 255 255 255 255 255 255 255 255 255 255 255 255 255 255 255 255 255 255 255 255 255 255 255 255 255 255 255 255 255 255 255 255 255 255 255 255 255 255 255 255 255 255 255 255 255 255 16 16 16 16 16 16 16 72 112 192 88 200 152 56 176 16 16 16 255 255 255 255 255 255 152 56 176 204 153 0 16 16 16 248 208 0 224 136 240 16 16 16 248 248 248 248 248 248 248 248 248 248 248 248 112 24 144 112 24 144 192 88 200 192 88 200 192 88 200 112 24 144 112 24 144 255 255 255 255 255 255 255 255 255 255 255 255 255 255 255 255 255 255 255 255 255 255 255 255 255 255 255 255 255 255 255 255 255 255 255 255 255 255 255 255 255 255 255 255 255 255 255 255 255 255 255 255 255 255 255 255 255 
255 255 255 255 255 255 255 255 255 255 255 255 255 255 255 255 255 255 255 255 255 255 255 255 255 255 255 255 255 255 255 255 255 255 255 255 255 255 255 255 255 255 255 255 255 255 255 255 255 255 255 255 255 255 255 255 255 255 255 255 255 255 255 255 255 255 16 16 16 16 16 16 192 88 200 152 56 176 16 16 16 255 255 255 112 24 144 192 88 200 192 88 200 192 88 200 16 16 16 248 248 248 248 248 248 248 248 248 248 248 248 153 153 153 248 248 248 248 248 248 16 16 16 152 56 176 192 88 200 152 56 176 112 24 144 112 24 144 112 24 144 112 24 144 255 255 255 255 255 255 255 255 255 255 255 255 255 255 255 255 255 255 255 255 255 255 255 255 255 255 255 255 255 255 255 255 255 255 255 255 255 255 255 255 255 255 255 255 255 255 255 255 
255 255 255 255 255 255 255 255 255 255 255 255 255 255 255 255 255 255 255 255 255 255 255 255 255 255 255 255 255 255 255 255 255 255 255 255 255 255 255 255 255 255 255 255 255 255 255 255 255 255 255 255 255 255 255 255 255 255 255 255 255 255 255 255 255 255 255 255 255 255 255 255 16 16 16 192 88 200 192 88 200 112 24 144 112 24 144 192 88 200 192 88 200 16 16 16 248 248 248 153 153 153 248 248 248 248 248 248 224 136 240 112 24 144 16 16 16 16 16 16 192 88 200 192 88 200 192 88 200 192 88 200 192 88 200 192 88 200 192 88 200 152 56 176 112 24 144 112 24 144 255 255 255 255 255 255 255 255 255 255 255 255 255 255 255 255 255 255 255 255 255 255 255 255 255 255 255 255 255 255 255 255 255 255 255 255 255 255 255 255 255 255 
255 255 255 255 255 255 255 255 255 255 255 255 255 255 255 255 255 255 255 255 255 255 255 255 255 255 255 255 255 255 255 255 255 255 255 255 255 255 255 255 255 255 255 255 255 255 255 255 255 255 255 255 255 255 255 255 255 255 255 255 255 255 255 255 255 255 255 255 255 255 255 255 255 255 255 16 16 16 112 24 144 192 88 200 112 24 144 192 88 200 152 56 176 224 136 240 248 248 248 102 102 102 112 24 144 16 16 16 16 16 16 192 88 200 192 88 200 192 88 200 192 88 200 192 88 200 192 88 200 192 88 200 152 56 176 152 56 176 192 88 200 192 88 200 192 88 200 152 56 176 112 24 144 112 24 144 255 255 255 255 255 255 255 255 255 255 255 255 255 255 255 255 255 255 255 255 255 255 255 255 255 255 255 255 255 255 255 255 255 255 255 255 
255 255 255 255 255 255 255 255 255 255 255 255 255 255 255 255 255 255 255 255 255 255 255 255 255 255 255 255 255 255 255 255 255 255 255 255 255 255 255 255 255 255 255 255 255 255 255 255 255 255 255 255 255 255 255 255 255 255 255 255 255 255 255 255 255 255 255 255 255 255 255 255 255 255 255 255 255 255 255 255 255 112 24 144 112 24 144 152 56 176 152 56 176 112 24 144 16 16 16 192 88 200 192 88 200 192 88 200 192 88 200 192 88 200 192 88 200 192 88 200 192 88 200 192 88 200 192 88 200 152 56 176 152 56 176 16 16 16 112 24 144 112 24 144 152 56 176 152 56 176 152 56 176 152 56 176 112 24 144 112 24 144 255 255 255 255 255 255 255 255 255 255 255 255 255 255 255 255 255 255 255 255 255 255 255 255 255 255 255 255 255 255 
255 255 255 255 255 255 255 255 255 255 255 255 255 255 255 255 255 255 255 255 255 255 255 255 255 255 255 255 255 255 255 255 255 255 255 255 255 255 255 255 255 255 255 255 255 255 255 255 255 255 255 255 255 255 255 255 255 255 255 255 255 255 255 255 255 255 255 255 255 255 255 255 255 255 255 255 255 255 255 255 255 255 255 255 112 24 144 112 24 144 192 88 200 192 88 200 192 88 200 192 88 200 192 88 200 192 88 200 192 88 200 192 88 200 192 88 200 192 88 200 192 88 200 192 88 200 192 88 200 152 56 176 152 56 176 16 16 16 255 255 255 255 255 255 112 24 144 112 24 144 152 56 176 152 56 176 152 56 176 152 56 176 112 24 144 112 24 144 255 255 255 255 255 255 255 255 255 255 255 255 255 255 255 255 255 255 255 255 255 255 255 255 
255 255 255 255 255 255 255 255 255 255 255 255 255 255 255 255 255 255 255 255 255 255 255 255 255 255 255 255 255 255 255 255 255 255 255 255 255 255 255 255 255 255 255 255 255 255 255 255 255 255 255 255 255 255 255 255 255 255 255 255 255 255 255 255 255 255 255 255 255 255 255 255 255 255 255 255 255 255 255 255 255 112 24 144 152 56 176 112 24 144 192 88 200 192 88 200 192 88 200 192 88 200 192 88 200 192 88 200 192 88 200 192 88 200 192 88 200 192 88 200 192 88 200 192 88 200 192 88 200 152 56 176 152 56 176 16 16 16 255 255 255 255 255 255 255 255 255 255 255 255 112 24 144 112 24 144 152 56 176 192 88 200 152 56 176 152 56 176 112 24 144 255 255 255 255 255 255 255 255 255 255 255 255 255 255 255 255 255 255 255 255 255 
255 255 255 255 255 255 255 255 255 255 255 255 255 255 255 255 255 255 255 255 255 255 255 255 255 255 255 255 255 255 255 255 255 255 255 255 255 255 255 255 255 255 255 255 255 255 255 255 255 255 255 255 255 255 255 255 255 255 255 255 255 255 255 255 255 255 255 255 255 255 255 255 255 255 255 255 255 255 112 24 144 192 88 200 152 56 176 112 24 144 192 88 200 192 88 200 192 88 200 192 88 200 192 88 200 192 88 200 192 88 200 192 88 200 192 88 200 192 88 200 192 88 200 192 88 200 152 56 176 152 56 176 152 56 176 16 16 16 255 255 255 255 255 255 255 255 255 255 255 255 255 255 255 112 24 144 112 24 144 152 56 176 192 88 200 192 88 200 152 56 176 112 24 144 255 255 255 255 255 255 255 255 255 255 255 255 255 255 255 255 255 255 
255 255 255 255 255 255 255 255 255 255 255 255 255 255 255 255 255 255 255 255 255 255 255 255 255 255 255 255 255 255 255 255 255 255 255 255 255 255 255 255 255 255 255 255 255 255 255 255 255 255 255 255 255 255 255 255 255 255 255 255 255 255 255 255 255 255 255 255 255 255 255 255 255 255 255 112 24 144 192 88 200 152 56 176 16 16 16 112 24 144 192 88 200 192 88 200 192 88 200 192 88 200 192 88 200 192 88 200 192 88 200 192 88 200 192 88 200 192 88 200 192 88 200 192 88 200 152 56 176 152 56 176 112 24 144 16 16 16 255 255 255 255 255 255 255 255 255 255 255 255 255 255 255 255 255 255 112 24 144 152 56 176 152 56 176 192 88 200 192 88 200 152 56 176 16 16 16 255 255 255 255 255 255 255 255 255 255 255 255 255 255 255 
255 255 255 255 255 255 255 255 255 255 255 255 255 255 255 255 255 255 255 255 255 255 255 255 255 255 255 255 255 255 255 255 255 255 255 255 255 255 255 255 255 255 255 255 255 255 255 255 255 255 255 255 255 255 255 255 255 255 255 255 255 255 255 255 255 255 255 255 255 255 255 255 152 56 176 192 88 200 152 56 176 16 16 16 255 255 255 255 255 255 112 24 144 192 88 200 192 88 200 192 88 200 192 88 200 192 88 200 192 88 200 192 88 200 192 88 200 192 88 200 192 88 200 152 56 176 152 56 176 152 56 176 16 16 16 255 255 255 255 255 255 255 255 255 255 255 255 255 255 255 255 255 255 255 255 255 255 255 255 112 24 144 152 56 176 192 88 200 192 88 200 192 88 200 152 56 176 16 16 16 255 255 255 255 255 255 255 255 255 255 255 255 
255 255 255 255 255 255 255 255 255 255 255 255 255 255 255 255 255 255 255 255 255 255 255 255 255 255 255 255 255 255 255 255 255 255 255 255 255 255 255 255 255 255 255 255 255 255 255 255 255 255 255 255 255 255 255 255 255 255 255 255 255 255 255 255 255 255 255 255 255 152 56 176 192 88 200 192 88 200 16 16 16 255 255 255 255 255 255 255 255 255 112 24 144 152 56 176 192 88 200 192 88 200 192 88 200 192 88 200 192 88 200 192 88 200 192 88 200 192 88 200 152 56 176 152 56 176 152 56 176 112 24 144 16 16 16 255 255 255 255 255 255 255 255 255 255 255 255 255 255 255 255 255 255 255 255 255 255 255 255 112 24 144 152 56 176 152 56 176 192 88 200 192 88 200 192 88 200 152 56 176 16 16 16 255 255 255 255 255 255 255 255 255 
255 255 255 255 255 255 255 255 255 255 255 255 255 255 255 255 255 255 255 255 255 255 255 255 255 255 255 255 255 255 255 255 255 255 255 255 255 255 255 255 255 255 255 255 255 255 255 255 255 255 255 255 255 255 255 255 255 255 255 255 255 255 255 255 255 255 152 56 176 192 88 200 192 88 200 152 56 176 112 24 144 255 255 255 255 255 255 255 255 255 255 255 255 112 24 144 152 56 176 192 88 200 192 88 200 192 88 200 192 88 200 192 88 200 152 56 176 152 56 176 152 56 176 152 56 176 112 24 144 16 16 16 255 255 255 255 255 255 255 255 255 255 255 255 255 255 255 255 255 255 255 255 255 255 255 255 255 255 255 112 24 144 152 56 176 152 56 176 152 56 176 192 88 200 192 88 200 192 88 200 112 24 144 255 255 255 255 255 255 255 255 255 
255 255 255 255 255 255 255 255 255 255 255 255 255 255 255 255 255 255 255 255 255 255 255 255 255 255 255 255 255 255 255 255 255 255 255 255 255 255 255 255 255 255 255 255 255 255 255 255 255 255 255 255 255 255 255 255 255 255 255 255 255 255 255 112 24 144 224 136 240 192 88 200 152 56 176 16 16 16 255 255 255 255 255 255 255 255 255 255 255 255 255 255 255 255 255 255 112 24 144 152 56 176 152 56 176 152 56 176 152 56 176 152 56 176 152 56 176 152 56 176 152 56 176 112 24 144 16 16 16 255 255 255 255 255 255 255 255 255 255 255 255 255 255 255 255 255 255 255 255 255 255 255 255 255 255 255 255 255 255 112 24 144 152 56 176 152 56 176 152 56 176 152 56 176 192 88 200 192 88 200 152 56 176 16 16 16 255 255 255 255 255 255 
255 255 255 255 255 255 255 255 255 255 255 255 255 255 255 255 255 255 255 255 255 255 255 255 255 255 255 255 255 255 255 255 255 255 255 255 255 255 255 255 255 255 255 255 255 255 255 255 255 255 255 255 255 255 255 255 255 255 255 255 255 255 255 152 56 176 224 136 240 192 88 200 152 56 176 16 16 16 255 255 255 255 255 255 255 255 255 255 255 255 255 255 255 255 255 255 255 255 255 112 24 144 112 24 144 152 56 176 152 56 176 152 56 176 112 24 144 112 24 144 16 16 16 16 16 16 255 255 255 255 255 255 255 255 255 255 255 255 255 255 255 255 255 255 255 255 255 255 255 255 255 255 255 255 255 255 255 255 255 112 24 144 152 56 176 152 56 176 152 56 176 152 56 176 152 56 176 192 88 200 192 88 200 112 24 144 255 255 255 255 255 255 
255 255 255 255 255 255 255 255 255 255 255 255 255 255 255 255 255 255 255 255 255 255 255 255 255 255 255 255 255 255 255 255 255 255 255 255 255 255 255 255 255 255 255 255 255 255 255 255 255 255 255 255 255 255 255 255 255 255 255 255 112 24 144 224 136 240 192 88 200 152 56 176 152 56 176 16 16 16 255 255 255 255 255 255 255 255 255 255 255 255 255 255 255 255 255 255 255 255 255 255 255 255 255 255 255 112 24 144 16 16 16 16 16 16 16 16 16 16 16 16 255 255 255 255 255 255 255 255 255 255 255 255 255 255 255 255 255 255 255 255 255 255 255 255 255 255 255 255 255 255 255 255 255 255 255 255 255 255 255 112 24 144 112 24 144 112 24 144 16 16 16 152 56 176 152 56 176 152 56 176 192 88 200 152 56 176 112 24 144 255 255 255 
255 255 255 255 255 255 255 255 255 255 255 255 255 255 255 255 255 255 255 255 255 255 255 255 255 255 255 255 255 255 255 255 255 255 255 255 255 255 255 255 255 255 255 255 255 255 255 255 255 255 255 255 255 255 255 255 255 255 255 255 152 56 176 224 136 240 192 88 200 152 56 176 152 56 176 16 16 16 255 255 255 255 255 255 255 255 255 255 255 255 255 255 255 255 255 255 255 255 255 255 255 255 255 255 255 255 255 255 255 255 255 255 255 255 255 255 255 255 255 255 255 255 255 255 255 255 255 255 255 255 255 255 255 255 255 255 255 255 255 255 255 255 255 255 255 255 255 255 255 255 255 255 255 255 255 255 255 255 255 16 16 16 16 16 16 255 255 255 255 255 255 16 16 16 152 56 176 152 56 176 152 56 176 152 56 176 16 16 16 255 255 255 
255 255 255 255 255 255 255 255 255 255 255 255 255 255 255 255 255 255 255 255 255 255 255 255 255 255 255 255 255 255 255 255 255 255 255 255 255 255 255 255 255 255 255 255 255 255 255 255 255 255 255 255 255 255 255 255 255 112 24 144 224 136 240 192 88 200 192 88 200 152 56 176 152 56 176 112 24 144 255 255 255 255 255 255 255 255 255 255 255 255 255 255 255 255 255 255 255 255 255 255 255 255 255 255 255 255 255 255 255 255 255 255 255 255 255 255 255 255 255 255 255 255 255 255 255 255 255 255 255 255 255 255 255 255 255 255 255 255 255 255 255 255 255 255 255 255 255 255 255 255 255 255 255 255 255 255 255 255 255 255 255 255 255 255 255 255 255 255 255 255 255 255 255 255 16 16 16 152 56 176 152 56 176 152 56 176 16 16 16 255 255 255 
255 255 255 255 255 255 255 255 255 255 255 255 255 255 255 255 255 255 255 255 255 255 255 255 255 255 255 255 255 255 255 255 255 255 255 255 255 255 255 255 255 255 255 255 255 255 255 255 255 255 255 255 255 255 255 255 255 112 24 144 224 136 240 192 88 200 152 56 176 152 56 176 152 56 176 112 24 144 16 16 16 255 255 255 255 255 255 255 255 255 255 255 255 255 255 255 255 255 255 255 255 255 255 255 255 255 255 255 255 255 255 255 255 255 255 255 255 255 255 255 255 255 255 255 255 255 255 255 255 255 255 255 255 255 255 255 255 255 255 255 255 255 255 255 255 255 255 255 255 255 255 255 255 255 255 255 255 255 255 255 255 255 255 255 255 255 255 255 255 255 255 255 255 255 255 255 255 16 16 16 112 24 144 152 56 176 16 16 16 255 255 255 
255 255 255 255 255 255 255 255 255 255 255 255 255 255 255 255 255 255 255 255 255 255 255 255 255 255 255 255 255 255 255 255 255 255 255 255 255 255 255 255 255 255 255 255 255 255 255 255 255 255 255 255 255 255 255 255 255 152 56 176 192 88 200 192 88 200 152 56 176 152 56 176 152 56 176 112 24 144 112 24 144 16 16 16 255 255 255 255 255 255 255 255 255 255 255 255 255 255 255 255 255 255 255 255 255 255 255 255 255 255 255 255 255 255 255 255 255 255 255 255 255 255 255 255 255 255 255 255 255 255 255 255 255 255 255 255 255 255 255 255 255 255 255 255 255 255 255 255 255 255 255 255 255 255 255 255 255 255 255 255 255 255 255 255 255 255 255 255 255 255 255 255 255 255 255 255 255 255 255 255 16 16 16 152 56 176 16 16 16 255 255 255 
255 255 255 255 255 255 255 255 255 255 255 255 255 255 255 255 255 255 255 255 255 255 255 255 255 255 255 255 255 255 255 255 255 255 255 255 255 255 255 255 255 255 255 255 255 255 255 255 255 255 255 255 255 255 152 56 176 192 88 200 192 88 200 192 88 200 152 56 176 112 24 144 16 16 16 16 16 16 16 16 16 112 24 144 16 16 16 255 255 255 255 255 255 255 255 255 255 255 255 255 255 255 255 255 255 255 255 255 255 255 255 255 255 255 255 255 255 255 255 255 255 255 255 255 255 255 255 255 255 255 255 255 255 255 255 255 255 255 255 255 255 255 255 255 255 255 255 255 255 255 255 255 255 255 255 255 255 255 255 255 255 255 255 255 255 255 255 255 255 255 255 255 255 255 255 255 255 255 255 255 112 24 144 152 56 176 16 16 16 255 255 255 
255 255 255 255 255 255 255 255 255 255 255 255 255 255 255 255 255 255 255 255 255 255 255 255 255 255 255 255 255 255 255 255 255 255 255 255 255 255 255 255 255 255 255 255 255 255 255 255 255 255 255 255 255 255 152 56 176 192 88 200 192 88 200 112 24 144 112 24 144 16 16 16 255 255 255 255 255 255 255 255 255 16 16 16 16 16 16 255 255 255 255 255 255 255 255 255 255 255 255 255 255 255 255 255 255 255 255 255 255 255 255 255 255 255 255 255 255 255 255 255 255 255 255 255 255 255 255 255 255 255 255 255 255 255 255 255 255 255 255 255 255 255 255 255 255 255 255 255 255 255 255 255 255 255 255 255 255 255 255 255 255 255 255 255 255 255 255 255 255 255 255 255 255 255 255 255 255 255 255 255 255 255 255 16 16 16 112 24 144 255 255 255 
255 255 255 255 255 255 255 255 255 255 255 255 255 255 255 255 255 255 255 255 255 255 255 255 255 255 255 255 255 255 255 255 255 255 255 255 255 255 255 255 255 255 255 255 255 255 255 255 255 255 255 255 255 255 152 56 176 192 88 200 192 88 200 152 56 176 16 16 16 255 255 255 255 255 255 255 255 255 255 255 255 255 255 255 255 255 255 255 255 255 255 255 255 255 255 255 255 255 255 255 255 255 255 255 255 255 255 255 255 255 255 255 255 255 255 255 255 255 255 255 255 255 255 255 255 255 255 255 255 255 255 255 255 255 255 255 255 255 255 255 255 255 255 255 255 255 255 255 255 255 255 255 255 255 255 255 255 255 255 255 255 255 255 255 255 255 255 255 255 255 255 255 255 255 255 255 255 255 255 255 255 255 255 255 255 255 255 255 255 255 255 255 
255 255 255 255 255 255 255 255 255 255 255 255 255 255 255 255 255 255 255 255 255 255 255 255 255 255 255 255 255 255 255 255 255 255 255 255 255 255 255 255 255 255 255 255 255 255 255 255 255 255 255 255 255 255 152 56 176 192 88 200 192 88 200 16 16 16 255 255 255 255 255 255 255 255 255 255 255 255 255 255 255 255 255 255 255 255 255 255 255 255 255 255 255 255 255 255 255 255 255 255 255 255 255 255 255 255 255 255 255 255 255 255 255 255 255 255 255 255 255 255 255 255 255 255 255 255 255 255 255 255 255 255 255 255 255 255 255 255 255 255 255 255 255 255 255 255 255 255 255 255 255 255 255 255 255 255 255 255 255 255 255 255 255 255 255 255 255 255 255 255 255 255 255 255 255 255 255 255 255 255 255 255 255 255 255 255 255 255 255 255 255 255 
255 255 255 255 255 255 255 255 255 255 255 255 255 255 255 255 255 255 255 255 255 255 255 255 255 255 255 255 255 255 255 255 255 255 255 255 255 255 255 255 255 255 255 255 255 255 255 255 255 255 255 255 255 255 152 56 176 192 88 200 152 56 176 112 24 144 255 255 255 255 255 255 255 255 255 255 255 255 255 255 255 255 255 255 255 255 255 255 255 255 255 255 255 255 255 255 255 255 255 255 255 255 255 255 255 255 255 255 255 255 255 255 255 255 255 255 255 255 255 255 255 255 255 255 255 255 255 255 255 255 255 255 255 255 255 255 255 255 255 255 255 255 255 255 255 255 255 255 255 255 255 255 255 255 255 255 255 255 255 255 255 255 255 255 255 255 255 255 255 255 255 255 255 255 255 255 255 255 255 255 255 255 255 255 255 255 255 255 255 255 255 255 
255 255 255 255 255 255 255 255 255 255 255 255 255 255 255 255 255 255 255 255 255 255 255 255 255 255 255 255 255 255 255 255 255 255 255 255 255 255 255 255 255 255 255 255 255 255 255 255 255 255 255 255 255 255 112 24 144 192 88 200 16 16 16 255 255 255 255 255 255 255 255 255 255 255 255 255 255 255 255 255 255 255 255 255 255 255 255 255 255 255 255 255 255 255 255 255 255 255 255 255 255 255 255 255 255 255 255 255 255 255 255 255 255 255 255 255 255 255 255 255 255 255 255 255 255 255 255 255 255 255 255 255 255 255 255 255 255 255 255 255 255 255 255 255 255 255 255 255 255 255 255 255 255 255 255 255 255 255 255 255 255 255 255 255 255 255 255 255 255 255 255 255 255 255 255 255 255 255 255 255 255 255 255 255 255 255 255 255 255 255 255 255 
255 255 255 255 255 255 255 255 255 255 255 255 255 255 255 255 255 255 255 255 255 255 255 255 255 255 255 255 255 255 255 255 255 255 255 255 255 255 255 255 255 255 255 255 255 255 255 255 255 255 255 255 255 255 112 24 144 152 56 176 112 24 144 255 255 255 255 255 255 255 255 255 255 255 255 255 255 255 255 255 255 255 255 255 255 255 255 255 255 255 255 255 255 255 255 255 255 255 255 255 255 255 255 255 255 255 255 255 255 255 255 255 255 255 255 255 255 255 255 255 255 255 255 255 255 255 255 255 255 255 255 255 255 255 255 255 255 255 255 255 255 255 255 255 255 255 255 255 255 255 255 255 255 255 255 255 255 255 255 255 255 255 255 255 255 255 255 255 255 255 255 255 255 255 255 255 255 255 255 255 255 255 255 255 255 255 255 255 255 255 255 255 
255 255 255 255 255 255 255 255 255 255 255 255 255 255 255 255 255 255 255 255 255 255 255 255 255 255 255 255 255 255 255 255 255 255 255 255 255 255 255 255 255 255 255 255 255 255 255 255 255 255 255 255 255 255 112 24 144 112 24 144 255 255 255 255 255 255 255 255 255 255 255 255 255 255 255 255 255 255 255 255 255 255 255 255 255 255 255 255 255 255 255 255 255 255 255 255 255 255 255 255 255 255 255 255 255 255 255 255 255 255 255 255 255 255 255 255 255 255 255 255 255 255 255 255 255 255 255 255 255 255 255 255 255 255 255 255 255 255 255 255 255 255 255 255 255 255 255 255 255 255 255 255 255 255 255 255 255 255 255 255 255 255 255 255 255 255 255 255 255 255 255 255 255 255 255 255 255 255 255 255 255 255 255 255 255 255 255 255 255 255 255 255 
