P3
64 64
255
255 255 255 255 255 255 255 255 255 255 255 255 255 255 255 255 255 255 255 255 255 255 255 255 255 255 255 255 255 255 255 255 255 255 255 255 255 255 255 255 255 255 255 255 255 255 255 255 255 255 255 255 255 255 255 255 255 255 255 255 255 255 255 255 255 255 255 255 255 255 255 255 255 255 255 255 255 255 255 255 255 255 255 255 255 255 255 255 255 255 255 255 255 255 255 255 255 255 255 255 255 255 255 255 255 255 255 255 255 255 255 255 255 255 255 255 255 255 255 255 255 255 255 255 255 255 255 255 255 255 255 255 255 255 255 255 255 255 255 255 255 255 255 255 255 255 255 255 255 255 255 255 255 255 255 255 255 255 255 255 255 255 255 255 255 255 255 255 255 255 255 255 255 255 255 255 255 255 255 255 255 255 255 255 255 255 255 255 255 255 255 255 
255 255 255 255 255 255 255 255 255 255 255 255 255 255 255 255 255 255 255 255 255 255 255 255 255 255 255 255 255 255 255 255 255 255 255 255 255 255 255 255 255 255 255 255 255 255 255 255 255 255 255 255 255 255 255 255 255 255 255 255 255 255 255 255 255 255 255 255 255 255 255 255 255 255 255 255 255 255 255 255 255 255 255 255 255 255 255 255 255 255 255 255 255 255 255 255 255 255 255 255 255 255 255 255 255 255 255 255 255 255 255 255 255 255 255 255 255 255 255 255 255 255 255 255 255 255 255 255 255 255 255 255 255 255 255 255 255 255 255 255 255 255 255 255 255 255 255 255 255 255 255 255 255 255 255 255 255 255 255 255 255 255 255 255 255 255 255 255 255 255 255 255 255 255 255 255 255 255 255 255 255 255 255 255 255 255 255 255 255 255 255 255 
255 255 255 255 255 255 255 255 255 255 255 255 255 255 255 255 255 255 255 255 255 255 255 255 255 255 255 255 255 255 255 255 255 255 255 255 255 255 255 255 255 255 255 255 255 255 255 255 255 255 255 255 255 255 255 255 255 255 255 255 255 255 255 255 255 255 255 255 255 255 255 255 255 255 255 255 255 255 255 255 255 255 255 255 255 255 255 255 255 255 255 255 255 255 255 255 255 255 255 255 255 255 255 255 255 255 255 255 255 255 255 255 255 255 255 255 255 255 255 255 255 255 255 255 255 255 255 255 255 255 255 255 255 255 255 255 255 255 255 255 255 255 255 255 255 255 255 255 255 255 255 255 255 255 255 255 255 255 255 255 255 255 255 255 255 255 255 255 255 255 255 255 255 255 255 255 255 255 255 255 255 255 255 255 255 255 255 255 255 255 255 255 
255 255 255 255 255 255 255 255 255 255 255 255 255 255 255 255 255 255 255 255 255 255 255 255 255 255 255 255 255 255 255 255 255 255 255 255 255 255 255 255 255 255 255 255 255 255 255 255 255 255 255 255 255 255 255 255 255 255 255 255 255 255 255 255 255 255 255 255 255 255 255 255 255 255 255 255 255 255 255 255 255 255 255 255 255 255 255 255 255 255 255 255 255 255 255 255 255 255 255 255 255 255 255 255 255 255 255 255 255 255 255 255 255 255 255 255 255 255 255 255 255 255 255 255 255 255 255 255 255 255 255 255 255 255 255 255 255 255 255 255 255 255 255 255 255 255 255 255 255 255 255 255 255 255 255 255 255 255 255 255 255 255 255 255 255 255 255 255 255 255 255 255 255 255 255 255 255 255 255 255 255 255 255 255 255 255 255 255 255 255 255 255 
255 255 255 255 255 255 255 255 255 255 255 255 255 255 255 255 255 255 255 255 255 255 255 255 255 255 255 255 255 255 255 255 255 255 255 255 255 255 255 255 255 255 255 255 255 255 255 255 255 255 255 255 255 255 255 255 255 255 255 255 255 255 255 255 255 255 255 255 255 255 255 255 255 255 255 255 255 255 255 255 255 255 255 255 255 255 255 255 255 255 255 255 255 255 255 255 255 255 255 255 255 255 255 255 255 255 255 255 255 255 255 255 255 255 255 255 255 255 255 255 255 255 255 255 255 255 255 255 255 255 255 255 255 255 255 255 255 255 255 255 255 255 255 255 255 255 255 255 255 255 255 255 255 255 255 255 255 255 255 255 255 255 255 255 255 255 255 255 255 255 255 255 255 255 255 255 255 255 255 255 255 255 255 255 255 255 255 255 255 255 255 255 
255 255 255 255 255 255 255 255 255 255 255 255 255 255 255 255 255 255 255 255 255 255 255 255 255 255 255 255 255 255 255 255 255 255 255 255 255 255 255 255 255 255 255 255 255 255 255 255 255 255 255 255 255 255 255 255 255 255 255 255 255 255 255 255 255 255 255 255 255 255 255 255 255 255 255 255 255 255 255 255 255 255 255 255 255 255 255 255 255 255 255 255 255 255 255 255 255 255 255 255 255 255 255 255 255 255 255 255 255 255 255 255 255 255 255 255 255 255 255 255 255 255 255 255 255 255 255 255 255 255 255 255 255 255 255 255 255 255 255 255 255 255 255 255 255 255 255 255 255 255 255 255 255 255 255 255 255 255 255 255 255 255 255 255 255 255 255 255 255 255 255 255 255 255 255 255 255 255 255 255 255 255 255 255 255 255 255 255 255 255 255 255 
255 255 255 255 255 255 255 255 255 255 255 255 255 255 255 255 255 255 255 255 255 255 255 255 255 255 255 255 255 255 255 255 255 255 255 255 255 255 255 255 255 255 255 255 255 255 255 255 255 255 255 255 255 255 255 255 255 255 255 255 255 255 255 255 255 255 255 255 255 255 255 255 255 255 255 255 255 255 255 255 255 255 255 255 255 255 255 255 255 255 255 255 255 255 255 255 255 255 255 255 255 255 255 255 255 255 255 255 255 255 255 255 255 255 255 255 255 255 255 255 255 255 255 255 255 255 255 255 255 255 255 255 255 255 255 255 255 255 255 255 255 255 255 255 255 255 255 255 255 255 255 255 255 255 255 255 255 255 255 255 255 255 255 255 255 255 255 255 255 255 255 255 255 255 255 255 255 255 255 255 255 255 255 255 255 255 255 255 255 255 255 255 
255 255 255 255 255 255 255 255 255 255 255 255 255 255 255 255 255 255 255 255 255 255 255 255 255 255 255 255 255 255 255 255 255 255 255 255 255 255 255 255 255 255 255 255 255 255 255 255 255 255 255 255 255 255 255 255 255 255 255 255 255 255 255 255 255 255 255 255 255 255 255 255 255 255 255 255 255 255 255 255 255 255 255 255 255 255 255 255 255 255 255 255 255 255 255 255 255 255 255 255 255 255 255 255 255 255 255 255 255 255 255 255 255 255 255 255 255 255 255 255 255 255 255 255 255 255 255 255 255 255 255 255 255 255 255 255 255 255 255 255 255 255 255 255 255 255 255 255 255 255 255 255 255 255 255 255 255 255 255 255 255 255 255 255 255 255 255 255 255 255 255 255 255 255 255 255 255 255 255 255 255 255 255 255 255 255 255 255 255 255 255 255 
255 255 255 255 255 255 255 255 255 255 255 255 255 255 255 255 255 255 255 255 255 255 255 255 255 255 255 255 255 255 255 255 255 255 255 255 255 255 255 255 255 255 255 255 255 255 255 255 255 255 255 255 255 255 255 255 255 255 255 255 255 255 255 255 255 255 255 255 255 255 255 255 255 255 255 255 255 255 255 255 255 255 255 255 255 255 255 255 255 255 255 255 255 255 255 255 255 255 255 255 255 255 255 255 255 255 255 255 255 255 255 255 255 255 255 255 255 255 255 255 255 255 255 255 255 255 255 255 255 255 255 255 255 255 255 255 255 255 255 255 255 255 255 255 255 255 255 255 255 255 255 255 255 255 255 255 255 255 255 255 255 255 255 255 255 255 255 255 255 255 255 255 255 255 255 255 255 255 255 255 255 255 255 255 255 255 255 255 255 255 255 255 
255 255 255 255 255 255 255 255 255 255 255 255 255 255 255 255 255 255 255 255 255 255 255 255 255 255 255 255 255 255 255 255 255 255 255 255 255 255 255 255 255 255 255 255 255 255 255 255 255 255 255 255 255 255 255 255 255 255 255 255 255 255 255 255 255 255 255 255 255 255 255 255 255 255 255 255 255 255 255 255 255 255 255 255 255 255 255 255 255 255 255 255 255 255 255 255 168 72 136 168 72 136 168 72 136 168 72 136 168 72 136 168 72 136 96 40 88 255 255 255 255 255 255 255 255 255 255 255 255 255 255 255 255 255 255 255 255 255 255 255 255 255 255 255 255 255 255 255 255 255 255 255 255 255 255 255 255 255 255 255 255 255 255 255 255 255 255 255 255 255 255 255 255 255 255 255 255 255 255 255 255 255 255 255 255 255 255 255 255 255 255 255 
255 255 255 255 255 255 255 255 255 255 255 255 255 255 255 255 255 255 255 255 255 255 255 255 255 255 255 255 255 255 255 255 255 255 255 255 255 255 255 255 255 255 255 255 255 255 255 255 255 255 255 255 255 255 255 255 255 255 255 255 255 255 255 255 255 255 255 255 255 255 255 255 255 255 255 96 40 88 96 40 88 96 40 88 96 40 88 255 255 255 255 255 255 168 72 136 240 216 232 240 216 232 240 216 232 240 216 232 240 216 232 224 176 224 192 128 184 192 128 184 16 16 16 255 255 255 255 255 255 255 255 255 255 255 255 255 255 255 255 255 255 255 255 255 255 255 255 255 255 255 255 255 255 255 255 255 255 255 255 255 255 255 255 255 255 255 255 255 255 255 255 255 255 255 255 255 255 255 255 255 255 255 255 255 255 255 255 255 255 255 255 255 
255 255 255 255 255 255 255 255 255 255 255 255 255 255 255 255 255 255 255 255 255 255 255 255 255 255 255 255 255 255 255 255 255 255 255 255 255 255 255 255 255 255 255 255 255 255 255 255 255 255 255 255 255 255 255 255 255 255 255 255 255 255 255 255 255 255 255 255 255 168 72 136 168 72 136 168 72 136 168 72 136 168 72 136 168 72 136 96 40 88 96 40 88 240 216 232 240 216 232 240 216 232 240 216 232 240 216 232 96 40 88 96 40 88 96 40 88 192 128 184 192 128 184 16 16 16 255 255 255 255 255 255 255 255 255 255 255 255 255 255 255 255 255 255 255 255 255 255 255 255 255 255 255 255 255 255 255 255 255 255 255 255 255 255 255 255 255 255 255 255 255 255 255 255 255 255 255 255 255 255 255 255 255 255 255 255 255 255 255 255 255 255 
255 255 255 255 255 255 255 255 255 255 255 255 255 255 255 255 255 255 255 255 255 255 255 255 255 255 255 255 255 255 255 255 255 255 255 255 255 255 255 255 255 255 255 255 255 255 255 255 255 255 255 255 255 255 255 255 255 255 255 255 255 255 255 255 255 255 168 72 136 224 176 224 224 176 224 168 72 136 96 40 88 96 40 88 96 40 88 96 40 88 240 216 232 240 216 232 240 216 232 240 216 232 240 216 232 96 40 88 96 40 88 96 40 88 96 40 88 96 40 88 192 128 184 192 128 184 16 16 16 255 255 255 255 255 255 255 255 255 255 255 255 255 255 255 255 255 255 255 255 255 255 255 255 255 255 255 255 255 255 255 255 255 255 255 255 255 255 255 255 255 255 255 255 255 255 255 255 255 255 255 255 255 255 255 255 255 255 255 255 255 255 255 
255 255 255 255 255 255 255 255 255 255 255 255 255 255 255 255 255 255 255 255 255 255 255 255 255 255 255 255 255 255 255 255 255 255 255 255 255 255 255 255 255 255 255 255 255 255 255 255 255 255 255 255 255 255 255 255 255 255 255 255 255 255 255 168 72 136 224 176 224 96 40 88 96 40 88 96 40 88 192 128 184 192 128 184 192 128 184 240 216 232 240 216 232 240 216 232 240 216 232 240 216 232 96 40 88 96 40 88 96 40 88 96 40 88 168 72 136 168 72 136 96 40 88 192 128 184 96 40 88 96 40 88 96 40 88 96 40 88 96 40 88 96 40 88 255 255 255 255 255 255 255 255 255 255 255 255 255 255 255 255 255 255 255 255 255 255 255 255 255 255 255 255 255 255 255 255 255 255 255 255 255 255 255 255 255 255 255 255 255 255 255 255 
255 255 255 255 255 255 255 255 255 255 255 255 255 255 255 255 255 255 255 255 255 255 255 255 255 255 255 255 255 255 255 255 255 255 255 255 255 255 255 255 255 255 255 255 255 255 255 255 255 255 255 255 255 255 255 255 255 255 255 255 255 255 255 96 40 88 96 40 88 192 128 184 192 128 184 192 128 184 192 128 184 192 128 184 168 72 136 224 176 224 224 176 224 224 176 224 224 176 224 240 216 232 96 40 88 96 40 88 96 40 88 168 72 136 168 72 136 168 72 136 168 72 136 96 40 88 192 128 184 96 40 88 192 128 184 192 128 184 192 128 184 192 128 184 16 16 16 255 255 255 255 255 255 255 255 255 255 255 255 255 255 255 255 255 255 255 255 255 255 255 255 255 255 255 255 255 255 255 255 255 255 255 255 255 255 255 255 255 255 255 255 255 
255 255 255 255 255 255 255 255 255 255 255 255 255 255 255 255 255 255 255 255 255 255 255 255 255 255 255 255 255 255 255 255 255 255 255 255 255 255 255 255 255 255 255 255 255 168 72 136 168 72 136 168 72 136 255 255 255 255 255 255 168 72 136 192 128 184 192 128 184 192 128 184 192 128 184 192 128 184 192 128 184 192 128 184 168 72 136 224 176 224 224 176 224 224 176 224 224 176 224 240 216 232 96 40 88 96 40 88 96 40 88 96 40 88 96 40 88 168 72 136 168 72 136 168 72 136 192 128 184 96 40 88 96 40 88 192 128 184 192 128 184 168 72 136 168 72 136 16 16 16 255 255 255 255 255 255 255 255 255 255 255 255 255 255 255 255 255 255 255 255 255 255 255 255 255 255 255 255 255 255 255 255 255 255 255 255 255 255 255 255 255 255 
255 255 255 255 255 255 255 255 255 255 255 255 255 255 255 255 255 255 255 255 255 255 255 255 255 255 255 255 255 255 255 255 255 255 255 255 255 255 255 255 255 255 168 72 136 240 216 232 240 216 232 240 216 232 168 72 136 168 72 136 192 128 184 192 128 184 192 128 184 192 128 184 192 128 184 192 128 184 192 128 184 168 72 136 224 176 224 224 176 224 224 176 224 224 176 224 224 176 224 224 176 224 224 176 224 224 176 224 224 176 224 224 176 224 224 176 224 168 72 136 168 72 136 192 128 184 192 128 184 192 128 184 168 72 136 96 40 88 168 72 136 168 72 136 96 40 88 96 40 88 16 16 16 255 255 255 255 255 255 255 255 255 255 255 255 255 255 255 255 255 255 255 255 255 255 255 255 255 255 255 255 255 255 255 255 255 255 255 255 255 255 255 
255 255 255 255 255 255 255 255 255 255 255 255 255 255 255 255 255 255 255 255 255 255 255 255 255 255 255 255 255 255 255 255 255 255 255 255 255 255 255 168 72 136 240 216 232 240 216 232 240 216 232 240 216 232 224 176 224 192 128 184 168 72 136 192 128 184 192 128 184 192 128 184 192 128 184 192 128 184 168 72 136 224 176 224 224 176 224 224 176 224 224 176 224 224 176 224 224 176 224 224 176 224 224 176 224 224 176 224 224 176 224 224 176 224 224 176 224 224 176 224 224 176 224 192 128 184 192 128 184 192 128 184 168 72 136 168 72 136 168 72 136 168 72 136 168 72 136 96 40 88 16 16 16 255 255 255 255 255 255 255 255 255 255 255 255 255 255 255 255 255 255 255 255 255 255 255 255 255 255 255 255 255 255 255 255 255 255 255 255 255 255 255 
255 255 255 255 255 255 255 255 255 255 255 255 255 255 255 255 255 255 255 255 255 255 255 255 255 255 255 255 255 255 255 255 255 255 255 255 168 72 136 240 216 232 240 216 232 240 216 232 240 216 232 240 216 232 192 128 184 192 128 184 192 128 184 168 72 136 168 72 136 192 128 184 192 128 184 192 128 184 224 176 224 224 176 224 224 176 224 224 176 224 224 176 224 224 176 224 224 176 224 168 72 136 168 72 136 168 72 136 168 72 136 224 176 224 224 176 224 224 176 224 224 176 224 192 128 184 192 128 184 192 128 184 168 72 136 168 72 136 168 72 136 168 72 136 168 72 136 168 72 136 16 16 16 255 255 255 255 255 255 255 255 255 255 255 255 255 255 255 255 255 255 255 255 255 255 255 255 255 255 255 255 255 255 255 255 255 255 255 255 255 255 255 
255 255 255 255 255 255 255 255 255 255 255 255 255 255 255 255 255 255 255 255 255 255 255 255 255 255 255 255 255 255 255 255 255 255 255 255 240 216 232 240 216 232 240 216 232 240 216 232 240 216 232 192 128 184 192 128 184 192 128 184 192 128 184 192 128 184 192 128 184 192 128 184 224 176 224 224 176 224 224 176 224 224 176 224 224 176 224 224 176 224 224 176 224 168 72 136 168 72 136 168 72 136 168 72 136 168 72 136 168 72 136 168 72 136 224 176 224 192 128 184 192 128 184 192 128 184 192 128 184 192 128 184 168 72 136 96 40 88 96 40 88 168 72 136 168 72 136 168 72 136 168 72 136 16 16 16 255 255 255 255 255 255 255 255 255 255 255 255 255 255 255 255 255 255 255 255 255 255 255 255 255 255 255 255 255 255 255 255 255 255 255 255 
255 255 255 255 255 255 255 255 255 255 255 255 255 255 255 255 255 255 255 255 255 255 255 255 255 255 255 255 255 255 255 255 255 168 72 136 96 40 88 96 40 88 240 216 232 240 216 232 192 128 184 192 128 184 192 128 184 192 128 184 192 128 184 192 128 184 224 176 224 224 176 224 224 176 224 224 176 224 224 176 224 224 176 224 224 176 224 224 176 224 168 72 136 168 72 136 168 72 136 168 72 136 168 72 136 168 72 136 168 72 136 168 72 136 168 72 136 192 128 184 192 128 184 192 128 184 192 128 184 192 128 184 168 72 136 96 40 88 96 40 88 16 16 16 168 72 136 168 72 136 168 72 136 168 72 136 16 16 16 255 255 255 128 16 48 128 16 48 128 16 48 255 255 255 255 255 255 255 255 255 255 255 255 255 255 255 255 255 255 255 255 255 
255 255 255 255 255 255 255 255 255 255 255 255 255 255 255 255 255 255 255 255 255 255 255 255 255 255 255 255 255 255 255 255 255 96 40 88 168 72 136 168 72 136 96 40 88 192 128 184 192 128 184 192 128 184 192 128 184 192 128 184 224 176 224 224 176 224 224 176 224 224 176 224 224 176 224 224 176 224 224 176 224 224 176 224 224 176 224 224 176 224 168 72 136 168 72 136 168 72 136 96 40 88 96 40 88 96 40 88 168 72 136 224 176 224 224 176 224 168 72 136 192 128 184 192 128 184 192 128 184 96 40 88 96 40 88 96 40 88 96 40 88 96 40 88 16 16 16 168 72 136 168 72 136 128 16 48 128 16 48 128 16 48 248 184 200 248 184 200 248 184 200 184 40 64 255 255 255 255 255 255 255 255 255 255 255 255 255 255 255 255 255 255 
255 255 255 255 255 255 255 255 255 255 255 255 255 255 255 255 255 255 255 255 255 255 255 255 255 255 255 255 255 255 255 255 255 96 40 88 168 72 136 168 72 136 168 72 136 96 40 88 192 128 184 192 128 184 192 128 184 224 176 224 224 176 224 224 176 224 224 176 224 224 176 224 224 176 224 224 176 224 224 176 224 224 176 224 224 176 224 224 176 224 168 72 136 168 72 136 96 40 88 184 40 64 184 40 64 184 40 64 184 40 64 96 40 88 224 176 224 224 176 224 168 72 136 96 40 88 96 40 88 96 40 88 96 40 88 16 16 16 184 40 64 96 40 88 96 40 88 128 16 48 128 16 48 248 184 200 248 184 200 248 184 200 248 184 200 16 16 16 16 16 16 184 40 64 16 16 16 255 255 255 255 255 255 255 255 255 255 255 255 255 255 255 
255 255 255 255 255 255 255 255 255 255 255 255 255 255 255 255 255 255 255 255 255 255 255 255 255 255 255 255 255 255 255 255 255 96 40 88 96 40 88 168 72 136 168 72 136 192 128 184 192 128 184 192 128 184 224 176 224 224 176 224 224 176 224 240 216 232 240 216 232 240 216 232 224 176 224 224 176 224 224 176 224 224 176 224 224 176 224 224 176 224 168 72 136 168 72 136 16 16 16 184 40 64 184 40 64 240 96 112 240 96 112 240 96 112 96 40 88 224 176 224 224 176 224 96 40 88 96 40 88 96 40 88 16 16 16 184 40 64 184 40 64 128 16 48 128 16 48 248 184 200 248 184 200 248 184 200 240 96 112 240 96 112 240 96 112 16 16 16 16 16 16 184 40 64 16 16 16 255 255 255 255 255 255 255 255 255 255 255 255 255 255 255 
255 255 255 255 255 255 255 255 255 255 255 255 255 255 255 255 255 255 255 255 255 255 255 255 255 255 255 255 255 255 255 255 255 255 255 255 96 40 88 168 72 136 192 128 184 192 128 184 192 128 184 224 176 224 224 176 224 96 40 88 168 72 136 192 128 184 240 216 232 240 216 232 240 216 232 224 176 224 224 176 224 224 176 224 224 176 224 168 72 136 168 72 136 168 72 136 16 16 16 184 40 64 240 96 112 240 96 112 240 96 112 240 96 112 240 96 112 240 96 112 96 40 88 16 16 16 16 16 16 16 16 16 184 40 64 184 40 64 128 16 48 248 184 200 248 184 200 248 184 200 240 96 112 240 96 112 240 96 112 240 96 112 240 96 112 184 40 64 184 40 64 16 16 16 255 255 255 255 255 255 255 255 255 255 255 255 255 255 255 255 255 255 
255 255 255 255 255 255 255 255 255 255 255 255 255 255 255 255 255 255 255 255 255 255 255 255 255 255 255 255 255 255 255 255 255 96 40 88 96 40 88 192 128 184 192 128 184 192 128 184 192 128 184 224 176 224 96 40 88 168 72 136 168 72 136 224 176 224 192 128 184 240 216 232 240 216 232 240 216 232 240 216 232 240 216 232 168 72 136 168 72 136 168 72 136 168 72 136 16 16 16 184 40 64 128 16 48 16 16 16 16 16 16 16 16 16 16 16 16 240 96 112 184 40 64 184 40 64 184 40 64 184 40 64 184 40 64 128 16 48 248 184 200 248 184 200 240 96 112 240 96 112 240 96 112 240 96 112 240 96 112 184 40 64 184 40 64 16 16 16 16 16 16 255 255 255 255 255 255 255 255 255 255 255 255 255 255 255 255 255 255 255 255 255 
255 255 255 255 255 255 255 255 255 255 255 255 255 255 255 255 255 255 255 255 255 255 255 255 255 255 255 168 72 136 168 72 136 96 40 88 168 72 136 192 128 184 96 40 88 192 128 184 192 128 184 96 40 88 168 72 136 168 72 136 16 16 16 16 16 16 224 176 224 192 128 184 240 216 232 240 216 232 168 72 136 168 72 136 168 72 136 168 72 136 168 72 136 16 16 16 184 40 64 128 16 48 16 16 16 16 16 16 16 16 16 16 16 16 16 16 16 16 16 16 240 96 112 184 40 64 184 40 64 184 40 64 16 16 16 16 16 16 240 96 112 240 96 112 240 96 112 240 96 112 240 96 112 184 40 64 184 40 64 184 40 64 16 16 16 255 255 255 255 255 255 255 255 255 255 255 255 255 255 255 255 255 255 255 255 255 255 255 255 255 255 255 
255 255 255 255 255 255 255 255 255 255 255 255 255 255 255 255 255 255 255 255 255 255 255 255 168 72 136 240 216 232 240 216 232 96 40 88 192 128 184 96 40 88 168 72 136 192 128 184 192 128 184 96 40 88 168 72 136 16 16 16 184 40 64 184 40 64 96 40 88 224 176 224 192 128 184 168 72 136 168 72 136 168 72 136 168 72 136 16 16 16 16 16 16 184 40 64 128 16 48 16 16 16 16 16 16 16 16 16 16 16 16 16 16 16 16 16 16 16 16 16 16 16 16 240 96 112 16 16 16 16 16 16 16 16 16 16 16 16 240 96 112 240 96 112 240 96 112 184 40 64 184 40 64 184 40 64 16 16 16 16 16 16 255 255 255 255 255 255 255 255 255 255 255 255 255 255 255 255 255 255 255 255 255 255 255 255 255 255 255 255 255 255 
255 255 255 255 255 255 255 255 255 255 255 255 255 255 255 255 255 255 255 255 255 255 255 255 168 72 136 240 216 232 240 216 232 192 128 184 192 128 184 96 40 88 168 72 136 192 128 184 96 40 88 168 72 136 168 72 136 184 40 64 184 40 64 184 40 64 240 96 112 96 40 88 192 128 184 168 72 136 96 40 88 16 16 16 16 16 16 184 40 64 184 40 64 240 96 112 16 16 16 16 16 16 16 16 16 16 16 16 248 248 248 248 248 248 248 248 248 16 16 16 16 16 16 16 16 16 16 16 16 16 16 16 16 16 16 128 16 48 128 16 48 184 40 64 184 40 64 184 40 64 128 16 48 16 16 16 16 16 16 16 16 16 16 16 16 16 16 16 16 16 16 16 16 16 16 16 16 255 255 255 255 255 255 255 255 255 255 255 255 255 255 255 
255 255 255 255 255 255 255 255 255 255 255 255 255 255 255 255 255 255 255 255 255 255 255 255 168 72 136 240 216 232 192 128 184 192 128 184 192 128 184 192 128 184 192 128 184 192 128 184 96 40 88 168 72 136 16 16 16 184 40 64 184 40 64 240 96 112 240 96 112 240 96 112 96 40 88 96 40 88 184 40 64 184 40 64 184 40 64 240 96 112 240 96 112 240 96 112 16 16 16 16 16 16 16 16 16 248 248 248 16 16 16 16 16 16 16 16 16 248 248 248 16 16 16 16 16 16 16 16 16 240 96 112 184 40 64 128 16 48 128 16 48 184 40 64 128 16 48 16 16 16 16 16 16 96 40 88 16 16 16 168 72 136 16 16 16 184 40 64 184 40 64 184 40 64 184 40 64 16 16 16 255 255 255 255 255 255 255 255 255 255 255 255 
255 255 255 255 255 255 255 255 255 255 255 255 255 255 255 255 255 255 255 255 255 255 255 255 168 72 136 240 216 232 168 72 136 96 40 88 192 128 184 192 128 184 192 128 184 168 72 136 168 72 136 168 72 136 16 16 16 184 40 64 240 96 112 16 16 16 16 16 16 16 16 16 128 16 48 248 184 200 248 184 200 248 184 200 248 184 200 240 96 112 128 16 48 128 16 48 16 16 16 16 16 16 16 16 16 248 248 248 16 16 16 16 16 16 16 16 16 248 248 248 16 16 16 16 16 16 240 96 112 184 40 64 184 40 64 184 40 64 16 16 16 16 16 16 16 16 16 184 40 64 16 16 16 96 40 88 16 16 16 168 72 136 16 16 16 184 40 64 184 40 64 184 40 64 184 40 64 16 16 16 255 255 255 255 255 255 255 255 255 255 255 255 
255 255 255 255 255 255 255 255 255 255 255 255 255 255 255 255 255 255 255 255 255 255 255 255 96 40 88 168 72 136 168 72 136 96 40 88 192 128 184 192 128 184 168 72 136 224 176 224 168 72 136 168 72 136 96 40 88 128 16 48 16 16 16 16 16 16 16 16 16 16 16 16 16 16 16 128 16 48 248 184 200 248 184 200 128 16 48 128 16 48 16 16 16 16 16 16 16 16 16 16 16 16 16 16 16 248 248 248 16 16 16 16 16 16 16 16 16 248 248 248 16 16 16 128 16 48 184 40 64 96 40 88 96 40 88 96 40 88 96 40 88 184 40 64 184 40 64 184 40 64 16 16 16 96 40 88 16 16 16 168 72 136 16 16 16 184 40 64 184 40 64 16 16 16 16 16 16 255 255 255 255 255 255 255 255 255 255 255 255 255 255 255 
255 255 255 255 255 255 255 255 255 255 255 255 255 255 255 255 255 255 255 255 255 255 255 255 255 255 255 96 40 88 168 72 136 16 16 16 96 40 88 224 176 224 224 176 224 224 176 224 224 176 224 16 16 16 184 40 64 16 16 16 16 16 16 16 16 16 16 16 16 16 16 16 16 16 16 16 16 16 128 16 48 128 16 48 16 16 16 16 16 16 16 16 16 128 16 48 128 16 48 128 16 48 16 16 16 16 16 16 248 248 248 248 248 248 248 248 248 16 16 16 16 16 16 248 184 200 96 40 88 240 216 232 240 216 232 240 216 232 192 128 184 16 16 16 184 40 64 184 40 64 16 16 16 96 40 88 16 16 16 168 72 136 16 16 16 16 16 16 16 16 16 255 255 255 255 255 255 255 255 255 255 255 255 255 255 255 255 255 255 255 255 255 
255 255 255 255 255 255 255 255 255 255 255 255 255 255 255 255 255 255 255 255 255 255 255 255 255 255 255 255 255 255 96 40 88 16 16 16 168 72 136 96 40 88 224 176 224 224 176 224 16 16 16 184 40 64 128 16 48 16 16 16 16 16 16 16 16 16 248 248 248 248 248 248 248 248 248 16 16 16 16 16 16 16 16 16 16 16 16 128 16 48 128 16 48 240 96 112 240 96 112 240 96 112 128 16 48 16 16 16 16 16 16 16 16 16 16 16 16 16 16 16 128 16 48 248 184 200 96 40 88 240 216 232 168 72 136 192 128 184 192 128 184 192 128 184 184 40 64 16 16 16 96 40 88 96 40 88 168 72 136 168 72 136 96 40 88 168 72 136 96 40 88 255 255 255 255 255 255 255 255 255 255 255 255 255 255 255 255 255 255 255 255 255 
255 255 255 255 255 255 255 255 255 255 255 255 255 255 255 255 255 255 255 255 255 255 255 255 255 255 255 255 255 255 255 255 255 16 16 16 168 72 136 168 72 136 16 16 16 16 16 16 184 40 64 184 40 64 16 16 16 16 16 16 16 16 16 248 248 248 16 16 16 16 16 16 16 16 16 248 248 248 16 16 16 16 16 16 128 16 48 248 184 200 240 96 112 240 96 112 240 96 112 240 96 112 240 96 112 128 16 48 128 16 48 16 16 16 16 16 16 128 16 48 240 96 112 240 96 112 96 40 88 240 216 232 168 72 136 192 128 184 192 128 184 192 128 184 16 16 16 16 16 16 16 16 16 16 16 16 168 72 136 168 72 136 96 40 88 168 72 136 168 72 136 96 40 88 255 255 255 255 255 255 255 255 255 255 255 255 255 255 255 255 255 255 
255 255 255 255 255 255 255 255 255 255 255 255 255 255 255 255 255 255 255 255 255 255 255 255 255 255 255 255 255 255 255 255 255 16 16 16 168 72 136 168 72 136 16 16 16 16 16 16 184 40 64 184 40 64 16 16 16 16 16 16 16 16 16 248 248 248 16 16 16 16 16 16 16 16 16 248 248 248 16 16 16 16 16 16 248 184 200 248 184 200 248 184 200 96 40 88 96 40 88 96 40 88 240 96 112 240 96 112 240 96 112 240 96 112 240 96 112 240 96 112 240 96 112 96 40 88 240 216 232 240 216 232 168 72 136 192 128 184 192 128 184 192 128 184 16 16 16 16 16 16 168 72 136 168 72 136 168 72 136 168 72 136 168 72 136 168 72 136 168 72 136 16 16 16 255 255 255 255 255 255 255 255 255 255 255 255 255 255 255 255 255 255 
255 255 255 255 255 255 255 255 255 255 255 255 255 255 255 255 255 255 255 255 255 255 255 255 255 255 255 255 255 255 255 255 255 255 255 255 96 40 88 16 16 16 16 16 16 16 16 16 184 40 64 184 40 64 16 16 16 16 16 16 16 16 16 248 248 248 16 16 16 16 16 16 16 16 16 248 248 248 16 16 16 128 16 48 248 184 200 96 40 88 96 40 88 240 216 232 240 216 232 168 72 136 96 40 88 240 96 112 240 96 112 240 96 112 240 96 112 240 96 112 240 96 112 96 40 88 240 216 232 192 128 184 192 128 184 192 128 184 192 128 184 192 128 184 192 128 184 168 72 136 168 72 136 168 72 136 168 72 136 168 72 136 168 72 136 168 72 136 168 72 136 16 16 16 255 255 255 255 255 255 255 255 255 255 255 255 255 255 255 255 255 255 
255 255 255 255 255 255 255 255 255 255 255 255 255 255 255 255 255 255 255 255 255 255 255 255 255 255 255 255 255 255 255 255 255 184 40 64 184 40 64 248 184 200 248 184 200 248 184 200 16 16 16 184 40 64 128 16 48 16 16 16 16 16 16 16 16 16 248 248 248 248 248 248 248 248 248 16 16 16 16 16 16 128 16 48 96 40 88 240 216 232 240 216 232 192 128 184 192 128 184 168 72 136 168 72 136 168 72 136 96 40 88 240 96 112 240 96 112 96 40 88 96 40 88 192 128 184 168 72 136 192 128 184 192 128 184 192 128 184 192 128 184 192 128 184 192 128 184 168 72 136 168 72 136 168 72 136 168 72 136 96 40 88 168 72 136 168 72 136 168 72 136 16 16 16 255 255 255 255 255 255 255 255 255 255 255 255 255 255 255 255 255 255 
255 255 255 255 255 255 255 255 255 255 255 255 255 255 255 255 255 255 255 255 255 255 255 255 255 255 255 184 40 64 184 40 64 248 184 200 248 184 200 240 96 112 240 96 112 240 96 112 184 40 64 16 16 16 16 16 16 16 16 16 16 16 16 16 16 16 16 16 16 16 16 16 16 16 16 16 16 16 128 16 48 96 40 88 240 216 232 192 128 184 192 128 184 224 176 224 224 176 224 224 176 224 96 40 88 168 72 136 168 72 136 96 40 88 96 40 88 168 72 136 168 72 136 168 72 136 224 176 224 192 128 184 192 128 184 192 128 184 192 128 184 192 128 184 192 128 184 168 72 136 168 72 136 168 72 136 168 72 136 96 40 88 96 40 88 96 40 88 96 40 88 16 16 16 255 255 255 255 255 255 255 255 255 255 255 255 255 255 255 255 255 255 
255 255 255 255 255 255 255 255 255 255 255 255 255 255 255 255 255 255 255 255 255 184 40 64 184 40 64 248 184 200 248 184 200 240 96 112 240 96 112 240 96 112 240 96 112 184 40 64 184 40 64 16 16 16 16 16 16 240 96 112 128 16 48 16 16 16 16 16 16 16 16 16 128 16 48 128 16 48 240 96 112 96 40 88 192 128 184 224 176 224 224 176 224 224 176 224 224 176 224 224 176 224 224 176 224 192 128 184 96 40 88 168 72 136 168 72 136 168 72 136 168 72 136 224 176 224 224 176 224 192 128 184 192 128 184 192 128 184 192 128 184 192 128 184 192 128 184 168 72 136 168 72 136 168 72 136 168 72 136 96 40 88 96 40 88 96 40 88 96 40 88 16 16 16 255 255 255 255 255 255 255 255 255 255 255 255 255 255 255 255 255 255 
255 255 255 255 255 255 255 255 255 255 255 255 255 255 255 255 255 255 184 40 64 248 184 200 248 184 200 240 96 112 240 96 112 240 96 112 240 96 112 184 40 64 184 40 64 184 40 64 184 40 64 16 16 16 240 96 112 240 96 112 96 40 88 96 40 88 240 96 112 240 96 112 240 96 112 240 96 112 240 96 112 96 40 88 192 128 184 224 176 224 224 176 224 224 176 224 224 176 224 224 176 224 224 176 224 224 176 224 224 176 224 96 40 88 168 72 136 224 176 224 224 176 224 224 176 224 192 128 184 192 128 184 192 128 184 192 128 184 192 128 184 192 128 184 168 72 136 168 72 136 168 72 136 168 72 136 168 72 136 96 40 88 16 16 16 16 16 16 16 16 16 255 255 255 255 255 255 255 255 255 255 255 255 255 255 255 255 255 255 255 255 255 
255 255 255 255 255 255 255 255 255 255 255 255 255 255 255 255 255 255 184 40 64 16 16 16 240 96 112 240 96 112 240 96 112 184 40 64 184 40 64 184 40 64 184 40 64 184 40 64 184 40 64 16 16 16 240 96 112 96 40 88 240 216 232 240 216 232 96 40 88 240 96 112 240 96 112 240 96 112 240 96 112 168 72 136 192 128 184 224 176 224 224 176 224 224 176 224 224 176 224 224 176 224 224 176 224 224 176 224 224 176 224 224 176 224 224 176 224 224 176 224 224 176 224 192 128 184 192 128 184 192 128 184 192 128 184 192 128 184 192 128 184 192 128 184 168 72 136 168 72 136 168 72 136 96 40 88 96 40 88 16 16 16 16 16 16 255 255 255 255 255 255 255 255 255 255 255 255 255 255 255 255 255 255 255 255 255 255 255 255 255 255 255 
255 255 255 255 255 255 255 255 255 255 255 255 255 255 255 255 255 255 128 16 48 16 16 16 184 40 64 184 40 64 184 40 64 184 40 64 128 16 48 128 16 48 128 16 48 16 16 16 16 16 16 16 16 16 96 40 88 240 216 232 240 216 232 240 216 232 168 72 136 96 40 88 240 96 112 240 96 112 240 96 112 168 72 136 192 128 184 224 176 224 224 176 224 224 176 224 224 176 224 224 176 224 224 176 224 224 176 224 224 176 224 224 176 224 224 176 224 224 176 224 192 128 184 192 128 184 192 128 184 192 128 184 192 128 184 192 128 184 192 128 184 192 128 184 168 72 136 168 72 136 96 40 88 96 40 88 96 40 88 16 16 16 255 255 255 255 255 255 255 255 255 255 255 255 255 255 255 255 255 255 255 255 255 255 255 255 255 255 255 255 255 255 
255 255 255 255 255 255 255 255 255 255 255 255 255 255 255 255 255 255 255 255 255 128 16 48 128 16 48 16 16 16 16 16 16 16 16 16 255 255 255 255 255 255 96 40 88 96 40 88 168 72 136 168 72 136 96 40 88 240 216 232 192 128 184 224 176 224 96 40 88 168 72 136 96 40 88 96 40 88 96 40 88 168 72 136 192 128 184 224 176 224 224 176 224 224 176 224 224 176 224 224 176 224 224 176 224 224 176 224 224 176 224 224 176 224 192 128 184 192 128 184 96 40 88 96 40 88 96 40 88 96 40 88 96 40 88 192 128 184 192 128 184 168 72 136 168 72 136 168 72 136 96 40 88 96 40 88 96 40 88 16 16 16 255 255 255 255 255 255 255 255 255 255 255 255 255 255 255 255 255 255 255 255 255 255 255 255 255 255 255 255 255 255 
255 255 255 255 255 255 255 255 255 255 255 255 255 255 255 255 255 255 255 255 255 255 255 255 255 255 255 255 255 255 255 255 255 255 255 255 255 255 255 255 255 255 96 40 88 240 216 232 96 40 88 168 72 136 96 40 88 192 128 184 224 176 224 224 176 224 224 176 224 96 40 88 168 72 136 168 72 136 168 72 136 168 72 136 224 176 224 224 176 224 224 176 224 224 176 224 224 176 224 224 176 224 224 176 224 224 176 224 192 128 184 192 128 184 192 128 184 96 40 88 168 72 136 168 72 136 168 72 136 168 72 136 96 40 88 192 128 184 168 72 136 168 72 136 168 72 136 168 72 136 96 40 88 96 40 88 96 40 88 255 255 255 255 255 255 255 255 255 255 255 255 255 255 255 255 255 255 255 255 255 255 255 255 255 255 255 255 255 255 255 255 255 
255 255 255 255 255 255 255 255 255 255 255 255 255 255 255 255 255 255 255 255 255 255 255 255 255 255 255 255 255 255 255 255 255 255 255 255 255 255 255 16 16 16 96 40 88 240 216 232 224 176 224 168 72 136 96 40 88 224 176 224 224 176 224 224 176 224 224 176 224 224 176 224 192 128 184 192 128 184 224 176 224 224 176 224 224 176 224 224 176 224 224 176 224 224 176 224 224 176 224 224 176 224 224 176 224 192 128 184 192 128 184 192 128 184 96 40 88 168 72 136 168 72 136 168 72 136 168 72 136 96 40 88 168 72 136 168 72 136 168 72 136 168 72 136 168 72 136 168 72 136 96 40 88 96 40 88 16 16 16 255 255 255 255 255 255 255 255 255 255 255 255 255 255 255 255 255 255 255 255 255 255 255 255 255 255 255 255 255 255 255 255 255 
255 255 255 255 255 255 255 255 255 255 255 255 255 255 255 255 255 255 255 255 255 255 255 255 255 255 255 255 255 255 255 255 255 255 255 255 16 16 16 240 96 112 96 40 88 240 216 232 240 216 232 240 216 232 240 216 232 168 72 136 224 176 224 224 176 224 224 176 224 224 176 224 224 176 224 224 176 224 224 176 224 224 176 224 224 176 224 224 176 224 224 176 224 224 176 224 224 176 224 192 128 184 192 128 184 192 128 184 192 128 184 96 40 88 168 72 136 168 72 136 168 72 136 168 72 136 96 40 88 168 72 136 168 72 136 168 72 136 168 72 136 168 72 136 168 72 136 96 40 88 96 40 88 16 16 16 255 255 255 255 255 255 255 255 255 255 255 255 255 255 255 255 255 255 255 255 255 255 255 255 255 255 255 255 255 255 255 255 255 255 255 255 
255 255 255 255 255 255 255 255 255 255 255 255 255 255 255 255 255 255 255 255 255 255 255 255 255 255 255 255 255 255 255 255 255 255 255 255 16 16 16 184 40 64 184 40 64 96 40 88 96 40 88 240 216 232 240 216 232 224 176 224 224 176 224 224 176 224 224 176 224 224 176 224 224 176 224 224 176 224 224 176 224 224 176 224 224 176 224 224 176 224 224 176 224 192 128 184 192 128 184 192 128 184 192 128 184 192 128 184 192 128 184 96 40 88 168 72 136 168 72 136 168 72 136 168 72 136 168 72 136 168 72 136 168 72 136 96 40 88 96 40 88 96 40 88 96 40 88 96 40 88 16 16 16 255 255 255 255 255 255 255 255 255 255 255 255 255 255 255 255 255 255 255 255 255 255 255 255 255 255 255 255 255 255 255 255 255 255 255 255 255 255 255 
255 255 255 255 255 255 255 255 255 255 255 255 255 255 255 255 255 255 255 255 255 255 255 255 255 255 255 255 255 255 255 255 255 255 255 255 16 16 16 184 40 64 184 40 64 16 16 16 16 16 16 168 72 136 240 216 232 224 176 224 224 176 224 168 72 136 224 176 224 240 216 232 240 216 232 224 176 224 224 176 224 96 40 88 96 40 88 96 40 88 96 40 88 192 128 184 192 128 184 192 128 184 192 128 184 192 128 184 192 128 184 96 40 88 96 40 88 96 40 88 168 72 136 168 72 136 168 72 136 168 72 136 96 40 88 168 72 136 168 72 136 168 72 136 96 40 88 16 16 16 255 255 255 255 255 255 255 255 255 255 255 255 255 255 255 255 255 255 255 255 255 255 255 255 255 255 255 255 255 255 255 255 255 255 255 255 255 255 255 255 255 255 
255 255 255 255 255 255 255 255 255 255 255 255 255 255 255 255 255 255 255 255 255 255 255 255 255 255 255 255 255 255 255 255 255 255 255 255 255 255 255 16 16 16 16 16 16 255 255 255 255 255 255 255 255 255 168 72 136 224 176 224 224 176 224 192 128 184 168 72 136 240 216 232 240 216 232 224 176 224 224 176 224 96 40 88 168 72 136 168 72 136 168 72 136 192 128 184 192 128 184 192 128 184 192 128 184 192 128 184 192 128 184 192 128 184 192 128 184 168 72 136 168 72 136 168 72 136 168 72 136 168 72 136 168 72 136 168 72 136 16 16 16 16 16 16 255 255 255 255 255 255 255 255 255 255 255 255 255 255 255 255 255 255 255 255 255 255 255 255 255 255 255 255 255 255 255 255 255 255 255 255 255 255 255 255 255 255 255 255 255 255 255 255 
255 255 255 255 255 255 255 255 255 255 255 255 255 255 255 255 255 255 255 255 255 255 255 255 255 255 255 255 255 255 255 255 255 255 255 255 255 255 255 255 255 255 255 255 255 255 255 255 255 255 255 255 255 255 168 72 136 224 176 224 224 176 224 192 128 184 168 72 136 240 216 232 240 216 232 240 216 232 224 176 224 192 128 184 168 72 136 192 128 184 192 128 184 192 128 184 192 128 184 192 128 184 192 128 184 192 128 184 192 128 184 168 72 136 168 72 136 168 72 136 96 40 88 96 40 88 16 16 16 16 16 16 16 16 16 16 16 16 255 255 255 255 255 255 255 255 255 255 255 255 255 255 255 255 255 255 255 255 255 255 255 255 255 255 255 255 255 255 255 255 255 255 255 255 255 255 255 255 255 255 255 255 255 255 255 255 255 255 255 255 255 255 
255 255 255 255 255 255 255 255 255 255 255 255 255 255 255 255 255 255 255 255 255 255 255 255 255 255 255 255 255 255 255 255 255 255 255 255 255 255 255 255 255 255 255 255 255 255 255 255 255 255 255 255 255 255 255 255 255 168 72 136 16 16 16 16 16 16 96 40 88 240 216 232 240 216 232 240 216 232 240 216 232 192 128 184 192 128 184 192 128 184 192 128 184 192 128 184 96 40 88 96 40 88 96 40 88 96 40 88 168 72 136 168 72 136 168 72 136 168 72 136 168 72 136 168 72 136 168 72 136 168 72 136 16 16 16 255 255 255 255 255 255 255 255 255 255 255 255 255 255 255 255 255 255 255 255 255 255 255 255 255 255 255 255 255 255 255 255 255 255 255 255 255 255 255 255 255 255 255 255 255 255 255 255 255 255 255 255 255 255 255 255 255 
255 255 255 255 255 255 255 255 255 255 255 255 255 255 255 255 255 255 255 255 255 255 255 255 255 255 255 255 255 255 255 255 255 255 255 255 255 255 255 255 255 255 255 255 255 255 255 255 255 255 255 255 255 255 255 255 255 255 255 255 255 255 255 255 255 255 255 255 255 96 40 88 96 40 88 192 128 184 192 128 184 192 128 184 192 128 184 192 128 184 192 128 184 96 40 88 16 16 16 16 16 16 16 16 16 168 72 136 168 72 136 168 72 136 168 72 136 168 72 136 168 72 136 168 72 136 168 72 136 168 72 136 16 16 16 255 255 255 255 255 255 255 255 255 255 255 255 255 255 255 255 255 255 255 255 255 255 255 255 255 255 255 255 255 255 255 255 255 255 255 255 255 255 255 255 255 255 255 255 255 255 255 255 255 255 255 255 255 255 255 255 255 
255 255 255 255 255 255 255 255 255 255 255 255 255 255 255 255 255 255 255 255 255 255 255 255 255 255 255 255 255 255 255 255 255 255 255 255 255 255 255 255 255 255 255 255 255 255 255 255 255 255 255 255 255 255 255 255 255 255 255 255 255 255 255 255 255 255 255 255 255 255 255 255 255 255 255 96 40 88 96 40 88 192 128 184 192 128 184 192 128 184 96 40 88 16 16 16 255 255 255 255 255 255 96 40 88 96 40 88 96 40 88 168 72 136 168 72 136 168 72 136 168 72 136 168 72 136 16 16 16 16 16 16 255 255 255 255 255 255 255 255 255 255 255 255 255 255 255 255 255 255 255 255 255 255 255 255 255 255 255 255 255 255 255 255 255 255 255 255 255 255 255 255 255 255 255 255 255 255 255 255 255 255 255 255 255 255 255 255 255 255 255 255 
255 255 255 255 255 255 255 255 255 255 255 255 255 255 255 255 255 255 255 255 255 255 255 255 255 255 255 255 255 255 255 255 255 255 255 255 255 255 255 255 255 255 255 255 255 255 255 255 255 255 255 255 255 255 255 255 255 255 255 255 255 255 255 255 255 255 255 255 255 255 255 255 255 255 255 255 255 255 255 255 255 96 40 88 16 16 16 16 16 16 16 16 16 255 255 255 255 255 255 255 255 255 255 255 255 255 255 255 255 255 255 96 40 88 16 16 16 16 16 16 16 16 16 16 16 16 255 255 255 255 255 255 255 255 255 255 255 255 255 255 255 255 255 255 255 255 255 255 255 255 255 255 255 255 255 255 255 255 255 255 255 255 255 255 255 255 255 255 255 255 255 255 255 255 255 255 255 255 255 255 255 255 255 255 255 255 255 255 255 255 255 255 
255 255 255 255 255 255 255 255 255 255 255 255 255 255 255 255 255 255 255 255 255 255 255 255 255 255 255 255 255 255 255 255 255 255 255 255 255 255 255 255 255 255 255 255 255 255 255 255 255 255 255 255 255 255 255 255 255 255 255 255 255 255 255 255 255 255 255 255 255 255 255 255 255 255 255 255 255 255 255 255 255 255 255 255 255 255 255 255 255 255 255 255 255 255 255 255 255 255 255 255 255 255 255 255 255 255 255 255 255 255 255 255 255 255 255 255 255 255 255 255 255 255 255 255 255 255 255 255 255 255 255 255 255 255 255 255 255 255 255 255 255 255 255 255 255 255 255 255 255 255 255 255 255 255 255 255 255 255 255 255 255 255 255 255 255 255 255 255 255 255 255 255 255 255 255 255 255 255 255 255 255 255 255 255 255 255 255 255 255 255 255 255 
255 255 255 255 255 255 255 255 255 255 255 255 255 255 255 255 255 255 255 255 255 255 255 255 255 255 255 255 255 255 255 255 255 255 255 255 255 255 255 255 255 255 255 255 255 255 255 255 255 255 255 255 255 255 255 255 255 255 255 255 255 255 255 255 255 255 255 255 255 255 255 255 255 255 255 255 255 255 255 255 255 255 255 255 255 255 255 255 255 255 255 255 255 255 255 255 255 255 255 255 255 255 255 255 255 255 255 255 255 255 255 255 255 255 255 255 255 255 255 255 255 255 255 255 255 255 255 255 255 255 255 255 255 255 255 255 255 255 255 255 255 255 255 255 255 255 255 255 255 255 255 255 255 255 255 255 255 255 255 255 255 255 255 255 255 255 255 255 255 255 255 255 255 255 255 255 255 255 255 255 255 255 255 255 255 255 255 255 255 255 255 255 
255 255 255 255 255 255 255 255 255 255 255 255 255 255 255 255 255 255 255 255 255 255 255 255 255 255 255 255 255 255 255 255 255 255 255 255 255 255 255 255 255 255 255 255 255 255 255 255 255 255 255 255 255 255 255 255 255 255 255 255 255 255 255 255 255 255 255 255 255 255 255 255 255 255 255 255 255 255 255 255 255 255 255 255 255 255 255 255 255 255 255 255 255 255 255 255 255 255 255 255 255 255 255 255 255 255 255 255 255 255 255 255 255 255 255 255 255 255 255 255 255 255 255 255 255 255 255 255 255 255 255 255 255 255 255 255 255 255 255 255 255 255 255 255 255 255 255 255 255 255 255 255 255 255 255 255 255 255 255 255 255 255 255 255 255 255 255 255 255 255 255 255 255 255 255 255 255 255 255 255 255 255 255 255 255 255 255 255 255 255 255 255 
255 255 255 255 255 255 255 255 255 255 255 255 255 255 255 255 255 255 255 255 255 255 255 255 255 255 255 255 255 255 255 255 255 255 255 255 255 255 255 255 255 255 255 255 255 255 255 255 255 255 255 255 255 255 255 255 255 255 255 255 255 255 255 255 255 255 255 255 255 255 255 255 255 255 255 255 255 255 255 255 255 255 255 255 255 255 255 255 255 255 255 255 255 255 255 255 255 255 255 255 255 255 255 255 255 255 255 255 255 255 255 255 255 255 255 255 255 255 255 255 255 255 255 255 255 255 255 255 255 255 255 255 255 255 255 255 255 255 255 255 255 255 255 255 255 255 255 255 255 255 255 255 255 255 255 255 255 255 255 255 255 255 255 255 255 255 255 255 255 255 255 255 255 255 255 255 255 255 255 255 255 255 255 255 255 255 255 255 255 255 255 255 
255 255 255 255 255 255 255 255 255 255 255 255 255 255 255 255 255 255 255 255 255 255 255 255 255 255 255 255 255 255 255 255 255 255 255 255 255 255 255 255 255 255 255 255 255 255 255 255 255 255 255 255 255 255 255 255 255 255 255 255 255 255 255 255 255 255 255 255 255 255 255 255 255 255 255 255 255 255 255 255 255 255 255 255 255 255 255 255 255 255 255 255 255 255 255 255 255 255 255 255 255 255 255 255 255 255 255 255 255 255 255 255 255 255 255 255 255 255 255 255 255 255 255 255 255 255 255 255 255 255 255 255 255 255 255 255 255 255 255 255 255 255 255 255 255 255 255 255 255 255 255 255 255 255 255 255 255 255 255 255 255 255 255 255 255 255 255 255 255 255 255 255 255 255 255 255 255 255 255 255 255 255 255 255 255 255 255 255 255 255 255 255 
255 255 255 255 255 255 255 255 255 255 255 255 255 255 255 255 255 255 255 255 255 255 255 255 255 255 255 255 255 255 255 255 255 255 255 255 255 255 255 255 255 255 255 255 255 255 255 255 255 255 255 255 255 255 255 255 255 255 255 255 255 255 255 255 255 255 255 255 255 255 255 255 255 255 255 255 255 255 255 255 255 255 255 255 255 255 255 255 255 255 255 255 255 255 255 255 255 255 255 255 255 255 255 255 255 255 255 255 255 255 255 255 255 255 255 255 255 255 255 255 255 255 255 255 255 255 255 255 255 255 255 255 255 255 255 255 255 255 255 255 255 255 255 255 255 255 255 255 255 255 255 255 255 255 255 255 255 255 255 255 255 255 255 255 255 255 255 255 255 255 255 255 255 255 255 255 255 255 255 255 255 255 255 255 255 255 255 255 255 255 255 255 
255 255 255 255 255 255 255 255 255 255 255 255 255 255 255 255 255 255 255 255 255 255 255 255 255 255 255 255 255 255 255 255 255 255 255 255 255 255 255 255 255 255 255 255 255 255 255 255 255 255 255 255 255 255 255 255 255 255 255 255 255 255 255 255 255 255 255 255 255 255 255 255 255 255 255 255 255 255 255 255 255 255 255 255 255 255 255 255 255 255 255 255 255 255 255 255 255 255 255 255 255 255 255 255 255 255 255 255 255 255 255 255 255 255 255 255 255 255 255 255 255 255 255 255 255 255 255 255 255 255 255 255 255 255 255 255 255 255 255 255 255 255 255 255 255 255 255 255 255 255 255 255 255 255 255 255 255 255 255 255 255 255 255 255 255 255 255 255 255 255 255 255 255 255 255 255 255 255 255 255 255 255 255 255 255 255 255 255 255 255 255 255 
255 255 255 255 255 255 255 255 255 255 255 255 255 255 255 255 255 255 255 255 255 255 255 255 255 255 255 255 255 255 255 255 255 255 255 255 255 255 255 255 255 255 255 255 255 255 255 255 255 255 255 255 255 255 255 255 255 255 255 255 255 255 255 255 255 255 255 255 255 255 255 255 255 255 255 255 255 255 255 255 255 255 255 255 255 255 255 255 255 255 255 255 255 255 255 255 255 255 255 255 255 255 255 255 255 255 255 255 255 255 255 255 255 255 255 255 255 255 255 255 255 255 255 255 255 255 255 255 255 255 255 255 255 255 255 255 255 255 255 255 255 255 255 255 255 255 255 255 255 255 255 255 255 255 255 255 255 255 255 255 255 255 255 255 255 255 255 255 255 255 255 255 255 255 255 255 255 255 255 255 255 255 255 255 255 255 255 255 255 255 255 255 
255 255 255 255 255 255 255 255 255 255 255 255 255 255 255 255 255 255 255 255 255 255 255 255 255 255 255 255 255 255 255 255 255 255 255 255 255 255 255 255 255 255 255 255 255 255 255 255 255 255 255 255 255 255 255 255 255 255 255 255 255 255 255 255 255 255 255 255 255 255 255 255 255 255 255 255 255 255 255 255 255 255 255 255 255 255 255 255 255 255 255 255 255 255 255 255 255 255 255 255 255 255 255 255 255 255 255 255 255 255 255 255 255 255 255 255 255 255 255 255 255 255 255 255 255 255 255 255 255 255 255 255 255 255 255 255 255 255 255 255 255 255 255 255 255 255 255 255 255 255 255 255 255 255 255 255 255 255 255 255 255 255 255 255 255 255 255 255 255 255 255 255 255 255 255 255 255 255 255 255 255 255 255 255 255 255 255 255 255 255 255 255 
