P3
64 64
255
255 255 255 255 255 255 255 255 255 255 255 255 255 255 255 255 255 255 255 255 255 255 255 255 255 255 255 255 255 255 255 255 255 255 255 255 255 255 255 255 255 255 255 255 255 255 255 255 255 255 255 255 255 255 255 255 255 255 255 255 255 255 255 255 255 255 255 255 255 255 255 255 255 255 255 255 255 255 255 255 255 255 255 255 255 255 255 255 255 255 255 255 255 255 255 255 255 255 255 255 255 255 255 255 255 255 255 255 255 255 255 136 104 80 255 255 255 255 255 255 136 104 80 136 104 80 136 104 80 255 255 255 255 255 255 255 255 255 255 255 255 255 255 255 255 255 255 255 255 255 255 255 255 255 255 255 255 255 255 255 255 255 255 255 255 255 255 255 255 255 255 255 255 255 255 255 255 255 255 255 255 255 255 255 255 255 255 255 255 255 255 255 
255 255 255 255 255 255 255 255 255 255 255 255 255 255 255 255 255 255 255 255 255 255 255 255 255 255 255 255 255 255 255 255 255 255 255 255 255 255 255 255 255 255 255 255 255 255 255 255 255 255 255 255 255 255 255 255 255 255 255 255 255 255 255 255 255 255 255 255 255 255 255 255 255 255 255 255 255 255 255 255 255 255 255 255 255 255 255 255 255 255 255 255 255 255 255 255 255 255 255 255 255 255 255 255 255 255 255 255 136 104 80 240 240 144 136 104 80 136 104 80 240 240 144 240 240 144 136 104 80 255 255 255 255 255 255 255 255 255 255 255 255 255 255 255 255 255 255 255 255 255 255 255 255 255 255 255 255 255 255 255 255 255 255 255 255 255 255 255 255 255 255 255 255 255 255 255 255 255 255 255 255 255 255 255 255 255 255 255 255 255 255 255 
255 255 255 255 255 255 255 255 255 255 255 255 255 255 255 255 255 255 255 255 255 255 255 255 255 255 255 255 255 255 255 255 255 255 255 255 255 255 255 255 255 255 255 255 255 255 255 255 255 255 255 255 255 255 255 255 255 255 255 255 255 255 255 255 255 255 255 255 255 255 255 255 255 255 255 255 255 255 255 255 255 255 255 255 255 255 255 255 255 255 255 255 255 255 255 255 255 255 255 255 255 255 255 255 255 136 104 80 240 240 144 240 240 144 240 240 144 240 240 144 240 240 144 240 240 144 208 208 120 136 104 80 255 255 255 255 255 255 255 255 255 255 255 255 255 255 255 255 255 255 255 255 255 255 255 255 255 255 255 255 255 255 255 255 255 255 255 255 255 255 255 255 255 255 255 255 255 255 255 255 255 255 255 255 255 255 255 255 255 255 255 255 
255 255 255 255 255 255 255 255 255 255 255 255 255 255 255 255 255 255 255 255 255 255 255 255 255 255 255 255 255 255 255 255 255 255 255 255 255 255 255 255 255 255 255 255 255 255 255 255 255 255 255 255 255 255 255 255 255 255 255 255 255 255 255 255 255 255 255 255 255 255 255 255 255 255 255 255 255 255 255 255 255 255 255 255 255 255 255 255 255 255 255 255 255 255 255 255 255 255 255 255 255 255 255 255 255 136 104 80 136 104 80 136 104 80 136 104 80 240 240 144 240 240 144 240 240 144 208 208 120 136 104 80 136 104 80 136 104 80 255 255 255 255 255 255 255 255 255 255 255 255 255 255 255 255 255 255 255 255 255 255 255 255 255 255 255 255 255 255 255 255 255 255 255 255 255 255 255 255 255 255 255 255 255 255 255 255 255 255 255 255 255 255 
255 255 255 255 255 255 255 255 255 255 255 255 255 255 255 255 255 255 255 255 255 255 255 255 255 255 255 255 255 255 255 255 255 255 255 255 255 255 255 255 255 255 255 255 255 255 255 255 255 255 255 255 255 255 255 255 255 255 255 255 255 255 255 255 255 255 255 255 255 255 255 255 255 255 255 255 255 255 255 255 255 255 255 255 255 255 255 255 255 255 255 255 255 255 255 255 255 255 255 136 104 80 136 104 80 208 176 72 208 176 72 208 176 72 208 176 72 72 104 72 72 104 72 208 208 120 208 208 120 208 208 120 208 208 120 208 208 120 40 40 40 255 255 255 255 255 255 255 255 255 255 255 255 255 255 255 255 255 255 255 255 255 255 255 255 255 255 255 255 255 255 255 255 255 255 255 255 255 255 255 255 255 255 255 255 255 255 255 255 255 255 255 
255 255 255 255 255 255 255 255 255 255 255 255 255 255 255 255 255 255 255 255 255 255 255 255 255 255 255 255 255 255 255 255 255 255 255 255 255 255 255 255 255 255 255 255 255 255 255 255 255 255 255 255 255 255 255 255 255 255 255 255 255 255 255 255 255 255 255 255 255 255 255 255 255 255 255 255 255 255 255 255 255 255 255 255 255 255 255 255 255 255 255 255 255 255 255 255 136 104 80 208 176 72 208 176 72 208 176 72 208 176 72 208 176 72 208 176 72 136 104 80 136 104 80 40 40 40 208 208 120 40 40 40 40 40 40 40 40 40 255 255 255 255 255 255 255 255 255 255 255 255 255 255 255 255 255 255 255 255 255 255 255 255 255 255 255 255 255 255 255 255 255 255 255 255 255 255 255 255 255 255 255 255 255 255 255 255 255 255 255 255 255 255 
255 255 255 255 255 255 255 255 255 255 255 255 255 255 255 255 255 255 255 255 255 255 255 255 255 255 255 255 255 255 255 255 255 255 255 255 255 255 255 152 192 96 255 255 255 255 255 255 255 255 255 255 255 255 255 255 255 255 255 255 72 104 72 72 104 72 255 255 255 255 255 255 255 255 255 255 255 255 255 255 255 255 255 255 255 255 255 255 255 255 255 255 255 72 104 72 136 104 80 136 104 80 208 176 72 208 176 72 136 104 80 208 176 72 136 104 80 208 176 72 136 104 80 136 104 80 40 40 40 255 255 255 255 255 255 255 255 255 255 255 255 255 255 255 255 255 255 255 255 255 255 255 255 255 255 255 255 255 255 255 255 255 255 255 255 255 255 255 255 255 255 255 255 255 255 255 255 255 255 255 255 255 255 255 255 255 255 255 255 255 255 255 
255 255 255 255 255 255 255 255 255 255 255 255 255 255 255 255 255 255 255 255 255 255 255 255 255 255 255 255 255 255 255 255 255 255 255 255 152 192 96 160 232 88 72 104 72 255 255 255 255 255 255 255 255 255 255 255 255 72 104 72 200 248 136 200 248 136 72 104 72 255 255 255 255 255 255 255 255 255 255 255 255 255 255 255 72 104 72 72 104 72 72 104 72 136 104 80 136 104 80 136 104 80 136 104 80 136 104 80 208 176 72 136 104 80 208 176 72 136 104 80 136 104 80 136 104 80 40 40 40 255 255 255 255 255 255 255 255 255 255 255 255 255 255 255 255 255 255 255 255 255 255 255 255 255 255 255 255 255 255 255 255 255 255 255 255 255 255 255 255 255 255 255 255 255 255 255 255 255 255 255 255 255 255 255 255 255 255 255 255 255 255 255 
255 255 255 255 255 255 255 255 255 255 255 255 255 255 255 255 255 255 255 255 255 255 255 255 255 255 255 255 255 255 255 255 255 255 255 255 104 136 88 160 232 88 160 232 88 72 104 72 255 255 255 255 255 255 72 104 72 200 248 136 200 248 136 200 248 136 72 104 72 255 255 255 255 255 255 255 255 255 72 104 72 72 104 72 200 248 136 200 248 136 72 104 72 136 104 80 136 104 80 136 104 80 136 104 80 136 104 80 136 104 80 72 104 72 72 104 72 136 104 80 136 104 80 136 104 80 136 104 80 40 40 40 255 255 255 255 255 255 255 255 255 255 255 255 255 255 255 255 255 255 255 255 255 255 255 255 255 255 255 255 255 255 255 255 255 255 255 255 255 255 255 255 255 255 255 255 255 255 255 255 255 255 255 255 255 255 255 255 255 255 255 255 
255 255 255 255 255 255 255 255 255 255 255 255 255 255 255 255 255 255 255 255 255 255 255 255 255 255 255 255 255 255 255 255 255 255 255 255 104 136 88 160 232 88 160 232 88 160 232 88 72 104 72 160 232 88 200 248 136 200 248 136 200 248 136 200 248 136 200 248 136 72 104 72 255 255 255 72 104 72 200 248 136 200 248 136 200 248 136 200 248 136 200 248 136 72 104 72 136 104 80 136 104 80 136 104 80 72 104 72 72 104 72 160 232 88 160 232 88 72 104 72 136 104 80 136 104 80 136 104 80 40 40 40 72 104 72 72 104 72 255 255 255 255 255 255 255 255 255 255 255 255 255 255 255 255 255 255 255 255 255 255 255 255 255 255 255 255 255 255 255 255 255 255 255 255 255 255 255 255 255 255 255 255 255 255 255 255 255 255 255 255 255 255 
255 255 255 255 255 255 255 255 255 255 255 255 255 255 255 255 255 255 255 255 255 255 255 255 255 255 255 255 255 255 255 255 255 152 192 96 160 232 88 160 232 88 160 232 88 160 232 88 160 232 88 160 232 88 200 248 136 200 248 136 200 248 136 200 248 136 200 248 136 152 192 96 152 192 96 200 248 136 200 248 136 200 248 136 200 248 136 200 248 136 200 248 136 200 248 136 72 104 72 72 104 72 72 104 72 160 232 88 160 232 88 160 232 88 160 232 88 160 232 88 72 104 72 136 104 80 72 104 72 72 104 72 160 232 88 160 232 88 40 40 40 255 255 255 255 255 255 255 255 255 255 255 255 255 255 255 255 255 255 255 255 255 255 255 255 255 255 255 255 255 255 255 255 255 255 255 255 255 255 255 255 255 255 255 255 255 255 255 255 255 255 255 
255 255 255 255 255 255 255 255 255 255 255 255 255 255 255 255 255 255 255 255 255 255 255 255 255 255 255 255 255 255 255 255 255 104 136 88 160 232 88 160 232 88 160 232 88 160 232 88 160 232 88 200 248 136 200 248 136 200 248 136 200 248 136 200 248 136 200 248 136 200 248 136 200 248 136 200 248 136 200 248 136 200 248 136 200 248 136 200 248 136 200 248 136 200 248 136 200 248 136 200 248 136 200 248 136 160 232 88 160 232 88 160 232 88 160 232 88 160 232 88 160 232 88 72 104 72 160 232 88 160 232 88 160 232 88 160 232 88 72 104 72 255 255 255 255 255 255 255 255 255 255 255 255 255 255 255 255 255 255 255 255 255 255 255 255 255 255 255 255 255 255 255 255 255 255 255 255 255 255 255 255 255 255 255 255 255 255 255 255 255 255 255 
255 255 255 255 255 255 255 255 255 255 255 255 255 255 255 255 255 255 255 255 255 255 255 255 255 255 255 255 255 255 255 255 255 104 136 88 160 232 88 160 232 88 160 232 88 160 232 88 160 232 88 200 248 136 200 248 136 200 248 136 200 248 136 200 248 136 200 248 136 200 248 136 200 248 136 200 248 136 200 248 136 200 248 136 200 248 136 200 248 136 200 248 136 200 248 136 200 248 136 200 248 136 200 248 136 160 232 88 160 232 88 160 232 88 160 232 88 160 232 88 160 232 88 160 232 88 160 232 88 160 232 88 160 232 88 160 232 88 152 192 96 40 40 40 255 255 255 255 255 255 255 255 255 72 104 72 40 40 40 255 255 255 255 255 255 255 255 255 255 255 255 255 255 255 255 255 255 255 255 255 255 255 255 255 255 255 255 255 255 255 255 255 
255 255 255 255 255 255 255 255 255 255 255 255 255 255 255 255 255 255 255 255 255 255 255 255 255 255 255 255 255 255 255 255 255 104 136 88 160 232 88 160 232 88 160 232 88 160 232 88 160 232 88 200 248 136 200 248 136 200 248 136 200 248 136 200 248 136 200 248 136 200 248 136 200 248 136 200 248 136 200 248 136 200 248 136 200 248 136 200 248 136 200 248 136 200 248 136 200 248 136 200 248 136 200 248 136 160 232 88 160 232 88 160 232 88 160 232 88 160 232 88 160 232 88 160 232 88 160 232 88 160 232 88 160 232 88 160 232 88 160 232 88 72 104 72 255 255 255 72 104 72 72 104 72 160 232 88 160 232 88 40 40 40 255 255 255 255 255 255 255 255 255 255 255 255 255 255 255 255 255 255 255 255 255 255 255 255 255 255 255 255 255 255 
255 255 255 255 255 255 255 255 255 255 255 255 255 255 255 255 255 255 255 255 255 255 255 255 255 255 255 255 255 255 152 192 96 160 232 88 160 232 88 160 232 88 160 232 88 160 232 88 160 232 88 200 248 136 200 248 136 200 248 136 200 248 136 200 248 136 200 248 136 200 248 136 200 248 136 200 248 136 200 248 136 200 248 136 200 248 136 200 248 136 200 248 136 200 248 136 200 248 136 200 248 136 160 232 88 160 232 88 160 232 88 160 232 88 160 232 88 160 232 88 160 232 88 160 232 88 160 232 88 160 232 88 160 232 88 160 232 88 160 232 88 152 192 96 72 104 72 160 232 88 160 232 88 152 192 96 152 192 96 72 104 72 255 255 255 255 255 255 255 255 255 255 255 255 255 255 255 255 255 255 255 255 255 255 255 255 255 255 255 255 255 255 
255 255 255 255 255 255 255 255 255 255 255 255 255 255 255 255 255 255 255 255 255 255 255 255 255 255 255 255 255 255 104 136 88 160 232 88 160 232 88 160 232 88 152 192 96 152 192 96 152 192 96 152 192 96 152 192 96 152 192 96 160 232 88 160 232 88 200 248 136 200 248 136 200 248 136 200 248 136 200 248 136 200 248 136 200 248 136 200 248 136 200 248 136 200 248 136 200 248 136 200 248 136 160 232 88 160 232 88 160 232 88 160 232 88 160 232 88 160 232 88 160 232 88 160 232 88 160 232 88 160 232 88 160 232 88 160 232 88 160 232 88 152 192 96 152 192 96 152 192 96 152 192 96 152 192 96 152 192 96 152 192 96 40 40 40 255 255 255 255 255 255 255 255 255 72 104 72 72 104 72 72 104 72 255 255 255 255 255 255 255 255 255 
255 255 255 255 255 255 255 255 255 255 255 255 255 255 255 255 255 255 255 255 255 255 255 255 255 255 255 255 255 255 72 104 72 152 192 96 104 136 88 104 136 88 104 136 88 104 136 88 104 136 88 104 136 88 104 136 88 104 136 88 104 136 88 104 136 88 104 136 88 104 136 88 104 136 88 104 136 88 104 136 88 152 192 96 152 192 96 152 192 96 152 192 96 200 248 136 200 248 136 200 248 136 160 232 88 160 232 88 160 232 88 160 232 88 160 232 88 160 232 88 160 232 88 160 232 88 160 232 88 160 232 88 160 232 88 160 232 88 152 192 96 152 192 96 152 192 96 152 192 96 152 192 96 152 192 96 152 192 96 152 192 96 72 104 72 255 255 255 72 104 72 72 104 72 160 232 88 160 232 88 40 40 40 255 255 255 255 255 255 255 255 255 
255 255 255 255 255 255 255 255 255 255 255 255 255 255 255 255 255 255 255 255 255 255 255 255 255 255 255 255 255 255 255 255 255 72 104 72 104 136 88 104 136 88 104 136 88 104 136 88 104 136 88 104 136 88 104 136 88 104 136 88 104 136 88 104 136 88 104 136 88 104 136 88 104 136 88 104 136 88 104 136 88 104 136 88 104 136 88 104 136 88 104 136 88 104 136 88 104 136 88 104 136 88 152 192 96 152 192 96 160 232 88 160 232 88 160 232 88 160 232 88 160 232 88 160 232 88 160 232 88 160 232 88 160 232 88 160 232 88 152 192 96 152 192 96 152 192 96 152 192 96 152 192 96 152 192 96 152 192 96 152 192 96 152 192 96 152 192 96 152 192 96 152 192 96 152 192 96 152 192 96 40 40 40 255 255 255 255 255 255 255 255 255 
255 255 255 255 255 255 255 255 255 255 255 255 255 255 255 255 255 255 255 255 255 255 255 255 255 255 255 255 255 255 255 255 255 255 255 255 72 104 72 72 104 72 104 136 88 104 136 88 104 136 88 104 136 88 104 136 88 104 136 88 104 136 88 104 136 88 104 136 88 72 104 72 72 104 72 72 104 72 72 104 72 72 104 72 72 104 72 104 136 88 104 136 88 104 136 88 104 136 88 104 136 88 104 136 88 104 136 88 104 136 88 104 136 88 104 136 88 152 192 96 152 192 96 160 232 88 160 232 88 160 232 88 160 232 88 160 232 88 152 192 96 152 192 96 152 192 96 152 192 96 152 192 96 152 192 96 152 192 96 152 192 96 152 192 96 152 192 96 152 192 96 152 192 96 152 192 96 152 192 96 40 40 40 255 255 255 255 255 255 255 255 255 
255 255 255 255 255 255 255 255 255 255 255 255 255 255 255 255 255 255 255 255 255 255 255 255 255 255 255 255 255 255 255 255 255 255 255 255 255 255 255 255 255 255 72 104 72 72 104 72 104 136 88 104 136 88 104 136 88 104 136 88 104 136 88 72 104 72 72 104 72 208 208 120 136 104 80 152 192 96 152 192 96 152 192 96 152 192 96 152 192 96 72 104 72 72 104 72 72 104 72 72 104 72 72 104 72 104 136 88 104 136 88 104 136 88 104 136 88 104 136 88 104 136 88 104 136 88 152 192 96 152 192 96 152 192 96 152 192 96 152 192 96 152 192 96 152 192 96 152 192 96 152 192 96 152 192 96 152 192 96 152 192 96 152 192 96 152 192 96 152 192 96 152 192 96 152 192 96 40 40 40 255 255 255 255 255 255 255 255 255 255 255 255 
255 255 255 255 255 255 255 255 255 255 255 255 255 255 255 255 255 255 255 255 255 255 255 255 255 255 255 255 255 255 255 255 255 255 255 255 255 255 255 255 255 255 255 255 255 255 255 255 72 104 72 72 104 72 72 104 72 104 136 88 72 104 72 208 208 120 208 208 120 136 104 80 152 192 96 152 192 96 152 192 96 152 192 96 152 192 96 152 192 96 152 192 96 152 192 96 152 192 96 152 192 96 72 104 72 72 104 72 72 104 72 72 104 72 72 104 72 104 136 88 104 136 88 104 136 88 104 136 88 104 136 88 104 136 88 104 136 88 152 192 96 152 192 96 152 192 96 152 192 96 152 192 96 152 192 96 152 192 96 152 192 96 152 192 96 152 192 96 152 192 96 152 192 96 152 192 96 40 40 40 255 255 255 255 255 255 255 255 255 255 255 255 
255 255 255 255 255 255 255 255 255 255 255 255 255 255 255 255 255 255 255 255 255 255 255 255 255 255 255 255 255 255 255 255 255 255 255 255 255 255 255 255 255 255 255 255 255 255 255 255 255 255 255 255 255 255 72 104 72 136 104 80 208 208 120 208 208 120 136 104 80 248 248 248 200 200 216 160 232 88 160 232 88 160 232 88 160 232 88 152 192 96 152 192 96 136 104 80 136 104 80 152 192 96 152 192 96 136 104 80 176 176 112 176 176 112 176 176 112 72 104 72 72 104 72 72 104 72 104 136 88 104 136 88 104 136 88 104 136 88 104 136 88 104 136 88 104 136 88 152 192 96 152 192 96 152 192 96 152 192 96 152 192 96 152 192 96 152 192 96 152 192 96 152 192 96 152 192 96 40 40 40 255 255 255 255 255 255 255 255 255 255 255 255 
255 255 255 255 255 255 255 255 255 255 255 255 255 255 255 255 255 255 255 255 255 255 255 255 255 255 255 255 255 255 255 255 255 255 255 255 255 255 255 255 255 255 255 255 255 255 255 255 255 255 255 255 255 255 136 104 80 208 208 120 136 104 80 136 104 80 248 248 248 40 40 40 248 248 248 136 104 80 160 232 88 160 232 88 160 232 88 160 232 88 136 104 80 248 248 248 200 200 216 160 232 88 152 192 96 152 192 96 136 104 80 176 176 112 176 176 112 176 176 112 176 176 112 176 176 112 72 104 72 72 104 72 104 136 88 104 136 88 104 136 88 104 136 88 104 136 88 104 136 88 104 136 88 104 136 88 152 192 96 152 192 96 152 192 96 152 192 96 152 192 96 152 192 96 40 40 40 255 255 255 255 255 255 255 255 255 255 255 255 255 255 255 
255 255 255 255 255 255 255 255 255 255 255 255 255 255 255 255 255 255 255 255 255 255 255 255 255 255 255 255 255 255 255 255 255 255 255 255 255 255 255 255 255 255 255 255 255 255 255 255 255 255 255 136 104 80 208 208 120 136 104 80 160 232 88 136 104 80 248 248 248 40 40 40 248 248 248 192 128 112 192 128 112 192 128 112 160 232 88 136 104 80 248 248 248 40 40 40 248 248 248 136 104 80 160 232 88 160 232 88 160 232 88 136 104 80 208 208 120 208 208 120 176 176 112 176 176 112 176 176 112 176 176 112 72 104 72 72 104 72 104 136 88 104 136 88 104 136 88 104 136 88 104 136 88 104 136 88 104 136 88 104 136 88 152 192 96 152 192 96 152 192 96 152 192 96 40 40 40 255 255 255 255 255 255 255 255 255 255 255 255 255 255 255 
255 255 255 255 255 255 255 255 255 255 255 255 255 255 255 255 255 255 255 255 255 255 255 255 255 255 255 255 255 255 255 255 255 255 255 255 255 255 255 255 255 255 255 255 255 255 255 255 136 104 80 240 240 144 208 208 120 208 208 120 136 104 80 160 232 88 208 176 72 248 248 248 192 128 112 240 160 96 240 160 96 240 160 96 136 104 80 136 104 80 248 248 248 40 40 40 248 248 248 136 104 80 160 232 88 160 232 88 160 232 88 160 232 88 136 104 80 240 240 144 240 240 144 208 208 120 176 176 112 176 176 112 176 176 112 176 176 112 72 104 72 104 136 88 104 136 88 104 136 88 104 136 88 104 136 88 104 136 88 104 136 88 104 136 88 104 136 88 104 136 88 40 40 40 255 255 255 255 255 255 255 255 255 255 255 255 255 255 255 255 255 255 
255 255 255 255 255 255 255 255 255 255 255 255 255 255 255 255 255 255 255 255 255 255 255 255 104 136 88 104 136 88 104 136 88 255 255 255 255 255 255 255 255 255 255 255 255 136 104 80 240 240 144 240 240 144 136 104 80 136 104 80 136 104 80 136 104 80 192 128 112 192 128 112 240 160 96 240 160 96 240 160 96 240 160 96 240 160 96 136 104 80 248 248 248 248 248 248 136 104 80 160 232 88 160 232 88 160 232 88 160 232 88 208 176 72 240 240 144 240 240 144 240 240 144 240 240 144 208 208 120 208 208 120 176 176 112 176 176 112 176 176 112 72 104 72 40 40 40 40 40 40 40 40 40 40 40 40 40 40 40 40 40 40 40 40 40 40 40 40 40 40 40 255 255 255 255 255 255 255 255 255 255 255 255 255 255 255 255 255 255 255 255 255 
255 255 255 255 255 255 255 255 255 255 255 255 255 255 255 255 255 255 255 255 255 104 136 88 200 248 136 200 248 136 160 232 88 72 104 72 255 255 255 255 255 255 255 255 255 136 104 80 240 240 144 136 104 80 240 240 144 240 240 144 240 160 96 240 160 96 240 160 96 240 160 96 240 160 96 240 160 96 240 160 96 192 128 112 136 104 80 192 128 112 136 104 80 160 232 88 160 232 88 160 232 88 160 232 88 208 176 72 208 176 72 240 240 144 240 240 144 240 240 144 240 240 144 240 240 144 208 208 120 208 208 120 208 208 120 208 208 120 176 176 112 40 40 40 255 255 255 255 255 255 255 255 255 255 255 255 255 255 255 255 255 255 255 255 255 255 255 255 255 255 255 255 255 255 255 255 255 255 255 255 255 255 255 255 255 255 255 255 255 255 255 255 
255 255 255 255 255 255 255 255 255 255 255 255 255 255 255 255 255 255 104 136 88 200 248 136 200 248 136 200 248 136 160 232 88 72 104 72 255 255 255 255 255 255 136 104 80 240 240 144 240 240 144 136 104 80 240 160 96 240 160 96 192 128 112 136 104 80 136 104 80 192 128 112 192 128 112 192 128 112 240 160 96 240 160 96 240 160 96 240 160 96 240 160 96 136 104 80 160 232 88 208 176 72 208 176 72 240 240 144 240 240 144 240 240 144 240 240 144 240 240 144 240 240 144 240 240 144 208 208 120 208 208 120 208 208 120 208 208 120 208 208 120 40 40 40 255 255 255 255 255 255 255 255 255 255 255 255 255 255 255 255 255 255 255 255 255 255 255 255 255 255 255 255 255 255 255 255 255 255 255 255 255 255 255 255 255 255 255 255 255 255 255 255 
255 255 255 255 255 255 255 255 255 255 255 255 255 255 255 104 136 88 200 248 136 200 248 136 160 232 88 160 232 88 160 232 88 72 104 72 255 255 255 136 104 80 136 104 80 240 240 144 240 240 144 240 240 144 136 104 80 192 128 112 192 128 112 192 128 112 136 104 80 136 104 80 136 104 80 136 104 80 192 128 112 192 128 112 192 128 112 240 160 96 240 160 96 240 160 96 136 104 80 136 104 80 136 104 80 136 104 80 240 240 144 240 240 144 240 240 144 240 240 144 240 240 144 240 240 144 208 208 120 208 208 120 208 208 120 208 208 120 208 208 120 208 208 120 72 104 72 255 255 255 255 255 255 255 255 255 255 255 255 255 255 255 255 255 255 255 255 255 255 255 255 255 255 255 255 255 255 255 255 255 255 255 255 255 255 255 255 255 255 255 255 255 
255 255 255 255 255 255 255 255 255 255 255 255 255 255 255 104 136 88 200 248 136 160 232 88 72 104 72 152 192 96 152 192 96 72 104 72 136 104 80 240 240 144 240 240 144 240 240 144 240 240 144 240 240 144 240 240 144 240 240 144 136 104 80 192 128 112 192 128 112 136 104 80 136 104 80 136 104 80 136 104 80 136 104 80 192 128 112 192 128 112 192 128 112 192 128 112 192 128 112 192 128 112 192 128 112 192 128 112 136 104 80 240 240 144 240 240 144 240 240 144 240 240 144 240 240 144 208 208 120 208 208 120 208 208 120 208 208 120 208 208 120 208 208 120 40 40 40 255 255 255 255 255 255 255 255 255 255 255 255 255 255 255 255 255 255 255 255 255 255 255 255 255 255 255 255 255 255 255 255 255 255 255 255 255 255 255 255 255 255 255 255 255 
255 255 255 255 255 255 255 255 255 255 255 255 104 136 88 200 248 136 200 248 136 160 232 88 72 104 72 152 192 96 152 192 96 152 192 96 72 104 72 208 176 72 240 240 144 208 176 72 208 176 72 240 240 144 208 176 72 240 240 144 136 104 80 192 128 112 192 128 112 136 104 80 136 104 80 136 104 80 136 104 80 136 104 80 136 104 80 136 104 80 136 104 80 192 128 112 192 128 112 192 128 112 192 128 112 192 128 112 136 104 80 240 240 144 240 240 144 240 240 144 240 240 144 240 240 144 208 208 120 208 208 120 208 208 120 208 208 120 208 208 120 208 208 120 40 40 40 255 255 255 255 255 255 255 255 255 255 255 255 255 255 255 255 255 255 255 255 255 255 255 255 255 255 255 255 255 255 255 255 255 255 255 255 255 255 255 255 255 255 255 255 255 
255 255 255 255 255 255 255 255 255 255 255 255 104 136 88 200 248 136 160 232 88 152 192 96 104 136 88 152 192 96 152 192 96 152 192 96 72 104 72 208 176 72 208 176 72 240 240 144 208 176 72 208 176 72 240 240 144 240 240 144 136 104 80 192 128 112 192 128 112 136 104 80 136 104 80 136 104 80 136 104 80 136 104 80 136 104 80 136 104 80 136 104 80 136 104 80 136 104 80 136 104 80 136 104 80 136 104 80 240 240 144 240 240 144 240 240 144 240 240 144 240 240 144 208 208 120 208 208 120 208 208 120 136 104 80 208 208 120 208 208 120 208 208 120 208 208 120 72 104 72 255 255 255 255 255 255 255 255 255 255 255 255 255 255 255 255 255 255 255 255 255 255 255 255 255 255 255 255 255 255 255 255 255 255 255 255 255 255 255 255 255 255 
255 255 255 255 255 255 255 255 255 104 136 88 200 248 136 200 248 136 72 104 72 152 192 96 152 192 96 104 136 88 152 192 96 152 192 96 72 104 72 240 240 144 240 240 144 240 240 144 208 176 72 208 176 72 240 240 144 240 240 144 136 104 80 240 160 96 192 128 112 136 104 80 136 104 80 136 104 80 192 128 112 192 128 112 192 128 112 192 128 112 136 104 80 192 128 112 192 128 112 136 104 80 208 208 120 240 240 144 240 240 144 240 240 144 208 176 72 208 176 72 240 240 144 208 208 120 208 208 120 136 104 80 136 104 80 136 104 80 208 208 120 208 208 120 208 208 120 40 40 40 255 255 255 255 255 255 255 255 255 255 255 255 255 255 255 255 255 255 255 255 255 255 255 255 255 255 255 255 255 255 255 255 255 255 255 255 255 255 255 255 255 255 
255 255 255 255 255 255 255 255 255 104 136 88 200 248 136 160 232 88 72 104 72 152 192 96 152 192 96 104 136 88 152 192 96 152 192 96 72 104 72 240 240 144 240 240 144 240 240 144 208 176 72 240 240 144 240 240 144 240 240 144 192 128 112 240 160 96 136 104 80 136 104 80 192 128 112 192 128 112 192 128 112 192 128 112 192 128 112 192 128 112 136 104 80 192 128 112 192 128 112 136 104 80 208 176 72 240 240 144 240 240 144 208 176 72 208 176 72 208 176 72 208 176 72 208 208 120 136 104 80 136 104 80 208 208 120 136 104 80 208 208 120 208 208 120 208 208 120 208 208 120 40 40 40 255 255 255 255 255 255 255 255 255 255 255 255 255 255 255 255 255 255 255 255 255 255 255 255 255 255 255 255 255 255 255 255 255 255 255 255 255 255 255 
255 255 255 255 255 255 255 255 255 72 104 72 160 232 88 152 192 96 152 192 96 104 136 88 152 192 96 152 192 96 152 192 96 152 192 96 152 192 96 72 104 72 240 240 144 240 240 144 240 240 144 240 240 144 240 240 144 240 240 144 192 128 112 240 160 96 136 104 80 192 128 112 192 128 112 192 128 112 192 128 112 192 128 112 192 128 112 192 128 112 136 104 80 192 128 112 136 104 80 208 208 120 208 176 72 208 176 72 208 176 72 208 176 72 240 240 144 240 240 144 136 104 80 136 104 80 136 104 80 208 208 120 208 208 120 208 208 120 136 104 80 208 208 120 136 104 80 208 208 120 240 240 144 40 40 40 255 255 255 255 255 255 255 255 255 255 255 255 255 255 255 255 255 255 255 255 255 255 255 255 255 255 255 255 255 255 255 255 255 255 255 255 
255 255 255 255 255 255 255 255 255 72 104 72 152 192 96 152 192 96 152 192 96 104 136 88 152 192 96 152 192 96 152 192 96 152 192 96 152 192 96 152 192 96 72 104 72 72 104 72 240 240 144 240 240 144 240 240 144 240 240 144 240 160 96 240 160 96 192 128 112 192 128 112 192 128 112 192 128 112 192 128 112 192 128 112 192 128 112 136 104 80 240 160 96 240 160 96 136 104 80 240 240 144 240 240 144 208 176 72 208 176 72 240 240 144 240 240 144 240 240 144 208 208 120 136 104 80 136 104 80 208 208 120 208 208 120 208 208 120 208 208 120 136 104 80 208 208 120 136 104 80 208 208 120 240 240 144 40 40 40 255 255 255 255 255 255 255 255 255 255 255 255 255 255 255 255 255 255 255 255 255 255 255 255 255 255 255 255 255 255 255 255 255 
255 255 255 255 255 255 255 255 255 255 255 255 72 104 72 152 192 96 152 192 96 152 192 96 152 192 96 152 192 96 152 192 96 104 136 88 152 192 96 160 232 88 160 232 88 160 232 88 72 104 72 240 240 144 240 240 144 192 128 112 240 160 96 136 104 80 192 128 112 192 128 112 192 128 112 192 128 112 192 128 112 192 128 112 192 128 112 136 104 80 240 160 96 136 104 80 208 208 120 240 240 144 240 240 144 240 240 144 240 240 144 240 240 144 240 240 144 208 208 120 208 208 120 208 208 120 208 208 120 208 208 120 208 208 120 208 208 120 208 208 120 208 208 120 208 208 120 208 208 120 136 104 80 40 40 40 255 255 255 255 255 255 255 255 255 255 255 255 255 255 255 255 255 255 255 255 255 255 255 255 255 255 255 255 255 255 255 255 255 255 255 255 
255 255 255 255 255 255 255 255 255 255 255 255 40 40 40 152 192 96 152 192 96 152 192 96 152 192 96 152 192 96 152 192 96 104 136 88 152 192 96 160 232 88 160 232 88 160 232 88 40 40 40 240 240 144 192 128 112 240 160 96 240 160 96 136 104 80 192 128 112 192 128 112 192 128 112 192 128 112 192 128 112 192 128 112 136 104 80 240 160 96 240 160 96 136 104 80 240 240 144 240 240 144 240 240 144 240 240 144 240 240 144 240 240 144 104 136 88 104 136 88 104 136 88 208 208 120 208 208 120 208 208 120 208 208 120 208 208 120 72 104 72 72 104 72 208 208 120 208 208 120 40 40 40 255 255 255 255 255 255 255 255 255 255 255 255 255 255 255 255 255 255 255 255 255 255 255 255 255 255 255 255 255 255 255 255 255 255 255 255 255 255 255 
255 255 255 255 255 255 255 255 255 255 255 255 40 40 40 152 192 96 152 192 96 152 192 96 152 192 96 152 192 96 152 192 96 152 192 96 72 104 72 40 40 40 40 40 40 40 40 40 240 240 144 240 240 144 136 104 80 240 160 96 240 160 96 136 104 80 192 128 112 192 128 112 192 128 112 192 128 112 136 104 80 136 104 80 240 160 96 240 160 96 136 104 80 240 240 144 240 240 144 240 240 144 240 240 144 240 240 144 240 240 144 104 136 88 160 232 88 200 248 136 200 248 136 160 232 88 104 136 88 104 136 88 208 208 120 72 104 72 152 192 96 152 192 96 72 104 72 208 208 120 40 40 40 255 255 255 255 255 255 255 255 255 255 255 255 255 255 255 255 255 255 255 255 255 255 255 255 255 255 255 255 255 255 255 255 255 255 255 255 255 255 255 
255 255 255 255 255 255 255 255 255 255 255 255 255 255 255 40 40 40 152 192 96 152 192 96 152 192 96 152 192 96 152 192 96 72 104 72 208 208 120 208 208 120 208 208 120 240 240 144 240 240 144 240 240 144 136 104 80 240 160 96 240 160 96 240 160 96 136 104 80 136 104 80 136 104 80 136 104 80 240 160 96 240 160 96 240 160 96 136 104 80 240 240 144 240 240 144 240 240 144 240 240 144 240 240 144 240 240 144 240 240 144 72 104 72 160 232 88 200 248 136 200 248 136 200 248 136 200 248 136 160 232 88 72 104 72 72 104 72 152 192 96 152 192 96 152 192 96 72 104 72 255 255 255 255 255 255 255 255 255 255 255 255 255 255 255 255 255 255 255 255 255 255 255 255 255 255 255 255 255 255 255 255 255 255 255 255 255 255 255 255 255 255 
255 255 255 255 255 255 255 255 255 255 255 255 255 255 255 255 255 255 72 104 72 40 40 40 152 192 96 152 192 96 152 192 96 136 104 80 208 208 120 208 208 120 240 240 144 240 240 144 240 240 144 240 240 144 240 240 144 136 104 80 240 160 96 240 160 96 240 160 96 240 160 96 240 160 96 240 160 96 240 160 96 136 104 80 136 104 80 240 240 144 240 240 144 240 240 144 240 240 144 240 240 144 240 240 144 240 240 144 240 240 144 72 104 72 152 192 96 152 192 96 72 104 72 160 232 88 200 248 136 200 248 136 200 248 136 160 232 88 72 104 72 152 192 96 152 192 96 160 232 88 72 104 72 255 255 255 255 255 255 255 255 255 255 255 255 255 255 255 255 255 255 255 255 255 255 255 255 255 255 255 255 255 255 255 255 255 255 255 255 255 255 255 
255 255 255 255 255 255 255 255 255 255 255 255 255 255 255 255 255 255 255 255 255 255 255 255 72 104 72 40 40 40 40 40 40 136 104 80 240 240 144 240 240 144 240 240 144 208 176 72 240 240 144 240 240 144 240 240 144 240 240 144 136 104 80 136 104 80 240 160 96 240 160 96 240 160 96 136 104 80 136 104 80 208 208 120 240 240 144 240 240 144 240 240 144 240 240 144 240 240 144 240 240 144 240 240 144 240 240 144 240 240 144 72 104 72 152 192 96 152 192 96 104 136 88 152 192 96 152 192 96 152 192 96 160 232 88 160 232 88 152 192 96 72 104 72 160 232 88 160 232 88 72 104 72 255 255 255 255 255 255 255 255 255 255 255 255 255 255 255 255 255 255 255 255 255 255 255 255 255 255 255 255 255 255 255 255 255 255 255 255 255 255 255 
255 255 255 255 255 255 255 255 255 255 255 255 255 255 255 255 255 255 255 255 255 255 255 255 255 255 255 255 255 255 255 255 255 136 104 80 240 240 144 240 240 144 208 176 72 208 176 72 240 240 144 240 240 144 240 240 144 240 240 144 240 240 144 208 208 120 136 104 80 136 104 80 136 104 80 208 208 120 240 240 144 240 240 144 240 240 144 240 240 144 240 240 144 240 240 144 240 240 144 240 240 144 240 240 144 240 240 144 240 240 144 208 208 120 72 104 72 152 192 96 104 136 88 152 192 96 152 192 96 72 104 72 152 192 96 152 192 96 152 192 96 72 104 72 160 232 88 160 232 88 160 232 88 40 40 40 255 255 255 255 255 255 255 255 255 255 255 255 255 255 255 255 255 255 255 255 255 255 255 255 255 255 255 255 255 255 255 255 255 255 255 255 
255 255 255 255 255 255 255 255 255 255 255 255 255 255 255 255 255 255 255 255 255 255 255 255 255 255 255 255 255 255 255 255 255 255 255 255 208 176 72 208 176 72 240 240 144 208 176 72 240 240 144 240 240 144 208 176 72 208 176 72 240 240 144 240 240 144 240 240 144 240 240 144 240 240 144 240 240 144 240 240 144 240 240 144 208 176 72 240 240 144 240 240 144 240 240 144 240 240 144 240 240 144 240 240 144 240 240 144 208 208 120 208 208 120 72 104 72 152 192 96 152 192 96 104 136 88 152 192 96 72 104 72 152 192 96 152 192 96 152 192 96 72 104 72 152 192 96 160 232 88 160 232 88 40 40 40 255 255 255 255 255 255 255 255 255 255 255 255 255 255 255 255 255 255 255 255 255 255 255 255 255 255 255 255 255 255 255 255 255 255 255 255 
255 255 255 255 255 255 255 255 255 255 255 255 255 255 255 255 255 255 255 255 255 255 255 255 255 255 255 255 255 255 255 255 255 255 255 255 136 104 80 240 240 144 240 240 144 208 176 72 240 240 144 208 176 72 208 176 72 208 176 72 240 240 144 240 240 144 240 240 144 240 240 144 240 240 144 240 240 144 240 240 144 208 176 72 208 176 72 240 240 144 240 240 144 240 240 144 240 240 144 240 240 144 240 240 144 240 240 144 208 208 120 208 208 120 72 104 72 152 192 96 152 192 96 104 136 88 152 192 96 104 136 88 152 192 96 152 192 96 152 192 96 40 40 40 152 192 96 152 192 96 152 192 96 40 40 40 255 255 255 255 255 255 255 255 255 255 255 255 255 255 255 255 255 255 255 255 255 255 255 255 255 255 255 255 255 255 255 255 255 255 255 255 
255 255 255 255 255 255 255 255 255 255 255 255 255 255 255 255 255 255 255 255 255 255 255 255 255 255 255 255 255 255 104 136 88 104 136 88 72 104 72 72 104 72 72 104 72 240 240 144 208 176 72 208 176 72 240 240 144 208 176 72 208 176 72 240 240 144 240 240 144 240 240 144 240 240 144 240 240 144 208 176 72 208 176 72 208 176 72 208 176 72 240 240 144 240 240 144 240 240 144 240 240 144 208 176 72 208 208 120 104 136 88 72 104 72 152 192 96 152 192 96 152 192 96 152 192 96 152 192 96 104 136 88 152 192 96 152 192 96 152 192 96 40 40 40 152 192 96 152 192 96 40 40 40 255 255 255 255 255 255 255 255 255 255 255 255 255 255 255 255 255 255 255 255 255 255 255 255 255 255 255 255 255 255 255 255 255 255 255 255 255 255 255 
255 255 255 255 255 255 255 255 255 255 255 255 255 255 255 255 255 255 255 255 255 255 255 255 104 136 88 104 136 88 160 232 88 200 248 136 200 248 136 160 232 88 160 232 88 72 104 72 208 176 72 240 240 144 240 240 144 240 240 144 208 176 72 240 240 144 240 240 144 240 240 144 208 176 72 208 176 72 208 176 72 240 240 144 208 176 72 208 176 72 240 240 144 240 240 144 240 240 144 208 176 72 208 176 72 104 136 88 160 232 88 160 232 88 152 192 96 152 192 96 152 192 96 152 192 96 152 192 96 152 192 96 152 192 96 152 192 96 152 192 96 40 40 40 40 40 40 40 40 40 255 255 255 255 255 255 255 255 255 255 255 255 255 255 255 255 255 255 255 255 255 255 255 255 255 255 255 255 255 255 255 255 255 255 255 255 255 255 255 255 255 255 
255 255 255 255 255 255 255 255 255 255 255 255 255 255 255 255 255 255 255 255 255 104 136 88 160 232 88 160 232 88 200 248 136 200 248 136 160 232 88 160 232 88 160 232 88 160 232 88 72 104 72 240 240 144 240 240 144 240 240 144 208 176 72 208 176 72 240 240 144 208 176 72 208 176 72 208 176 72 240 240 144 240 240 144 240 240 144 208 176 72 208 176 72 240 240 144 208 176 72 208 176 72 104 136 88 160 232 88 160 232 88 160 232 88 152 192 96 152 192 96 152 192 96 152 192 96 152 192 96 152 192 96 152 192 96 152 192 96 152 192 96 40 40 40 208 208 120 136 104 80 255 255 255 255 255 255 255 255 255 255 255 255 255 255 255 255 255 255 255 255 255 255 255 255 255 255 255 255 255 255 255 255 255 255 255 255 255 255 255 255 255 255 
255 255 255 255 255 255 255 255 255 255 255 255 255 255 255 255 255 255 104 136 88 160 232 88 160 232 88 160 232 88 160 232 88 160 232 88 160 232 88 160 232 88 160 232 88 160 232 88 152 192 96 136 104 80 240 240 144 240 240 144 240 240 144 208 176 72 208 176 72 208 176 72 208 176 72 240 240 144 240 240 144 240 240 144 240 240 144 208 176 72 208 176 72 208 176 72 208 176 72 208 208 120 104 136 88 160 232 88 160 232 88 152 192 96 152 192 96 152 192 96 152 192 96 152 192 96 152 192 96 152 192 96 152 192 96 152 192 96 40 40 40 208 208 120 208 208 120 255 255 255 255 255 255 255 255 255 255 255 255 255 255 255 255 255 255 255 255 255 255 255 255 255 255 255 255 255 255 255 255 255 255 255 255 255 255 255 255 255 255 255 255 255 
255 255 255 255 255 255 255 255 255 255 255 255 255 255 255 255 255 255 104 136 88 160 232 88 152 192 96 152 192 96 152 192 96 152 192 96 160 232 88 160 232 88 160 232 88 160 232 88 152 192 96 136 104 80 208 208 120 240 240 144 240 240 144 208 176 72 208 176 72 240 240 144 240 240 144 240 240 144 240 240 144 240 240 144 240 240 144 240 240 144 208 176 72 208 176 72 208 208 120 208 208 120 208 208 120 72 104 72 72 104 72 40 40 40 40 40 40 40 40 40 72 104 72 152 192 96 152 192 96 152 192 96 40 40 40 40 40 40 208 208 120 208 208 120 136 104 80 255 255 255 255 255 255 255 255 255 255 255 255 255 255 255 255 255 255 255 255 255 255 255 255 255 255 255 255 255 255 255 255 255 255 255 255 255 255 255 255 255 255 255 255 255 
255 255 255 255 255 255 255 255 255 255 255 255 255 255 255 255 255 255 72 104 72 152 192 96 152 192 96 104 136 88 152 192 96 152 192 96 152 192 96 160 232 88 160 232 88 152 192 96 152 192 96 152 192 96 136 104 80 208 208 120 240 240 144 240 240 144 240 240 144 240 240 144 240 240 144 240 240 144 240 240 144 240 240 144 240 240 144 208 208 120 208 208 120 208 208 120 208 208 120 208 208 120 208 208 120 208 208 120 208 208 120 176 176 112 176 176 112 176 176 112 136 104 80 72 104 72 40 40 40 40 40 40 208 208 120 208 208 120 208 208 120 208 208 120 136 104 80 255 255 255 255 255 255 255 255 255 255 255 255 255 255 255 255 255 255 255 255 255 255 255 255 255 255 255 255 255 255 255 255 255 255 255 255 255 255 255 255 255 255 255 255 255 
255 255 255 255 255 255 255 255 255 255 255 255 255 255 255 255 255 255 40 40 40 152 192 96 152 192 96 104 136 88 152 192 96 152 192 96 152 192 96 152 192 96 152 192 96 152 192 96 152 192 96 152 192 96 136 104 80 208 208 120 208 208 120 240 240 144 240 240 144 240 240 144 240 240 144 240 240 144 240 240 144 208 208 120 208 208 120 208 176 72 208 208 120 208 208 120 208 208 120 208 208 120 208 208 120 208 208 120 176 176 112 176 176 112 176 176 112 136 104 80 152 192 96 72 104 72 208 208 120 208 208 120 208 208 120 208 208 120 208 208 120 240 240 144 136 104 80 255 255 255 255 255 255 255 255 255 255 255 255 255 255 255 255 255 255 255 255 255 255 255 255 255 255 255 255 255 255 255 255 255 255 255 255 255 255 255 255 255 255 255 255 255 
255 255 255 255 255 255 255 255 255 255 255 255 255 255 255 255 255 255 40 40 40 152 192 96 152 192 96 152 192 96 104 136 88 152 192 96 152 192 96 152 192 96 152 192 96 152 192 96 152 192 96 152 192 96 152 192 96 136 104 80 208 208 120 208 208 120 240 240 144 240 240 144 240 240 144 208 208 120 208 208 120 176 176 112 176 176 112 136 104 80 208 208 120 208 208 120 208 208 120 176 176 112 208 208 120 176 176 112 208 208 120 176 176 112 40 40 40 152 192 96 152 192 96 72 104 72 208 208 120 208 208 120 208 208 120 208 208 120 208 208 120 240 240 144 136 104 80 255 255 255 255 255 255 255 255 255 255 255 255 255 255 255 255 255 255 255 255 255 255 255 255 255 255 255 255 255 255 255 255 255 255 255 255 255 255 255 255 255 255 255 255 255 
255 255 255 255 255 255 255 255 255 255 255 255 255 255 255 255 255 255 255 255 255 72 104 72 152 192 96 152 192 96 72 104 72 152 192 96 152 192 96 152 192 96 72 104 72 152 192 96 152 192 96 152 192 96 152 192 96 136 104 80 208 208 120 208 208 120 208 208 120 208 208 120 176 176 112 176 176 112 176 176 112 176 176 112 136 104 80 152 192 96 208 208 120 208 208 120 176 176 112 208 208 120 176 176 112 208 208 120 176 176 112 40 40 40 152 192 96 152 192 96 152 192 96 152 192 96 72 104 72 208 208 120 208 208 120 208 208 120 208 208 120 240 240 144 240 240 144 136 104 80 255 255 255 255 255 255 255 255 255 255 255 255 255 255 255 255 255 255 255 255 255 255 255 255 255 255 255 255 255 255 255 255 255 255 255 255 255 255 255 255 255 255 
255 255 255 255 255 255 255 255 255 255 255 255 255 255 255 255 255 255 255 255 255 40 40 40 152 192 96 152 192 96 152 192 96 152 192 96 152 192 96 152 192 96 40 40 40 152 192 96 152 192 96 152 192 96 152 192 96 136 104 80 176 176 112 176 176 112 176 176 112 176 176 112 176 176 112 176 176 112 176 176 112 40 40 40 152 192 96 152 192 96 136 104 80 176 176 112 208 208 120 176 176 112 208 208 120 40 40 40 40 40 40 152 192 96 152 192 96 152 192 96 152 192 96 152 192 96 72 104 72 176 176 112 208 208 120 208 208 120 208 208 120 240 240 144 240 240 144 136 104 80 255 255 255 255 255 255 255 255 255 255 255 255 255 255 255 255 255 255 255 255 255 255 255 255 255 255 255 255 255 255 255 255 255 255 255 255 255 255 255 255 255 255 
255 255 255 255 255 255 255 255 255 255 255 255 255 255 255 255 255 255 255 255 255 255 255 255 40 40 40 40 40 40 152 192 96 152 192 96 152 192 96 40 40 40 72 104 72 40 40 40 40 40 40 152 192 96 152 192 96 152 192 96 136 104 80 176 176 112 176 176 112 176 176 112 176 176 112 40 40 40 40 40 40 152 192 96 152 192 96 152 192 96 136 104 80 176 176 112 176 176 112 40 40 40 40 40 40 152 192 96 152 192 96 152 192 96 152 192 96 152 192 96 152 192 96 152 192 96 72 104 72 176 176 112 176 176 112 208 208 120 208 208 120 208 208 120 240 240 144 240 240 144 136 104 80 255 255 255 255 255 255 255 255 255 255 255 255 255 255 255 255 255 255 255 255 255 255 255 255 255 255 255 255 255 255 255 255 255 255 255 255 255 255 255 
255 255 255 255 255 255 255 255 255 255 255 255 255 255 255 255 255 255 255 255 255 255 255 255 255 255 255 255 255 255 40 40 40 40 40 40 40 40 40 255 255 255 255 255 255 255 255 255 255 255 255 72 104 72 40 40 40 40 40 40 40 40 40 176 176 112 176 176 112 40 40 40 40 40 40 152 192 96 152 192 96 152 192 96 152 192 96 152 192 96 152 192 96 40 40 40 40 40 40 152 192 96 152 192 96 152 192 96 152 192 96 152 192 96 152 192 96 152 192 96 152 192 96 72 104 72 176 176 112 176 176 112 176 176 112 176 176 112 176 176 112 208 208 120 208 208 120 208 208 120 240 240 144 40 40 40 255 255 255 255 255 255 255 255 255 255 255 255 255 255 255 255 255 255 255 255 255 255 255 255 255 255 255 255 255 255 255 255 255 255 255 255 
255 255 255 255 255 255 255 255 255 255 255 255 255 255 255 255 255 255 255 255 255 255 255 255 255 255 255 255 255 255 255 255 255 255 255 255 255 255 255 255 255 255 255 255 255 255 255 255 255 255 255 255 255 255 255 255 255 255 255 255 255 255 255 40 40 40 40 40 40 176 176 112 176 176 112 72 104 72 72 104 72 72 104 72 152 192 96 152 192 96 152 192 96 152 192 96 152 192 96 152 192 96 152 192 96 152 192 96 152 192 96 152 192 96 152 192 96 152 192 96 152 192 96 72 104 72 176 176 112 176 176 112 176 176 112 176 176 112 176 176 112 176 176 112 176 176 112 176 176 112 40 40 40 255 255 255 255 255 255 255 255 255 255 255 255 255 255 255 255 255 255 255 255 255 255 255 255 255 255 255 255 255 255 255 255 255 255 255 255 255 255 255 
255 255 255 255 255 255 255 255 255 255 255 255 255 255 255 255 255 255 255 255 255 255 255 255 255 255 255 255 255 255 255 255 255 255 255 255 255 255 255 255 255 255 255 255 255 255 255 255 255 255 255 255 255 255 255 255 255 255 255 255 255 255 255 255 255 255 40 40 40 40 40 40 176 176 112 176 176 112 176 176 112 176 176 112 72 104 72 72 104 72 72 104 72 152 192 96 152 192 96 152 192 96 152 192 96 152 192 96 152 192 96 152 192 96 152 192 96 152 192 96 152 192 96 72 104 72 176 176 112 176 176 112 176 176 112 176 176 112 176 176 112 176 176 112 40 40 40 40 40 40 255 255 255 255 255 255 255 255 255 255 255 255 255 255 255 255 255 255 255 255 255 255 255 255 255 255 255 255 255 255 255 255 255 255 255 255 255 255 255 255 255 255 
255 255 255 255 255 255 255 255 255 255 255 255 255 255 255 255 255 255 255 255 255 255 255 255 255 255 255 255 255 255 255 255 255 255 255 255 255 255 255 255 255 255 255 255 255 255 255 255 255 255 255 255 255 255 255 255 255 255 255 255 255 255 255 255 255 255 255 255 255 255 255 255 40 40 40 40 40 40 176 176 112 176 176 112 176 176 112 176 176 112 176 176 112 72 104 72 72 104 72 72 104 72 152 192 96 152 192 96 152 192 96 152 192 96 152 192 96 152 192 96 152 192 96 72 104 72 176 176 112 176 176 112 176 176 112 40 40 40 40 40 40 40 40 40 255 255 255 255 255 255 255 255 255 255 255 255 255 255 255 255 255 255 255 255 255 255 255 255 255 255 255 255 255 255 255 255 255 255 255 255 255 255 255 255 255 255 255 255 255 255 255 255 
255 255 255 255 255 255 255 255 255 255 255 255 255 255 255 255 255 255 255 255 255 255 255 255 255 255 255 255 255 255 255 255 255 255 255 255 255 255 255 255 255 255 255 255 255 255 255 255 255 255 255 255 255 255 255 255 255 255 255 255 255 255 255 255 255 255 255 255 255 255 255 255 255 255 255 255 255 255 40 40 40 40 40 40 40 40 40 40 40 40 176 176 112 72 104 72 152 192 96 152 192 96 152 192 96 152 192 96 160 232 88 152 192 96 160 232 88 160 232 88 160 232 88 160 232 88 72 104 72 40 40 40 40 40 40 255 255 255 255 255 255 255 255 255 255 255 255 255 255 255 255 255 255 255 255 255 255 255 255 255 255 255 255 255 255 255 255 255 255 255 255 255 255 255 255 255 255 255 255 255 255 255 255 255 255 255 255 255 255 255 255 255 
255 255 255 255 255 255 255 255 255 255 255 255 255 255 255 255 255 255 255 255 255 255 255 255 255 255 255 255 255 255 255 255 255 255 255 255 255 255 255 255 255 255 255 255 255 255 255 255 255 255 255 255 255 255 255 255 255 255 255 255 255 255 255 255 255 255 255 255 255 255 255 255 255 255 255 255 255 255 255 255 255 255 255 255 255 255 255 255 255 255 40 40 40 40 40 40 72 104 72 152 192 96 152 192 96 160 232 88 152 192 96 160 232 88 160 232 88 160 232 88 160 232 88 160 232 88 40 40 40 255 255 255 255 255 255 255 255 255 255 255 255 255 255 255 255 255 255 255 255 255 255 255 255 255 255 255 255 255 255 255 255 255 255 255 255 255 255 255 255 255 255 255 255 255 255 255 255 255 255 255 255 255 255 255 255 255 255 255 255 255 255 255 
255 255 255 255 255 255 255 255 255 255 255 255 255 255 255 255 255 255 255 255 255 255 255 255 255 255 255 255 255 255 255 255 255 255 255 255 255 255 255 255 255 255 255 255 255 255 255 255 255 255 255 255 255 255 255 255 255 255 255 255 255 255 255 255 255 255 255 255 255 255 255 255 255 255 255 255 255 255 255 255 255 255 255 255 255 255 255 255 255 255 255 255 255 255 255 255 255 255 255 40 40 40 152 192 96 152 192 96 160 232 88 160 232 88 160 232 88 160 232 88 160 232 88 160 232 88 40 40 40 255 255 255 255 255 255 255 255 255 255 255 255 255 255 255 255 255 255 255 255 255 255 255 255 255 255 255 255 255 255 255 255 255 255 255 255 255 255 255 255 255 255 255 255 255 255 255 255 255 255 255 255 255 255 255 255 255 255 255 255 255 255 255 
255 255 255 255 255 255 255 255 255 255 255 255 255 255 255 255 255 255 255 255 255 255 255 255 255 255 255 255 255 255 255 255 255 255 255 255 255 255 255 255 255 255 255 255 255 255 255 255 255 255 255 255 255 255 255 255 255 255 255 255 255 255 255 255 255 255 255 255 255 255 255 255 255 255 255 255 255 255 255 255 255 255 255 255 255 255 255 255 255 255 255 255 255 255 255 255 255 255 255 255 255 255 40 40 40 40 40 40 40 40 40 40 40 40 40 40 40 40 40 40 40 40 40 40 40 40 255 255 255 255 255 255 255 255 255 255 255 255 255 255 255 255 255 255 255 255 255 255 255 255 255 255 255 255 255 255 255 255 255 255 255 255 255 255 255 255 255 255 255 255 255 255 255 255 255 255 255 255 255 255 255 255 255 255 255 255 255 255 255 255 255 255 
