P3
64 64
255
255 255 255 255 255 255 255 255 255 255 255 255 255 255 255 255 255 255 255 255 255 255 255 255 255 255 255 255 255 255 255 255 255 255 255 255 255 255 255 255 255 255 255 255 255 255 255 255 255 255 255 255 255 255 255 255 255 255 255 255 255 255 255 255 255 255 255 255 255 255 255 255 255 255 255 255 255 255 255 255 255 255 255 255 255 255 255 255 255 255 255 255 255 255 255 255 255 255 255 255 255 255 255 255 255 255 255 255 255 255 255 255 255 255 255 255 255 255 255 255 255 255 255 255 255 255 255 255 255 255 255 255 255 255 255 255 255 255 255 255 255 255 255 255 255 255 255 255 255 255 255 255 255 255 255 255 255 255 255 255 255 255 255 255 255 255 255 255 255 255 255 255 255 255 255 255 255 255 255 255 255 255 255 255 255 255 255 255 255 255 255 255 
255 255 255 255 255 255 255 255 255 255 255 255 255 255 255 255 255 255 255 255 255 255 255 255 255 255 255 255 255 255 255 255 255 255 255 255 255 255 255 255 255 255 255 255 255 255 255 255 255 255 255 255 255 255 255 255 255 255 255 255 255 255 255 255 255 255 255 255 255 255 255 255 255 255 255 128 152 168 128 152 168 128 152 168 72 88 120 255 255 255 255 255 255 255 255 255 255 255 255 255 255 255 255 255 255 255 255 255 128 152 168 72 88 120 72 88 120 255 255 255 255 255 255 255 255 255 255 255 255 255 255 255 255 255 255 72 88 120 72 88 120 72 88 120 72 88 120 72 88 120 72 88 120 255 255 255 255 255 255 255 255 255 255 255 255 255 255 255 255 255 255 255 255 255 255 255 255 255 255 255 255 255 255 255 255 255 255 255 255 255 255 255 
255 255 255 255 255 255 255 255 255 255 255 255 255 255 255 255 255 255 255 255 255 255 255 255 255 255 255 255 255 255 255 255 255 255 255 255 255 255 255 255 255 255 255 255 255 255 255 255 255 255 255 255 255 255 255 255 255 255 255 255 255 255 255 255 255 255 255 255 255 255 255 255 128 152 168 184 200 192 184 200 192 184 200 192 128 152 168 16 16 16 255 255 255 255 255 255 255 255 255 255 255 255 255 255 255 72 88 120 216 224 216 216 224 216 128 152 168 16 16 16 255 255 255 255 255 255 255 255 255 72 88 120 72 88 120 184 200 192 184 200 192 184 200 192 184 200 192 216 224 216 72 88 120 72 88 120 72 88 120 255 255 255 255 255 255 255 255 255 255 255 255 255 255 255 255 255 255 255 255 255 255 255 255 255 255 255 255 255 255 255 255 255 
255 255 255 255 255 255 255 255 255 255 255 255 255 255 255 255 255 255 255 255 255 255 255 255 255 255 255 255 255 255 255 255 255 255 255 255 255 255 255 255 255 255 255 255 255 255 255 255 255 255 255 255 255 255 255 255 255 255 255 255 255 255 255 255 255 255 255 255 255 128 152 168 184 200 192 184 200 192 184 200 192 184 200 192 128 152 168 16 16 16 255 255 255 255 255 255 255 255 255 255 255 255 72 88 120 216 224 216 216 224 216 128 152 168 128 152 168 16 16 16 255 255 255 72 88 120 72 88 120 184 200 192 184 200 192 184 200 192 184 200 192 184 200 192 184 200 192 216 224 216 72 88 120 128 152 168 128 152 168 72 88 120 255 255 255 255 255 255 255 255 255 255 255 255 255 255 255 255 255 255 255 255 255 255 255 255 255 255 255 255 255 255 
255 255 255 255 255 255 255 255 255 255 255 255 255 255 255 255 255 255 255 255 255 255 255 255 255 255 255 255 255 255 255 255 255 255 255 255 255 255 255 255 255 255 255 255 255 255 255 255 255 255 255 255 255 255 255 255 255 255 255 255 255 255 255 255 255 255 128 152 168 184 200 192 184 200 192 184 200 192 184 200 192 128 152 168 128 152 168 16 16 16 16 16 16 16 16 16 16 16 16 72 88 120 216 224 216 216 224 216 216 224 216 128 152 168 128 152 168 16 16 16 72 88 120 216 224 216 216 224 216 184 200 192 184 200 192 184 200 192 184 200 192 184 200 192 184 200 192 216 224 216 128 152 168 128 152 168 128 152 168 128 152 168 72 88 120 255 255 255 255 255 255 255 255 255 255 255 255 255 255 255 255 255 255 255 255 255 255 255 255 255 255 255 
255 255 255 255 255 255 255 255 255 255 255 255 255 255 255 255 255 255 255 255 255 255 255 255 255 255 255 255 255 255 255 255 255 255 255 255 255 255 255 255 255 255 255 255 255 255 255 255 255 255 255 255 255 255 255 255 255 255 255 255 255 255 255 72 88 120 184 200 192 184 200 192 184 200 192 184 200 192 128 152 168 128 152 168 128 152 168 128 152 168 128 152 168 128 152 168 72 88 120 216 224 216 216 224 216 216 224 216 128 152 168 128 152 168 128 152 168 16 16 16 216 224 216 216 224 216 216 224 216 184 200 192 184 200 192 184 200 192 184 200 192 184 200 192 216 224 216 128 152 168 128 152 168 128 152 168 128 152 168 128 152 168 128 152 168 72 88 120 255 255 255 255 255 255 255 255 255 255 255 255 255 255 255 255 255 255 255 255 255 255 255 255 
255 255 255 255 255 255 255 255 255 255 255 255 255 255 255 255 255 255 255 255 255 255 255 255 255 255 255 255 255 255 255 255 255 255 255 255 255 255 255 255 255 255 255 255 255 255 255 255 255 255 255 255 255 255 255 255 255 72 88 120 72 88 120 72 88 120 128 152 168 128 152 168 184 200 192 184 200 192 184 200 192 184 200 192 184 200 192 184 200 192 184 200 192 72 88 120 216 224 216 216 224 216 216 224 216 216 224 216 128 152 168 128 152 168 128 152 168 16 16 16 216 224 216 216 224 216 184 200 192 184 200 192 184 200 192 184 200 192 184 200 192 184 200 192 216 224 216 128 152 168 128 152 168 128 152 168 128 152 168 128 152 168 128 152 168 128 152 168 72 88 120 255 255 255 255 255 255 255 255 255 255 255 255 255 255 255 255 255 255 255 255 255 
255 255 255 255 255 255 255 255 255 255 255 255 255 255 255 255 255 255 255 255 255 255 255 255 255 255 255 255 255 255 255 255 255 255 255 255 255 255 255 255 255 255 255 255 255 255 255 255 128 152 168 72 88 120 72 88 120 128 152 168 184 200 192 184 200 192 184 200 192 184 200 192 184 200 192 128 152 168 128 152 168 128 152 168 128 152 168 72 88 120 72 88 120 216 224 216 216 224 216 216 224 216 216 224 216 128 152 168 128 152 168 128 152 168 128 152 168 128 152 168 16 16 16 184 200 192 184 200 192 184 200 192 184 200 192 184 200 192 184 200 192 184 200 192 216 224 216 128 152 168 128 152 168 128 152 168 128 152 168 128 152 168 128 152 168 128 152 168 128 152 168 72 88 120 255 255 255 255 255 255 255 255 255 255 255 255 255 255 255 255 255 255 
255 255 255 255 255 255 255 255 255 255 255 255 255 255 255 255 255 255 255 255 255 255 255 255 255 255 255 255 255 255 255 255 255 255 255 255 255 255 255 255 255 255 128 152 168 72 88 120 184 200 192 184 200 192 184 200 192 184 200 192 184 200 192 184 200 192 184 200 192 184 200 192 128 152 168 216 224 216 216 224 216 216 224 216 216 224 216 216 224 216 216 224 216 216 224 216 216 224 216 184 200 192 184 200 192 128 152 168 128 152 168 128 152 168 128 152 168 128 152 168 128 152 168 16 16 16 128 152 168 184 200 192 184 200 192 184 200 192 216 224 216 216 224 216 128 152 168 128 152 168 128 152 168 128 152 168 128 152 168 128 152 168 128 152 168 128 152 168 128 152 168 72 88 120 255 255 255 255 255 255 255 255 255 255 255 255 255 255 255 255 255 255 
255 255 255 255 255 255 255 255 255 255 255 255 255 255 255 255 255 255 255 255 255 255 255 255 255 255 255 255 255 255 255 255 255 255 255 255 128 152 168 128 152 168 184 200 192 184 200 192 128 152 168 184 200 192 184 200 192 184 200 192 184 200 192 184 200 192 184 200 192 128 152 168 216 224 216 216 224 216 216 224 216 216 224 216 184 200 192 184 200 192 184 200 192 184 200 192 184 200 192 184 200 192 184 200 192 128 152 168 128 152 168 128 152 168 128 152 168 128 152 168 128 152 168 128 152 168 16 16 16 128 152 168 128 152 168 72 88 120 72 88 120 72 88 120 72 88 120 72 88 120 128 152 168 128 152 168 128 152 168 128 152 168 128 152 168 128 152 168 128 152 168 128 152 168 72 88 120 255 255 255 255 255 255 255 255 255 255 255 255 255 255 255 
255 255 255 255 255 255 255 255 255 255 255 255 255 255 255 255 255 255 255 255 255 255 255 255 255 255 255 255 255 255 255 255 255 128 152 168 184 200 192 184 200 192 184 200 192 128 152 168 128 152 168 184 200 192 184 200 192 184 200 192 184 200 192 184 200 192 184 200 192 128 152 168 216 224 216 216 224 216 184 200 192 184 200 192 184 200 192 184 200 192 184 200 192 184 200 192 184 200 192 184 200 192 128 152 168 128 152 168 128 152 168 128 152 168 128 152 168 128 152 168 128 152 168 128 152 168 128 152 168 16 16 16 72 88 120 72 88 120 72 88 120 72 88 120 72 88 120 72 88 120 72 88 120 128 152 168 128 152 168 128 152 168 128 152 168 128 152 168 128 152 168 128 152 168 16 16 16 255 255 255 255 255 255 255 255 255 255 255 255 255 255 255 
255 255 255 255 255 255 255 255 255 255 255 255 255 255 255 255 255 255 255 255 255 255 255 255 255 255 255 255 255 255 128 152 168 184 200 192 184 200 192 184 200 192 128 152 168 184 200 192 184 200 192 184 200 192 184 200 192 184 200 192 184 200 192 128 152 168 128 152 168 216 224 216 184 200 192 184 200 192 184 200 192 184 200 192 184 200 192 128 152 168 128 152 168 128 152 168 128 152 168 128 152 168 128 152 168 128 152 168 128 152 168 128 152 168 128 152 168 128 152 168 128 152 168 128 152 168 128 152 168 128 152 168 16 16 16 72 88 120 72 88 120 72 88 120 72 88 120 72 88 120 72 88 120 72 88 120 128 152 168 128 152 168 128 152 168 128 152 168 128 152 168 56 56 80 16 16 16 255 255 255 255 255 255 255 255 255 255 255 255 255 255 255 
255 255 255 255 255 255 255 255 255 255 255 255 255 255 255 255 255 255 255 255 255 255 255 255 255 255 255 128 152 168 184 200 192 184 200 192 184 200 192 128 152 168 184 200 192 184 200 192 216 224 216 216 224 216 184 200 192 128 152 168 128 152 168 184 200 192 184 200 192 184 200 192 184 200 192 184 200 192 128 152 168 128 152 168 128 152 168 128 152 168 128 152 168 128 152 168 128 152 168 128 152 168 128 152 168 128 152 168 128 152 168 128 152 168 128 152 168 128 152 168 128 152 168 128 152 168 72 88 120 128 152 168 16 16 16 72 88 120 72 88 120 72 88 120 72 88 120 72 88 120 72 88 120 72 88 120 56 56 80 128 152 168 128 152 168 128 152 168 56 56 80 72 88 120 16 16 16 255 255 255 255 255 255 255 255 255 255 255 255 255 255 255 
255 255 255 255 255 255 255 255 255 255 255 255 255 255 255 255 255 255 255 255 255 255 255 255 72 88 120 184 200 192 184 200 192 184 200 192 128 152 168 216 224 216 216 224 216 216 224 216 216 224 216 184 200 192 128 152 168 184 200 192 216 224 216 184 200 192 184 200 192 184 200 192 128 152 168 128 152 168 128 152 168 128 152 168 128 152 168 128 152 168 128 152 168 128 152 168 128 152 168 128 152 168 128 152 168 128 152 168 128 152 168 128 152 168 128 152 168 128 152 168 128 152 168 128 152 168 72 88 120 128 152 168 128 152 168 16 16 16 72 88 120 72 88 120 72 88 120 72 88 120 72 88 120 72 88 120 72 88 120 56 56 80 128 152 168 128 152 168 72 88 120 72 88 120 16 16 16 255 255 255 255 255 255 255 255 255 255 255 255 255 255 255 
255 255 255 255 255 255 255 255 255 255 255 255 255 255 255 255 255 255 255 255 255 72 88 120 184 200 192 184 200 192 184 200 192 128 152 168 216 224 216 216 224 216 216 224 216 216 224 216 184 200 192 128 152 168 184 200 192 216 224 216 184 200 192 184 200 192 128 152 168 128 152 168 128 152 168 128 152 168 128 152 168 128 152 168 128 152 168 128 152 168 128 152 168 128 152 168 128 152 168 128 152 168 128 152 168 128 152 168 128 152 168 128 152 168 128 152 168 128 152 168 128 152 168 72 88 120 128 152 168 128 152 168 128 152 168 16 16 16 72 88 120 72 88 120 72 88 120 72 88 120 72 88 120 72 88 120 72 88 120 72 88 120 128 152 168 56 56 80 72 88 120 72 88 120 16 16 16 255 255 255 255 255 255 255 255 255 255 255 255 255 255 255 
255 255 255 255 255 255 255 255 255 255 255 255 255 255 255 255 255 255 72 88 120 184 200 192 184 200 192 184 200 192 128 152 168 216 224 216 216 224 216 216 224 216 216 224 216 184 200 192 128 152 168 216 224 216 216 224 216 184 200 192 184 200 192 128 152 168 128 152 168 128 152 168 128 152 168 128 152 168 128 152 168 72 88 120 16 16 16 72 88 120 128 152 168 128 152 168 128 152 168 128 152 168 128 152 168 128 152 168 128 152 168 128 152 168 128 152 168 128 152 168 128 152 168 72 88 120 128 152 168 128 152 168 128 152 168 128 152 168 16 16 16 72 88 120 72 88 120 72 88 120 72 88 120 72 88 120 72 88 120 72 88 120 56 56 80 72 88 120 72 88 120 72 88 120 72 88 120 255 255 255 255 255 255 255 255 255 255 255 255 255 255 255 
255 255 255 255 255 255 255 255 255 255 255 255 255 255 255 255 255 255 72 88 120 184 200 192 184 200 192 128 152 168 216 224 216 216 224 216 216 224 216 216 224 216 184 200 192 128 152 168 216 224 216 216 224 216 216 224 216 128 152 168 128 152 168 128 152 168 128 152 168 128 152 168 72 88 120 16 16 16 16 16 16 16 16 16 72 88 120 72 88 120 72 88 120 128 152 168 128 152 168 128 152 168 128 152 168 128 152 168 128 152 168 128 152 168 128 152 168 128 152 168 128 152 168 72 88 120 128 152 168 128 152 168 128 152 168 128 152 168 16 16 16 16 16 16 72 88 120 72 88 120 72 88 120 72 88 120 72 88 120 56 56 80 56 56 80 72 88 120 72 88 120 16 16 16 255 255 255 255 255 255 255 255 255 255 255 255 255 255 255 255 255 255 
255 255 255 255 255 255 255 255 255 255 255 255 255 255 255 72 88 120 184 200 192 184 200 192 128 152 168 216 224 216 216 224 216 216 224 216 216 224 216 184 200 192 128 152 168 216 224 216 216 224 216 216 224 216 128 152 168 128 152 168 128 152 168 128 152 168 72 88 120 16 16 16 16 16 16 16 16 16 16 16 16 72 88 120 72 88 120 72 88 120 72 88 120 72 88 120 128 152 168 128 152 168 128 152 168 128 152 168 128 152 168 128 152 168 128 152 168 128 152 168 72 88 120 128 152 168 128 152 168 128 152 168 128 152 168 128 152 168 184 200 192 72 88 120 16 16 16 16 16 16 72 88 120 72 88 120 56 56 80 56 56 80 56 56 80 72 88 120 72 88 120 16 16 16 255 255 255 255 255 255 255 255 255 255 255 255 255 255 255 255 255 255 
255 255 255 255 255 255 255 255 255 255 255 255 255 255 255 72 88 120 184 200 192 184 200 192 128 152 168 216 224 216 216 224 216 216 224 216 216 224 216 184 200 192 128 152 168 216 224 216 216 224 216 128 152 168 128 152 168 128 152 168 128 152 168 72 88 120 16 16 16 16 16 16 16 16 16 16 16 16 16 16 16 72 88 120 72 88 120 128 152 168 128 152 168 128 152 168 72 88 120 128 152 168 128 152 168 128 152 168 128 152 168 128 152 168 128 152 168 128 152 168 72 88 120 128 152 168 128 152 168 128 152 168 128 152 168 184 200 192 184 200 192 184 200 192 184 200 192 72 88 120 16 16 16 56 56 80 56 56 80 56 56 80 56 56 80 72 88 120 16 16 16 255 255 255 255 255 255 255 255 255 255 255 255 255 255 255 255 255 255 255 255 255 
255 255 255 255 255 255 255 255 255 255 255 255 255 255 255 72 88 120 184 200 192 184 200 192 128 152 168 216 224 216 216 224 216 216 224 216 216 224 216 72 88 120 184 200 192 184 200 192 128 152 168 128 152 168 128 152 168 72 88 120 216 224 216 216 224 216 16 16 16 16 16 16 16 16 16 16 16 16 128 152 168 128 152 168 128 152 168 128 152 168 128 152 168 128 152 168 128 152 168 128 152 168 128 152 168 128 152 168 128 152 168 128 152 168 128 152 168 128 152 168 72 88 120 72 88 120 128 152 168 128 152 168 128 152 168 184 200 192 184 200 192 184 200 192 184 200 192 184 200 192 184 200 192 16 16 16 16 16 16 56 56 80 16 16 16 16 16 16 16 16 16 255 255 255 255 255 255 255 255 255 255 255 255 255 255 255 255 255 255 255 255 255 
255 255 255 255 255 255 255 255 255 255 255 255 128 152 168 72 88 120 184 200 192 184 200 192 216 224 216 216 224 216 216 224 216 216 224 216 216 224 216 72 88 120 128 152 168 128 152 168 72 88 120 208 80 64 208 80 64 248 248 248 248 248 248 216 224 216 16 16 16 16 16 16 16 16 16 16 16 16 128 152 168 128 152 168 128 152 168 128 152 168 128 152 168 128 152 168 128 152 168 72 88 120 128 152 168 128 152 168 128 152 168 128 152 168 128 152 168 128 152 168 72 88 120 72 88 120 72 88 120 128 152 168 184 200 192 184 200 192 184 200 192 184 200 192 184 200 192 184 200 192 184 200 192 184 200 192 16 16 16 16 16 16 16 16 16 72 88 120 72 88 120 16 16 16 255 255 255 255 255 255 255 255 255 255 255 255 255 255 255 255 255 255 
255 255 255 255 255 255 255 255 255 128 152 168 184 200 192 72 88 120 184 200 192 184 200 192 216 224 216 216 224 216 216 224 216 216 224 216 128 152 168 128 152 168 16 16 16 16 16 16 248 248 248 16 16 16 208 80 64 72 88 120 72 88 120 72 88 120 72 88 120 72 88 120 72 88 120 128 152 168 128 152 168 128 152 168 72 88 120 128 152 168 128 152 168 128 152 168 72 88 120 128 152 168 128 152 168 128 152 168 128 152 168 128 152 168 128 152 168 128 152 168 128 152 168 72 88 120 72 88 120 184 200 192 184 200 192 184 200 192 184 200 192 184 200 192 184 200 192 184 200 192 184 200 192 72 88 120 128 152 168 16 16 16 72 88 120 72 88 120 72 88 120 72 88 120 16 16 16 255 255 255 255 255 255 255 255 255 255 255 255 255 255 255 
255 255 255 255 255 255 128 152 168 216 224 216 184 200 192 72 88 120 184 200 192 72 88 120 216 224 216 216 224 216 128 152 168 128 152 168 128 152 168 128 152 168 128 152 168 128 152 168 128 152 168 128 152 168 128 152 168 128 152 168 128 152 168 128 152 168 16 16 16 216 224 216 16 16 16 128 152 168 128 152 168 16 16 16 184 200 192 16 16 16 128 152 168 16 16 16 128 152 168 128 152 168 128 152 168 128 152 168 128 152 168 128 152 168 128 152 168 128 152 168 128 152 168 128 152 168 128 152 168 72 88 120 16 16 16 16 16 16 184 200 192 184 200 192 184 200 192 184 200 192 72 88 120 128 152 168 128 152 168 16 16 16 56 56 80 72 88 120 72 88 120 72 88 120 72 88 120 16 16 16 255 255 255 255 255 255 255 255 255 255 255 255 
255 255 255 128 152 168 216 224 216 216 224 216 216 224 216 216 224 216 72 88 120 72 88 120 128 152 168 72 88 120 128 152 168 128 152 168 128 152 168 128 152 168 128 152 168 128 152 168 128 152 168 128 152 168 72 88 120 72 88 120 16 16 16 16 16 16 216 224 216 216 224 216 128 152 168 16 16 16 128 152 168 184 200 192 184 200 192 128 152 168 16 16 16 128 152 168 128 152 168 128 152 168 128 152 168 128 152 168 128 152 168 128 152 168 128 152 168 128 152 168 128 152 168 128 152 168 128 152 168 128 152 168 128 152 168 128 152 168 72 88 120 16 16 16 16 16 16 16 16 16 72 88 120 128 152 168 128 152 168 16 16 16 72 88 120 56 56 80 72 88 120 72 88 120 72 88 120 72 88 120 16 16 16 255 255 255 255 255 255 255 255 255 
255 255 255 72 88 120 216 224 216 216 224 216 216 224 216 216 224 216 216 224 216 128 152 168 72 88 120 72 88 120 128 152 168 128 152 168 128 152 168 128 152 168 72 88 120 16 16 16 16 16 16 16 16 16 72 88 120 248 248 248 216 224 216 16 16 16 216 224 216 216 224 216 128 152 168 72 88 120 16 16 16 184 200 192 128 152 168 128 152 168 128 152 168 72 88 120 72 88 120 128 152 168 128 152 168 128 152 168 128 152 168 128 152 168 128 152 168 128 152 168 128 152 168 128 152 168 128 152 168 128 152 168 128 152 168 128 152 168 128 152 168 128 152 168 184 200 192 72 88 120 128 152 168 72 88 120 16 16 16 72 88 120 72 88 120 72 88 120 56 56 80 72 88 120 72 88 120 72 88 120 16 16 16 255 255 255 255 255 255 255 255 255 
128 152 168 216 224 216 216 224 216 216 224 216 216 224 216 216 224 216 216 224 216 216 224 216 216 224 216 128 152 168 128 152 168 72 88 120 16 16 16 216 224 216 216 224 216 72 88 120 248 248 248 248 248 248 72 88 120 248 248 248 72 88 120 184 200 192 184 200 192 216 224 216 128 152 168 128 152 168 72 88 120 72 88 120 128 152 168 128 152 168 184 200 192 184 200 192 184 200 192 184 200 192 184 200 192 128 152 168 128 152 168 128 152 168 128 152 168 128 152 168 128 152 168 128 152 168 128 152 168 128 152 168 128 152 168 128 152 168 128 152 168 128 152 168 184 200 192 72 88 120 72 88 120 16 16 16 72 88 120 72 88 120 72 88 120 72 88 120 72 88 120 56 56 80 56 56 80 72 88 120 16 16 16 255 255 255 255 255 255 255 255 255 
72 88 120 216 224 216 216 224 216 216 224 216 216 224 216 216 224 216 216 224 216 216 224 216 216 224 216 216 224 216 216 224 216 184 200 192 128 152 168 128 152 168 72 88 120 16 16 16 16 16 16 16 16 16 16 16 16 16 16 16 72 88 120 184 200 192 184 200 192 184 200 192 128 152 168 184 200 192 184 200 192 184 200 192 184 200 192 184 200 192 184 200 192 184 200 192 184 200 192 184 200 192 128 152 168 128 152 168 128 152 168 72 88 120 16 16 16 16 16 16 16 16 16 16 16 16 72 88 120 128 152 168 128 152 168 128 152 168 128 152 168 128 152 168 184 200 192 72 88 120 16 16 16 56 56 80 72 88 120 72 88 120 72 88 120 72 88 120 72 88 120 72 88 120 72 88 120 72 88 120 72 88 120 16 16 16 255 255 255 255 255 255 
255 255 255 72 88 120 216 224 216 216 224 216 216 224 216 216 224 216 216 224 216 216 224 216 216 224 216 216 224 216 216 224 216 216 224 216 216 224 216 184 200 192 128 152 168 128 152 168 128 152 168 128 152 168 128 152 168 128 152 168 128 152 168 184 200 192 184 200 192 184 200 192 184 200 192 184 200 192 184 200 192 184 200 192 184 200 192 184 200 192 184 200 192 184 200 192 184 200 192 128 152 168 128 152 168 16 16 16 16 16 16 128 152 168 128 152 168 128 152 168 128 152 168 128 152 168 16 16 16 16 16 16 16 16 16 16 16 16 16 16 16 16 16 16 16 16 16 16 16 16 72 88 120 56 56 80 72 88 120 72 88 120 72 88 120 72 88 120 72 88 120 72 88 120 72 88 120 72 88 120 72 88 120 16 16 16 255 255 255 255 255 255 
255 255 255 72 88 120 184 200 192 216 224 216 216 224 216 216 224 216 216 224 216 216 224 216 216 224 216 216 224 216 216 224 216 216 224 216 216 224 216 216 224 216 216 224 216 216 224 216 216 224 216 216 224 216 184 200 192 184 200 192 184 200 192 184 200 192 184 200 192 184 200 192 184 200 192 184 200 192 184 200 192 184 200 192 184 200 192 184 200 192 184 200 192 128 152 168 128 152 168 72 88 120 16 16 16 128 152 168 128 152 168 128 152 168 128 152 168 128 152 168 128 152 168 128 152 168 16 16 16 72 88 120 72 88 120 72 88 120 72 88 120 72 88 120 72 88 120 72 88 120 72 88 120 56 56 80 72 88 120 72 88 120 72 88 120 72 88 120 72 88 120 56 56 80 72 88 120 72 88 120 72 88 120 16 16 16 255 255 255 255 255 255 
255 255 255 255 255 255 72 88 120 184 200 192 216 224 216 216 224 216 216 224 216 216 224 216 216 224 216 216 224 216 216 224 216 216 224 216 216 224 216 216 224 216 216 224 216 216 224 216 216 224 216 184 200 192 216 224 216 184 200 192 184 200 192 184 200 192 184 200 192 184 200 192 184 200 192 184 200 192 184 200 192 184 200 192 184 200 192 128 152 168 128 152 168 72 88 120 16 16 16 128 152 168 128 152 168 128 152 168 128 152 168 128 152 168 128 152 168 128 152 168 128 152 168 16 16 16 16 16 16 128 152 168 128 152 168 128 152 168 128 152 168 128 152 168 128 152 168 128 152 168 56 56 80 72 88 120 72 88 120 72 88 120 72 88 120 72 88 120 72 88 120 16 16 16 72 88 120 72 88 120 72 88 120 16 16 16 255 255 255 255 255 255 
255 255 255 255 255 255 255 255 255 16 16 16 128 152 168 184 200 192 216 224 216 216 224 216 216 224 216 216 224 216 216 224 216 216 224 216 216 224 216 216 224 216 216 224 216 216 224 216 184 200 192 216 224 216 184 200 192 184 200 192 184 200 192 184 200 192 184 200 192 184 200 192 184 200 192 184 200 192 184 200 192 128 152 168 72 88 120 72 88 120 72 88 120 128 152 168 128 152 168 128 152 168 128 152 168 128 152 168 128 152 168 128 152 168 16 16 16 16 16 16 16 16 16 255 255 255 255 255 255 16 16 16 128 152 168 128 152 168 128 152 168 128 152 168 128 152 168 56 56 80 72 88 120 72 88 120 72 88 120 184 200 192 128 152 168 128 152 168 72 88 120 16 16 16 72 88 120 72 88 120 16 16 16 255 255 255 255 255 255 255 255 255 
255 255 255 255 255 255 255 255 255 255 255 255 16 16 16 128 152 168 72 88 120 72 88 120 184 200 192 216 224 216 216 224 216 216 224 216 216 224 216 216 224 216 216 224 216 184 200 192 216 224 216 184 200 192 184 200 192 184 200 192 184 200 192 184 200 192 184 200 192 184 200 192 128 152 168 72 88 120 72 88 120 72 88 120 128 152 168 128 152 168 128 152 168 128 152 168 128 152 168 128 152 168 128 152 168 128 152 168 184 200 192 16 16 16 255 255 255 255 255 255 255 255 255 255 255 255 255 255 255 16 16 16 128 152 168 128 152 168 128 152 168 128 152 168 128 152 168 72 88 120 72 88 120 72 88 120 184 200 192 184 200 192 184 200 192 128 152 168 128 152 168 72 88 120 16 16 16 72 88 120 16 16 16 255 255 255 255 255 255 255 255 255 
255 255 255 255 255 255 255 255 255 255 255 255 255 255 255 16 16 16 128 152 168 128 152 168 128 152 168 72 88 120 72 88 120 72 88 120 72 88 120 216 224 216 184 200 192 216 224 216 184 200 192 184 200 192 184 200 192 184 200 192 128 152 168 72 88 120 72 88 120 72 88 120 72 88 120 128 152 168 128 152 168 128 152 168 128 152 168 128 152 168 128 152 168 128 152 168 128 152 168 128 152 168 184 200 192 184 200 192 72 88 120 16 16 16 255 255 255 255 255 255 255 255 255 72 88 120 72 88 120 72 88 120 16 16 16 128 152 168 128 152 168 128 152 168 72 88 120 72 88 120 72 88 120 184 200 192 184 200 192 184 200 192 184 200 192 128 152 168 128 152 168 72 88 120 16 16 16 16 16 16 255 255 255 255 255 255 255 255 255 255 255 255 
255 255 255 255 255 255 255 255 255 255 255 255 255 255 255 255 255 255 72 88 120 16 16 16 128 152 168 128 152 168 128 152 168 128 152 168 128 152 168 72 88 120 72 88 120 72 88 120 72 88 120 72 88 120 72 88 120 72 88 120 72 88 120 128 152 168 128 152 168 128 152 168 128 152 168 128 152 168 128 152 168 72 88 120 16 16 16 16 16 16 16 16 16 72 88 120 184 200 192 184 200 192 184 200 192 72 88 120 16 16 16 255 255 255 255 255 255 16 16 16 72 88 120 184 200 192 72 88 120 72 88 120 16 16 16 56 56 80 56 56 80 56 56 80 56 56 80 56 56 80 72 88 120 16 16 16 184 200 192 184 200 192 184 200 192 184 200 192 128 152 168 128 152 168 16 16 16 255 255 255 255 255 255 255 255 255 255 255 255 255 255 255 
255 255 255 255 255 255 255 255 255 255 255 255 255 255 255 255 255 255 255 255 255 255 255 255 72 88 120 16 16 16 16 16 16 128 152 168 128 152 168 128 152 168 128 152 168 128 152 168 128 152 168 128 152 168 128 152 168 128 152 168 128 152 168 128 152 168 128 152 168 128 152 168 72 88 120 16 16 16 16 16 16 16 16 16 255 255 255 255 255 255 255 255 255 16 16 16 16 16 16 16 16 16 16 16 16 16 16 16 255 255 255 255 255 255 16 16 16 184 200 192 184 200 192 184 200 192 184 200 192 72 88 120 72 88 120 16 16 16 72 88 120 72 88 120 72 88 120 56 56 80 72 88 120 72 88 120 16 16 16 184 200 192 184 200 192 184 200 192 128 152 168 128 152 168 72 88 120 16 16 16 255 255 255 255 255 255 255 255 255 255 255 255 
255 255 255 255 255 255 255 255 255 255 255 255 255 255 255 255 255 255 255 255 255 255 255 255 255 255 255 255 255 255 255 255 255 72 88 120 72 88 120 72 88 120 72 88 120 16 16 16 16 16 16 16 16 16 16 16 16 16 16 16 16 16 16 16 16 16 16 16 16 16 16 16 16 16 16 255 255 255 255 255 255 255 255 255 255 255 255 255 255 255 255 255 255 255 255 255 255 255 255 255 255 255 255 255 255 255 255 255 255 255 255 16 16 16 184 200 192 184 200 192 184 200 192 184 200 192 184 200 192 72 88 120 72 88 120 72 88 120 16 16 16 16 16 16 16 16 16 16 16 16 16 16 16 72 88 120 16 16 16 128 152 168 184 200 192 184 200 192 184 200 192 128 152 168 128 152 168 16 16 16 255 255 255 255 255 255 255 255 255 255 255 255 
255 255 255 255 255 255 255 255 255 255 255 255 255 255 255 255 255 255 255 255 255 255 255 255 255 255 255 255 255 255 255 255 255 255 255 255 255 255 255 255 255 255 255 255 255 255 255 255 255 255 255 255 255 255 255 255 255 255 255 255 255 255 255 255 255 255 255 255 255 255 255 255 255 255 255 255 255 255 255 255 255 255 255 255 255 255 255 255 255 255 255 255 255 255 255 255 255 255 255 255 255 255 255 255 255 255 255 255 72 88 120 184 200 192 184 200 192 184 200 192 184 200 192 184 200 192 216 224 216 184 200 192 184 200 192 184 200 192 72 88 120 72 88 120 16 16 16 255 255 255 255 255 255 16 16 16 16 16 16 16 16 16 184 200 192 184 200 192 184 200 192 72 88 120 128 152 168 72 88 120 16 16 16 255 255 255 255 255 255 255 255 255 
255 255 255 255 255 255 255 255 255 255 255 255 255 255 255 255 255 255 255 255 255 255 255 255 255 255 255 255 255 255 255 255 255 255 255 255 255 255 255 255 255 255 255 255 255 255 255 255 255 255 255 255 255 255 255 255 255 255 255 255 255 255 255 255 255 255 255 255 255 255 255 255 255 255 255 255 255 255 255 255 255 255 255 255 255 255 255 255 255 255 255 255 255 255 255 255 255 255 255 255 255 255 255 255 255 255 255 255 72 88 120 184 200 192 184 200 192 184 200 192 184 200 192 216 224 216 216 224 216 128 152 168 128 152 168 128 152 168 128 152 168 184 200 192 184 200 192 16 16 16 255 255 255 255 255 255 255 255 255 255 255 255 16 16 16 184 200 192 184 200 192 184 200 192 72 88 120 128 152 168 16 16 16 255 255 255 255 255 255 255 255 255 
255 255 255 255 255 255 255 255 255 255 255 255 255 255 255 255 255 255 255 255 255 255 255 255 255 255 255 255 255 255 255 255 255 255 255 255 255 255 255 255 255 255 255 255 255 255 255 255 255 255 255 255 255 255 255 255 255 255 255 255 255 255 255 255 255 255 255 255 255 255 255 255 255 255 255 255 255 255 255 255 255 255 255 255 255 255 255 255 255 255 255 255 255 255 255 255 255 255 255 255 255 255 255 255 255 255 255 255 72 88 120 184 200 192 184 200 192 184 200 192 184 200 192 216 224 216 128 152 168 128 152 168 128 152 168 128 152 168 128 152 168 128 152 168 128 152 168 16 16 16 255 255 255 255 255 255 255 255 255 255 255 255 16 16 16 128 152 168 184 200 192 184 200 192 72 88 120 128 152 168 72 88 120 16 16 16 255 255 255 255 255 255 
255 255 255 255 255 255 255 255 255 255 255 255 255 255 255 255 255 255 255 255 255 255 255 255 255 255 255 255 255 255 255 255 255 255 255 255 255 255 255 255 255 255 255 255 255 255 255 255 255 255 255 255 255 255 255 255 255 255 255 255 255 255 255 255 255 255 255 255 255 255 255 255 72 88 120 72 88 120 72 88 120 255 255 255 255 255 255 255 255 255 255 255 255 255 255 255 255 255 255 255 255 255 255 255 255 16 16 16 16 16 16 128 152 168 216 224 216 216 224 216 216 224 216 128 152 168 128 152 168 128 152 168 128 152 168 128 152 168 128 152 168 128 152 168 128 152 168 16 16 16 255 255 255 255 255 255 255 255 255 255 255 255 255 255 255 16 16 16 184 200 192 184 200 192 128 152 168 72 88 120 128 152 168 16 16 16 255 255 255 255 255 255 
255 255 255 255 255 255 255 255 255 255 255 255 255 255 255 255 255 255 255 255 255 255 255 255 255 255 255 255 255 255 255 255 255 255 255 255 255 255 255 255 255 255 255 255 255 255 255 255 255 255 255 255 255 255 255 255 255 255 255 255 255 255 255 255 255 255 255 255 255 255 255 255 56 56 80 216 224 216 216 224 216 72 88 120 72 88 120 255 255 255 255 255 255 255 255 255 72 88 120 16 16 16 16 16 16 128 152 168 16 16 16 72 88 120 72 88 120 72 88 120 72 88 120 128 152 168 128 152 168 128 152 168 128 152 168 128 152 168 128 152 168 128 152 168 128 152 168 72 88 120 255 255 255 255 255 255 255 255 255 255 255 255 255 255 255 255 255 255 16 16 16 184 200 192 128 152 168 216 224 216 128 152 168 72 88 120 16 16 16 255 255 255 
255 255 255 255 255 255 255 255 255 255 255 255 255 255 255 255 255 255 255 255 255 255 255 255 255 255 255 255 255 255 255 255 255 255 255 255 255 255 255 255 255 255 255 255 255 255 255 255 255 255 255 255 255 255 255 255 255 255 255 255 255 255 255 255 255 255 255 255 255 255 255 255 56 56 80 216 224 216 216 224 216 216 224 216 128 152 168 72 88 120 72 88 120 72 88 120 216 224 216 216 224 216 216 224 216 216 224 216 72 88 120 16 16 16 72 88 120 72 88 120 72 88 120 72 88 120 128 152 168 128 152 168 128 152 168 128 152 168 128 152 168 56 56 80 56 56 80 255 255 255 255 255 255 255 255 255 255 255 255 255 255 255 255 255 255 255 255 255 16 16 16 128 152 168 128 152 168 216 224 216 216 224 216 128 152 168 16 16 16 255 255 255 
255 255 255 255 255 255 255 255 255 255 255 255 255 255 255 255 255 255 255 255 255 255 255 255 255 255 255 255 255 255 255 255 255 255 255 255 255 255 255 255 255 255 255 255 255 255 255 255 255 255 255 255 255 255 255 255 255 255 255 255 255 255 255 255 255 255 255 255 255 255 255 255 255 255 255 56 56 80 56 56 80 184 200 192 184 200 192 128 152 168 72 88 120 216 224 216 216 224 216 216 224 216 216 224 216 216 224 216 72 88 120 72 88 120 16 16 16 72 88 120 72 88 120 72 88 120 72 88 120 128 152 168 128 152 168 56 56 80 56 56 80 72 88 120 56 56 80 255 255 255 255 255 255 255 255 255 255 255 255 255 255 255 255 255 255 255 255 255 255 255 255 16 16 16 128 152 168 216 224 216 216 224 216 216 224 216 72 88 120 16 16 16 
255 255 255 255 255 255 255 255 255 255 255 255 255 255 255 255 255 255 255 255 255 255 255 255 255 255 255 255 255 255 255 255 255 255 255 255 255 255 255 255 255 255 255 255 255 255 255 255 255 255 255 255 255 255 255 255 255 255 255 255 255 255 255 255 255 255 255 255 255 255 255 255 255 255 255 255 255 255 255 255 255 56 56 80 128 152 168 72 88 120 216 224 216 216 224 216 216 224 216 216 224 216 216 224 216 128 152 168 128 152 168 128 152 168 72 88 120 16 16 16 72 88 120 72 88 120 72 88 120 72 88 120 56 56 80 72 88 120 72 88 120 56 56 80 255 255 255 255 255 255 255 255 255 255 255 255 255 255 255 255 255 255 255 255 255 255 255 255 255 255 255 255 255 255 16 16 16 216 224 216 216 224 216 72 88 120 72 88 120 16 16 16 
255 255 255 255 255 255 255 255 255 255 255 255 255 255 255 255 255 255 255 255 255 255 255 255 255 255 255 255 255 255 255 255 255 255 255 255 255 255 255 255 255 255 255 255 255 255 255 255 255 255 255 255 255 255 255 255 255 255 255 255 255 255 255 255 255 255 255 255 255 255 255 255 255 255 255 255 255 255 255 255 255 255 255 255 72 88 120 216 224 216 216 224 216 216 224 216 216 224 216 216 224 216 216 224 216 128 152 168 128 152 168 128 152 168 128 152 168 128 152 168 16 16 16 16 16 16 16 16 16 16 16 16 16 16 16 16 16 16 56 56 80 255 255 255 255 255 255 255 255 255 255 255 255 255 255 255 255 255 255 255 255 255 255 255 255 255 255 255 255 255 255 255 255 255 16 16 16 216 224 216 72 88 120 72 88 120 72 88 120 16 16 16 
255 255 255 255 255 255 255 255 255 255 255 255 255 255 255 255 255 255 255 255 255 255 255 255 255 255 255 255 255 255 255 255 255 255 255 255 255 255 255 255 255 255 255 255 255 255 255 255 255 255 255 255 255 255 255 255 255 255 255 255 255 255 255 255 255 255 255 255 255 255 255 255 255 255 255 255 255 255 255 255 255 255 255 255 72 88 120 216 224 216 128 152 168 128 152 168 128 152 168 128 152 168 128 152 168 128 152 168 128 152 168 72 88 120 16 16 16 128 152 168 128 152 168 16 16 16 255 255 255 255 255 255 255 255 255 255 255 255 255 255 255 255 255 255 255 255 255 255 255 255 255 255 255 255 255 255 255 255 255 255 255 255 255 255 255 255 255 255 255 255 255 255 255 255 255 255 255 16 16 16 16 16 16 72 88 120 72 88 120 16 16 16 
255 255 255 255 255 255 255 255 255 255 255 255 255 255 255 255 255 255 255 255 255 255 255 255 255 255 255 255 255 255 255 255 255 255 255 255 255 255 255 255 255 255 255 255 255 255 255 255 255 255 255 255 255 255 255 255 255 255 255 255 255 255 255 255 255 255 255 255 255 255 255 255 255 255 255 255 255 255 255 255 255 255 255 255 16 16 16 128 152 168 184 200 192 184 200 192 184 200 192 184 200 192 128 152 168 128 152 168 72 88 120 72 88 120 184 200 192 72 88 120 16 16 16 16 16 16 255 255 255 255 255 255 255 255 255 255 255 255 255 255 255 255 255 255 255 255 255 255 255 255 255 255 255 255 255 255 255 255 255 255 255 255 255 255 255 255 255 255 255 255 255 255 255 255 255 255 255 255 255 255 255 255 255 16 16 16 16 16 16 255 255 255 
255 255 255 255 255 255 255 255 255 255 255 255 255 255 255 255 255 255 255 255 255 255 255 255 255 255 255 255 255 255 255 255 255 255 255 255 255 255 255 255 255 255 255 255 255 255 255 255 255 255 255 255 255 255 255 255 255 255 255 255 255 255 255 255 255 255 255 255 255 255 255 255 255 255 255 255 255 255 255 255 255 255 255 255 16 16 16 128 152 168 128 152 168 184 200 192 184 200 192 184 200 192 128 152 168 128 152 168 72 88 120 184 200 192 184 200 192 184 200 192 184 200 192 72 88 120 16 16 16 255 255 255 255 255 255 255 255 255 255 255 255 255 255 255 255 255 255 255 255 255 255 255 255 255 255 255 255 255 255 255 255 255 255 255 255 255 255 255 255 255 255 255 255 255 255 255 255 255 255 255 255 255 255 255 255 255 255 255 255 255 255 255 
255 255 255 255 255 255 255 255 255 255 255 255 255 255 255 255 255 255 255 255 255 255 255 255 255 255 255 255 255 255 255 255 255 255 255 255 255 255 255 255 255 255 255 255 255 255 255 255 255 255 255 255 255 255 255 255 255 255 255 255 255 255 255 255 255 255 255 255 255 255 255 255 255 255 255 255 255 255 255 255 255 255 255 255 16 16 16 128 152 168 128 152 168 72 88 120 128 152 168 184 200 192 128 152 168 128 152 168 128 152 168 184 200 192 184 200 192 184 200 192 184 200 192 128 152 168 128 152 168 72 88 120 16 16 16 255 255 255 255 255 255 255 255 255 255 255 255 255 255 255 255 255 255 255 255 255 255 255 255 255 255 255 255 255 255 255 255 255 255 255 255 255 255 255 255 255 255 255 255 255 255 255 255 255 255 255 255 255 255 255 255 255 
255 255 255 255 255 255 255 255 255 255 255 255 255 255 255 255 255 255 255 255 255 255 255 255 255 255 255 255 255 255 255 255 255 255 255 255 255 255 255 255 255 255 255 255 255 255 255 255 255 255 255 255 255 255 255 255 255 255 255 255 255 255 255 255 255 255 255 255 255 255 255 255 255 255 255 255 255 255 255 255 255 255 255 255 255 255 255 56 56 80 72 88 120 72 88 120 72 88 120 72 88 120 128 152 168 128 152 168 128 152 168 16 16 16 16 16 16 128 152 168 184 200 192 184 200 192 184 200 192 184 200 192 184 200 192 16 16 16 16 16 16 255 255 255 255 255 255 255 255 255 255 255 255 255 255 255 255 255 255 255 255 255 255 255 255 255 255 255 255 255 255 255 255 255 255 255 255 255 255 255 255 255 255 255 255 255 255 255 255 255 255 255 
255 255 255 255 255 255 255 255 255 255 255 255 255 255 255 255 255 255 255 255 255 255 255 255 255 255 255 255 255 255 255 255 255 255 255 255 255 255 255 255 255 255 255 255 255 255 255 255 255 255 255 255 255 255 255 255 255 255 255 255 255 255 255 255 255 255 255 255 255 255 255 255 255 255 255 255 255 255 255 255 255 255 255 255 255 255 255 255 255 255 16 16 16 72 88 120 72 88 120 72 88 120 72 88 120 128 152 168 128 152 168 128 152 168 16 16 16 16 16 16 16 16 16 16 16 16 128 152 168 128 152 168 128 152 168 72 88 120 72 88 120 16 16 16 255 255 255 255 255 255 255 255 255 255 255 255 255 255 255 255 255 255 255 255 255 255 255 255 255 255 255 255 255 255 255 255 255 255 255 255 255 255 255 255 255 255 255 255 255 255 255 255 
255 255 255 255 255 255 255 255 255 255 255 255 255 255 255 255 255 255 255 255 255 255 255 255 255 255 255 255 255 255 255 255 255 255 255 255 255 255 255 255 255 255 255 255 255 255 255 255 255 255 255 255 255 255 255 255 255 255 255 255 255 255 255 255 255 255 255 255 255 255 255 255 255 255 255 255 255 255 255 255 255 255 255 255 255 255 255 255 255 255 255 255 255 16 16 16 72 88 120 72 88 120 72 88 120 72 88 120 16 16 16 16 16 16 72 88 120 72 88 120 16 16 16 255 255 255 16 16 16 16 16 16 72 88 120 72 88 120 72 88 120 16 16 16 255 255 255 255 255 255 255 255 255 255 255 255 255 255 255 16 16 16 16 16 16 16 16 16 16 16 16 16 16 16 16 16 16 16 16 16 16 16 16 255 255 255 255 255 255 255 255 255 
255 255 255 255 255 255 255 255 255 255 255 255 255 255 255 255 255 255 255 255 255 255 255 255 255 255 255 255 255 255 255 255 255 255 255 255 255 255 255 255 255 255 255 255 255 255 255 255 255 255 255 255 255 255 255 255 255 255 255 255 255 255 255 255 255 255 255 255 255 255 255 255 255 255 255 255 255 255 255 255 255 255 255 255 255 255 255 255 255 255 255 255 255 72 88 120 16 16 16 16 16 16 16 16 16 16 16 16 72 88 120 72 88 120 72 88 120 72 88 120 72 88 120 16 16 16 255 255 255 255 255 255 16 16 16 16 16 16 16 16 16 255 255 255 255 255 255 255 255 255 255 255 255 255 255 255 255 255 255 16 16 16 184 200 192 128 152 168 128 152 168 128 152 168 128 152 168 56 56 80 16 16 16 255 255 255 255 255 255 255 255 255 
255 255 255 255 255 255 255 255 255 255 255 255 255 255 255 255 255 255 255 255 255 255 255 255 255 255 255 255 255 255 255 255 255 255 255 255 255 255 255 255 255 255 255 255 255 255 255 255 255 255 255 255 255 255 255 255 255 255 255 255 255 255 255 255 255 255 255 255 255 255 255 255 255 255 255 255 255 255 255 255 255 255 255 255 255 255 255 255 255 255 255 255 255 72 88 120 184 200 192 128 152 168 128 152 168 128 152 168 128 152 168 72 88 120 128 152 168 128 152 168 128 152 168 128 152 168 16 16 16 255 255 255 255 255 255 255 255 255 255 255 255 255 255 255 255 255 255 16 16 16 16 16 16 56 56 80 56 56 80 56 56 80 184 200 192 184 200 192 128 152 168 128 152 168 56 56 80 16 16 16 255 255 255 255 255 255 255 255 255 255 255 255 
255 255 255 255 255 255 255 255 255 255 255 255 255 255 255 255 255 255 255 255 255 255 255 255 255 255 255 255 255 255 255 255 255 255 255 255 255 255 255 255 255 255 255 255 255 255 255 255 255 255 255 255 255 255 255 255 255 255 255 255 255 255 255 255 255 255 255 255 255 255 255 255 255 255 255 255 255 255 255 255 255 255 255 255 255 255 255 255 255 255 255 255 255 72 88 120 184 200 192 184 200 192 128 152 168 128 152 168 128 152 168 128 152 168 128 152 168 128 152 168 128 152 168 128 152 168 16 16 16 16 16 16 16 16 16 16 16 16 16 16 16 255 255 255 16 16 16 128 152 168 128 152 168 128 152 168 72 88 120 72 88 120 16 16 16 184 200 192 184 200 192 56 56 80 56 56 80 16 16 16 255 255 255 255 255 255 255 255 255 255 255 255 
255 255 255 255 255 255 255 255 255 255 255 255 255 255 255 255 255 255 255 255 255 255 255 255 255 255 255 255 255 255 255 255 255 255 255 255 255 255 255 255 255 255 255 255 255 255 255 255 255 255 255 255 255 255 255 255 255 255 255 255 255 255 255 255 255 255 255 255 255 255 255 255 255 255 255 255 255 255 255 255 255 255 255 255 255 255 255 255 255 255 72 88 120 216 224 216 184 200 192 184 200 192 184 200 192 184 200 192 56 56 80 56 56 80 128 152 168 128 152 168 128 152 168 128 152 168 16 16 16 72 88 120 72 88 120 128 152 168 128 152 168 16 16 16 16 16 16 72 88 120 16 16 16 16 16 16 16 16 16 72 88 120 16 16 16 184 200 192 184 200 192 56 56 80 16 16 16 255 255 255 255 255 255 255 255 255 255 255 255 255 255 255 
255 255 255 255 255 255 255 255 255 255 255 255 255 255 255 255 255 255 255 255 255 255 255 255 255 255 255 255 255 255 255 255 255 255 255 255 255 255 255 255 255 255 255 255 255 255 255 255 255 255 255 255 255 255 255 255 255 255 255 255 255 255 255 255 255 255 255 255 255 255 255 255 255 255 255 255 255 255 255 255 255 255 255 255 255 255 255 255 255 255 56 56 80 216 224 216 184 200 192 184 200 192 72 88 120 72 88 120 72 88 120 72 88 120 56 56 80 56 56 80 128 152 168 128 152 168 16 16 16 72 88 120 72 88 120 128 152 168 128 152 168 72 88 120 72 88 120 128 152 168 128 152 168 72 88 120 16 16 16 72 88 120 16 16 16 56 56 80 184 200 192 56 56 80 16 16 16 255 255 255 255 255 255 255 255 255 255 255 255 255 255 255 
255 255 255 255 255 255 255 255 255 255 255 255 255 255 255 255 255 255 255 255 255 255 255 255 255 255 255 255 255 255 255 255 255 255 255 255 255 255 255 255 255 255 255 255 255 255 255 255 255 255 255 255 255 255 255 255 255 255 255 255 255 255 255 255 255 255 255 255 255 255 255 255 255 255 255 255 255 255 255 255 255 255 255 255 255 255 255 255 255 255 56 56 80 216 224 216 72 88 120 72 88 120 72 88 120 72 88 120 72 88 120 72 88 120 72 88 120 56 56 80 56 56 80 16 16 16 72 88 120 72 88 120 128 152 168 128 152 168 72 88 120 128 152 168 128 152 168 128 152 168 16 16 16 16 16 16 72 88 120 72 88 120 16 16 16 255 255 255 16 16 16 16 16 16 255 255 255 255 255 255 255 255 255 255 255 255 255 255 255 255 255 255 
255 255 255 255 255 255 255 255 255 255 255 255 255 255 255 255 255 255 255 255 255 255 255 255 255 255 255 255 255 255 255 255 255 255 255 255 255 255 255 255 255 255 255 255 255 255 255 255 255 255 255 255 255 255 255 255 255 255 255 255 255 255 255 255 255 255 255 255 255 255 255 255 255 255 255 255 255 255 255 255 255 255 255 255 255 255 255 255 255 255 255 255 255 56 56 80 72 88 120 72 88 120 72 88 120 72 88 120 72 88 120 72 88 120 16 16 16 56 56 80 56 56 80 16 16 16 72 88 120 72 88 120 128 152 168 128 152 168 128 152 168 128 152 168 56 56 80 16 16 16 72 88 120 72 88 120 56 56 80 56 56 80 16 16 16 255 255 255 255 255 255 255 255 255 255 255 255 255 255 255 255 255 255 255 255 255 255 255 255 255 255 255 
255 255 255 255 255 255 255 255 255 255 255 255 255 255 255 255 255 255 255 255 255 255 255 255 255 255 255 255 255 255 255 255 255 255 255 255 255 255 255 255 255 255 255 255 255 255 255 255 255 255 255 255 255 255 255 255 255 255 255 255 255 255 255 255 255 255 255 255 255 255 255 255 255 255 255 255 255 255 255 255 255 255 255 255 255 255 255 255 255 255 255 255 255 255 255 255 56 56 80 72 88 120 72 88 120 72 88 120 72 88 120 16 16 16 56 56 80 56 56 80 16 16 16 72 88 120 72 88 120 56 56 80 56 56 80 128 152 168 128 152 168 56 56 80 128 152 168 16 16 16 72 88 120 72 88 120 56 56 80 16 16 16 255 255 255 255 255 255 255 255 255 255 255 255 255 255 255 255 255 255 255 255 255 255 255 255 255 255 255 255 255 255 
255 255 255 255 255 255 255 255 255 255 255 255 255 255 255 255 255 255 255 255 255 255 255 255 255 255 255 255 255 255 255 255 255 255 255 255 255 255 255 255 255 255 255 255 255 255 255 255 255 255 255 255 255 255 255 255 255 255 255 255 255 255 255 255 255 255 255 255 255 255 255 255 255 255 255 255 255 255 255 255 255 255 255 255 255 255 255 255 255 255 255 255 255 255 255 255 255 255 255 16 16 16 16 16 16 16 16 16 16 16 16 16 16 16 16 16 16 16 16 16 72 88 120 72 88 120 56 56 80 72 88 120 72 88 120 56 56 80 128 152 168 128 152 168 128 152 168 16 16 16 16 16 16 16 16 16 16 16 16 255 255 255 255 255 255 255 255 255 255 255 255 255 255 255 255 255 255 255 255 255 255 255 255 255 255 255 255 255 255 255 255 255 
255 255 255 255 255 255 255 255 255 255 255 255 255 255 255 255 255 255 255 255 255 255 255 255 255 255 255 255 255 255 255 255 255 255 255 255 255 255 255 255 255 255 255 255 255 255 255 255 255 255 255 255 255 255 255 255 255 255 255 255 255 255 255 255 255 255 255 255 255 255 255 255 255 255 255 255 255 255 255 255 255 255 255 255 255 255 255 255 255 255 255 255 255 255 255 255 255 255 255 255 255 255 255 255 255 255 255 255 255 255 255 16 16 16 128 152 168 128 152 168 16 16 16 56 56 80 72 88 120 72 88 120 72 88 120 72 88 120 56 56 80 128 152 168 16 16 16 255 255 255 255 255 255 255 255 255 255 255 255 255 255 255 255 255 255 255 255 255 255 255 255 255 255 255 255 255 255 255 255 255 255 255 255 255 255 255 255 255 255 255 255 255 
255 255 255 255 255 255 255 255 255 255 255 255 255 255 255 255 255 255 255 255 255 255 255 255 255 255 255 255 255 255 255 255 255 255 255 255 255 255 255 255 255 255 255 255 255 255 255 255 255 255 255 255 255 255 255 255 255 255 255 255 255 255 255 255 255 255 255 255 255 255 255 255 255 255 255 255 255 255 255 255 255 255 255 255 255 255 255 255 255 255 255 255 255 255 255 255 255 255 255 255 255 255 255 255 255 255 255 255 255 255 255 255 255 255 16 16 16 16 16 16 16 16 16 16 16 16 56 56 80 56 56 80 56 56 80 56 56 80 56 56 80 16 16 16 255 255 255 255 255 255 255 255 255 255 255 255 255 255 255 255 255 255 255 255 255 255 255 255 255 255 255 255 255 255 255 255 255 255 255 255 255 255 255 255 255 255 255 255 255 255 255 255 
255 255 255 255 255 255 255 255 255 255 255 255 255 255 255 255 255 255 255 255 255 255 255 255 255 255 255 255 255 255 255 255 255 255 255 255 255 255 255 255 255 255 255 255 255 255 255 255 255 255 255 255 255 255 255 255 255 255 255 255 255 255 255 255 255 255 255 255 255 255 255 255 255 255 255 255 255 255 255 255 255 255 255 255 255 255 255 255 255 255 255 255 255 255 255 255 255 255 255 255 255 255 255 255 255 255 255 255 255 255 255 255 255 255 255 255 255 255 255 255 255 255 255 255 255 255 16 16 16 16 16 16 16 16 16 16 16 16 16 16 16 255 255 255 255 255 255 255 255 255 255 255 255 255 255 255 255 255 255 255 255 255 255 255 255 255 255 255 255 255 255 255 255 255 255 255 255 255 255 255 255 255 255 255 255 255 255 255 255 255 255 255 
