P3
64 64
255
255 255 255 255 255 255 255 255 255 255 255 255 255 255 255 255 255 255 255 255 255 255 255 255 255 255 255 255 255 255 255 255 255 255 255 255 255 255 255 255 255 255 255 255 255 255 255 255 255 255 255 255 255 255 255 255 255 255 255 255 255 255 255 255 255 255 255 255 255 255 255 255 255 255 255 255 255 255 255 255 255 255 255 255 255 255 255 255 255 255 255 255 255 255 255 255 255 255 255 255 255 255 255 255 255 255 255 255 255 255 255 255 255 255 255 255 255 255 255 255 255 255 255 255 255 255 255 255 255 255 255 255 255 255 255 255 255 255 255 255 255 255 255 255 255 255 255 255 255 255 255 255 255 255 255 255 255 255 255 255 255 255 255 255 255 255 255 255 255 255 255 255 255 255 255 255 255 255 255 255 255 255 255 255 255 255 255 255 255 255 255 255 
255 255 255 255 255 255 255 255 255 255 255 255 255 255 255 255 255 255 255 255 255 255 255 255 255 255 255 255 255 255 255 255 255 255 255 255 255 255 255 255 255 255 255 255 255 255 255 255 255 255 255 255 255 255 255 255 255 255 255 255 255 255 255 255 255 255 255 255 255 255 255 255 255 255 255 255 255 255 255 255 255 255 255 255 255 255 255 255 255 255 255 255 255 255 255 255 255 255 255 255 255 255 255 255 255 255 255 255 255 255 255 255 255 255 255 255 255 255 255 255 255 255 255 255 255 255 255 255 255 255 255 255 255 255 255 255 255 255 255 255 255 255 255 255 255 255 255 255 255 255 255 255 255 255 255 255 255 255 255 255 255 255 255 255 255 255 255 255 255 255 255 255 255 255 255 255 255 255 255 255 255 255 255 255 255 255 255 255 255 255 255 255 
255 255 255 255 255 255 255 255 255 255 255 255 255 255 255 255 255 255 255 255 255 255 255 255 255 255 255 255 255 255 255 255 255 255 255 255 255 255 255 255 255 255 255 255 255 255 255 255 255 255 255 255 255 255 255 255 255 255 255 255 255 255 255 255 255 255 255 255 255 255 255 255 255 255 255 255 255 255 255 255 255 255 255 255 255 255 255 255 255 255 255 255 255 255 255 255 255 255 255 255 255 255 255 255 255 255 255 255 255 255 255 255 255 255 255 255 255 255 255 255 255 255 255 255 255 255 255 255 255 255 255 255 255 255 255 255 255 255 255 255 255 255 255 255 255 255 255 255 255 255 255 255 255 255 255 255 255 255 255 255 255 255 255 255 255 255 255 255 255 255 255 255 255 255 255 255 255 255 255 255 255 255 255 255 255 255 255 255 255 255 255 255 
255 255 255 255 255 255 255 255 255 255 255 255 255 255 255 255 255 255 255 255 255 255 255 255 255 255 255 255 255 255 255 255 255 255 255 255 255 255 255 255 255 255 255 255 255 255 255 255 255 255 255 255 255 255 255 255 255 255 255 255 255 255 255 255 255 255 255 255 255 255 255 255 255 255 255 255 255 255 255 255 255 255 255 255 255 255 255 255 255 255 255 255 255 255 255 255 255 255 255 255 255 255 255 255 255 255 255 255 255 255 255 255 255 255 255 255 255 255 255 255 255 255 255 255 255 255 255 255 255 255 255 255 255 255 255 255 255 255 255 255 255 255 255 255 255 255 255 255 255 255 255 255 255 255 255 255 255 255 255 255 255 255 255 255 255 255 255 255 255 255 255 255 255 255 255 255 255 255 255 255 255 255 255 255 255 255 255 255 255 255 255 255 
255 255 255 255 255 255 255 255 255 255 255 255 255 255 255 255 255 255 255 255 255 255 255 255 255 255 255 255 255 255 255 255 255 255 255 255 255 255 255 255 255 255 255 255 255 255 255 255 255 255 255 255 255 255 255 255 255 255 255 255 255 255 255 255 255 255 255 255 255 255 255 255 255 255 255 255 255 255 255 255 255 255 255 255 255 255 255 255 255 255 255 255 255 255 255 255 255 255 255 255 255 255 255 255 255 255 255 255 255 255 255 255 255 255 255 255 255 255 255 255 255 255 255 255 255 255 255 255 255 255 255 255 255 255 255 255 255 255 255 255 255 255 255 255 255 255 255 255 255 255 255 255 255 255 255 255 255 255 255 255 255 255 255 255 255 255 255 255 255 255 255 255 255 255 255 255 255 255 255 255 255 255 255 255 255 255 255 255 255 255 255 255 
255 255 255 255 255 255 255 255 255 255 255 255 255 255 255 255 255 255 255 255 255 255 255 255 255 255 255 255 255 255 255 255 255 255 255 255 255 255 255 255 255 255 255 255 255 255 255 255 255 255 255 255 255 255 255 255 255 255 255 255 255 255 255 255 255 255 255 255 255 255 255 255 255 255 255 255 255 255 255 255 255 255 255 255 255 255 255 255 255 255 255 255 255 255 255 255 255 255 255 255 255 255 255 255 255 255 255 255 255 255 255 255 255 255 255 255 255 255 255 255 255 255 255 255 255 255 255 255 255 255 255 255 255 255 255 255 255 255 255 255 255 255 255 255 255 255 255 255 255 255 255 255 255 255 255 255 255 255 255 255 255 255 255 255 255 255 255 255 255 255 255 255 255 255 255 255 255 255 255 255 255 255 255 255 255 255 255 255 255 255 255 255 
255 255 255 255 255 255 255 255 255 255 255 255 255 255 255 255 255 255 255 255 255 255 255 255 255 255 255 255 255 255 255 255 255 255 255 255 255 255 255 255 255 255 255 255 255 255 255 255 255 255 255 255 255 255 255 255 255 255 255 255 255 255 255 255 255 255 255 255 255 255 255 255 255 255 255 255 255 255 255 255 255 255 255 255 255 255 255 255 255 255 255 255 255 255 255 255 255 255 255 255 255 255 255 255 255 255 255 255 255 255 255 255 255 255 255 255 255 255 255 255 255 255 255 255 255 255 255 255 255 255 255 255 255 255 255 255 255 255 255 255 255 255 255 255 255 255 255 255 255 255 255 255 255 255 255 255 255 255 255 255 255 255 255 255 255 255 255 255 255 255 255 255 255 255 255 255 255 255 255 255 255 255 255 255 255 255 255 255 255 255 255 255 
255 255 255 255 255 255 255 255 255 255 255 255 255 255 255 255 255 255 255 255 255 255 255 255 255 255 255 255 255 255 255 255 255 255 255 255 255 255 255 255 255 255 255 255 255 255 255 255 255 255 255 255 255 255 255 255 255 255 255 255 255 255 255 255 255 255 255 255 255 255 255 255 255 255 255 255 255 255 255 255 255 255 255 255 255 255 255 255 255 255 255 255 255 255 255 255 255 255 255 255 255 255 255 255 255 255 255 255 255 255 255 255 255 255 255 255 255 255 255 255 255 255 255 255 255 255 255 255 255 255 255 255 255 255 255 255 255 255 255 255 255 255 255 255 255 255 255 255 255 255 255 255 255 255 255 255 255 255 255 255 255 255 255 255 255 255 255 255 255 255 255 255 255 255 255 255 255 255 255 255 255 255 255 255 255 255 255 255 255 255 255 255 
255 255 255 255 255 255 255 255 255 255 255 255 255 255 255 255 255 255 255 255 255 255 255 255 255 255 255 255 255 255 255 255 255 255 255 255 255 255 255 255 255 255 255 255 255 255 255 255 255 255 255 255 255 255 255 255 255 255 255 255 255 255 255 255 255 255 255 255 255 255 255 255 255 255 255 255 255 255 255 255 255 255 255 255 255 255 255 255 255 255 255 255 255 255 255 255 255 255 255 255 255 255 255 255 255 255 255 255 255 255 255 255 255 255 255 255 255 255 255 255 255 255 255 255 255 255 255 255 255 255 255 255 255 255 255 255 255 255 255 255 255 255 255 255 255 255 255 255 255 255 255 255 255 255 255 255 255 255 255 255 255 255 255 255 255 255 255 255 255 255 255 255 255 255 255 255 255 255 255 255 255 255 255 255 255 255 255 255 255 255 255 255 
255 255 255 255 255 255 255 255 255 255 255 255 255 255 255 255 255 255 255 255 255 255 255 255 255 255 255 255 255 255 255 255 255 255 255 255 255 255 255 255 255 255 255 255 255 88 64 24 88 64 24 255 255 255 255 255 255 255 255 255 255 255 255 255 255 255 255 255 255 255 255 255 255 255 255 255 255 255 255 255 255 255 255 255 255 255 255 255 255 255 255 255 255 255 255 255 255 255 255 255 255 255 255 255 255 255 255 255 255 255 255 255 255 255 255 255 255 255 255 255 255 255 255 255 255 255 255 255 255 255 255 255 255 255 255 255 255 255 255 255 255 255 255 255 255 255 255 255 255 255 255 255 255 255 255 255 255 255 255 255 255 255 255 255 255 255 255 255 255 255 255 255 255 255 255 255 255 255 255 255 255 255 255 255 255 255 255 255 255 255 255 255 
255 255 255 255 255 255 255 255 255 255 255 255 255 255 255 255 255 255 255 255 255 255 255 255 255 255 255 255 255 255 255 255 255 255 255 255 255 255 255 255 255 255 255 255 255 88 64 24 136 112 72 88 64 24 255 255 255 255 255 255 255 255 255 255 255 255 255 255 255 255 255 255 255 255 255 255 255 255 255 255 255 255 255 255 255 255 255 255 255 255 255 255 255 255 255 255 255 255 255 255 255 255 255 255 255 255 255 255 255 255 255 255 255 255 255 255 255 255 255 255 255 255 255 255 255 255 255 255 255 255 255 255 255 255 255 255 255 255 255 255 255 255 255 255 255 255 255 255 255 255 255 255 255 255 255 255 255 255 255 255 255 255 255 255 255 255 255 255 255 255 255 255 255 255 255 255 255 255 255 255 255 255 255 255 255 255 255 255 255 255 255 255 
255 255 255 255 255 255 255 255 255 255 255 255 255 255 255 255 255 255 255 255 255 255 255 255 255 255 255 255 255 255 255 255 255 255 255 255 255 255 255 255 255 255 255 255 255 88 64 24 136 112 72 136 112 72 88 64 24 255 255 255 255 255 255 255 255 255 255 255 255 255 255 255 255 255 255 255 255 255 255 255 255 255 255 255 255 255 255 255 255 255 255 255 255 255 255 255 255 255 255 255 255 255 255 255 255 255 255 255 255 255 255 255 255 255 255 255 255 255 255 255 255 255 255 255 255 255 255 255 255 255 255 255 255 255 255 255 255 255 255 255 255 255 255 255 255 255 255 255 255 255 255 255 255 255 255 255 255 255 255 255 255 255 255 255 255 255 255 255 255 255 255 255 255 255 255 255 255 255 255 255 255 255 255 255 255 255 255 255 255 255 255 255 
255 255 255 255 255 255 255 255 255 255 255 255 255 255 255 255 255 255 255 255 255 255 255 255 255 255 255 255 255 255 255 255 255 255 255 255 255 255 255 255 255 255 255 255 255 88 64 24 88 64 24 136 112 72 136 112 72 88 64 24 255 255 255 255 255 255 255 255 255 255 255 255 255 255 255 255 255 255 255 255 255 255 255 255 255 255 255 255 255 255 255 255 255 255 255 255 255 255 255 255 255 255 255 255 255 255 255 255 255 255 255 255 255 255 255 255 255 255 255 255 255 255 255 255 255 255 255 255 255 255 255 255 255 255 255 255 255 255 255 255 255 255 255 255 255 255 255 255 255 255 255 255 255 255 255 255 255 255 255 255 255 255 255 255 255 255 255 255 255 255 255 255 255 255 255 255 255 255 255 255 255 255 255 255 255 255 255 255 255 255 255 255 
255 255 255 255 255 255 255 255 255 255 255 255 255 255 255 255 255 255 255 255 255 255 255 255 255 255 255 255 255 255 255 255 255 255 255 255 255 255 255 255 255 255 255 255 255 88 64 24 88 64 24 112 88 48 112 88 48 112 88 48 88 64 24 255 255 255 255 255 255 255 255 255 255 255 255 255 255 255 255 255 255 255 255 255 255 255 255 255 255 255 255 255 255 255 255 255 255 255 255 255 255 255 255 255 255 255 255 255 255 255 255 255 255 255 255 255 255 255 255 255 255 255 255 255 255 255 255 255 255 255 255 255 255 255 255 255 255 255 88 64 24 88 64 24 88 64 24 16 16 16 255 255 255 255 255 255 255 255 255 255 255 255 255 255 255 255 255 255 255 255 255 255 255 255 255 255 255 255 255 255 255 255 255 255 255 255 255 255 255 255 255 255 
255 255 255 255 255 255 255 255 255 255 255 255 255 255 255 255 255 255 255 255 255 255 255 255 255 255 255 255 255 255 255 255 255 255 255 255 255 255 255 255 255 255 255 255 255 255 255 255 88 64 24 88 64 24 112 88 48 112 88 48 88 64 24 88 64 24 255 255 255 255 255 255 255 255 255 255 255 255 255 255 255 248 104 88 176 56 40 176 56 40 176 56 40 248 104 88 255 255 255 255 255 255 255 255 255 255 255 255 255 255 255 255 255 255 255 255 255 255 255 255 255 255 255 255 255 255 255 255 255 88 64 24 88 64 24 88 64 24 136 112 72 136 112 72 88 64 24 16 16 16 255 255 255 255 255 255 255 255 255 255 255 255 255 255 255 255 255 255 255 255 255 255 255 255 255 255 255 255 255 255 255 255 255 255 255 255 255 255 255 255 255 255 
255 255 255 255 255 255 255 255 255 255 255 255 255 255 255 255 255 255 255 255 255 255 255 255 255 255 255 255 255 255 255 255 255 255 255 255 255 255 255 255 255 255 255 255 255 255 255 255 88 64 24 88 64 24 88 64 24 248 192 160 248 192 160 248 192 160 88 64 24 255 255 255 255 255 255 255 255 255 176 56 40 248 192 160 248 192 160 248 192 160 248 192 160 248 152 128 176 56 40 255 255 255 255 255 255 255 255 255 255 255 255 255 255 255 255 255 255 255 255 255 255 255 255 88 64 24 88 64 24 136 112 72 136 112 72 136 112 72 88 64 24 88 64 24 88 64 24 16 16 16 255 255 255 255 255 255 255 255 255 255 255 255 255 255 255 255 255 255 255 255 255 255 255 255 255 255 255 255 255 255 255 255 255 255 255 255 255 255 255 255 255 255 
255 255 255 255 255 255 255 255 255 255 255 255 255 255 255 255 255 255 255 255 255 255 255 255 255 255 255 255 255 255 255 255 255 255 255 255 255 255 255 255 255 255 255 255 255 255 255 255 88 64 24 88 64 24 248 192 160 248 192 160 248 192 160 248 192 160 248 152 128 176 56 40 255 255 255 248 104 88 248 192 160 248 192 160 248 192 160 248 152 128 248 152 128 248 152 128 248 152 128 176 56 40 255 255 255 255 255 255 255 255 255 255 255 255 255 255 255 176 56 40 176 56 40 248 152 128 248 152 128 88 64 24 136 112 72 88 64 24 88 64 24 88 64 24 16 16 16 255 255 255 255 255 255 255 255 255 255 255 255 255 255 255 255 255 255 255 255 255 255 255 255 255 255 255 255 255 255 255 255 255 255 255 255 255 255 255 255 255 255 255 255 255 
255 255 255 255 255 255 255 255 255 255 255 255 255 255 255 255 255 255 255 255 255 255 255 255 255 255 255 255 255 255 255 255 255 255 255 255 255 255 255 255 255 255 255 255 255 255 255 255 255 255 255 176 56 40 248 192 160 248 192 160 248 192 160 248 192 160 248 152 128 248 152 128 176 56 40 176 56 40 248 192 160 248 192 160 248 152 128 248 152 128 248 152 128 248 152 128 248 152 128 16 16 16 248 104 88 255 255 255 255 255 255 176 56 40 248 104 88 248 192 160 248 192 160 248 192 160 248 192 160 248 192 160 88 64 24 88 64 24 88 64 24 16 16 16 255 255 255 255 255 255 255 255 255 255 255 255 255 255 255 255 255 255 255 255 255 255 255 255 255 255 255 255 255 255 255 255 255 255 255 255 255 255 255 255 255 255 255 255 255 255 255 255 
255 255 255 255 255 255 255 255 255 255 255 255 255 255 255 255 255 255 255 255 255 255 255 255 255 255 255 255 255 255 255 255 255 255 255 255 255 255 255 255 255 255 255 255 255 255 255 255 255 255 255 176 56 40 248 192 160 248 192 160 248 192 160 248 192 160 248 192 160 248 192 160 248 152 128 176 56 40 248 192 160 248 152 128 248 152 128 176 56 40 176 56 40 248 152 128 248 152 128 248 152 128 16 16 16 16 16 16 176 56 40 248 192 160 248 192 160 248 192 160 248 192 160 248 192 160 248 192 160 248 152 128 88 64 24 88 64 24 16 16 16 255 255 255 255 255 255 255 255 255 255 255 255 255 255 255 255 255 255 255 255 255 255 255 255 255 255 255 255 255 255 255 255 255 255 255 255 255 255 255 255 255 255 255 255 255 255 255 255 255 255 255 
255 255 255 255 255 255 255 255 255 255 255 255 255 255 255 255 255 255 255 255 255 255 255 255 255 255 255 255 255 255 255 255 255 255 255 255 255 255 255 255 255 255 255 255 255 255 255 255 255 255 255 248 104 88 248 192 160 248 192 160 248 192 160 248 192 160 248 192 160 248 192 160 248 152 128 176 56 40 248 192 160 248 152 128 176 56 40 248 152 128 248 152 128 176 56 40 248 152 128 248 152 128 248 152 128 248 192 160 248 192 160 248 192 160 248 192 160 248 192 160 248 192 160 248 152 128 248 152 128 248 152 128 88 64 24 16 16 16 255 255 255 255 255 255 255 255 255 255 255 255 255 255 255 255 255 255 255 255 255 255 255 255 255 255 255 255 255 255 255 255 255 255 255 255 255 255 255 255 255 255 255 255 255 255 255 255 255 255 255 255 255 255 
255 255 255 255 255 255 255 255 255 255 255 255 255 255 255 255 255 255 255 255 255 255 255 255 255 255 255 255 255 255 255 255 255 255 255 255 255 255 255 255 255 255 255 255 255 255 255 255 255 255 255 255 255 255 176 56 40 248 192 160 248 192 160 248 192 160 248 192 160 248 192 160 248 192 160 176 56 40 248 192 160 248 192 160 248 152 128 248 152 128 248 192 160 176 56 40 248 152 128 248 152 128 248 192 160 248 192 160 248 192 160 248 192 160 248 192 160 248 192 160 248 152 128 248 152 128 248 152 128 248 152 128 88 64 24 255 255 255 255 255 255 255 255 255 255 255 255 255 255 255 255 255 255 255 255 255 255 255 255 255 255 255 255 255 255 255 255 255 255 255 255 255 255 255 255 255 255 255 255 255 255 255 255 255 255 255 255 255 255 255 255 255 
255 255 255 255 255 255 255 255 255 255 255 255 255 255 255 255 255 255 255 255 255 255 255 255 255 255 255 255 255 255 255 255 255 255 255 255 255 255 255 255 255 255 255 255 255 255 255 255 255 255 255 255 255 255 176 56 40 248 192 160 248 192 160 248 192 160 248 192 160 248 192 160 248 192 160 248 152 128 176 56 40 248 192 160 248 192 160 248 192 160 248 192 160 176 56 40 248 152 128 248 152 128 248 192 160 248 192 160 248 192 160 248 192 160 248 192 160 248 152 128 248 152 128 248 152 128 248 152 128 248 152 128 248 104 88 255 255 255 255 255 255 255 255 255 255 255 255 255 255 255 255 255 255 255 255 255 255 255 255 255 255 255 255 255 255 255 255 255 255 255 255 255 255 255 255 255 255 255 255 255 255 255 255 255 255 255 255 255 255 255 255 255 
255 255 255 255 255 255 255 255 255 255 255 255 255 255 255 255 255 255 255 255 255 255 255 255 255 255 255 255 255 255 255 255 255 255 255 255 255 255 255 255 255 255 255 255 255 255 255 255 255 255 255 255 255 255 248 104 88 248 192 160 248 192 160 248 104 88 248 192 160 248 192 160 248 192 160 248 192 160 248 152 128 176 56 40 176 56 40 176 56 40 176 56 40 248 152 128 248 192 160 248 192 160 248 192 160 248 192 160 248 192 160 248 192 160 248 152 128 248 152 128 248 152 128 248 152 128 248 152 128 16 16 16 255 255 255 255 255 255 255 255 255 255 255 255 255 255 255 255 255 255 255 255 255 255 255 255 255 255 255 255 255 255 255 255 255 255 255 255 255 255 255 255 255 255 255 255 255 255 255 255 255 255 255 255 255 255 255 255 255 255 255 255 
255 255 255 255 255 255 255 255 255 255 255 255 255 255 255 255 255 255 255 255 255 255 255 255 255 255 255 255 255 255 248 104 88 248 104 88 255 255 255 255 255 255 255 255 255 255 255 255 255 255 255 255 255 255 255 255 255 248 104 88 248 104 88 248 192 160 248 192 160 248 192 160 248 192 160 248 192 160 248 192 160 248 152 128 248 152 128 248 152 128 248 152 128 248 152 128 248 192 160 248 192 160 248 192 160 248 192 160 248 192 160 248 152 128 248 152 128 248 152 128 248 152 128 248 152 128 16 16 16 255 255 255 255 255 255 255 255 255 255 255 255 255 255 255 255 255 255 255 255 255 255 255 255 255 255 255 255 255 255 255 255 255 255 255 255 255 255 255 255 255 255 255 255 255 255 255 255 255 255 255 255 255 255 255 255 255 255 255 255 255 255 255 
255 255 255 255 255 255 255 255 255 255 255 255 255 255 255 255 255 255 255 255 255 255 255 255 255 255 255 255 255 255 248 104 88 248 192 160 248 104 88 176 56 40 255 255 255 255 255 255 255 255 255 255 255 255 255 255 255 248 104 88 176 56 40 248 192 160 248 192 160 248 192 160 248 192 160 248 192 160 248 192 160 248 192 160 248 192 160 248 192 160 248 192 160 248 192 160 248 192 160 248 192 160 248 192 160 248 192 160 248 192 160 248 152 128 248 152 128 248 152 128 248 152 128 176 56 40 255 255 255 176 56 40 176 56 40 255 255 255 176 56 40 176 56 40 255 255 255 255 255 255 255 255 255 255 255 255 255 255 255 255 255 255 255 255 255 255 255 255 255 255 255 255 255 255 255 255 255 255 255 255 255 255 255 255 255 255 255 255 255 255 255 255 
255 255 255 255 255 255 255 255 255 255 255 255 255 255 255 255 255 255 255 255 255 255 255 255 255 255 255 255 255 255 176 56 40 248 192 160 248 192 160 248 192 160 248 104 88 176 56 40 255 255 255 255 255 255 255 255 255 176 56 40 248 192 160 248 192 160 248 192 160 248 152 128 248 192 160 248 248 248 248 192 160 248 192 160 248 192 160 248 192 160 248 248 248 248 192 160 248 152 128 248 192 160 248 192 160 248 192 160 248 192 160 248 152 128 248 152 128 248 152 128 176 56 40 16 16 16 255 255 255 176 56 40 248 192 160 176 56 40 248 152 128 176 56 40 255 255 255 255 255 255 255 255 255 255 255 255 255 255 255 255 255 255 255 255 255 255 255 255 255 255 255 255 255 255 255 255 255 255 255 255 255 255 255 255 255 255 255 255 255 255 255 255 
255 255 255 255 255 255 255 255 255 255 255 255 255 255 255 255 255 255 255 255 255 255 255 255 255 255 255 255 255 255 255 255 255 176 56 40 248 152 128 248 152 128 248 192 160 248 192 160 176 56 40 176 56 40 255 255 255 176 56 40 248 192 160 248 192 160 248 192 160 176 56 40 248 192 160 16 16 16 248 192 160 248 192 160 248 192 160 248 192 160 16 16 16 248 192 160 176 56 40 248 192 160 248 192 160 248 192 160 248 192 160 248 152 128 248 152 128 248 152 128 248 104 88 16 16 16 176 56 40 248 192 160 248 192 160 176 56 40 248 152 128 176 56 40 16 16 16 255 255 255 255 255 255 255 255 255 255 255 255 255 255 255 255 255 255 255 255 255 255 255 255 255 255 255 255 255 255 255 255 255 255 255 255 255 255 255 255 255 255 255 255 255 
255 255 255 255 255 255 255 255 255 255 255 255 255 255 255 255 255 255 255 255 255 255 255 255 255 255 255 255 255 255 255 255 255 255 255 255 176 56 40 248 152 128 248 152 128 248 152 128 248 192 160 248 152 128 176 56 40 248 192 160 248 192 160 248 192 160 248 192 160 176 56 40 248 192 160 16 16 16 248 192 160 248 192 160 248 192 160 248 192 160 16 16 16 248 192 160 176 56 40 248 192 160 248 192 160 248 192 160 248 192 160 248 192 160 248 152 128 248 152 128 248 104 88 176 56 40 248 192 160 248 192 160 248 192 160 176 56 40 248 152 128 248 152 128 16 16 16 255 255 255 255 255 255 255 255 255 255 255 255 255 255 255 255 255 255 255 255 255 255 255 255 255 255 255 255 255 255 255 255 255 255 255 255 255 255 255 255 255 255 255 255 255 
255 255 255 255 255 255 255 255 255 255 255 255 255 255 255 255 255 255 255 255 255 255 255 255 255 255 255 255 255 255 255 255 255 255 255 255 255 255 255 176 56 40 248 152 128 248 152 128 248 152 128 248 152 128 176 56 40 248 192 160 248 192 160 248 192 160 248 192 160 248 152 128 248 152 128 248 192 160 248 192 160 248 192 160 248 192 160 248 192 160 248 192 160 248 152 128 248 152 128 248 192 160 248 192 160 248 192 160 248 192 160 248 192 160 248 192 160 248 192 160 248 104 88 248 192 160 248 192 160 248 192 160 248 192 160 248 152 128 248 152 128 248 152 128 176 56 40 176 56 40 176 56 40 176 56 40 176 56 40 176 56 40 16 16 16 255 255 255 255 255 255 255 255 255 255 255 255 255 255 255 255 255 255 255 255 255 255 255 255 255 255 255 
255 255 255 255 255 255 255 255 255 255 255 255 255 255 255 255 255 255 255 255 255 255 255 255 255 255 255 255 255 255 255 255 255 255 255 255 255 255 255 255 255 255 176 56 40 248 152 128 248 152 128 248 152 128 176 56 40 248 192 160 248 192 160 248 192 160 248 192 160 248 192 160 248 192 160 248 104 88 176 56 40 176 56 40 176 56 40 176 56 40 248 192 160 248 192 160 248 192 160 248 192 160 248 192 160 248 192 160 248 192 160 248 192 160 248 192 160 248 192 160 248 192 160 248 192 160 248 192 160 248 192 160 248 192 160 248 152 128 248 152 128 176 56 40 248 152 128 248 152 128 248 152 128 248 152 128 248 152 128 248 152 128 16 16 16 255 255 255 255 255 255 255 255 255 255 255 255 255 255 255 255 255 255 255 255 255 255 255 255 255 255 255 
255 255 255 255 255 255 255 255 255 255 255 255 255 255 255 255 255 255 255 255 255 255 255 255 255 255 255 255 255 255 255 255 255 255 255 255 255 255 255 255 255 255 255 255 255 176 56 40 248 152 128 176 56 40 248 104 88 248 192 160 248 192 160 248 192 160 248 192 160 248 192 160 248 192 160 248 192 160 176 56 40 216 32 16 248 104 40 176 56 40 248 192 160 248 192 160 248 192 160 248 192 160 248 192 160 248 192 160 248 192 160 248 192 160 248 192 160 248 192 160 248 192 160 248 192 160 248 192 160 248 192 160 248 152 128 248 152 128 248 152 128 16 16 16 248 104 88 248 104 88 248 104 88 248 104 88 176 56 40 16 16 16 255 255 255 255 255 255 255 255 255 255 255 255 255 255 255 255 255 255 255 255 255 255 255 255 255 255 255 255 255 255 
255 255 255 255 255 255 255 255 255 255 255 255 255 255 255 255 255 255 255 255 255 255 255 255 255 255 255 255 255 255 255 255 255 255 255 255 255 255 255 255 255 255 176 56 40 176 56 40 248 152 128 176 56 40 248 104 88 248 192 160 248 192 160 248 192 160 248 192 160 248 192 160 248 192 160 248 192 160 176 56 40 216 32 16 248 104 40 176 56 40 248 192 160 248 192 160 248 192 160 248 192 160 248 192 160 248 192 160 248 192 160 248 192 160 248 192 160 248 192 160 248 192 160 248 192 160 248 192 160 248 152 128 248 152 128 248 152 128 16 16 16 248 104 88 248 104 88 248 104 88 176 56 40 16 16 16 255 255 255 255 255 255 255 255 255 255 255 255 255 255 255 255 255 255 255 255 255 255 255 255 255 255 255 255 255 255 255 255 255 255 255 255 
255 255 255 255 255 255 255 255 255 255 255 255 255 255 255 255 255 255 255 255 255 255 255 255 255 255 255 255 255 255 255 255 255 255 255 255 176 56 40 248 104 88 248 192 160 248 152 128 176 56 40 248 192 160 248 192 160 248 192 160 248 192 160 248 192 160 248 192 160 248 192 160 248 192 160 248 192 160 248 192 160 176 56 40 176 56 40 248 192 160 248 192 160 248 192 160 248 192 160 248 192 160 248 192 160 248 192 160 248 192 160 248 192 160 248 192 160 248 192 160 248 192 160 248 152 128 248 152 128 248 152 128 248 152 128 16 16 16 248 104 88 248 104 88 176 56 40 16 16 16 255 255 255 255 255 255 255 255 255 255 255 255 255 255 255 255 255 255 255 255 255 255 255 255 255 255 255 255 255 255 255 255 255 255 255 255 255 255 255 255 255 255 
255 255 255 255 255 255 255 255 255 255 255 255 255 255 255 255 255 255 255 255 255 255 255 255 255 255 255 255 255 255 255 255 255 248 104 88 248 192 160 248 192 160 248 152 128 248 152 128 176 56 40 248 192 160 248 192 160 248 192 160 248 192 160 248 192 160 248 192 160 248 192 160 248 192 160 248 192 160 248 192 160 248 192 160 248 192 160 248 192 160 248 192 160 248 192 160 248 192 160 248 192 160 248 192 160 248 192 160 248 192 160 248 192 160 248 192 160 248 192 160 248 152 128 248 152 128 248 152 128 248 152 128 16 16 16 248 104 88 248 104 88 176 56 40 255 255 255 255 255 255 255 255 255 255 255 255 255 255 255 255 255 255 255 255 255 255 255 255 255 255 255 255 255 255 255 255 255 255 255 255 255 255 255 255 255 255 255 255 255 255 255 255 
255 255 255 255 255 255 255 255 255 255 255 255 255 255 255 255 255 255 255 255 255 255 255 255 255 255 255 255 255 255 255 255 255 248 104 88 176 56 40 16 16 16 16 16 16 176 56 40 248 192 160 248 192 160 248 152 128 248 192 160 248 192 160 248 192 160 248 192 160 248 192 160 248 192 160 248 192 160 248 192 160 248 192 160 248 192 160 248 192 160 248 192 160 248 192 160 248 192 160 248 192 160 248 192 160 248 192 160 248 192 160 248 192 160 248 192 160 248 152 128 248 152 128 248 152 128 248 152 128 16 16 16 248 104 88 248 104 88 248 152 128 248 152 128 176 56 40 16 16 16 255 255 255 255 255 255 255 255 255 255 255 255 255 255 255 255 255 255 255 255 255 255 255 255 255 255 255 255 255 255 255 255 255 255 255 255 255 255 255 255 255 255 
255 255 255 255 255 255 255 255 255 255 255 255 255 255 255 255 255 255 255 255 255 255 255 255 255 255 255 255 255 255 255 255 255 255 255 255 255 255 255 255 255 255 255 255 255 176 56 40 248 192 160 248 192 160 248 104 88 248 192 160 248 192 160 248 192 160 248 192 160 248 192 160 248 192 160 248 192 160 248 192 160 248 192 160 248 192 160 248 192 160 248 192 160 248 192 160 248 192 160 248 192 160 248 192 160 248 192 160 248 192 160 248 192 160 248 192 160 248 152 128 248 152 128 248 152 128 16 16 16 248 104 88 248 104 88 248 104 88 248 104 88 248 104 88 248 152 128 248 152 128 176 56 40 16 16 16 255 255 255 255 255 255 255 255 255 255 255 255 255 255 255 255 255 255 255 255 255 255 255 255 255 255 255 255 255 255 255 255 255 255 255 255 
255 255 255 255 255 255 255 255 255 255 255 255 255 255 255 255 255 255 255 255 255 255 255 255 255 255 255 255 255 255 255 255 255 255 255 255 255 255 255 176 56 40 176 56 40 248 192 160 248 192 160 248 152 128 248 104 88 248 192 160 248 192 160 248 192 160 248 192 160 248 192 160 248 192 160 248 192 160 248 192 160 248 192 160 248 192 160 248 192 160 248 192 160 248 192 160 248 192 160 248 192 160 248 192 160 248 192 160 248 192 160 248 192 160 248 152 128 248 152 128 248 152 128 176 56 40 16 16 16 248 104 88 248 152 128 16 16 16 16 16 16 16 16 16 248 104 88 248 104 88 248 104 88 248 104 88 16 16 16 255 255 255 255 255 255 255 255 255 255 255 255 255 255 255 255 255 255 255 255 255 255 255 255 255 255 255 255 255 255 255 255 255 
255 255 255 255 255 255 255 255 255 255 255 255 255 255 255 255 255 255 255 255 255 255 255 255 255 255 255 255 255 255 255 255 255 255 255 255 255 255 255 176 56 40 248 192 160 248 192 160 248 152 128 248 152 128 176 56 40 248 192 160 248 192 160 248 192 160 248 192 160 248 192 160 248 192 160 248 192 160 248 192 160 248 192 160 248 192 160 248 192 160 248 192 160 248 192 160 248 192 160 248 192 160 248 192 160 248 192 160 248 192 160 248 192 160 248 152 128 248 152 128 248 152 128 176 56 40 176 56 40 248 104 88 248 152 128 16 16 16 248 152 128 248 152 128 176 56 40 16 16 16 16 16 16 16 16 16 16 16 16 255 255 255 255 255 255 255 255 255 255 255 255 255 255 255 255 255 255 255 255 255 255 255 255 255 255 255 255 255 255 255 255 255 
255 255 255 255 255 255 255 255 255 255 255 255 255 255 255 255 255 255 255 255 255 255 255 255 255 255 255 255 255 255 255 255 255 255 255 255 255 255 255 176 56 40 176 56 40 176 56 40 248 152 128 248 152 128 176 56 40 248 192 160 248 192 160 248 192 160 248 192 160 248 192 160 248 192 160 248 192 160 248 192 160 248 192 160 248 192 160 248 192 160 248 192 160 248 192 160 248 192 160 248 192 160 248 192 160 248 192 160 248 192 160 248 152 128 248 152 128 248 152 128 248 152 128 248 152 128 176 56 40 248 104 88 248 104 88 248 152 128 16 16 16 248 152 128 248 152 128 248 152 128 16 16 16 255 255 255 255 255 255 255 255 255 255 255 255 255 255 255 255 255 255 255 255 255 255 255 255 255 255 255 255 255 255 255 255 255 255 255 255 255 255 255 
255 255 255 255 255 255 255 255 255 255 255 255 255 255 255 255 255 255 255 255 255 255 255 255 255 255 255 255 255 255 255 255 255 255 255 255 176 56 40 248 192 160 248 192 160 248 152 128 248 152 128 248 152 128 16 16 16 248 192 160 248 192 160 248 192 160 248 192 160 248 192 160 248 192 160 248 192 160 248 192 160 248 192 160 248 192 160 248 192 160 248 192 160 248 192 160 248 192 160 248 192 160 248 192 160 248 192 160 248 192 160 248 152 128 248 152 128 248 152 128 248 152 128 248 152 128 16 16 16 248 104 88 248 104 88 248 152 128 176 56 40 248 152 128 248 152 128 248 152 128 248 192 160 16 16 16 255 255 255 255 255 255 255 255 255 255 255 255 255 255 255 255 255 255 255 255 255 255 255 255 255 255 255 255 255 255 255 255 255 255 255 255 
255 255 255 255 255 255 255 255 255 255 255 255 255 255 255 255 255 255 255 255 255 255 255 255 255 255 255 255 255 255 255 255 255 255 255 255 176 56 40 176 56 40 176 56 40 248 192 160 248 152 128 16 16 16 16 16 16 248 192 160 248 192 160 248 192 160 248 192 160 248 192 160 248 192 160 248 192 160 248 192 160 248 192 160 248 192 160 248 192 160 248 192 160 248 192 160 248 192 160 248 192 160 248 192 160 248 192 160 248 152 128 248 152 128 248 152 128 248 152 128 248 152 128 248 152 128 16 16 16 176 56 40 16 16 16 248 104 88 248 152 128 16 16 16 248 152 128 248 152 128 248 192 160 176 56 40 255 255 255 255 255 255 255 255 255 255 255 255 255 255 255 255 255 255 255 255 255 255 255 255 255 255 255 255 255 255 255 255 255 255 255 255 
255 255 255 255 255 255 255 255 255 255 255 255 255 255 255 255 255 255 255 255 255 255 255 255 255 255 255 255 255 255 255 255 255 255 255 255 255 255 255 255 255 255 16 16 16 248 192 160 16 16 16 255 255 255 16 16 16 248 192 160 248 192 160 248 192 160 248 192 160 248 192 160 248 192 160 248 192 160 248 192 160 248 192 160 248 192 160 248 192 160 248 192 160 248 192 160 248 192 160 248 192 160 248 192 160 248 192 160 248 152 128 248 152 128 248 152 128 248 152 128 248 152 128 248 152 128 16 16 16 248 152 128 248 152 128 16 16 16 16 16 16 16 16 16 248 152 128 248 152 128 248 192 160 248 192 160 176 56 40 255 255 255 255 255 255 255 255 255 255 255 255 255 255 255 255 255 255 255 255 255 255 255 255 255 255 255 255 255 255 255 255 255 
255 255 255 255 255 255 255 255 255 255 255 255 255 255 255 255 255 255 255 255 255 255 255 255 255 255 255 255 255 255 255 255 255 255 255 255 255 255 255 255 255 255 176 56 40 176 56 40 255 255 255 255 255 255 16 16 16 248 192 160 248 192 160 248 192 160 248 192 160 248 192 160 248 192 160 248 192 160 248 192 160 248 192 160 248 192 160 248 192 160 248 192 160 248 192 160 248 192 160 248 192 160 248 192 160 248 152 128 248 152 128 248 152 128 248 152 128 248 152 128 248 152 128 248 152 128 16 16 16 248 152 128 248 152 128 248 152 128 248 152 128 248 104 88 176 56 40 248 152 128 248 152 128 248 192 160 16 16 16 255 255 255 255 255 255 255 255 255 255 255 255 255 255 255 255 255 255 255 255 255 255 255 255 255 255 255 255 255 255 255 255 255 
255 255 255 255 255 255 255 255 255 255 255 255 255 255 255 255 255 255 255 255 255 255 255 255 255 255 255 255 255 255 255 255 255 255 255 255 255 255 255 255 255 255 255 255 255 255 255 255 255 255 255 255 255 255 176 56 40 248 152 128 248 192 160 248 192 160 248 192 160 248 192 160 248 192 160 248 192 160 248 192 160 248 192 160 248 192 160 248 192 160 248 192 160 248 192 160 248 192 160 248 192 160 248 152 128 248 152 128 248 152 128 248 152 128 248 152 128 248 152 128 248 152 128 248 152 128 176 56 40 248 152 128 248 152 128 248 152 128 248 104 88 248 104 88 176 56 40 248 152 128 248 152 128 248 192 160 16 16 16 255 255 255 255 255 255 255 255 255 255 255 255 255 255 255 255 255 255 255 255 255 255 255 255 255 255 255 255 255 255 255 255 255 
255 255 255 255 255 255 255 255 255 255 255 255 255 255 255 255 255 255 255 255 255 255 255 255 255 255 255 255 255 255 255 255 255 255 255 255 255 255 255 255 255 255 255 255 255 255 255 255 255 255 255 255 255 255 255 255 255 176 56 40 248 192 160 248 192 160 248 192 160 248 192 160 248 192 160 248 192 160 248 192 160 248 192 160 248 192 160 248 192 160 248 192 160 248 192 160 248 152 128 248 152 128 248 152 128 248 152 128 248 152 128 248 152 128 248 152 128 248 152 128 248 152 128 248 152 128 248 152 128 176 56 40 248 152 128 248 152 128 248 104 88 248 104 88 16 16 16 248 152 128 248 152 128 248 192 160 16 16 16 255 255 255 255 255 255 255 255 255 255 255 255 255 255 255 255 255 255 255 255 255 255 255 255 255 255 255 255 255 255 255 255 255 
255 255 255 255 255 255 255 255 255 255 255 255 255 255 255 255 255 255 255 255 255 255 255 255 255 255 255 255 255 255 255 255 255 255 255 255 255 255 255 255 255 255 255 255 255 255 255 255 255 255 255 255 255 255 255 255 255 16 16 16 248 192 160 248 192 160 248 192 160 248 192 160 248 192 160 248 192 160 248 192 160 248 192 160 248 192 160 248 192 160 248 152 128 248 152 128 248 152 128 248 152 128 248 152 128 248 152 128 248 152 128 248 152 128 248 152 128 248 152 128 248 152 128 248 152 128 248 152 128 176 56 40 248 152 128 248 104 88 248 104 88 176 56 40 248 152 128 248 152 128 248 152 128 248 192 160 16 16 16 255 255 255 255 255 255 255 255 255 255 255 255 255 255 255 255 255 255 255 255 255 255 255 255 255 255 255 255 255 255 255 255 255 
255 255 255 255 255 255 255 255 255 255 255 255 255 255 255 255 255 255 255 255 255 255 255 255 255 255 255 255 255 255 255 255 255 255 255 255 255 255 255 255 255 255 255 255 255 255 255 255 255 255 255 255 255 255 255 255 255 16 16 16 248 192 160 248 192 160 248 152 128 248 152 128 248 152 128 248 152 128 248 152 128 248 152 128 248 152 128 248 152 128 248 152 128 248 152 128 248 152 128 248 152 128 248 192 160 248 192 160 248 152 128 248 152 128 248 152 128 248 152 128 248 152 128 248 152 128 248 152 128 16 16 16 248 104 88 248 104 88 248 104 88 16 16 16 248 152 128 248 152 128 248 192 160 248 192 160 176 56 40 255 255 255 255 255 255 255 255 255 255 255 255 255 255 255 255 255 255 255 255 255 255 255 255 255 255 255 255 255 255 255 255 255 
255 255 255 255 255 255 255 255 255 255 255 255 255 255 255 255 255 255 255 255 255 255 255 255 255 255 255 255 255 255 255 255 255 255 255 255 255 255 255 255 255 255 255 255 255 255 255 255 255 255 255 255 255 255 255 255 255 176 56 40 248 152 128 248 192 160 248 192 160 248 152 128 248 104 88 248 152 128 248 152 128 248 152 128 248 152 128 248 152 128 248 152 128 248 152 128 248 152 128 248 192 160 248 192 160 248 192 160 248 192 160 248 152 128 248 152 128 248 152 128 248 152 128 248 152 128 248 152 128 16 16 16 248 104 88 248 104 88 16 16 16 248 152 128 248 152 128 248 152 128 248 192 160 176 56 40 255 255 255 255 255 255 255 255 255 255 255 255 255 255 255 255 255 255 255 255 255 255 255 255 255 255 255 255 255 255 255 255 255 255 255 255 
255 255 255 255 255 255 255 255 255 255 255 255 255 255 255 255 255 255 255 255 255 255 255 255 255 255 255 255 255 255 255 255 255 255 255 255 255 255 255 255 255 255 255 255 255 255 255 255 255 255 255 255 255 255 255 255 255 255 255 255 176 56 40 248 192 160 248 192 160 248 152 128 248 152 128 176 56 40 248 104 88 248 152 128 248 152 128 248 152 128 248 152 128 248 152 128 248 152 128 248 192 160 248 192 160 248 192 160 248 192 160 248 192 160 248 152 128 248 152 128 176 56 40 176 56 40 176 56 40 16 16 16 16 16 16 16 16 16 248 152 128 248 152 128 248 152 128 248 192 160 248 192 160 16 16 16 255 255 255 255 255 255 255 255 255 255 255 255 255 255 255 255 255 255 255 255 255 255 255 255 255 255 255 255 255 255 255 255 255 255 255 255 
255 255 255 255 255 255 255 255 255 255 255 255 255 255 255 255 255 255 255 255 255 255 255 255 255 255 255 255 255 255 255 255 255 255 255 255 255 255 255 255 255 255 255 255 255 255 255 255 255 255 255 255 255 255 255 255 255 255 255 255 16 16 16 248 192 160 248 192 160 248 152 128 248 152 128 248 152 128 248 152 128 176 56 40 16 16 16 16 16 16 16 16 16 16 16 16 176 56 40 248 152 128 248 152 128 248 192 160 248 192 160 248 152 128 176 56 40 176 56 40 248 248 248 176 56 40 248 248 248 192 192 192 16 16 16 248 152 128 248 152 128 248 152 128 248 192 160 248 192 160 16 16 16 255 255 255 255 255 255 255 255 255 255 255 255 255 255 255 255 255 255 255 255 255 255 255 255 255 255 255 255 255 255 255 255 255 255 255 255 255 255 255 
255 255 255 255 255 255 255 255 255 255 255 255 255 255 255 255 255 255 255 255 255 255 255 255 255 255 255 255 255 255 255 255 255 255 255 255 255 255 255 255 255 255 255 255 255 255 255 255 255 255 255 255 255 255 255 255 255 255 255 255 176 56 40 248 152 128 248 192 160 248 192 160 248 152 128 248 152 128 248 152 128 248 104 88 248 104 88 16 16 16 248 104 88 248 104 88 248 104 88 176 56 40 176 56 40 248 152 128 248 192 160 248 152 128 248 152 128 176 56 40 176 56 40 176 56 40 176 56 40 176 56 40 16 16 16 248 152 128 248 152 128 248 152 128 248 192 160 16 16 16 255 255 255 255 255 255 255 255 255 255 255 255 255 255 255 255 255 255 255 255 255 255 255 255 255 255 255 255 255 255 255 255 255 255 255 255 255 255 255 255 255 255 
255 255 255 255 255 255 255 255 255 255 255 255 255 255 255 255 255 255 255 255 255 255 255 255 255 255 255 255 255 255 255 255 255 255 255 255 255 255 255 255 255 255 255 255 255 255 255 255 255 255 255 255 255 255 255 255 255 255 255 255 255 255 255 176 56 40 248 192 160 248 192 160 248 152 128 248 152 128 248 152 128 248 152 128 248 104 88 176 56 40 16 16 16 16 16 16 248 104 88 248 104 88 248 104 88 176 56 40 248 152 128 248 152 128 248 152 128 248 152 128 248 104 88 248 104 88 248 104 88 248 104 88 16 16 16 248 104 88 248 104 88 248 152 128 16 16 16 255 255 255 255 255 255 255 255 255 255 255 255 255 255 255 255 255 255 255 255 255 255 255 255 255 255 255 255 255 255 255 255 255 255 255 255 255 255 255 255 255 255 255 255 255 
255 255 255 255 255 255 255 255 255 255 255 255 255 255 255 255 255 255 255 255 255 255 255 255 255 255 255 255 255 255 255 255 255 255 255 255 255 255 255 255 255 255 255 255 255 255 255 255 255 255 255 255 255 255 255 255 255 255 255 255 255 255 255 16 16 16 248 152 128 248 152 128 248 152 128 248 152 128 248 152 128 248 152 128 16 16 16 255 255 255 255 255 255 255 255 255 176 56 40 16 16 16 16 16 16 16 16 16 176 56 40 248 152 128 248 152 128 248 104 88 248 104 40 216 32 16 248 104 88 16 16 16 248 104 88 248 104 88 176 56 40 16 16 16 255 255 255 255 255 255 255 255 255 255 255 255 255 255 255 255 255 255 255 255 255 255 255 255 255 255 255 255 255 255 255 255 255 255 255 255 255 255 255 255 255 255 255 255 255 255 255 255 
255 255 255 255 255 255 255 255 255 255 255 255 255 255 255 255 255 255 255 255 255 255 255 255 255 255 255 255 255 255 255 255 255 255 255 255 255 255 255 255 255 255 255 255 255 255 255 255 255 255 255 255 255 255 255 255 255 255 255 255 255 255 255 255 255 255 153 153 153 176 56 40 176 56 40 176 56 40 248 152 128 248 152 128 16 16 16 255 255 255 255 255 255 255 255 255 255 255 255 255 255 255 255 255 255 255 255 255 176 56 40 248 152 128 248 104 88 248 104 40 216 32 16 216 32 16 16 16 16 16 16 16 16 16 16 176 56 40 255 255 255 255 255 255 255 255 255 255 255 255 255 255 255 255 255 255 255 255 255 255 255 255 255 255 255 255 255 255 255 255 255 255 255 255 255 255 255 255 255 255 255 255 255 255 255 255 255 255 255 255 255 255 
255 255 255 255 255 255 255 255 255 255 255 255 255 255 255 255 255 255 255 255 255 255 255 255 255 255 255 255 255 255 255 255 255 255 255 255 255 255 255 255 255 255 255 255 255 255 255 255 255 255 255 255 255 255 255 255 255 255 255 255 255 255 255 153 153 153 248 248 248 153 153 153 248 248 248 192 192 192 176 56 40 16 16 16 255 255 255 255 255 255 255 255 255 255 255 255 255 255 255 255 255 255 255 255 255 255 255 255 255 255 255 176 56 40 16 16 16 16 16 16 16 16 16 16 16 16 255 255 255 255 255 255 255 255 255 255 255 255 255 255 255 255 255 255 255 255 255 255 255 255 255 255 255 255 255 255 255 255 255 255 255 255 255 255 255 255 255 255 255 255 255 255 255 255 255 255 255 255 255 255 255 255 255 255 255 255 255 255 255 255 255 255 
255 255 255 255 255 255 255 255 255 255 255 255 255 255 255 255 255 255 255 255 255 255 255 255 255 255 255 255 255 255 255 255 255 255 255 255 255 255 255 255 255 255 255 255 255 255 255 255 255 255 255 255 255 255 255 255 255 255 255 255 255 255 255 16 16 16 16 16 16 16 16 16 16 16 16 16 16 16 16 16 16 255 255 255 255 255 255 255 255 255 255 255 255 255 255 255 255 255 255 255 255 255 255 255 255 255 255 255 255 255 255 255 255 255 255 255 255 255 255 255 255 255 255 255 255 255 255 255 255 255 255 255 255 255 255 255 255 255 255 255 255 255 255 255 255 255 255 255 255 255 255 255 255 255 255 255 255 255 255 255 255 255 255 255 255 255 255 255 255 255 255 255 255 255 255 255 255 255 255 255 255 255 255 255 255 255 255 255 255 255 255 255 
255 255 255 255 255 255 255 255 255 255 255 255 255 255 255 255 255 255 255 255 255 255 255 255 255 255 255 255 255 255 255 255 255 255 255 255 255 255 255 255 255 255 255 255 255 255 255 255 255 255 255 255 255 255 255 255 255 255 255 255 255 255 255 255 255 255 255 255 255 255 255 255 255 255 255 255 255 255 255 255 255 255 255 255 255 255 255 255 255 255 255 255 255 255 255 255 255 255 255 255 255 255 255 255 255 255 255 255 255 255 255 255 255 255 255 255 255 255 255 255 255 255 255 255 255 255 255 255 255 255 255 255 255 255 255 255 255 255 255 255 255 255 255 255 255 255 255 255 255 255 255 255 255 255 255 255 255 255 255 255 255 255 255 255 255 255 255 255 255 255 255 255 255 255 255 255 255 255 255 255 255 255 255 255 255 255 255 255 255 255 255 255 
255 255 255 255 255 255 255 255 255 255 255 255 255 255 255 255 255 255 255 255 255 255 255 255 255 255 255 255 255 255 255 255 255 255 255 255 255 255 255 255 255 255 255 255 255 255 255 255 255 255 255 255 255 255 255 255 255 255 255 255 255 255 255 255 255 255 255 255 255 255 255 255 255 255 255 255 255 255 255 255 255 255 255 255 255 255 255 255 255 255 255 255 255 255 255 255 255 255 255 255 255 255 255 255 255 255 255 255 255 255 255 255 255 255 255 255 255 255 255 255 255 255 255 255 255 255 255 255 255 255 255 255 255 255 255 255 255 255 255 255 255 255 255 255 255 255 255 255 255 255 255 255 255 255 255 255 255 255 255 255 255 255 255 255 255 255 255 255 255 255 255 255 255 255 255 255 255 255 255 255 255 255 255 255 255 255 255 255 255 255 255 255 
255 255 255 255 255 255 255 255 255 255 255 255 255 255 255 255 255 255 255 255 255 255 255 255 255 255 255 255 255 255 255 255 255 255 255 255 255 255 255 255 255 255 255 255 255 255 255 255 255 255 255 255 255 255 255 255 255 255 255 255 255 255 255 255 255 255 255 255 255 255 255 255 255 255 255 255 255 255 255 255 255 255 255 255 255 255 255 255 255 255 255 255 255 255 255 255 255 255 255 255 255 255 255 255 255 255 255 255 255 255 255 255 255 255 255 255 255 255 255 255 255 255 255 255 255 255 255 255 255 255 255 255 255 255 255 255 255 255 255 255 255 255 255 255 255 255 255 255 255 255 255 255 255 255 255 255 255 255 255 255 255 255 255 255 255 255 255 255 255 255 255 255 255 255 255 255 255 255 255 255 255 255 255 255 255 255 255 255 255 255 255 255 
255 255 255 255 255 255 255 255 255 255 255 255 255 255 255 255 255 255 255 255 255 255 255 255 255 255 255 255 255 255 255 255 255 255 255 255 255 255 255 255 255 255 255 255 255 255 255 255 255 255 255 255 255 255 255 255 255 255 255 255 255 255 255 255 255 255 255 255 255 255 255 255 255 255 255 255 255 255 255 255 255 255 255 255 255 255 255 255 255 255 255 255 255 255 255 255 255 255 255 255 255 255 255 255 255 255 255 255 255 255 255 255 255 255 255 255 255 255 255 255 255 255 255 255 255 255 255 255 255 255 255 255 255 255 255 255 255 255 255 255 255 255 255 255 255 255 255 255 255 255 255 255 255 255 255 255 255 255 255 255 255 255 255 255 255 255 255 255 255 255 255 255 255 255 255 255 255 255 255 255 255 255 255 255 255 255 255 255 255 255 255 255 
255 255 255 255 255 255 255 255 255 255 255 255 255 255 255 255 255 255 255 255 255 255 255 255 255 255 255 255 255 255 255 255 255 255 255 255 255 255 255 255 255 255 255 255 255 255 255 255 255 255 255 255 255 255 255 255 255 255 255 255 255 255 255 255 255 255 255 255 255 255 255 255 255 255 255 255 255 255 255 255 255 255 255 255 255 255 255 255 255 255 255 255 255 255 255 255 255 255 255 255 255 255 255 255 255 255 255 255 255 255 255 255 255 255 255 255 255 255 255 255 255 255 255 255 255 255 255 255 255 255 255 255 255 255 255 255 255 255 255 255 255 255 255 255 255 255 255 255 255 255 255 255 255 255 255 255 255 255 255 255 255 255 255 255 255 255 255 255 255 255 255 255 255 255 255 255 255 255 255 255 255 255 255 255 255 255 255 255 255 255 255 255 
255 255 255 255 255 255 255 255 255 255 255 255 255 255 255 255 255 255 255 255 255 255 255 255 255 255 255 255 255 255 255 255 255 255 255 255 255 255 255 255 255 255 255 255 255 255 255 255 255 255 255 255 255 255 255 255 255 255 255 255 255 255 255 255 255 255 255 255 255 255 255 255 255 255 255 255 255 255 255 255 255 255 255 255 255 255 255 255 255 255 255 255 255 255 255 255 255 255 255 255 255 255 255 255 255 255 255 255 255 255 255 255 255 255 255 255 255 255 255 255 255 255 255 255 255 255 255 255 255 255 255 255 255 255 255 255 255 255 255 255 255 255 255 255 255 255 255 255 255 255 255 255 255 255 255 255 255 255 255 255 255 255 255 255 255 255 255 255 255 255 255 255 255 255 255 255 255 255 255 255 255 255 255 255 255 255 255 255 255 255 255 255 
255 255 255 255 255 255 255 255 255 255 255 255 255 255 255 255 255 255 255 255 255 255 255 255 255 255 255 255 255 255 255 255 255 255 255 255 255 255 255 255 255 255 255 255 255 255 255 255 255 255 255 255 255 255 255 255 255 255 255 255 255 255 255 255 255 255 255 255 255 255 255 255 255 255 255 255 255 255 255 255 255 255 255 255 255 255 255 255 255 255 255 255 255 255 255 255 255 255 255 255 255 255 255 255 255 255 255 255 255 255 255 255 255 255 255 255 255 255 255 255 255 255 255 255 255 255 255 255 255 255 255 255 255 255 255 255 255 255 255 255 255 255 255 255 255 255 255 255 255 255 255 255 255 255 255 255 255 255 255 255 255 255 255 255 255 255 255 255 255 255 255 255 255 255 255 255 255 255 255 255 255 255 255 255 255 255 255 255 255 255 255 255 
255 255 255 255 255 255 255 255 255 255 255 255 255 255 255 255 255 255 255 255 255 255 255 255 255 255 255 255 255 255 255 255 255 255 255 255 255 255 255 255 255 255 255 255 255 255 255 255 255 255 255 255 255 255 255 255 255 255 255 255 255 255 255 255 255 255 255 255 255 255 255 255 255 255 255 255 255 255 255 255 255 255 255 255 255 255 255 255 255 255 255 255 255 255 255 255 255 255 255 255 255 255 255 255 255 255 255 255 255 255 255 255 255 255 255 255 255 255 255 255 255 255 255 255 255 255 255 255 255 255 255 255 255 255 255 255 255 255 255 255 255 255 255 255 255 255 255 255 255 255 255 255 255 255 255 255 255 255 255 255 255 255 255 255 255 255 255 255 255 255 255 255 255 255 255 255 255 255 255 255 255 255 255 255 255 255 255 255 255 255 255 255 
