P3
64 64
255
255 255 255 255 255 255 255 255 255 255 255 255 255 255 255 255 255 255 255 255 255 255 255 255 255 255 255 255 255 255 255 255 255 255 255 255 255 255 255 255 255 255 255 255 255 255 255 255 255 255 255 255 255 255 255 255 255 255 255 255 255 255 255 255 255 255 255 255 255 255 255 255 255 255 255 255 255 255 255 255 255 255 255 255 255 255 255 255 255 255 255 255 255 255 255 255 255 255 255 255 255 255 255 255 255 255 255 255 255 255 255 255 255 255 255 255 255 255 255 255 255 255 255 255 255 255 255 255 255 255 255 255 255 255 255 255 255 255 255 255 255 255 255 255 255 255 255 255 255 255 255 255 255 255 255 255 255 255 255 255 255 255 255 255 255 255 255 255 255 255 255 255 255 255 255 255 255 255 255 255 255 255 255 255 255 255 255 255 255 255 255 255 
255 255 255 255 255 255 255 255 255 255 255 255 255 255 255 255 255 255 255 255 255 255 255 255 255 255 255 255 255 255 255 255 255 255 255 255 255 255 255 255 255 255 255 255 255 255 255 255 255 255 255 255 255 255 255 255 255 255 255 255 255 255 255 255 255 255 255 255 255 255 255 255 255 255 255 255 255 255 255 255 255 255 255 255 255 255 255 255 255 255 255 255 255 255 255 255 255 255 255 255 255 255 255 255 255 255 255 255 255 255 255 255 255 255 255 255 255 255 255 255 255 255 255 255 255 255 255 255 255 152 120 64 152 120 64 16 16 16 255 255 255 255 255 255 255 255 255 255 255 255 255 255 255 255 255 255 255 255 255 255 255 255 255 255 255 255 255 255 255 255 255 255 255 255 255 255 255 255 255 255 255 255 255 255 255 255 255 255 255 255 255 255 
255 255 255 255 255 255 255 255 255 255 255 255 255 255 255 255 255 255 255 255 255 255 255 255 255 255 255 255 255 255 255 255 255 255 255 255 255 255 255 255 255 255 255 255 255 255 255 255 255 255 255 255 255 255 255 255 255 255 255 255 255 255 255 255 255 255 255 255 255 255 255 255 255 255 255 255 255 255 255 255 255 255 255 255 255 255 255 255 255 255 255 255 255 255 255 255 255 255 255 255 255 255 255 255 255 255 255 255 255 255 255 255 255 255 255 255 255 255 255 255 255 255 255 152 120 64 152 120 64 248 248 144 232 200 104 16 16 16 255 255 255 255 255 255 255 255 255 255 255 255 255 255 255 255 255 255 255 255 255 255 255 255 255 255 255 255 255 255 255 255 255 255 255 255 255 255 255 255 255 255 255 255 255 255 255 255 255 255 255 255 255 255 
255 255 255 255 255 255 255 255 255 255 255 255 255 255 255 255 255 255 255 255 255 255 255 255 255 255 255 255 255 255 255 255 255 255 255 255 255 255 255 255 255 255 255 255 255 255 255 255 255 255 255 255 255 255 255 255 255 255 255 255 255 255 255 255 255 255 255 255 255 255 255 255 255 255 255 255 255 255 255 255 255 255 255 255 255 255 255 255 255 255 255 255 255 255 255 255 255 255 255 255 255 255 255 255 255 255 255 255 255 255 255 255 255 255 255 255 255 152 120 64 152 120 64 248 248 248 248 248 248 248 248 144 232 200 104 16 16 16 255 255 255 255 255 255 255 255 255 255 255 255 255 255 255 255 255 255 255 255 255 255 255 255 255 255 255 255 255 255 255 255 255 255 255 255 255 255 255 255 255 255 255 255 255 255 255 255 255 255 255 255 255 255 
255 255 255 255 255 255 255 255 255 255 255 255 255 255 255 255 255 255 255 255 255 255 255 255 255 255 255 255 255 255 255 255 255 255 255 255 255 255 255 255 255 255 255 255 255 255 255 255 255 255 255 255 255 255 255 255 255 255 255 255 255 255 255 255 255 255 255 255 255 255 255 255 255 255 255 255 255 255 255 255 255 255 255 255 255 255 255 255 255 255 255 255 255 255 255 255 255 255 255 255 255 255 255 255 255 255 255 255 255 255 255 255 255 255 152 120 64 248 248 248 248 248 248 248 248 144 232 200 104 232 200 104 80 64 16 255 255 255 255 255 255 255 255 255 255 255 255 255 255 255 255 255 255 255 255 255 255 255 255 255 255 255 255 255 255 255 255 255 255 255 255 255 255 255 255 255 255 255 255 255 255 255 255 255 255 255 255 255 255 255 255 255 
255 255 255 255 255 255 255 255 255 255 255 255 255 255 255 255 255 255 255 255 255 255 255 255 255 255 255 255 255 255 255 255 255 255 255 255 255 255 255 255 255 255 255 255 255 255 255 255 255 255 255 255 255 255 255 255 255 255 255 255 255 255 255 255 255 255 255 255 255 255 255 255 255 255 255 255 255 255 255 255 255 255 255 255 255 255 255 255 255 255 255 255 255 255 255 255 104 104 80 104 104 80 104 104 80 104 104 80 80 64 16 80 64 16 232 200 104 248 248 248 248 248 144 232 200 104 232 200 104 232 200 104 16 16 16 255 255 255 255 255 255 255 255 255 255 255 255 255 255 255 255 255 255 255 255 255 255 255 255 255 255 255 255 255 255 255 255 255 255 255 255 255 255 255 255 255 255 255 255 255 255 255 255 255 255 255 255 255 255 255 255 255 
255 255 255 255 255 255 255 255 255 255 255 255 255 255 255 255 255 255 255 255 255 255 255 255 255 255 255 255 255 255 255 255 255 255 255 255 255 255 255 255 255 255 255 255 255 255 255 255 255 255 255 255 255 255 255 255 255 255 255 255 255 255 255 255 255 255 255 255 255 255 255 255 255 255 255 255 255 255 255 255 255 255 255 255 255 255 255 255 255 255 104 104 80 104 104 80 204 204 204 204 204 204 160 168 120 160 168 120 136 144 96 80 64 16 80 64 16 248 248 144 232 200 104 232 200 104 232 200 104 80 64 16 255 255 255 255 255 255 255 255 255 255 255 255 255 255 255 255 255 255 255 255 255 255 255 255 255 255 255 255 255 255 255 255 255 255 255 255 255 255 255 255 255 255 255 255 255 255 255 255 255 255 255 255 255 255 255 255 255 255 255 255 
255 255 255 255 255 255 255 255 255 255 255 255 255 255 255 255 255 255 255 255 255 255 255 255 255 255 255 255 255 255 255 255 255 255 255 255 255 255 255 255 255 255 255 255 255 255 255 255 255 255 255 255 255 255 255 255 255 152 120 64 152 120 64 152 120 64 152 120 64 152 120 64 152 120 64 255 255 255 255 255 255 255 255 255 104 104 80 104 104 80 160 168 120 204 204 204 204 204 204 204 204 204 204 204 204 160 168 120 160 168 120 136 144 96 136 144 96 80 64 16 80 64 16 232 200 104 232 200 104 16 16 16 255 255 255 255 255 255 255 255 255 255 255 255 255 255 255 255 255 255 255 255 255 255 255 255 255 255 255 255 255 255 255 255 255 255 255 255 255 255 255 255 255 255 255 255 255 255 255 255 255 255 255 255 255 255 255 255 255 255 255 255 
255 255 255 255 255 255 255 255 255 255 255 255 255 255 255 255 255 255 255 255 255 255 255 255 255 255 255 255 255 255 255 255 255 255 255 255 255 255 255 255 255 255 255 255 255 255 255 255 255 255 255 152 120 64 232 200 104 248 248 248 248 248 248 248 248 144 232 200 104 232 200 104 232 200 104 80 64 16 80 64 16 80 64 16 136 144 96 136 144 96 160 168 120 204 204 204 204 204 204 204 204 204 204 204 204 160 168 120 160 168 120 160 168 120 136 144 96 136 144 96 136 144 96 80 64 16 80 64 16 255 255 255 255 255 255 255 255 255 255 255 255 255 255 255 255 255 255 255 255 255 255 255 255 255 255 255 255 255 255 255 255 255 255 255 255 255 255 255 255 255 255 255 255 255 255 255 255 255 255 255 255 255 255 255 255 255 255 255 255 255 255 255 
255 255 255 255 255 255 255 255 255 255 255 255 255 255 255 255 255 255 255 255 255 255 255 255 255 255 255 255 255 255 255 255 255 255 255 255 255 255 255 255 255 255 255 255 255 255 255 255 152 120 64 248 248 248 248 248 248 248 248 248 248 248 248 248 248 144 248 248 144 248 248 144 232 200 104 232 200 104 232 200 104 80 64 16 104 104 80 136 144 96 136 144 96 160 168 120 204 204 204 204 204 204 204 204 204 160 168 120 160 168 120 160 168 120 136 144 96 136 144 96 136 144 96 136 144 96 104 104 80 16 16 16 255 255 255 255 255 255 255 255 255 255 255 255 255 255 255 255 255 255 255 255 255 255 255 255 255 255 255 255 255 255 255 255 255 255 255 255 255 255 255 255 255 255 255 255 255 255 255 255 255 255 255 255 255 255 255 255 255 255 255 255 
255 255 255 255 255 255 255 255 255 255 255 255 255 255 255 255 255 255 255 255 255 255 255 255 255 255 255 255 255 255 255 255 255 255 255 255 255 255 255 255 255 255 255 255 255 255 255 255 255 255 255 16 16 16 152 120 64 248 248 144 248 248 144 248 248 248 248 248 144 248 248 144 248 248 144 232 200 104 232 200 104 232 200 104 80 64 16 136 144 96 136 144 96 136 144 96 160 168 120 160 168 120 160 168 120 160 168 120 160 168 120 160 168 120 136 144 96 136 144 96 136 144 96 136 144 96 136 144 96 80 64 16 255 255 255 255 255 255 255 255 255 255 255 255 255 255 255 255 255 255 255 255 255 255 255 255 255 255 255 255 255 255 255 255 255 255 255 255 255 255 255 255 255 255 255 255 255 255 255 255 255 255 255 255 255 255 255 255 255 255 255 255 
255 255 255 255 255 255 255 255 255 255 255 255 255 255 255 255 255 255 255 255 255 255 255 255 255 255 255 255 255 255 255 255 255 255 255 255 255 255 255 255 255 255 255 255 255 255 255 255 255 255 255 255 255 255 255 255 255 16 16 16 152 120 64 248 248 144 248 248 144 248 248 144 248 248 144 232 200 104 232 200 104 232 200 104 80 64 16 104 104 80 136 144 96 136 144 96 136 144 96 160 168 120 160 168 120 160 168 120 160 168 120 136 144 96 136 144 96 136 144 96 136 144 96 136 144 96 136 144 96 136 144 96 16 16 16 255 255 255 255 255 255 255 255 255 255 255 255 255 255 255 255 255 255 255 255 255 255 255 255 255 255 255 255 255 255 255 255 255 255 255 255 255 255 255 255 255 255 255 255 255 255 255 255 255 255 255 255 255 255 255 255 255 
255 255 255 255 255 255 255 255 255 255 255 255 255 255 255 255 255 255 255 255 255 255 255 255 255 255 255 255 255 255 255 255 255 255 255 255 255 255 255 255 255 255 255 255 255 255 255 255 255 255 255 255 255 255 255 255 255 255 255 255 255 255 255 16 16 16 248 248 144 248 248 144 248 248 144 232 200 104 232 200 104 232 200 104 232 200 104 16 16 16 136 144 96 136 144 96 136 144 96 136 144 96 136 144 96 136 144 96 136 144 96 136 144 96 136 144 96 136 144 96 136 144 96 136 144 96 136 144 96 136 144 96 80 64 16 255 255 255 255 255 255 255 255 255 255 255 255 255 255 255 255 255 255 255 255 255 255 255 255 255 255 255 255 255 255 255 255 255 255 255 255 255 255 255 255 255 255 255 255 255 255 255 255 255 255 255 255 255 255 255 255 255 
255 255 255 255 255 255 255 255 255 255 255 255 255 255 255 255 255 255 255 255 255 255 255 255 255 255 255 255 255 255 255 255 255 255 255 255 255 255 255 255 255 255 255 255 255 255 255 255 255 255 255 255 255 255 255 255 255 255 255 255 255 255 255 255 255 255 16 16 16 248 248 144 232 200 104 232 200 104 232 200 104 232 200 104 232 200 104 16 16 16 104 104 80 136 144 96 136 144 96 136 144 96 136 144 96 136 144 96 136 144 96 136 144 96 136 144 96 136 144 96 136 144 96 136 144 96 136 144 96 136 144 96 104 104 80 16 16 16 255 255 255 255 255 255 255 255 255 255 255 255 255 255 255 255 255 255 255 255 255 255 255 255 255 255 255 255 255 255 255 255 255 255 255 255 255 255 255 255 255 255 255 255 255 255 255 255 255 255 255 255 255 255 
255 255 255 255 255 255 255 255 255 255 255 255 255 255 255 255 255 255 255 255 255 255 255 255 255 255 255 255 255 255 255 255 255 255 255 255 255 255 255 255 255 255 255 255 255 255 255 255 255 255 255 255 255 255 255 255 255 255 255 255 255 255 255 80 64 16 80 64 16 80 64 16 232 200 104 232 200 104 232 200 104 184 160 104 80 64 16 16 16 16 104 104 80 104 104 80 104 104 80 136 144 96 136 144 96 136 144 96 136 144 96 136 144 96 136 144 96 136 144 96 136 144 96 136 144 96 136 144 96 104 104 80 104 104 80 16 16 16 255 255 255 255 255 255 255 255 255 255 255 255 255 255 255 255 255 255 255 255 255 255 255 255 255 255 255 255 255 255 255 255 255 255 255 255 255 255 255 255 255 255 255 255 255 255 255 255 255 255 255 255 255 255 
255 255 255 255 255 255 255 255 255 255 255 255 255 255 255 255 255 255 255 255 255 255 255 255 255 255 255 255 255 255 255 255 255 255 255 255 255 255 255 255 255 255 255 255 255 255 255 255 255 255 255 255 255 255 255 255 255 255 255 255 80 64 16 184 160 104 80 64 16 184 160 104 152 120 64 16 16 16 16 16 16 16 16 16 152 120 64 152 120 64 80 64 16 104 104 80 80 64 16 204 204 204 80 64 16 136 144 96 136 144 96 136 144 96 136 144 96 136 144 96 136 144 96 136 144 96 104 104 80 104 104 80 104 104 80 80 64 16 16 16 16 255 255 255 255 255 255 255 255 255 255 255 255 255 255 255 255 255 255 255 255 255 255 255 255 255 255 255 255 255 255 255 255 255 255 255 255 255 255 255 255 255 255 255 255 255 255 255 255 255 255 255 
255 255 255 255 255 255 255 255 255 255 255 255 255 255 255 255 255 255 255 255 255 255 255 255 255 255 255 255 255 255 255 255 255 255 255 255 255 255 255 255 255 255 255 255 255 255 255 255 255 255 255 255 255 255 255 255 255 80 64 16 184 160 104 184 160 104 80 64 16 184 160 104 184 160 104 184 160 104 184 160 104 152 120 64 152 120 64 152 120 64 152 120 64 80 64 16 248 248 248 248 248 248 204 204 204 16 16 16 104 104 80 136 144 96 136 144 96 136 144 96 136 144 96 104 104 80 104 104 80 104 104 80 104 104 80 80 64 16 16 16 16 255 255 255 255 255 255 255 255 255 255 255 255 255 255 255 255 255 255 255 255 255 255 255 255 255 255 255 255 255 255 255 255 255 255 255 255 255 255 255 255 255 255 255 255 255 255 255 255 255 255 255 
255 255 255 255 255 255 255 255 255 255 255 255 255 255 255 255 255 255 255 255 255 255 255 255 255 255 255 255 255 255 255 255 255 255 255 255 255 255 255 255 255 255 255 255 255 255 255 255 255 255 255 255 255 255 255 255 255 80 64 16 184 160 104 152 120 64 80 64 16 184 160 104 184 160 104 184 160 104 184 160 104 184 160 104 184 160 104 184 160 104 184 160 104 80 64 16 248 248 248 184 24 24 248 248 248 204 204 204 16 16 16 104 104 80 104 104 80 104 104 80 104 104 80 104 104 80 104 104 80 104 104 80 80 64 16 104 104 80 16 16 16 255 255 255 255 255 255 255 255 255 255 255 255 255 255 255 255 255 255 255 255 255 255 255 255 255 255 255 255 255 255 255 255 255 255 255 255 255 255 255 255 255 255 255 255 255 255 255 255 255 255 255 
255 255 255 255 255 255 255 255 255 255 255 255 255 255 255 255 255 255 255 255 255 255 255 255 255 255 255 255 255 255 255 255 255 255 255 255 255 255 255 255 255 255 255 255 255 255 255 255 255 255 255 255 255 255 255 255 255 255 255 255 80 64 16 80 64 16 80 64 16 184 160 104 184 160 104 184 160 104 184 160 104 208 184 128 208 184 128 208 184 128 208 184 128 184 160 104 80 64 16 184 24 24 16 16 16 248 248 248 204 204 204 16 16 16 104 104 80 104 104 80 104 104 80 104 104 80 104 104 80 104 104 80 104 104 80 104 104 80 16 16 16 255 255 255 255 255 255 255 255 255 255 255 255 255 255 255 255 255 255 255 255 255 255 255 255 255 255 255 255 255 255 255 255 255 255 255 255 255 255 255 255 255 255 255 255 255 255 255 255 255 255 255 
255 255 255 255 255 255 255 255 255 255 255 255 255 255 255 255 255 255 255 255 255 255 255 255 255 255 255 255 255 255 255 255 255 255 255 255 255 255 255 255 255 255 255 255 255 255 255 255 255 255 255 255 255 255 255 255 255 80 64 16 80 64 16 208 184 128 80 64 16 184 160 104 184 160 104 184 160 104 208 184 128 208 184 128 208 184 128 208 184 128 208 184 128 208 184 128 208 184 128 184 24 24 16 16 16 248 248 248 248 248 248 204 204 204 16 16 16 104 104 80 104 104 80 104 104 80 104 104 80 104 104 80 104 104 80 80 64 16 80 64 16 255 255 255 255 255 255 255 255 255 255 255 255 255 255 255 255 255 255 255 255 255 255 255 255 255 255 255 255 255 255 255 255 255 255 255 255 255 255 255 255 255 255 255 255 255 255 255 255 255 255 255 
255 255 255 255 255 255 255 255 255 255 255 255 255 255 255 255 255 255 255 255 255 255 255 255 255 255 255 255 255 255 255 255 255 255 255 255 255 255 255 255 255 255 255 255 255 255 255 255 255 255 255 80 64 16 80 64 16 208 184 128 208 184 128 184 160 104 184 160 104 184 160 104 184 160 104 184 160 104 184 160 104 208 184 128 80 64 16 208 184 128 208 184 128 208 184 128 208 184 128 208 184 128 208 184 128 208 184 128 184 160 104 184 160 104 152 120 64 80 64 16 16 16 16 16 16 16 104 104 80 104 104 80 104 104 80 16 16 16 152 120 64 16 16 16 255 255 255 255 255 255 255 255 255 255 255 255 255 255 255 255 255 255 255 255 255 255 255 255 255 255 255 255 255 255 255 255 255 255 255 255 255 255 255 255 255 255 255 255 255 255 255 255 
255 255 255 255 255 255 255 255 255 255 255 255 255 255 255 255 255 255 255 255 255 255 255 255 255 255 255 255 255 255 255 255 255 255 255 255 255 255 255 255 255 255 255 255 255 255 255 255 80 64 16 184 160 104 184 160 104 184 160 104 184 160 104 184 160 104 184 160 104 184 160 104 184 160 104 80 64 16 208 184 128 184 160 104 80 64 16 80 64 16 80 64 16 80 64 16 184 160 104 184 160 104 208 184 128 208 184 128 208 184 128 184 160 104 184 160 104 184 160 104 152 120 64 152 120 64 16 16 16 16 16 16 16 16 16 152 120 64 152 120 64 16 16 16 16 16 16 255 255 255 255 255 255 255 255 255 255 255 255 255 255 255 255 255 255 255 255 255 255 255 255 255 255 255 255 255 255 255 255 255 255 255 255 255 255 255 255 255 255 255 255 255 
255 255 255 255 255 255 255 255 255 255 255 255 255 255 255 255 255 255 255 255 255 255 255 255 255 255 255 255 255 255 255 255 255 255 255 255 255 255 255 255 255 255 255 255 255 80 64 16 184 160 104 184 160 104 184 160 104 184 160 104 184 160 104 184 160 104 184 160 104 184 160 104 184 160 104 80 64 16 184 160 104 184 160 104 184 160 104 80 64 16 248 248 248 204 204 204 80 64 16 184 160 104 184 160 104 184 160 104 208 184 128 184 160 104 184 160 104 184 160 104 184 160 104 152 120 64 152 120 64 152 120 64 152 120 64 152 120 64 16 16 16 80 64 16 80 64 16 80 64 16 80 64 16 80 64 16 152 120 64 255 255 255 255 255 255 255 255 255 255 255 255 255 255 255 255 255 255 255 255 255 255 255 255 255 255 255 255 255 255 255 255 255 
255 255 255 255 255 255 255 255 255 255 255 255 255 255 255 255 255 255 255 255 255 255 255 255 255 255 255 255 255 255 255 255 255 255 255 255 255 255 255 255 255 255 255 255 255 80 64 16 152 120 64 152 120 64 152 120 64 80 64 16 80 64 16 184 160 104 184 160 104 184 160 104 184 160 104 184 160 104 80 64 16 184 160 104 184 160 104 80 64 16 248 248 248 80 64 16 16 16 16 16 16 16 184 160 104 184 160 104 184 160 104 184 160 104 184 160 104 184 160 104 184 160 104 80 64 16 152 120 64 152 120 64 152 120 64 152 120 64 16 16 16 152 120 64 184 160 104 80 64 16 152 120 64 184 160 104 184 160 104 80 64 16 255 255 255 255 255 255 255 255 255 255 255 255 255 255 255 255 255 255 255 255 255 255 255 255 255 255 255 255 255 255 
255 255 255 255 255 255 255 255 255 255 255 255 255 255 255 255 255 255 255 255 255 255 255 255 255 255 255 255 255 255 255 255 255 255 255 255 255 255 255 255 255 255 255 255 255 255 255 255 16 16 16 16 16 16 16 16 16 16 16 16 80 64 16 184 160 104 184 160 104 184 160 104 184 160 104 184 160 104 184 160 104 80 64 16 152 120 64 152 120 64 80 64 16 152 120 64 184 160 104 184 160 104 16 16 16 80 64 16 184 160 104 184 160 104 184 160 104 184 160 104 152 120 64 152 120 64 152 120 64 152 120 64 152 120 64 80 64 16 152 120 64 184 160 104 184 160 104 184 160 104 80 64 16 16 16 16 16 16 16 184 160 104 80 64 16 255 255 255 255 255 255 255 255 255 255 255 255 255 255 255 255 255 255 255 255 255 255 255 255 255 255 255 
255 255 255 255 255 255 255 255 255 255 255 255 255 255 255 255 255 255 255 255 255 255 255 255 255 255 255 255 255 255 255 255 255 255 255 255 255 255 255 255 255 255 80 64 16 152 120 64 184 160 104 184 160 104 184 160 104 80 64 16 184 160 104 184 160 104 184 160 104 184 160 104 184 160 104 80 64 16 152 120 64 152 120 64 80 64 16 80 64 16 152 120 64 152 120 64 152 120 64 152 120 64 152 120 64 184 160 104 16 16 16 16 16 16 80 64 16 184 160 104 152 120 64 152 120 64 152 120 64 152 120 64 80 64 16 80 64 16 184 160 104 184 160 104 184 160 104 184 160 104 184 160 104 184 160 104 184 160 104 16 16 16 16 16 16 16 16 16 255 255 255 255 255 255 255 255 255 255 255 255 255 255 255 255 255 255 255 255 255 255 255 255 
255 255 255 255 255 255 255 255 255 255 255 255 255 255 255 255 255 255 255 255 255 255 255 255 255 255 255 255 255 255 255 255 255 255 255 255 152 120 64 80 64 16 152 120 64 184 160 104 184 160 104 184 160 104 184 160 104 80 64 16 184 160 104 184 160 104 184 160 104 184 160 104 16 16 16 152 120 64 152 120 64 152 120 64 152 120 64 152 120 64 16 16 16 16 16 16 16 16 16 80 64 16 152 120 64 152 120 64 152 120 64 152 120 64 152 120 64 80 64 16 16 16 16 16 16 16 16 16 16 80 64 16 184 160 104 80 64 16 184 160 104 184 160 104 184 160 104 184 160 104 184 160 104 184 160 104 184 160 104 208 184 128 208 184 128 208 184 128 152 120 64 255 255 255 255 255 255 255 255 255 255 255 255 255 255 255 255 255 255 255 255 255 
255 255 255 255 255 255 255 255 255 255 255 255 255 255 255 255 255 255 255 255 255 255 255 255 255 255 255 255 255 255 255 255 255 80 64 16 80 64 16 184 160 104 184 160 104 184 160 104 184 160 104 184 160 104 184 160 104 184 160 104 80 64 16 152 120 64 152 120 64 152 120 64 16 16 16 152 120 64 152 120 64 152 120 64 152 120 64 152 120 64 152 120 64 152 120 64 152 120 64 152 120 64 80 64 16 16 16 16 16 16 16 16 16 16 16 16 16 16 16 16 80 64 16 80 64 16 152 120 64 152 120 64 152 120 64 80 64 16 152 120 64 184 160 104 152 120 64 184 160 104 184 160 104 184 160 104 208 184 128 208 184 128 208 184 128 208 184 128 208 184 128 152 120 64 255 255 255 255 255 255 255 255 255 255 255 255 255 255 255 255 255 255 
255 255 255 255 255 255 255 255 255 255 255 255 255 255 255 255 255 255 255 255 255 255 255 255 255 255 255 255 255 255 80 64 16 184 160 104 184 160 104 184 160 104 184 160 104 80 64 16 80 64 16 80 64 16 80 64 16 80 64 16 80 64 16 16 16 16 16 16 16 16 16 16 152 120 64 152 120 64 152 120 64 152 120 64 152 120 64 152 120 64 152 120 64 152 120 64 152 120 64 248 248 144 248 248 144 232 200 104 232 200 104 232 200 104 232 200 104 232 200 104 232 200 104 232 200 104 80 64 16 80 64 16 80 64 16 152 120 64 152 120 64 152 120 64 152 120 64 184 160 104 184 160 104 184 160 104 208 184 128 208 184 128 208 184 128 208 184 128 208 184 128 184 160 104 80 64 16 255 255 255 255 255 255 255 255 255 255 255 255 255 255 255 
255 255 255 255 255 255 255 255 255 255 255 255 255 255 255 255 255 255 255 255 255 255 255 255 255 255 255 255 255 255 80 64 16 184 160 104 184 160 104 184 160 104 80 64 16 184 160 104 184 160 104 184 160 104 152 120 64 152 120 64 152 120 64 152 120 64 152 120 64 80 64 16 152 120 64 152 120 64 152 120 64 152 120 64 152 120 64 152 120 64 152 120 64 248 248 144 248 248 144 248 248 144 248 248 144 248 248 144 248 248 144 232 200 104 232 200 104 232 200 104 232 200 104 232 200 104 232 200 104 80 64 16 152 120 64 152 120 64 152 120 64 152 120 64 152 120 64 152 120 64 184 160 104 184 160 104 184 160 104 208 184 128 208 184 128 208 184 128 184 160 104 184 160 104 152 120 64 80 64 16 104 104 80 104 104 80 255 255 255 255 255 255 
255 255 255 255 255 255 255 255 255 255 255 255 255 255 255 255 255 255 255 255 255 255 255 255 255 255 255 255 255 255 80 64 16 184 160 104 184 160 104 184 160 104 208 184 128 208 184 128 208 184 128 184 160 104 152 120 64 152 120 64 152 120 64 184 160 104 184 160 104 184 160 104 80 64 16 80 64 16 80 64 16 152 120 64 152 120 64 152 120 64 248 248 144 248 248 144 248 248 144 248 248 144 248 248 144 248 248 144 248 248 144 248 248 144 248 248 144 248 248 144 248 248 144 248 248 144 248 248 144 232 200 104 16 16 16 16 16 16 16 16 16 152 120 64 152 120 64 152 120 64 152 120 64 184 160 104 184 160 104 184 160 104 184 160 104 184 160 104 184 160 104 184 160 104 152 120 64 80 64 16 204 204 204 248 248 248 16 16 16 255 255 255 
255 255 255 255 255 255 255 255 255 255 255 255 255 255 255 255 255 255 255 255 255 255 255 255 255 255 255 80 64 16 80 64 16 184 160 104 184 160 104 184 160 104 208 184 128 208 184 128 208 184 128 208 184 128 208 184 128 208 184 128 208 184 128 208 184 128 208 184 128 184 160 104 184 160 104 152 120 64 152 120 64 80 64 16 152 120 64 248 248 144 248 248 144 248 248 144 248 248 144 248 248 144 248 248 144 248 248 144 248 248 144 248 248 144 248 248 144 248 248 144 248 248 144 248 248 144 248 248 144 248 248 144 232 200 104 16 16 16 255 255 255 80 64 16 152 120 64 152 120 64 152 120 64 152 120 64 184 160 104 184 160 104 184 160 104 184 160 104 184 160 104 184 160 104 152 120 64 152 120 64 80 64 16 204 204 204 16 16 16 255 255 255 
255 255 255 255 255 255 255 255 255 255 255 255 255 255 255 255 255 255 255 255 255 255 255 255 255 255 255 80 64 16 152 120 64 152 120 64 184 160 104 184 160 104 184 160 104 184 160 104 184 160 104 208 184 128 208 184 128 208 184 128 208 184 128 208 184 128 208 184 128 208 184 128 80 64 16 80 64 16 152 120 64 152 120 64 80 64 16 104 104 80 104 104 80 248 248 144 248 248 144 248 248 144 248 248 144 248 248 144 248 248 144 248 248 144 248 248 144 248 248 144 248 248 144 248 248 144 248 248 144 248 248 144 232 200 104 80 64 16 255 255 255 255 255 255 80 64 16 152 120 64 152 120 64 152 120 64 184 160 104 184 160 104 184 160 104 184 160 104 184 160 104 152 120 64 152 120 64 152 120 64 80 64 16 16 16 16 16 16 16 255 255 255 
255 255 255 255 255 255 255 255 255 255 255 255 255 255 255 255 255 255 255 255 255 255 255 255 255 255 255 16 16 16 152 120 64 80 64 16 152 120 64 184 160 104 184 160 104 184 160 104 184 160 104 184 160 104 184 160 104 184 160 104 184 160 104 184 160 104 208 184 128 80 64 16 248 248 248 248 248 248 16 16 16 152 120 64 80 64 16 204 204 204 248 248 248 16 16 16 248 248 144 248 248 144 80 64 16 80 64 16 80 64 16 248 248 144 248 248 144 248 248 144 248 248 144 248 248 144 248 248 144 248 248 144 248 248 144 232 200 104 16 16 16 255 255 255 16 16 16 152 120 64 152 120 64 152 120 64 152 120 64 184 160 104 184 160 104 184 160 104 152 120 64 152 120 64 152 120 64 152 120 64 104 104 80 255 255 255 255 255 255 255 255 255 
255 255 255 255 255 255 255 255 255 255 255 255 255 255 255 255 255 255 255 255 255 255 255 255 255 255 255 16 16 16 152 120 64 152 120 64 80 64 16 152 120 64 152 120 64 184 160 104 184 160 104 184 160 104 184 160 104 184 160 104 184 160 104 184 160 104 80 64 16 204 204 204 248 248 248 248 248 248 248 248 248 16 16 16 152 120 64 80 64 16 204 204 204 248 248 248 16 16 16 248 248 144 80 64 16 248 248 144 232 200 104 80 64 16 80 64 16 80 64 16 80 64 16 248 248 144 248 248 144 248 248 144 248 248 144 232 200 104 16 16 16 255 255 255 255 255 255 16 16 16 152 120 64 152 120 64 152 120 64 152 120 64 152 120 64 152 120 64 152 120 64 152 120 64 152 120 64 80 64 16 204 204 204 16 16 16 255 255 255 255 255 255 
255 255 255 255 255 255 255 255 255 255 255 255 255 255 255 255 255 255 255 255 255 255 255 255 255 255 255 16 16 16 152 120 64 152 120 64 152 120 64 80 64 16 152 120 64 152 120 64 152 120 64 184 160 104 184 160 104 184 160 104 152 120 64 152 120 64 80 64 16 204 204 204 204 204 204 204 204 204 248 248 248 16 16 16 152 120 64 80 64 16 204 204 204 248 248 248 16 16 16 248 248 144 80 64 16 232 200 104 80 64 16 204 204 204 160 168 120 160 168 120 136 144 96 16 16 16 80 64 16 80 64 16 80 64 16 80 64 16 80 64 16 255 255 255 255 255 255 255 255 255 16 16 16 152 120 64 152 120 64 152 120 64 152 120 64 80 64 16 80 64 16 152 120 64 80 64 16 104 104 80 248 248 248 16 16 16 255 255 255 255 255 255 
255 255 255 255 255 255 255 255 255 255 255 255 255 255 255 255 255 255 255 255 255 255 255 255 255 255 255 255 255 255 16 16 16 152 120 64 152 120 64 16 16 16 152 120 64 152 120 64 152 120 64 152 120 64 152 120 64 152 120 64 152 120 64 152 120 64 152 120 64 16 16 16 16 16 16 16 16 16 204 204 204 16 16 16 152 120 64 16 16 16 16 16 16 204 204 204 16 16 16 248 248 144 248 248 144 80 64 16 204 204 204 204 204 204 160 168 120 136 144 96 136 144 96 136 144 96 16 16 16 248 248 144 248 248 144 16 16 16 232 200 104 80 64 16 255 255 255 255 255 255 255 255 255 16 16 16 80 64 16 152 120 64 80 64 16 248 248 248 204 204 204 16 16 16 255 255 255 255 255 255 16 16 16 16 16 16 255 255 255 255 255 255 
255 255 255 255 255 255 255 255 255 255 255 255 255 255 255 255 255 255 255 255 255 255 255 255 255 255 255 255 255 255 255 255 255 16 16 16 16 16 16 16 16 16 16 16 16 152 120 64 152 120 64 152 120 64 152 120 64 152 120 64 152 120 64 152 120 64 152 120 64 152 120 64 152 120 64 152 120 64 16 16 16 152 120 64 16 16 16 248 248 144 248 248 144 16 16 16 248 248 144 248 248 144 248 248 144 80 64 16 160 168 120 160 168 120 160 168 120 136 144 96 136 144 96 136 144 96 144 104 136 16 16 16 232 200 104 16 16 16 232 200 104 16 16 16 255 255 255 255 255 255 255 255 255 255 255 255 255 255 255 16 16 16 104 104 80 248 248 248 204 204 204 16 16 16 255 255 255 255 255 255 255 255 255 255 255 255 255 255 255 255 255 255 
255 255 255 255 255 255 255 255 255 255 255 255 255 255 255 255 255 255 255 255 255 255 255 255 255 255 255 255 255 255 255 255 255 255 255 255 255 255 255 255 255 255 80 64 16 16 16 16 152 120 64 152 120 64 152 120 64 152 120 64 80 64 16 80 64 16 80 64 16 152 120 64 152 120 64 152 120 64 152 120 64 16 16 16 248 248 144 248 248 144 248 248 144 248 248 144 248 248 144 248 248 144 80 64 16 136 144 96 136 144 96 136 144 96 136 144 96 80 64 16 80 64 16 16 16 16 144 104 136 80 64 16 16 16 16 16 16 16 232 200 104 16 16 16 255 255 255 255 255 255 255 255 255 255 255 255 255 255 255 255 255 255 16 16 16 104 104 80 248 248 248 204 204 204 16 16 16 255 255 255 255 255 255 255 255 255 255 255 255 255 255 255 
255 255 255 255 255 255 255 255 255 255 255 255 255 255 255 255 255 255 255 255 255 255 255 255 255 255 255 255 255 255 255 255 255 255 255 255 255 255 255 255 255 255 255 255 255 80 64 16 16 16 16 16 16 16 152 120 64 80 64 16 248 248 248 248 248 248 204 204 204 16 16 16 152 120 64 16 16 16 16 16 16 248 248 144 80 64 16 80 64 16 152 120 64 248 248 144 248 248 144 248 248 144 80 64 16 136 144 96 136 144 96 136 144 96 80 64 16 16 16 16 248 248 248 16 16 16 80 64 16 144 104 136 16 16 16 80 64 16 80 64 16 16 16 16 255 255 255 255 255 255 255 255 255 255 255 255 255 255 255 255 255 255 255 255 255 255 255 255 104 104 80 16 16 16 16 16 16 255 255 255 255 255 255 255 255 255 255 255 255 255 255 255 
255 255 255 255 255 255 255 255 255 255 255 255 255 255 255 255 255 255 255 255 255 255 255 255 255 255 255 255 255 255 255 255 255 255 255 255 255 255 255 255 255 255 255 255 255 80 64 16 152 120 64 152 120 64 80 64 16 80 64 16 248 248 248 248 248 248 204 204 204 16 16 16 80 64 16 248 248 144 248 248 144 80 64 16 248 248 144 248 248 144 248 248 144 152 120 64 80 64 16 80 64 16 16 16 16 16 16 16 16 16 16 80 64 16 144 104 136 16 16 16 16 16 16 80 64 16 144 104 136 80 64 16 80 64 16 184 160 104 80 64 16 16 16 16 255 255 255 255 255 255 255 255 255 255 255 255 255 255 255 255 255 255 255 255 255 255 255 255 255 255 255 255 255 255 255 255 255 255 255 255 255 255 255 255 255 255 255 255 255 255 255 255 
255 255 255 255 255 255 255 255 255 255 255 255 255 255 255 255 255 255 255 255 255 255 255 255 255 255 255 255 255 255 255 255 255 255 255 255 255 255 255 255 255 255 255 255 255 80 64 16 152 120 64 152 120 64 152 120 64 16 16 16 104 104 80 248 248 248 248 248 248 204 204 204 16 16 16 248 248 144 80 64 16 248 248 144 248 248 144 248 248 144 248 248 144 80 64 16 216 176 208 216 176 208 80 64 16 216 176 208 216 176 208 216 176 208 216 176 208 144 104 136 144 104 136 80 64 16 80 64 16 216 176 208 216 176 208 16 16 16 80 64 16 232 200 104 80 64 16 255 255 255 255 255 255 255 255 255 255 255 255 255 255 255 255 255 255 255 255 255 255 255 255 255 255 255 255 255 255 255 255 255 255 255 255 255 255 255 255 255 255 255 255 255 
255 255 255 255 255 255 255 255 255 255 255 255 255 255 255 255 255 255 255 255 255 255 255 255 255 255 255 255 255 255 255 255 255 255 255 255 255 255 255 255 255 255 255 255 255 80 64 16 152 120 64 152 120 64 152 120 64 152 120 64 80 64 16 16 16 16 16 16 16 16 16 16 248 248 144 248 248 144 152 120 64 248 248 144 248 248 144 248 248 144 248 248 144 80 64 16 216 176 208 216 176 208 80 64 16 80 64 16 216 176 208 216 176 208 216 176 208 144 104 136 16 16 16 16 16 16 80 64 16 216 176 208 144 104 136 16 16 16 232 200 104 232 200 104 16 16 16 255 255 255 255 255 255 255 255 255 255 255 255 255 255 255 255 255 255 255 255 255 255 255 255 255 255 255 255 255 255 255 255 255 255 255 255 255 255 255 255 255 255 255 255 255 
255 255 255 255 255 255 255 255 255 255 255 255 255 255 255 255 255 255 255 255 255 255 255 255 255 255 255 255 255 255 255 255 255 255 255 255 255 255 255 255 255 255 80 64 16 152 120 64 152 120 64 152 120 64 80 64 16 80 64 16 80 64 16 80 64 16 80 64 16 80 64 16 248 248 144 80 64 16 248 248 144 248 248 144 248 248 144 248 248 144 248 248 144 248 248 144 16 16 16 16 16 16 232 200 104 232 200 104 16 16 16 16 16 16 16 16 16 16 16 16 232 200 104 232 200 104 232 200 104 16 16 16 16 16 16 232 200 104 232 200 104 232 200 104 16 16 16 80 64 16 255 255 255 255 255 255 255 255 255 255 255 255 255 255 255 255 255 255 255 255 255 255 255 255 255 255 255 255 255 255 255 255 255 255 255 255 255 255 255 255 255 255 
255 255 255 255 255 255 255 255 255 255 255 255 255 255 255 255 255 255 255 255 255 255 255 255 255 255 255 255 255 255 255 255 255 255 255 255 255 255 255 255 255 255 80 64 16 152 120 64 80 64 16 80 64 16 184 160 104 184 160 104 184 160 104 184 160 104 152 120 64 152 120 64 80 64 16 80 64 16 248 248 144 248 248 144 248 248 144 248 248 144 248 248 144 248 248 144 248 248 144 248 248 144 248 248 144 248 248 144 248 248 144 232 200 104 232 200 104 232 200 104 232 200 104 232 200 104 232 200 104 232 200 104 232 200 104 232 200 104 232 200 104 232 200 104 16 16 16 152 120 64 16 16 16 255 255 255 255 255 255 255 255 255 255 255 255 255 255 255 255 255 255 255 255 255 255 255 255 255 255 255 255 255 255 255 255 255 255 255 255 255 255 255 
255 255 255 255 255 255 255 255 255 255 255 255 255 255 255 255 255 255 255 255 255 255 255 255 255 255 255 255 255 255 255 255 255 255 255 255 255 255 255 80 64 16 80 64 16 80 64 16 184 160 104 184 160 104 208 184 128 208 184 128 184 160 104 184 160 104 184 160 104 152 120 64 152 120 64 152 120 64 16 16 16 248 248 144 248 248 144 248 248 144 248 248 144 248 248 144 248 248 144 248 248 144 248 248 144 248 248 144 248 248 144 248 248 144 248 248 144 248 248 144 248 248 144 248 248 144 232 200 104 232 200 104 232 200 104 232 200 104 232 200 104 232 200 104 16 16 16 184 160 104 152 120 64 16 16 16 255 255 255 255 255 255 255 255 255 255 255 255 255 255 255 255 255 255 255 255 255 255 255 255 255 255 255 255 255 255 255 255 255 255 255 255 
255 255 255 255 255 255 255 255 255 255 255 255 255 255 255 255 255 255 255 255 255 255 255 255 255 255 255 255 255 255 255 255 255 255 255 255 80 64 16 80 64 16 80 64 16 184 160 104 184 160 104 208 184 128 208 184 128 208 184 128 208 184 128 184 160 104 184 160 104 184 160 104 152 120 64 152 120 64 152 120 64 16 16 16 248 248 144 248 248 144 248 248 144 248 248 144 248 248 144 248 248 144 248 248 144 248 248 144 248 248 144 248 248 144 248 248 144 248 248 144 248 248 144 248 248 144 232 200 104 232 200 104 232 200 104 232 200 104 232 200 104 80 64 16 184 160 104 184 160 104 184 160 104 152 120 64 16 16 16 255 255 255 255 255 255 255 255 255 255 255 255 255 255 255 255 255 255 255 255 255 255 255 255 255 255 255 255 255 255 255 255 255 
255 255 255 255 255 255 255 255 255 255 255 255 255 255 255 255 255 255 255 255 255 255 255 255 80 64 16 80 64 16 80 64 16 80 64 16 80 64 16 152 120 64 80 64 16 184 160 104 184 160 104 208 184 128 208 184 128 208 184 128 208 184 128 184 160 104 184 160 104 184 160 104 152 120 64 152 120 64 152 120 64 80 64 16 248 248 144 248 248 144 248 248 144 248 248 144 248 248 144 248 248 144 248 248 144 248 248 144 248 248 144 248 248 144 248 248 144 248 248 144 248 248 144 232 200 104 232 200 104 232 200 104 232 200 104 232 200 104 232 200 104 16 16 16 184 160 104 184 160 104 184 160 104 184 160 104 16 16 16 255 255 255 255 255 255 255 255 255 255 255 255 255 255 255 255 255 255 255 255 255 255 255 255 255 255 255 255 255 255 255 255 255 
255 255 255 255 255 255 255 255 255 80 64 16 80 64 16 16 16 16 255 255 255 255 255 255 80 64 16 184 160 104 80 64 16 184 160 104 184 160 104 152 120 64 80 64 16 80 64 16 184 160 104 184 160 104 208 184 128 208 184 128 184 160 104 184 160 104 184 160 104 184 160 104 152 120 64 152 120 64 152 120 64 152 120 64 80 64 16 248 248 144 248 248 144 248 248 144 248 248 144 248 248 144 248 248 144 248 248 144 248 248 144 248 248 144 248 248 144 248 248 144 232 200 104 232 200 104 232 200 104 232 200 104 232 200 104 232 200 104 80 64 16 152 120 64 184 160 104 184 160 104 184 160 104 184 160 104 152 120 64 16 16 16 255 255 255 255 255 255 255 255 255 255 255 255 255 255 255 255 255 255 255 255 255 255 255 255 255 255 255 255 255 255 
255 255 255 255 255 255 255 255 255 80 64 16 184 160 104 152 120 64 80 64 16 80 64 16 80 64 16 80 64 16 184 160 104 184 160 104 152 120 64 80 64 16 208 184 128 208 184 128 80 64 16 184 160 104 184 160 104 184 160 104 184 160 104 184 160 104 184 160 104 152 120 64 152 120 64 152 120 64 152 120 64 152 120 64 16 16 16 232 200 104 232 200 104 248 248 144 248 248 144 248 248 144 248 248 144 248 248 144 248 248 144 232 200 104 232 200 104 232 200 104 232 200 104 232 200 104 232 200 104 232 200 104 232 200 104 232 200 104 16 16 16 152 120 64 184 160 104 184 160 104 184 160 104 184 160 104 152 120 64 16 16 16 255 255 255 255 255 255 255 255 255 255 255 255 255 255 255 255 255 255 255 255 255 255 255 255 255 255 255 255 255 255 
255 255 255 255 255 255 80 64 16 80 64 16 80 64 16 80 64 16 184 160 104 184 160 104 80 64 16 184 160 104 184 160 104 152 120 64 80 64 16 184 160 104 152 120 64 152 120 64 208 184 128 80 64 16 184 160 104 184 160 104 184 160 104 184 160 104 152 120 64 80 64 16 80 64 16 152 120 64 152 120 64 152 120 64 16 16 16 232 200 104 232 200 104 232 200 104 232 200 104 232 200 104 232 200 104 232 200 104 232 200 104 232 200 104 232 200 104 232 200 104 232 200 104 232 200 104 232 200 104 232 200 104 184 160 104 16 16 16 152 120 64 152 120 64 184 160 104 184 160 104 80 64 16 80 64 16 80 64 16 208 184 128 16 16 16 255 255 255 255 255 255 255 255 255 255 255 255 255 255 255 255 255 255 255 255 255 255 255 255 255 255 255 
255 255 255 255 255 255 16 16 16 184 160 104 184 160 104 184 160 104 184 160 104 184 160 104 184 160 104 184 160 104 152 120 64 152 120 64 80 64 16 184 160 104 184 160 104 152 120 64 152 120 64 16 16 16 152 120 64 184 160 104 184 160 104 152 120 64 80 64 16 208 184 128 208 184 128 80 64 16 16 16 16 152 120 64 16 16 16 80 64 16 232 200 104 232 200 104 232 200 104 232 200 104 232 200 104 232 200 104 232 200 104 232 200 104 232 200 104 232 200 104 232 200 104 232 200 104 232 200 104 184 160 104 80 64 16 152 120 64 152 120 64 152 120 64 152 120 64 80 64 16 208 184 128 208 184 128 208 184 128 152 120 64 16 16 16 255 255 255 255 255 255 255 255 255 255 255 255 255 255 255 255 255 255 255 255 255 255 255 255 255 255 255 
255 255 255 255 255 255 16 16 16 184 160 104 184 160 104 184 160 104 184 160 104 152 120 64 152 120 64 152 120 64 152 120 64 152 120 64 80 64 16 184 160 104 184 160 104 152 120 64 152 120 64 16 16 16 152 120 64 152 120 64 152 120 64 152 120 64 80 64 16 208 184 128 152 120 64 208 184 128 208 184 128 16 16 16 16 16 16 232 200 104 80 64 16 80 64 16 232 200 104 232 200 104 232 200 104 232 200 104 232 200 104 232 200 104 232 200 104 232 200 104 232 200 104 184 160 104 80 64 16 80 64 16 152 120 64 80 64 16 152 120 64 152 120 64 152 120 64 80 64 16 208 184 128 152 120 64 152 120 64 152 120 64 16 16 16 255 255 255 255 255 255 255 255 255 255 255 255 255 255 255 255 255 255 255 255 255 255 255 255 255 255 255 
255 255 255 255 255 255 255 255 255 16 16 16 152 120 64 152 120 64 152 120 64 152 120 64 152 120 64 152 120 64 152 120 64 152 120 64 80 64 16 184 160 104 184 160 104 152 120 64 80 64 16 152 120 64 152 120 64 152 120 64 152 120 64 80 64 16 208 184 128 152 120 64 152 120 64 152 120 64 152 120 64 152 120 64 16 16 16 232 200 104 232 200 104 232 200 104 80 64 16 80 64 16 16 16 16 16 16 16 16 16 16 16 16 16 16 16 16 16 16 16 16 16 16 80 64 16 152 120 64 152 120 64 152 120 64 208 184 128 80 64 16 152 120 64 152 120 64 152 120 64 80 64 16 208 184 128 152 120 64 152 120 64 16 16 16 255 255 255 255 255 255 255 255 255 255 255 255 255 255 255 255 255 255 255 255 255 255 255 255 255 255 255 
255 255 255 255 255 255 255 255 255 255 255 255 16 16 16 80 64 16 152 120 64 152 120 64 152 120 64 152 120 64 152 120 64 152 120 64 80 64 16 184 160 104 152 120 64 152 120 64 16 16 16 152 120 64 152 120 64 152 120 64 152 120 64 80 64 16 208 184 128 152 120 64 152 120 64 152 120 64 152 120 64 80 64 16 232 200 104 232 200 104 232 200 104 232 200 104 232 200 104 232 200 104 232 200 104 232 200 104 232 200 104 232 200 104 80 64 16 16 16 16 255 255 255 16 16 16 80 64 16 152 120 64 152 120 64 152 120 64 208 184 128 80 64 16 152 120 64 152 120 64 80 64 16 208 184 128 152 120 64 152 120 64 16 16 16 255 255 255 255 255 255 255 255 255 255 255 255 255 255 255 255 255 255 255 255 255 255 255 255 255 255 255 
255 255 255 255 255 255 255 255 255 255 255 255 255 255 255 255 255 255 16 16 16 16 16 16 80 64 16 152 120 64 152 120 64 152 120 64 152 120 64 16 16 16 16 16 16 16 16 16 152 120 64 152 120 64 152 120 64 152 120 64 152 120 64 152 120 64 16 16 16 152 120 64 152 120 64 152 120 64 152 120 64 16 16 16 184 160 104 184 160 104 184 160 104 184 160 104 184 160 104 184 160 104 184 160 104 184 160 104 80 64 16 16 16 16 255 255 255 255 255 255 255 255 255 255 255 255 16 16 16 80 64 16 152 120 64 152 120 64 208 184 128 80 64 16 152 120 64 152 120 64 152 120 64 80 64 16 16 16 16 16 16 16 255 255 255 255 255 255 255 255 255 255 255 255 255 255 255 255 255 255 255 255 255 255 255 255 255 255 255 255 255 255 
255 255 255 255 255 255 255 255 255 255 255 255 255 255 255 255 255 255 255 255 255 255 255 255 255 255 255 80 64 16 16 16 16 16 16 16 152 120 64 80 64 16 152 120 64 152 120 64 152 120 64 152 120 64 152 120 64 152 120 64 152 120 64 152 120 64 152 120 64 16 16 16 152 120 64 152 120 64 16 16 16 80 64 16 80 64 16 80 64 16 80 64 16 80 64 16 80 64 16 16 16 16 16 16 16 16 16 16 255 255 255 255 255 255 255 255 255 255 255 255 255 255 255 255 255 255 255 255 255 16 16 16 80 64 16 80 64 16 80 64 16 152 120 64 152 120 64 152 120 64 152 120 64 152 120 64 152 120 64 80 64 16 104 104 80 255 255 255 255 255 255 255 255 255 255 255 255 255 255 255 255 255 255 255 255 255 255 255 255 255 255 255 
255 255 255 255 255 255 255 255 255 255 255 255 255 255 255 255 255 255 255 255 255 255 255 255 255 255 255 255 255 255 255 255 255 255 255 255 80 64 16 80 64 16 152 120 64 152 120 64 152 120 64 152 120 64 152 120 64 152 120 64 152 120 64 152 120 64 152 120 64 152 120 64 80 64 16 80 64 16 184 160 104 184 160 104 184 160 104 184 160 104 184 160 104 80 64 16 16 16 16 255 255 255 255 255 255 255 255 255 255 255 255 255 255 255 255 255 255 255 255 255 255 255 255 255 255 255 255 255 255 255 255 255 16 16 16 152 120 64 152 120 64 152 120 64 152 120 64 152 120 64 152 120 64 152 120 64 80 64 16 248 248 248 248 248 248 104 104 80 255 255 255 255 255 255 255 255 255 255 255 255 255 255 255 255 255 255 255 255 255 255 255 255 
255 255 255 255 255 255 255 255 255 255 255 255 255 255 255 255 255 255 255 255 255 255 255 255 255 255 255 255 255 255 255 255 255 104 104 80 248 248 248 80 64 16 152 120 64 152 120 64 80 64 16 80 64 16 80 64 16 152 120 64 152 120 64 152 120 64 152 120 64 152 120 64 16 16 16 16 16 16 16 16 16 16 16 16 16 16 16 16 16 16 80 64 16 255 255 255 255 255 255 255 255 255 255 255 255 255 255 255 255 255 255 255 255 255 255 255 255 255 255 255 255 255 255 255 255 255 255 255 255 255 255 255 255 255 255 80 64 16 80 64 16 248 248 248 204 204 204 80 64 16 152 120 64 80 64 16 248 248 248 248 248 248 248 248 248 204 204 204 16 16 16 255 255 255 255 255 255 255 255 255 255 255 255 255 255 255 255 255 255 255 255 255 
255 255 255 255 255 255 255 255 255 255 255 255 255 255 255 255 255 255 255 255 255 255 255 255 255 255 255 255 255 255 104 104 80 204 204 204 204 204 204 104 104 80 80 64 16 80 64 16 248 248 248 248 248 248 248 248 248 80 64 16 152 120 64 152 120 64 152 120 64 80 64 16 16 16 16 255 255 255 255 255 255 255 255 255 255 255 255 255 255 255 255 255 255 255 255 255 255 255 255 255 255 255 255 255 255 255 255 255 255 255 255 255 255 255 255 255 255 255 255 255 255 255 255 255 255 255 255 255 255 255 255 255 255 255 255 104 104 80 248 248 248 248 248 248 204 204 204 16 16 16 16 16 16 248 248 248 248 248 248 248 248 248 204 204 204 204 204 204 204 204 204 16 16 16 255 255 255 255 255 255 255 255 255 255 255 255 255 255 255 255 255 255 
255 255 255 255 255 255 255 255 255 255 255 255 255 255 255 255 255 255 255 255 255 255 255 255 255 255 255 255 255 255 104 104 80 16 16 16 16 16 16 104 104 80 248 248 248 248 248 248 248 248 248 204 204 204 204 204 204 204 204 204 80 64 16 152 120 64 80 64 16 248 248 248 104 104 80 16 16 16 255 255 255 255 255 255 255 255 255 255 255 255 255 255 255 255 255 255 255 255 255 255 255 255 255 255 255 255 255 255 255 255 255 255 255 255 255 255 255 255 255 255 255 255 255 255 255 255 255 255 255 255 255 255 255 255 255 16 16 16 16 16 16 16 16 16 16 16 16 255 255 255 255 255 255 80 64 16 16 16 16 16 16 16 16 16 16 16 16 16 16 16 16 16 16 16 255 255 255 255 255 255 255 255 255 255 255 255 255 255 255 255 255 255 
255 255 255 255 255 255 255 255 255 255 255 255 255 255 255 255 255 255 255 255 255 255 255 255 255 255 255 255 255 255 255 255 255 255 255 255 255 255 255 104 104 80 248 248 248 248 248 248 248 248 248 204 204 204 204 204 204 204 204 204 80 64 16 104 104 80 248 248 248 248 248 248 248 248 248 16 16 16 255 255 255 255 255 255 255 255 255 255 255 255 255 255 255 255 255 255 255 255 255 255 255 255 255 255 255 255 255 255 255 255 255 255 255 255 255 255 255 255 255 255 255 255 255 255 255 255 255 255 255 255 255 255 255 255 255 255 255 255 255 255 255 255 255 255 255 255 255 255 255 255 255 255 255 255 255 255 255 255 255 255 255 255 255 255 255 255 255 255 255 255 255 255 255 255 255 255 255 255 255 255 255 255 255 255 255 255 255 255 255 255 255 255 
255 255 255 255 255 255 255 255 255 255 255 255 255 255 255 255 255 255 255 255 255 255 255 255 255 255 255 255 255 255 255 255 255 255 255 255 255 255 255 255 255 255 104 104 80 204 204 204 204 204 204 204 204 204 16 16 16 16 16 16 16 16 16 16 16 16 16 16 16 16 16 16 16 16 16 16 16 16 255 255 255 255 255 255 255 255 255 255 255 255 255 255 255 255 255 255 255 255 255 255 255 255 255 255 255 255 255 255 255 255 255 255 255 255 255 255 255 255 255 255 255 255 255 255 255 255 255 255 255 255 255 255 255 255 255 255 255 255 255 255 255 255 255 255 255 255 255 255 255 255 255 255 255 255 255 255 255 255 255 255 255 255 255 255 255 255 255 255 255 255 255 255 255 255 255 255 255 255 255 255 255 255 255 255 255 255 255 255 255 255 255 255 
255 255 255 255 255 255 255 255 255 255 255 255 255 255 255 255 255 255 255 255 255 255 255 255 255 255 255 255 255 255 255 255 255 255 255 255 255 255 255 255 255 255 255 255 255 16 16 16 16 16 16 16 16 16 255 255 255 255 255 255 255 255 255 255 255 255 255 255 255 255 255 255 255 255 255 255 255 255 255 255 255 255 255 255 255 255 255 255 255 255 255 255 255 255 255 255 255 255 255 255 255 255 255 255 255 255 255 255 255 255 255 255 255 255 255 255 255 255 255 255 255 255 255 255 255 255 255 255 255 255 255 255 255 255 255 255 255 255 255 255 255 255 255 255 255 255 255 255 255 255 255 255 255 255 255 255 255 255 255 255 255 255 255 255 255 255 255 255 255 255 255 255 255 255 255 255 255 255 255 255 255 255 255 255 255 255 255 255 255 255 255 255 
