P3
64 64
255
255 255 255 255 255 255 255 255 255 255 255 255 255 255 255 255 255 255 255 255 255 255 255 255 255 255 255 255 255 255 255 255 255 255 255 255 255 255 255 255 255 255 255 255 255 255 255 255 255 255 255 255 255 255 255 255 255 255 255 255 255 255 255 255 255 255 255 255 255 255 255 255 255 255 255 255 255 255 255 255 255 255 255 255 255 255 255 255 255 255 255 255 255 255 255 255 255 255 255 255 255 255 255 255 255 255 255 255 255 255 255 255 255 255 255 255 255 255 255 255 255 255 255 255 255 255 255 255 255 255 255 255 255 255 255 255 255 255 255 255 255 255 255 255 255 255 255 255 255 255 255 255 255 255 255 255 255 255 255 255 255 255 255 255 255 255 255 255 255 255 255 255 255 255 255 255 255 255 255 255 255 255 255 255 255 255 255 255 255 255 255 255 
255 255 255 255 255 255 255 255 255 255 255 255 255 255 255 255 255 255 255 255 255 255 255 255 255 255 255 255 255 255 255 255 255 255 255 255 255 255 255 255 255 255 255 255 255 255 255 255 255 255 255 255 255 255 255 255 255 255 255 255 255 255 255 255 255 255 255 255 255 255 255 255 255 255 255 255 255 255 255 255 255 255 255 255 255 255 255 255 255 255 255 255 255 255 255 255 255 255 255 255 255 255 255 255 255 255 255 255 255 255 255 255 255 255 255 255 255 255 255 255 255 255 255 255 255 255 255 255 255 255 255 255 255 255 255 255 255 255 255 255 255 255 255 255 255 255 255 255 255 255 255 255 255 255 255 255 255 255 255 255 255 255 255 255 255 255 255 255 255 255 255 255 255 255 255 255 255 255 255 255 255 255 255 255 255 255 255 255 255 255 255 255 
255 255 255 255 255 255 255 255 255 255 255 255 255 255 255 255 255 255 255 255 255 255 255 255 255 255 255 255 255 255 255 255 255 255 255 255 255 255 255 255 255 255 255 255 255 255 255 255 255 255 255 255 255 255 255 255 255 255 255 255 255 255 255 255 255 255 255 255 255 255 255 255 255 255 255 255 255 255 255 255 255 255 255 255 255 255 255 255 255 255 255 255 255 255 255 255 255 255 255 255 255 255 255 255 255 255 255 255 255 255 255 255 255 255 255 255 255 255 255 255 255 255 255 255 255 255 255 255 255 255 255 255 255 255 255 255 255 255 255 255 255 255 255 255 255 255 255 255 255 255 255 255 255 255 255 255 255 255 255 255 255 255 255 255 255 255 255 255 255 255 255 255 255 255 255 255 255 255 255 255 255 255 255 255 255 255 255 255 255 255 255 255 
255 255 255 255 255 255 255 255 255 255 255 255 255 255 255 255 255 255 255 255 255 255 255 255 255 255 255 255 255 255 255 255 255 255 255 255 255 255 255 255 255 255 255 255 255 255 255 255 255 255 255 255 255 255 255 255 255 255 255 255 255 255 255 255 255 255 255 255 255 255 255 255 255 255 255 255 255 255 255 255 255 255 255 255 255 255 255 255 255 255 255 255 255 255 255 255 255 255 255 255 255 255 255 255 255 255 255 255 255 255 255 255 255 255 255 255 255 255 255 255 255 255 255 255 255 255 255 255 255 255 255 255 255 255 255 255 255 255 255 255 255 255 255 255 255 255 255 255 255 255 255 255 255 255 255 255 255 255 255 255 255 255 255 255 255 255 255 255 255 255 255 255 255 255 255 255 255 255 255 255 255 255 255 255 255 255 255 255 255 255 255 255 
255 255 255 255 255 255 255 255 255 255 255 255 255 255 255 255 255 255 255 255 255 255 255 255 255 255 255 255 255 255 255 255 255 255 255 255 255 255 255 255 255 255 255 255 255 255 255 255 255 255 255 255 255 255 255 255 255 255 255 255 255 255 255 255 255 255 255 255 255 255 255 255 255 255 255 255 255 255 255 255 255 255 255 255 255 255 255 255 255 255 255 255 255 255 255 255 255 255 255 255 255 255 255 255 255 255 255 255 255 255 255 255 255 255 255 255 255 255 255 255 255 255 255 255 255 255 255 255 255 255 255 255 255 255 255 255 255 255 255 255 255 255 255 255 255 255 255 255 255 255 152 96 16 152 96 16 152 96 16 255 255 255 255 255 255 255 255 255 255 255 255 255 255 255 255 255 255 255 255 255 255 255 255 255 255 255 255 255 255 255 255 255 
255 255 255 255 255 255 255 255 255 255 255 255 255 255 255 255 255 255 255 255 255 255 255 255 255 255 255 255 255 255 255 255 255 255 255 255 255 255 255 255 255 255 255 255 255 255 255 255 255 255 255 255 255 255 255 255 255 255 255 255 255 255 255 255 255 255 255 255 255 255 255 255 255 255 255 255 255 255 255 255 255 255 255 255 255 255 255 255 255 255 255 255 255 255 255 255 255 255 255 255 255 255 255 255 255 255 255 255 255 255 255 255 255 255 255 255 255 255 255 255 255 255 255 255 255 255 255 255 255 152 96 16 16 16 16 255 255 255 255 255 255 255 255 255 152 96 16 152 96 16 248 232 160 208 152 72 208 152 72 255 255 255 255 255 255 255 255 255 255 255 255 255 255 255 255 255 255 255 255 255 255 255 255 255 255 255 255 255 255 255 255 255 
255 255 255 255 255 255 255 255 255 255 255 255 255 255 255 255 255 255 255 255 255 255 255 255 255 255 255 255 255 255 255 255 255 255 255 255 255 255 255 255 255 255 255 255 255 255 255 255 255 255 255 255 255 255 255 255 255 255 255 255 255 255 255 255 255 255 255 255 255 255 255 255 255 255 255 255 255 255 255 255 255 255 255 255 255 255 255 255 255 255 255 255 255 255 255 255 255 255 255 255 255 255 255 255 255 255 255 255 255 255 255 255 255 255 255 255 255 255 255 255 255 255 255 255 255 255 152 96 16 248 232 160 16 16 16 255 255 255 152 96 16 152 96 16 248 232 160 248 232 160 248 208 104 16 16 16 255 255 255 255 255 255 255 255 255 255 255 255 255 255 255 255 255 255 255 255 255 255 255 255 255 255 255 255 255 255 255 255 255 255 255 255 
255 255 255 255 255 255 255 255 255 255 255 255 255 255 255 255 255 255 255 255 255 255 255 255 255 255 255 255 255 255 255 255 255 255 255 255 255 255 255 255 255 255 255 255 255 255 255 255 255 255 255 255 255 255 255 255 255 255 255 255 255 255 255 255 255 255 255 255 255 255 255 255 255 255 255 255 255 255 255 255 255 255 255 255 255 255 255 255 255 255 255 255 255 255 255 255 255 255 255 255 255 255 255 255 255 255 255 255 255 255 255 255 255 255 255 255 255 255 255 255 255 255 255 255 255 255 152 96 16 248 232 160 152 96 16 152 96 16 248 232 160 248 232 160 248 232 160 248 208 104 152 96 16 152 96 16 152 96 16 152 96 16 152 96 16 152 96 16 255 255 255 255 255 255 255 255 255 255 255 255 255 255 255 255 255 255 255 255 255 255 255 255 
255 255 255 255 255 255 255 255 255 255 255 255 255 255 255 255 255 255 255 255 255 255 255 255 255 255 255 255 255 255 255 255 255 255 255 255 255 255 255 255 255 255 255 255 255 255 255 255 255 255 255 255 255 255 255 255 255 255 255 255 255 255 255 255 255 255 255 255 255 255 255 255 255 255 255 255 255 255 255 255 255 255 255 255 255 255 255 255 255 255 255 255 255 255 255 255 255 255 255 255 255 255 255 255 255 255 255 255 255 255 255 255 255 255 255 255 255 255 255 255 255 255 255 152 96 16 248 232 160 152 96 16 248 232 160 248 232 160 248 232 160 248 232 160 248 208 104 248 208 104 248 208 104 248 208 104 248 208 104 248 208 104 248 208 104 248 208 104 248 208 104 152 96 16 152 96 16 255 255 255 255 255 255 255 255 255 255 255 255 255 255 255 
255 255 255 255 255 255 255 255 255 255 255 255 255 255 255 255 255 255 255 255 255 255 255 255 255 255 255 255 255 255 255 255 255 255 255 255 255 255 255 255 255 255 255 255 255 255 255 255 255 255 255 255 255 255 255 255 255 255 255 255 255 255 255 255 255 255 255 255 255 255 255 255 255 255 255 255 255 255 255 255 255 255 255 255 255 255 255 255 255 255 255 255 255 255 255 255 255 255 255 255 255 255 255 255 255 255 255 255 255 255 255 255 255 255 255 255 255 255 255 255 152 96 16 152 96 16 248 232 160 152 96 16 248 232 160 248 232 160 248 232 160 248 232 160 248 232 160 248 232 160 248 232 160 248 208 104 248 208 104 248 208 104 248 208 104 208 152 72 208 152 72 208 152 72 208 152 72 152 96 16 255 255 255 255 255 255 255 255 255 255 255 255 
255 255 255 255 255 255 255 255 255 255 255 255 255 255 255 255 255 255 255 255 255 255 255 255 255 255 255 255 255 255 255 255 255 255 255 255 255 255 255 255 255 255 255 255 255 255 255 255 255 255 255 255 255 255 255 255 255 255 255 255 255 255 255 255 255 255 255 255 255 255 255 255 255 255 255 255 255 255 255 255 255 255 255 255 255 255 255 255 255 255 255 255 255 255 255 255 255 255 255 255 255 255 255 255 255 255 255 255 255 255 255 255 255 255 255 255 255 208 152 72 248 232 160 248 232 160 248 232 160 248 232 160 248 232 160 248 232 160 248 232 160 248 208 104 248 208 104 248 208 104 248 208 104 248 208 104 248 208 104 248 208 104 208 152 72 208 152 72 16 16 16 16 16 16 16 16 16 16 16 16 152 96 16 255 255 255 255 255 255 255 255 255 
255 255 255 255 255 255 255 255 255 255 255 255 255 255 255 255 255 255 255 255 255 255 255 255 255 255 255 255 255 255 255 255 255 255 255 255 255 255 255 255 255 255 255 255 255 255 255 255 255 255 255 255 255 255 255 255 255 255 255 255 255 255 255 255 255 255 255 255 255 255 255 255 255 255 255 255 255 255 255 255 255 255 255 255 255 255 255 255 255 255 255 255 255 255 255 255 255 255 255 255 255 255 255 255 255 208 152 72 208 152 72 255 255 255 255 255 255 248 232 160 248 232 160 248 232 160 248 232 160 248 232 160 248 232 160 152 96 16 152 96 16 248 208 104 248 208 104 248 208 104 248 208 104 248 208 104 248 208 104 248 208 104 248 208 104 152 96 16 255 255 255 255 255 255 255 255 255 255 255 255 16 16 16 16 16 16 255 255 255 255 255 255 
255 255 255 255 255 255 255 255 255 255 255 255 255 255 255 255 255 255 255 255 255 255 255 255 255 255 255 255 255 255 255 255 255 255 255 255 255 255 255 255 255 255 255 255 255 255 255 255 255 255 255 255 255 255 255 255 255 255 255 255 255 255 255 255 255 255 255 255 255 255 255 255 255 255 255 255 255 255 255 255 255 255 255 255 255 255 255 255 255 255 255 255 255 255 255 255 255 255 255 255 255 255 255 255 255 152 96 16 248 232 160 152 96 16 152 96 16 248 232 160 248 232 160 248 232 160 248 208 104 248 208 104 248 208 104 152 96 16 248 232 160 16 16 16 248 208 104 248 208 104 248 208 104 248 208 104 248 208 104 248 208 104 248 208 104 248 208 104 16 16 16 255 255 255 255 255 255 255 255 255 255 255 255 255 255 255 255 255 255 255 255 255 
255 255 255 255 255 255 255 255 255 255 255 255 255 255 255 255 255 255 255 255 255 255 255 255 255 255 255 255 255 255 255 255 255 255 255 255 255 255 255 255 255 255 255 255 255 255 255 255 255 255 255 255 255 255 255 255 255 255 255 255 255 255 255 255 255 255 255 255 255 255 255 255 255 255 255 255 255 255 255 255 255 255 255 255 255 255 255 255 255 255 255 255 255 255 255 255 255 255 255 255 255 255 255 255 255 152 96 16 248 232 160 248 208 104 16 16 16 248 232 160 248 232 160 248 208 104 248 208 104 248 208 104 248 208 104 152 96 16 208 152 72 248 232 160 16 16 16 248 208 104 248 208 104 248 208 104 248 208 104 248 208 104 248 208 104 248 208 104 248 208 104 16 16 16 255 255 255 255 255 255 255 255 255 255 255 255 255 255 255 255 255 255 
255 255 255 255 255 255 255 255 255 255 255 255 255 255 255 255 255 255 255 255 255 255 255 255 255 255 255 255 255 255 255 255 255 255 255 255 255 255 255 255 255 255 255 255 255 255 255 255 255 255 255 255 255 255 255 255 255 255 255 255 255 255 255 255 255 255 255 255 255 255 255 255 255 255 255 255 255 255 255 255 255 255 255 255 255 255 255 255 255 255 255 255 255 255 255 255 255 255 255 255 255 255 255 255 255 255 255 255 152 96 16 208 152 72 16 16 16 248 232 160 248 232 160 248 208 104 248 208 104 208 152 72 248 208 104 152 96 16 208 152 72 248 232 160 152 96 16 248 208 104 248 208 104 248 208 104 248 208 104 248 208 104 248 208 104 248 208 104 248 208 104 152 96 16 255 255 255 255 255 255 255 255 255 255 255 255 255 255 255 255 255 255 
255 255 255 255 255 255 255 255 255 255 255 255 255 255 255 255 255 255 255 255 255 255 255 255 255 255 255 255 255 255 255 255 255 255 255 255 255 255 255 255 255 255 255 255 255 255 255 255 255 255 255 255 255 255 255 255 255 255 255 255 255 255 255 255 255 255 255 255 255 255 255 255 255 255 255 255 255 255 255 255 255 255 255 255 255 255 255 255 255 255 255 255 255 255 255 255 255 255 255 255 255 255 255 255 255 255 255 255 152 96 16 208 152 72 16 16 16 248 232 160 248 208 104 248 208 104 208 152 72 208 152 72 248 208 104 152 96 16 208 152 72 208 152 72 248 208 104 16 16 16 248 208 104 248 208 104 248 208 104 248 208 104 248 208 104 248 208 104 248 208 104 248 208 104 16 16 16 255 255 255 255 255 255 255 255 255 255 255 255 255 255 255 
255 255 255 255 255 255 255 255 255 255 255 255 255 255 255 255 255 255 255 255 255 255 255 255 255 255 255 255 255 255 255 255 255 255 255 255 255 255 255 255 255 255 255 255 255 255 255 255 255 255 255 255 255 255 255 255 255 255 255 255 255 255 255 255 255 255 255 255 255 255 255 255 255 255 255 255 255 255 255 255 255 255 255 255 255 255 255 255 255 255 255 255 255 255 255 255 255 255 255 255 255 255 255 255 255 255 255 255 152 96 16 208 152 72 152 96 16 152 96 16 248 208 104 248 208 104 152 96 16 208 152 72 248 208 104 248 208 104 208 152 72 208 152 72 248 208 104 16 16 16 248 208 104 248 208 104 248 208 104 208 152 72 248 208 104 248 208 104 248 208 104 248 208 104 152 96 16 255 255 255 255 255 255 255 255 255 255 255 255 255 255 255 
255 255 255 255 255 255 255 255 255 255 255 255 255 255 255 255 255 255 255 255 255 255 255 255 255 255 255 255 255 255 255 255 255 255 255 255 255 255 255 255 255 255 255 255 255 255 255 255 255 255 255 255 255 255 152 96 16 152 96 16 152 96 16 152 96 16 208 152 72 255 255 255 255 255 255 152 96 16 152 96 16 152 96 16 255 255 255 255 255 255 255 255 255 255 255 255 255 255 255 255 255 255 255 255 255 255 255 255 255 255 255 152 96 16 248 232 160 248 232 160 152 96 16 208 152 72 248 208 104 248 208 104 248 208 104 248 208 104 248 208 104 248 208 104 248 208 104 16 16 16 208 152 72 248 208 104 248 208 104 208 152 72 208 152 72 248 208 104 248 208 104 248 208 104 208 152 72 16 16 16 255 255 255 255 255 255 255 255 255 255 255 255 
255 255 255 255 255 255 255 255 255 255 255 255 255 255 255 255 255 255 255 255 255 255 255 255 255 255 255 255 255 255 255 255 255 255 255 255 255 255 255 255 255 255 255 255 255 255 255 255 152 96 16 208 152 72 248 232 160 248 232 160 248 232 160 248 232 160 248 232 160 152 96 16 152 96 16 248 208 104 248 208 104 248 208 104 208 152 72 152 96 16 255 255 255 255 255 255 255 255 255 255 255 255 255 255 255 255 255 255 255 255 255 152 96 16 248 232 160 248 232 160 248 208 104 248 208 104 248 208 104 248 208 104 248 208 104 208 152 72 248 208 104 248 208 104 248 208 104 152 96 16 208 152 72 208 152 72 248 208 104 248 208 104 208 152 72 208 152 72 248 208 104 248 208 104 208 152 72 16 16 16 255 255 255 255 255 255 255 255 255 255 255 255 
255 255 255 255 255 255 255 255 255 255 255 255 255 255 255 255 255 255 255 255 255 255 255 255 255 255 255 255 255 255 255 255 255 255 255 255 255 255 255 255 255 255 255 255 255 152 96 16 248 208 104 248 208 104 248 208 104 248 208 104 248 208 104 248 232 160 248 232 160 248 232 160 248 232 160 152 96 16 152 96 16 248 208 104 248 208 104 248 232 160 152 96 16 255 255 255 255 255 255 255 255 255 255 255 255 255 255 255 255 255 255 176 16 0 248 232 160 248 232 160 248 232 160 248 232 160 248 208 104 176 16 0 176 16 0 248 104 40 248 232 160 248 208 104 248 208 104 248 208 104 152 96 16 208 152 72 208 152 72 248 208 104 208 152 72 208 152 72 248 208 104 248 208 104 208 152 72 152 96 16 255 255 255 255 255 255 255 255 255 255 255 255 
255 255 255 255 255 255 255 255 255 255 255 255 255 255 255 255 255 255 255 255 255 255 255 255 255 255 255 255 255 255 255 255 255 255 255 255 255 255 255 255 255 255 152 96 16 152 96 16 152 96 16 152 96 16 152 96 16 152 96 16 248 208 104 248 208 104 248 208 104 248 232 160 248 232 160 248 232 160 248 232 160 152 96 16 248 208 104 248 232 160 248 232 160 152 96 16 255 255 255 255 255 255 255 255 255 255 255 255 255 255 255 176 16 0 248 232 160 248 232 160 248 232 160 248 232 160 176 16 0 176 16 0 248 248 248 208 152 72 248 232 160 248 232 160 248 208 104 248 208 104 16 16 16 152 96 16 208 152 72 152 96 16 208 152 72 208 152 72 208 152 72 248 208 104 208 152 72 208 152 72 152 96 16 255 255 255 255 255 255 255 255 255 
255 255 255 255 255 255 255 255 255 255 255 255 255 255 255 255 255 255 255 255 255 255 255 255 255 255 255 255 255 255 255 255 255 255 255 255 152 96 16 208 152 72 248 232 160 248 232 160 248 232 160 248 232 160 248 232 160 248 232 160 208 152 72 152 96 16 248 208 104 248 208 104 248 208 104 248 232 160 248 232 160 248 232 160 152 96 16 248 208 104 248 232 160 248 232 160 16 16 16 255 255 255 255 255 255 255 255 255 255 255 255 248 104 40 248 232 160 248 232 160 248 232 160 248 232 160 176 16 0 248 104 40 248 104 40 248 232 160 248 232 160 248 232 160 248 208 104 248 208 104 16 16 16 255 255 255 208 152 72 255 255 255 152 96 16 208 152 72 208 152 72 248 208 104 208 152 72 208 152 72 16 16 16 255 255 255 255 255 255 255 255 255 
255 255 255 255 255 255 255 255 255 255 255 255 255 255 255 255 255 255 255 255 255 255 255 255 255 255 255 255 255 255 255 255 255 152 96 16 248 232 160 248 232 160 248 232 160 248 232 160 248 232 160 248 232 160 248 232 160 248 232 160 248 232 160 248 232 160 152 96 16 152 96 16 248 208 104 248 208 104 248 208 104 248 232 160 248 232 160 16 16 16 248 208 104 248 232 160 248 208 104 16 16 16 255 255 255 255 255 255 152 96 16 248 232 160 248 232 160 248 232 160 248 232 160 248 232 160 208 152 72 248 232 160 248 232 160 248 232 160 248 232 160 248 208 104 248 208 104 248 208 104 152 96 16 255 255 255 255 255 255 255 255 255 152 96 16 208 152 72 152 96 16 208 152 72 208 152 72 208 152 72 16 16 16 255 255 255 255 255 255 255 255 255 
255 255 255 255 255 255 255 255 255 255 255 255 255 255 255 255 255 255 255 255 255 255 255 255 255 255 255 255 255 255 152 96 16 248 232 160 248 232 160 248 232 160 248 232 160 248 232 160 248 232 160 248 232 160 248 232 160 248 232 160 248 232 160 248 232 160 248 232 160 248 232 160 152 96 16 248 208 104 248 208 104 248 208 104 248 232 160 248 232 160 16 16 16 248 208 104 248 208 104 152 96 16 255 255 255 255 255 255 152 96 16 248 232 160 248 232 160 248 232 160 248 232 160 248 232 160 248 232 160 248 232 160 248 208 104 248 208 104 248 208 104 248 208 104 248 208 104 248 208 104 248 208 104 152 96 16 255 255 255 255 255 255 255 255 255 152 96 16 255 255 255 152 96 16 208 152 72 208 152 72 16 16 16 255 255 255 255 255 255 255 255 255 
255 255 255 255 255 255 255 255 255 255 255 255 255 255 255 255 255 255 255 255 255 255 255 255 255 255 255 152 96 16 248 232 160 248 232 160 248 232 160 248 232 160 248 232 160 248 208 104 248 208 104 248 208 104 248 208 104 248 208 104 248 208 104 248 232 160 248 232 160 248 232 160 248 232 160 152 96 16 248 208 104 248 208 104 248 208 104 248 208 104 248 208 104 16 16 16 248 208 104 248 208 104 16 16 16 255 255 255 152 96 16 248 232 160 248 232 160 248 232 160 248 232 160 248 232 160 248 208 104 208 152 72 152 96 16 152 96 16 208 152 72 248 208 104 248 208 104 248 208 104 248 208 104 16 16 16 255 255 255 255 255 255 255 255 255 152 96 16 255 255 255 152 96 16 208 152 72 208 152 72 16 16 16 255 255 255 255 255 255 255 255 255 
255 255 255 255 255 255 255 255 255 255 255 255 255 255 255 255 255 255 255 255 255 255 255 255 255 255 255 16 16 16 248 232 160 248 232 160 248 208 104 248 208 104 248 208 104 248 208 104 248 208 104 248 208 104 248 208 104 248 208 104 248 208 104 248 208 104 248 208 104 248 232 160 248 232 160 248 232 160 16 16 16 248 208 104 248 208 104 248 208 104 248 208 104 152 96 16 248 208 104 248 208 104 16 16 16 255 255 255 16 16 16 152 96 16 208 152 72 248 208 104 248 208 104 208 152 72 152 96 16 152 96 16 208 152 72 208 152 72 248 208 104 248 208 104 248 208 104 248 208 104 248 208 104 16 16 16 255 255 255 255 255 255 255 255 255 255 255 255 255 255 255 255 255 255 152 96 16 208 152 72 16 16 16 255 255 255 255 255 255 255 255 255 
255 255 255 255 255 255 255 255 255 255 255 255 255 255 255 255 255 255 255 255 255 255 255 255 16 16 16 248 208 104 248 232 160 248 208 104 248 208 104 248 208 104 248 208 104 248 208 104 152 96 16 152 96 16 152 96 16 152 96 16 248 208 104 248 208 104 248 208 104 248 208 104 248 208 104 248 232 160 248 232 160 16 16 16 248 208 104 248 208 104 248 208 104 248 208 104 152 96 16 248 208 104 152 96 16 255 255 255 152 96 16 208 152 72 248 208 104 208 152 72 16 16 16 16 16 16 208 152 72 208 152 72 208 152 72 248 208 104 248 208 104 248 208 104 248 208 104 248 208 104 248 208 104 152 96 16 255 255 255 255 255 255 255 255 255 255 255 255 255 255 255 255 255 255 152 96 16 208 152 72 16 16 16 255 255 255 255 255 255 255 255 255 
255 255 255 255 255 255 255 255 255 255 255 255 255 255 255 255 255 255 255 255 255 255 255 255 16 16 16 248 208 104 248 208 104 248 208 104 248 208 104 248 208 104 152 96 16 208 152 72 248 232 160 248 232 160 248 232 160 248 232 160 208 152 72 152 96 16 248 208 104 248 208 104 248 208 104 248 208 104 248 208 104 16 16 16 248 208 104 248 208 104 248 208 104 208 152 72 16 16 16 248 208 104 208 152 72 152 96 16 255 255 255 152 96 16 16 16 16 16 16 16 152 96 16 248 232 160 248 232 160 248 208 104 248 208 104 248 208 104 248 208 104 248 208 104 248 208 104 248 208 104 248 208 104 248 208 104 152 96 16 255 255 255 255 255 255 255 255 255 255 255 255 255 255 255 255 255 255 152 96 16 16 16 16 255 255 255 255 255 255 255 255 255 
255 255 255 255 255 255 255 255 255 255 255 255 255 255 255 255 255 255 255 255 255 255 255 255 152 96 16 248 208 104 248 208 104 248 208 104 152 96 16 208 152 72 248 232 160 248 232 160 248 232 160 248 232 160 248 232 160 248 232 160 248 232 160 248 232 160 152 96 16 248 208 104 248 208 104 248 208 104 248 208 104 248 208 104 16 16 16 248 208 104 208 152 72 208 152 72 16 16 16 208 152 72 208 152 72 16 16 16 255 255 255 255 255 255 255 255 255 255 255 255 152 96 16 248 232 160 248 232 160 248 208 104 248 208 104 248 208 104 248 208 104 248 208 104 248 208 104 248 208 104 248 208 104 248 208 104 208 152 72 16 16 16 255 255 255 255 255 255 255 255 255 255 255 255 255 255 255 152 96 16 152 96 16 255 255 255 255 255 255 255 255 255 
255 255 255 255 255 255 255 255 255 255 255 255 255 255 255 255 255 255 255 255 255 152 96 16 248 208 104 248 208 104 248 208 104 152 96 16 248 232 160 248 232 160 248 232 160 248 232 160 248 232 160 248 232 160 248 232 160 248 232 160 248 232 160 248 232 160 248 232 160 16 16 16 248 208 104 248 208 104 248 208 104 248 208 104 16 16 16 248 208 104 208 152 72 208 152 72 16 16 16 208 152 72 208 152 72 16 16 16 255 255 255 255 255 255 255 255 255 255 255 255 152 96 16 248 232 160 248 232 160 248 232 160 248 208 104 248 208 104 248 208 104 248 208 104 248 208 104 248 208 104 248 208 104 248 208 104 16 16 16 255 255 255 255 255 255 255 255 255 255 255 255 255 255 255 255 255 255 255 255 255 152 96 16 255 255 255 255 255 255 255 255 255 
255 255 255 255 255 255 255 255 255 255 255 255 255 255 255 255 255 255 255 255 255 16 16 16 248 208 104 248 208 104 152 96 16 248 232 160 248 232 160 248 232 160 248 208 104 248 208 104 248 208 104 248 208 104 248 232 160 248 232 160 248 232 160 248 232 160 248 232 160 248 232 160 16 16 16 248 208 104 248 208 104 248 208 104 16 16 16 208 152 72 208 152 72 208 152 72 16 16 16 208 152 72 208 152 72 16 16 16 16 16 16 255 255 255 255 255 255 152 96 16 248 232 160 248 232 160 248 232 160 248 232 160 248 208 104 248 208 104 248 208 104 248 208 104 248 208 104 248 208 104 248 208 104 248 208 104 248 208 104 152 96 16 255 255 255 255 255 255 255 255 255 255 255 255 255 255 255 255 255 255 255 255 255 255 255 255 255 255 255 255 255 255 
255 255 255 255 255 255 255 255 255 255 255 255 255 255 255 255 255 255 255 255 255 16 16 16 248 208 104 16 16 16 248 232 160 248 232 160 248 232 160 248 208 104 248 208 104 248 208 104 248 208 104 248 208 104 248 208 104 248 208 104 248 232 160 248 232 160 248 232 160 248 208 104 248 208 104 152 96 16 248 208 104 208 152 72 16 16 16 208 152 72 208 152 72 208 152 72 16 16 16 208 152 72 208 152 72 16 16 16 208 152 72 16 16 16 255 255 255 152 96 16 248 232 160 152 96 16 248 232 160 248 232 160 152 96 16 248 208 104 248 208 104 248 208 104 248 208 104 248 208 104 248 208 104 248 208 104 208 152 72 16 16 16 255 255 255 255 255 255 255 255 255 255 255 255 255 255 255 255 255 255 255 255 255 255 255 255 255 255 255 255 255 255 
255 255 255 255 255 255 255 255 255 255 255 255 255 255 255 255 255 255 255 255 255 152 96 16 248 208 104 152 96 16 248 232 160 248 232 160 248 208 104 248 208 104 248 208 104 248 208 104 248 208 104 248 208 104 248 208 104 248 208 104 248 208 104 248 208 104 248 208 104 248 208 104 248 208 104 16 16 16 208 152 72 208 152 72 16 16 16 208 152 72 208 152 72 208 152 72 152 96 16 208 152 72 208 152 72 152 96 16 208 152 72 16 16 16 152 96 16 248 208 104 152 96 16 152 96 16 248 232 160 248 232 160 16 16 16 152 96 16 248 208 104 248 208 104 248 208 104 248 208 104 248 208 104 248 208 104 248 208 104 16 16 16 255 255 255 255 255 255 255 255 255 255 255 255 255 255 255 255 255 255 255 255 255 255 255 255 255 255 255 255 255 255 
255 255 255 255 255 255 255 255 255 255 255 255 255 255 255 255 255 255 255 255 255 255 255 255 16 16 16 248 208 104 248 232 160 248 208 104 248 208 104 248 208 104 248 208 104 248 208 104 248 208 104 248 208 104 248 208 104 248 208 104 248 208 104 248 208 104 248 208 104 248 208 104 248 208 104 208 152 72 152 96 16 208 152 72 208 152 72 152 96 16 208 152 72 152 96 16 208 152 72 208 152 72 152 96 16 208 152 72 208 152 72 16 16 16 152 96 16 248 208 104 152 96 16 248 208 104 152 96 16 248 232 160 16 16 16 152 96 16 248 208 104 248 208 104 248 208 104 248 208 104 248 208 104 248 208 104 248 208 104 208 152 72 152 96 16 255 255 255 255 255 255 255 255 255 255 255 255 255 255 255 255 255 255 255 255 255 255 255 255 255 255 255 
255 255 255 255 255 255 255 255 255 255 255 255 255 255 255 255 255 255 255 255 255 255 255 255 152 96 16 248 208 104 248 208 104 248 208 104 248 208 104 208 152 72 248 208 104 248 208 104 248 208 104 248 208 104 248 208 104 248 208 104 248 208 104 248 208 104 248 208 104 248 208 104 248 208 104 208 152 72 16 16 16 208 152 72 208 152 72 16 16 16 208 152 72 16 16 16 208 152 72 208 152 72 16 16 16 208 152 72 208 152 72 152 96 16 248 208 104 248 208 104 248 208 104 248 208 104 152 96 16 152 96 16 248 208 104 248 208 104 152 96 16 248 208 104 248 208 104 248 208 104 208 152 72 248 208 104 248 208 104 208 152 72 16 16 16 255 255 255 255 255 255 255 255 255 255 255 255 255 255 255 255 255 255 255 255 255 255 255 255 255 255 255 
255 255 255 255 255 255 255 255 255 255 255 255 255 255 255 255 255 255 255 255 255 152 96 16 248 208 104 248 208 104 248 208 104 248 208 104 248 208 104 248 208 104 208 152 72 248 208 104 248 208 104 248 208 104 248 208 104 248 208 104 248 208 104 248 208 104 248 208 104 248 208 104 248 208 104 208 152 72 16 16 16 208 152 72 208 152 72 16 16 16 208 152 72 16 16 16 208 152 72 208 152 72 152 96 16 208 152 72 152 96 16 248 208 104 248 208 104 248 208 104 248 208 104 248 208 104 152 96 16 248 208 104 248 208 104 248 208 104 152 96 16 152 96 16 248 208 104 248 208 104 152 96 16 248 208 104 208 152 72 208 152 72 16 16 16 255 255 255 255 255 255 255 255 255 255 255 255 255 255 255 255 255 255 255 255 255 255 255 255 255 255 255 
255 255 255 255 255 255 255 255 255 255 255 255 255 255 255 255 255 255 255 255 255 16 16 16 248 208 104 248 208 104 248 208 104 248 208 104 248 208 104 248 208 104 152 96 16 248 208 104 248 208 104 248 208 104 248 208 104 248 208 104 248 208 104 248 208 104 248 208 104 248 208 104 208 152 72 208 152 72 16 16 16 208 152 72 208 152 72 16 16 16 208 152 72 152 96 16 208 152 72 208 152 72 152 96 16 152 96 16 248 208 104 248 232 160 248 208 104 248 208 104 248 232 160 248 208 104 248 208 104 248 208 104 248 208 104 248 208 104 248 208 104 152 96 16 248 208 104 248 208 104 16 16 16 152 96 16 208 152 72 152 96 16 255 255 255 255 255 255 255 255 255 255 255 255 255 255 255 255 255 255 255 255 255 255 255 255 255 255 255 255 255 255 
255 255 255 255 255 255 255 255 255 255 255 255 255 255 255 255 255 255 255 255 255 16 16 16 248 208 104 248 208 104 248 208 104 248 208 104 248 208 104 248 208 104 248 208 104 152 96 16 248 208 104 248 208 104 248 208 104 248 208 104 248 208 104 248 208 104 248 208 104 248 208 104 208 152 72 208 152 72 208 152 72 16 16 16 208 152 72 152 96 16 208 152 72 208 152 72 208 152 72 152 96 16 152 96 16 248 232 160 248 232 160 248 208 104 248 208 104 208 152 72 248 232 160 248 208 104 248 208 104 248 208 104 248 208 104 248 208 104 248 208 104 248 208 104 152 96 16 248 208 104 16 16 16 152 96 16 208 152 72 16 16 16 255 255 255 255 255 255 255 255 255 255 255 255 255 255 255 255 255 255 255 255 255 255 255 255 255 255 255 255 255 255 
255 255 255 255 255 255 255 255 255 255 255 255 255 255 255 255 255 255 255 255 255 16 16 16 248 208 104 248 208 104 248 208 104 248 208 104 248 208 104 248 208 104 208 152 72 208 152 72 152 96 16 248 208 104 248 208 104 248 208 104 248 208 104 248 208 104 248 208 104 248 208 104 208 152 72 208 152 72 208 152 72 16 16 16 208 152 72 208 152 72 208 152 72 152 96 16 152 96 16 208 152 72 248 232 160 248 232 160 248 232 160 248 208 104 248 208 104 208 152 72 248 232 160 248 232 160 248 208 104 248 208 104 248 208 104 248 208 104 208 152 72 248 208 104 152 96 16 248 208 104 16 16 16 208 152 72 152 96 16 16 16 16 255 255 255 255 255 255 255 255 255 255 255 255 255 255 255 255 255 255 255 255 255 255 255 255 255 255 255 255 255 255 
255 255 255 255 255 255 255 255 255 255 255 255 255 255 255 255 255 255 255 255 255 16 16 16 248 208 104 248 208 104 248 208 104 248 208 104 248 208 104 248 208 104 208 152 72 208 152 72 208 152 72 208 152 72 208 152 72 248 208 104 248 208 104 248 208 104 248 208 104 248 208 104 248 208 104 208 152 72 208 152 72 208 152 72 16 16 16 152 96 16 152 96 16 248 208 104 248 232 160 248 232 160 248 232 160 248 232 160 248 208 104 248 208 104 248 208 104 152 96 16 248 232 160 248 232 160 248 208 104 248 208 104 248 208 104 248 208 104 152 96 16 248 208 104 152 96 16 152 96 16 208 152 72 152 96 16 208 152 72 16 16 16 255 255 255 255 255 255 255 255 255 255 255 255 255 255 255 255 255 255 255 255 255 255 255 255 255 255 255 255 255 255 
255 255 255 255 255 255 255 255 255 255 255 255 255 255 255 255 255 255 255 255 255 152 96 16 248 208 104 248 208 104 248 208 104 248 208 104 248 208 104 208 152 72 208 152 72 152 96 16 16 16 16 16 16 16 16 16 16 16 16 16 152 96 16 248 208 104 248 208 104 248 208 104 248 208 104 248 208 104 208 152 72 16 16 16 248 208 104 248 232 160 248 232 160 248 232 160 248 232 160 248 232 160 248 208 104 248 208 104 248 208 104 248 208 104 248 208 104 152 96 16 248 232 160 248 232 160 248 208 104 248 208 104 248 208 104 208 152 72 16 16 16 248 208 104 152 96 16 248 208 104 208 152 72 152 96 16 208 152 72 16 16 16 255 255 255 255 255 255 255 255 255 255 255 255 255 255 255 255 255 255 255 255 255 255 255 255 255 255 255 255 255 255 
255 255 255 255 255 255 255 255 255 255 255 255 255 255 255 255 255 255 255 255 255 255 255 255 152 96 16 248 208 104 248 208 104 248 208 104 248 208 104 152 96 16 152 96 16 248 208 104 248 208 104 248 208 104 248 232 160 248 232 160 248 208 104 152 96 16 152 96 16 152 96 16 248 208 104 208 152 72 16 16 16 248 232 160 248 232 160 248 232 160 248 232 160 248 232 160 248 232 160 248 208 104 248 208 104 248 208 104 248 208 104 248 208 104 248 208 104 152 96 16 248 232 160 248 232 160 248 208 104 248 208 104 248 208 104 208 152 72 16 16 16 248 208 104 248 208 104 248 208 104 208 152 72 16 16 16 208 152 72 152 96 16 255 255 255 255 255 255 255 255 255 255 255 255 255 255 255 255 255 255 255 255 255 255 255 255 255 255 255 255 255 255 
255 255 255 255 255 255 255 255 255 255 255 255 255 255 255 255 255 255 255 255 255 255 255 255 16 16 16 248 208 104 248 208 104 248 208 104 152 96 16 248 208 104 248 208 104 248 208 104 248 232 160 248 232 160 248 232 160 248 208 104 248 208 104 248 208 104 248 208 104 248 208 104 152 96 16 16 16 16 248 232 160 248 232 160 248 232 160 248 232 160 248 232 160 248 232 160 248 208 104 248 208 104 248 208 104 248 208 104 248 208 104 248 208 104 248 208 104 152 96 16 248 232 160 248 232 160 248 208 104 248 208 104 248 208 104 208 152 72 152 96 16 248 208 104 248 208 104 208 152 72 208 152 72 16 16 16 152 96 16 255 255 255 255 255 255 255 255 255 255 255 255 255 255 255 255 255 255 255 255 255 255 255 255 255 255 255 255 255 255 255 255 255 
255 255 255 255 255 255 255 255 255 255 255 255 255 255 255 255 255 255 255 255 255 255 255 255 16 16 16 248 208 104 248 208 104 152 96 16 248 208 104 248 208 104 248 208 104 248 232 160 248 232 160 248 232 160 248 208 104 248 208 104 208 152 72 208 152 72 208 152 72 208 152 72 208 152 72 152 96 16 248 232 160 248 232 160 248 232 160 248 232 160 248 232 160 248 208 104 248 208 104 248 208 104 248 208 104 248 208 104 208 152 72 248 208 104 248 208 104 248 208 104 152 96 16 248 232 160 248 208 104 248 208 104 208 152 72 152 96 16 248 208 104 248 208 104 208 152 72 208 152 72 152 96 16 208 152 72 16 16 16 255 255 255 255 255 255 255 255 255 255 255 255 255 255 255 255 255 255 255 255 255 255 255 255 255 255 255 255 255 255 255 255 255 
255 255 255 255 255 255 255 255 255 255 255 255 255 255 255 255 255 255 255 255 255 255 255 255 16 16 16 248 208 104 248 208 104 208 152 72 248 208 104 248 208 104 248 232 160 248 232 160 248 232 160 248 232 160 248 208 104 208 152 72 208 152 72 208 152 72 152 96 16 152 96 16 16 16 16 248 208 104 248 208 104 248 232 160 248 232 160 248 232 160 248 208 104 248 208 104 248 208 104 248 208 104 248 208 104 248 208 104 248 208 104 152 96 16 248 208 104 248 208 104 16 16 16 248 232 160 248 208 104 248 208 104 208 152 72 16 16 16 208 152 72 208 152 72 208 152 72 208 152 72 16 16 16 208 152 72 16 16 16 255 255 255 255 255 255 255 255 255 255 255 255 255 255 255 255 255 255 255 255 255 255 255 255 255 255 255 255 255 255 255 255 255 
255 255 255 255 255 255 255 255 255 255 255 255 255 255 255 255 255 255 255 255 255 255 255 255 16 16 16 248 208 104 208 152 72 248 208 104 248 208 104 248 208 104 248 232 160 248 232 160 248 232 160 248 232 160 248 208 104 208 152 72 152 96 16 152 96 16 248 208 104 248 208 104 16 16 16 248 208 104 248 208 104 248 208 104 248 208 104 248 208 104 248 208 104 248 208 104 248 208 104 248 208 104 248 208 104 248 208 104 248 208 104 152 96 16 248 208 104 208 152 72 16 16 16 248 208 104 248 208 104 248 208 104 208 152 72 16 16 16 208 152 72 208 152 72 208 152 72 16 16 16 208 152 72 208 152 72 16 16 16 255 255 255 255 255 255 255 255 255 255 255 255 255 255 255 255 255 255 255 255 255 255 255 255 255 255 255 255 255 255 255 255 255 
255 255 255 255 255 255 255 255 255 255 255 255 255 255 255 255 255 255 255 255 255 255 255 255 152 96 16 248 208 104 152 96 16 248 208 104 248 208 104 248 208 104 248 232 160 248 232 160 248 232 160 248 232 160 248 208 104 16 16 16 248 208 104 248 208 104 248 208 104 208 152 72 16 16 16 248 208 104 248 208 104 248 208 104 248 208 104 248 208 104 248 208 104 248 208 104 248 208 104 248 208 104 248 208 104 248 208 104 208 152 72 208 152 72 152 96 16 208 152 72 16 16 16 248 208 104 248 208 104 248 208 104 208 152 72 16 16 16 208 152 72 152 96 16 152 96 16 208 152 72 208 152 72 208 152 72 16 16 16 255 255 255 255 255 255 255 255 255 255 255 255 255 255 255 255 255 255 255 255 255 255 255 255 255 255 255 255 255 255 255 255 255 
255 255 255 255 255 255 255 255 255 255 255 255 255 255 255 255 255 255 255 255 255 152 96 16 248 208 104 248 208 104 16 16 16 248 208 104 248 208 104 248 208 104 248 208 104 248 232 160 248 232 160 248 232 160 16 16 16 248 208 104 248 232 160 248 208 104 208 152 72 208 152 72 152 96 16 248 208 104 248 208 104 248 208 104 248 208 104 248 208 104 248 208 104 248 208 104 248 208 104 248 208 104 248 208 104 248 208 104 208 152 72 208 152 72 152 96 16 208 152 72 152 96 16 248 208 104 248 208 104 248 208 104 248 208 104 16 16 16 152 96 16 255 255 255 16 16 16 208 152 72 208 152 72 208 152 72 16 16 16 255 255 255 255 255 255 255 255 255 255 255 255 255 255 255 255 255 255 255 255 255 255 255 255 255 255 255 255 255 255 255 255 255 
255 255 255 255 255 255 255 255 255 255 255 255 255 255 255 255 255 255 255 255 255 152 96 16 248 208 104 248 208 104 16 16 16 248 208 104 248 208 104 248 208 104 248 208 104 248 232 160 248 232 160 16 16 16 248 208 104 248 232 160 248 232 160 248 208 104 208 152 72 208 152 72 208 152 72 152 96 16 248 208 104 248 208 104 248 208 104 248 208 104 248 208 104 248 208 104 248 208 104 248 208 104 248 208 104 248 208 104 208 152 72 208 152 72 16 16 16 208 152 72 208 152 72 152 96 16 248 208 104 248 208 104 248 208 104 16 16 16 255 255 255 255 255 255 16 16 16 208 152 72 208 152 72 208 152 72 16 16 16 255 255 255 255 255 255 255 255 255 255 255 255 255 255 255 255 255 255 255 255 255 255 255 255 255 255 255 255 255 255 255 255 255 
255 255 255 255 255 255 255 255 255 255 255 255 255 255 255 255 255 255 152 96 16 248 208 104 248 208 104 248 208 104 152 96 16 248 208 104 248 208 104 248 208 104 248 208 104 248 208 104 248 232 160 152 96 16 248 208 104 248 232 160 248 232 160 248 208 104 248 208 104 208 152 72 208 152 72 208 152 72 152 96 16 248 208 104 248 208 104 248 208 104 248 208 104 248 208 104 248 208 104 248 208 104 248 208 104 208 152 72 208 152 72 208 152 72 16 16 16 208 152 72 208 152 72 16 16 16 248 208 104 248 208 104 248 208 104 16 16 16 255 255 255 255 255 255 16 16 16 208 152 72 208 152 72 208 152 72 16 16 16 255 255 255 255 255 255 255 255 255 255 255 255 255 255 255 255 255 255 255 255 255 255 255 255 255 255 255 255 255 255 255 255 255 
255 255 255 255 255 255 255 255 255 255 255 255 152 96 16 152 96 16 248 208 104 248 208 104 248 208 104 248 208 104 152 96 16 16 16 16 248 208 104 248 208 104 248 208 104 248 208 104 152 96 16 248 208 104 248 208 104 248 232 160 248 232 160 248 232 160 248 208 104 208 152 72 208 152 72 208 152 72 208 152 72 152 96 16 152 96 16 248 208 104 248 208 104 248 208 104 248 208 104 208 152 72 208 152 72 208 152 72 208 152 72 208 152 72 16 16 16 208 152 72 208 152 72 16 16 16 248 208 104 248 208 104 248 208 104 16 16 16 255 255 255 255 255 255 16 16 16 208 152 72 208 152 72 208 152 72 16 16 16 255 255 255 255 255 255 255 255 255 255 255 255 255 255 255 255 255 255 255 255 255 255 255 255 255 255 255 255 255 255 255 255 255 
255 255 255 255 255 255 255 255 255 152 96 16 248 208 104 248 208 104 248 208 104 248 208 104 152 96 16 16 16 16 255 255 255 255 255 255 16 16 16 248 208 104 248 208 104 248 208 104 16 16 16 248 208 104 248 208 104 248 208 104 248 232 160 248 232 160 248 208 104 248 208 104 248 208 104 208 152 72 208 152 72 208 152 72 208 152 72 152 96 16 152 96 16 152 96 16 208 152 72 208 152 72 208 152 72 208 152 72 208 152 72 16 16 16 152 96 16 152 96 16 16 16 16 16 16 16 248 208 104 248 208 104 248 208 104 16 16 16 255 255 255 255 255 255 16 16 16 208 152 72 208 152 72 208 152 72 16 16 16 255 255 255 255 255 255 255 255 255 255 255 255 255 255 255 255 255 255 255 255 255 255 255 255 255 255 255 255 255 255 255 255 255 
255 255 255 255 255 255 255 255 255 255 255 255 152 96 16 16 16 16 16 16 16 16 16 16 255 255 255 255 255 255 255 255 255 255 255 255 255 255 255 16 16 16 152 96 16 248 208 104 16 16 16 248 208 104 248 208 104 248 208 104 248 208 104 248 208 104 248 208 104 248 208 104 248 208 104 248 208 104 248 208 104 248 208 104 248 208 104 248 208 104 248 208 104 208 152 72 152 96 16 152 96 16 208 152 72 208 152 72 208 152 72 16 16 16 16 16 16 152 96 16 208 152 72 16 16 16 248 208 104 248 208 104 248 208 104 16 16 16 255 255 255 255 255 255 16 16 16 208 152 72 208 152 72 208 152 72 16 16 16 255 255 255 255 255 255 255 255 255 255 255 255 255 255 255 255 255 255 255 255 255 255 255 255 255 255 255 255 255 255 255 255 255 
255 255 255 255 255 255 255 255 255 255 255 255 255 255 255 255 255 255 255 255 255 255 255 255 255 255 255 255 255 255 255 255 255 255 255 255 255 255 255 255 255 255 255 255 255 16 16 16 152 96 16 152 96 16 248 208 104 248 208 104 248 208 104 248 208 104 248 208 104 248 208 104 248 208 104 248 208 104 248 208 104 248 208 104 248 208 104 248 208 104 248 208 104 248 208 104 248 208 104 248 208 104 152 96 16 152 96 16 16 16 16 152 96 16 208 152 72 208 152 72 208 152 72 16 16 16 248 208 104 248 208 104 248 208 104 16 16 16 255 255 255 255 255 255 16 16 16 208 152 72 208 152 72 208 152 72 152 96 16 255 255 255 255 255 255 255 255 255 255 255 255 255 255 255 255 255 255 255 255 255 255 255 255 255 255 255 255 255 255 255 255 255 
255 255 255 255 255 255 255 255 255 255 255 255 255 255 255 255 255 255 255 255 255 255 255 255 255 255 255 255 255 255 255 255 255 255 255 255 255 255 255 255 255 255 255 255 255 255 255 255 255 255 255 152 96 16 248 208 104 248 208 104 248 208 104 248 208 104 248 208 104 248 208 104 248 208 104 248 208 104 248 208 104 248 208 104 248 208 104 248 208 104 248 208 104 248 208 104 248 208 104 208 152 72 208 152 72 208 152 72 152 96 16 208 152 72 208 152 72 208 152 72 208 152 72 16 16 16 248 208 104 248 208 104 248 208 104 152 96 16 255 255 255 255 255 255 255 255 255 152 96 16 208 152 72 208 152 72 248 208 104 152 96 16 152 96 16 255 255 255 255 255 255 255 255 255 255 255 255 255 255 255 255 255 255 255 255 255 255 255 255 255 255 255 
255 255 255 255 255 255 255 255 255 255 255 255 255 255 255 255 255 255 255 255 255 255 255 255 255 255 255 255 255 255 255 255 255 255 255 255 255 255 255 255 255 255 255 255 255 255 255 255 255 255 255 255 255 255 16 16 16 152 96 16 248 208 104 248 208 104 248 208 104 248 208 104 248 208 104 248 208 104 248 208 104 248 208 104 208 152 72 208 152 72 208 152 72 208 152 72 208 152 72 208 152 72 208 152 72 208 152 72 208 152 72 152 96 16 16 16 16 16 16 16 16 16 16 16 16 16 248 208 104 248 208 104 248 232 160 248 232 160 152 96 16 255 255 255 255 255 255 16 16 16 208 152 72 208 152 72 208 152 72 248 208 104 248 208 104 152 96 16 255 255 255 255 255 255 255 255 255 255 255 255 255 255 255 255 255 255 255 255 255 255 255 255 
255 255 255 255 255 255 255 255 255 255 255 255 255 255 255 255 255 255 255 255 255 255 255 255 255 255 255 255 255 255 255 255 255 255 255 255 255 255 255 255 255 255 255 255 255 255 255 255 255 255 255 255 255 255 255 255 255 255 255 255 16 16 16 152 96 16 248 208 104 248 208 104 248 208 104 248 208 104 208 152 72 208 152 72 208 152 72 152 96 16 16 16 16 16 16 16 16 16 16 152 96 16 208 152 72 208 152 72 208 152 72 208 152 72 152 96 16 255 255 255 255 255 255 16 16 16 248 208 104 248 208 104 248 208 104 248 232 160 248 232 160 152 96 16 255 255 255 16 16 16 208 152 72 208 152 72 208 152 72 152 96 16 248 208 104 16 16 16 255 255 255 255 255 255 255 255 255 255 255 255 255 255 255 255 255 255 255 255 255 255 255 255 
255 255 255 255 255 255 255 255 255 255 255 255 255 255 255 255 255 255 255 255 255 255 255 255 255 255 255 255 255 255 255 255 255 255 255 255 255 255 255 255 255 255 255 255 255 255 255 255 255 255 255 255 255 255 255 255 255 255 255 255 255 255 255 255 255 255 152 96 16 16 16 16 16 16 16 16 16 16 16 16 16 16 16 16 152 96 16 255 255 255 255 255 255 255 255 255 255 255 255 255 255 255 152 96 16 16 16 16 208 152 72 208 152 72 208 152 72 152 96 16 255 255 255 152 96 16 248 208 104 152 96 16 248 232 160 248 232 160 208 152 72 16 16 16 255 255 255 255 255 255 152 96 16 16 16 16 208 152 72 152 96 16 208 152 72 16 16 16 255 255 255 255 255 255 255 255 255 255 255 255 255 255 255 255 255 255 255 255 255 255 255 255 
255 255 255 255 255 255 255 255 255 255 255 255 255 255 255 255 255 255 255 255 255 255 255 255 255 255 255 255 255 255 255 255 255 255 255 255 255 255 255 255 255 255 255 255 255 255 255 255 255 255 255 255 255 255 255 255 255 255 255 255 255 255 255 255 255 255 255 255 255 255 255 255 255 255 255 255 255 255 255 255 255 255 255 255 255 255 255 255 255 255 255 255 255 255 255 255 255 255 255 255 255 255 255 255 255 255 255 255 16 16 16 208 152 72 208 152 72 16 16 16 255 255 255 255 255 255 152 96 16 16 16 16 208 152 72 208 152 72 152 96 16 16 16 16 255 255 255 255 255 255 255 255 255 255 255 255 16 16 16 16 16 16 16 16 16 255 255 255 255 255 255 255 255 255 255 255 255 255 255 255 255 255 255 255 255 255 255 255 255 255 255 255 
255 255 255 255 255 255 255 255 255 255 255 255 255 255 255 255 255 255 255 255 255 255 255 255 255 255 255 255 255 255 255 255 255 255 255 255 255 255 255 255 255 255 255 255 255 255 255 255 255 255 255 255 255 255 255 255 255 255 255 255 255 255 255 255 255 255 255 255 255 255 255 255 255 255 255 255 255 255 255 255 255 255 255 255 255 255 255 255 255 255 255 255 255 255 255 255 255 255 255 255 255 255 255 255 255 255 255 255 255 255 255 16 16 16 208 152 72 16 16 16 255 255 255 255 255 255 255 255 255 255 255 255 152 96 16 16 16 16 16 16 16 255 255 255 255 255 255 255 255 255 255 255 255 255 255 255 255 255 255 255 255 255 255 255 255 255 255 255 255 255 255 255 255 255 255 255 255 255 255 255 255 255 255 255 255 255 255 255 255 255 255 255 
255 255 255 255 255 255 255 255 255 255 255 255 255 255 255 255 255 255 255 255 255 255 255 255 255 255 255 255 255 255 255 255 255 255 255 255 255 255 255 255 255 255 255 255 255 255 255 255 255 255 255 255 255 255 255 255 255 255 255 255 255 255 255 255 255 255 255 255 255 255 255 255 255 255 255 255 255 255 255 255 255 255 255 255 255 255 255 255 255 255 255 255 255 255 255 255 255 255 255 255 255 255 255 255 255 255 255 255 255 255 255 255 255 255 152 96 16 16 16 16 255 255 255 255 255 255 255 255 255 255 255 255 255 255 255 255 255 255 255 255 255 255 255 255 255 255 255 255 255 255 255 255 255 255 255 255 255 255 255 255 255 255 255 255 255 255 255 255 255 255 255 255 255 255 255 255 255 255 255 255 255 255 255 255 255 255 255 255 255 255 255 255 
255 255 255 255 255 255 255 255 255 255 255 255 255 255 255 255 255 255 255 255 255 255 255 255 255 255 255 255 255 255 255 255 255 255 255 255 255 255 255 255 255 255 255 255 255 255 255 255 255 255 255 255 255 255 255 255 255 255 255 255 255 255 255 255 255 255 255 255 255 255 255 255 255 255 255 255 255 255 255 255 255 255 255 255 255 255 255 255 255 255 255 255 255 255 255 255 255 255 255 255 255 255 255 255 255 255 255 255 255 255 255 255 255 255 255 255 255 255 255 255 255 255 255 255 255 255 255 255 255 255 255 255 255 255 255 255 255 255 255 255 255 255 255 255 255 255 255 255 255 255 255 255 255 255 255 255 255 255 255 255 255 255 255 255 255 255 255 255 255 255 255 255 255 255 255 255 255 255 255 255 255 255 255 255 255 255 255 255 255 255 255 255 
255 255 255 255 255 255 255 255 255 255 255 255 255 255 255 255 255 255 255 255 255 255 255 255 255 255 255 255 255 255 255 255 255 255 255 255 255 255 255 255 255 255 255 255 255 255 255 255 255 255 255 255 255 255 255 255 255 255 255 255 255 255 255 255 255 255 255 255 255 255 255 255 255 255 255 255 255 255 255 255 255 255 255 255 255 255 255 255 255 255 255 255 255 255 255 255 255 255 255 255 255 255 255 255 255 255 255 255 255 255 255 255 255 255 255 255 255 255 255 255 255 255 255 255 255 255 255 255 255 255 255 255 255 255 255 255 255 255 255 255 255 255 255 255 255 255 255 255 255 255 255 255 255 255 255 255 255 255 255 255 255 255 255 255 255 255 255 255 255 255 255 255 255 255 255 255 255 255 255 255 255 255 255 255 255 255 255 255 255 255 255 255 
255 255 255 255 255 255 255 255 255 255 255 255 255 255 255 255 255 255 255 255 255 255 255 255 255 255 255 255 255 255 255 255 255 255 255 255 255 255 255 255 255 255 255 255 255 255 255 255 255 255 255 255 255 255 255 255 255 255 255 255 255 255 255 255 255 255 255 255 255 255 255 255 255 255 255 255 255 255 255 255 255 255 255 255 255 255 255 255 255 255 255 255 255 255 255 255 255 255 255 255 255 255 255 255 255 255 255 255 255 255 255 255 255 255 255 255 255 255 255 255 255 255 255 255 255 255 255 255 255 255 255 255 255 255 255 255 255 255 255 255 255 255 255 255 255 255 255 255 255 255 255 255 255 255 255 255 255 255 255 255 255 255 255 255 255 255 255 255 255 255 255 255 255 255 255 255 255 255 255 255 255 255 255 255 255 255 255 255 255 255 255 255 
