P3
64 64
255
255 255 255 255 255 255 255 255 255 255 255 255 255 255 255 255 255 255 255 255 255 255 255 255 255 255 255 255 255 255 255 255 255 255 255 255 255 255 255 255 255 255 255 255 255 255 255 255 255 255 255 255 255 255 255 255 255 255 255 255 255 255 255 255 255 255 255 255 255 255 255 255 255 255 255 255 255 255 255 255 255 255 255 255 255 255 255 255 255 255 255 255 255 255 255 255 255 255 255 255 255 255 255 255 255 255 255 255 255 255 255 255 255 255 255 255 255 255 255 255 255 255 255 255 255 255 255 255 255 255 255 255 255 255 255 255 255 255 255 255 255 255 255 255 255 255 255 255 255 255 255 255 255 255 255 255 255 255 255 255 255 255 255 255 255 255 255 255 255 255 255 255 255 255 255 255 255 255 255 255 255 255 255 255 255 255 255 255 255 255 255 255 
255 255 255 255 255 255 255 255 255 255 255 255 255 255 255 255 255 255 255 255 255 255 255 255 255 255 255 255 255 255 255 255 255 255 255 255 255 255 255 255 255 255 255 255 255 255 255 255 255 255 255 255 255 255 255 255 255 255 255 255 255 255 255 255 255 255 255 255 255 255 255 255 255 255 255 255 255 255 255 255 255 255 255 255 255 255 255 255 255 255 255 255 255 255 255 255 255 255 255 255 255 255 255 255 255 255 255 255 255 255 255 255 255 255 255 255 255 255 255 255 255 255 255 255 255 255 255 255 255 255 255 255 255 255 255 255 255 255 255 255 255 255 255 255 255 255 255 255 255 255 255 255 255 255 255 255 255 255 255 255 255 255 255 255 255 255 255 255 255 255 255 255 255 255 255 255 255 255 255 255 255 255 255 255 255 255 255 255 255 255 255 255 
255 255 255 255 255 255 255 255 255 255 255 255 255 255 255 255 255 255 255 255 255 255 255 255 255 255 255 255 255 255 255 255 255 255 255 255 255 255 255 255 255 255 255 255 255 255 255 255 255 255 255 255 255 255 255 255 255 255 255 255 255 255 255 255 255 255 255 255 255 255 255 255 255 255 255 255 255 255 255 255 255 255 255 255 255 255 255 255 255 255 255 255 255 255 255 255 255 255 255 255 255 255 255 255 255 255 255 255 255 255 255 255 255 255 255 255 255 255 255 255 255 255 255 255 255 255 255 255 255 255 255 255 255 255 255 255 255 255 255 255 255 255 255 255 255 255 255 255 255 255 255 255 255 255 255 255 255 255 255 255 255 255 255 255 255 255 255 255 255 255 255 255 255 255 255 255 255 255 255 255 255 255 255 255 255 255 255 255 255 255 255 255 
255 255 255 255 255 255 255 255 255 255 255 255 255 255 255 255 255 255 255 255 255 255 255 255 255 255 255 255 255 255 255 255 255 255 255 255 255 255 255 255 255 255 255 255 255 255 255 255 255 255 255 255 255 255 255 255 255 255 255 255 255 255 255 255 255 255 255 255 255 255 255 255 255 255 255 255 255 255 255 255 255 255 255 255 255 255 255 255 255 255 255 255 255 255 255 255 255 255 255 255 255 255 255 255 255 255 255 255 255 255 255 255 255 255 255 255 255 255 255 255 255 255 255 255 255 255 255 255 255 255 255 255 255 255 255 255 255 255 255 255 255 255 255 255 255 255 255 255 255 255 255 255 255 255 255 255 255 255 255 255 255 255 255 255 255 255 255 255 255 255 255 255 255 255 255 255 255 255 255 255 255 255 255 255 255 255 255 255 255 255 255 255 
255 255 255 255 255 255 255 255 255 255 255 255 255 255 255 255 255 255 255 255 255 255 255 255 255 255 255 255 255 255 255 255 255 255 255 255 255 255 255 255 255 255 255 255 255 255 255 255 255 255 255 255 255 255 255 255 255 255 255 255 255 255 255 255 255 255 255 255 255 255 255 255 255 255 255 255 255 255 255 255 255 255 255 255 255 255 255 255 255 255 255 255 255 255 255 255 255 255 255 255 255 255 255 255 255 255 255 255 255 255 255 255 255 255 255 255 255 255 255 255 255 255 255 255 255 255 255 255 255 255 255 255 255 255 255 255 255 255 255 255 255 255 255 255 255 255 255 255 255 255 255 255 255 255 255 255 255 255 255 255 255 255 255 255 255 255 255 255 255 255 255 255 255 255 255 255 255 255 255 255 255 255 255 255 255 255 255 255 255 255 255 255 
255 255 255 255 255 255 255 255 255 255 255 255 255 255 255 255 255 255 255 255 255 255 255 255 255 255 255 255 255 255 255 255 255 255 255 255 255 255 255 255 255 255 255 255 255 255 255 255 255 255 255 255 255 255 255 255 255 255 255 255 255 255 255 255 255 255 255 255 255 255 255 255 255 255 255 255 255 255 255 255 255 255 255 255 184 104 48 184 104 48 128 48 0 128 48 0 128 48 0 128 48 0 128 48 0 255 255 255 255 255 255 255 255 255 255 255 255 255 255 255 255 255 255 255 255 255 255 255 255 255 255 255 255 255 255 255 255 255 255 255 255 255 255 255 255 255 255 255 255 255 255 255 255 255 255 255 255 255 255 255 255 255 255 255 255 255 255 255 255 255 255 255 255 255 255 255 255 255 255 255 255 255 255 255 255 255 255 255 255 255 255 255 
255 255 255 255 255 255 255 255 255 255 255 255 255 255 255 255 255 255 255 255 255 255 255 255 255 255 255 255 255 255 255 255 255 255 255 255 255 255 255 255 255 255 255 255 255 255 255 255 255 255 255 255 255 255 255 255 255 255 255 255 255 255 255 255 255 255 255 255 255 255 255 255 255 255 255 184 104 48 184 104 48 184 104 48 248 232 80 248 232 80 216 200 48 248 128 112 248 128 112 248 128 112 248 128 112 184 104 48 128 48 0 128 48 0 255 255 255 255 255 255 255 255 255 255 255 255 255 255 255 255 255 255 255 255 255 255 255 255 255 255 255 255 255 255 255 255 255 255 255 255 255 255 255 255 255 255 255 255 255 255 255 255 255 255 255 255 255 255 255 255 255 255 255 255 255 255 255 255 255 255 255 255 255 255 255 255 255 255 255 255 255 255 
255 255 255 255 255 255 255 255 255 255 255 255 255 255 255 255 255 255 255 255 255 255 255 255 255 255 255 255 255 255 255 255 255 255 255 255 255 255 255 255 255 255 255 255 255 255 255 255 255 255 255 255 255 255 255 255 255 255 255 255 255 255 255 255 255 255 255 255 255 255 255 255 184 104 48 248 128 112 248 128 112 248 128 112 248 128 112 248 128 112 248 128 112 248 128 112 248 128 112 248 128 112 248 128 112 248 128 112 248 128 112 248 128 112 128 48 0 255 255 255 255 255 255 255 255 255 255 255 255 255 255 255 255 255 255 255 255 255 255 255 255 255 255 255 255 255 255 255 255 255 255 255 255 255 255 255 255 255 255 255 255 255 255 255 255 255 255 255 255 255 255 255 255 255 255 255 255 255 255 255 255 255 255 255 255 255 255 255 255 255 255 255 
255 255 255 255 255 255 255 255 255 255 255 255 255 255 255 255 255 255 255 255 255 255 255 255 255 255 255 255 255 255 255 255 255 255 255 255 255 255 255 255 255 255 255 255 255 184 104 48 184 104 48 184 104 48 184 104 48 184 104 48 184 104 48 255 255 255 255 255 255 255 255 255 128 48 0 248 128 112 248 128 112 248 128 112 248 128 112 248 128 112 248 128 112 248 128 112 248 128 112 248 128 112 216 200 48 248 232 80 248 128 112 248 128 112 16 16 16 255 255 255 255 255 255 255 255 255 128 48 0 128 48 0 128 48 0 16 16 16 16 16 16 16 16 16 255 255 255 255 255 255 255 255 255 255 255 255 255 255 255 255 255 255 255 255 255 255 255 255 255 255 255 255 255 255 255 255 255 255 255 255 255 255 255 255 255 255 255 255 255 255 255 255 
255 255 255 255 255 255 255 255 255 255 255 255 255 255 255 255 255 255 255 255 255 255 255 255 255 255 255 255 255 255 255 255 255 255 255 255 255 255 255 184 104 48 184 104 48 248 128 112 248 128 112 248 128 112 248 128 112 248 128 112 248 128 112 128 48 0 128 48 0 128 48 0 216 64 64 216 64 64 216 64 64 248 128 112 248 128 112 248 128 112 248 128 112 248 128 112 248 128 112 216 200 48 248 232 80 216 200 48 216 200 48 216 64 64 216 64 64 16 16 16 128 48 0 128 48 0 216 200 48 248 232 80 248 128 112 248 128 112 248 128 112 248 128 112 128 48 0 16 16 16 255 255 255 255 255 255 255 255 255 255 255 255 255 255 255 255 255 255 255 255 255 255 255 255 255 255 255 255 255 255 255 255 255 255 255 255 255 255 255 255 255 255 
255 255 255 255 255 255 255 255 255 255 255 255 255 255 255 255 255 255 255 255 255 255 255 255 255 255 255 255 255 255 255 255 255 184 104 48 184 104 48 248 232 80 248 232 80 248 128 112 248 128 112 248 128 112 248 128 112 248 128 112 248 128 112 248 128 112 248 128 112 128 48 0 216 64 64 216 64 64 216 64 64 216 64 64 216 64 64 216 64 64 216 64 64 128 48 0 216 64 64 216 64 64 248 128 112 248 128 112 216 64 64 216 64 64 216 64 64 16 16 16 216 64 64 248 128 112 248 232 80 248 232 80 248 128 112 248 128 112 248 128 112 248 128 112 248 128 112 248 128 112 128 48 0 16 16 16 255 255 255 255 255 255 255 255 255 255 255 255 255 255 255 255 255 255 255 255 255 255 255 255 255 255 255 255 255 255 255 255 255 255 255 255 
255 255 255 255 255 255 255 255 255 255 255 255 255 255 255 255 255 255 255 255 255 255 255 255 255 255 255 255 255 255 184 104 48 248 128 112 216 200 48 248 232 80 216 200 48 248 128 112 248 128 112 248 128 112 248 232 80 248 232 80 248 128 112 248 128 112 248 128 112 216 64 64 128 48 0 216 64 64 248 232 80 216 64 64 128 48 0 248 232 80 128 48 0 248 232 80 128 48 0 248 232 80 128 48 0 248 128 112 248 232 80 216 64 64 16 16 16 216 64 64 248 128 112 248 128 112 248 128 112 248 128 112 248 128 112 248 128 112 248 128 112 248 128 112 248 128 112 248 128 112 248 128 112 248 128 112 16 16 16 255 255 255 255 255 255 255 255 255 255 255 255 255 255 255 255 255 255 255 255 255 255 255 255 255 255 255 255 255 255 255 255 255 
255 255 255 255 255 255 255 255 255 255 255 255 255 255 255 255 255 255 255 255 255 255 255 255 255 255 255 184 104 48 248 128 112 248 128 112 248 128 112 216 200 48 248 128 112 248 128 112 248 128 112 248 128 112 216 200 48 248 232 80 248 128 112 248 128 112 248 128 112 216 64 64 216 64 64 128 48 0 128 48 0 248 232 80 216 200 48 248 232 80 216 200 48 184 104 48 216 200 48 248 232 80 216 200 48 248 232 80 128 48 0 128 48 0 216 64 64 216 64 64 248 128 112 248 128 112 248 128 112 248 128 112 248 128 112 248 128 112 248 128 112 248 128 112 248 232 80 248 232 80 248 128 112 248 128 112 248 128 112 16 16 16 255 255 255 255 255 255 255 255 255 255 255 255 255 255 255 255 255 255 255 255 255 255 255 255 255 255 255 255 255 255 
255 255 255 255 255 255 255 255 255 255 255 255 255 255 255 255 255 255 255 255 255 255 255 255 255 255 255 184 104 48 248 128 112 216 64 64 248 128 112 248 128 112 248 128 112 248 128 112 248 128 112 248 128 112 248 128 112 248 128 112 248 128 112 248 128 112 216 64 64 216 64 64 216 64 64 248 232 80 184 104 48 216 200 48 128 48 0 184 104 48 128 48 0 128 48 0 128 48 0 184 104 48 128 48 0 216 200 48 184 104 48 248 232 80 216 64 64 216 64 64 216 64 64 248 128 112 248 128 112 248 128 112 248 128 112 248 128 112 248 128 112 248 232 80 248 232 80 216 200 48 248 128 112 216 64 64 248 128 112 16 16 16 255 255 255 255 255 255 255 255 255 255 255 255 255 255 255 255 255 255 255 255 255 255 255 255 255 255 255 255 255 255 
255 255 255 255 255 255 255 255 255 255 255 255 255 255 255 255 255 255 255 255 255 255 255 255 128 48 0 216 64 64 216 64 64 128 48 0 216 64 64 248 128 112 248 128 112 248 128 112 248 128 112 248 128 112 248 128 112 248 128 112 248 128 112 248 232 80 216 64 64 216 64 64 216 64 64 128 48 0 248 232 80 128 48 0 248 232 80 16 16 16 16 16 16 16 16 16 16 16 16 16 16 16 248 232 80 184 104 48 248 232 80 128 48 0 216 64 64 216 64 64 216 64 64 248 128 112 248 128 112 248 128 112 248 128 112 248 128 112 248 128 112 248 128 112 216 200 48 216 200 48 216 64 64 128 48 0 216 64 64 216 64 64 16 16 16 255 255 255 255 255 255 255 255 255 255 255 255 255 255 255 255 255 255 255 255 255 255 255 255 255 255 255 
255 255 255 255 255 255 255 255 255 255 255 255 255 255 255 255 255 255 255 255 255 255 255 255 128 48 0 216 64 64 128 48 0 128 48 0 216 64 64 248 128 112 248 128 112 248 128 112 248 128 112 248 128 112 248 128 112 216 64 64 216 64 64 216 64 64 216 64 64 128 48 0 16 16 16 16 16 16 16 16 16 16 16 16 216 200 48 248 232 80 16 16 16 248 232 80 16 16 16 248 232 80 216 200 48 128 48 0 16 16 16 16 16 16 16 16 16 128 48 0 216 64 64 216 64 64 216 64 64 216 64 64 248 128 112 248 128 112 248 128 112 248 128 112 248 128 112 248 128 112 216 64 64 128 48 0 128 48 0 216 64 64 16 16 16 255 255 255 255 255 255 255 255 255 255 255 255 255 255 255 255 255 255 255 255 255 255 255 255 255 255 255 
255 255 255 255 255 255 255 255 255 255 255 255 255 255 255 255 255 255 255 255 255 255 255 255 128 48 0 128 48 0 216 64 64 216 64 64 216 64 64 216 200 48 248 232 80 248 128 112 248 128 112 216 64 64 216 64 64 128 48 0 128 48 0 128 48 0 128 48 0 216 64 64 216 64 64 216 64 64 128 48 0 128 48 0 184 104 48 216 200 48 184 104 48 248 232 80 184 104 48 216 200 48 184 104 48 16 16 16 128 48 0 216 64 64 216 64 64 216 64 64 128 48 0 128 48 0 128 48 0 128 48 0 216 64 64 216 64 64 248 128 112 248 128 112 248 128 112 216 64 64 216 64 64 216 64 64 216 64 64 128 48 0 16 16 16 255 255 255 255 255 255 255 255 255 255 255 255 255 255 255 255 255 255 255 255 255 255 255 255 255 255 255 
255 255 255 255 255 255 255 255 255 255 255 255 255 255 255 255 255 255 255 255 255 255 255 255 128 48 0 216 64 64 216 64 64 216 64 64 216 200 48 216 200 48 248 232 80 216 200 48 128 48 0 128 48 0 128 48 0 248 128 112 248 128 112 248 128 112 248 128 112 216 64 64 216 64 64 216 64 64 216 64 64 216 64 64 128 48 0 128 48 0 16 16 16 16 16 16 16 16 16 16 16 16 16 16 16 216 64 64 216 64 64 216 64 64 216 64 64 216 64 64 248 128 112 248 128 112 248 128 112 248 128 112 128 48 0 128 48 0 128 48 0 216 64 64 216 64 64 216 64 64 216 64 64 216 64 64 216 64 64 216 64 64 16 16 16 255 255 255 255 255 255 255 255 255 255 255 255 255 255 255 255 255 255 255 255 255 255 255 255 255 255 255 
255 255 255 255 255 255 255 255 255 255 255 255 255 255 255 255 255 255 255 255 255 255 255 255 255 255 255 128 48 0 216 64 64 216 64 64 216 200 48 216 200 48 128 48 0 128 48 0 248 128 112 248 128 112 248 128 112 248 128 112 248 128 112 248 128 112 248 128 112 248 128 112 248 128 112 216 64 64 216 64 64 216 64 64 216 64 64 216 64 64 216 64 64 16 16 16 216 64 64 216 64 64 216 64 64 216 64 64 216 64 64 216 64 64 216 200 48 248 232 80 248 128 112 248 128 112 248 128 112 248 128 112 248 128 112 248 128 112 248 128 112 128 48 0 128 48 0 216 64 64 216 64 64 216 64 64 216 64 64 16 16 16 255 255 255 255 255 255 255 255 255 255 255 255 255 255 255 255 255 255 255 255 255 255 255 255 255 255 255 255 255 255 
255 255 255 255 255 255 255 255 255 255 255 255 255 255 255 255 255 255 255 255 255 255 255 255 255 255 255 128 48 0 216 64 64 216 64 64 216 64 64 128 48 0 216 64 64 248 128 112 248 128 112 248 232 80 216 200 48 248 128 112 248 128 112 248 128 112 248 128 112 248 128 112 216 200 48 216 200 48 216 64 64 216 64 64 216 64 64 216 64 64 216 64 64 16 16 16 216 64 64 216 64 64 216 64 64 216 64 64 216 64 64 216 200 48 248 232 80 216 200 48 248 128 112 248 128 112 248 128 112 248 128 112 248 128 112 248 128 112 248 128 112 248 128 112 216 64 64 128 48 0 216 64 64 216 64 64 216 64 64 16 16 16 255 255 255 255 255 255 255 255 255 255 255 255 255 255 255 255 255 255 255 255 255 255 255 255 255 255 255 255 255 255 
255 255 255 255 255 255 255 255 255 255 255 255 255 255 255 255 255 255 255 255 255 255 255 255 255 255 255 255 255 255 128 48 0 128 48 0 128 48 0 216 64 64 216 64 64 248 128 112 248 232 80 248 232 80 248 232 80 216 200 48 248 128 112 248 128 112 248 128 112 248 232 80 216 200 48 248 128 112 248 128 112 248 128 112 216 64 64 216 64 64 16 16 16 16 16 16 16 16 16 216 64 64 216 64 64 216 64 64 248 128 112 248 232 80 248 232 80 248 128 112 248 128 112 248 128 112 248 128 112 248 232 80 248 232 80 248 128 112 248 128 112 248 128 112 216 64 64 216 64 64 128 48 0 16 16 16 16 16 16 255 255 255 255 255 255 255 255 255 255 255 255 255 255 255 255 255 255 255 255 255 255 255 255 255 255 255 255 255 255 255 255 255 
255 255 255 255 255 255 255 255 255 255 255 255 255 255 255 255 255 255 255 255 255 255 255 255 255 255 255 255 255 255 255 255 255 128 48 0 216 64 64 216 64 64 216 64 64 216 64 64 216 200 48 216 200 48 248 232 80 248 232 80 248 128 112 248 128 112 248 128 112 248 128 112 248 128 112 248 128 112 248 128 112 216 64 64 16 16 16 16 16 16 128 48 0 16 16 16 128 48 0 16 16 16 16 16 16 216 64 64 248 128 112 248 128 112 248 128 112 248 128 112 248 128 112 248 128 112 216 200 48 248 232 80 248 232 80 216 200 48 248 128 112 216 64 64 216 64 64 216 64 64 248 128 112 128 48 0 255 255 255 255 255 255 255 255 255 255 255 255 255 255 255 255 255 255 255 255 255 255 255 255 255 255 255 255 255 255 255 255 255 255 255 255 
255 255 255 255 255 255 255 255 255 255 255 255 255 255 255 255 255 255 255 255 255 255 255 255 255 255 255 255 255 255 128 48 0 216 64 64 216 64 64 216 64 64 216 64 64 216 64 64 216 64 64 216 64 64 248 128 112 248 128 112 248 128 112 248 128 112 248 128 112 248 128 112 248 128 112 248 128 112 216 64 64 16 16 16 16 16 16 128 48 0 16 16 16 128 48 0 16 16 16 128 48 0 16 16 16 16 16 16 216 64 64 248 128 112 248 128 112 248 128 112 248 128 112 248 128 112 248 232 80 248 232 80 216 200 48 216 200 48 216 64 64 216 64 64 216 64 64 216 64 64 216 64 64 248 128 112 16 16 16 255 255 255 255 255 255 255 255 255 255 255 255 255 255 255 255 255 255 255 255 255 255 255 255 255 255 255 255 255 255 255 255 255 
255 255 255 255 255 255 255 255 255 255 255 255 255 255 255 255 255 255 255 255 255 255 255 255 255 255 255 255 255 255 128 48 0 216 64 64 216 64 64 216 64 64 216 64 64 216 64 64 216 64 64 128 48 0 216 64 64 248 128 112 248 128 112 248 128 112 248 128 112 248 128 112 248 128 112 216 64 64 16 16 16 128 48 0 128 48 0 128 48 0 128 48 0 128 48 0 128 48 0 128 48 0 128 48 0 16 16 16 16 16 16 216 64 64 248 128 112 248 128 112 248 128 112 248 128 112 248 128 112 248 128 112 216 64 64 128 48 0 216 64 64 216 64 64 216 64 64 216 64 64 216 64 64 248 128 112 16 16 16 255 255 255 255 255 255 255 255 255 255 255 255 255 255 255 255 255 255 255 255 255 255 255 255 255 255 255 255 255 255 255 255 255 
255 255 255 255 255 255 255 255 255 255 255 255 255 255 255 255 255 255 255 255 255 255 255 255 255 255 255 255 255 255 128 48 0 216 64 64 216 64 64 216 64 64 216 64 64 216 64 64 128 48 0 216 64 64 216 64 64 216 64 64 216 64 64 248 128 112 248 128 112 216 64 64 216 64 64 16 16 16 16 16 16 128 48 0 184 104 48 16 16 16 184 104 48 184 104 48 128 48 0 16 16 16 128 48 0 16 16 16 16 16 16 16 16 16 216 64 64 216 64 64 248 128 112 248 128 112 216 64 64 216 64 64 216 64 64 216 64 64 128 48 0 216 64 64 216 64 64 216 64 64 216 64 64 248 128 112 16 16 16 255 255 255 255 255 255 255 255 255 255 255 255 255 255 255 255 255 255 255 255 255 255 255 255 255 255 255 255 255 255 255 255 255 
255 255 255 255 255 255 255 255 255 255 255 255 255 255 255 255 255 255 255 255 255 255 255 255 255 255 255 255 255 255 255 255 255 16 16 16 16 16 16 216 64 64 216 64 64 128 48 0 128 48 0 216 64 64 216 64 64 216 64 64 216 64 64 216 64 64 216 64 64 216 64 64 128 48 0 16 80 32 16 16 16 184 104 48 16 16 16 128 48 0 16 16 16 184 104 48 16 16 16 128 48 0 16 16 16 128 48 0 16 16 16 16 80 32 128 48 0 216 64 64 216 64 64 216 64 64 216 64 64 216 64 64 216 64 64 216 64 64 216 64 64 128 48 0 216 64 64 216 64 64 16 16 16 16 16 16 255 255 255 255 255 255 255 255 255 255 255 255 255 255 255 255 255 255 255 255 255 255 255 255 255 255 255 255 255 255 255 255 255 255 255 255 
255 255 255 255 255 255 255 255 255 255 255 255 255 255 255 255 255 255 255 255 255 255 255 255 255 255 255 255 255 255 255 255 255 255 255 255 255 255 255 16 16 16 16 16 16 16 16 16 216 64 64 216 64 64 216 64 64 216 64 64 216 64 64 216 200 48 216 200 48 216 200 48 16 16 16 64 160 24 16 16 16 128 48 0 184 104 48 184 104 48 184 104 48 16 16 16 184 104 48 128 48 0 128 48 0 128 48 0 16 16 16 64 160 24 128 48 0 216 64 64 216 64 64 216 64 64 216 64 64 216 64 64 216 64 64 216 64 64 216 64 64 16 16 16 16 16 16 128 48 0 255 255 255 255 255 255 255 255 255 255 255 255 255 255 255 255 255 255 255 255 255 255 255 255 255 255 255 255 255 255 255 255 255 255 255 255 255 255 255 255 255 255 
255 255 255 255 255 255 255 255 255 255 255 255 255 255 255 255 255 255 255 255 255 255 255 255 255 255 255 255 255 255 255 255 255 255 255 255 255 255 255 16 80 32 16 80 32 16 80 32 128 48 0 128 48 0 216 64 64 216 64 64 216 64 64 216 200 48 216 200 48 216 200 48 16 16 16 64 160 24 16 16 16 16 80 32 16 16 16 184 104 48 16 16 16 184 104 48 16 16 16 16 80 32 16 16 16 16 16 16 16 16 16 16 16 16 16 16 16 128 48 0 216 64 64 216 64 64 216 200 48 216 200 48 216 64 64 128 48 0 128 48 0 255 255 255 255 255 255 255 255 255 255 255 255 255 255 255 255 255 255 255 255 255 255 255 255 255 255 255 255 255 255 255 255 255 255 255 255 255 255 255 255 255 255 255 255 255 255 255 255 255 255 255 
255 255 255 255 255 255 255 255 255 255 255 255 255 255 255 255 255 255 255 255 255 255 255 255 255 255 255 255 255 255 64 160 24 64 160 24 16 80 32 16 80 32 104 200 64 16 80 32 64 160 24 64 160 24 16 16 16 16 16 16 216 64 64 216 64 64 216 200 48 216 200 48 16 16 16 16 80 32 16 80 32 64 160 24 64 160 24 64 160 24 16 80 32 16 16 16 16 80 32 64 160 24 64 160 24 64 160 24 64 160 24 64 160 24 16 80 32 128 48 0 216 64 64 216 64 64 216 200 48 128 48 0 128 48 0 16 16 16 16 16 16 16 80 32 16 80 32 16 80 32 255 255 255 255 255 255 255 255 255 255 255 255 255 255 255 255 255 255 255 255 255 255 255 255 255 255 255 255 255 255 255 255 255 255 255 255 255 255 255 255 255 255 
255 255 255 255 255 255 255 255 255 255 255 255 255 255 255 255 255 255 255 255 255 255 255 255 255 255 255 64 160 24 152 240 136 152 240 136 152 240 136 152 240 136 152 240 136 104 200 64 64 160 24 16 80 32 16 80 32 16 80 32 16 16 16 16 16 16 16 16 16 16 16 16 16 16 16 16 80 32 64 160 24 64 160 24 64 160 24 64 160 24 104 200 64 16 16 16 64 160 24 64 160 24 64 160 24 64 160 24 64 160 24 64 160 24 64 160 24 64 160 24 128 48 0 128 48 0 128 48 0 16 16 16 16 16 16 64 160 24 64 160 24 64 160 24 64 160 24 64 160 24 16 80 32 16 80 32 255 255 255 255 255 255 255 255 255 255 255 255 255 255 255 255 255 255 255 255 255 255 255 255 255 255 255 255 255 255 255 255 255 255 255 255 
255 255 255 255 255 255 255 255 255 255 255 255 255 255 255 255 255 255 255 255 255 255 255 255 255 255 255 16 80 32 16 80 32 152 240 136 152 240 136 152 240 136 64 160 24 16 80 32 16 80 32 104 200 64 64 160 24 104 200 64 64 160 24 64 160 24 64 160 24 64 160 24 16 80 32 64 160 24 64 160 24 104 200 64 104 200 64 104 200 64 104 200 64 16 80 32 64 160 24 104 200 64 64 160 24 104 200 64 64 160 24 64 160 24 16 80 32 64 160 24 64 160 24 16 16 16 16 80 32 64 160 24 64 160 24 16 80 32 16 80 32 64 160 24 64 160 24 16 80 32 16 80 32 16 16 16 16 16 16 16 16 16 255 255 255 255 255 255 255 255 255 255 255 255 255 255 255 255 255 255 255 255 255 255 255 255 255 255 255 255 255 255 
255 255 255 255 255 255 255 255 255 255 255 255 255 255 255 64 160 24 64 160 24 64 160 24 64 160 24 152 240 136 152 240 136 152 240 136 64 160 24 64 160 24 152 240 136 64 160 24 104 200 64 64 160 24 104 200 64 64 160 24 104 200 64 64 160 24 16 80 32 64 160 24 64 160 24 16 80 32 16 80 32 64 160 24 104 200 64 152 240 136 104 200 64 16 80 32 64 160 24 64 160 24 104 200 64 64 160 24 104 200 64 64 160 24 64 160 24 16 16 16 64 160 24 16 16 16 64 160 24 64 160 24 64 160 24 64 160 24 32 144 88 16 80 32 64 160 24 64 160 24 64 160 24 104 200 64 104 200 64 104 200 64 16 16 16 255 255 255 255 255 255 255 255 255 255 255 255 255 255 255 255 255 255 255 255 255 255 255 255 255 255 255 
255 255 255 255 255 255 255 255 255 255 255 255 255 255 255 64 160 24 152 240 136 152 240 136 152 240 136 152 240 136 152 240 136 64 160 24 152 240 136 152 240 136 104 200 64 104 200 64 64 160 24 104 200 64 64 160 24 104 200 64 64 160 24 64 160 24 64 160 24 16 80 32 16 80 32 104 200 64 152 240 136 152 240 136 152 240 136 152 240 136 104 200 64 64 160 24 64 160 24 104 200 64 64 160 24 104 200 64 64 160 24 16 80 32 64 160 24 64 160 24 16 16 16 64 160 24 64 160 24 64 160 24 64 160 24 64 160 24 64 160 24 64 160 24 16 80 32 64 160 24 64 160 24 64 160 24 16 80 32 16 16 16 16 16 16 255 255 255 255 255 255 255 255 255 255 255 255 255 255 255 255 255 255 255 255 255 255 255 255 255 255 255 
255 255 255 255 255 255 255 255 255 255 255 255 255 255 255 64 160 24 16 80 32 16 80 32 16 80 32 152 240 136 152 240 136 152 240 136 104 200 64 104 200 64 104 200 64 104 200 64 104 200 64 104 200 64 104 200 64 16 80 32 104 200 64 64 160 24 64 160 24 64 160 24 16 80 32 16 80 32 64 160 24 152 240 136 152 240 136 152 240 136 64 160 24 104 200 64 104 200 64 64 160 24 32 144 88 64 160 24 104 200 64 64 160 24 16 80 32 64 160 24 16 16 16 64 160 24 64 160 24 64 160 24 16 80 32 64 160 24 64 160 24 64 160 24 64 160 24 16 80 32 64 160 24 64 160 24 104 200 64 104 200 64 104 200 64 16 80 32 255 255 255 255 255 255 255 255 255 255 255 255 255 255 255 255 255 255 255 255 255 255 255 255 
255 255 255 255 255 255 255 255 255 255 255 255 255 255 255 255 255 255 64 160 24 152 240 136 152 240 136 152 240 136 152 240 136 16 80 32 152 240 136 64 160 24 104 200 64 104 200 64 16 80 32 104 200 64 104 200 64 104 200 64 16 80 32 64 160 24 64 160 24 16 80 32 152 240 136 152 240 136 152 240 136 152 240 136 152 240 136 104 200 64 64 160 24 104 200 64 104 200 64 104 200 64 64 160 24 16 80 32 64 160 24 64 160 24 64 160 24 16 16 16 32 144 88 16 80 32 64 160 24 16 80 32 64 160 24 64 160 24 64 160 24 16 80 32 64 160 24 64 160 24 16 80 32 64 160 24 104 200 64 104 200 64 104 200 64 104 200 64 16 16 16 255 255 255 255 255 255 255 255 255 255 255 255 255 255 255 255 255 255 255 255 255 
255 255 255 255 255 255 255 255 255 255 255 255 255 255 255 64 160 24 152 240 136 152 240 136 152 240 136 104 200 64 16 80 32 152 240 136 152 240 136 16 80 32 104 200 64 104 200 64 64 160 24 16 16 16 104 200 64 104 200 64 104 200 64 16 16 16 16 16 16 32 144 88 16 80 32 152 240 136 64 160 24 152 240 136 152 240 136 32 144 88 104 200 64 104 200 64 104 200 64 104 200 64 104 200 64 104 200 64 16 80 32 64 160 24 64 160 24 16 16 16 32 144 88 32 144 88 16 80 32 16 80 32 64 160 24 64 160 24 64 160 24 64 160 24 64 160 24 64 160 24 64 160 24 16 80 32 104 200 64 64 160 24 16 80 32 16 16 16 255 255 255 255 255 255 255 255 255 255 255 255 255 255 255 255 255 255 255 255 255 255 255 255 
255 255 255 255 255 255 255 255 255 255 255 255 255 255 255 64 160 24 152 240 136 152 240 136 16 80 32 16 80 32 152 240 136 152 240 136 104 200 64 16 80 32 104 200 64 104 200 64 64 160 24 16 16 16 64 160 24 104 200 64 64 160 24 16 16 16 32 144 88 16 16 16 152 240 136 64 160 24 16 80 32 152 240 136 152 240 136 152 240 136 152 240 136 104 200 64 104 200 64 16 80 32 104 200 64 104 200 64 104 200 64 16 16 16 16 16 16 32 144 88 32 144 88 32 144 88 16 80 32 16 80 32 16 80 32 64 160 24 16 80 32 104 200 64 104 200 64 16 80 32 64 160 24 104 200 64 104 200 64 104 200 64 104 200 64 104 200 64 16 80 32 255 255 255 255 255 255 255 255 255 255 255 255 255 255 255 255 255 255 255 255 255 
255 255 255 255 255 255 255 255 255 255 255 255 255 255 255 32 144 88 16 80 32 16 80 32 32 144 88 16 80 32 152 240 136 104 200 64 16 80 32 32 144 88 16 80 32 64 160 24 64 160 24 16 16 16 16 16 16 64 160 24 16 16 16 32 144 88 32 144 88 16 16 16 152 240 136 16 80 32 152 240 136 152 240 136 16 80 32 152 240 136 16 80 32 104 200 64 104 200 64 104 200 64 16 80 32 104 200 64 104 200 64 104 200 64 16 16 16 32 144 88 16 80 32 16 80 32 88 200 144 128 232 192 128 232 192 16 80 32 16 80 32 104 200 64 16 80 32 104 200 64 104 200 64 104 200 64 104 200 64 104 200 64 104 200 64 104 200 64 104 200 64 16 80 32 255 255 255 255 255 255 255 255 255 255 255 255 255 255 255 255 255 255 
255 255 255 255 255 255 255 255 255 255 255 255 255 255 255 32 144 88 128 232 192 128 232 192 128 232 192 32 144 88 16 80 32 16 80 32 16 80 32 32 144 88 32 144 88 16 16 16 16 16 16 32 144 88 32 144 88 16 16 16 16 16 16 32 144 88 88 200 144 32 144 88 16 80 32 152 240 136 152 240 136 64 160 24 64 160 24 104 200 64 16 80 32 104 200 64 104 200 64 104 200 64 104 200 64 32 144 88 104 200 64 16 16 16 32 144 88 88 200 144 88 200 144 128 232 192 128 232 192 88 200 144 16 80 32 32 144 88 16 16 16 16 80 32 16 80 32 152 240 136 104 200 64 16 80 32 104 200 64 104 200 64 104 200 64 64 160 24 16 16 16 16 16 16 255 255 255 255 255 255 255 255 255 255 255 255 255 255 255 255 255 255 
255 255 255 255 255 255 255 255 255 255 255 255 32 144 88 128 232 192 128 232 192 128 232 192 128 232 192 88 200 144 32 144 88 32 144 88 32 144 88 32 144 88 32 144 88 32 144 88 32 144 88 32 144 88 32 144 88 16 80 32 216 64 64 128 232 192 88 200 144 88 200 144 16 80 32 152 240 136 152 240 136 16 80 32 152 240 136 104 200 64 64 160 24 16 80 32 104 200 64 104 200 64 104 200 64 16 16 16 16 16 16 32 144 88 88 200 144 88 200 144 128 232 192 128 232 192 88 200 144 16 16 16 216 64 64 32 144 88 16 16 16 32 144 88 16 80 32 152 240 136 16 80 32 152 240 136 104 200 64 16 80 32 152 240 136 104 200 64 64 160 24 255 255 255 255 255 255 255 255 255 255 255 255 255 255 255 255 255 255 255 255 255 
255 255 255 255 255 255 255 255 255 255 255 255 32 144 88 128 232 192 128 232 192 128 232 192 128 232 192 128 232 192 88 200 144 32 144 88 32 144 88 32 144 88 88 200 144 88 200 144 32 144 88 32 144 88 32 144 88 16 80 32 248 128 112 128 232 192 128 232 192 88 200 144 32 144 88 16 80 32 16 80 32 16 80 32 152 240 136 104 200 64 16 16 16 16 16 16 16 80 32 104 200 64 16 16 16 16 16 16 32 144 88 88 200 144 88 200 144 88 200 144 88 200 144 88 200 144 16 16 16 216 64 64 248 128 112 32 144 88 16 16 16 32 144 88 32 144 88 16 16 16 16 16 16 152 240 136 152 240 136 16 16 16 16 16 16 152 240 136 152 240 136 16 16 16 255 255 255 255 255 255 255 255 255 255 255 255 255 255 255 255 255 255 
255 255 255 255 255 255 255 255 255 255 255 255 32 144 88 128 232 192 128 232 192 128 232 192 128 232 192 128 232 192 128 232 192 88 200 144 88 200 144 88 200 144 88 200 144 88 200 144 88 200 144 88 200 144 32 144 88 16 80 32 16 16 16 128 232 192 128 232 192 88 200 144 88 200 144 88 200 144 32 144 88 16 16 16 16 16 16 16 16 16 32 144 88 32 144 88 16 16 16 16 16 16 32 144 88 32 144 88 88 200 144 88 200 144 88 200 144 88 200 144 88 200 144 88 200 144 88 200 144 16 80 32 32 144 88 88 200 144 32 144 88 16 80 32 32 144 88 32 144 88 32 144 88 16 16 16 16 16 16 255 255 255 255 255 255 16 16 16 16 16 16 16 16 16 255 255 255 255 255 255 255 255 255 255 255 255 255 255 255 255 255 255 
255 255 255 255 255 255 255 255 255 32 144 88 128 232 192 128 232 192 128 232 192 128 232 192 88 200 144 128 232 192 128 232 192 128 232 192 128 232 192 88 200 144 88 200 144 88 200 144 88 200 144 88 200 144 32 144 88 16 80 32 128 232 192 128 232 192 88 200 144 128 232 192 128 232 192 88 200 144 88 200 144 88 200 144 32 144 88 32 144 88 32 144 88 88 200 144 88 200 144 32 144 88 32 144 88 88 200 144 88 200 144 88 200 144 32 144 88 32 144 88 32 144 88 32 144 88 88 200 144 88 200 144 88 200 144 88 200 144 32 144 88 32 144 88 16 16 16 32 144 88 32 144 88 32 144 88 16 80 32 255 255 255 255 255 255 255 255 255 255 255 255 255 255 255 255 255 255 255 255 255 255 255 255 255 255 255 255 255 255 255 255 255 
255 255 255 255 255 255 255 255 255 32 144 88 128 232 192 128 232 192 128 232 192 88 200 144 32 144 88 128 232 192 128 232 192 128 232 192 128 232 192 88 200 144 88 200 144 88 200 144 88 200 144 88 200 144 16 80 32 88 200 144 16 80 32 128 232 192 32 144 88 128 232 192 128 232 192 128 232 192 88 200 144 88 200 144 88 200 144 88 200 144 88 200 144 88 200 144 88 200 144 88 200 144 88 200 144 88 200 144 88 200 144 32 144 88 88 200 144 88 200 144 88 200 144 88 200 144 32 144 88 88 200 144 88 200 144 32 144 88 32 144 88 32 144 88 16 80 32 32 144 88 32 144 88 32 144 88 32 144 88 16 80 32 255 255 255 255 255 255 255 255 255 255 255 255 255 255 255 255 255 255 255 255 255 255 255 255 255 255 255 255 255 255 
255 255 255 255 255 255 255 255 255 16 80 32 128 232 192 128 232 192 128 232 192 88 200 144 32 144 88 128 232 192 128 232 192 32 144 88 88 200 144 88 200 144 88 200 144 88 200 144 88 200 144 88 200 144 16 80 32 248 248 248 16 80 32 128 232 192 32 144 88 128 232 192 128 232 192 128 232 192 128 232 192 88 200 144 88 200 144 88 200 144 88 200 144 88 200 144 88 200 144 88 200 144 88 200 144 88 200 144 88 200 144 128 232 192 88 200 144 88 200 144 88 200 144 16 80 32 16 80 32 88 200 144 88 200 144 32 144 88 32 144 88 32 144 88 32 144 88 16 80 32 32 144 88 32 144 88 32 144 88 32 144 88 16 80 32 255 255 255 255 255 255 255 255 255 255 255 255 255 255 255 255 255 255 255 255 255 255 255 255 255 255 255 
255 255 255 255 255 255 255 255 255 16 80 32 128 232 192 128 232 192 128 232 192 88 200 144 32 144 88 88 200 144 32 144 88 128 232 192 88 200 144 88 200 144 88 200 144 88 200 144 88 200 144 32 144 88 88 200 144 248 248 248 216 64 64 16 80 32 88 200 144 88 200 144 128 232 192 128 232 192 88 200 144 128 232 192 88 200 144 88 200 144 88 200 144 88 200 144 88 200 144 88 200 144 88 200 144 88 200 144 32 144 88 128 232 192 128 232 192 32 144 88 16 80 32 248 248 248 16 80 32 88 200 144 88 200 144 32 144 88 32 144 88 32 144 88 32 144 88 16 80 32 32 144 88 88 200 144 32 144 88 88 200 144 32 144 88 255 255 255 255 255 255 255 255 255 255 255 255 255 255 255 255 255 255 255 255 255 255 255 255 255 255 255 
255 255 255 255 255 255 255 255 255 255 255 255 16 80 32 128 232 192 128 232 192 88 200 144 16 80 32 88 200 144 32 144 88 128 232 192 88 200 144 88 200 144 88 200 144 88 200 144 88 200 144 16 80 32 88 200 144 248 248 248 16 16 16 16 80 32 88 200 144 88 200 144 128 232 192 128 232 192 128 232 192 88 200 144 88 200 144 88 200 144 88 200 144 88 200 144 88 200 144 88 200 144 88 200 144 88 200 144 32 144 88 128 232 192 16 80 32 16 16 16 216 64 64 248 248 248 32 144 88 88 200 144 88 200 144 32 144 88 32 144 88 32 144 88 32 144 88 16 80 32 32 144 88 32 144 88 88 200 144 32 144 88 88 200 144 16 80 32 255 255 255 255 255 255 255 255 255 255 255 255 255 255 255 255 255 255 255 255 255 255 255 255 
255 255 255 255 255 255 255 255 255 255 255 255 16 80 32 128 232 192 88 200 144 88 200 144 16 80 32 32 144 88 128 232 192 128 232 192 88 200 144 88 200 144 88 200 144 88 200 144 16 80 32 16 80 32 88 200 144 248 248 248 248 248 248 16 80 32 128 232 192 128 232 192 128 232 192 128 232 192 88 200 144 128 232 192 88 200 144 88 200 144 88 200 144 88 200 144 88 200 144 88 200 144 88 200 144 88 200 144 16 80 32 16 80 32 248 248 248 16 16 16 216 64 64 248 248 248 32 144 88 88 200 144 32 144 88 32 144 88 32 144 88 32 144 88 32 144 88 16 80 32 32 144 88 32 144 88 32 144 88 88 200 144 32 144 88 88 200 144 16 80 32 255 255 255 255 255 255 255 255 255 255 255 255 255 255 255 255 255 255 255 255 255 
255 255 255 255 255 255 255 255 255 255 255 255 255 255 255 16 80 32 88 200 144 88 200 144 16 80 32 32 144 88 128 232 192 128 232 192 88 200 144 88 200 144 88 200 144 88 200 144 32 144 88 16 80 32 128 232 192 32 144 88 32 144 88 128 232 192 128 232 192 128 232 192 128 232 192 88 200 144 128 232 192 88 200 144 88 200 144 88 200 144 88 200 144 88 200 144 88 200 144 88 200 144 88 200 144 88 200 144 32 144 88 248 248 248 248 248 248 248 248 248 248 248 248 128 232 192 32 144 88 88 200 144 32 144 88 16 80 32 32 144 88 32 144 88 32 144 88 16 80 32 32 144 88 32 144 88 88 200 144 32 144 88 88 200 144 88 200 144 88 200 144 16 80 32 255 255 255 255 255 255 255 255 255 255 255 255 255 255 255 255 255 255 
255 255 255 255 255 255 255 255 255 255 255 255 255 255 255 16 80 32 16 80 32 32 144 88 32 144 88 16 80 32 128 232 192 128 232 192 88 200 144 88 200 144 88 200 144 88 200 144 32 144 88 16 80 32 128 232 192 128 232 192 128 232 192 128 232 192 128 232 192 128 232 192 128 232 192 128 232 192 88 200 144 88 200 144 88 200 144 88 200 144 88 200 144 88 200 144 88 200 144 88 200 144 88 200 144 88 200 144 88 200 144 88 200 144 32 144 88 32 144 88 32 144 88 88 200 144 88 200 144 88 200 144 32 144 88 16 80 32 32 144 88 32 144 88 32 144 88 16 80 32 32 144 88 32 144 88 88 200 144 88 200 144 88 200 144 88 200 144 88 200 144 16 80 32 255 255 255 255 255 255 255 255 255 255 255 255 255 255 255 255 255 255 
255 255 255 255 255 255 255 255 255 255 255 255 88 200 144 248 248 248 32 144 88 248 248 248 32 144 88 16 16 16 128 232 192 128 232 192 88 200 144 88 200 144 88 200 144 88 200 144 88 200 144 32 144 88 16 80 32 128 232 192 128 232 192 128 232 192 128 232 192 128 232 192 128 232 192 88 200 144 88 200 144 88 200 144 88 200 144 88 200 144 88 200 144 88 200 144 88 200 144 88 200 144 88 200 144 88 200 144 88 200 144 88 200 144 88 200 144 88 200 144 88 200 144 88 200 144 88 200 144 32 144 88 16 80 32 32 144 88 32 144 88 32 144 88 32 144 88 16 80 32 32 144 88 32 144 88 32 144 88 88 200 144 88 200 144 32 144 88 88 200 144 88 200 144 16 80 32 255 255 255 255 255 255 255 255 255 255 255 255 255 255 255 
255 255 255 255 255 255 255 255 255 255 255 255 32 144 88 16 16 16 16 16 16 248 248 248 128 232 192 16 16 16 128 232 192 88 200 144 88 200 144 88 200 144 88 200 144 88 200 144 88 200 144 32 144 88 16 80 32 88 200 144 88 200 144 128 232 192 128 232 192 128 232 192 128 232 192 88 200 144 32 144 88 88 200 144 88 200 144 88 200 144 88 200 144 88 200 144 88 200 144 88 200 144 88 200 144 88 200 144 88 200 144 88 200 144 88 200 144 88 200 144 88 200 144 16 80 32 16 80 32 16 80 32 32 144 88 32 144 88 32 144 88 32 144 88 16 80 32 32 144 88 32 144 88 32 144 88 32 144 88 88 200 144 88 200 144 88 200 144 16 80 32 88 200 144 16 80 32 255 255 255 255 255 255 255 255 255 255 255 255 255 255 255 
255 255 255 255 255 255 255 255 255 255 255 255 255 255 255 255 255 255 16 16 16 16 16 16 16 16 16 16 16 16 128 232 192 88 200 144 88 200 144 32 144 88 88 200 144 88 200 144 88 200 144 32 144 88 16 80 32 32 144 88 16 80 32 32 144 88 88 200 144 128 232 192 128 232 192 128 232 192 88 200 144 88 200 144 88 200 144 88 200 144 16 80 32 88 200 144 88 200 144 88 200 144 88 200 144 88 200 144 88 200 144 88 200 144 16 16 16 16 16 16 248 248 248 128 48 0 128 48 0 16 80 32 32 144 88 32 144 88 32 144 88 32 144 88 16 16 16 32 144 88 32 144 88 32 144 88 32 144 88 88 200 144 88 200 144 16 80 32 88 200 144 88 200 144 88 200 144 16 80 32 255 255 255 255 255 255 255 255 255 255 255 255 
255 255 255 255 255 255 255 255 255 255 255 255 255 255 255 255 255 255 255 255 255 255 255 255 255 255 255 16 80 32 128 232 192 88 200 144 32 144 88 88 200 144 88 200 144 88 200 144 88 200 144 32 144 88 32 144 88 16 80 32 32 144 88 16 80 32 16 80 32 248 248 248 16 80 32 32 144 88 88 200 144 88 200 144 88 200 144 88 200 144 88 200 144 88 200 144 88 200 144 88 200 144 16 80 32 16 16 16 16 16 16 16 80 32 128 48 0 128 48 0 128 48 0 128 48 0 16 80 32 32 144 88 32 144 88 32 144 88 32 144 88 16 80 32 16 16 16 32 144 88 32 144 88 32 144 88 32 144 88 32 144 88 88 200 144 88 200 144 88 200 144 88 200 144 88 200 144 16 16 16 255 255 255 255 255 255 255 255 255 255 255 255 
255 255 255 255 255 255 255 255 255 255 255 255 255 255 255 255 255 255 255 255 255 255 255 255 255 255 255 16 80 32 88 200 144 88 200 144 88 200 144 16 80 32 88 200 144 88 200 144 88 200 144 32 144 88 32 144 88 16 80 32 16 80 32 32 144 88 16 16 16 16 16 16 16 16 16 216 64 64 216 64 64 16 80 32 16 16 16 16 16 16 16 16 16 16 80 32 16 80 32 32 144 88 216 64 64 216 64 64 216 64 64 216 64 64 216 64 64 128 48 0 128 48 0 16 80 32 32 144 88 32 144 88 32 144 88 32 144 88 16 80 32 16 16 16 16 80 32 32 144 88 32 144 88 32 144 88 32 144 88 32 144 88 88 200 144 88 200 144 88 200 144 88 200 144 88 200 144 16 16 16 255 255 255 255 255 255 255 255 255 255 255 255 
255 255 255 255 255 255 255 255 255 255 255 255 255 255 255 255 255 255 255 255 255 255 255 255 255 255 255 16 80 32 88 200 144 88 200 144 88 200 144 88 200 144 88 200 144 88 200 144 32 144 88 32 144 88 32 144 88 16 80 32 16 80 32 16 80 32 16 80 32 88 200 144 32 144 88 16 16 16 216 64 64 248 128 112 248 128 112 248 128 112 248 128 112 248 128 112 248 128 112 248 128 112 216 64 64 216 64 64 216 64 64 16 80 32 16 80 32 248 248 248 32 144 88 32 144 88 32 144 88 32 144 88 16 16 16 16 16 16 255 255 255 255 255 255 255 255 255 16 80 32 32 144 88 32 144 88 32 144 88 32 144 88 32 144 88 88 200 144 88 200 144 88 200 144 32 144 88 16 16 16 255 255 255 255 255 255 255 255 255 255 255 255 
255 255 255 255 255 255 255 255 255 255 255 255 255 255 255 255 255 255 255 255 255 255 255 255 255 255 255 88 200 144 248 248 248 88 200 144 88 200 144 88 200 144 88 200 144 32 144 88 32 144 88 32 144 88 32 144 88 128 232 192 16 80 32 255 255 255 255 255 255 16 80 32 32 144 88 248 248 248 32 144 88 216 64 64 216 64 64 216 64 64 216 64 64 216 64 64 216 64 64 216 64 64 216 64 64 16 80 32 16 80 32 88 200 144 32 144 88 32 144 88 32 144 88 32 144 88 16 16 16 16 16 16 255 255 255 255 255 255 255 255 255 255 255 255 255 255 255 255 255 255 16 80 32 248 248 248 16 80 32 32 144 88 32 144 88 16 80 32 16 80 32 32 144 88 32 144 88 16 16 16 32 144 88 255 255 255 255 255 255 255 255 255 
255 255 255 255 255 255 255 255 255 255 255 255 255 255 255 255 255 255 255 255 255 255 255 255 88 200 144 248 248 248 248 248 248 16 80 32 32 144 88 32 144 88 32 144 88 248 248 248 16 80 32 32 144 88 16 80 32 128 232 192 128 232 192 16 16 16 255 255 255 255 255 255 16 80 32 32 144 88 128 232 192 128 232 192 88 200 144 88 200 144 88 200 144 88 200 144 88 200 144 88 200 144 88 200 144 88 200 144 88 200 144 32 144 88 32 144 88 16 80 32 16 16 16 16 16 16 255 255 255 255 255 255 255 255 255 255 255 255 255 255 255 255 255 255 255 255 255 88 200 144 248 248 248 128 232 192 16 80 32 32 144 88 16 80 32 248 248 248 248 248 248 16 80 32 16 80 32 128 232 192 128 232 192 32 144 88 255 255 255 255 255 255 
255 255 255 255 255 255 255 255 255 255 255 255 255 255 255 255 255 255 255 255 255 255 255 255 32 144 88 16 16 16 16 16 16 16 16 16 16 16 16 16 16 16 248 248 248 248 248 248 248 248 248 16 16 16 16 16 16 16 16 16 16 16 16 16 16 16 255 255 255 255 255 255 255 255 255 255 255 255 32 144 88 16 80 32 16 16 16 16 16 16 16 16 16 16 16 16 16 16 16 16 16 16 16 16 16 16 16 16 16 16 16 16 80 32 16 80 32 255 255 255 255 255 255 255 255 255 255 255 255 255 255 255 255 255 255 255 255 255 255 255 255 255 255 255 255 255 255 32 144 88 16 16 16 16 16 16 16 16 16 16 16 16 16 80 32 248 248 248 248 248 248 248 248 248 16 16 16 16 16 16 16 16 16 255 255 255 255 255 255 255 255 255 
255 255 255 255 255 255 255 255 255 255 255 255 255 255 255 255 255 255 255 255 255 255 255 255 255 255 255 255 255 255 255 255 255 255 255 255 255 255 255 255 255 255 32 144 88 248 248 248 248 248 248 16 16 16 255 255 255 255 255 255 255 255 255 255 255 255 255 255 255 255 255 255 255 255 255 255 255 255 255 255 255 255 255 255 255 255 255 255 255 255 255 255 255 255 255 255 255 255 255 255 255 255 255 255 255 255 255 255 255 255 255 255 255 255 255 255 255 255 255 255 255 255 255 255 255 255 255 255 255 255 255 255 255 255 255 255 255 255 255 255 255 255 255 255 255 255 255 255 255 255 255 255 255 255 255 255 255 255 255 255 255 255 255 255 255 16 16 16 16 16 16 16 16 16 255 255 255 255 255 255 255 255 255 255 255 255 255 255 255 255 255 255 
255 255 255 255 255 255 255 255 255 255 255 255 255 255 255 255 255 255 255 255 255 255 255 255 255 255 255 255 255 255 255 255 255 255 255 255 255 255 255 255 255 255 255 255 255 32 144 88 16 16 16 255 255 255 255 255 255 255 255 255 255 255 255 255 255 255 255 255 255 255 255 255 255 255 255 255 255 255 255 255 255 255 255 255 255 255 255 255 255 255 255 255 255 255 255 255 255 255 255 255 255 255 255 255 255 255 255 255 255 255 255 255 255 255 255 255 255 255 255 255 255 255 255 255 255 255 255 255 255 255 255 255 255 255 255 255 255 255 255 255 255 255 255 255 255 255 255 255 255 255 255 255 255 255 255 255 255 255 255 255 255 255 255 255 255 255 255 255 255 255 255 255 255 255 255 255 255 255 255 255 255 255 255 255 255 255 255 255 255 255 255 255 
255 255 255 255 255 255 255 255 255 255 255 255 255 255 255 255 255 255 255 255 255 255 255 255 255 255 255 255 255 255 255 255 255 255 255 255 255 255 255 255 255 255 255 255 255 255 255 255 255 255 255 255 255 255 255 255 255 255 255 255 255 255 255 255 255 255 255 255 255 255 255 255 255 255 255 255 255 255 255 255 255 255 255 255 255 255 255 255 255 255 255 255 255 255 255 255 255 255 255 255 255 255 255 255 255 255 255 255 255 255 255 255 255 255 255 255 255 255 255 255 255 255 255 255 255 255 255 255 255 255 255 255 255 255 255 255 255 255 255 255 255 255 255 255 255 255 255 255 255 255 255 255 255 255 255 255 255 255 255 255 255 255 255 255 255 255 255 255 255 255 255 255 255 255 255 255 255 255 255 255 255 255 255 255 255 255 255 255 255 255 255 255 
255 255 255 255 255 255 255 255 255 255 255 255 255 255 255 255 255 255 255 255 255 255 255 255 255 255 255 255 255 255 255 255 255 255 255 255 255 255 255 255 255 255 255 255 255 255 255 255 255 255 255 255 255 255 255 255 255 255 255 255 255 255 255 255 255 255 255 255 255 255 255 255 255 255 255 255 255 255 255 255 255 255 255 255 255 255 255 255 255 255 255 255 255 255 255 255 255 255 255 255 255 255 255 255 255 255 255 255 255 255 255 255 255 255 255 255 255 255 255 255 255 255 255 255 255 255 255 255 255 255 255 255 255 255 255 255 255 255 255 255 255 255 255 255 255 255 255 255 255 255 255 255 255 255 255 255 255 255 255 255 255 255 255 255 255 255 255 255 255 255 255 255 255 255 255 255 255 255 255 255 255 255 255 255 255 255 255 255 255 255 255 255 
255 255 255 255 255 255 255 255 255 255 255 255 255 255 255 255 255 255 255 255 255 255 255 255 255 255 255 255 255 255 255 255 255 255 255 255 255 255 255 255 255 255 255 255 255 255 255 255 255 255 255 255 255 255 255 255 255 255 255 255 255 255 255 255 255 255 255 255 255 255 255 255 255 255 255 255 255 255 255 255 255 255 255 255 255 255 255 255 255 255 255 255 255 255 255 255 255 255 255 255 255 255 255 255 255 255 255 255 255 255 255 255 255 255 255 255 255 255 255 255 255 255 255 255 255 255 255 255 255 255 255 255 255 255 255 255 255 255 255 255 255 255 255 255 255 255 255 255 255 255 255 255 255 255 255 255 255 255 255 255 255 255 255 255 255 255 255 255 255 255 255 255 255 255 255 255 255 255 255 255 255 255 255 255 255 255 255 255 255 255 255 255 
