P3
64 64
255
255 255 255 255 255 255 255 255 255 255 255 255 255 255 255 255 255 255 255 255 255 255 255 255 255 255 255 255 255 255 255 255 255 255 255 255 255 255 255 255 255 255 255 255 255 255 255 255 255 255 255 255 255 255 255 255 255 255 255 255 255 255 255 255 255 255 255 255 255 255 255 255 255 255 255 255 255 255 255 255 255 255 255 255 255 255 255 255 255 255 255 255 255 255 255 255 255 255 255 255 255 255 255 255 255 255 255 255 255 255 255 255 255 255 255 255 255 255 255 255 255 255 255 255 255 255 255 255 255 255 255 255 255 255 255 255 255 255 255 255 255 255 255 255 255 255 255 255 255 255 255 255 255 255 255 255 255 255 255 255 255 255 255 255 255 255 255 255 255 255 255 255 255 255 255 255 255 255 255 255 255 255 255 255 255 255 255 255 255 255 255 255 
255 255 255 255 255 255 255 255 255 255 255 255 255 255 255 255 255 255 255 255 255 255 255 255 255 255 255 255 255 255 255 255 255 255 255 255 255 255 255 255 255 255 255 255 255 255 255 255 255 255 255 255 255 255 255 255 255 255 255 255 255 255 255 255 255 255 255 255 255 255 255 255 255 255 255 255 255 255 255 255 255 255 255 255 255 255 255 255 255 255 255 255 255 255 255 255 255 255 255 255 255 255 255 255 255 255 255 255 255 255 255 255 255 255 255 255 255 255 255 255 255 255 255 255 255 255 255 255 255 255 255 255 255 255 255 255 255 255 255 255 255 255 255 255 255 255 255 255 255 255 255 255 255 255 255 255 255 255 255 255 255 255 255 255 255 255 255 255 255 255 255 255 255 255 255 255 255 255 255 255 255 255 255 255 255 255 255 255 255 255 255 255 
255 255 255 255 255 255 255 255 255 255 255 255 255 255 255 255 255 255 255 255 255 255 255 255 255 255 255 255 255 255 255 255 255 255 255 255 255 255 255 255 255 255 255 255 255 255 255 255 255 255 255 255 255 255 255 255 255 255 255 255 255 255 255 255 255 255 255 255 255 255 255 255 255 255 255 255 255 255 255 255 255 255 255 255 255 255 255 255 255 255 255 255 255 255 255 255 255 255 255 255 255 255 255 255 255 255 255 255 255 255 255 255 255 255 255 255 255 255 255 255 255 255 255 255 255 255 255 255 255 255 255 255 255 255 255 255 255 255 255 255 255 255 255 255 255 255 255 255 255 255 255 255 255 255 255 255 255 255 255 255 255 255 255 255 255 255 255 255 255 255 255 255 255 255 255 255 255 255 255 255 255 255 255 255 255 255 255 255 255 255 255 255 
255 255 255 255 255 255 255 255 255 255 255 255 255 255 255 255 255 255 255 255 255 255 255 255 255 255 255 255 255 255 255 255 255 255 255 255 255 255 255 255 255 255 255 255 255 255 255 255 255 255 255 255 255 255 255 255 255 255 255 255 255 255 255 255 255 255 255 255 255 255 255 255 255 255 255 255 255 255 255 255 255 255 255 255 255 255 255 255 255 255 255 255 255 255 255 255 255 255 255 255 255 255 255 255 255 255 255 255 255 255 255 255 255 255 255 255 255 255 255 255 255 255 255 255 255 255 255 255 255 255 255 255 255 255 255 255 255 255 255 255 255 255 255 255 255 255 255 255 255 255 255 255 255 255 255 255 255 255 255 255 255 255 255 255 255 255 255 255 255 255 255 255 255 255 255 255 255 255 255 255 255 255 255 255 255 255 255 255 255 255 255 255 
255 255 255 255 255 255 255 255 255 255 255 255 255 255 255 255 255 255 255 255 255 255 255 255 255 255 255 255 255 255 255 255 255 255 255 255 255 255 255 255 255 255 255 255 255 255 255 255 255 255 255 255 255 255 255 255 255 255 255 255 255 255 255 255 255 255 255 255 255 255 255 255 255 255 255 255 255 255 255 255 255 255 255 255 255 255 255 255 255 255 255 255 255 255 255 255 255 255 255 255 255 255 255 255 255 255 255 255 255 255 255 255 255 255 255 255 255 255 255 255 255 255 255 255 255 255 255 255 255 255 255 255 255 255 255 255 255 255 255 255 255 255 255 255 255 255 255 255 255 255 255 255 255 255 255 255 255 255 255 255 255 255 255 255 255 255 255 255 255 255 255 255 255 255 255 255 255 255 255 255 255 255 255 255 255 255 255 255 255 255 255 255 
255 255 255 255 255 255 255 255 255 255 255 255 255 255 255 255 255 255 255 255 255 255 255 255 255 255 255 255 255 255 255 255 255 255 255 255 255 255 255 255 255 255 255 255 255 255 255 255 255 255 255 255 255 255 255 255 255 255 255 255 255 255 255 255 255 255 255 255 255 255 255 255 255 255 255 255 255 255 255 255 255 255 255 255 255 255 255 255 255 255 255 255 255 255 255 255 255 255 255 255 255 255 255 255 255 255 255 255 255 255 255 255 255 255 104 64 0 104 64 0 104 64 0 16 16 16 16 16 16 16 16 16 16 16 16 104 64 0 255 255 255 255 255 255 255 255 255 255 255 255 255 255 255 255 255 255 255 255 255 255 255 255 255 255 255 255 255 255 255 255 255 255 255 255 255 255 255 255 255 255 255 255 255 255 255 255 255 255 255 255 255 255 
255 255 255 255 255 255 255 255 255 255 255 255 255 255 255 255 255 255 255 255 255 255 255 255 255 255 255 255 255 255 255 255 255 255 255 255 255 255 255 255 255 255 255 255 255 255 255 255 255 255 255 255 255 255 255 255 255 255 255 255 255 255 255 255 255 255 255 255 255 255 255 255 255 255 255 255 255 255 255 255 255 255 255 255 255 255 255 112 168 48 80 96 40 80 96 40 80 96 40 80 96 40 255 255 255 255 255 255 16 16 16 104 64 0 176 120 48 176 120 48 176 120 48 176 120 48 176 120 48 176 120 48 176 120 48 176 120 48 16 16 16 16 16 16 255 255 255 255 255 255 255 255 255 255 255 255 255 255 255 255 255 255 255 255 255 255 255 255 255 255 255 255 255 255 255 255 255 255 255 255 255 255 255 255 255 255 255 255 255 255 255 255 
255 255 255 255 255 255 255 255 255 255 255 255 255 255 255 255 255 255 255 255 255 255 255 255 255 255 255 255 255 255 255 255 255 255 255 255 255 255 255 255 255 255 255 255 255 255 255 255 255 255 255 255 255 255 255 255 255 255 255 255 255 255 255 255 255 255 255 255 255 255 255 255 255 255 255 255 255 255 255 255 255 80 96 40 112 168 48 184 248 112 184 248 112 184 248 112 152 208 72 152 208 72 104 64 0 16 16 16 176 120 48 176 120 48 80 96 40 80 96 40 80 96 40 80 96 40 80 96 40 16 16 16 16 16 16 104 64 0 104 64 0 176 120 48 16 16 16 16 16 16 255 255 255 255 255 255 255 255 255 255 255 255 255 255 255 255 255 255 255 255 255 255 255 255 255 255 255 255 255 255 255 255 255 255 255 255 255 255 255 255 255 255 
255 255 255 255 255 255 255 255 255 255 255 255 255 255 255 255 255 255 255 255 255 255 255 255 255 255 255 255 255 255 255 255 255 255 255 255 255 255 255 255 255 255 255 255 255 255 255 255 255 255 255 255 255 255 255 255 255 255 255 255 255 255 255 255 255 255 255 255 255 255 255 255 255 255 255 80 96 40 112 168 48 184 248 112 184 248 112 184 248 112 184 248 112 152 208 72 152 208 72 152 208 72 16 16 16 176 120 48 176 120 48 104 64 0 112 168 48 112 168 48 112 168 48 112 168 48 112 168 48 16 16 16 255 255 255 255 255 255 255 255 255 104 64 0 176 120 48 176 120 48 16 16 16 255 255 255 255 255 255 255 255 255 255 255 255 255 255 255 255 255 255 255 255 255 255 255 255 255 255 255 255 255 255 255 255 255 255 255 255 255 255 255 
255 255 255 255 255 255 255 255 255 255 255 255 255 255 255 255 255 255 255 255 255 255 255 255 255 255 255 255 255 255 255 255 255 255 255 255 255 255 255 255 255 255 255 255 255 255 255 255 255 255 255 255 255 255 255 255 255 255 255 255 255 255 255 255 255 255 255 255 255 255 255 255 112 168 48 184 248 112 184 248 112 184 248 112 184 248 112 184 248 112 184 248 112 152 208 72 152 208 72 104 64 0 176 120 48 176 120 48 104 64 0 112 168 48 112 168 48 112 168 48 112 168 48 112 168 48 112 168 48 112 168 48 16 16 16 255 255 255 255 255 255 255 255 255 255 255 255 104 64 0 176 120 48 16 16 16 255 255 255 255 255 255 255 255 255 255 255 255 255 255 255 255 255 255 255 255 255 255 255 255 255 255 255 255 255 255 255 255 255 255 255 255 
255 255 255 255 255 255 255 255 255 255 255 255 255 255 255 255 255 255 255 255 255 255 255 255 255 255 255 255 255 255 255 255 255 255 255 255 255 255 255 255 255 255 255 255 255 255 255 255 255 255 255 255 255 255 255 255 255 255 255 255 255 255 255 255 255 255 255 255 255 112 168 48 184 248 112 184 248 112 184 248 112 152 208 72 184 248 112 184 248 112 152 208 72 152 208 72 152 208 72 104 64 0 176 120 48 104 64 0 112 168 48 112 168 48 112 168 48 112 168 48 112 168 48 112 168 48 112 168 48 112 168 48 112 168 48 80 96 40 255 255 255 255 255 255 255 255 255 255 255 255 104 64 0 176 120 48 16 16 16 255 255 255 255 255 255 255 255 255 255 255 255 255 255 255 255 255 255 255 255 255 255 255 255 255 255 255 255 255 255 255 255 255 
255 255 255 255 255 255 255 255 255 255 255 255 255 255 255 255 255 255 255 255 255 255 255 255 255 255 255 255 255 255 255 255 255 255 255 255 255 255 255 255 255 255 255 255 255 255 255 255 255 255 255 255 255 255 255 255 255 255 255 255 255 255 255 255 255 255 80 96 40 184 248 112 184 248 112 184 248 112 152 208 72 184 248 112 152 208 72 184 248 112 152 208 72 152 208 72 104 64 0 176 120 48 104 64 0 112 168 48 112 168 48 112 168 48 112 168 48 112 168 48 112 168 48 112 168 48 112 168 48 112 168 48 112 168 48 112 168 48 80 96 40 255 255 255 255 255 255 255 255 255 255 255 255 104 64 0 16 16 16 255 255 255 255 255 255 255 255 255 255 255 255 255 255 255 255 255 255 255 255 255 255 255 255 255 255 255 255 255 255 255 255 255 
255 255 255 255 255 255 255 255 255 255 255 255 255 255 255 255 255 255 255 255 255 255 255 255 255 255 255 255 255 255 255 255 255 255 255 255 255 255 255 255 255 255 255 255 255 255 255 255 255 255 255 255 255 255 255 255 255 255 255 255 255 255 255 80 96 40 184 248 112 184 248 112 184 248 112 152 208 72 184 248 112 152 208 72 184 248 112 152 208 72 152 208 72 152 208 72 104 64 0 16 16 16 112 168 48 112 168 48 112 168 48 112 168 48 112 168 48 112 168 48 112 168 48 112 168 48 112 168 48 112 168 48 112 168 48 112 168 48 16 16 16 255 255 255 255 255 255 255 255 255 255 255 255 104 64 0 104 64 0 16 16 16 255 255 255 255 255 255 255 255 255 255 255 255 255 255 255 255 255 255 255 255 255 255 255 255 255 255 255 255 255 255 
255 255 255 255 255 255 255 255 255 255 255 255 255 255 255 255 255 255 255 255 255 255 255 255 255 255 255 255 255 255 255 255 255 255 255 255 255 255 255 255 255 255 255 255 255 255 255 255 255 255 255 255 255 255 255 255 255 255 255 255 255 255 255 16 16 16 184 248 112 184 248 112 184 248 112 184 248 112 152 208 72 184 248 112 152 208 72 152 208 72 152 208 72 104 64 0 176 120 48 104 64 0 112 168 48 152 208 72 152 208 72 112 168 48 152 208 72 112 168 48 112 168 48 112 168 48 112 168 48 112 168 48 112 168 48 112 168 48 112 168 48 80 96 40 255 255 255 255 255 255 255 255 255 255 255 255 104 64 0 16 16 16 255 255 255 255 255 255 255 255 255 255 255 255 255 255 255 255 255 255 255 255 255 255 255 255 255 255 255 255 255 255 
255 255 255 255 255 255 255 255 255 255 255 255 255 255 255 255 255 255 255 255 255 255 255 255 255 255 255 255 255 255 255 255 255 255 255 255 255 255 255 255 255 255 255 255 255 255 255 255 255 255 255 255 255 255 255 255 255 255 255 255 80 96 40 184 248 112 184 248 112 184 248 112 152 208 72 152 208 72 152 208 72 152 208 72 152 208 72 152 208 72 152 208 72 104 64 0 104 64 0 112 168 48 152 208 72 152 208 72 112 168 48 152 208 72 112 168 48 112 168 48 112 168 48 112 168 48 112 168 48 112 168 48 112 168 48 112 168 48 112 168 48 16 16 16 255 255 255 255 255 255 255 255 255 255 255 255 104 64 0 104 64 0 16 16 16 255 255 255 255 255 255 255 255 255 255 255 255 255 255 255 255 255 255 255 255 255 255 255 255 255 255 255 
255 255 255 255 255 255 255 255 255 255 255 255 255 255 255 255 255 255 255 255 255 255 255 255 255 255 255 255 255 255 255 255 255 255 255 255 255 255 255 255 255 255 255 255 255 255 255 255 255 255 255 255 255 255 255 255 255 255 255 255 80 96 40 152 208 72 152 208 72 152 208 72 152 208 72 16 16 16 16 16 16 184 248 112 152 208 72 152 208 72 152 208 72 104 64 0 112 168 48 152 208 72 152 208 72 112 168 48 152 208 72 112 168 48 152 208 72 112 168 48 112 168 48 112 168 48 112 168 48 112 168 48 112 168 48 112 168 48 112 168 48 16 16 16 255 255 255 255 255 255 255 255 255 255 255 255 255 255 255 104 64 0 16 16 16 255 255 255 255 255 255 255 255 255 255 255 255 255 255 255 255 255 255 255 255 255 255 255 255 255 255 255 
255 255 255 255 255 255 255 255 255 255 255 255 255 255 255 255 255 255 255 255 255 255 255 255 255 255 255 255 255 255 255 255 255 255 255 255 255 255 255 255 255 255 255 255 255 255 255 255 255 255 255 255 255 255 255 255 255 255 255 255 80 96 40 16 16 16 16 16 16 16 16 16 16 16 16 16 16 16 16 16 16 184 248 112 152 208 72 152 208 72 104 64 0 112 168 48 152 208 72 152 208 72 152 208 72 152 208 72 112 168 48 152 208 72 112 168 48 112 168 48 112 168 48 112 168 48 112 168 48 112 168 48 112 168 48 112 168 48 112 168 48 112 168 48 80 96 40 255 255 255 255 255 255 255 255 255 255 255 255 104 64 0 16 16 16 255 255 255 255 255 255 255 255 255 255 255 255 255 255 255 255 255 255 255 255 255 255 255 255 255 255 255 
255 255 255 255 255 255 255 255 255 255 255 255 112 168 48 112 168 48 112 168 48 255 255 255 255 255 255 255 255 255 255 255 255 255 255 255 255 255 255 255 255 255 255 255 255 255 255 255 255 255 255 255 255 255 255 255 255 255 255 255 255 255 255 16 16 16 208 72 32 208 72 32 104 64 0 16 16 16 16 16 16 184 248 112 184 248 112 152 208 72 104 64 0 152 208 72 152 208 72 152 208 72 152 208 72 112 168 48 152 208 72 112 168 48 152 208 72 112 168 48 112 168 48 112 168 48 112 168 48 112 168 48 112 168 48 112 168 48 112 168 48 112 168 48 16 16 16 255 255 255 255 255 255 255 255 255 255 255 255 104 64 0 16 16 16 255 255 255 255 255 255 112 168 48 112 168 48 255 255 255 255 255 255 255 255 255 255 255 255 255 255 255 
255 255 255 255 255 255 255 255 255 255 255 255 112 168 48 184 248 112 184 248 112 80 96 40 80 96 40 255 255 255 255 255 255 255 255 255 255 255 255 255 255 255 255 255 255 255 255 255 255 255 255 255 255 255 255 255 255 255 255 255 208 72 32 248 160 112 208 72 32 104 64 0 16 16 16 16 16 16 16 16 16 16 16 16 184 248 112 152 208 72 152 208 72 152 208 72 152 208 72 152 208 72 112 168 48 112 168 48 112 168 48 16 16 16 16 16 16 16 16 16 112 168 48 112 168 48 112 168 48 112 168 48 112 168 48 112 168 48 112 168 48 112 168 48 16 16 16 255 255 255 255 255 255 255 255 255 255 255 255 104 64 0 16 16 16 255 255 255 112 168 48 184 248 112 112 168 48 255 255 255 255 255 255 255 255 255 255 255 255 255 255 255 
255 255 255 255 255 255 255 255 255 255 255 255 255 255 255 112 168 48 184 248 112 184 248 112 184 248 112 80 96 40 80 96 40 255 255 255 255 255 255 255 255 255 255 255 255 255 255 255 255 255 255 255 255 255 255 255 255 255 255 255 208 72 32 248 160 112 248 160 112 16 16 16 16 16 16 248 248 248 16 16 16 16 16 16 184 248 112 152 208 72 152 208 72 152 208 72 112 168 48 112 168 48 112 168 48 16 16 16 16 16 16 16 16 16 16 16 16 16 16 16 16 16 16 16 16 16 112 168 48 112 168 48 112 168 48 112 168 48 112 168 48 112 168 48 16 16 16 255 255 255 255 255 255 255 255 255 255 255 255 104 64 0 16 16 16 255 255 255 80 96 40 184 248 112 80 96 40 255 255 255 255 255 255 255 255 255 255 255 255 255 255 255 
255 255 255 255 255 255 255 255 255 255 255 255 255 255 255 80 96 40 152 208 72 184 248 112 184 248 112 184 248 112 184 248 112 80 96 40 80 96 40 255 255 255 255 255 255 255 255 255 255 255 255 255 255 255 255 255 255 255 255 255 16 16 16 248 160 112 248 160 112 16 16 16 204 204 204 248 248 248 16 16 16 16 16 16 152 208 72 152 208 72 112 168 48 112 168 48 112 168 48 16 16 16 16 16 16 16 16 16 16 16 16 16 16 16 16 16 16 16 16 16 16 16 16 16 16 16 16 16 16 16 16 16 112 168 48 112 168 48 112 168 48 112 168 48 16 16 16 255 255 255 255 255 255 255 255 255 104 64 0 104 64 0 16 16 16 80 96 40 184 248 112 184 248 112 80 96 40 255 255 255 255 255 255 255 255 255 255 255 255 255 255 255 
255 255 255 255 255 255 255 255 255 255 255 255 255 255 255 255 255 255 112 168 48 152 208 72 184 248 112 184 248 112 184 248 112 184 248 112 184 248 112 80 96 40 80 96 40 255 255 255 255 255 255 255 255 255 255 255 255 255 255 255 16 16 16 248 160 112 248 160 112 16 16 16 204 204 204 248 248 248 16 16 16 16 16 16 152 208 72 112 168 48 112 168 48 16 16 16 16 16 16 16 16 16 16 16 16 16 16 16 16 16 16 16 16 16 16 16 16 16 16 16 16 16 16 16 16 16 208 72 32 208 72 32 16 16 16 16 16 16 112 168 48 112 168 48 16 16 16 255 255 255 255 255 255 255 255 255 104 64 0 16 16 16 255 255 255 80 96 40 184 248 112 184 248 112 80 96 40 255 255 255 255 255 255 255 255 255 255 255 255 255 255 255 
255 255 255 255 255 255 255 255 255 255 255 255 255 255 255 255 255 255 80 96 40 152 208 72 184 248 112 184 248 112 184 248 112 184 248 112 152 208 72 184 248 112 152 208 72 80 96 40 255 255 255 255 255 255 255 255 255 255 255 255 16 16 16 248 160 112 248 160 112 16 16 16 204 204 204 204 204 204 16 16 16 16 16 16 152 208 72 112 168 48 16 16 16 16 16 16 16 16 16 16 16 16 248 248 248 16 16 16 16 16 16 16 16 16 16 16 16 16 16 16 16 16 16 16 16 16 248 160 112 208 72 32 208 72 32 16 16 16 16 16 16 16 16 16 16 16 16 255 255 255 255 255 255 104 64 0 104 64 0 16 16 16 80 96 40 184 248 112 184 248 112 184 248 112 16 16 16 255 255 255 255 255 255 255 255 255 255 255 255 255 255 255 
255 255 255 255 255 255 255 255 255 255 255 255 255 255 255 255 255 255 80 96 40 152 208 72 184 248 112 184 248 112 112 168 48 152 208 72 184 248 112 152 208 72 184 248 112 152 208 72 16 16 16 255 255 255 255 255 255 255 255 255 208 72 32 208 72 32 248 160 112 248 160 112 16 16 16 16 16 16 16 16 16 16 16 16 16 16 16 16 16 16 16 16 16 16 16 16 16 16 16 16 16 16 248 248 248 204 204 204 16 16 16 16 16 16 16 16 16 16 16 16 16 16 16 248 160 112 248 160 112 208 72 32 208 72 32 16 16 16 255 255 255 255 255 255 255 255 255 255 255 255 255 255 255 104 64 0 16 16 16 80 96 40 184 248 112 184 248 112 184 248 112 184 248 112 16 16 16 255 255 255 255 255 255 255 255 255 255 255 255 255 255 255 
255 255 255 255 255 255 255 255 255 255 255 255 255 255 255 255 255 255 255 255 255 112 168 48 152 208 72 184 248 112 152 208 72 112 168 48 152 208 72 184 248 112 152 208 72 152 208 72 152 208 72 16 16 16 255 255 255 255 255 255 255 255 255 16 16 16 208 72 32 248 160 112 248 160 112 16 16 16 16 16 16 16 16 16 16 16 16 16 16 16 16 16 16 16 16 16 16 16 16 16 16 16 248 248 248 248 248 248 204 204 204 16 16 16 16 16 16 16 16 16 16 16 16 248 160 112 248 160 112 208 72 32 208 72 32 255 255 255 255 255 255 255 255 255 255 255 255 255 255 255 255 255 255 104 64 0 80 96 40 184 248 112 184 248 112 184 248 112 184 248 112 184 248 112 16 16 16 255 255 255 255 255 255 255 255 255 255 255 255 255 255 255 
255 255 255 255 255 255 255 255 255 255 255 255 255 255 255 255 255 255 255 255 255 80 96 40 184 248 112 152 208 72 184 248 112 152 208 72 112 168 48 152 208 72 152 208 72 152 208 72 152 208 72 152 208 72 16 16 16 255 255 255 255 255 255 16 16 16 208 72 32 208 72 32 248 160 112 248 160 112 248 160 112 16 16 16 16 16 16 16 16 16 16 16 16 16 16 16 16 16 16 16 16 16 248 248 248 248 248 248 204 204 204 16 16 16 16 16 16 16 16 16 248 160 112 248 160 112 208 72 32 208 72 32 16 16 16 255 255 255 255 255 255 255 255 255 255 255 255 255 255 255 104 64 0 80 96 40 184 248 112 184 248 112 184 248 112 184 248 112 184 248 112 184 248 112 16 16 16 255 255 255 255 255 255 255 255 255 255 255 255 255 255 255 
255 255 255 255 255 255 255 255 255 255 255 255 255 255 255 255 255 255 255 255 255 80 96 40 152 208 72 184 248 112 152 208 72 152 208 72 152 208 72 80 96 40 152 208 72 152 208 72 152 208 72 152 208 72 152 208 72 16 16 16 255 255 255 255 255 255 16 16 16 208 72 32 208 72 32 248 160 112 248 160 112 248 160 112 248 160 112 248 160 112 16 16 16 16 16 16 16 16 16 16 16 16 16 16 16 204 204 204 204 204 204 16 16 16 248 160 112 248 160 112 248 160 112 208 72 32 208 72 32 208 72 32 255 255 255 255 255 255 255 255 255 255 255 255 255 255 255 16 16 16 80 96 40 184 248 112 184 248 112 152 208 72 184 248 112 152 208 72 184 248 112 80 96 40 255 255 255 255 255 255 255 255 255 255 255 255 255 255 255 255 255 255 
255 255 255 255 255 255 255 255 255 255 255 255 255 255 255 255 255 255 255 255 255 80 96 40 152 208 72 152 208 72 152 208 72 152 208 72 152 208 72 152 208 72 80 96 40 152 208 72 152 208 72 152 208 72 152 208 72 16 16 16 255 255 255 255 255 255 16 16 16 16 16 16 208 72 32 208 72 32 208 72 32 248 160 112 248 160 112 248 160 112 248 160 112 248 160 112 248 160 112 248 160 112 248 160 112 16 16 16 16 16 16 248 160 112 248 160 112 248 160 112 208 72 32 208 72 32 16 16 16 255 255 255 255 255 255 255 255 255 255 255 255 255 255 255 16 16 16 80 96 40 184 248 112 184 248 112 152 208 72 184 248 112 152 208 72 184 248 112 152 208 72 80 96 40 255 255 255 255 255 255 255 255 255 255 255 255 255 255 255 255 255 255 
255 255 255 255 255 255 255 255 255 255 255 255 255 255 255 255 255 255 255 255 255 80 96 40 152 208 72 152 208 72 152 208 72 152 208 72 152 208 72 152 208 72 152 208 72 80 96 40 152 208 72 152 208 72 152 208 72 152 208 72 16 16 16 16 16 16 248 248 248 16 16 16 16 16 16 16 16 16 208 72 32 208 72 32 208 72 32 208 72 32 248 160 112 248 160 112 248 160 112 248 160 112 248 160 112 248 160 112 248 160 112 248 160 112 208 72 32 208 72 32 208 72 32 16 16 16 255 255 255 255 255 255 255 255 255 255 255 255 255 255 255 16 16 16 80 96 40 184 248 112 184 248 112 152 208 72 184 248 112 152 208 72 184 248 112 152 208 72 184 248 112 16 16 16 255 255 255 255 255 255 255 255 255 255 255 255 255 255 255 255 255 255 
255 255 255 255 255 255 255 255 255 255 255 255 255 255 255 255 255 255 255 255 255 255 255 255 80 96 40 152 208 72 152 208 72 152 208 72 152 208 72 152 208 72 152 208 72 152 208 72 80 96 40 112 168 48 152 208 72 112 168 48 16 16 16 16 16 16 176 120 48 16 16 16 248 248 248 16 16 16 16 16 16 16 16 16 208 72 32 208 72 32 208 72 32 208 72 32 208 72 32 208 72 32 208 72 32 208 72 32 208 72 32 208 72 32 208 72 32 16 16 16 16 16 16 255 255 255 255 255 255 255 255 255 255 255 255 255 255 255 16 16 16 80 96 40 152 208 72 152 208 72 152 208 72 152 208 72 152 208 72 152 208 72 152 208 72 152 208 72 184 248 112 16 16 16 255 255 255 255 255 255 255 255 255 255 255 255 255 255 255 255 255 255 
255 255 255 255 255 255 255 255 255 255 255 255 255 255 255 255 255 255 255 255 255 255 255 255 16 16 16 152 208 72 152 208 72 152 208 72 152 208 72 152 208 72 152 208 72 112 168 48 152 208 72 80 96 40 112 168 48 152 208 72 112 168 48 16 16 16 248 208 104 16 16 16 16 16 16 176 120 48 176 120 48 176 128 40 16 16 16 16 16 16 16 16 16 16 16 16 16 16 16 16 16 16 16 16 16 16 16 16 16 16 16 16 16 16 16 16 16 176 128 40 16 16 16 255 255 255 255 255 255 255 255 255 255 255 255 16 16 16 80 96 40 152 208 72 152 208 72 152 208 72 152 208 72 152 208 72 152 208 72 112 168 48 152 208 72 152 208 72 80 96 40 255 255 255 255 255 255 255 255 255 255 255 255 255 255 255 255 255 255 255 255 255 
255 255 255 255 255 255 255 255 255 255 255 255 255 255 255 255 255 255 255 255 255 255 255 255 16 16 16 152 208 72 152 208 72 152 208 72 152 208 72 152 208 72 112 168 48 152 208 72 112 168 48 80 96 40 152 208 72 112 168 48 112 168 48 176 128 40 248 208 104 248 208 104 248 208 104 248 208 104 224 168 88 176 128 40 16 16 16 204 204 204 204 204 204 16 16 16 204 204 204 204 204 204 204 204 204 16 16 16 176 128 40 176 128 40 176 128 40 176 128 40 255 255 255 255 255 255 255 255 255 16 16 16 80 96 40 152 208 72 152 208 72 152 208 72 152 208 72 152 208 72 152 208 72 152 208 72 112 168 48 152 208 72 152 208 72 152 208 72 16 16 16 255 255 255 255 255 255 255 255 255 255 255 255 255 255 255 255 255 255 255 255 255 
255 255 255 255 255 255 255 255 255 255 255 255 255 255 255 255 255 255 255 255 255 255 255 255 255 255 255 80 96 40 152 208 72 152 208 72 152 208 72 112 168 48 152 208 72 112 168 48 152 208 72 112 168 48 80 96 40 112 168 48 176 128 40 248 224 152 248 224 152 248 224 152 248 208 104 248 208 104 248 208 104 224 168 88 224 168 88 176 120 48 248 248 248 16 16 16 248 248 248 176 120 48 16 16 16 176 128 40 176 128 40 224 168 88 224 168 88 16 16 16 255 255 255 16 16 16 80 96 40 112 168 48 152 208 72 112 168 48 152 208 72 152 208 72 152 208 72 152 208 72 152 208 72 112 168 48 152 208 72 152 208 72 152 208 72 80 96 40 255 255 255 255 255 255 255 255 255 255 255 255 255 255 255 255 255 255 255 255 255 255 255 255 
255 255 255 255 255 255 255 255 255 255 255 255 255 255 255 255 255 255 255 255 255 255 255 255 255 255 255 16 16 16 152 208 72 152 208 72 152 208 72 152 208 72 112 168 48 152 208 72 112 168 48 112 168 48 80 96 40 112 168 48 176 128 40 248 224 152 248 224 152 248 224 152 248 224 152 248 208 104 248 208 104 248 208 104 224 168 88 224 168 88 16 16 16 16 16 16 16 16 16 224 168 88 224 168 88 224 168 88 224 168 88 176 128 40 16 16 16 16 16 16 80 96 40 112 168 48 112 168 48 112 168 48 112 168 48 152 208 72 112 168 48 152 208 72 152 208 72 152 208 72 80 96 40 152 208 72 152 208 72 152 208 72 152 208 72 16 16 16 255 255 255 255 255 255 255 255 255 255 255 255 255 255 255 255 255 255 255 255 255 255 255 255 
255 255 255 255 255 255 255 255 255 255 255 255 255 255 255 255 255 255 255 255 255 255 255 255 255 255 255 16 16 16 152 208 72 152 208 72 152 208 72 112 168 48 152 208 72 112 168 48 112 168 48 112 168 48 112 168 48 80 96 40 16 16 16 248 224 152 248 248 248 248 248 248 248 224 152 248 248 248 248 224 152 248 208 104 248 208 104 248 208 104 224 168 88 224 168 88 224 168 88 224 168 88 224 168 88 224 168 88 224 168 88 16 16 16 112 168 48 112 168 48 112 168 48 112 168 48 112 168 48 112 168 48 152 208 72 112 168 48 152 208 72 112 168 48 152 208 72 80 96 40 152 208 72 152 208 72 152 208 72 152 208 72 80 96 40 255 255 255 255 255 255 255 255 255 255 255 255 255 255 255 255 255 255 255 255 255 255 255 255 255 255 255 
255 255 255 255 255 255 255 255 255 255 255 255 255 255 255 255 255 255 255 255 255 255 255 255 255 255 255 255 255 255 80 96 40 152 208 72 152 208 72 152 208 72 112 168 48 112 168 48 112 168 48 112 168 48 112 168 48 80 96 40 16 16 16 248 248 248 248 248 248 248 248 248 248 248 248 248 224 152 248 248 248 248 224 152 248 224 152 248 208 104 248 208 104 152 208 72 112 168 48 112 168 48 224 168 88 224 168 88 16 16 16 112 168 48 112 168 48 112 168 48 112 168 48 112 168 48 112 168 48 112 168 48 112 168 48 152 208 72 112 168 48 152 208 72 80 96 40 152 208 72 152 208 72 152 208 72 152 208 72 152 208 72 16 16 16 255 255 255 255 255 255 255 255 255 255 255 255 255 255 255 255 255 255 255 255 255 255 255 255 255 255 255 
255 255 255 255 255 255 255 255 255 255 255 255 255 255 255 255 255 255 255 255 255 255 255 255 255 255 255 255 255 255 16 16 16 152 208 72 152 208 72 112 168 48 112 168 48 112 168 48 112 168 48 112 168 48 112 168 48 112 168 48 16 16 16 248 248 248 248 248 248 248 248 248 248 224 152 248 248 248 248 224 152 248 224 152 248 224 152 248 224 152 248 224 152 152 208 72 112 168 48 112 168 48 248 208 104 16 16 16 112 168 48 112 168 48 112 168 48 112 168 48 112 168 48 112 168 48 112 168 48 112 168 48 112 168 48 112 168 48 80 96 40 80 96 40 112 168 48 152 208 72 152 208 72 152 208 72 152 208 72 80 96 40 255 255 255 255 255 255 255 255 255 255 255 255 255 255 255 255 255 255 255 255 255 255 255 255 255 255 255 255 255 255 
255 255 255 255 255 255 255 255 255 255 255 255 255 255 255 255 255 255 255 255 255 255 255 255 255 255 255 255 255 255 255 255 255 80 96 40 112 168 48 112 168 48 112 168 48 112 168 48 112 168 48 112 168 48 112 168 48 112 168 48 16 16 16 248 248 248 248 248 248 248 248 248 248 248 248 248 224 152 248 248 248 248 224 152 248 224 152 248 224 152 248 224 152 248 224 152 248 208 104 248 208 104 248 208 104 16 16 16 112 168 48 112 168 48 112 168 48 112 168 48 112 168 48 112 168 48 112 168 48 112 168 48 80 96 40 80 96 40 112 168 48 112 168 48 152 208 72 112 168 48 152 208 72 152 208 72 152 208 72 16 16 16 255 255 255 255 255 255 255 255 255 255 255 255 255 255 255 255 255 255 255 255 255 255 255 255 255 255 255 255 255 255 
255 255 255 255 255 255 255 255 255 255 255 255 255 255 255 255 255 255 255 255 255 255 255 255 255 255 255 255 255 255 255 255 255 255 255 255 16 16 16 112 168 48 112 168 48 112 168 48 112 168 48 112 168 48 112 168 48 112 168 48 112 168 48 176 128 40 248 248 248 248 248 248 248 224 152 248 248 248 248 224 152 248 224 152 248 224 152 248 224 152 248 224 152 248 224 152 248 208 104 248 208 104 80 96 40 112 168 48 112 168 48 112 168 48 112 168 48 112 168 48 112 168 48 112 168 48 80 96 40 80 96 40 112 168 48 112 168 48 112 168 48 152 208 72 112 168 48 152 208 72 152 208 72 152 208 72 80 96 40 255 255 255 255 255 255 255 255 255 255 255 255 255 255 255 255 255 255 255 255 255 255 255 255 255 255 255 255 255 255 255 255 255 
255 255 255 255 255 255 255 255 255 255 255 255 255 255 255 255 255 255 255 255 255 255 255 255 255 255 255 255 255 255 255 255 255 255 255 255 255 255 255 16 16 16 112 168 48 112 168 48 112 168 48 112 168 48 112 168 48 112 168 48 112 168 48 176 128 40 248 224 152 248 224 152 152 208 72 112 168 48 152 208 72 248 224 152 248 224 152 248 224 152 248 224 152 248 224 152 248 224 152 248 208 104 80 96 40 112 168 48 112 168 48 112 168 48 112 168 48 80 96 40 80 96 40 80 96 40 112 168 48 112 168 48 112 168 48 112 168 48 112 168 48 112 168 48 152 208 72 112 168 48 152 208 72 152 208 72 16 16 16 255 255 255 255 255 255 255 255 255 255 255 255 255 255 255 255 255 255 255 255 255 255 255 255 255 255 255 255 255 255 255 255 255 
255 255 255 255 255 255 255 255 255 255 255 255 255 255 255 255 255 255 255 255 255 255 255 255 255 255 255 255 255 255 255 255 255 255 255 255 255 255 255 255 255 255 16 16 16 112 168 48 112 168 48 112 168 48 112 168 48 112 168 48 112 168 48 16 16 16 248 224 152 248 224 152 112 168 48 112 168 48 112 168 48 248 224 152 248 224 152 248 224 152 248 224 152 248 224 152 248 224 152 248 208 104 16 16 16 80 96 40 80 96 40 80 96 40 80 96 40 112 168 48 112 168 48 112 168 48 112 168 48 112 168 48 112 168 48 112 168 48 112 168 48 112 168 48 112 168 48 152 208 72 152 208 72 16 16 16 255 255 255 255 255 255 255 255 255 255 255 255 255 255 255 255 255 255 255 255 255 255 255 255 255 255 255 255 255 255 255 255 255 255 255 255 
255 255 255 255 255 255 255 255 255 255 255 255 255 255 255 255 255 255 255 255 255 255 255 255 255 255 255 255 255 255 255 255 255 255 255 255 255 255 255 255 255 255 255 255 255 16 16 16 80 96 40 112 168 48 112 168 48 112 168 48 112 168 48 16 16 16 248 224 152 248 224 152 152 208 72 112 168 48 248 224 152 248 224 152 248 224 152 248 224 152 248 224 152 248 224 152 248 224 152 248 208 104 16 16 16 112 168 48 112 168 48 112 168 48 112 168 48 112 168 48 112 168 48 112 168 48 112 168 48 112 168 48 112 168 48 112 168 48 112 168 48 112 168 48 152 208 72 152 208 72 16 16 16 255 255 255 255 255 255 255 255 255 255 255 255 255 255 255 255 255 255 255 255 255 255 255 255 255 255 255 255 255 255 255 255 255 255 255 255 255 255 255 
255 255 255 255 255 255 255 255 255 255 255 255 255 255 255 255 255 255 255 255 255 255 255 255 255 255 255 255 255 255 255 255 255 255 255 255 255 255 255 255 255 255 255 255 255 255 255 255 255 255 255 16 16 16 80 96 40 112 168 48 112 168 48 112 168 48 176 128 40 248 224 152 248 224 152 248 224 152 248 224 152 248 224 152 248 224 152 248 224 152 248 224 152 248 224 152 248 224 152 248 208 104 16 16 16 112 168 48 112 168 48 112 168 48 112 168 48 112 168 48 112 168 48 112 168 48 112 168 48 112 168 48 112 168 48 112 168 48 112 168 48 112 168 48 152 208 72 16 16 16 255 255 255 255 255 255 255 255 255 255 255 255 255 255 255 255 255 255 255 255 255 255 255 255 255 255 255 255 255 255 255 255 255 255 255 255 255 255 255 255 255 255 
255 255 255 255 255 255 255 255 255 255 255 255 255 255 255 255 255 255 255 255 255 255 255 255 255 255 255 255 255 255 255 255 255 255 255 255 255 255 255 255 255 255 255 255 255 255 255 255 255 255 255 255 255 255 255 255 255 16 16 16 16 16 16 80 96 40 16 16 16 248 224 152 248 224 152 248 224 152 248 224 152 248 224 152 248 224 152 176 128 40 176 128 40 248 224 152 248 224 152 248 208 104 248 208 104 16 16 16 112 168 48 112 168 48 112 168 48 112 168 48 112 168 48 112 168 48 112 168 48 112 168 48 112 168 48 112 168 48 112 168 48 16 16 16 80 96 40 255 255 255 255 255 255 255 255 255 255 255 255 255 255 255 255 255 255 255 255 255 255 255 255 255 255 255 255 255 255 255 255 255 255 255 255 255 255 255 255 255 255 255 255 255 
255 255 255 255 255 255 255 255 255 255 255 255 255 255 255 255 255 255 255 255 255 255 255 255 255 255 255 255 255 255 255 255 255 255 255 255 255 255 255 255 255 255 255 255 255 255 255 255 255 255 255 255 255 255 255 255 255 255 255 255 255 255 255 255 255 255 16 16 16 248 224 152 248 224 152 248 224 152 248 224 152 248 224 152 248 224 152 176 128 40 248 248 248 176 128 40 248 208 104 248 208 104 248 208 104 248 208 104 16 16 16 16 16 16 112 168 48 112 168 48 112 168 48 112 168 48 112 168 48 112 168 48 112 168 48 16 16 16 80 96 40 255 255 255 255 255 255 255 255 255 255 255 255 255 255 255 255 255 255 255 255 255 255 255 255 255 255 255 255 255 255 255 255 255 255 255 255 255 255 255 255 255 255 255 255 255 255 255 255 255 255 255 
255 255 255 255 255 255 255 255 255 255 255 255 255 255 255 255 255 255 255 255 255 255 255 255 255 255 255 255 255 255 255 255 255 255 255 255 255 255 255 255 255 255 255 255 255 255 255 255 255 255 255 255 255 255 255 255 255 255 255 255 255 255 255 255 255 255 255 255 255 176 128 40 248 208 104 248 224 152 248 224 152 248 224 152 248 224 152 176 128 40 248 248 248 176 128 40 112 168 48 152 208 72 248 208 104 248 208 104 224 168 88 224 168 88 16 16 16 16 16 16 16 16 16 16 16 16 16 16 16 16 16 16 80 96 40 255 255 255 255 255 255 255 255 255 255 255 255 255 255 255 255 255 255 255 255 255 255 255 255 255 255 255 255 255 255 255 255 255 255 255 255 255 255 255 255 255 255 255 255 255 255 255 255 255 255 255 255 255 255 255 255 255 
255 255 255 255 255 255 255 255 255 255 255 255 255 255 255 255 255 255 255 255 255 255 255 255 255 255 255 255 255 255 255 255 255 255 255 255 255 255 255 255 255 255 255 255 255 255 255 255 255 255 255 255 255 255 255 255 255 255 255 255 255 255 255 255 255 255 255 255 255 16 16 16 248 208 104 248 208 104 248 224 152 248 224 152 248 224 152 176 128 40 248 248 248 248 248 248 176 128 40 112 168 48 152 208 72 248 208 104 224 168 88 224 168 88 224 168 88 224 168 88 16 16 16 255 255 255 255 255 255 255 255 255 255 255 255 255 255 255 255 255 255 255 255 255 255 255 255 255 255 255 255 255 255 255 255 255 255 255 255 255 255 255 255 255 255 255 255 255 255 255 255 255 255 255 255 255 255 255 255 255 255 255 255 255 255 255 255 255 255 255 255 255 
255 255 255 255 255 255 255 255 255 255 255 255 255 255 255 255 255 255 255 255 255 255 255 255 255 255 255 255 255 255 255 255 255 255 255 255 255 255 255 255 255 255 255 255 255 255 255 255 255 255 255 255 255 255 255 255 255 255 255 255 255 255 255 255 255 255 104 64 0 104 64 0 16 16 16 248 208 104 248 208 104 248 208 104 176 128 40 248 248 248 248 248 248 248 248 248 176 128 40 112 168 48 152 208 72 248 208 104 224 168 88 224 168 88 224 168 88 224 168 88 176 128 40 16 16 16 255 255 255 255 255 255 255 255 255 255 255 255 255 255 255 255 255 255 255 255 255 255 255 255 255 255 255 255 255 255 255 255 255 255 255 255 255 255 255 255 255 255 255 255 255 255 255 255 255 255 255 255 255 255 255 255 255 255 255 255 255 255 255 255 255 255 
255 255 255 255 255 255 255 255 255 255 255 255 255 255 255 255 255 255 255 255 255 255 255 255 255 255 255 255 255 255 255 255 255 255 255 255 255 255 255 255 255 255 255 255 255 255 255 255 255 255 255 255 255 255 255 255 255 255 255 255 104 64 0 104 64 0 104 64 0 16 16 16 16 16 16 16 16 16 248 208 104 248 208 104 16 16 16 248 248 248 248 248 248 248 248 248 16 16 16 248 208 104 248 208 104 224 168 88 224 168 88 224 168 88 224 168 88 224 168 88 176 128 40 16 16 16 255 255 255 255 255 255 255 255 255 255 255 255 255 255 255 255 255 255 255 255 255 255 255 255 255 255 255 255 255 255 255 255 255 255 255 255 255 255 255 255 255 255 255 255 255 255 255 255 255 255 255 255 255 255 255 255 255 255 255 255 255 255 255 255 255 255 
255 255 255 255 255 255 255 255 255 255 255 255 255 255 255 255 255 255 255 255 255 255 255 255 255 255 255 255 255 255 255 255 255 255 255 255 255 255 255 255 255 255 255 255 255 255 255 255 255 255 255 255 255 255 104 64 0 104 64 0 104 64 0 16 16 16 16 16 16 255 255 255 255 255 255 255 255 255 16 16 16 16 16 16 248 248 248 248 224 152 248 248 248 248 224 152 16 16 16 224 168 88 224 168 88 224 168 88 224 168 88 224 168 88 224 168 88 224 168 88 176 128 40 16 16 16 255 255 255 255 255 255 255 255 255 255 255 255 255 255 255 255 255 255 255 255 255 255 255 255 255 255 255 255 255 255 255 255 255 255 255 255 255 255 255 255 255 255 255 255 255 255 255 255 255 255 255 255 255 255 255 255 255 255 255 255 255 255 255 255 255 255 
255 255 255 255 255 255 255 255 255 255 255 255 255 255 255 255 255 255 255 255 255 255 255 255 255 255 255 255 255 255 255 255 255 255 255 255 255 255 255 255 255 255 255 255 255 255 255 255 255 255 255 104 64 0 176 120 48 16 16 16 16 16 16 255 255 255 255 255 255 255 255 255 255 255 255 16 16 16 176 128 40 248 224 152 248 224 152 248 248 248 248 224 152 248 248 248 16 16 16 224 168 88 224 168 88 224 168 88 224 168 88 224 168 88 224 168 88 176 128 40 176 128 40 16 16 16 255 255 255 255 255 255 255 255 255 255 255 255 255 255 255 255 255 255 255 255 255 255 255 255 255 255 255 255 255 255 255 255 255 255 255 255 255 255 255 255 255 255 255 255 255 255 255 255 255 255 255 255 255 255 255 255 255 255 255 255 255 255 255 255 255 255 
255 255 255 255 255 255 255 255 255 255 255 255 255 255 255 255 255 255 255 255 255 255 255 255 255 255 255 255 255 255 255 255 255 255 255 255 255 255 255 255 255 255 255 255 255 255 255 255 176 120 48 176 120 48 104 64 0 255 255 255 255 255 255 255 255 255 255 255 255 176 128 40 176 128 40 248 208 104 248 208 104 248 224 152 248 224 152 248 224 152 248 224 152 248 224 152 16 16 16 224 168 88 224 168 88 224 168 88 224 168 88 224 168 88 176 128 40 176 128 40 16 16 16 255 255 255 255 255 255 255 255 255 255 255 255 255 255 255 255 255 255 255 255 255 255 255 255 255 255 255 255 255 255 255 255 255 255 255 255 255 255 255 255 255 255 255 255 255 255 255 255 255 255 255 255 255 255 255 255 255 255 255 255 255 255 255 255 255 255 255 255 255 
255 255 255 255 255 255 255 255 255 255 255 255 255 255 255 255 255 255 255 255 255 255 255 255 255 255 255 255 255 255 255 255 255 255 255 255 255 255 255 255 255 255 255 255 255 255 255 255 176 120 48 104 64 0 255 255 255 255 255 255 255 255 255 255 255 255 176 128 40 248 208 104 248 208 104 248 208 104 248 208 104 248 208 104 248 224 152 248 224 152 248 224 152 176 128 40 16 16 16 176 128 40 176 128 40 176 128 40 176 128 40 176 128 40 176 128 40 16 16 16 255 255 255 255 255 255 255 255 255 255 255 255 255 255 255 255 255 255 255 255 255 255 255 255 255 255 255 255 255 255 255 255 255 255 255 255 255 255 255 255 255 255 255 255 255 255 255 255 255 255 255 255 255 255 255 255 255 255 255 255 255 255 255 255 255 255 255 255 255 255 255 255 
255 255 255 255 255 255 255 255 255 255 255 255 255 255 255 255 255 255 255 255 255 255 255 255 255 255 255 255 255 255 255 255 255 255 255 255 255 255 255 255 255 255 255 255 255 255 255 255 176 120 48 104 64 0 255 255 255 255 255 255 255 255 255 176 128 40 248 208 104 248 208 104 248 208 104 248 208 104 248 208 104 248 208 104 248 208 104 248 224 152 248 224 152 16 16 16 255 255 255 16 16 16 16 16 16 16 16 16 16 16 16 16 16 16 255 255 255 255 255 255 255 255 255 255 255 255 255 255 255 255 255 255 255 255 255 255 255 255 255 255 255 255 255 255 255 255 255 255 255 255 255 255 255 255 255 255 255 255 255 255 255 255 255 255 255 255 255 255 255 255 255 255 255 255 255 255 255 255 255 255 255 255 255 255 255 255 255 255 255 255 255 255 
255 255 255 255 255 255 255 255 255 255 255 255 255 255 255 255 255 255 255 255 255 255 255 255 255 255 255 255 255 255 255 255 255 255 255 255 255 255 255 255 255 255 255 255 255 255 255 255 176 120 48 104 64 0 104 64 0 255 255 255 255 255 255 16 16 16 224 168 88 224 168 88 224 168 88 248 208 104 248 208 104 248 208 104 248 208 104 248 224 152 176 128 40 255 255 255 255 255 255 255 255 255 255 255 255 255 255 255 255 255 255 255 255 255 255 255 255 255 255 255 255 255 255 255 255 255 255 255 255 255 255 255 255 255 255 255 255 255 255 255 255 255 255 255 255 255 255 255 255 255 255 255 255 255 255 255 255 255 255 255 255 255 255 255 255 255 255 255 255 255 255 255 255 255 255 255 255 255 255 255 255 255 255 255 255 255 255 255 255 255 255 255 
255 255 255 255 255 255 255 255 255 255 255 255 255 255 255 255 255 255 255 255 255 255 255 255 255 255 255 255 255 255 255 255 255 255 255 255 255 255 255 255 255 255 255 255 255 255 255 255 255 255 255 176 120 48 104 64 0 16 16 16 16 16 16 16 16 16 224 168 88 224 168 88 224 168 88 248 208 104 248 208 104 248 208 104 248 208 104 248 224 152 16 16 16 255 255 255 255 255 255 255 255 255 255 255 255 255 255 255 255 255 255 255 255 255 255 255 255 255 255 255 255 255 255 255 255 255 255 255 255 255 255 255 255 255 255 255 255 255 255 255 255 255 255 255 255 255 255 255 255 255 255 255 255 255 255 255 255 255 255 255 255 255 255 255 255 255 255 255 255 255 255 255 255 255 255 255 255 255 255 255 255 255 255 255 255 255 255 255 255 255 255 255 
255 255 255 255 255 255 255 255 255 255 255 255 255 255 255 255 255 255 255 255 255 255 255 255 255 255 255 255 255 255 255 255 255 255 255 255 255 255 255 255 255 255 255 255 255 255 255 255 255 255 255 255 255 255 176 120 48 104 64 0 104 64 0 16 16 16 224 168 88 224 168 88 224 168 88 248 208 104 248 208 104 248 208 104 248 208 104 16 16 16 255 255 255 255 255 255 255 255 255 255 255 255 255 255 255 255 255 255 255 255 255 255 255 255 255 255 255 255 255 255 255 255 255 255 255 255 255 255 255 255 255 255 255 255 255 255 255 255 255 255 255 255 255 255 255 255 255 255 255 255 255 255 255 255 255 255 255 255 255 255 255 255 255 255 255 255 255 255 255 255 255 255 255 255 255 255 255 255 255 255 255 255 255 255 255 255 255 255 255 255 255 255 
255 255 255 255 255 255 255 255 255 255 255 255 255 255 255 255 255 255 255 255 255 255 255 255 255 255 255 255 255 255 255 255 255 255 255 255 255 255 255 255 255 255 255 255 255 255 255 255 255 255 255 255 255 255 255 255 255 255 255 255 255 255 255 255 255 255 16 16 16 224 168 88 248 208 104 248 208 104 248 224 152 16 16 16 16 16 16 255 255 255 255 255 255 255 255 255 255 255 255 255 255 255 255 255 255 255 255 255 255 255 255 255 255 255 255 255 255 255 255 255 255 255 255 255 255 255 255 255 255 255 255 255 255 255 255 255 255 255 255 255 255 255 255 255 255 255 255 255 255 255 255 255 255 255 255 255 255 255 255 255 255 255 255 255 255 255 255 255 255 255 255 255 255 255 255 255 255 255 255 255 255 255 255 255 255 255 255 255 255 255 255 255 
255 255 255 255 255 255 255 255 255 255 255 255 255 255 255 255 255 255 255 255 255 255 255 255 255 255 255 255 255 255 255 255 255 255 255 255 255 255 255 255 255 255 255 255 255 255 255 255 255 255 255 255 255 255 255 255 255 255 255 255 255 255 255 255 255 255 255 255 255 16 16 16 16 16 16 16 16 16 16 16 16 255 255 255 255 255 255 255 255 255 255 255 255 255 255 255 255 255 255 255 255 255 255 255 255 255 255 255 255 255 255 255 255 255 255 255 255 255 255 255 255 255 255 255 255 255 255 255 255 255 255 255 255 255 255 255 255 255 255 255 255 255 255 255 255 255 255 255 255 255 255 255 255 255 255 255 255 255 255 255 255 255 255 255 255 255 255 255 255 255 255 255 255 255 255 255 255 255 255 255 255 255 255 255 255 255 255 255 255 255 255 255 
255 255 255 255 255 255 255 255 255 255 255 255 255 255 255 255 255 255 255 255 255 255 255 255 255 255 255 255 255 255 255 255 255 255 255 255 255 255 255 255 255 255 255 255 255 255 255 255 255 255 255 255 255 255 255 255 255 255 255 255 255 255 255 255 255 255 255 255 255 255 255 255 255 255 255 255 255 255 255 255 255 255 255 255 255 255 255 255 255 255 255 255 255 255 255 255 255 255 255 255 255 255 255 255 255 255 255 255 255 255 255 255 255 255 255 255 255 255 255 255 255 255 255 255 255 255 255 255 255 255 255 255 255 255 255 255 255 255 255 255 255 255 255 255 255 255 255 255 255 255 255 255 255 255 255 255 255 255 255 255 255 255 255 255 255 255 255 255 255 255 255 255 255 255 255 255 255 255 255 255 255 255 255 255 255 255 255 255 255 255 255 255 
255 255 255 255 255 255 255 255 255 255 255 255 255 255 255 255 255 255 255 255 255 255 255 255 255 255 255 255 255 255 255 255 255 255 255 255 255 255 255 255 255 255 255 255 255 255 255 255 255 255 255 255 255 255 255 255 255 255 255 255 255 255 255 255 255 255 255 255 255 255 255 255 255 255 255 255 255 255 255 255 255 255 255 255 255 255 255 255 255 255 255 255 255 255 255 255 255 255 255 255 255 255 255 255 255 255 255 255 255 255 255 255 255 255 255 255 255 255 255 255 255 255 255 255 255 255 255 255 255 255 255 255 255 255 255 255 255 255 255 255 255 255 255 255 255 255 255 255 255 255 255 255 255 255 255 255 255 255 255 255 255 255 255 255 255 255 255 255 255 255 255 255 255 255 255 255 255 255 255 255 255 255 255 255 255 255 255 255 255 255 255 255 
255 255 255 255 255 255 255 255 255 255 255 255 255 255 255 255 255 255 255 255 255 255 255 255 255 255 255 255 255 255 255 255 255 255 255 255 255 255 255 255 255 255 255 255 255 255 255 255 255 255 255 255 255 255 255 255 255 255 255 255 255 255 255 255 255 255 255 255 255 255 255 255 255 255 255 255 255 255 255 255 255 255 255 255 255 255 255 255 255 255 255 255 255 255 255 255 255 255 255 255 255 255 255 255 255 255 255 255 255 255 255 255 255 255 255 255 255 255 255 255 255 255 255 255 255 255 255 255 255 255 255 255 255 255 255 255 255 255 255 255 255 255 255 255 255 255 255 255 255 255 255 255 255 255 255 255 255 255 255 255 255 255 255 255 255 255 255 255 255 255 255 255 255 255 255 255 255 255 255 255 255 255 255 255 255 255 255 255 255 255 255 255 
255 255 255 255 255 255 255 255 255 255 255 255 255 255 255 255 255 255 255 255 255 255 255 255 255 255 255 255 255 255 255 255 255 255 255 255 255 255 255 255 255 255 255 255 255 255 255 255 255 255 255 255 255 255 255 255 255 255 255 255 255 255 255 255 255 255 255 255 255 255 255 255 255 255 255 255 255 255 255 255 255 255 255 255 255 255 255 255 255 255 255 255 255 255 255 255 255 255 255 255 255 255 255 255 255 255 255 255 255 255 255 255 255 255 255 255 255 255 255 255 255 255 255 255 255 255 255 255 255 255 255 255 255 255 255 255 255 255 255 255 255 255 255 255 255 255 255 255 255 255 255 255 255 255 255 255 255 255 255 255 255 255 255 255 255 255 255 255 255 255 255 255 255 255 255 255 255 255 255 255 255 255 255 255 255 255 255 255 255 255 255 255 
255 255 255 255 255 255 255 255 255 255 255 255 255 255 255 255 255 255 255 255 255 255 255 255 255 255 255 255 255 255 255 255 255 255 255 255 255 255 255 255 255 255 255 255 255 255 255 255 255 255 255 255 255 255 255 255 255 255 255 255 255 255 255 255 255 255 255 255 255 255 255 255 255 255 255 255 255 255 255 255 255 255 255 255 255 255 255 255 255 255 255 255 255 255 255 255 255 255 255 255 255 255 255 255 255 255 255 255 255 255 255 255 255 255 255 255 255 255 255 255 255 255 255 255 255 255 255 255 255 255 255 255 255 255 255 255 255 255 255 255 255 255 255 255 255 255 255 255 255 255 255 255 255 255 255 255 255 255 255 255 255 255 255 255 255 255 255 255 255 255 255 255 255 255 255 255 255 255 255 255 255 255 255 255 255 255 255 255 255 255 255 255 
