P3
64 64
255
255 255 255 255 255 255 255 255 255 255 255 255 255 255 255 255 255 255 255 255 255 255 255 255 255 255 255 255 255 255 255 255 255 255 255 255 255 255 255 255 255 255 255 255 255 255 255 255 255 255 255 255 255 255 255 255 255 255 255 255 255 255 255 255 255 255 255 255 255 255 255 255 255 255 255 255 255 255 255 255 255 255 255 255 255 255 255 255 255 255 255 255 255 255 255 255 255 255 255 255 255 255 255 255 255 255 255 255 255 255 255 255 255 255 255 255 255 255 255 255 255 255 255 255 255 255 255 255 255 255 255 255 255 255 255 255 255 255 255 255 255 255 255 255 255 255 255 255 255 255 255 255 255 255 255 255 255 255 255 255 255 255 255 255 255 255 255 255 255 255 255 255 255 255 255 255 255 255 255 255 255 255 255 255 255 255 255 255 255 255 255 255 
255 255 255 255 255 255 255 255 255 255 255 255 255 255 255 255 255 255 255 255 255 255 255 255 255 255 255 255 255 255 255 255 255 255 255 255 255 255 255 255 255 255 255 255 255 255 255 255 255 255 255 255 255 255 255 255 255 255 255 255 255 255 255 255 255 255 255 255 255 255 255 255 255 255 255 255 255 255 255 255 255 255 255 255 255 255 255 255 255 255 255 255 255 255 255 255 255 255 255 255 255 255 255 255 255 255 255 255 255 255 255 255 255 255 255 255 255 255 255 255 255 255 255 255 255 255 255 255 255 255 255 255 255 255 255 255 255 255 255 255 255 255 255 255 255 255 255 255 255 255 255 255 255 255 255 255 255 255 255 255 255 255 255 255 255 255 255 255 255 255 255 255 255 255 255 255 255 255 255 255 255 255 255 255 255 255 255 255 255 255 255 255 
255 255 255 255 255 255 255 255 255 255 255 255 255 255 255 255 255 255 255 255 255 255 255 255 255 255 255 255 255 255 255 255 255 255 255 255 255 255 255 255 255 255 255 255 255 255 255 255 255 255 255 255 255 255 255 255 255 255 255 255 255 255 255 255 255 255 255 255 255 255 255 255 255 255 255 255 255 255 255 255 255 255 255 255 255 255 255 255 255 255 255 255 255 255 255 255 255 255 255 255 255 255 255 255 255 255 255 255 255 255 255 255 255 255 255 255 255 255 255 255 255 255 255 255 255 255 255 255 255 255 255 255 255 255 255 255 255 255 255 255 255 255 255 255 255 255 255 255 255 255 255 255 255 255 255 255 255 255 255 255 255 255 255 255 255 255 255 255 255 255 255 255 255 255 255 255 255 255 255 255 255 255 255 255 255 255 255 255 255 255 255 255 
255 255 255 255 255 255 255 255 255 255 255 255 255 255 255 255 255 255 255 255 255 255 255 255 255 255 255 255 255 255 255 255 255 255 255 255 255 255 255 255 255 255 255 255 255 255 255 255 255 255 255 255 255 255 255 255 255 255 255 255 255 255 255 255 255 255 255 255 255 255 255 255 255 255 255 255 255 255 255 255 255 255 255 255 255 255 255 255 255 255 255 255 255 255 255 255 255 255 255 255 255 255 255 255 255 255 255 255 255 255 255 255 255 255 255 255 255 255 255 255 255 255 255 255 255 255 255 255 255 255 255 255 255 255 255 255 255 255 255 255 255 255 255 255 255 255 255 255 255 255 255 255 255 255 255 255 255 255 255 255 255 255 255 255 255 255 255 255 255 255 255 255 255 255 255 255 255 255 255 255 255 255 255 255 255 255 255 255 255 255 255 255 
255 255 255 255 255 255 255 255 255 255 255 255 255 255 255 255 255 255 255 255 255 255 255 255 255 255 255 255 255 255 255 255 255 255 255 255 255 255 255 255 255 255 255 255 255 255 255 255 255 255 255 255 255 255 255 255 255 255 255 255 255 255 255 255 255 255 255 255 255 255 255 255 255 255 255 255 255 255 255 255 255 255 255 255 255 255 255 255 255 255 255 255 255 255 255 255 255 255 255 255 255 255 255 255 255 255 255 255 255 255 255 255 255 255 255 255 255 255 255 255 255 255 255 255 255 255 255 255 255 255 255 255 255 255 255 255 255 255 255 255 255 255 255 255 255 255 255 255 255 255 255 255 255 255 255 255 255 255 255 255 255 255 255 255 255 255 255 255 255 255 255 255 255 255 255 255 255 255 255 255 255 255 255 255 255 255 255 255 255 255 255 255 
255 255 255 255 255 255 255 255 255 255 255 255 255 255 255 255 255 255 255 255 255 255 255 255 255 255 255 255 255 255 255 255 255 255 255 255 255 255 255 255 255 255 255 255 255 255 255 255 255 255 255 255 255 255 255 255 255 255 255 255 255 255 255 255 255 255 255 255 255 255 255 255 255 255 255 255 255 255 255 255 255 255 255 255 255 255 255 255 255 255 255 255 255 255 255 255 255 255 255 255 255 255 255 255 255 255 255 255 255 255 255 255 255 255 255 255 255 255 255 255 255 255 255 255 255 255 255 255 255 255 255 255 255 255 255 255 255 255 255 255 255 255 255 255 255 255 255 255 255 255 255 255 255 255 255 255 255 255 255 255 255 255 255 255 255 255 255 255 255 255 255 255 255 255 255 255 255 255 255 255 255 255 255 255 255 255 255 255 255 255 255 255 
255 255 255 255 255 255 255 255 255 255 255 255 255 255 255 255 255 255 255 255 255 255 255 255 255 255 255 255 255 255 255 255 255 255 255 255 255 255 255 255 255 255 255 255 255 255 255 255 255 255 255 255 255 255 255 255 255 255 255 255 255 255 255 255 255 255 255 255 255 255 255 255 255 255 255 255 255 255 255 255 255 255 255 255 255 255 255 255 255 255 255 255 255 255 255 255 255 255 255 255 255 255 255 255 255 255 255 255 255 255 255 255 255 255 255 255 255 255 255 255 255 255 255 255 255 255 255 255 255 255 255 255 255 255 255 255 255 255 255 255 255 255 255 255 255 255 255 255 255 255 255 255 255 255 255 255 255 255 255 255 255 255 255 255 255 255 255 255 255 255 255 255 255 255 255 255 255 255 255 255 255 255 255 255 255 255 255 255 255 255 255 255 
255 255 255 255 255 255 255 255 255 255 255 255 255 255 255 255 255 255 255 255 255 255 255 255 255 255 255 255 255 255 255 255 255 255 255 255 255 255 255 255 255 255 255 255 255 255 255 255 255 255 255 255 255 255 255 255 255 255 255 255 255 255 255 255 255 255 255 255 255 255 255 255 255 255 255 255 255 255 255 255 255 255 255 255 255 255 255 255 255 255 255 255 255 255 255 255 255 255 255 255 255 255 255 255 255 255 255 255 255 255 255 255 255 255 255 255 255 255 255 255 255 255 255 255 255 255 255 255 255 255 255 255 255 255 255 255 255 255 255 255 255 255 255 255 255 255 255 255 255 255 255 255 255 255 255 255 255 255 255 255 255 255 255 255 255 255 255 255 255 255 255 255 255 255 255 255 255 255 255 255 255 255 255 255 255 255 255 255 255 255 255 255 
255 255 255 255 255 255 255 255 255 255 255 255 255 255 255 255 255 255 255 255 255 255 255 255 255 255 255 255 255 255 255 255 255 255 255 255 255 255 255 255 255 255 255 255 255 255 255 255 255 255 255 255 255 255 255 255 255 255 255 255 255 255 255 255 255 255 255 255 255 255 255 255 255 255 255 255 255 255 88 88 80 88 88 80 255 255 255 255 255 255 255 255 255 255 255 255 255 255 255 255 255 255 255 255 255 255 255 255 255 255 255 255 255 255 255 255 255 255 255 255 255 255 255 255 255 255 255 255 255 255 255 255 255 255 255 255 255 255 255 255 255 255 255 255 255 255 255 255 255 255 255 255 255 255 255 255 255 255 255 255 255 255 255 255 255 255 255 255 255 255 255 255 255 255 255 255 255 255 255 255 255 255 255 255 255 255 255 255 255 255 255 255 
255 255 255 255 255 255 255 255 255 255 255 255 255 255 255 255 255 255 255 255 255 255 255 255 255 255 255 255 255 255 255 255 255 255 255 255 255 255 255 255 255 255 255 255 255 255 255 255 255 255 255 255 255 255 255 255 255 255 255 255 255 255 255 255 255 255 255 255 255 255 255 255 255 255 255 88 88 80 248 248 248 136 136 120 88 88 80 255 255 255 255 255 255 255 255 255 255 255 255 255 255 255 255 255 255 255 255 255 255 255 255 255 255 255 255 255 255 255 255 255 255 255 255 255 255 255 255 255 255 255 255 255 255 255 255 255 255 255 255 255 255 255 255 255 255 255 255 255 255 255 255 255 255 255 255 255 255 255 255 255 255 255 255 255 255 255 255 255 255 255 255 255 255 255 255 255 255 255 255 255 255 255 255 255 255 255 255 255 255 255 255 255 
255 255 255 255 255 255 255 255 255 255 255 255 255 255 255 255 255 255 255 255 255 255 255 255 255 255 255 255 255 255 255 255 255 255 255 255 255 255 255 255 255 255 255 255 255 255 255 255 255 255 255 255 255 255 255 255 255 255 255 255 255 255 255 255 255 255 255 255 255 255 255 255 255 255 255 88 88 80 136 136 120 136 136 120 88 88 80 255 255 255 255 255 255 255 255 255 88 88 80 88 88 80 255 255 255 255 255 255 255 255 255 255 255 255 255 255 255 255 255 255 255 255 255 255 255 255 255 255 255 255 255 255 255 255 255 255 255 255 255 255 255 255 255 255 255 255 255 255 255 255 255 255 255 255 255 255 255 255 255 255 255 255 255 255 255 255 255 255 255 255 255 255 255 255 255 255 255 255 255 255 255 255 255 255 255 255 255 255 255 255 255 255 
255 255 255 255 255 255 255 255 255 255 255 255 255 255 255 255 255 255 255 255 255 255 255 255 255 255 255 255 255 255 255 255 255 255 255 255 255 255 255 255 255 255 255 255 255 255 255 255 255 255 255 255 255 255 255 255 255 255 255 255 255 255 255 255 255 255 255 255 255 255 255 255 88 88 80 136 136 120 136 136 120 88 88 80 255 255 255 255 255 255 255 255 255 88 88 80 248 248 248 136 136 120 88 88 80 255 255 255 255 255 255 255 255 255 255 255 255 255 255 255 255 255 255 255 255 255 255 255 255 255 255 255 255 255 255 255 255 255 255 255 255 255 255 255 255 255 255 255 255 255 255 255 255 255 255 255 255 255 255 255 255 255 255 255 255 255 255 255 255 255 255 255 255 255 255 255 255 255 255 255 255 255 255 255 255 255 255 255 255 255 255 255 
255 255 255 255 255 255 255 255 255 255 255 255 255 255 255 255 255 255 255 255 255 255 255 255 255 255 255 255 255 255 255 255 255 255 255 255 255 255 255 255 255 255 255 255 255 255 255 255 255 255 255 255 255 255 255 255 255 255 255 255 255 255 255 255 255 255 255 255 255 255 255 255 88 88 80 88 88 80 255 255 255 255 255 255 255 255 255 255 255 255 88 88 80 136 136 120 136 136 120 136 136 120 88 88 80 255 255 255 255 255 255 255 255 255 255 255 255 255 255 255 255 255 255 255 255 255 255 255 255 255 255 255 255 255 255 255 255 255 255 255 255 255 255 255 255 255 255 255 255 255 255 255 255 255 255 255 255 255 255 255 255 255 255 255 255 255 255 255 255 255 255 255 255 255 255 255 255 255 255 255 255 255 255 255 255 255 255 255 255 255 255 255 
255 255 255 255 255 255 255 255 255 255 255 255 255 255 255 255 255 255 255 255 255 255 255 255 255 255 255 255 255 255 255 255 255 255 255 255 255 255 255 255 255 255 255 255 255 255 255 255 255 255 255 255 255 255 255 255 255 255 255 255 255 255 255 255 255 255 255 255 255 136 136 120 136 136 120 255 255 255 255 255 255 255 255 255 255 255 255 255 255 255 88 88 80 136 136 120 88 88 80 88 88 80 255 255 255 255 255 255 255 255 255 255 255 255 255 255 255 255 255 255 255 255 255 255 255 255 255 255 255 255 255 255 255 255 255 255 255 255 255 255 255 255 255 255 255 255 255 255 255 255 255 255 255 255 255 255 255 255 255 255 255 255 255 255 255 255 255 255 255 255 255 255 255 255 255 255 255 255 255 255 255 255 255 255 255 255 255 255 255 255 255 255 
255 255 255 255 255 255 255 255 255 255 255 255 255 255 255 255 255 255 255 255 255 255 255 255 255 255 255 255 255 255 255 255 255 255 255 255 255 255 255 255 255 255 255 255 255 255 255 255 255 255 255 255 255 255 255 255 255 255 255 255 255 255 255 255 255 255 255 255 255 88 88 80 255 255 255 255 255 255 255 255 255 255 255 255 136 136 120 88 88 80 136 136 120 255 255 255 255 255 255 255 255 255 255 255 255 255 255 255 255 255 255 255 255 255 255 255 255 255 255 255 255 255 255 255 255 255 255 255 255 255 255 255 255 255 255 255 255 255 255 255 255 255 255 255 255 255 255 255 255 255 255 255 255 255 255 255 255 255 255 255 255 255 255 255 255 255 255 255 255 255 255 255 255 255 255 255 255 255 255 255 255 255 255 255 255 255 255 255 255 255 255 255 
255 255 255 255 255 255 255 255 255 255 255 255 255 255 255 255 255 255 255 255 255 255 255 255 255 255 255 255 255 255 255 255 255 255 255 255 255 255 255 255 255 255 255 255 255 255 255 255 255 255 255 255 255 255 255 255 255 255 255 255 255 255 255 255 255 255 88 88 80 255 255 255 255 255 255 255 255 255 255 255 255 88 88 80 136 136 120 255 255 255 255 255 255 255 255 255 255 255 255 255 255 255 255 255 255 255 255 255 255 255 255 255 255 255 255 255 255 255 255 255 255 255 255 255 255 255 255 255 255 255 255 255 255 255 255 255 255 255 255 255 255 255 255 255 255 255 255 255 255 255 255 255 255 255 255 255 255 255 255 255 255 255 255 255 255 255 255 255 255 255 255 255 255 255 255 255 255 255 255 255 255 255 255 255 255 255 255 255 255 255 255 255 
255 255 255 255 255 255 255 255 255 255 255 255 255 255 255 255 255 255 255 255 255 255 255 255 255 255 255 255 255 255 255 255 255 255 255 255 255 255 255 255 255 255 255 255 255 255 255 255 255 255 255 255 255 255 255 255 255 255 255 255 255 255 255 136 136 120 136 136 120 255 255 255 255 255 255 255 255 255 88 88 80 255 255 255 255 255 255 255 255 255 255 255 255 255 255 255 255 255 255 255 255 255 255 255 255 255 255 255 255 255 255 255 255 255 255 255 255 255 255 255 255 255 255 255 255 255 255 255 255 255 255 255 255 255 255 255 255 255 255 255 255 255 255 255 255 255 255 255 255 255 255 255 255 255 255 255 255 255 255 255 255 255 255 255 255 255 255 255 255 255 255 255 255 255 255 255 255 255 255 255 255 255 255 255 255 255 255 255 255 255 255 255 
255 255 255 255 255 255 255 255 255 255 255 255 255 255 255 255 255 255 255 255 255 255 255 255 88 88 80 88 88 80 88 88 80 255 255 255 255 255 255 255 255 255 255 255 255 255 255 255 255 255 255 255 255 255 255 255 255 255 255 255 255 255 255 88 88 80 255 255 255 255 255 255 136 136 120 88 88 80 255 255 255 255 255 255 255 255 255 255 255 255 255 255 255 255 255 255 255 255 255 255 255 255 255 255 255 255 255 255 255 255 255 255 255 255 255 255 255 255 255 255 255 255 255 255 255 255 255 255 255 255 255 255 255 255 255 255 255 255 255 255 255 255 255 255 255 255 255 255 255 255 255 255 255 255 255 255 255 255 255 255 255 255 255 255 255 255 255 255 255 255 255 255 255 255 255 255 255 255 255 255 255 255 255 255 255 255 255 255 255 255 255 255 
255 255 255 255 255 255 255 255 255 255 255 255 255 255 255 255 255 255 255 255 255 88 88 80 248 248 48 248 248 48 248 248 48 88 88 80 255 255 255 255 255 255 255 255 255 255 255 255 255 255 255 255 255 255 255 255 255 255 255 255 88 88 80 255 255 255 255 255 255 88 88 80 136 136 120 255 255 255 255 255 255 255 255 255 255 255 255 255 255 255 255 255 255 255 255 255 255 255 255 255 255 255 255 255 255 255 255 255 255 255 255 255 255 255 255 255 255 255 255 255 255 255 255 255 255 255 255 255 255 255 255 255 255 255 255 255 255 255 255 255 255 255 255 255 255 255 255 255 255 255 255 255 255 255 255 255 255 255 255 255 255 255 255 255 255 255 255 255 255 255 255 255 255 255 255 255 255 255 255 255 255 255 255 255 255 255 255 255 255 255 255 255 
255 255 255 255 255 255 255 255 255 255 255 255 255 255 255 255 255 255 88 88 80 248 248 48 136 136 120 136 136 120 248 248 48 248 248 48 88 88 80 255 255 255 255 255 255 255 255 255 255 255 255 255 255 255 255 255 255 255 255 255 88 88 80 136 136 120 88 88 80 255 255 255 255 255 255 255 255 255 255 255 255 255 255 255 255 255 255 255 255 255 255 255 255 255 255 255 255 255 255 255 255 255 255 255 255 255 255 255 168 168 104 168 168 104 168 168 104 168 168 104 168 168 104 168 168 104 168 168 104 168 168 104 255 255 255 255 255 255 255 255 255 255 255 255 255 255 255 255 255 255 255 255 255 255 255 255 255 255 255 255 255 255 255 255 255 255 255 255 255 255 255 255 255 255 255 255 255 255 255 255 255 255 255 255 255 255 255 255 255 255 255 255 
255 255 255 255 255 255 255 255 255 255 255 255 255 255 255 88 88 80 248 248 48 136 136 120 136 136 120 136 136 120 136 136 120 248 248 48 248 248 48 88 88 80 255 255 255 255 255 255 255 255 255 255 255 255 255 255 255 152 152 112 152 152 112 88 88 80 255 255 255 255 255 255 255 255 255 255 255 255 255 255 255 255 255 255 255 255 255 255 255 255 255 255 255 255 255 255 168 168 104 168 168 104 168 168 104 168 168 104 248 248 48 248 248 48 248 248 48 248 248 48 248 248 48 248 248 48 248 248 48 248 248 48 168 168 104 168 168 104 168 168 104 255 255 255 255 255 255 255 255 255 255 255 255 255 255 255 255 255 255 255 255 255 255 255 255 255 255 255 255 255 255 255 255 255 255 255 255 255 255 255 255 255 255 255 255 255 255 255 255 255 255 255 
255 255 255 255 255 255 255 255 255 255 255 255 255 255 255 88 88 80 136 136 120 136 136 120 136 136 120 136 136 120 136 136 120 136 136 120 248 248 48 88 88 80 255 255 255 255 255 255 255 255 255 255 255 255 152 152 112 192 192 112 152 152 112 88 88 80 255 255 255 255 255 255 255 255 255 255 255 255 255 255 255 255 255 255 255 255 255 255 255 255 168 168 104 168 168 104 248 248 48 248 248 48 248 248 48 224 216 112 224 216 112 136 136 120 136 136 120 136 136 120 136 136 120 136 136 120 224 216 112 224 216 112 248 248 48 248 248 48 248 248 48 88 88 80 88 88 80 255 255 255 255 255 255 255 255 255 255 255 255 255 255 255 255 255 255 255 255 255 255 255 255 255 255 255 255 255 255 255 255 255 255 255 255 255 255 255 255 255 255 255 255 255 
255 255 255 255 255 255 255 255 255 255 255 255 88 88 80 136 136 120 136 136 120 136 136 120 136 136 120 248 144 40 248 144 40 136 136 120 136 136 120 248 248 48 88 88 80 255 255 255 255 255 255 152 152 112 192 192 112 192 192 112 152 152 112 88 88 80 255 255 255 255 255 255 255 255 255 255 255 255 255 255 255 255 255 255 168 168 104 168 168 104 248 248 48 248 248 48 224 216 112 136 136 120 136 136 120 136 136 120 136 136 120 136 136 120 136 136 120 136 136 120 136 136 120 136 136 120 136 136 120 136 136 120 136 136 120 136 136 120 224 216 112 248 248 48 248 248 48 88 88 80 88 88 80 255 255 255 255 255 255 255 255 255 255 255 255 255 255 255 255 255 255 255 255 255 255 255 255 255 255 255 255 255 255 255 255 255 255 255 255 255 255 255 
255 255 255 255 255 255 255 255 255 255 255 255 88 88 80 136 136 120 136 136 120 136 136 120 136 136 120 248 144 40 136 136 120 136 136 120 136 136 120 248 248 48 88 88 80 255 255 255 152 152 112 192 192 112 192 192 112 192 192 112 152 152 112 152 152 112 88 88 80 255 255 255 255 255 255 255 255 255 255 255 255 88 88 80 248 248 48 248 248 48 224 216 112 136 136 120 136 136 120 136 136 120 248 144 40 248 144 40 248 144 40 248 144 40 248 144 40 136 136 120 136 136 120 136 136 120 136 136 120 136 136 120 136 136 120 136 136 120 136 136 120 136 136 120 224 216 112 248 248 48 248 248 48 88 88 80 88 88 80 255 255 255 255 255 255 255 255 255 255 255 255 255 255 255 255 255 255 255 255 255 255 255 255 255 255 255 255 255 255 255 255 255 
255 255 255 255 255 255 255 255 255 88 88 80 136 136 120 248 248 48 248 248 48 224 216 112 136 136 120 136 136 120 136 136 120 248 248 48 136 136 120 136 136 120 248 248 48 152 152 112 192 192 112 192 192 112 192 192 112 192 192 112 152 152 112 152 152 112 152 152 112 88 88 80 255 255 255 255 255 255 88 88 80 248 248 48 224 216 112 136 136 120 136 136 120 136 136 120 136 136 120 136 136 120 136 136 120 248 144 40 248 144 40 248 144 40 248 144 40 136 136 120 136 136 120 136 136 120 136 136 120 136 136 120 136 136 120 136 136 120 136 136 120 136 136 120 136 136 120 136 136 120 224 216 112 248 248 48 248 248 48 88 88 80 255 255 255 255 255 255 255 255 255 255 255 255 255 255 255 255 255 255 255 255 255 255 255 255 255 255 255 255 255 255 
255 255 255 255 255 255 255 255 255 88 88 80 136 136 120 224 216 112 248 248 48 248 248 48 248 248 48 224 216 112 136 136 120 248 248 48 248 248 48 136 136 120 88 88 80 192 192 112 192 192 112 192 192 112 232 232 176 232 232 176 232 232 176 192 192 112 152 152 112 152 152 112 88 88 80 88 88 80 248 248 48 224 216 112 136 136 120 136 136 120 224 216 112 248 248 48 248 248 48 136 136 120 136 136 120 136 136 120 248 144 40 248 144 40 248 144 40 136 136 120 136 136 120 136 136 120 136 136 120 136 136 120 136 136 120 136 136 120 136 136 120 136 136 120 136 136 120 136 136 120 136 136 120 136 136 120 224 216 112 248 248 48 88 88 80 255 255 255 255 255 255 255 255 255 255 255 255 255 255 255 255 255 255 255 255 255 255 255 255 255 255 255 
255 255 255 255 255 255 255 255 255 255 255 255 88 88 80 136 136 120 136 136 120 248 248 48 248 248 48 248 248 48 248 248 48 136 136 120 248 248 48 88 88 80 248 248 232 192 192 112 248 248 232 248 248 232 248 248 232 232 232 176 232 232 176 232 232 176 192 192 112 192 192 112 88 88 80 248 248 48 136 136 120 136 136 120 224 216 112 248 248 48 248 248 48 248 248 48 248 248 48 248 248 48 136 136 120 136 136 120 248 144 40 248 144 40 136 136 120 136 136 120 136 136 120 136 136 120 136 136 120 136 136 120 136 136 120 136 136 120 136 136 120 136 136 120 136 136 120 136 136 120 136 136 120 136 136 120 136 136 120 136 136 120 224 216 112 88 88 80 255 255 255 255 255 255 255 255 255 255 255 255 255 255 255 255 255 255 255 255 255 255 255 255 
255 255 255 255 255 255 255 255 255 255 255 255 255 255 255 88 88 80 136 136 120 136 136 120 224 216 112 248 248 48 248 248 48 248 248 48 88 88 80 232 232 176 248 248 232 248 248 232 248 248 232 248 248 232 248 248 232 232 232 176 232 232 176 232 232 176 192 192 112 192 192 112 192 192 112 88 88 80 136 136 120 248 248 48 248 248 48 248 248 48 248 248 48 248 248 48 248 248 48 248 248 48 136 136 120 136 136 120 136 136 120 136 136 120 136 136 120 136 136 120 136 136 120 136 136 120 136 136 120 136 136 120 136 136 120 136 136 120 136 136 120 136 136 120 136 136 120 136 136 120 136 136 120 136 136 120 136 136 120 136 136 120 136 136 120 224 216 112 88 88 80 255 255 255 255 255 255 255 255 255 255 255 255 255 255 255 255 255 255 255 255 255 
255 255 255 255 255 255 255 255 255 255 255 255 255 255 255 255 255 255 88 88 80 88 88 80 136 136 120 136 136 120 248 248 48 248 248 48 88 88 80 232 232 176 248 248 232 248 248 232 248 248 232 248 248 232 248 248 232 232 232 176 136 136 120 136 136 120 136 136 120 192 192 112 192 192 112 88 88 80 248 248 48 248 248 48 248 248 48 248 248 48 248 248 48 248 248 48 248 248 48 224 216 112 136 136 120 136 136 120 136 136 120 136 136 120 224 216 112 224 216 112 248 248 48 248 248 48 248 248 48 248 248 48 224 216 112 224 216 112 136 136 120 136 136 120 136 136 120 136 136 120 136 136 120 136 136 120 136 136 120 136 136 120 136 136 120 136 136 120 224 216 112 88 88 80 255 255 255 255 255 255 255 255 255 255 255 255 255 255 255 255 255 255 
255 255 255 255 255 255 255 255 255 255 255 255 255 255 255 255 255 255 255 255 255 255 255 255 88 88 80 136 136 120 136 136 120 88 88 80 248 248 232 232 232 176 232 232 176 248 248 232 248 248 232 232 232 176 232 232 176 136 136 120 152 128 248 248 248 232 248 248 232 136 136 120 192 192 112 192 192 112 88 88 80 248 248 48 248 248 48 248 248 48 248 248 48 224 216 112 136 136 120 136 136 120 136 136 120 224 216 112 248 248 48 248 248 48 248 248 48 248 248 48 248 248 48 248 248 48 248 248 48 248 248 48 248 248 48 248 248 48 248 248 48 248 248 48 224 216 112 224 216 112 136 136 120 136 136 120 136 136 120 136 136 120 136 136 120 136 136 120 224 216 112 88 88 80 255 255 255 255 255 255 255 255 255 255 255 255 255 255 255 255 255 255 
255 255 255 255 255 255 255 255 255 255 255 255 255 255 255 255 255 255 255 255 255 88 88 80 136 136 120 248 248 48 136 136 120 88 88 80 152 128 248 192 192 112 232 232 176 232 232 176 232 232 176 232 232 176 192 192 112 152 128 248 152 128 248 248 248 232 248 248 232 136 136 120 192 192 112 192 192 112 24 24 0 248 248 48 224 216 112 136 136 120 136 136 120 136 136 120 136 136 120 224 216 112 248 248 48 248 248 48 248 248 48 248 248 48 248 248 48 248 248 48 248 248 48 248 248 48 248 248 48 248 248 48 248 248 48 248 248 48 248 248 48 248 248 48 248 248 48 248 248 48 248 248 48 248 248 48 136 136 120 136 136 120 136 136 120 136 136 120 136 136 120 224 216 112 24 24 0 255 255 255 255 255 255 255 255 255 255 255 255 255 255 255 
255 255 255 255 255 255 255 255 255 255 255 255 255 255 255 255 255 255 255 255 255 88 88 80 136 136 120 248 248 48 248 248 48 88 88 80 152 128 248 192 192 112 232 232 176 232 232 176 232 232 176 232 232 176 136 136 120 152 128 248 88 88 80 88 88 80 152 128 248 88 88 80 192 192 112 192 192 112 88 88 80 136 136 120 136 136 120 136 136 120 224 216 112 248 248 48 248 248 48 248 248 48 248 248 48 248 248 48 248 248 48 248 248 48 248 248 48 248 248 48 248 248 48 248 248 48 248 248 48 248 248 48 248 248 48 248 248 48 248 248 48 248 248 48 248 248 48 248 248 48 248 248 48 248 248 48 136 136 120 136 136 120 136 136 120 136 136 120 136 136 120 224 216 112 24 24 0 255 255 255 255 255 255 255 255 255 255 255 255 255 255 255 
255 255 255 255 255 255 255 255 255 255 255 255 255 255 255 255 255 255 255 255 255 255 255 255 88 88 80 88 88 80 248 248 48 248 248 48 88 88 80 136 136 120 232 232 176 232 232 176 232 232 176 232 232 176 88 88 80 152 128 248 88 88 80 88 88 80 152 128 248 88 88 80 192 192 112 192 192 112 88 88 80 136 136 120 248 248 48 248 248 48 248 248 48 248 248 48 248 248 48 248 248 48 248 248 48 248 248 48 248 248 48 248 248 48 248 248 48 248 248 48 248 248 48 248 248 48 248 248 48 248 248 48 248 248 48 248 248 48 248 248 48 248 248 48 248 248 48 248 248 48 224 216 112 136 136 120 136 136 120 136 136 120 136 136 120 136 136 120 224 216 112 24 24 0 255 255 255 255 255 255 255 255 255 255 255 255 255 255 255 255 255 255 
255 255 255 255 255 255 255 255 255 255 255 255 255 255 255 255 255 255 255 255 255 255 255 255 255 255 255 255 255 255 88 88 80 136 136 120 88 88 80 136 136 120 232 232 176 232 232 176 232 232 176 232 232 176 88 88 80 152 128 248 152 128 248 152 128 248 88 88 80 192 192 112 192 192 112 24 24 0 224 216 112 248 248 48 248 248 48 248 248 48 248 248 48 248 248 48 248 248 48 248 248 48 248 248 48 248 248 48 248 248 48 248 248 48 248 248 48 224 216 112 224 216 112 224 216 112 136 136 120 136 136 120 136 136 120 136 136 120 136 136 120 136 136 120 136 136 120 136 136 120 136 136 120 136 136 120 136 136 120 136 136 120 136 136 120 88 88 80 24 24 0 255 255 255 255 255 255 255 255 255 255 255 255 255 255 255 255 255 255 255 255 255 
255 255 255 255 255 255 255 255 255 255 255 255 255 255 255 255 255 255 255 255 255 255 255 255 255 255 255 255 255 255 88 88 80 136 136 120 136 136 120 88 88 80 88 88 80 88 88 80 232 232 176 232 232 176 232 232 176 88 88 80 88 88 80 88 88 80 192 192 112 192 192 112 192 192 112 24 24 0 224 216 112 224 216 112 248 248 48 248 248 48 224 216 112 224 216 112 136 136 120 136 136 120 136 136 120 136 136 120 136 136 120 136 136 120 136 136 120 136 136 120 136 136 120 136 136 120 136 136 120 136 136 120 136 136 120 136 136 120 136 136 120 136 136 120 136 136 120 88 88 80 24 24 0 24 24 0 24 24 0 24 24 0 88 88 80 255 255 255 255 255 255 255 255 255 255 255 255 255 255 255 255 255 255 255 255 255 255 255 255 255 255 255 
255 255 255 255 255 255 255 255 255 255 255 255 255 255 255 255 255 255 255 255 255 255 255 255 255 255 255 88 88 80 136 136 120 136 136 120 88 88 80 88 88 80 88 88 80 192 192 112 192 192 112 192 192 112 192 192 112 192 192 112 192 192 112 192 192 112 192 192 112 192 192 112 24 24 0 136 136 120 136 136 120 136 136 120 136 136 120 136 136 120 136 136 120 136 136 120 136 136 120 136 136 120 136 136 120 136 136 120 136 136 120 136 136 120 136 136 120 136 136 120 136 136 120 136 136 120 136 136 120 136 136 120 136 136 120 136 136 120 136 136 120 24 24 0 88 88 80 255 255 255 255 255 255 255 255 255 255 255 255 255 255 255 255 255 255 255 255 255 255 255 255 255 255 255 255 255 255 255 255 255 255 255 255 255 255 255 255 255 255 255 255 255 
255 255 255 255 255 255 255 255 255 255 255 255 255 255 255 255 255 255 255 255 255 255 255 255 255 255 255 88 88 80 136 136 120 88 88 80 88 88 80 255 255 255 255 255 255 88 88 80 192 192 112 192 192 112 192 192 112 192 192 112 192 192 112 192 192 112 192 192 112 24 24 0 224 216 112 224 216 112 224 216 112 224 216 112 224 216 112 248 248 48 248 248 48 248 248 48 248 248 48 248 248 48 248 248 48 248 248 48 224 216 112 136 136 120 136 136 120 136 136 120 136 136 120 136 136 120 136 136 120 136 136 120 136 136 120 136 136 120 24 24 0 255 255 255 255 255 255 255 255 255 255 255 255 255 255 255 255 255 255 255 255 255 255 255 255 255 255 255 255 255 255 255 255 255 255 255 255 255 255 255 255 255 255 255 255 255 255 255 255 255 255 255 
255 255 255 255 255 255 255 255 255 255 255 255 255 255 255 255 255 255 255 255 255 255 255 255 255 255 255 255 255 255 88 88 80 88 88 80 255 255 255 88 88 80 88 88 80 88 88 80 88 88 80 136 136 120 136 136 120 136 136 120 24 24 0 24 24 0 24 24 0 88 88 80 88 88 80 224 216 112 224 216 112 224 216 112 224 216 112 224 216 112 248 248 48 248 248 48 248 248 48 248 248 48 248 248 48 248 248 48 248 248 48 136 136 120 136 136 120 136 136 120 136 136 120 136 136 120 136 136 120 136 136 120 136 136 120 24 24 0 255 255 255 255 255 255 255 255 255 255 255 255 255 255 255 255 255 255 255 255 255 255 255 255 255 255 255 255 255 255 255 255 255 255 255 255 255 255 255 255 255 255 255 255 255 255 255 255 255 255 255 255 255 255 
255 255 255 255 255 255 255 255 255 255 255 255 255 255 255 255 255 255 255 255 255 255 255 255 255 255 255 88 88 80 88 88 80 255 255 255 88 88 80 232 232 176 232 232 176 88 88 80 136 136 120 136 136 120 136 136 120 136 136 120 136 136 120 136 136 120 192 192 112 232 232 176 232 232 176 88 88 80 136 136 120 136 136 120 136 136 120 168 168 104 248 248 48 248 248 48 248 248 48 248 248 48 248 248 48 248 248 48 224 216 112 136 136 120 136 136 120 136 136 120 136 136 120 136 136 120 136 136 120 136 136 120 136 136 120 88 88 80 255 255 255 255 255 255 255 255 255 255 255 255 255 255 255 255 255 255 255 255 255 255 255 255 255 255 255 255 255 255 255 255 255 255 255 255 255 255 255 255 255 255 255 255 255 255 255 255 255 255 255 255 255 255 
255 255 255 255 255 255 255 255 255 255 255 255 255 255 255 255 255 255 255 255 255 255 255 255 136 136 120 136 136 120 255 255 255 255 255 255 88 88 80 192 192 112 192 192 112 88 88 80 136 136 120 248 248 232 248 248 232 136 136 120 136 136 120 136 136 120 192 192 112 232 232 176 232 232 176 88 88 80 224 216 112 224 216 112 224 216 112 168 168 104 136 136 120 136 136 120 136 136 120 136 136 120 136 136 120 136 136 120 136 136 120 136 136 120 88 88 80 24 24 0 24 24 0 24 24 0 24 24 0 24 24 0 24 24 0 255 255 255 255 255 255 255 255 255 255 255 255 255 255 255 255 255 255 255 255 255 255 255 255 255 255 255 255 255 255 255 255 255 255 255 255 255 255 255 255 255 255 255 255 255 255 255 255 255 255 255 255 255 255 255 255 255 
255 255 255 255 255 255 255 255 255 255 255 255 255 255 255 255 255 255 255 255 255 136 136 120 136 136 120 255 255 255 255 255 255 255 255 255 255 255 255 88 88 80 88 88 80 136 136 120 248 248 232 248 248 232 248 248 232 232 232 176 136 136 120 136 136 120 136 136 120 88 88 80 88 88 80 168 168 104 224 216 112 224 216 112 224 216 112 224 216 112 248 248 48 248 248 48 248 248 48 248 248 48 136 136 120 136 136 120 136 136 120 136 136 120 88 88 80 255 255 255 255 255 255 255 255 255 255 255 255 255 255 255 255 255 255 255 255 255 255 255 255 255 255 255 255 255 255 255 255 255 255 255 255 255 255 255 255 255 255 255 255 255 255 255 255 255 255 255 255 255 255 255 255 255 255 255 255 255 255 255 255 255 255 255 255 255 255 255 255 255 255 255 
255 255 255 255 255 255 255 255 255 255 255 255 255 255 255 255 255 255 255 255 255 136 136 120 255 255 255 255 255 255 255 255 255 255 255 255 255 255 255 255 255 255 88 88 80 136 136 120 248 248 232 248 248 232 232 232 176 232 232 176 88 88 80 88 88 80 88 88 80 152 128 248 152 128 248 152 128 248 88 88 80 88 88 80 168 168 104 248 248 48 248 248 48 248 248 48 248 248 48 224 216 112 136 136 120 136 136 120 136 136 120 136 136 120 88 88 80 255 255 255 255 255 255 255 255 255 255 255 255 255 255 255 255 255 255 255 255 255 255 255 255 255 255 255 255 255 255 255 255 255 255 255 255 255 255 255 255 255 255 255 255 255 255 255 255 255 255 255 255 255 255 255 255 255 255 255 255 255 255 255 255 255 255 255 255 255 255 255 255 255 255 255 
255 255 255 255 255 255 255 255 255 255 255 255 255 255 255 255 255 255 136 136 120 136 136 120 255 255 255 255 255 255 255 255 255 255 255 255 255 255 255 88 88 80 88 88 80 136 136 120 232 232 176 232 232 176 232 232 176 88 88 80 232 232 176 232 232 176 192 192 112 88 88 80 152 128 248 152 128 248 152 128 248 152 128 248 168 168 104 88 88 80 88 88 80 168 168 104 136 136 120 136 136 120 136 136 120 136 136 120 136 136 120 136 136 120 88 88 80 255 255 255 255 255 255 255 255 255 255 255 255 255 255 255 255 255 255 255 255 255 255 255 255 255 255 255 255 255 255 255 255 255 255 255 255 255 255 255 255 255 255 255 255 255 255 255 255 255 255 255 255 255 255 255 255 255 255 255 255 255 255 255 255 255 255 255 255 255 255 255 255 255 255 255 
255 255 255 255 255 255 255 255 255 255 255 255 255 255 255 255 255 255 136 136 120 255 255 255 255 255 255 255 255 255 255 255 255 255 255 255 255 255 255 88 88 80 192 192 112 136 136 120 192 192 112 192 192 112 192 192 112 88 88 80 232 232 176 232 232 176 192 192 112 88 88 80 152 128 248 152 128 248 152 128 248 152 128 248 152 128 248 152 128 248 152 128 248 168 168 104 88 88 80 88 88 80 24 24 0 24 24 0 24 24 0 88 88 80 255 255 255 255 255 255 255 255 255 255 255 255 255 255 255 255 255 255 255 255 255 255 255 255 255 255 255 255 255 255 255 255 255 255 255 255 255 255 255 255 255 255 255 255 255 255 255 255 255 255 255 255 255 255 255 255 255 255 255 255 255 255 255 255 255 255 255 255 255 255 255 255 255 255 255 255 255 255 
255 255 255 255 255 255 255 255 255 255 255 255 255 255 255 136 136 120 136 136 120 255 255 255 255 255 255 255 255 255 88 88 80 88 88 80 255 255 255 88 88 80 192 192 112 88 88 80 192 192 112 192 192 112 192 192 112 88 88 80 192 192 112 192 192 112 152 152 112 24 24 0 248 144 40 152 128 248 152 128 248 152 128 248 152 128 248 152 128 248 136 136 120 136 136 120 136 136 120 24 24 0 255 255 255 255 255 255 255 255 255 255 255 255 255 255 255 255 255 255 255 255 255 255 255 255 255 255 255 255 255 255 255 255 255 255 255 255 255 255 255 255 255 255 255 255 255 255 255 255 255 255 255 255 255 255 255 255 255 255 255 255 255 255 255 255 255 255 255 255 255 255 255 255 255 255 255 255 255 255 255 255 255 255 255 255 255 255 255 255 255 255 
255 255 255 255 255 255 255 255 255 255 255 255 255 255 255 88 88 80 255 255 255 255 255 255 255 255 255 88 88 80 136 136 120 136 136 120 88 88 80 88 88 80 88 88 80 192 192 112 88 88 80 192 192 112 192 192 112 88 88 80 152 152 112 152 152 112 152 152 112 24 24 0 248 144 40 248 144 40 248 144 40 152 128 248 152 128 248 152 128 248 136 136 120 136 136 120 136 136 120 24 24 0 255 255 255 255 255 255 255 255 255 255 255 255 255 255 255 255 255 255 255 255 255 255 255 255 255 255 255 255 255 255 255 255 255 255 255 255 255 255 255 255 255 255 255 255 255 255 255 255 255 255 255 255 255 255 255 255 255 255 255 255 255 255 255 255 255 255 255 255 255 255 255 255 255 255 255 255 255 255 255 255 255 255 255 255 255 255 255 255 255 255 
255 255 255 255 255 255 255 255 255 255 255 255 255 255 255 88 88 80 255 255 255 255 255 255 136 136 120 136 136 120 255 255 255 255 255 255 136 136 120 136 136 120 88 88 80 24 24 0 24 24 0 88 88 80 192 192 112 192 192 112 24 24 0 24 24 0 24 24 0 248 144 40 248 144 40 248 144 40 248 144 40 248 144 40 248 144 40 136 136 120 136 136 120 136 136 120 136 136 120 24 24 0 255 255 255 255 255 255 255 255 255 255 255 255 255 255 255 255 255 255 255 255 255 255 255 255 255 255 255 255 255 255 255 255 255 255 255 255 255 255 255 255 255 255 255 255 255 255 255 255 255 255 255 255 255 255 255 255 255 255 255 255 255 255 255 255 255 255 255 255 255 255 255 255 255 255 255 255 255 255 255 255 255 255 255 255 255 255 255 255 255 255 
255 255 255 255 255 255 255 255 255 255 255 255 255 255 255 88 88 80 255 255 255 255 255 255 88 88 80 255 255 255 255 255 255 255 255 255 255 255 255 88 88 80 255 255 255 255 255 255 88 88 80 136 136 120 24 24 0 24 24 0 88 88 80 255 255 255 255 255 255 88 88 80 248 144 40 248 144 40 248 144 40 248 144 40 136 136 120 136 136 120 136 136 120 136 136 120 136 136 120 136 136 120 255 255 255 255 255 255 255 255 255 255 255 255 255 255 255 255 255 255 255 255 255 255 255 255 255 255 255 255 255 255 255 255 255 255 255 255 255 255 255 255 255 255 255 255 255 255 255 255 255 255 255 255 255 255 255 255 255 255 255 255 255 255 255 255 255 255 255 255 255 255 255 255 255 255 255 255 255 255 255 255 255 255 255 255 255 255 255 255 255 255 
255 255 255 255 255 255 255 255 255 255 255 255 255 255 255 88 88 80 255 255 255 255 255 255 88 88 80 255 255 255 255 255 255 255 255 255 255 255 255 88 88 80 255 255 255 255 255 255 88 88 80 136 136 120 136 136 120 88 88 80 255 255 255 255 255 255 255 255 255 255 255 255 88 88 80 248 144 40 136 136 120 136 136 120 136 136 120 136 136 120 136 136 120 136 136 120 88 88 80 88 88 80 88 88 80 136 136 120 255 255 255 255 255 255 255 255 255 255 255 255 255 255 255 255 255 255 255 255 255 255 255 255 255 255 255 255 255 255 255 255 255 255 255 255 255 255 255 255 255 255 255 255 255 255 255 255 255 255 255 255 255 255 255 255 255 255 255 255 255 255 255 255 255 255 255 255 255 255 255 255 255 255 255 255 255 255 255 255 255 255 255 255 
255 255 255 255 255 255 255 255 255 255 255 255 255 255 255 88 88 80 255 255 255 255 255 255 255 255 255 255 255 255 255 255 255 255 255 255 255 255 255 88 88 80 255 255 255 255 255 255 255 255 255 88 88 80 136 136 120 88 88 80 255 255 255 255 255 255 255 255 255 255 255 255 255 255 255 88 88 80 136 136 120 136 136 120 136 136 120 24 24 0 24 24 0 88 88 80 255 255 255 255 255 255 88 88 80 88 88 80 88 88 80 136 136 120 255 255 255 255 255 255 88 88 80 88 88 80 88 88 80 24 24 0 255 255 255 255 255 255 255 255 255 255 255 255 255 255 255 255 255 255 255 255 255 255 255 255 255 255 255 255 255 255 255 255 255 255 255 255 255 255 255 255 255 255 255 255 255 255 255 255 255 255 255 255 255 255 255 255 255 255 255 255 
255 255 255 255 255 255 255 255 255 255 255 255 255 255 255 136 136 120 136 136 120 255 255 255 255 255 255 255 255 255 255 255 255 255 255 255 136 136 120 136 136 120 255 255 255 255 255 255 255 255 255 88 88 80 136 136 120 136 136 120 255 255 255 255 255 255 255 255 255 255 255 255 255 255 255 255 255 255 88 88 80 136 136 120 136 136 120 255 255 255 255 255 255 255 255 255 255 255 255 255 255 255 255 255 255 255 255 255 88 88 80 88 88 80 88 88 80 88 88 80 136 136 120 136 136 120 248 248 248 248 248 248 24 24 0 255 255 255 255 255 255 255 255 255 255 255 255 255 255 255 255 255 255 255 255 255 255 255 255 255 255 255 255 255 255 255 255 255 255 255 255 255 255 255 255 255 255 255 255 255 255 255 255 255 255 255 255 255 255 255 255 255 
255 255 255 255 255 255 255 255 255 255 255 255 255 255 255 255 255 255 88 88 80 255 255 255 255 255 255 255 255 255 255 255 255 255 255 255 88 88 80 255 255 255 255 255 255 255 255 255 255 255 255 255 255 255 88 88 80 136 136 120 255 255 255 255 255 255 255 255 255 255 255 255 255 255 255 255 255 255 255 255 255 24 24 0 24 24 0 255 255 255 255 255 255 255 255 255 255 255 255 255 255 255 255 255 255 255 255 255 255 255 255 255 255 255 255 255 255 88 88 80 88 88 80 136 136 120 136 136 120 136 136 120 24 24 0 255 255 255 255 255 255 255 255 255 255 255 255 255 255 255 255 255 255 255 255 255 255 255 255 255 255 255 255 255 255 255 255 255 255 255 255 255 255 255 255 255 255 255 255 255 255 255 255 255 255 255 255 255 255 255 255 255 
255 255 255 255 255 255 255 255 255 255 255 255 255 255 255 255 255 255 88 88 80 88 88 80 255 255 255 255 255 255 255 255 255 136 136 120 136 136 120 255 255 255 255 255 255 255 255 255 255 255 255 255 255 255 255 255 255 88 88 80 255 255 255 255 255 255 255 255 255 255 255 255 255 255 255 255 255 255 255 255 255 255 255 255 255 255 255 255 255 255 255 255 255 255 255 255 255 255 255 255 255 255 255 255 255 255 255 255 255 255 255 255 255 255 255 255 255 255 255 255 255 255 255 88 88 80 24 24 0 24 24 0 255 255 255 255 255 255 255 255 255 255 255 255 255 255 255 255 255 255 255 255 255 255 255 255 255 255 255 255 255 255 255 255 255 255 255 255 255 255 255 255 255 255 255 255 255 255 255 255 255 255 255 255 255 255 255 255 255 255 255 255 
255 255 255 255 255 255 255 255 255 255 255 255 255 255 255 255 255 255 255 255 255 88 88 80 88 88 80 88 88 80 88 88 80 88 88 80 255 255 255 255 255 255 255 255 255 255 255 255 255 255 255 255 255 255 255 255 255 255 255 255 255 255 255 255 255 255 255 255 255 255 255 255 255 255 255 255 255 255 255 255 255 255 255 255 255 255 255 255 255 255 255 255 255 255 255 255 255 255 255 255 255 255 255 255 255 255 255 255 255 255 255 255 255 255 255 255 255 255 255 255 255 255 255 255 255 255 255 255 255 255 255 255 255 255 255 255 255 255 255 255 255 255 255 255 255 255 255 255 255 255 255 255 255 255 255 255 255 255 255 255 255 255 255 255 255 255 255 255 255 255 255 255 255 255 255 255 255 255 255 255 255 255 255 255 255 255 255 255 255 255 255 255 
255 255 255 255 255 255 255 255 255 255 255 255 255 255 255 255 255 255 255 255 255 255 255 255 88 88 80 88 88 80 88 88 80 255 255 255 255 255 255 255 255 255 255 255 255 255 255 255 255 255 255 255 255 255 255 255 255 255 255 255 255 255 255 255 255 255 255 255 255 255 255 255 255 255 255 255 255 255 255 255 255 255 255 255 255 255 255 255 255 255 255 255 255 255 255 255 255 255 255 255 255 255 255 255 255 255 255 255 255 255 255 255 255 255 255 255 255 255 255 255 255 255 255 255 255 255 255 255 255 255 255 255 255 255 255 255 255 255 255 255 255 255 255 255 255 255 255 255 255 255 255 255 255 255 255 255 255 255 255 255 255 255 255 255 255 255 255 255 255 255 255 255 255 255 255 255 255 255 255 255 255 255 255 255 255 255 255 255 255 255 255 255 
255 255 255 255 255 255 255 255 255 255 255 255 255 255 255 255 255 255 255 255 255 255 255 255 255 255 255 255 255 255 255 255 255 255 255 255 255 255 255 255 255 255 255 255 255 255 255 255 255 255 255 255 255 255 255 255 255 255 255 255 255 255 255 255 255 255 255 255 255 255 255 255 255 255 255 255 255 255 255 255 255 255 255 255 255 255 255 255 255 255 255 255 255 255 255 255 255 255 255 255 255 255 255 255 255 255 255 255 255 255 255 255 255 255 255 255 255 255 255 255 255 255 255 255 255 255 255 255 255 255 255 255 255 255 255 255 255 255 255 255 255 255 255 255 255 255 255 255 255 255 255 255 255 255 255 255 255 255 255 255 255 255 255 255 255 255 255 255 255 255 255 255 255 255 255 255 255 255 255 255 255 255 255 255 255 255 255 255 255 255 255 255 
255 255 255 255 255 255 255 255 255 255 255 255 255 255 255 255 255 255 255 255 255 255 255 255 255 255 255 255 255 255 255 255 255 255 255 255 255 255 255 255 255 255 255 255 255 255 255 255 255 255 255 255 255 255 255 255 255 255 255 255 255 255 255 255 255 255 255 255 255 255 255 255 255 255 255 255 255 255 255 255 255 255 255 255 255 255 255 255 255 255 255 255 255 255 255 255 255 255 255 255 255 255 255 255 255 255 255 255 255 255 255 255 255 255 255 255 255 255 255 255 255 255 255 255 255 255 255 255 255 255 255 255 255 255 255 255 255 255 255 255 255 255 255 255 255 255 255 255 255 255 255 255 255 255 255 255 255 255 255 255 255 255 255 255 255 255 255 255 255 255 255 255 255 255 255 255 255 255 255 255 255 255 255 255 255 255 255 255 255 255 255 255 
255 255 255 255 255 255 255 255 255 255 255 255 255 255 255 255 255 255 255 255 255 255 255 255 255 255 255 255 255 255 255 255 255 255 255 255 255 255 255 255 255 255 255 255 255 255 255 255 255 255 255 255 255 255 255 255 255 255 255 255 255 255 255 255 255 255 255 255 255 255 255 255 255 255 255 255 255 255 255 255 255 255 255 255 255 255 255 255 255 255 255 255 255 255 255 255 255 255 255 255 255 255 255 255 255 255 255 255 255 255 255 255 255 255 255 255 255 255 255 255 255 255 255 255 255 255 255 255 255 255 255 255 255 255 255 255 255 255 255 255 255 255 255 255 255 255 255 255 255 255 255 255 255 255 255 255 255 255 255 255 255 255 255 255 255 255 255 255 255 255 255 255 255 255 255 255 255 255 255 255 255 255 255 255 255 255 255 255 255 255 255 255 
255 255 255 255 255 255 255 255 255 255 255 255 255 255 255 255 255 255 255 255 255 255 255 255 255 255 255 255 255 255 255 255 255 255 255 255 255 255 255 255 255 255 255 255 255 255 255 255 255 255 255 255 255 255 255 255 255 255 255 255 255 255 255 255 255 255 255 255 255 255 255 255 255 255 255 255 255 255 255 255 255 255 255 255 255 255 255 255 255 255 255 255 255 255 255 255 255 255 255 255 255 255 255 255 255 255 255 255 255 255 255 255 255 255 255 255 255 255 255 255 255 255 255 255 255 255 255 255 255 255 255 255 255 255 255 255 255 255 255 255 255 255 255 255 255 255 255 255 255 255 255 255 255 255 255 255 255 255 255 255 255 255 255 255 255 255 255 255 255 255 255 255 255 255 255 255 255 255 255 255 255 255 255 255 255 255 255 255 255 255 255 255 
255 255 255 255 255 255 255 255 255 255 255 255 255 255 255 255 255 255 255 255 255 255 255 255 255 255 255 255 255 255 255 255 255 255 255 255 255 255 255 255 255 255 255 255 255 255 255 255 255 255 255 255 255 255 255 255 255 255 255 255 255 255 255 255 255 255 255 255 255 255 255 255 255 255 255 255 255 255 255 255 255 255 255 255 255 255 255 255 255 255 255 255 255 255 255 255 255 255 255 255 255 255 255 255 255 255 255 255 255 255 255 255 255 255 255 255 255 255 255 255 255 255 255 255 255 255 255 255 255 255 255 255 255 255 255 255 255 255 255 255 255 255 255 255 255 255 255 255 255 255 255 255 255 255 255 255 255 255 255 255 255 255 255 255 255 255 255 255 255 255 255 255 255 255 255 255 255 255 255 255 255 255 255 255 255 255 255 255 255 255 255 255 
255 255 255 255 255 255 255 255 255 255 255 255 255 255 255 255 255 255 255 255 255 255 255 255 255 255 255 255 255 255 255 255 255 255 255 255 255 255 255 255 255 255 255 255 255 255 255 255 255 255 255 255 255 255 255 255 255 255 255 255 255 255 255 255 255 255 255 255 255 255 255 255 255 255 255 255 255 255 255 255 255 255 255 255 255 255 255 255 255 255 255 255 255 255 255 255 255 255 255 255 255 255 255 255 255 255 255 255 255 255 255 255 255 255 255 255 255 255 255 255 255 255 255 255 255 255 255 255 255 255 255 255 255 255 255 255 255 255 255 255 255 255 255 255 255 255 255 255 255 255 255 255 255 255 255 255 255 255 255 255 255 255 255 255 255 255 255 255 255 255 255 255 255 255 255 255 255 255 255 255 255 255 255 255 255 255 255 255 255 255 255 255 
255 255 255 255 255 255 255 255 255 255 255 255 255 255 255 255 255 255 255 255 255 255 255 255 255 255 255 255 255 255 255 255 255 255 255 255 255 255 255 255 255 255 255 255 255 255 255 255 255 255 255 255 255 255 255 255 255 255 255 255 255 255 255 255 255 255 255 255 255 255 255 255 255 255 255 255 255 255 255 255 255 255 255 255 255 255 255 255 255 255 255 255 255 255 255 255 255 255 255 255 255 255 255 255 255 255 255 255 255 255 255 255 255 255 255 255 255 255 255 255 255 255 255 255 255 255 255 255 255 255 255 255 255 255 255 255 255 255 255 255 255 255 255 255 255 255 255 255 255 255 255 255 255 255 255 255 255 255 255 255 255 255 255 255 255 255 255 255 255 255 255 255 255 255 255 255 255 255 255 255 255 255 255 255 255 255 255 255 255 255 255 255 
255 255 255 255 255 255 255 255 255 255 255 255 255 255 255 255 255 255 255 255 255 255 255 255 255 255 255 255 255 255 255 255 255 255 255 255 255 255 255 255 255 255 255 255 255 255 255 255 255 255 255 255 255 255 255 255 255 255 255 255 255 255 255 255 255 255 255 255 255 255 255 255 255 255 255 255 255 255 255 255 255 255 255 255 255 255 255 255 255 255 255 255 255 255 255 255 255 255 255 255 255 255 255 255 255 255 255 255 255 255 255 255 255 255 255 255 255 255 255 255 255 255 255 255 255 255 255 255 255 255 255 255 255 255 255 255 255 255 255 255 255 255 255 255 255 255 255 255 255 255 255 255 255 255 255 255 255 255 255 255 255 255 255 255 255 255 255 255 255 255 255 255 255 255 255 255 255 255 255 255 255 255 255 255 255 255 255 255 255 255 255 255 
255 255 255 255 255 255 255 255 255 255 255 255 255 255 255 255 255 255 255 255 255 255 255 255 255 255 255 255 255 255 255 255 255 255 255 255 255 255 255 255 255 255 255 255 255 255 255 255 255 255 255 255 255 255 255 255 255 255 255 255 255 255 255 255 255 255 255 255 255 255 255 255 255 255 255 255 255 255 255 255 255 255 255 255 255 255 255 255 255 255 255 255 255 255 255 255 255 255 255 255 255 255 255 255 255 255 255 255 255 255 255 255 255 255 255 255 255 255 255 255 255 255 255 255 255 255 255 255 255 255 255 255 255 255 255 255 255 255 255 255 255 255 255 255 255 255 255 255 255 255 255 255 255 255 255 255 255 255 255 255 255 255 255 255 255 255 255 255 255 255 255 255 255 255 255 255 255 255 255 255 255 255 255 255 255 255 255 255 255 255 255 255 
