P3
64 64
255
255 255 255 255 255 255 255 255 255 255 255 255 255 255 255 255 255 255 255 255 255 255 255 255 255 255 255 255 255 255 255 255 255 255 255 255 255 255 255 255 255 255 255 255 255 255 255 255 255 255 255 255 255 255 255 255 255 255 255 255 255 255 255 255 255 255 255 255 255 255 255 255 255 255 255 255 255 255 255 255 255 255 255 255 255 255 255 255 255 255 255 255 255 255 255 255 255 255 255 255 255 255 255 255 255 255 255 255 255 255 255 255 255 255 255 255 255 255 255 255 255 255 255 255 255 255 255 255 255 255 255 255 255 255 255 255 255 255 255 255 255 255 255 255 255 255 255 255 255 255 255 255 255 255 255 255 255 255 255 255 255 255 255 255 255 255 255 255 255 255 255 255 255 255 255 255 255 255 255 255 255 255 255 255 255 255 255 255 255 255 255 255 
255 255 255 255 255 255 255 255 255 255 255 255 255 255 255 255 255 255 255 255 255 255 255 255 255 255 255 255 255 255 255 255 255 255 255 255 255 255 255 255 255 255 255 255 255 255 255 255 255 255 255 255 255 255 255 255 255 255 255 255 255 255 255 255 255 255 255 255 255 255 255 255 255 255 255 255 255 255 255 255 255 255 255 255 255 255 255 255 255 255 255 255 255 72 40 64 255 255 255 255 255 255 255 255 255 255 255 255 255 255 255 255 255 255 255 255 255 255 255 255 255 255 255 255 255 255 255 255 255 255 255 255 255 255 255 255 255 255 255 255 255 255 255 255 255 255 255 255 255 255 255 255 255 255 255 255 255 255 255 255 255 255 255 255 255 255 255 255 255 255 255 255 255 255 255 255 255 255 255 255 255 255 255 255 255 255 255 255 255 255 255 255 
255 255 255 255 255 255 255 255 255 255 255 255 255 255 255 255 255 255 255 255 255 255 255 255 255 255 255 255 255 255 255 255 255 255 255 255 255 255 255 255 255 255 255 255 255 255 255 255 255 255 255 255 255 255 255 255 255 255 255 255 255 255 255 255 255 255 255 255 255 255 255 255 255 255 255 255 255 255 255 255 255 255 255 255 255 255 255 144 112 120 144 112 120 248 120 80 72 40 64 255 255 255 255 255 255 255 255 255 255 255 255 255 255 255 255 255 255 255 255 255 255 255 255 255 255 255 255 255 255 255 255 255 255 255 255 255 255 255 255 255 255 255 255 255 255 255 255 255 255 255 255 255 255 255 255 255 255 255 255 255 255 255 255 255 255 255 255 255 255 255 255 255 255 255 255 255 255 255 255 255 255 255 255 255 255 255 255 255 255 255 255 255 
255 255 255 255 255 255 255 255 255 255 255 255 255 255 255 255 255 255 255 255 255 255 255 255 255 255 255 255 255 255 255 255 255 255 255 255 255 255 255 255 255 255 255 255 255 255 255 255 255 255 255 255 255 255 255 255 255 255 255 255 255 255 255 255 255 255 255 255 255 255 255 255 255 255 255 255 255 255 255 255 255 232 208 168 200 176 152 232 208 168 200 176 152 248 120 80 72 40 64 72 40 64 0 0 0 255 255 255 255 255 255 255 255 255 255 255 255 255 255 255 255 255 255 255 255 255 255 255 255 255 255 255 255 255 255 255 255 255 255 255 255 255 255 255 255 255 255 255 255 255 255 255 255 255 255 255 255 255 255 255 255 255 255 255 255 255 255 255 255 255 255 255 255 255 255 255 255 255 255 255 255 255 255 255 255 255 255 255 255 255 255 255 
255 255 255 255 255 255 255 255 255 255 255 255 255 255 255 255 255 255 255 255 255 255 255 255 255 255 255 255 255 255 255 255 255 255 255 255 255 255 255 255 255 255 255 255 255 255 255 255 255 255 255 216 96 48 72 40 64 255 255 255 255 255 255 255 255 255 255 255 255 255 255 255 255 255 255 144 112 120 200 176 152 248 224 152 232 208 168 232 208 168 248 120 80 176 64 48 232 208 168 232 208 168 232 208 168 72 40 64 0 0 0 255 255 255 255 255 255 255 255 255 255 255 255 255 255 255 255 255 255 255 255 255 255 255 255 255 255 255 255 255 255 255 255 255 255 255 255 255 255 255 255 255 255 255 255 255 255 255 255 255 255 255 255 255 255 255 255 255 255 255 255 255 255 255 255 255 255 255 255 255 255 255 255 255 255 255 255 255 255 255 255 255 
255 255 255 255 255 255 255 255 255 255 255 255 255 255 255 255 255 255 255 255 255 255 255 255 255 255 255 255 255 255 255 255 255 255 255 255 255 255 255 255 255 255 255 255 255 255 255 255 255 255 255 255 255 255 248 120 80 72 40 64 255 255 255 255 255 255 255 255 255 255 255 255 144 112 120 232 208 168 248 224 152 248 224 152 232 208 168 200 176 152 248 120 80 72 40 64 232 208 168 232 208 168 232 208 168 232 208 168 248 224 152 72 40 64 0 0 0 255 255 255 255 255 255 255 255 255 255 255 255 255 255 255 255 255 255 255 255 255 255 255 255 255 255 255 255 255 255 255 255 255 255 255 255 255 255 255 255 255 255 255 255 255 255 255 255 255 255 255 255 255 255 255 255 255 255 255 255 255 255 255 255 255 255 255 255 255 255 255 255 255 255 255 
255 255 255 255 255 255 255 255 255 255 255 255 255 255 255 255 255 255 255 255 255 255 255 255 255 255 255 255 255 255 255 255 255 255 255 255 255 255 255 255 255 255 255 255 255 255 255 255 255 255 255 255 255 255 72 40 64 248 120 80 72 40 64 255 255 255 255 255 255 144 112 120 232 208 168 248 224 152 248 224 152 248 224 152 232 208 168 248 120 80 248 120 80 72 40 64 232 208 168 232 208 168 232 208 168 232 208 168 232 208 168 248 224 152 248 224 152 72 40 64 0 0 0 255 255 255 255 255 255 255 255 255 255 255 255 255 255 255 255 255 255 255 255 255 255 255 255 255 255 255 255 255 255 255 255 255 255 255 255 255 255 255 255 255 255 255 255 255 255 255 255 255 255 255 255 255 255 255 255 255 255 255 255 255 255 255 255 255 255 255 255 255 
255 255 255 255 255 255 255 255 255 255 255 255 255 255 255 255 255 255 255 255 255 255 255 255 255 255 255 255 255 255 255 255 255 255 255 255 255 255 255 255 255 255 255 255 255 255 255 255 255 255 255 255 255 255 255 255 255 72 40 64 248 120 80 72 40 64 255 255 255 200 176 152 248 224 152 248 224 152 248 224 152 232 208 168 200 176 152 248 120 80 176 64 48 232 208 168 232 208 168 72 40 64 72 40 64 232 208 168 232 208 168 232 208 168 248 224 152 248 224 152 248 224 152 72 40 64 0 0 0 255 255 255 255 255 255 255 255 255 255 255 255 255 255 255 255 255 255 255 255 255 255 255 255 255 255 255 255 255 255 255 255 255 255 255 255 255 255 255 255 255 255 255 255 255 255 255 255 255 255 255 255 255 255 255 255 255 255 255 255 255 255 255 
255 255 255 255 255 255 255 255 255 255 255 255 255 255 255 255 255 255 255 255 255 255 255 255 255 255 255 255 255 255 255 255 255 255 255 255 255 255 255 255 255 255 255 255 255 255 255 255 255 255 255 255 255 255 255 255 255 255 255 255 72 40 64 248 120 80 72 40 64 232 208 168 232 208 168 248 224 152 248 224 152 232 208 168 248 120 80 248 120 80 72 40 64 200 176 152 72 40 64 176 64 48 176 64 48 232 208 168 232 208 168 232 208 168 232 208 168 232 208 168 248 224 152 248 224 152 248 224 152 72 40 64 0 0 0 255 255 255 255 255 255 255 255 255 255 255 255 255 255 255 255 255 255 255 255 255 255 255 255 255 255 255 255 255 255 255 255 255 255 255 255 255 255 255 255 255 255 255 255 255 255 255 255 255 255 255 255 255 255 255 255 255 
255 255 255 255 255 255 255 255 255 255 255 255 255 255 255 255 255 255 255 255 255 255 255 255 255 255 255 255 255 255 255 255 255 255 255 255 255 255 255 255 255 255 255 255 255 255 255 255 255 255 255 255 255 255 255 255 255 255 255 255 255 255 255 216 96 48 216 96 48 72 40 64 232 208 168 232 208 168 232 208 168 168 144 144 248 120 80 176 64 48 72 40 64 0 0 0 176 64 48 176 64 48 200 176 152 232 208 168 232 208 168 232 208 168 232 208 168 232 208 168 232 208 168 232 208 168 248 224 152 248 224 152 248 224 152 72 40 64 0 0 0 255 255 255 255 255 255 255 255 255 255 255 255 255 255 255 255 255 255 255 255 255 255 255 255 255 255 255 255 255 255 255 255 255 255 255 255 255 255 255 255 255 255 255 255 255 255 255 255 255 255 255 
255 255 255 255 255 255 255 255 255 255 255 255 255 255 255 255 255 255 255 255 255 255 255 255 255 255 255 255 255 255 255 255 255 255 255 255 255 255 255 255 255 255 255 255 255 255 255 255 255 255 255 255 255 255 255 255 255 255 255 255 255 255 255 72 40 64 216 96 48 216 96 48 72 40 64 200 176 152 200 176 152 248 120 80 216 96 48 72 40 64 0 0 0 248 208 104 176 64 48 216 96 48 176 64 48 176 64 48 200 176 152 232 208 168 232 208 168 232 208 168 232 208 168 232 208 168 232 208 168 232 208 168 248 224 152 248 224 152 248 224 152 72 40 64 0 0 0 255 255 255 255 255 255 255 255 255 255 255 255 255 255 255 255 255 255 255 255 255 255 255 255 255 255 255 255 255 255 255 255 255 255 255 255 255 255 255 255 255 255 255 255 255 
255 255 255 255 255 255 255 255 255 255 255 255 255 255 255 255 255 255 255 255 255 255 255 255 255 255 255 255 255 255 255 255 255 255 255 255 255 255 255 255 255 255 255 255 255 255 255 255 255 255 255 255 255 255 255 255 255 255 255 255 255 255 255 255 255 255 72 40 64 216 96 48 248 120 80 72 40 64 144 112 120 248 120 80 72 40 64 0 0 0 0 0 0 248 208 104 176 64 48 216 96 48 216 96 48 200 176 152 232 208 168 168 144 144 232 208 168 232 208 168 232 208 168 232 208 168 232 208 168 232 208 168 232 208 168 232 208 168 248 224 152 248 224 152 248 224 152 72 40 64 0 0 0 255 255 255 255 255 255 255 255 255 255 255 255 255 255 255 255 255 255 255 255 255 255 255 255 255 255 255 255 255 255 255 255 255 255 255 255 255 255 255 
255 255 255 255 255 255 255 255 255 255 255 255 255 255 255 255 255 255 255 255 255 255 255 255 255 255 255 255 255 255 255 255 255 255 255 255 255 255 255 255 255 255 255 255 255 255 255 255 255 255 255 255 255 255 255 255 255 255 255 255 255 255 255 255 255 255 255 255 255 176 64 48 248 120 80 176 64 48 248 120 80 216 96 48 0 0 0 248 208 104 248 208 104 224 168 88 216 96 48 216 96 48 200 176 152 232 208 168 232 208 168 232 208 168 168 144 144 200 176 152 232 208 168 232 208 168 232 208 168 232 208 168 232 208 168 232 208 168 232 208 168 232 208 168 232 208 168 232 208 168 232 208 168 72 40 64 0 0 0 255 255 255 255 255 255 255 255 255 255 255 255 255 255 255 255 255 255 255 255 255 255 255 255 255 255 255 255 255 255 255 255 255 
255 255 255 255 255 255 255 255 255 255 255 255 255 255 255 255 255 255 255 255 255 255 255 255 255 255 255 255 255 255 255 255 255 255 255 255 255 255 255 255 255 255 255 255 255 255 255 255 255 255 255 255 255 255 255 255 255 255 255 255 255 255 255 255 255 255 255 255 255 72 40 64 248 120 80 248 120 80 248 120 80 216 96 48 176 64 48 176 64 48 176 64 48 216 96 48 248 120 80 248 120 80 176 64 48 200 176 152 232 208 168 232 208 168 232 208 168 168 144 144 168 144 144 232 208 168 232 208 168 232 208 168 232 208 168 232 208 168 232 208 168 232 208 168 232 208 168 232 208 168 232 208 168 232 208 168 232 208 168 72 40 64 0 0 0 255 255 255 255 255 255 255 255 255 255 255 255 255 255 255 255 255 255 255 255 255 255 255 255 255 255 255 
255 255 255 255 255 255 255 255 255 255 255 255 255 255 255 255 255 255 255 255 255 255 255 255 255 255 255 255 255 255 255 255 255 255 255 255 255 255 255 255 255 255 255 255 255 255 255 255 255 255 255 255 255 255 255 255 255 255 255 255 255 255 255 255 255 255 255 255 255 255 255 255 176 64 48 248 208 104 248 120 80 176 64 48 176 64 48 216 96 48 216 96 48 216 96 48 216 96 48 176 64 48 176 64 48 200 176 152 232 208 168 232 208 168 232 208 168 72 40 64 72 40 64 200 176 152 232 208 168 232 208 168 232 208 168 232 208 168 232 208 168 232 208 168 232 208 168 232 208 168 232 208 168 232 208 168 232 208 168 232 208 168 248 224 152 0 0 0 255 255 255 255 255 255 255 255 255 255 255 255 255 255 255 255 255 255 255 255 255 255 255 255 
255 255 255 255 255 255 255 255 255 255 255 255 255 255 255 255 255 255 255 255 255 255 255 255 255 255 255 255 255 255 255 255 255 255 255 255 255 255 255 255 255 255 255 255 255 255 255 255 255 255 255 255 255 255 255 255 255 255 255 255 255 255 255 255 255 255 255 255 255 255 255 255 72 40 64 248 120 80 248 120 80 176 64 48 176 64 48 72 40 64 72 40 64 216 96 48 72 40 64 200 176 152 200 176 152 200 176 152 232 208 168 232 208 168 72 40 64 216 96 48 216 96 48 72 40 64 72 40 64 232 208 168 232 208 168 232 208 168 232 208 168 232 208 168 232 208 168 232 208 168 232 208 168 232 208 168 232 208 168 232 208 168 232 208 168 232 208 168 72 40 64 0 0 0 255 255 255 255 255 255 255 255 255 255 255 255 255 255 255 255 255 255 
255 255 255 255 255 255 255 255 255 255 255 255 255 255 255 255 255 255 255 255 255 255 255 255 255 255 255 255 255 255 255 255 255 255 255 255 255 255 255 255 255 255 255 255 255 255 255 255 255 255 255 255 255 255 255 255 255 255 255 255 255 255 255 255 255 255 255 255 255 255 255 255 255 255 255 0 0 0 216 96 48 0 0 0 0 0 0 176 64 48 176 64 48 72 40 64 200 176 152 200 176 152 200 176 152 200 176 152 232 208 168 176 64 48 216 96 48 248 120 80 248 120 80 248 120 80 216 96 48 72 40 64 200 176 176 232 208 168 232 208 168 232 208 168 232 208 168 232 208 168 232 208 168 232 208 168 232 208 168 232 208 168 232 208 168 232 208 168 232 208 168 232 208 168 72 40 64 0 0 0 255 255 255 255 255 255 255 255 255 255 255 255 
255 255 255 255 255 255 255 255 255 255 255 255 255 255 255 255 255 255 255 255 255 255 255 255 255 255 255 255 255 255 255 255 255 255 255 255 255 255 255 255 255 255 255 255 255 255 255 255 255 255 255 255 255 255 255 255 255 255 255 255 255 255 255 255 255 255 255 255 255 255 255 255 255 255 255 255 255 255 0 0 0 168 144 144 168 144 144 72 40 64 144 112 120 144 112 120 200 176 152 200 176 152 200 176 152 232 208 168 176 64 48 176 64 48 216 96 48 248 120 80 248 120 80 216 96 48 216 96 48 216 96 48 72 40 64 72 40 64 144 112 120 232 208 168 232 208 168 232 208 168 232 208 168 232 208 168 232 208 168 168 144 144 168 144 144 232 208 168 232 208 168 232 208 168 232 208 168 232 208 168 0 0 0 255 255 255 255 255 255 255 255 255 
255 255 255 255 255 255 255 255 255 255 255 255 255 255 255 255 255 255 255 255 255 255 255 255 255 255 255 255 255 255 255 255 255 255 255 255 255 255 255 255 255 255 255 255 255 255 255 255 255 255 255 255 255 255 255 255 255 255 255 255 255 255 255 255 255 255 255 255 255 255 255 255 255 255 255 72 40 64 176 64 48 176 64 48 200 176 152 232 208 168 144 112 120 232 208 168 232 208 168 232 208 168 232 208 168 232 208 168 232 208 168 176 64 48 216 96 48 216 96 48 216 96 48 216 96 48 216 96 48 216 96 48 216 96 48 216 96 48 72 40 64 72 40 64 232 208 168 232 208 168 232 208 168 232 208 168 232 208 168 232 208 168 232 208 168 144 112 120 168 144 144 232 208 168 232 208 168 232 208 168 232 208 168 0 0 0 255 255 255 255 255 255 
255 255 255 255 255 255 255 255 255 255 255 255 255 255 255 255 255 255 255 255 255 255 255 255 255 255 255 255 255 255 255 255 255 255 255 255 255 255 255 255 255 255 255 255 255 255 255 255 255 255 255 255 255 255 255 255 255 255 255 255 255 255 255 255 255 255 255 255 255 72 40 64 72 40 64 176 64 48 176 64 48 176 64 48 144 112 120 232 208 168 200 176 152 232 208 168 232 208 168 232 208 168 232 208 168 232 208 168 232 208 168 200 176 152 176 64 48 176 64 48 216 96 48 216 96 48 216 96 48 216 96 48 216 96 48 216 96 48 216 96 48 216 96 48 72 40 64 72 40 64 232 208 168 232 208 168 232 208 168 232 208 168 232 208 168 232 208 168 232 208 168 144 112 120 168 144 144 232 208 168 232 208 168 144 112 120 0 0 0 255 255 255 
255 255 255 255 255 255 255 255 255 255 255 255 255 255 255 255 255 255 255 255 255 255 255 255 255 255 255 255 255 255 255 255 255 255 255 255 255 255 255 255 255 255 255 255 255 255 255 255 255 255 255 255 255 255 255 255 255 255 255 255 255 255 255 255 255 255 72 40 64 176 64 48 176 64 48 176 64 48 176 64 48 176 64 48 176 64 48 232 208 168 232 208 168 232 208 168 232 208 168 232 208 168 232 208 168 232 208 168 232 208 168 232 208 168 200 176 152 0 0 0 0 0 0 200 176 152 0 0 0 72 40 64 216 96 48 216 96 48 216 96 48 248 120 80 248 120 80 216 96 48 72 40 64 144 112 120 232 208 168 232 208 168 232 208 168 232 208 168 232 208 168 232 208 168 232 208 168 144 112 120 168 144 144 232 208 168 0 0 0 255 255 255 
255 255 255 255 255 255 255 255 255 255 255 255 255 255 255 255 255 255 255 255 255 255 255 255 255 255 255 255 255 255 255 255 255 255 255 255 255 255 255 255 255 255 255 255 255 255 255 255 255 255 255 255 255 255 255 255 255 255 255 255 72 40 64 72 40 64 176 64 48 176 64 48 176 64 48 176 64 48 176 64 48 72 40 64 72 40 64 248 224 152 232 208 168 200 176 176 144 112 120 200 176 176 232 208 168 232 208 168 232 208 168 232 208 168 232 208 168 200 176 176 200 176 152 200 176 152 200 176 152 144 112 120 0 0 0 216 96 48 248 120 80 248 120 80 144 112 120 232 208 168 232 208 168 72 40 64 144 112 120 144 112 120 168 144 144 232 208 168 232 208 168 232 208 168 232 208 168 232 208 168 232 208 168 144 112 120 0 0 0 255 255 255 
255 255 255 255 255 255 255 255 255 255 255 255 255 255 255 255 255 255 255 255 255 255 255 255 255 255 255 255 255 255 255 255 255 255 255 255 255 255 255 255 255 255 255 255 255 255 255 255 255 255 255 255 255 255 0 0 0 216 96 48 216 96 48 216 96 48 176 64 48 176 64 48 176 64 48 0 0 0 0 0 0 255 255 255 72 40 64 248 224 152 248 224 152 232 208 168 232 208 168 72 40 64 144 112 120 232 208 168 232 208 168 232 208 168 232 208 168 232 208 168 200 176 152 200 176 152 200 176 152 200 176 152 0 0 0 0 0 0 248 120 80 144 112 120 232 208 168 232 208 168 168 144 144 232 208 168 72 40 64 200 176 152 200 176 152 144 112 120 144 112 120 168 144 144 232 208 168 232 208 168 232 208 168 0 0 0 255 255 255 255 255 255 
255 255 255 255 255 255 255 255 255 255 255 255 255 255 255 255 255 255 255 255 255 255 255 255 255 255 255 255 255 255 255 255 255 255 255 255 255 255 255 255 255 255 255 255 255 255 255 255 144 112 120 144 112 120 248 120 80 248 120 80 248 120 80 216 96 48 216 96 48 0 0 0 0 0 0 255 255 255 255 255 255 144 112 120 248 224 152 248 224 152 248 224 152 232 208 168 144 112 120 224 168 88 224 168 88 72 40 64 200 176 152 232 208 168 200 176 152 200 176 152 200 176 152 200 176 152 144 112 120 0 0 0 144 112 120 144 112 120 0 0 0 144 112 120 200 176 176 168 144 144 232 208 168 168 144 144 168 144 144 72 40 64 200 176 152 200 176 152 200 176 152 200 176 152 144 112 120 144 112 120 0 0 0 255 255 255 255 255 255 255 255 255 
255 255 255 255 255 255 255 255 255 255 255 255 255 255 255 255 255 255 255 255 255 255 255 255 255 255 255 255 255 255 255 255 255 255 255 255 255 255 255 255 255 255 144 112 120 200 176 152 232 208 168 232 208 168 144 112 120 176 64 48 248 120 80 0 0 0 0 0 0 255 255 255 255 255 255 255 255 255 144 112 120 232 208 168 232 208 168 232 208 168 232 208 168 232 208 168 144 112 120 224 168 88 224 168 88 224 168 88 176 64 48 72 40 64 200 176 152 200 176 152 200 176 152 200 176 152 0 0 0 255 255 255 0 0 0 0 0 0 144 112 120 144 112 120 72 40 64 168 144 144 200 176 176 200 176 176 72 40 64 72 40 64 72 40 64 200 176 152 200 176 152 200 176 152 0 0 0 0 0 0 255 255 255 255 255 255 255 255 255 255 255 255 
255 255 255 255 255 255 255 255 255 255 255 255 255 255 255 255 255 255 255 255 255 255 255 255 0 0 0 0 0 0 255 255 255 255 255 255 144 112 120 200 176 152 232 208 168 232 208 168 144 112 120 200 176 176 200 176 176 144 112 120 0 0 0 255 255 255 255 255 255 255 255 255 255 255 255 255 255 255 255 255 255 144 112 120 248 224 152 232 208 168 200 176 176 144 112 120 224 168 88 224 168 88 224 168 88 224 168 88 224 168 88 176 64 48 72 40 64 200 176 152 144 112 120 200 176 152 0 0 0 255 255 255 255 255 255 255 255 255 0 0 0 0 0 0 0 0 0 72 40 64 200 176 176 144 112 120 200 176 176 232 208 168 200 176 176 0 0 0 0 0 0 0 0 0 255 255 255 255 255 255 255 255 255 255 255 255 255 255 255 255 255 255 
255 255 255 255 255 255 255 255 255 255 255 255 255 255 255 255 255 255 255 255 255 144 112 120 232 208 168 200 176 176 0 0 0 144 120 88 232 208 168 232 208 168 144 112 120 200 176 176 200 176 176 144 112 120 200 176 176 0 0 0 255 255 255 255 255 255 255 255 255 255 255 255 255 255 255 255 255 255 255 255 255 144 112 120 248 224 152 144 112 120 200 176 176 144 112 120 176 64 48 224 168 88 224 168 88 224 168 88 176 64 48 176 64 48 176 64 48 0 0 0 255 255 255 0 0 0 255 255 255 255 255 255 255 255 255 255 255 255 255 255 255 255 255 255 255 255 255 255 255 255 144 112 120 72 40 64 200 176 176 232 208 168 200 176 176 0 0 0 255 255 255 255 255 255 0 0 0 144 112 120 144 112 120 255 255 255 255 255 255 255 255 255 
255 255 255 255 255 255 255 255 255 255 255 255 255 255 255 255 255 255 144 112 120 248 224 152 200 176 176 200 176 176 168 144 144 72 40 64 72 40 64 144 112 120 200 176 176 144 112 120 200 176 176 0 0 0 144 112 120 255 255 255 255 255 255 255 255 255 255 255 255 255 255 255 255 255 255 255 255 255 255 255 255 255 255 255 144 112 120 255 255 255 144 112 120 0 0 0 176 64 48 176 64 48 224 168 88 176 64 48 176 64 48 176 64 48 176 64 48 0 0 0 72 40 64 72 40 64 255 255 255 255 255 255 255 255 255 255 255 255 255 255 255 255 255 255 255 255 255 255 255 255 72 40 64 72 40 64 168 144 144 144 112 120 168 144 144 0 0 0 0 0 0 0 0 0 72 40 64 200 176 176 200 176 176 0 0 0 255 255 255 255 255 255 
255 255 255 255 255 255 255 255 255 255 255 255 255 255 255 255 255 255 144 112 120 248 224 152 72 40 64 168 144 144 168 144 144 144 112 120 168 144 144 144 112 120 144 120 88 144 120 88 0 0 0 255 255 255 255 255 255 255 255 255 255 255 255 255 255 255 255 255 255 255 255 255 255 255 255 255 255 255 255 255 255 255 255 255 255 255 255 255 255 255 255 255 255 0 0 0 216 96 48 176 64 48 176 64 48 176 64 48 176 64 48 176 64 48 216 96 48 176 64 48 0 0 0 176 64 48 0 0 0 0 0 0 0 0 0 255 255 255 255 255 255 255 255 255 255 255 255 255 255 255 255 255 255 72 40 64 144 112 120 248 224 152 144 112 120 0 0 0 168 144 144 72 40 64 168 144 144 144 112 120 144 112 120 0 0 0 255 255 255 255 255 255 
255 255 255 255 255 255 255 255 255 255 255 255 255 255 255 255 255 255 255 255 255 72 40 64 72 40 64 144 120 88 144 112 120 168 144 144 144 112 120 200 176 176 200 176 176 200 176 176 0 0 0 255 255 255 255 255 255 255 255 255 255 255 255 255 255 255 255 255 255 255 255 255 255 255 255 255 255 255 255 255 255 255 255 255 255 255 255 255 255 255 255 255 255 0 0 0 248 120 80 216 96 48 216 96 48 176 64 48 176 64 48 216 96 48 176 64 48 216 96 48 72 40 64 176 64 48 176 64 48 176 64 48 176 64 48 0 0 0 0 0 0 0 0 0 0 0 0 255 255 255 255 255 255 0 0 0 0 0 0 248 224 152 0 0 0 144 112 120 144 112 120 144 112 120 72 40 64 248 224 152 144 112 120 0 0 0 255 255 255 255 255 255 
255 255 255 255 255 255 255 255 255 255 255 255 255 255 255 255 255 255 72 40 64 168 144 144 168 144 144 168 144 144 168 144 144 168 144 144 144 112 120 168 144 144 200 176 176 200 176 176 72 40 64 255 255 255 255 255 255 255 255 255 255 255 255 255 255 255 255 255 255 255 255 255 255 255 255 255 255 255 255 255 255 255 255 255 255 255 255 255 255 255 0 0 0 176 64 48 248 120 80 248 120 80 248 120 80 216 96 48 216 96 48 216 96 48 216 96 48 216 96 48 216 96 48 72 40 64 72 40 64 176 64 48 176 64 48 176 64 48 176 64 48 176 64 48 176 64 48 0 0 0 72 40 64 144 112 120 0 0 0 248 224 152 0 0 0 144 112 120 144 112 120 72 40 64 248 224 152 248 224 152 0 0 0 255 255 255 255 255 255 255 255 255 
255 255 255 255 255 255 255 255 255 255 255 255 255 255 255 72 40 64 168 144 144 168 144 144 168 144 144 0 0 0 0 0 0 72 40 64 0 0 0 0 0 0 168 144 144 168 144 144 168 144 144 0 0 0 255 255 255 255 255 255 255 255 255 255 255 255 255 255 255 255 255 255 255 255 255 255 255 255 255 255 255 255 255 255 255 255 255 255 255 255 72 40 64 248 120 80 248 120 80 248 120 80 248 120 80 248 120 80 248 120 80 248 120 80 248 120 80 248 120 80 248 120 80 248 120 80 216 96 48 72 40 64 176 64 48 176 64 48 176 64 48 0 0 0 0 0 0 72 40 64 200 176 176 200 176 176 144 112 120 0 0 0 144 112 120 72 40 64 144 112 120 144 112 120 72 40 64 0 0 0 255 255 255 255 255 255 255 255 255 255 255 255 
255 255 255 255 255 255 255 255 255 255 255 255 72 40 64 200 176 176 200 176 176 144 120 88 0 0 0 255 255 255 255 255 255 255 255 255 255 255 255 255 255 255 144 120 88 144 120 88 168 144 144 0 0 0 255 255 255 255 255 255 255 255 255 255 255 255 255 255 255 255 255 255 255 255 255 255 255 255 255 255 255 255 255 255 255 255 255 72 40 64 248 120 80 248 120 80 248 120 80 248 120 80 248 120 80 248 120 80 248 120 80 248 120 80 248 120 80 248 120 80 248 120 80 248 120 80 248 120 80 216 96 48 72 40 64 0 0 0 0 0 0 255 255 255 255 255 255 72 40 64 168 144 144 144 112 120 144 112 120 72 40 64 0 0 0 0 0 0 0 0 0 144 112 120 144 112 120 0 0 0 255 255 255 255 255 255 255 255 255 255 255 255 
255 255 255 255 255 255 255 255 255 255 255 255 72 40 64 200 176 176 200 176 176 0 0 0 255 255 255 255 255 255 255 255 255 255 255 255 255 255 255 0 0 0 248 224 152 248 224 152 0 0 0 255 255 255 255 255 255 255 255 255 255 255 255 255 255 255 255 255 255 255 255 255 255 255 255 255 255 255 255 255 255 255 255 255 72 40 64 216 96 48 248 120 80 248 120 80 176 64 48 216 96 48 248 120 80 248 120 80 248 120 80 248 120 80 248 120 80 248 120 80 248 120 80 248 120 80 248 120 80 216 96 48 0 0 0 255 255 255 255 255 255 255 255 255 255 255 255 255 255 255 72 40 64 248 224 152 248 224 152 0 0 0 255 255 255 255 255 255 255 255 255 0 0 0 0 0 0 255 255 255 255 255 255 255 255 255 255 255 255 255 255 255 
255 255 255 255 255 255 255 255 255 255 255 255 255 255 255 144 112 120 248 224 152 248 224 152 0 0 0 255 255 255 255 255 255 255 255 255 255 255 255 255 255 255 0 0 0 0 0 0 255 255 255 255 255 255 255 255 255 255 255 255 255 255 255 255 255 255 255 255 255 255 255 255 255 255 255 255 255 255 255 255 255 72 40 64 248 120 80 248 120 80 176 64 48 72 40 64 248 120 80 248 120 80 216 96 48 248 120 80 248 120 80 248 120 80 248 120 80 248 120 80 248 120 80 248 120 80 248 120 80 248 120 80 216 96 48 0 0 0 255 255 255 255 255 255 255 255 255 255 255 255 255 255 255 0 0 0 0 0 0 255 255 255 255 255 255 255 255 255 255 255 255 255 255 255 255 255 255 255 255 255 255 255 255 255 255 255 255 255 255 255 255 255 
255 255 255 255 255 255 255 255 255 255 255 255 255 255 255 255 255 255 144 112 120 144 112 120 255 255 255 255 255 255 255 255 255 255 255 255 255 255 255 255 255 255 255 255 255 255 255 255 255 255 255 255 255 255 255 255 255 255 255 255 255 255 255 255 255 255 255 255 255 255 255 255 255 255 255 72 40 64 176 64 48 248 120 80 248 120 80 248 120 80 248 120 80 248 120 80 72 40 64 176 64 48 216 96 48 216 96 48 216 96 48 216 96 48 248 120 80 248 120 80 248 120 80 248 120 80 248 120 80 248 120 80 248 120 80 216 96 48 0 0 0 255 255 255 255 255 255 255 255 255 255 255 255 255 255 255 255 255 255 255 255 255 255 255 255 255 255 255 255 255 255 255 255 255 255 255 255 255 255 255 255 255 255 255 255 255 255 255 255 255 255 255 
255 255 255 255 255 255 255 255 255 255 255 255 255 255 255 255 255 255 255 255 255 255 255 255 255 255 255 255 255 255 255 255 255 255 255 255 255 255 255 255 255 255 255 255 255 255 255 255 255 255 255 255 255 255 255 255 255 255 255 255 255 255 255 255 255 255 255 255 255 255 255 255 72 40 64 248 120 80 248 120 80 248 120 80 248 120 80 248 120 80 248 120 80 248 120 80 216 96 48 72 40 64 216 96 48 72 40 64 216 96 48 176 64 48 248 120 80 248 120 80 248 120 80 248 120 80 248 120 80 248 120 80 248 120 80 248 120 80 0 0 0 255 255 255 255 255 255 255 255 255 255 255 255 255 255 255 255 255 255 255 255 255 255 255 255 255 255 255 255 255 255 255 255 255 255 255 255 255 255 255 255 255 255 255 255 255 255 255 255 255 255 255 
255 255 255 255 255 255 255 255 255 255 255 255 255 255 255 255 255 255 255 255 255 255 255 255 255 255 255 255 255 255 255 255 255 255 255 255 255 255 255 255 255 255 255 255 255 255 255 255 255 255 255 255 255 255 255 255 255 255 255 255 255 255 255 255 255 255 255 255 255 176 64 48 248 120 80 248 120 80 248 120 80 248 120 80 248 120 80 248 120 80 248 120 80 216 96 48 216 96 48 72 40 64 72 40 64 72 40 64 216 96 48 176 64 48 216 96 48 248 120 80 248 120 80 248 120 80 248 120 80 248 120 80 248 120 80 248 120 80 216 96 48 0 0 0 255 255 255 255 255 255 255 255 255 255 255 255 255 255 255 255 255 255 255 255 255 255 255 255 255 255 255 255 255 255 255 255 255 255 255 255 255 255 255 255 255 255 255 255 255 255 255 255 
255 255 255 255 255 255 255 255 255 255 255 255 255 255 255 255 255 255 255 255 255 255 255 255 255 255 255 255 255 255 255 255 255 255 255 255 255 255 255 255 255 255 255 255 255 255 255 255 255 255 255 255 255 255 255 255 255 255 255 255 255 255 255 255 255 255 176 64 48 248 120 80 248 120 80 248 120 80 248 120 80 248 120 80 248 120 80 248 120 80 216 96 48 216 96 48 216 96 48 0 0 0 255 255 255 0 0 0 216 96 48 0 0 0 176 64 48 248 120 80 248 120 80 248 120 80 248 120 80 248 120 80 248 120 80 248 120 80 216 96 48 0 0 0 255 255 255 255 255 255 255 255 255 255 255 255 255 255 255 255 255 255 255 255 255 255 255 255 255 255 255 255 255 255 255 255 255 255 255 255 255 255 255 255 255 255 255 255 255 255 255 255 
255 255 255 255 255 255 255 255 255 255 255 255 255 255 255 255 255 255 255 255 255 255 255 255 255 255 255 255 255 255 255 255 255 255 255 255 255 255 255 255 255 255 255 255 255 255 255 255 255 255 255 255 255 255 255 255 255 255 255 255 255 255 255 72 40 64 248 120 80 248 120 80 248 120 80 248 120 80 248 120 80 248 120 80 248 120 80 216 96 48 216 96 48 216 96 48 0 0 0 255 255 255 255 255 255 255 255 255 0 0 0 255 255 255 176 64 48 248 120 80 248 120 80 248 120 80 248 120 80 248 120 80 248 120 80 248 120 80 248 120 80 216 96 48 0 0 0 255 255 255 255 255 255 255 255 255 255 255 255 255 255 255 255 255 255 255 255 255 255 255 255 255 255 255 255 255 255 255 255 255 255 255 255 255 255 255 255 255 255 255 255 255 
255 255 255 255 255 255 255 255 255 255 255 255 255 255 255 255 255 255 255 255 255 255 255 255 255 255 255 255 255 255 255 255 255 255 255 255 255 255 255 255 255 255 255 255 255 255 255 255 255 255 255 255 255 255 255 255 255 255 255 255 72 40 64 248 120 80 248 120 80 248 120 80 248 120 80 248 120 80 248 120 80 248 120 80 216 96 48 216 96 48 216 96 48 72 40 64 255 255 255 255 255 255 255 255 255 255 255 255 255 255 255 255 255 255 255 255 255 176 64 48 248 120 80 248 120 80 248 120 80 248 120 80 248 120 80 248 120 80 248 120 80 216 96 48 216 96 48 0 0 0 255 255 255 255 255 255 255 255 255 255 255 255 255 255 255 255 255 255 255 255 255 255 255 255 255 255 255 255 255 255 255 255 255 255 255 255 255 255 255 255 255 255 
255 255 255 255 255 255 255 255 255 255 255 255 255 255 255 255 255 255 255 255 255 255 255 255 255 255 255 255 255 255 255 255 255 255 255 255 255 255 255 255 255 255 255 255 255 255 255 255 255 255 255 255 255 255 255 255 255 176 64 48 248 120 80 248 120 80 248 120 80 248 120 80 248 120 80 248 120 80 248 120 80 216 96 48 216 96 48 216 96 48 72 40 64 255 255 255 255 255 255 255 255 255 255 255 255 255 255 255 255 255 255 255 255 255 255 255 255 176 64 48 248 120 80 248 120 80 248 120 80 248 120 80 248 120 80 248 120 80 248 120 80 248 120 80 216 96 48 0 0 0 255 255 255 255 255 255 255 255 255 255 255 255 255 255 255 255 255 255 255 255 255 255 255 255 255 255 255 255 255 255 255 255 255 255 255 255 255 255 255 255 255 255 
255 255 255 255 255 255 255 255 255 255 255 255 255 255 255 255 255 255 255 255 255 255 255 255 255 255 255 255 255 255 255 255 255 255 255 255 255 255 255 255 255 255 255 255 255 255 255 255 255 255 255 255 255 255 255 255 255 72 40 64 248 120 80 248 120 80 248 120 80 248 120 80 248 120 80 216 96 48 216 96 48 216 96 48 216 96 48 216 96 48 0 0 0 255 255 255 255 255 255 255 255 255 255 255 255 255 255 255 255 255 255 255 255 255 255 255 255 176 64 48 216 96 48 248 120 80 248 120 80 248 120 80 248 120 80 248 120 80 248 120 80 248 120 80 216 96 48 216 96 48 0 0 0 255 255 255 255 255 255 255 255 255 255 255 255 255 255 255 255 255 255 255 255 255 255 255 255 255 255 255 255 255 255 255 255 255 255 255 255 255 255 255 
255 255 255 255 255 255 255 255 255 255 255 255 255 255 255 255 255 255 255 255 255 255 255 255 255 255 255 255 255 255 255 255 255 255 255 255 255 255 255 255 255 255 255 255 255 255 255 255 255 255 255 255 255 255 176 64 48 248 120 80 248 120 80 224 168 88 248 120 80 216 96 48 216 96 48 216 96 48 216 96 48 216 96 48 216 96 48 72 40 64 255 255 255 255 255 255 255 255 255 255 255 255 255 255 255 255 255 255 255 255 255 255 255 255 255 255 255 176 64 48 216 96 48 248 120 80 248 120 80 248 120 80 248 120 80 248 120 80 248 120 80 248 120 80 216 96 48 216 96 48 0 0 0 255 255 255 255 255 255 255 255 255 255 255 255 255 255 255 255 255 255 255 255 255 255 255 255 255 255 255 255 255 255 255 255 255 255 255 255 255 255 255 
255 255 255 255 255 255 255 255 255 255 255 255 255 255 255 255 255 255 255 255 255 255 255 255 255 255 255 255 255 255 255 255 255 255 255 255 255 255 255 255 255 255 255 255 255 255 255 255 255 255 255 255 255 255 176 64 48 216 96 48 248 120 80 248 208 104 248 120 80 216 96 48 216 96 48 216 96 48 216 96 48 216 96 48 216 96 48 0 0 0 255 255 255 255 255 255 255 255 255 255 255 255 255 255 255 255 255 255 255 255 255 255 255 255 255 255 255 255 255 255 176 64 48 216 96 48 248 120 80 248 120 80 248 120 80 248 120 80 224 168 88 248 120 80 216 96 48 216 96 48 216 96 48 0 0 0 255 255 255 255 255 255 255 255 255 255 255 255 255 255 255 255 255 255 255 255 255 255 255 255 255 255 255 255 255 255 255 255 255 255 255 255 
255 255 255 255 255 255 255 255 255 255 255 255 255 255 255 255 255 255 255 255 255 255 255 255 255 255 255 255 255 255 255 255 255 255 255 255 255 255 255 255 255 255 255 255 255 255 255 255 255 255 255 255 255 255 72 40 64 216 96 48 224 168 88 248 208 104 224 168 88 216 96 48 216 96 48 216 96 48 216 96 48 216 96 48 216 96 48 0 0 0 255 255 255 255 255 255 255 255 255 255 255 255 255 255 255 255 255 255 255 255 255 255 255 255 255 255 255 255 255 255 176 64 48 216 96 48 248 120 80 248 120 80 248 120 80 248 120 80 248 208 104 248 120 80 216 96 48 216 96 48 216 96 48 0 0 0 255 255 255 255 255 255 255 255 255 255 255 255 255 255 255 255 255 255 255 255 255 255 255 255 255 255 255 255 255 255 255 255 255 255 255 255 
255 255 255 255 255 255 255 255 255 255 255 255 255 255 255 255 255 255 255 255 255 255 255 255 255 255 255 255 255 255 255 255 255 255 255 255 255 255 255 255 255 255 255 255 255 255 255 255 255 255 255 255 255 255 72 40 64 216 96 48 224 168 88 248 208 104 224 168 88 216 96 48 216 96 48 216 96 48 216 96 48 216 96 48 216 96 48 0 0 0 255 255 255 255 255 255 255 255 255 255 255 255 255 255 255 255 255 255 255 255 255 255 255 255 255 255 255 255 255 255 176 64 48 216 96 48 216 96 48 248 120 80 248 120 80 216 96 48 248 208 104 224 168 88 216 96 48 216 96 48 216 96 48 216 96 48 0 0 0 255 255 255 255 255 255 255 255 255 255 255 255 255 255 255 255 255 255 255 255 255 255 255 255 255 255 255 255 255 255 255 255 255 
255 255 255 255 255 255 255 255 255 255 255 255 255 255 255 255 255 255 255 255 255 255 255 255 255 255 255 255 255 255 255 255 255 255 255 255 255 255 255 255 255 255 255 255 255 255 255 255 255 255 255 255 255 255 72 40 64 216 96 48 248 208 104 248 208 104 248 208 104 224 168 88 216 96 48 216 96 48 216 96 48 224 168 88 216 96 48 0 0 0 255 255 255 255 255 255 255 255 255 255 255 255 255 255 255 255 255 255 255 255 255 255 255 255 255 255 255 255 255 255 176 64 48 216 96 48 216 96 48 216 96 48 216 96 48 224 168 88 248 208 104 224 168 88 216 96 48 216 96 48 216 96 48 216 96 48 0 0 0 255 255 255 255 255 255 255 255 255 255 255 255 255 255 255 255 255 255 255 255 255 255 255 255 255 255 255 255 255 255 255 255 255 
255 255 255 255 255 255 255 255 255 255 255 255 255 255 255 255 255 255 255 255 255 255 255 255 255 255 255 255 255 255 255 255 255 255 255 255 255 255 255 255 255 255 255 255 255 255 255 255 255 255 255 255 255 255 144 120 88 224 168 88 248 208 104 248 208 104 248 208 104 224 168 88 216 96 48 216 96 48 224 168 88 224 168 88 216 96 48 0 0 0 255 255 255 255 255 255 255 255 255 255 255 255 255 255 255 255 255 255 255 255 255 255 255 255 255 255 255 255 255 255 255 255 255 176 64 48 216 96 48 216 96 48 216 96 48 224 168 88 248 208 104 248 208 104 224 168 88 216 96 48 216 96 48 216 96 48 0 0 0 255 255 255 255 255 255 255 255 255 255 255 255 255 255 255 255 255 255 255 255 255 255 255 255 255 255 255 255 255 255 255 255 255 
255 255 255 255 255 255 255 255 255 255 255 255 255 255 255 255 255 255 255 255 255 255 255 255 255 255 255 255 255 255 255 255 255 255 255 255 255 255 255 255 255 255 255 255 255 255 255 255 255 255 255 255 255 255 144 120 88 248 208 104 248 208 104 248 208 104 248 208 104 248 208 104 224 168 88 216 96 48 224 168 88 224 168 88 224 168 88 0 0 0 255 255 255 255 255 255 255 255 255 255 255 255 255 255 255 255 255 255 255 255 255 255 255 255 255 255 255 255 255 255 255 255 255 176 64 48 224 168 88 216 96 48 216 96 48 224 168 88 248 208 104 248 208 104 224 168 88 216 96 48 216 96 48 224 168 88 216 96 48 0 0 0 255 255 255 255 255 255 255 255 255 255 255 255 255 255 255 255 255 255 255 255 255 255 255 255 255 255 255 255 255 255 
255 255 255 255 255 255 255 255 255 255 255 255 255 255 255 255 255 255 255 255 255 255 255 255 255 255 255 255 255 255 255 255 255 255 255 255 255 255 255 255 255 255 255 255 255 255 255 255 255 255 255 255 255 255 144 120 88 248 208 104 248 208 104 248 208 104 248 208 104 248 208 104 248 208 104 224 168 88 224 168 88 224 168 88 224 168 88 0 0 0 255 255 255 255 255 255 255 255 255 255 255 255 255 255 255 255 255 255 255 255 255 255 255 255 255 255 255 255 255 255 255 255 255 144 120 88 248 208 104 216 96 48 216 96 48 248 208 104 248 208 104 248 208 104 248 208 104 224 168 88 216 96 48 224 168 88 216 96 48 0 0 0 255 255 255 255 255 255 255 255 255 255 255 255 255 255 255 255 255 255 255 255 255 255 255 255 255 255 255 255 255 255 
255 255 255 255 255 255 255 255 255 255 255 255 255 255 255 255 255 255 255 255 255 255 255 255 255 255 255 255 255 255 255 255 255 255 255 255 255 255 255 255 255 255 255 255 255 255 255 255 255 255 255 255 255 255 144 120 88 248 208 104 248 208 104 248 208 104 248 208 104 248 208 104 248 208 104 224 168 88 224 168 88 224 168 88 224 168 88 0 0 0 255 255 255 255 255 255 255 255 255 255 255 255 255 255 255 255 255 255 255 255 255 255 255 255 255 255 255 255 255 255 255 255 255 144 120 88 248 208 104 224 168 88 216 96 48 248 208 104 248 208 104 248 208 104 248 208 104 224 168 88 216 96 48 224 168 88 224 168 88 0 0 0 255 255 255 255 255 255 255 255 255 255 255 255 255 255 255 255 255 255 255 255 255 255 255 255 255 255 255 255 255 255 
255 255 255 255 255 255 255 255 255 255 255 255 255 255 255 255 255 255 255 255 255 255 255 255 255 255 255 255 255 255 255 255 255 255 255 255 255 255 255 255 255 255 255 255 255 255 255 255 255 255 255 144 120 88 224 168 88 144 120 88 248 208 104 248 208 104 248 208 104 248 208 104 248 208 104 224 168 88 248 208 104 224 168 88 224 168 88 144 120 88 255 255 255 255 255 255 255 255 255 255 255 255 255 255 255 255 255 255 255 255 255 255 255 255 255 255 255 255 255 255 255 255 255 144 120 88 248 208 104 248 208 104 248 208 104 248 208 104 248 208 104 248 208 104 248 208 104 248 208 104 224 168 88 224 168 88 224 168 88 216 96 48 0 0 0 255 255 255 255 255 255 255 255 255 255 255 255 255 255 255 255 255 255 255 255 255 255 255 255 255 255 255 
255 255 255 255 255 255 255 255 255 255 255 255 255 255 255 255 255 255 255 255 255 255 255 255 255 255 255 255 255 255 255 255 255 255 255 255 255 255 255 255 255 255 255 255 255 255 255 255 144 120 88 224 168 88 224 168 88 144 120 88 248 208 104 248 208 104 248 208 104 248 208 104 248 208 104 248 208 104 224 168 88 224 168 88 224 168 88 144 120 88 0 0 0 255 255 255 255 255 255 255 255 255 255 255 255 255 255 255 255 255 255 255 255 255 255 255 255 255 255 255 255 255 255 255 255 255 144 120 88 248 208 104 248 208 104 248 208 104 248 208 104 248 208 104 248 208 104 248 208 104 224 168 88 224 168 88 224 168 88 224 168 88 0 0 0 255 255 255 255 255 255 255 255 255 255 255 255 255 255 255 255 255 255 255 255 255 255 255 255 255 255 255 
255 255 255 255 255 255 255 255 255 255 255 255 255 255 255 255 255 255 255 255 255 255 255 255 255 255 255 255 255 255 255 255 255 255 255 255 255 255 255 255 255 255 255 255 255 144 120 88 144 120 88 144 120 88 224 168 88 144 120 88 248 208 104 248 208 104 248 208 104 248 208 104 248 208 104 224 168 88 248 208 104 224 168 88 224 168 88 144 120 88 224 168 88 0 0 0 255 255 255 255 255 255 255 255 255 255 255 255 255 255 255 255 255 255 255 255 255 255 255 255 255 255 255 255 255 255 144 120 88 248 208 104 248 208 104 248 208 104 248 208 104 248 208 104 248 208 104 248 208 104 248 208 104 224 168 88 224 168 88 224 168 88 0 0 0 255 255 255 255 255 255 255 255 255 255 255 255 255 255 255 255 255 255 255 255 255 255 255 255 255 255 255 
255 255 255 255 255 255 255 255 255 255 255 255 255 255 255 255 255 255 255 255 255 255 255 255 255 255 255 255 255 255 255 255 255 255 255 255 255 255 255 255 255 255 144 120 88 224 168 88 224 168 88 224 168 88 224 168 88 248 208 104 248 208 104 248 208 104 248 208 104 248 208 104 224 168 88 224 168 88 224 168 88 224 168 88 224 168 88 224 168 88 0 0 0 255 255 255 255 255 255 255 255 255 255 255 255 255 255 255 255 255 255 255 255 255 255 255 255 255 255 255 255 255 255 255 255 255 144 120 88 248 208 104 248 208 104 248 208 104 248 208 104 248 208 104 248 208 104 248 208 104 248 208 104 144 120 88 224 168 88 224 168 88 224 168 88 0 0 0 255 255 255 255 255 255 255 255 255 255 255 255 255 255 255 255 255 255 255 255 255 255 255 255 
255 255 255 255 255 255 255 255 255 255 255 255 255 255 255 255 255 255 255 255 255 255 255 255 255 255 255 255 255 255 255 255 255 255 255 255 255 255 255 255 255 255 255 255 255 144 120 88 144 120 88 224 168 88 248 208 104 248 208 104 248 208 104 248 208 104 248 208 104 248 208 104 224 168 88 224 168 88 224 168 88 224 168 88 224 168 88 224 168 88 224 168 88 0 0 0 255 255 255 255 255 255 255 255 255 255 255 255 255 255 255 255 255 255 255 255 255 255 255 255 255 255 255 255 255 255 144 120 88 248 208 104 248 208 104 248 208 104 248 208 104 248 208 104 248 208 104 248 208 104 248 208 104 224 168 88 224 168 88 224 168 88 224 168 88 0 0 0 255 255 255 255 255 255 255 255 255 255 255 255 255 255 255 255 255 255 255 255 255 255 255 255 
255 255 255 255 255 255 255 255 255 255 255 255 255 255 255 255 255 255 255 255 255 255 255 255 255 255 255 255 255 255 255 255 255 255 255 255 255 255 255 255 255 255 255 255 255 255 255 255 255 255 255 144 120 88 248 208 104 248 208 104 248 208 104 248 208 104 248 208 104 248 208 104 248 208 104 224 168 88 144 120 88 0 0 0 0 0 0 0 0 0 0 0 0 255 255 255 255 255 255 255 255 255 255 255 255 255 255 255 255 255 255 255 255 255 255 255 255 255 255 255 255 255 255 144 120 88 72 40 64 248 208 104 248 208 104 248 208 104 248 208 104 248 208 104 248 208 104 248 208 104 248 208 104 248 208 104 144 120 88 224 168 88 224 168 88 0 0 0 0 0 0 255 255 255 255 255 255 255 255 255 255 255 255 255 255 255 255 255 255 255 255 255 
255 255 255 255 255 255 255 255 255 255 255 255 255 255 255 255 255 255 255 255 255 255 255 255 255 255 255 255 255 255 255 255 255 255 255 255 255 255 255 255 255 255 255 255 255 255 255 255 144 120 88 248 208 104 248 208 104 248 208 104 144 120 88 0 0 0 248 208 104 248 208 104 0 0 0 0 0 0 255 255 255 255 255 255 255 255 255 255 255 255 255 255 255 255 255 255 255 255 255 255 255 255 255 255 255 255 255 255 255 255 255 255 255 255 255 255 255 255 255 255 144 120 88 248 208 104 72 40 64 248 208 104 248 208 104 248 208 104 248 208 104 248 208 104 248 208 104 248 208 104 248 208 104 248 208 104 224 168 88 224 168 88 224 168 88 224 168 88 224 168 88 0 0 0 255 255 255 255 255 255 255 255 255 255 255 255 255 255 255 255 255 255 
255 255 255 255 255 255 255 255 255 255 255 255 255 255 255 255 255 255 255 255 255 255 255 255 255 255 255 255 255 255 255 255 255 255 255 255 255 255 255 255 255 255 255 255 255 255 255 255 144 120 88 0 0 0 0 0 0 0 0 0 255 255 255 255 255 255 0 0 0 0 0 0 255 255 255 255 255 255 255 255 255 255 255 255 255 255 255 255 255 255 255 255 255 255 255 255 255 255 255 255 255 255 255 255 255 255 255 255 255 255 255 255 255 255 255 255 255 144 120 88 248 208 104 248 208 104 248 208 104 248 208 104 248 208 104 248 208 104 248 208 104 248 208 104 248 208 104 248 208 104 248 208 104 248 208 104 224 168 88 144 112 120 144 120 88 224 168 88 0 0 0 255 255 255 255 255 255 255 255 255 255 255 255 255 255 255 255 255 255 255 255 255 
255 255 255 255 255 255 255 255 255 255 255 255 255 255 255 255 255 255 255 255 255 255 255 255 255 255 255 255 255 255 255 255 255 255 255 255 255 255 255 255 255 255 255 255 255 255 255 255 255 255 255 255 255 255 255 255 255 255 255 255 255 255 255 255 255 255 255 255 255 255 255 255 255 255 255 255 255 255 255 255 255 255 255 255 255 255 255 255 255 255 255 255 255 255 255 255 255 255 255 255 255 255 255 255 255 255 255 255 255 255 255 255 255 255 255 255 255 255 255 255 144 120 88 144 120 88 248 208 104 248 208 104 248 208 104 248 208 104 248 208 104 248 208 104 248 208 104 144 112 120 248 208 104 248 208 104 224 168 88 224 168 88 224 168 88 72 40 64 255 255 255 255 255 255 255 255 255 255 255 255 255 255 255 255 255 255 255 255 255 255 255 255 
255 255 255 255 255 255 255 255 255 255 255 255 255 255 255 255 255 255 255 255 255 255 255 255 255 255 255 255 255 255 255 255 255 255 255 255 255 255 255 255 255 255 255 255 255 255 255 255 255 255 255 255 255 255 255 255 255 255 255 255 255 255 255 255 255 255 255 255 255 255 255 255 255 255 255 255 255 255 255 255 255 255 255 255 255 255 255 255 255 255 255 255 255 255 255 255 255 255 255 255 255 255 255 255 255 255 255 255 255 255 255 255 255 255 255 255 255 255 255 255 255 255 255 255 255 255 144 120 88 248 208 104 72 40 64 72 40 64 248 208 104 248 208 104 248 208 104 144 120 88 0 0 0 0 0 0 144 120 88 224 168 88 224 168 88 224 168 88 72 40 64 255 255 255 255 255 255 255 255 255 255 255 255 255 255 255 255 255 255 255 255 255 
255 255 255 255 255 255 255 255 255 255 255 255 255 255 255 255 255 255 255 255 255 255 255 255 255 255 255 255 255 255 255 255 255 255 255 255 255 255 255 255 255 255 255 255 255 255 255 255 255 255 255 255 255 255 255 255 255 255 255 255 255 255 255 255 255 255 255 255 255 255 255 255 255 255 255 255 255 255 255 255 255 255 255 255 255 255 255 255 255 255 255 255 255 255 255 255 255 255 255 255 255 255 255 255 255 255 255 255 255 255 255 255 255 255 255 255 255 255 255 255 255 255 255 255 255 255 72 40 64 72 40 64 255 255 255 255 255 255 72 40 64 248 208 104 248 208 104 72 40 64 255 255 255 255 255 255 255 255 255 0 0 0 0 0 0 0 0 0 0 0 0 255 255 255 255 255 255 255 255 255 255 255 255 255 255 255 255 255 255 255 255 255 
255 255 255 255 255 255 255 255 255 255 255 255 255 255 255 255 255 255 255 255 255 255 255 255 255 255 255 255 255 255 255 255 255 255 255 255 255 255 255 255 255 255 255 255 255 255 255 255 255 255 255 255 255 255 255 255 255 255 255 255 255 255 255 255 255 255 255 255 255 255 255 255 255 255 255 255 255 255 255 255 255 255 255 255 255 255 255 255 255 255 255 255 255 255 255 255 255 255 255 255 255 255 255 255 255 255 255 255 255 255 255 255 255 255 255 255 255 255 255 255 255 255 255 255 255 255 255 255 255 255 255 255 255 255 255 255 255 255 255 255 255 72 40 64 72 40 64 255 255 255 255 255 255 255 255 255 255 255 255 255 255 255 255 255 255 255 255 255 255 255 255 255 255 255 255 255 255 255 255 255 255 255 255 255 255 255 255 255 255 255 255 255 
