P3
64 64
255
255 255 255 255 255 255 255 255 255 255 255 255 255 255 255 255 255 255 255 255 255 255 255 255 255 255 255 255 255 255 255 255 255 255 255 255 255 255 255 255 255 255 255 255 255 255 255 255 255 255 255 112 112 112 112 112 112 255 255 255 255 255 255 255 255 255 255 255 255 255 255 255 255 255 255 255 255 255 255 255 255 255 255 255 255 255 255 255 255 255 255 255 255 255 255 255 255 255 255 255 255 255 104 88 56 16 16 16 255 255 255 255 255 255 255 255 255 255 255 255 255 255 255 255 255 255 255 255 255 255 255 255 255 255 255 255 255 255 255 255 255 255 255 255 255 255 255 255 255 255 255 255 255 255 255 255 255 255 255 255 255 255 255 255 255 255 255 255 255 255 255 255 255 255 255 255 255 255 255 255 255 255 255 255 255 255 255 255 255 255 255 255 
255 255 255 255 255 255 255 255 255 255 255 255 255 255 255 255 255 255 255 255 255 255 255 255 255 255 255 255 255 255 255 255 255 255 255 255 255 255 255 255 255 255 255 255 255 255 255 255 112 112 112 248 248 248 248 248 248 112 112 112 255 255 255 255 255 255 255 255 255 255 255 255 255 255 255 255 255 255 255 255 255 255 255 255 255 255 255 255 255 255 255 255 255 255 255 255 255 255 255 104 88 56 200 168 80 200 168 80 16 16 16 255 255 255 255 255 255 255 255 255 255 255 255 255 255 255 255 255 255 255 255 255 255 255 255 255 255 255 255 255 255 255 255 255 255 255 255 255 255 255 255 255 255 255 255 255 255 255 255 255 255 255 255 255 255 255 255 255 255 255 255 255 255 255 255 255 255 255 255 255 255 255 255 255 255 255 255 255 255 255 255 255 
255 255 255 255 255 255 255 255 255 255 255 255 255 255 255 255 255 255 255 255 255 255 255 255 255 255 255 255 255 255 255 255 255 255 255 255 255 255 255 255 255 255 255 255 255 255 255 255 255 255 255 112 112 112 208 208 216 208 208 216 112 112 112 255 255 255 255 255 255 255 255 255 112 112 112 112 112 112 16 16 16 16 16 16 255 255 255 255 255 255 200 168 80 104 88 56 104 88 56 104 88 56 104 88 56 104 88 56 104 88 56 16 16 16 16 16 16 112 112 112 112 112 112 255 255 255 255 255 255 255 255 255 255 255 255 255 255 255 255 255 255 255 255 255 255 255 255 255 255 255 255 255 255 255 255 255 255 255 255 255 255 255 255 255 255 255 255 255 255 255 255 255 255 255 255 255 255 255 255 255 255 255 255 255 255 255 255 255 255 255 255 255 
255 255 255 255 255 255 255 255 255 255 255 255 255 255 255 255 255 255 255 255 255 255 255 255 255 255 255 255 255 255 255 255 255 255 255 255 255 255 255 255 255 255 255 255 255 255 255 255 255 255 255 255 255 255 16 16 16 208 208 216 208 208 216 112 112 112 112 112 112 208 208 216 248 248 248 248 248 248 248 248 248 208 208 216 112 112 112 104 88 56 240 208 112 240 208 112 240 208 112 240 208 112 240 208 112 112 112 112 16 16 16 248 248 248 248 248 248 248 248 248 208 208 216 16 16 16 255 255 255 255 255 255 255 255 255 255 255 255 255 255 255 255 255 255 255 255 255 255 255 255 255 255 255 255 255 255 255 255 255 255 255 255 255 255 255 255 255 255 255 255 255 255 255 255 255 255 255 255 255 255 255 255 255 255 255 255 255 255 255 255 255 255 
255 255 255 255 255 255 255 255 255 255 255 255 255 255 255 255 255 255 255 255 255 255 255 255 255 255 255 255 255 255 255 255 255 255 255 255 255 255 255 255 255 255 255 255 255 255 255 255 255 255 255 255 255 255 255 255 255 16 16 16 112 112 112 208 208 216 208 208 216 208 208 216 112 112 112 16 16 16 16 16 16 208 208 216 248 248 248 112 112 112 248 232 144 240 208 112 240 208 112 240 208 112 112 112 112 248 248 248 208 208 216 112 112 112 16 16 16 16 16 16 248 248 248 248 248 248 16 16 16 255 255 255 255 255 255 255 255 255 255 255 255 255 255 255 255 255 255 255 255 255 255 255 255 255 255 255 255 255 255 255 255 255 255 255 255 255 255 255 255 255 255 255 255 255 255 255 255 255 255 255 255 255 255 255 255 255 255 255 255 255 255 255 
255 255 255 255 255 255 255 255 255 255 255 255 255 255 255 255 255 255 255 255 255 255 255 255 255 255 255 255 255 255 255 255 255 255 255 255 255 255 255 255 255 255 255 255 255 255 255 255 255 255 255 255 255 255 255 255 255 255 255 255 255 255 255 16 16 16 16 16 16 16 16 16 16 16 16 255 255 255 104 88 56 112 112 112 208 208 216 16 16 16 248 232 144 248 232 144 240 208 112 112 112 112 208 208 216 112 112 112 16 16 16 200 168 80 200 168 80 200 168 80 112 112 112 208 208 216 208 208 216 16 16 16 255 255 255 255 255 255 255 255 255 255 255 255 255 255 255 112 112 112 16 16 16 255 255 255 255 255 255 255 255 255 255 255 255 255 255 255 255 255 255 255 255 255 255 255 255 255 255 255 255 255 255 255 255 255 255 255 255 255 255 255 
255 255 255 255 255 255 255 255 255 255 255 255 255 255 255 255 255 255 255 255 255 255 255 255 255 255 255 255 255 255 255 255 255 255 255 255 255 255 255 255 255 255 255 255 255 255 255 255 255 255 255 255 255 255 255 255 255 255 255 255 255 255 255 255 255 255 255 255 255 255 255 255 255 255 255 255 255 255 104 88 56 248 232 144 16 16 16 200 168 80 248 232 144 248 232 144 240 208 112 112 112 112 112 112 112 240 208 112 200 168 80 200 168 80 200 168 80 200 168 80 16 16 16 112 112 112 208 208 216 208 208 216 112 112 112 112 112 112 255 255 255 255 255 255 112 112 112 112 112 112 208 208 216 16 16 16 255 255 255 255 255 255 255 255 255 255 255 255 255 255 255 255 255 255 255 255 255 255 255 255 255 255 255 255 255 255 255 255 255 255 255 255 
255 255 255 255 255 255 255 255 255 255 255 255 255 255 255 255 255 255 255 255 255 255 255 255 255 255 255 255 255 255 255 255 255 255 255 255 255 255 255 255 255 255 255 255 255 255 255 255 255 255 255 255 255 255 255 255 255 255 255 255 255 255 255 255 255 255 255 255 255 255 255 255 255 255 255 104 88 56 200 168 80 248 232 144 248 232 144 248 232 144 248 232 144 248 232 144 240 208 112 240 208 112 240 208 112 240 208 112 200 168 80 200 168 80 200 168 80 200 168 80 104 88 56 255 255 255 16 16 16 208 208 216 208 208 216 208 208 216 112 112 112 112 112 112 208 208 216 208 208 216 16 16 16 255 255 255 255 255 255 255 255 255 200 168 80 104 88 56 255 255 255 255 255 255 255 255 255 255 255 255 255 255 255 255 255 255 255 255 255 255 255 255 
255 255 255 255 255 255 255 255 255 255 255 255 255 255 255 255 255 255 255 255 255 255 255 255 255 255 255 255 255 255 255 255 255 255 255 255 255 255 255 255 255 255 255 255 255 255 255 255 255 255 255 255 255 255 255 255 255 255 255 255 255 255 255 255 255 255 255 255 255 255 255 255 255 255 255 104 88 56 240 208 112 240 208 112 248 232 144 248 232 144 248 232 144 240 208 112 240 208 112 240 208 112 240 208 112 240 208 112 240 208 112 200 168 80 200 168 80 200 168 80 200 168 80 104 88 56 255 255 255 16 16 16 112 112 112 208 208 216 208 208 216 208 208 216 208 208 216 16 16 16 255 255 255 255 255 255 255 255 255 104 88 56 240 208 112 240 208 112 16 16 16 255 255 255 255 255 255 255 255 255 255 255 255 255 255 255 255 255 255 255 255 255 
255 255 255 255 255 255 255 255 255 255 255 255 255 255 255 255 255 255 255 255 255 255 255 255 255 255 255 255 255 255 255 255 255 255 255 255 255 255 255 255 255 255 255 255 255 255 255 255 255 255 255 255 255 255 255 255 255 104 88 56 104 88 56 104 88 56 104 88 56 104 88 56 104 88 56 248 248 248 16 16 16 240 208 112 240 208 112 240 208 112 240 208 112 240 208 112 240 208 112 240 208 112 104 88 56 104 88 56 104 88 56 200 168 80 200 168 80 200 168 80 200 168 80 16 16 16 255 255 255 255 255 255 255 255 255 16 16 16 16 16 16 16 16 16 16 16 16 255 255 255 255 255 255 255 255 255 255 255 255 104 88 56 240 208 112 240 208 112 200 168 80 16 16 16 255 255 255 255 255 255 255 255 255 255 255 255 255 255 255 255 255 255 
255 255 255 255 255 255 255 255 255 255 255 255 255 255 255 255 255 255 255 255 255 255 255 255 255 255 255 255 255 255 255 255 255 255 255 255 255 255 255 255 255 255 255 255 255 255 255 255 255 255 255 104 88 56 104 88 56 200 168 80 200 168 80 200 168 80 200 168 80 200 168 80 200 168 80 104 88 56 16 16 16 240 208 112 240 208 112 240 208 112 240 208 112 240 208 112 240 208 112 16 16 16 112 112 112 16 16 16 248 248 248 104 88 56 200 168 80 200 168 80 200 168 80 16 16 16 255 255 255 255 255 255 255 255 255 255 255 255 255 255 255 255 255 255 255 255 255 255 255 255 255 255 255 255 255 255 255 255 255 200 168 80 240 208 112 200 168 80 200 168 80 200 168 80 16 16 16 255 255 255 255 255 255 255 255 255 255 255 255 255 255 255 
255 255 255 255 255 255 255 255 255 255 255 255 255 255 255 255 255 255 255 255 255 255 255 255 255 255 255 255 255 255 255 255 255 255 255 255 255 255 255 255 255 255 255 255 255 104 88 56 200 168 80 200 168 80 200 168 80 104 88 56 104 88 56 104 88 56 104 88 56 104 88 56 104 88 56 16 16 16 240 208 112 240 208 112 240 208 112 240 208 112 240 208 112 240 208 112 240 208 112 248 248 248 112 112 112 16 16 16 248 248 248 104 88 56 200 168 80 200 168 80 200 168 80 16 16 16 255 255 255 255 255 255 255 255 255 255 255 255 255 255 255 255 255 255 255 255 255 255 255 255 255 255 255 255 255 255 104 88 56 240 208 112 240 208 112 104 88 56 104 88 56 200 168 80 104 88 56 255 255 255 255 255 255 255 255 255 255 255 255 255 255 255 
255 255 255 255 255 255 255 255 255 255 255 255 255 255 255 255 255 255 255 255 255 255 255 255 255 255 255 255 255 255 255 255 255 255 255 255 255 255 255 104 88 56 200 168 80 240 208 112 240 208 112 104 88 56 104 88 56 80 160 160 80 160 160 80 160 160 80 160 160 16 16 16 248 232 144 240 208 112 240 208 112 240 208 112 240 208 112 240 208 112 240 208 112 240 208 112 240 208 112 16 16 16 16 16 16 16 16 16 248 248 248 104 88 56 200 168 80 200 168 80 200 168 80 104 88 56 255 255 255 255 255 255 255 255 255 255 255 255 255 255 255 255 255 255 255 255 255 255 255 255 255 255 255 255 255 255 200 168 80 240 208 112 104 88 56 48 112 104 80 160 160 104 88 56 200 168 80 16 16 16 255 255 255 255 255 255 255 255 255 255 255 255 
255 255 255 255 255 255 255 255 255 255 255 255 255 255 255 255 255 255 255 255 255 255 255 255 255 255 255 255 255 255 255 255 255 255 255 255 200 168 80 240 208 112 240 208 112 104 88 56 104 88 56 80 160 160 80 160 160 80 160 160 80 160 160 80 160 160 16 16 16 248 232 144 248 232 144 240 208 112 240 208 112 240 208 112 240 208 112 240 208 112 240 208 112 240 208 112 240 208 112 16 16 16 16 16 16 16 16 16 248 248 248 200 168 80 200 168 80 200 168 80 200 168 80 200 168 80 104 88 56 255 255 255 255 255 255 255 255 255 255 255 255 255 255 255 255 255 255 255 255 255 255 255 255 104 88 56 240 208 112 104 88 56 80 160 160 48 112 104 80 160 160 104 88 56 200 168 80 104 88 56 255 255 255 255 255 255 255 255 255 255 255 255 
255 255 255 255 255 255 255 255 255 255 255 255 255 255 255 255 255 255 255 255 255 255 255 255 255 255 255 255 255 255 255 255 255 200 168 80 240 208 112 104 88 56 104 88 56 80 160 160 80 160 160 80 160 160 80 160 160 80 160 160 80 160 160 80 160 160 104 88 56 248 232 144 248 232 144 240 208 112 240 208 112 240 208 112 240 208 112 240 208 112 240 208 112 240 208 112 240 208 112 240 208 112 240 208 112 240 208 112 240 208 112 200 168 80 200 168 80 200 168 80 200 168 80 200 168 80 16 16 16 255 255 255 255 255 255 255 255 255 255 255 255 255 255 255 255 255 255 255 255 255 255 255 255 200 168 80 240 208 112 104 88 56 80 160 160 48 112 104 80 160 160 80 160 160 104 88 56 200 168 80 16 16 16 255 255 255 255 255 255 255 255 255 
255 255 255 255 255 255 255 255 255 255 255 255 255 255 255 255 255 255 255 255 255 255 255 255 255 255 255 255 255 255 200 168 80 240 208 112 104 88 56 80 160 160 80 160 160 80 160 160 120 192 192 120 192 192 120 192 192 120 192 192 80 160 160 104 88 56 248 232 144 248 232 144 240 208 112 240 208 112 240 208 112 240 208 112 240 208 112 240 208 112 240 208 112 240 208 112 240 208 112 240 208 112 200 168 80 200 168 80 200 168 80 200 168 80 200 168 80 200 168 80 200 168 80 200 168 80 16 16 16 255 255 255 255 255 255 255 255 255 255 255 255 255 255 255 255 255 255 255 255 255 104 88 56 240 208 112 104 88 56 80 160 160 80 160 160 48 112 104 80 160 160 80 160 160 104 88 56 200 168 80 16 16 16 255 255 255 255 255 255 255 255 255 
255 255 255 255 255 255 255 255 255 255 255 255 255 255 255 255 255 255 255 255 255 255 255 255 255 255 255 104 88 56 240 208 112 104 88 56 120 192 192 120 192 192 120 192 192 120 192 192 120 192 192 120 192 192 120 192 192 120 192 192 120 192 192 16 16 16 248 232 144 240 208 112 240 208 112 240 208 112 240 208 112 240 208 112 240 208 112 240 208 112 240 208 112 240 208 112 200 168 80 200 168 80 200 168 80 200 168 80 200 168 80 200 168 80 200 168 80 200 168 80 200 168 80 200 168 80 104 88 56 255 255 255 255 255 255 255 255 255 255 255 255 255 255 255 255 255 255 104 88 56 240 208 112 104 88 56 80 160 160 80 160 160 120 192 192 48 112 104 80 160 160 80 160 160 104 88 56 200 168 80 104 88 56 255 255 255 255 255 255 255 255 255 
255 255 255 255 255 255 255 255 255 255 255 255 255 255 255 255 255 255 255 255 255 255 255 255 104 88 56 240 208 112 104 88 56 120 192 192 120 192 192 120 192 192 120 192 192 120 192 192 120 192 192 120 192 192 120 192 192 120 192 192 48 112 104 16 16 16 240 208 112 200 168 80 240 208 112 240 208 112 240 208 112 240 208 112 240 208 112 240 208 112 240 208 112 200 168 80 200 168 80 104 88 56 200 168 80 200 168 80 200 168 80 200 168 80 200 168 80 200 168 80 200 168 80 200 168 80 200 168 80 16 16 16 255 255 255 255 255 255 255 255 255 255 255 255 104 88 56 240 208 112 104 88 56 80 160 160 80 160 160 80 160 160 120 192 192 48 112 104 80 160 160 80 160 160 80 160 160 104 88 56 200 168 80 16 16 16 255 255 255 255 255 255 
255 255 255 255 255 255 255 255 255 255 255 255 255 255 255 255 255 255 255 255 255 104 88 56 240 208 112 104 88 56 120 192 192 120 192 192 120 192 192 120 192 192 120 192 192 120 192 192 120 192 192 120 192 192 48 112 104 48 112 104 80 160 160 80 160 160 104 88 56 200 168 80 240 208 112 240 208 112 240 208 112 200 168 80 240 208 112 240 208 112 240 208 112 200 168 80 200 168 80 104 88 56 200 168 80 104 88 56 200 168 80 200 168 80 200 168 80 200 168 80 200 168 80 200 168 80 200 168 80 16 16 16 255 255 255 255 255 255 255 255 255 104 88 56 240 208 112 104 88 56 80 160 160 80 160 160 80 160 160 120 192 192 120 192 192 48 112 104 80 160 160 80 160 160 80 160 160 104 88 56 200 168 80 16 16 16 255 255 255 255 255 255 
255 255 255 255 255 255 255 255 255 255 255 255 255 255 255 255 255 255 104 88 56 240 208 112 104 88 56 120 192 192 16 16 16 16 16 16 16 16 16 48 112 104 120 192 192 120 192 192 48 112 104 48 112 104 80 160 160 80 160 160 80 160 160 80 160 160 16 16 16 240 208 112 240 208 112 240 208 112 200 168 80 240 208 112 240 208 112 240 208 112 200 168 80 200 168 80 104 88 56 200 168 80 16 16 16 200 168 80 200 168 80 200 168 80 200 168 80 200 168 80 200 168 80 200 168 80 200 168 80 104 88 56 255 255 255 255 255 255 104 88 56 240 208 112 104 88 56 80 160 160 80 160 160 80 160 160 80 160 160 120 192 192 120 192 192 48 112 104 80 160 160 80 160 160 80 160 160 104 88 56 200 168 80 104 88 56 255 255 255 255 255 255 
255 255 255 255 255 255 255 255 255 255 255 255 255 255 255 104 88 56 240 208 112 104 88 56 16 16 16 16 16 16 255 255 255 255 255 255 255 255 255 255 255 255 48 112 104 48 112 104 80 160 160 80 160 160 80 160 160 80 160 160 120 192 192 120 192 192 120 192 192 104 88 56 240 208 112 240 208 112 240 208 112 240 208 112 240 208 112 200 168 80 200 168 80 200 168 80 16 16 16 16 16 16 104 88 56 200 168 80 200 168 80 200 168 80 200 168 80 200 168 80 200 168 80 200 168 80 200 168 80 200 168 80 16 16 16 104 88 56 240 208 112 104 88 56 80 160 160 80 160 160 80 160 160 80 160 160 120 192 192 120 192 192 120 192 192 48 112 104 80 160 160 80 160 160 80 160 160 120 192 192 104 88 56 200 168 80 16 16 16 255 255 255 
255 255 255 255 255 255 255 255 255 255 255 255 255 255 255 104 88 56 104 88 56 255 255 255 255 255 255 255 255 255 255 255 255 255 255 255 255 255 255 255 255 255 255 255 255 48 112 104 120 192 192 120 192 192 120 192 192 120 192 192 120 192 192 120 192 192 120 192 192 120 192 192 16 16 16 104 88 56 200 168 80 200 168 80 200 168 80 200 168 80 104 88 56 16 16 16 204 204 153 204 204 153 204 204 153 104 88 56 200 168 80 200 168 80 200 168 80 200 168 80 200 168 80 200 168 80 240 208 112 200 168 80 200 168 80 16 16 16 104 88 56 80 160 160 80 160 160 80 160 160 80 160 160 120 192 192 120 192 192 120 192 192 120 192 192 48 112 104 80 160 160 80 160 160 120 192 192 120 192 192 104 88 56 200 168 80 16 16 16 255 255 255 
255 255 255 255 255 255 255 255 255 255 255 255 255 255 255 255 255 255 255 255 255 255 255 255 255 255 255 255 255 255 255 255 255 255 255 255 255 255 255 255 255 255 200 168 80 104 88 56 104 88 56 104 88 56 104 88 56 104 88 56 104 88 56 104 88 56 120 192 192 120 192 192 120 192 192 120 192 192 16 16 16 16 16 16 16 16 16 16 16 16 204 204 153 204 204 153 204 204 153 204 204 153 204 204 153 204 204 153 104 88 56 200 168 80 200 168 80 200 168 80 200 168 80 240 208 112 240 208 112 240 208 112 200 168 80 200 168 80 16 16 16 80 160 160 80 160 160 80 160 160 120 192 192 120 192 192 120 192 192 120 192 192 120 192 192 48 112 104 80 160 160 80 160 160 120 192 192 120 192 192 104 88 56 200 168 80 104 88 56 255 255 255 
255 255 255 255 255 255 255 255 255 255 255 255 255 255 255 255 255 255 255 255 255 255 255 255 255 255 255 255 255 255 255 255 255 112 112 112 104 88 56 104 88 56 248 232 144 248 232 144 248 232 144 248 232 144 248 232 144 248 232 144 240 208 112 240 208 112 104 88 56 104 88 56 104 88 56 104 88 56 104 88 56 104 88 56 153 153 102 153 153 102 153 153 102 153 153 102 204 204 153 204 204 153 204 204 153 204 204 153 104 88 56 200 168 80 200 168 80 200 168 80 200 168 80 240 208 112 240 208 112 240 208 112 240 208 112 200 168 80 200 168 80 16 16 16 80 160 160 120 192 192 120 192 192 120 192 192 120 192 192 120 192 192 120 192 192 48 112 104 80 160 160 80 160 160 120 192 192 120 192 192 120 192 192 104 88 56 200 168 80 104 88 56 
255 255 255 255 255 255 255 255 255 255 255 255 255 255 255 255 255 255 255 255 255 255 255 255 255 255 255 255 255 255 112 112 112 248 248 248 104 88 56 240 208 112 248 232 144 248 232 144 248 232 144 248 232 144 240 208 112 240 208 112 240 208 112 240 208 112 240 208 112 240 208 112 240 208 112 240 208 112 240 208 112 104 88 56 248 240 200 204 204 153 204 204 153 204 204 153 153 153 102 153 153 102 153 153 102 153 153 102 104 88 56 200 168 80 200 168 80 200 168 80 240 208 112 240 208 112 240 208 112 240 208 112 240 208 112 240 208 112 200 168 80 200 168 80 104 88 56 48 112 104 16 16 16 16 16 16 120 192 192 120 192 192 120 192 192 48 112 104 80 160 160 80 160 160 120 192 192 120 192 192 120 192 192 104 88 56 200 168 80 16 16 16 
255 255 255 255 255 255 255 255 255 255 255 255 255 255 255 255 255 255 255 255 255 255 255 255 255 255 255 255 255 255 16 16 16 16 16 16 240 208 112 240 208 112 240 208 112 240 208 112 240 208 112 240 208 112 240 208 112 240 208 112 240 208 112 240 208 112 240 208 112 240 208 112 240 208 112 200 168 80 104 88 56 248 240 200 248 240 200 248 240 200 204 204 153 204 204 153 204 204 153 204 204 153 204 204 153 204 204 153 204 204 153 104 88 56 200 168 80 240 208 112 240 208 112 240 208 112 240 208 112 240 208 112 240 208 112 240 208 112 240 208 112 200 168 80 200 168 80 104 88 56 255 255 255 255 255 255 16 16 16 120 192 192 48 112 104 80 160 160 80 160 160 16 16 16 16 16 16 120 192 192 120 192 192 104 88 56 200 168 80 16 16 16 
255 255 255 255 255 255 255 255 255 255 255 255 255 255 255 255 255 255 255 255 255 255 255 255 255 255 255 112 112 112 248 248 248 248 248 248 104 88 56 240 208 112 240 208 112 240 208 112 240 208 112 240 208 112 240 208 112 240 208 112 240 208 112 240 208 112 240 208 112 200 168 80 200 168 80 104 88 56 153 153 102 153 153 102 153 153 102 153 153 102 204 204 153 204 204 153 204 204 153 204 204 153 204 204 153 204 204 153 248 240 200 104 88 56 240 208 112 240 208 112 240 208 112 240 208 112 240 208 112 240 208 112 240 208 112 240 208 112 240 208 112 240 208 112 200 168 80 200 168 80 104 88 56 255 255 255 255 255 255 48 112 104 48 112 104 80 160 160 16 16 16 255 255 255 255 255 255 48 112 104 120 192 192 80 160 160 200 168 80 16 16 16 
255 255 255 255 255 255 255 255 255 255 255 255 255 255 255 255 255 255 255 255 255 255 255 255 255 255 255 16 16 16 16 16 16 248 248 248 104 88 56 200 168 80 240 208 112 240 208 112 240 208 112 240 208 112 240 208 112 200 168 80 200 168 80 200 168 80 200 168 80 200 168 80 104 88 56 248 248 248 248 240 200 248 240 200 248 240 200 248 240 200 248 240 200 153 153 102 153 153 102 248 240 200 248 240 200 248 240 200 248 240 200 104 88 56 240 208 112 240 208 112 240 208 112 104 88 56 240 208 112 240 208 112 240 208 112 240 208 112 240 208 112 240 208 112 240 208 112 200 168 80 200 168 80 16 16 16 255 255 255 255 255 255 48 112 104 16 16 16 255 255 255 255 255 255 255 255 255 255 255 255 48 112 104 80 160 160 200 168 80 16 16 16 
255 255 255 255 255 255 255 255 255 255 255 255 255 255 255 255 255 255 255 255 255 255 255 255 255 255 255 255 255 255 255 255 255 16 16 16 200 168 80 112 112 112 248 248 248 104 88 56 200 168 80 200 168 80 200 168 80 200 168 80 200 168 80 200 168 80 200 168 80 104 88 56 248 248 248 248 248 248 248 240 200 248 240 200 248 240 200 248 240 200 248 240 200 248 240 200 248 240 200 153 153 102 153 153 102 248 240 200 248 240 200 104 88 56 240 208 112 240 208 112 240 208 112 16 16 16 240 208 112 240 208 112 240 208 112 240 208 112 240 208 112 240 208 112 240 208 112 200 168 80 200 168 80 200 168 80 16 16 16 255 255 255 16 16 16 255 255 255 255 255 255 255 255 255 255 255 255 255 255 255 16 16 16 80 160 160 200 168 80 16 16 16 
255 255 255 255 255 255 255 255 255 255 255 255 255 255 255 255 255 255 255 255 255 255 255 255 255 255 255 255 255 255 255 255 255 255 255 255 112 112 112 248 248 248 208 208 216 112 112 112 200 168 80 200 168 80 200 168 80 200 168 80 200 168 80 200 168 80 104 88 56 248 240 200 248 240 200 248 240 200 248 240 200 248 240 200 248 240 200 248 240 200 248 240 200 248 240 200 248 240 200 248 240 200 248 240 200 153 153 102 248 240 200 104 88 56 240 208 112 240 208 112 240 208 112 16 16 16 240 208 112 240 208 112 240 208 112 240 208 112 240 208 112 240 208 112 240 208 112 240 208 112 200 168 80 200 168 80 200 168 80 16 16 16 255 255 255 255 255 255 255 255 255 255 255 255 255 255 255 255 255 255 16 16 16 80 160 160 200 168 80 16 16 16 
255 255 255 255 255 255 255 255 255 255 255 255 255 255 255 255 255 255 255 255 255 255 255 255 255 255 255 255 255 255 255 255 255 255 255 255 255 255 255 16 16 16 16 16 16 16 16 16 16 16 16 16 16 16 16 16 16 104 88 56 104 88 56 104 88 56 204 204 153 153 153 102 153 153 102 153 153 102 153 153 102 204 204 153 248 240 200 248 240 200 248 240 200 248 240 200 248 240 200 248 240 200 248 240 200 248 240 200 153 153 102 104 88 56 240 208 112 240 208 112 240 208 112 240 208 112 16 16 16 200 168 80 240 208 112 240 208 112 240 208 112 240 208 112 240 208 112 240 208 112 240 208 112 200 168 80 200 168 80 200 168 80 16 16 16 255 255 255 255 255 255 255 255 255 255 255 255 255 255 255 255 255 255 80 160 160 200 168 80 16 16 16 
255 255 255 255 255 255 255 255 255 255 255 255 255 255 255 255 255 255 255 255 255 255 255 255 255 255 255 255 255 255 255 255 255 255 255 255 255 255 255 255 255 255 255 255 255 255 255 255 255 255 255 255 255 255 255 255 255 104 88 56 248 248 248 248 248 248 248 248 248 248 248 248 248 248 248 248 248 248 248 248 248 248 240 200 153 153 102 153 153 102 204 204 153 248 240 200 248 240 200 248 240 200 248 240 200 248 240 200 248 240 200 104 88 56 240 208 112 240 208 112 240 208 112 240 208 112 200 168 80 16 16 16 200 168 80 240 208 112 240 208 112 240 208 112 240 208 112 240 208 112 240 208 112 240 208 112 200 168 80 200 168 80 200 168 80 16 16 16 255 255 255 255 255 255 255 255 255 255 255 255 255 255 255 104 88 56 200 168 80 104 88 56 
255 255 255 112 112 112 112 112 112 255 255 255 112 112 112 112 112 112 255 255 255 255 255 255 255 255 255 255 255 255 255 255 255 255 255 255 255 255 255 255 255 255 255 255 255 255 255 255 255 255 255 255 255 255 104 88 56 248 248 248 248 248 248 248 248 248 248 248 248 248 248 248 248 248 248 248 248 248 248 248 248 248 248 248 248 248 248 248 240 200 248 240 200 153 153 102 153 153 102 248 240 200 248 240 200 248 240 200 248 240 200 104 88 56 240 208 112 240 208 112 240 208 112 240 208 112 200 168 80 200 168 80 16 16 16 200 168 80 240 208 112 240 208 112 240 208 112 240 208 112 240 208 112 240 208 112 200 168 80 200 168 80 200 168 80 104 88 56 255 255 255 255 255 255 255 255 255 255 255 255 255 255 255 255 255 255 104 88 56 255 255 255 
255 255 255 112 112 112 248 248 248 16 16 16 112 112 112 248 248 248 16 16 16 255 255 255 255 255 255 255 255 255 255 255 255 255 255 255 255 255 255 255 255 255 200 168 80 104 88 56 104 88 56 104 88 56 248 248 248 248 248 248 248 248 248 248 248 248 248 248 248 248 248 248 248 248 248 248 248 248 248 248 248 248 248 248 248 240 200 248 240 200 248 240 200 248 240 200 248 240 200 153 153 102 153 153 102 248 240 200 248 240 200 104 88 56 240 208 112 240 208 112 240 208 112 240 208 112 200 168 80 200 168 80 200 168 80 104 88 56 240 208 112 240 208 112 240 208 112 240 208 112 240 208 112 240 208 112 200 168 80 200 168 80 200 168 80 200 168 80 104 88 56 255 255 255 255 255 255 255 255 255 255 255 255 255 255 255 255 255 255 255 255 255 
112 112 112 112 112 112 248 248 248 208 208 216 112 112 112 248 248 248 208 208 216 16 16 16 255 255 255 255 255 255 255 255 255 255 255 255 104 88 56 200 168 80 240 208 112 240 208 112 104 88 56 204 204 153 153 153 102 153 153 102 153 153 102 204 204 153 248 240 200 248 248 248 248 248 248 248 248 248 248 248 248 248 240 200 248 248 248 248 240 200 248 240 200 248 240 200 248 240 200 248 240 200 248 240 200 153 153 102 248 240 200 104 88 56 240 208 112 240 208 112 240 208 112 240 208 112 240 208 112 200 168 80 200 168 80 16 16 16 240 208 112 240 208 112 240 208 112 240 208 112 240 208 112 240 208 112 200 168 80 200 168 80 200 168 80 200 168 80 16 16 16 255 255 255 255 255 255 255 255 255 255 255 255 255 255 255 255 255 255 255 255 255 
112 112 112 112 112 112 248 248 248 248 248 248 112 112 112 248 248 248 208 208 216 112 112 112 255 255 255 255 255 255 104 88 56 200 168 80 248 232 144 248 232 144 240 208 112 104 88 56 248 248 248 248 248 248 248 248 248 248 248 248 248 248 248 248 248 248 204 204 153 153 153 102 153 153 102 153 153 102 248 240 200 248 248 248 248 240 200 248 240 200 248 240 200 248 240 200 248 240 200 248 240 200 248 240 200 248 240 200 104 88 56 240 208 112 240 208 112 240 208 112 240 208 112 240 208 112 240 208 112 200 168 80 200 168 80 200 168 80 104 88 56 240 208 112 240 208 112 240 208 112 240 208 112 200 168 80 200 168 80 200 168 80 200 168 80 104 88 56 16 16 16 255 255 255 255 255 255 255 255 255 255 255 255 255 255 255 255 255 255 255 255 255 
16 16 16 248 248 248 112 112 112 112 112 112 240 208 112 104 88 56 104 88 56 104 88 56 255 255 255 104 88 56 248 232 144 248 232 144 248 232 144 248 232 144 240 208 112 104 88 56 248 240 200 248 248 248 248 248 248 248 248 248 248 248 248 248 248 248 248 248 248 248 248 248 248 248 248 248 248 248 153 153 102 153 153 102 153 153 102 248 240 200 248 240 200 248 240 200 248 240 200 248 240 200 248 240 200 248 240 200 104 88 56 240 208 112 240 208 112 240 208 112 240 208 112 240 208 112 240 208 112 200 168 80 200 168 80 200 168 80 16 16 16 104 88 56 200 168 80 200 168 80 200 168 80 200 168 80 200 168 80 200 168 80 200 168 80 104 88 56 208 208 216 16 16 16 255 255 255 255 255 255 255 255 255 255 255 255 255 255 255 255 255 255 
16 16 16 248 248 248 104 88 56 200 168 80 240 208 112 240 208 112 240 208 112 240 208 112 104 88 56 248 232 144 248 232 144 248 232 144 248 232 144 240 208 112 104 88 56 248 240 200 248 240 200 248 240 200 248 248 248 248 248 248 248 248 248 248 248 248 248 248 248 248 248 248 248 248 248 248 240 200 248 248 248 248 240 200 248 240 200 153 153 102 153 153 102 248 240 200 248 240 200 248 240 200 248 240 200 248 240 200 104 88 56 240 208 112 240 208 112 240 208 112 240 208 112 240 208 112 240 208 112 200 168 80 200 168 80 200 168 80 16 16 16 255 255 255 16 16 16 104 88 56 200 168 80 200 168 80 200 168 80 104 88 56 16 16 16 208 208 216 208 208 216 16 16 16 255 255 255 255 255 255 255 255 255 255 255 255 255 255 255 255 255 255 
16 16 16 200 168 80 200 168 80 200 168 80 200 168 80 240 208 112 240 208 112 240 208 112 104 88 56 248 232 144 248 232 144 240 208 112 240 208 112 240 208 112 104 88 56 153 153 102 248 240 200 248 240 200 248 240 200 248 240 200 248 248 248 248 248 248 248 240 200 248 248 248 248 240 200 248 248 248 248 240 200 248 240 200 248 240 200 248 240 200 248 240 200 153 153 102 153 153 102 248 240 200 248 240 200 104 88 56 240 208 112 240 208 112 240 208 112 240 208 112 240 208 112 240 208 112 240 208 112 200 168 80 200 168 80 200 168 80 16 16 16 255 255 255 255 255 255 112 112 112 104 88 56 104 88 56 104 88 56 104 88 56 208 208 216 16 16 16 208 208 216 16 16 16 255 255 255 255 255 255 255 255 255 255 255 255 255 255 255 255 255 255 
16 16 16 200 168 80 200 168 80 200 168 80 200 168 80 200 168 80 240 208 112 240 208 112 240 208 112 104 88 56 240 208 112 240 208 112 240 208 112 104 88 56 248 240 200 248 240 200 153 153 102 153 153 102 248 240 200 248 240 200 248 240 200 248 240 200 248 248 248 248 240 200 248 240 200 248 240 200 248 240 200 248 240 200 248 240 200 248 240 200 248 240 200 248 240 200 104 88 56 104 88 56 104 88 56 104 88 56 104 88 56 240 208 112 240 208 112 240 208 112 240 208 112 240 208 112 200 168 80 200 168 80 200 168 80 200 168 80 16 16 16 255 255 255 255 255 255 112 112 112 248 248 248 208 208 216 16 16 16 248 248 248 208 208 216 16 16 16 112 112 112 16 16 16 255 255 255 255 255 255 255 255 255 104 88 56 104 88 56 255 255 255 
16 16 16 200 168 80 200 168 80 200 168 80 200 168 80 200 168 80 240 208 112 240 208 112 240 208 112 104 88 56 240 208 112 240 208 112 240 208 112 104 88 56 248 240 200 248 240 200 248 240 200 248 240 200 153 153 102 153 153 102 204 204 153 248 240 200 248 240 200 248 240 200 248 240 200 248 240 200 248 240 200 248 240 200 248 240 200 248 240 200 104 88 56 104 88 56 240 208 112 240 208 112 240 208 112 240 208 112 240 208 112 104 88 56 104 88 56 240 208 112 240 208 112 200 168 80 200 168 80 200 168 80 200 168 80 200 168 80 16 16 16 255 255 255 255 255 255 112 112 112 248 248 248 16 16 16 255 255 255 112 112 112 112 112 112 112 112 112 255 255 255 255 255 255 255 255 255 104 88 56 104 88 56 200 168 80 200 168 80 16 16 16 
16 16 16 200 168 80 200 168 80 200 168 80 200 168 80 200 168 80 240 208 112 240 208 112 240 208 112 104 88 56 240 208 112 240 208 112 240 208 112 104 88 56 248 240 200 248 240 200 248 240 200 248 240 200 248 240 200 248 240 200 248 240 200 153 153 102 153 153 102 204 204 153 248 240 200 248 240 200 248 240 200 248 240 200 104 88 56 104 88 56 240 208 112 248 232 144 248 232 144 248 232 144 248 232 144 240 208 112 240 208 112 240 208 112 240 208 112 104 88 56 200 168 80 200 168 80 200 168 80 200 168 80 200 168 80 200 168 80 16 16 16 255 255 255 255 255 255 16 16 16 16 16 16 255 255 255 255 255 255 255 255 255 255 255 255 255 255 255 255 255 255 104 88 56 104 88 56 200 168 80 200 168 80 200 168 80 200 168 80 16 16 16 
255 255 255 104 88 56 200 168 80 200 168 80 200 168 80 200 168 80 200 168 80 240 208 112 240 208 112 104 88 56 240 208 112 240 208 112 200 168 80 104 88 56 248 240 200 248 240 200 248 240 200 248 240 200 248 240 200 248 240 200 248 240 200 248 240 200 248 240 200 248 240 200 153 153 102 153 153 102 153 153 102 104 88 56 240 208 112 240 208 112 248 232 144 248 232 144 248 232 144 248 232 144 248 232 144 248 232 144 240 208 112 240 208 112 240 208 112 240 208 112 200 168 80 200 168 80 200 168 80 200 168 80 200 168 80 200 168 80 16 16 16 255 255 255 255 255 255 255 255 255 255 255 255 255 255 255 255 255 255 255 255 255 255 255 255 255 255 255 104 88 56 200 168 80 200 168 80 200 168 80 200 168 80 200 168 80 16 16 16 255 255 255 
255 255 255 104 88 56 200 168 80 200 168 80 200 168 80 200 168 80 200 168 80 240 208 112 240 208 112 240 208 112 104 88 56 200 168 80 200 168 80 104 88 56 204 204 153 248 240 200 248 240 200 248 240 200 248 240 200 248 240 200 248 240 200 248 240 200 248 240 200 248 240 200 248 240 200 248 240 200 104 88 56 240 208 112 240 208 112 240 208 112 248 232 144 248 232 144 248 232 144 248 232 144 248 232 144 248 232 144 240 208 112 240 208 112 240 208 112 240 208 112 104 88 56 200 168 80 200 168 80 200 168 80 200 168 80 200 168 80 255 255 255 255 255 255 255 255 255 255 255 255 255 255 255 255 255 255 255 255 255 255 255 255 255 255 255 104 88 56 200 168 80 200 168 80 200 168 80 200 168 80 200 168 80 104 88 56 255 255 255 255 255 255 
255 255 255 16 16 16 200 168 80 200 168 80 200 168 80 200 168 80 200 168 80 200 168 80 240 208 112 240 208 112 16 16 16 200 168 80 200 168 80 104 88 56 153 153 102 204 204 153 204 204 153 248 240 200 248 240 200 248 240 200 248 240 200 248 240 200 248 240 200 204 204 153 204 204 153 104 88 56 240 208 112 240 208 112 240 208 112 240 208 112 112 112 112 112 112 112 112 112 112 248 232 144 112 112 112 112 112 112 240 208 112 240 208 112 240 208 112 240 208 112 200 168 80 200 168 80 200 168 80 200 168 80 200 168 80 104 88 56 255 255 255 255 255 255 255 255 255 255 255 255 255 255 255 255 255 255 255 255 255 255 255 255 255 255 255 104 88 56 240 208 112 200 168 80 200 168 80 200 168 80 200 168 80 16 16 16 255 255 255 255 255 255 
255 255 255 16 16 16 200 168 80 200 168 80 200 168 80 200 168 80 200 168 80 200 168 80 240 208 112 240 208 112 16 16 16 200 168 80 200 168 80 104 88 56 204 204 153 153 153 102 153 153 102 204 204 153 204 204 153 204 204 153 204 204 153 204 204 153 204 204 153 204 204 153 204 204 153 104 88 56 240 208 112 240 208 112 240 208 112 112 112 112 248 248 248 248 248 248 112 112 112 112 112 112 208 208 216 16 16 16 240 208 112 240 208 112 240 208 112 200 168 80 200 168 80 200 168 80 200 168 80 200 168 80 200 168 80 104 88 56 255 255 255 255 255 255 255 255 255 255 255 255 255 255 255 255 255 255 255 255 255 255 255 255 104 88 56 240 208 112 240 208 112 240 208 112 200 168 80 200 168 80 104 88 56 255 255 255 255 255 255 255 255 255 
255 255 255 255 255 255 104 88 56 200 168 80 200 168 80 200 168 80 200 168 80 200 168 80 240 208 112 240 208 112 16 16 16 200 168 80 200 168 80 104 88 56 204 204 153 204 204 153 204 204 153 153 153 102 153 153 102 153 153 102 204 204 153 204 204 153 204 204 153 204 204 153 104 88 56 240 208 112 240 208 112 240 208 112 104 88 56 248 248 248 248 248 248 208 208 216 112 112 112 248 248 248 208 208 216 16 16 16 240 208 112 240 208 112 240 208 112 200 168 80 200 168 80 200 168 80 200 168 80 200 168 80 200 168 80 16 16 16 255 255 255 255 255 255 255 255 255 255 255 255 255 255 255 255 255 255 255 255 255 255 255 255 16 16 16 240 208 112 240 208 112 240 208 112 200 168 80 200 168 80 16 16 16 255 255 255 255 255 255 255 255 255 
255 255 255 255 255 255 16 16 16 200 168 80 200 168 80 200 168 80 200 168 80 200 168 80 240 208 112 240 208 112 16 16 16 200 168 80 200 168 80 200 168 80 104 88 56 204 204 153 204 204 153 204 204 153 204 204 153 204 204 153 153 153 102 153 153 102 153 153 102 153 153 102 104 88 56 240 208 112 240 208 112 104 88 56 240 208 112 104 88 56 208 208 216 112 112 112 248 248 248 248 248 248 208 208 216 16 16 16 112 112 112 112 112 112 200 168 80 200 168 80 200 168 80 200 168 80 200 168 80 200 168 80 200 168 80 16 16 16 255 255 255 255 255 255 255 255 255 255 255 255 255 255 255 255 255 255 255 255 255 255 255 255 16 16 16 240 208 112 240 208 112 240 208 112 200 168 80 200 168 80 16 16 16 255 255 255 255 255 255 255 255 255 
255 255 255 255 255 255 16 16 16 200 168 80 200 168 80 200 168 80 200 168 80 200 168 80 240 208 112 240 208 112 16 16 16 200 168 80 200 168 80 200 168 80 104 88 56 204 204 153 204 204 153 204 204 153 204 204 153 204 204 153 204 204 153 204 204 153 204 204 153 104 88 56 240 208 112 240 208 112 104 88 56 240 208 112 240 208 112 240 208 112 104 88 56 104 88 56 248 248 248 248 248 248 208 208 216 16 16 16 248 248 248 16 16 16 200 168 80 200 168 80 200 168 80 200 168 80 200 168 80 200 168 80 200 168 80 104 88 56 16 16 16 255 255 255 255 255 255 255 255 255 255 255 255 255 255 255 255 255 255 255 255 255 16 16 16 240 208 112 240 208 112 240 208 112 200 168 80 200 168 80 104 88 56 255 255 255 255 255 255 255 255 255 
255 255 255 255 255 255 255 255 255 104 88 56 200 168 80 200 168 80 200 168 80 200 168 80 240 208 112 240 208 112 16 16 16 200 168 80 200 168 80 200 168 80 200 168 80 104 88 56 204 204 153 204 204 153 204 204 153 204 204 153 204 204 153 204 204 153 204 204 153 104 88 56 240 208 112 104 88 56 240 208 112 240 208 112 240 208 112 200 168 80 200 168 80 200 168 80 104 88 56 208 208 216 16 16 16 248 248 248 248 248 248 16 16 16 200 168 80 200 168 80 200 168 80 200 168 80 200 168 80 200 168 80 104 88 56 200 168 80 104 88 56 255 255 255 255 255 255 255 255 255 255 255 255 255 255 255 255 255 255 255 255 255 16 16 16 240 208 112 240 208 112 240 208 112 200 168 80 200 168 80 104 88 56 255 255 255 255 255 255 255 255 255 
255 255 255 255 255 255 255 255 255 16 16 16 200 168 80 200 168 80 200 168 80 200 168 80 240 208 112 240 208 112 104 88 56 200 168 80 200 168 80 200 168 80 200 168 80 104 88 56 153 153 102 153 153 102 204 204 153 204 204 153 204 204 153 204 204 153 204 204 153 104 88 56 240 208 112 104 88 56 240 208 112 240 208 112 200 168 80 200 168 80 200 168 80 200 168 80 200 168 80 104 88 56 104 88 56 248 248 248 208 208 216 16 16 16 200 168 80 200 168 80 200 168 80 200 168 80 200 168 80 200 168 80 16 16 16 200 168 80 200 168 80 16 16 16 255 255 255 255 255 255 255 255 255 255 255 255 255 255 255 255 255 255 104 88 56 240 208 112 240 208 112 240 208 112 200 168 80 200 168 80 200 168 80 16 16 16 255 255 255 255 255 255 
255 255 255 255 255 255 255 255 255 255 255 255 104 88 56 200 168 80 200 168 80 200 168 80 240 208 112 104 88 56 255 255 255 16 16 16 104 88 56 200 168 80 200 168 80 200 168 80 104 88 56 204 204 153 153 153 102 153 153 102 204 204 153 204 204 153 204 204 153 104 88 56 104 88 56 240 208 112 240 208 112 200 168 80 200 168 80 200 168 80 200 168 80 200 168 80 200 168 80 200 168 80 200 168 80 104 88 56 104 88 56 104 88 56 200 168 80 200 168 80 200 168 80 200 168 80 200 168 80 16 16 16 200 168 80 200 168 80 200 168 80 200 168 80 16 16 16 104 88 56 255 255 255 255 255 255 255 255 255 16 16 16 240 208 112 240 208 112 240 208 112 240 208 112 200 168 80 200 168 80 200 168 80 16 16 16 255 255 255 255 255 255 
255 255 255 255 255 255 255 255 255 255 255 255 255 255 255 16 16 16 16 16 16 16 16 16 16 16 16 255 255 255 255 255 255 255 255 255 255 255 255 104 88 56 16 16 16 16 16 16 16 16 16 104 88 56 204 204 153 204 204 153 153 153 102 153 153 102 153 153 102 104 88 56 104 88 56 240 208 112 240 208 112 200 168 80 200 168 80 200 168 80 200 168 80 200 168 80 200 168 80 200 168 80 200 168 80 200 168 80 200 168 80 104 88 56 200 168 80 200 168 80 200 168 80 200 168 80 200 168 80 104 88 56 200 168 80 200 168 80 200 168 80 200 168 80 200 168 80 200 168 80 104 88 56 104 88 56 104 88 56 240 208 112 240 208 112 240 208 112 240 208 112 200 168 80 200 168 80 200 168 80 200 168 80 16 16 16 255 255 255 255 255 255 
255 255 255 255 255 255 255 255 255 255 255 255 255 255 255 255 255 255 255 255 255 255 255 255 255 255 255 255 255 255 255 255 255 255 255 255 255 255 255 255 255 255 255 255 255 255 255 255 255 255 255 255 255 255 104 88 56 204 204 153 204 204 153 204 204 153 204 204 153 16 16 16 240 208 112 240 208 112 200 168 80 200 168 80 200 168 80 200 168 80 200 168 80 200 168 80 200 168 80 200 168 80 200 168 80 200 168 80 104 88 56 200 168 80 200 168 80 200 168 80 200 168 80 200 168 80 16 16 16 200 168 80 200 168 80 200 168 80 200 168 80 200 168 80 200 168 80 200 168 80 200 168 80 200 168 80 240 208 112 240 208 112 240 208 112 200 168 80 200 168 80 200 168 80 200 168 80 200 168 80 200 168 80 16 16 16 255 255 255 255 255 255 
255 255 255 255 255 255 255 255 255 255 255 255 255 255 255 255 255 255 255 255 255 255 255 255 255 255 255 255 255 255 255 255 255 255 255 255 255 255 255 255 255 255 255 255 255 255 255 255 255 255 255 255 255 255 255 255 255 16 16 16 104 88 56 204 204 153 204 204 153 16 16 16 240 208 112 240 208 112 200 168 80 200 168 80 200 168 80 200 168 80 200 168 80 200 168 80 200 168 80 200 168 80 200 168 80 200 168 80 16 16 16 200 168 80 200 168 80 200 168 80 200 168 80 16 16 16 200 168 80 200 168 80 200 168 80 200 168 80 200 168 80 200 168 80 200 168 80 200 168 80 200 168 80 200 168 80 200 168 80 200 168 80 200 168 80 200 168 80 200 168 80 200 168 80 200 168 80 200 168 80 200 168 80 16 16 16 255 255 255 255 255 255 
255 255 255 255 255 255 255 255 255 255 255 255 255 255 255 255 255 255 255 255 255 255 255 255 255 255 255 255 255 255 255 255 255 255 255 255 255 255 255 255 255 255 255 255 255 255 255 255 255 255 255 255 255 255 255 255 255 255 255 255 255 255 255 104 88 56 16 16 16 16 16 16 240 208 112 200 168 80 200 168 80 200 168 80 200 168 80 200 168 80 200 168 80 200 168 80 200 168 80 200 168 80 200 168 80 104 88 56 200 168 80 200 168 80 200 168 80 200 168 80 16 16 16 200 168 80 200 168 80 200 168 80 200 168 80 200 168 80 200 168 80 200 168 80 200 168 80 200 168 80 200 168 80 200 168 80 200 168 80 200 168 80 200 168 80 200 168 80 200 168 80 200 168 80 200 168 80 200 168 80 104 88 56 255 255 255 255 255 255 255 255 255 
255 255 255 255 255 255 255 255 255 255 255 255 255 255 255 255 255 255 255 255 255 255 255 255 255 255 255 255 255 255 255 255 255 255 255 255 255 255 255 255 255 255 255 255 255 255 255 255 255 255 255 255 255 255 255 255 255 255 255 255 255 255 255 255 255 255 255 255 255 16 16 16 240 208 112 200 168 80 200 168 80 200 168 80 200 168 80 200 168 80 200 168 80 200 168 80 200 168 80 200 168 80 200 168 80 16 16 16 200 168 80 200 168 80 200 168 80 16 16 16 200 168 80 200 168 80 200 168 80 200 168 80 200 168 80 200 168 80 200 168 80 200 168 80 200 168 80 200 168 80 200 168 80 200 168 80 200 168 80 200 168 80 200 168 80 200 168 80 200 168 80 200 168 80 200 168 80 200 168 80 104 88 56 255 255 255 255 255 255 255 255 255 
255 255 255 255 255 255 255 255 255 255 255 255 255 255 255 255 255 255 255 255 255 255 255 255 255 255 255 255 255 255 255 255 255 255 255 255 255 255 255 255 255 255 255 255 255 255 255 255 255 255 255 255 255 255 255 255 255 255 255 255 255 255 255 255 255 255 255 255 255 16 16 16 240 208 112 200 168 80 200 168 80 200 168 80 200 168 80 200 168 80 200 168 80 200 168 80 200 168 80 200 168 80 16 16 16 200 168 80 200 168 80 200 168 80 16 16 16 153 153 102 104 88 56 104 88 56 200 168 80 200 168 80 200 168 80 200 168 80 200 168 80 200 168 80 200 168 80 200 168 80 200 168 80 200 168 80 200 168 80 200 168 80 200 168 80 200 168 80 200 168 80 200 168 80 200 168 80 200 168 80 16 16 16 255 255 255 255 255 255 255 255 255 
255 255 255 255 255 255 255 255 255 255 255 255 255 255 255 255 255 255 255 255 255 255 255 255 255 255 255 255 255 255 255 255 255 255 255 255 255 255 255 255 255 255 255 255 255 255 255 255 255 255 255 255 255 255 255 255 255 255 255 255 255 255 255 255 255 255 255 255 255 255 255 255 104 88 56 200 168 80 200 168 80 200 168 80 200 168 80 200 168 80 200 168 80 200 168 80 200 168 80 16 16 16 200 168 80 200 168 80 104 88 56 16 16 16 153 153 102 204 204 153 204 204 153 204 204 153 104 88 56 104 88 56 104 88 56 200 168 80 200 168 80 200 168 80 200 168 80 200 168 80 200 168 80 200 168 80 200 168 80 200 168 80 200 168 80 200 168 80 200 168 80 200 168 80 200 168 80 16 16 16 255 255 255 255 255 255 255 255 255 255 255 255 
255 255 255 255 255 255 255 255 255 255 255 255 255 255 255 255 255 255 255 255 255 255 255 255 255 255 255 255 255 255 255 255 255 255 255 255 255 255 255 255 255 255 255 255 255 255 255 255 255 255 255 255 255 255 255 255 255 255 255 255 255 255 255 255 255 255 255 255 255 255 255 255 16 16 16 200 168 80 200 168 80 200 168 80 200 168 80 200 168 80 200 168 80 200 168 80 104 88 56 104 88 56 104 88 56 16 16 16 153 153 102 204 204 153 204 204 153 204 204 153 153 153 102 153 153 102 204 204 153 204 204 153 204 204 153 104 88 56 104 88 56 104 88 56 104 88 56 200 168 80 200 168 80 200 168 80 200 168 80 200 168 80 200 168 80 200 168 80 200 168 80 200 168 80 16 16 16 255 255 255 255 255 255 255 255 255 255 255 255 255 255 255 
255 255 255 255 255 255 255 255 255 255 255 255 255 255 255 255 255 255 255 255 255 255 255 255 255 255 255 255 255 255 255 255 255 255 255 255 255 255 255 255 255 255 255 255 255 255 255 255 255 255 255 255 255 255 255 255 255 255 255 255 255 255 255 255 255 255 255 255 255 255 255 255 255 255 255 104 88 56 200 168 80 200 168 80 200 168 80 200 168 80 104 88 56 16 16 16 255 255 255 16 16 16 16 16 16 204 204 153 204 204 153 204 204 153 153 153 102 153 153 102 204 204 153 204 204 153 204 204 153 204 204 153 204 204 153 153 153 102 153 153 102 204 204 153 204 204 153 104 88 56 104 88 56 104 88 56 104 88 56 104 88 56 104 88 56 104 88 56 16 16 16 16 16 16 255 255 255 255 255 255 255 255 255 255 255 255 255 255 255 255 255 255 
255 255 255 255 255 255 255 255 255 255 255 255 255 255 255 255 255 255 255 255 255 255 255 255 255 255 255 255 255 255 255 255 255 255 255 255 255 255 255 255 255 255 255 255 255 255 255 255 255 255 255 255 255 255 255 255 255 255 255 255 255 255 255 255 255 255 255 255 255 255 255 255 255 255 255 255 255 255 16 16 16 16 16 16 16 16 16 16 16 16 255 255 255 255 255 255 255 255 255 255 255 255 255 255 255 16 16 16 16 16 16 104 88 56 204 204 153 204 204 153 204 204 153 204 204 153 153 153 102 153 153 102 153 153 102 204 204 153 204 204 153 204 204 153 153 153 102 204 204 153 204 204 153 153 153 102 204 204 153 204 204 153 104 88 56 16 16 16 255 255 255 255 255 255 255 255 255 255 255 255 255 255 255 255 255 255 255 255 255 255 255 255 
255 255 255 255 255 255 255 255 255 255 255 255 255 255 255 255 255 255 255 255 255 255 255 255 255 255 255 255 255 255 255 255 255 255 255 255 255 255 255 255 255 255 255 255 255 255 255 255 255 255 255 255 255 255 255 255 255 255 255 255 255 255 255 255 255 255 255 255 255 255 255 255 255 255 255 255 255 255 255 255 255 255 255 255 255 255 255 255 255 255 255 255 255 255 255 255 255 255 255 255 255 255 255 255 255 255 255 255 255 255 255 255 255 255 16 16 16 16 16 16 16 16 16 16 16 16 104 88 56 204 204 153 204 204 153 204 204 153 153 153 102 153 153 102 204 204 153 204 204 153 153 153 102 16 16 16 16 16 16 16 16 16 255 255 255 255 255 255 255 255 255 255 255 255 255 255 255 255 255 255 255 255 255 255 255 255 255 255 255 255 255 255 
255 255 255 255 255 255 255 255 255 255 255 255 255 255 255 255 255 255 255 255 255 255 255 255 255 255 255 255 255 255 255 255 255 255 255 255 255 255 255 255 255 255 255 255 255 255 255 255 255 255 255 255 255 255 255 255 255 255 255 255 255 255 255 255 255 255 255 255 255 255 255 255 255 255 255 255 255 255 255 255 255 255 255 255 255 255 255 255 255 255 255 255 255 255 255 255 255 255 255 255 255 255 255 255 255 255 255 255 255 255 255 255 255 255 255 255 255 255 255 255 255 255 255 255 255 255 255 255 255 16 16 16 16 16 16 16 16 16 16 16 16 16 16 16 16 16 16 16 16 16 255 255 255 255 255 255 255 255 255 255 255 255 255 255 255 255 255 255 255 255 255 255 255 255 255 255 255 255 255 255 255 255 255 255 255 255 255 255 255 255 255 255 
