P3
64 64
255
255 255 255 255 255 255 255 255 255 255 255 255 255 255 255 255 255 255 255 255 255 255 255 255 255 255 255 255 255 255 255 255 255 255 255 255 255 255 255 255 255 255 255 255 255 255 255 255 255 255 255 255 255 255 255 255 255 255 255 255 255 255 255 255 255 255 255 255 255 255 255 255 255 255 255 255 255 255 255 255 255 255 255 255 255 255 255 255 255 255 255 255 255 255 255 255 255 255 255 255 255 255 255 255 255 255 255 255 255 255 255 255 255 255 255 255 255 255 255 255 255 255 255 255 255 255 255 255 255 255 255 255 255 255 255 255 255 255 255 255 255 255 255 255 255 255 255 255 255 255 255 255 255 255 255 255 255 255 255 255 255 255 255 255 255 255 255 255 255 255 255 255 255 255 255 255 255 255 255 255 255 255 255 255 255 255 255 255 255 255 255 255 
255 255 255 255 255 255 255 255 255 255 255 255 255 255 255 255 255 255 255 255 255 255 255 255 255 255 255 255 255 255 255 255 255 255 255 255 255 255 255 255 255 255 255 255 255 255 255 255 255 255 255 255 255 255 255 255 255 255 255 255 255 255 255 255 255 255 255 255 255 255 255 255 255 255 255 255 255 255 255 255 255 255 255 255 255 255 255 255 255 255 255 255 255 255 255 255 255 255 255 255 255 255 255 255 255 255 255 255 255 255 255 255 255 255 255 255 255 255 255 255 255 255 255 255 255 255 255 255 255 255 255 255 255 255 255 255 255 255 255 255 255 255 255 255 255 255 255 255 255 255 255 255 255 255 255 255 255 255 255 255 255 255 255 255 255 255 255 255 255 255 255 255 255 255 255 255 255 255 255 255 255 255 255 255 255 255 255 255 255 255 255 255 
255 255 255 255 255 255 255 255 255 255 255 255 255 255 255 255 255 255 255 255 255 255 255 255 255 255 255 255 255 255 255 255 255 255 255 255 255 255 255 255 255 255 255 255 255 255 255 255 255 255 255 255 255 255 255 255 255 255 255 255 255 255 255 255 255 255 255 255 255 255 255 255 255 255 255 255 255 255 255 255 255 255 255 255 255 255 255 255 255 255 255 255 255 255 255 255 255 255 255 255 255 255 255 255 255 255 255 255 255 255 255 255 255 255 255 255 255 255 255 255 255 255 255 255 255 255 255 255 255 255 255 255 255 255 255 255 255 255 255 255 255 255 255 255 255 255 255 255 255 255 255 255 255 255 255 255 255 255 255 255 255 255 255 255 255 255 255 255 255 255 255 255 255 255 255 255 255 255 255 255 255 255 255 255 255 255 255 255 255 255 255 255 
255 255 255 255 255 255 255 255 255 255 255 255 255 255 255 255 255 255 255 255 255 255 255 255 255 255 255 255 255 255 255 255 255 255 255 255 255 255 255 255 255 255 255 255 255 255 255 255 255 255 255 255 255 255 255 255 255 255 255 255 255 255 255 255 255 255 255 255 255 255 255 255 255 255 255 255 255 255 255 255 255 255 255 255 255 255 255 255 255 255 255 255 255 255 255 255 255 255 255 255 255 255 255 255 255 255 255 255 255 255 255 255 255 255 255 255 255 255 255 255 255 255 255 255 255 255 255 255 255 255 255 255 255 255 255 255 255 255 255 255 255 255 255 255 255 255 255 255 255 255 255 255 255 255 255 255 255 255 255 255 255 255 255 255 255 255 255 255 255 255 255 255 255 255 255 255 255 255 255 255 255 255 255 255 255 255 255 255 255 255 255 255 
255 255 255 255 255 255 255 255 255 255 255 255 255 255 255 255 255 255 255 255 255 255 255 255 255 255 255 255 255 255 255 255 255 255 255 255 255 255 255 255 255 255 255 255 255 255 255 255 255 255 255 255 255 255 255 255 255 255 255 255 255 255 255 255 255 255 255 255 255 255 255 255 255 255 255 255 255 255 255 255 255 255 255 255 255 255 255 255 255 255 255 255 255 255 255 255 255 255 255 255 255 255 255 255 255 255 255 255 255 255 255 255 255 255 255 255 255 255 255 255 255 255 255 255 255 255 255 255 255 255 255 255 255 255 255 255 255 255 255 255 255 255 255 255 255 255 255 255 255 255 255 255 255 255 255 255 255 255 255 255 255 255 255 255 255 255 255 255 255 255 255 255 255 255 255 255 255 255 255 255 255 255 255 255 255 255 255 255 255 255 255 255 
255 255 255 255 255 255 255 255 255 255 255 255 255 255 255 255 255 255 255 255 255 255 255 255 255 255 255 255 255 255 255 255 255 255 255 255 255 255 255 255 255 255 255 255 255 255 255 255 255 255 255 255 255 255 255 255 255 255 255 255 255 255 255 255 255 255 255 255 255 255 255 255 255 255 255 255 255 255 255 255 255 255 255 255 255 255 255 255 255 255 255 255 255 255 255 255 255 255 255 255 255 255 255 255 255 255 255 255 255 255 255 255 255 255 255 255 255 255 255 255 255 255 255 255 255 255 255 255 255 255 255 255 255 255 255 255 255 255 255 255 255 255 255 255 255 255 255 255 255 255 255 255 255 255 255 255 255 255 255 255 255 255 255 255 255 255 255 255 255 255 255 255 255 255 255 255 255 255 255 255 255 255 255 255 255 255 255 255 255 255 255 255 
255 255 255 255 255 255 255 255 255 255 255 255 255 255 255 255 255 255 255 255 255 255 255 255 255 255 255 255 255 255 255 255 255 255 255 255 255 255 255 255 255 255 255 255 255 255 255 255 255 255 255 255 255 255 255 255 255 255 255 255 255 255 255 255 255 255 255 255 255 255 255 255 255 255 255 255 255 255 255 255 255 255 255 255 255 255 255 255 255 255 255 255 255 255 255 255 255 255 255 255 255 255 255 255 255 255 255 255 255 255 255 255 255 255 255 255 255 255 255 255 255 255 255 255 255 255 255 255 255 255 255 255 255 255 255 255 255 255 255 255 255 255 255 255 255 255 255 255 255 255 255 255 255 255 255 255 255 255 255 255 255 255 255 255 255 255 255 255 255 255 255 255 255 255 255 255 255 255 255 255 255 255 255 255 255 255 255 255 255 255 255 255 
255 255 255 255 255 255 255 255 255 255 255 255 255 255 255 255 255 255 255 255 255 255 255 255 255 255 255 255 255 255 255 255 255 255 255 255 255 255 255 255 255 255 255 255 255 255 255 255 255 255 255 255 255 255 255 255 255 255 255 255 255 255 255 255 255 255 255 255 255 255 255 255 255 255 255 255 255 255 255 255 255 255 255 255 255 255 255 255 255 255 255 255 255 255 255 255 255 255 255 255 255 255 255 255 255 255 255 255 255 255 255 255 255 255 255 255 255 255 255 255 255 255 255 255 255 255 255 255 255 255 255 255 255 255 255 255 255 255 255 255 255 255 255 255 255 255 255 255 255 255 255 255 255 255 255 255 255 255 255 255 255 255 255 255 255 255 255 255 255 255 255 255 255 255 255 255 255 255 255 255 255 255 255 255 255 255 255 255 255 255 255 255 
255 255 255 255 255 255 255 255 255 255 255 255 255 255 255 255 255 255 255 255 255 255 255 255 255 255 255 255 255 255 255 255 255 128 64 120 128 64 120 128 64 120 255 255 255 255 255 255 255 255 255 255 255 255 255 255 255 255 255 255 255 255 255 255 255 255 255 255 255 255 255 255 255 255 255 255 255 255 255 255 255 255 255 255 255 255 255 255 255 255 255 255 255 255 255 255 255 255 255 128 64 120 255 255 255 255 255 255 255 255 255 255 255 255 255 255 255 255 255 255 255 255 255 255 255 255 255 255 255 255 255 255 255 255 255 255 255 255 255 255 255 255 255 255 255 255 255 255 255 255 255 255 255 255 255 255 255 255 255 255 255 255 255 255 255 255 255 255 255 255 255 255 255 255 255 255 255 255 255 255 255 255 255 255 255 255 255 255 255 255 255 255 
255 255 255 255 255 255 255 255 255 255 255 255 255 255 255 255 255 255 255 255 255 255 255 255 255 255 255 255 255 255 255 255 255 128 64 120 168 96 144 192 128 176 128 64 120 128 64 120 255 255 255 255 255 255 255 255 255 255 255 255 255 255 255 255 255 255 255 255 255 255 255 255 255 255 255 255 255 255 255 255 255 255 255 255 255 255 255 255 255 255 255 255 255 255 255 255 128 64 120 16 16 16 255 255 255 255 255 255 255 255 255 255 255 255 255 255 255 255 255 255 255 255 255 255 255 255 255 255 255 255 255 255 255 255 255 255 255 255 255 255 255 255 255 255 255 255 255 255 255 255 255 255 255 128 64 120 72 40 72 16 16 16 16 16 16 255 255 255 255 255 255 255 255 255 255 255 255 255 255 255 255 255 255 255 255 255 255 255 255 255 255 255 
255 255 255 255 255 255 255 255 255 255 255 255 255 255 255 255 255 255 255 255 255 255 255 255 255 255 255 255 255 255 255 255 255 128 64 120 168 96 144 192 128 176 192 128 176 192 128 176 128 64 120 16 16 16 255 255 255 255 255 255 255 255 255 255 255 255 255 255 255 255 255 255 255 255 255 255 255 255 255 255 255 128 64 120 255 255 255 255 255 255 255 255 255 128 64 120 192 128 176 16 16 16 255 255 255 255 255 255 255 255 255 255 255 255 255 255 255 255 255 255 255 255 255 255 255 255 255 255 255 255 255 255 255 255 255 255 255 255 255 255 255 255 255 255 72 40 72 72 40 72 128 64 120 168 96 144 168 96 144 128 64 120 16 16 16 255 255 255 255 255 255 255 255 255 255 255 255 255 255 255 255 255 255 255 255 255 255 255 255 255 255 255 
255 255 255 255 255 255 255 255 255 255 255 255 255 255 255 255 255 255 255 255 255 255 255 255 255 255 255 255 255 255 255 255 255 255 255 255 128 64 120 168 96 144 168 96 144 192 128 176 192 128 176 192 128 176 128 64 120 16 16 16 255 255 255 255 255 255 255 255 255 255 255 255 255 255 255 255 255 255 128 64 120 72 40 72 255 255 255 255 255 255 128 64 120 192 128 176 192 128 176 16 16 16 255 255 255 255 255 255 72 40 72 255 255 255 255 255 255 255 255 255 255 255 255 255 255 255 255 255 255 255 255 255 255 255 255 72 40 72 72 40 72 128 64 120 192 128 176 192 128 176 192 128 176 168 96 144 128 64 120 72 40 72 255 255 255 255 255 255 255 255 255 255 255 255 255 255 255 255 255 255 255 255 255 255 255 255 255 255 255 255 255 255 
255 255 255 255 255 255 255 255 255 255 255 255 255 255 255 255 255 255 255 255 255 255 255 255 255 255 255 255 255 255 255 255 255 255 255 255 72 40 72 128 64 120 168 96 144 168 96 144 168 96 144 192 128 176 192 128 176 192 128 176 128 64 120 16 16 16 255 255 255 255 255 255 255 255 255 128 64 120 192 128 176 16 16 16 72 40 72 72 40 72 128 64 120 192 128 176 192 128 176 128 64 120 72 40 72 128 64 120 16 16 16 255 255 255 255 255 255 255 255 255 255 255 255 255 255 255 72 40 72 72 40 72 128 64 120 192 128 176 192 128 176 192 128 176 192 128 176 168 96 144 168 96 144 128 64 120 128 64 120 16 16 16 255 255 255 255 255 255 255 255 255 255 255 255 255 255 255 255 255 255 255 255 255 255 255 255 255 255 255 255 255 255 
255 255 255 255 255 255 255 255 255 255 255 255 255 255 255 255 255 255 255 255 255 255 255 255 255 255 255 255 255 255 255 255 255 255 255 255 72 40 72 128 64 120 128 64 120 168 96 144 168 96 144 168 96 144 192 128 176 192 128 176 192 128 176 192 128 176 128 64 120 72 40 72 72 40 72 192 128 176 168 96 144 128 64 120 72 40 72 128 64 120 192 128 176 192 128 176 128 64 120 128 64 120 72 40 72 192 128 176 16 16 16 255 255 255 255 255 255 72 40 72 72 40 72 128 64 120 192 128 176 192 128 176 192 128 176 192 128 176 192 128 176 192 128 176 168 96 144 168 96 144 128 64 120 128 64 120 72 40 72 255 255 255 255 255 255 255 255 255 255 255 255 255 255 255 255 255 255 255 255 255 255 255 255 255 255 255 255 255 255 255 255 255 
255 255 255 255 255 255 255 255 255 255 255 255 255 255 255 255 255 255 255 255 255 255 255 255 255 255 255 255 255 255 255 255 255 255 255 255 255 255 255 72 40 72 128 64 120 128 64 120 168 96 144 168 96 144 168 96 144 192 128 176 192 128 176 128 64 120 128 64 120 168 96 144 168 96 144 168 96 144 168 96 144 168 96 144 128 64 120 128 64 120 128 64 120 128 64 120 128 64 120 128 64 120 192 128 176 128 64 120 72 40 72 72 40 72 72 40 72 168 96 144 192 128 176 192 128 176 192 128 176 192 128 176 192 128 176 192 128 176 168 96 144 168 96 144 128 64 120 128 64 120 128 64 120 128 64 120 16 16 16 255 255 255 255 255 255 255 255 255 255 255 255 255 255 255 255 255 255 255 255 255 255 255 255 255 255 255 255 255 255 255 255 255 
255 255 255 255 255 255 255 255 255 255 255 255 255 255 255 255 255 255 255 255 255 255 255 255 255 255 255 255 255 255 255 255 255 255 255 255 255 255 255 72 40 72 128 64 120 128 64 120 128 64 120 168 96 144 168 96 144 168 96 144 128 64 120 168 96 144 168 96 144 168 96 144 168 96 144 168 96 144 168 96 144 168 96 144 128 64 120 128 64 120 128 64 120 128 64 120 128 64 120 128 64 120 128 64 120 128 64 120 128 64 120 128 64 120 128 64 120 168 96 144 192 128 176 192 128 176 192 128 176 192 128 176 192 128 176 168 96 144 168 96 144 128 64 120 128 64 120 128 64 120 128 64 120 72 40 72 255 255 255 255 255 255 255 255 255 255 255 255 255 255 255 255 255 255 255 255 255 255 255 255 255 255 255 255 255 255 255 255 255 255 255 255 
255 255 255 255 255 255 255 255 255 255 255 255 255 255 255 255 255 255 255 255 255 255 255 255 255 255 255 255 255 255 255 255 255 255 255 255 255 255 255 72 40 72 128 64 120 128 64 120 128 64 120 128 64 120 168 96 144 168 96 144 168 96 144 168 96 144 192 128 176 192 128 176 192 128 176 168 96 144 168 96 144 168 96 144 168 96 144 128 64 120 128 64 120 128 64 120 128 64 120 128 64 120 128 64 120 128 64 120 128 64 120 128 64 120 128 64 120 168 96 144 168 96 144 168 96 144 168 96 144 168 96 144 168 96 144 168 96 144 128 64 120 128 64 120 128 64 120 128 64 120 128 64 120 16 16 16 255 255 255 255 255 255 255 255 255 255 255 255 255 255 255 255 255 255 255 255 255 255 255 255 255 255 255 255 255 255 255 255 255 255 255 255 
255 255 255 255 255 255 255 255 255 255 255 255 255 255 255 255 255 255 255 255 255 255 255 255 255 255 255 255 255 255 255 255 255 255 255 255 255 255 255 255 255 255 72 40 72 128 64 120 128 64 120 128 64 120 128 64 120 168 96 144 168 96 144 192 128 176 192 128 176 192 128 176 168 96 144 192 128 176 168 96 144 168 96 144 168 96 144 128 64 120 128 64 120 128 64 120 128 64 120 128 64 120 128 64 120 128 64 120 128 64 120 128 64 120 128 64 120 128 64 120 128 64 120 168 96 144 168 96 144 168 96 144 128 64 120 128 64 120 128 64 120 128 64 120 128 64 120 128 64 120 16 16 16 255 255 255 255 255 255 255 255 255 255 255 255 255 255 255 255 255 255 255 255 255 255 255 255 255 255 255 255 255 255 255 255 255 255 255 255 255 255 255 
255 255 255 255 255 255 255 255 255 255 255 255 255 255 255 255 255 255 255 255 255 255 255 255 255 255 255 255 255 255 255 255 255 255 255 255 255 255 255 255 255 255 16 16 16 128 64 120 128 64 120 72 40 72 168 96 144 168 96 144 192 128 176 192 128 176 192 128 176 168 96 144 192 128 176 168 96 144 168 96 144 168 96 144 168 96 144 128 64 120 128 64 120 128 64 120 128 64 120 128 64 120 128 64 120 128 64 120 128 64 120 128 64 120 128 64 120 128 64 120 128 64 120 128 64 120 128 64 120 128 64 120 128 64 120 128 64 120 128 64 120 128 64 120 128 64 120 128 64 120 16 16 16 255 255 255 255 255 255 255 255 255 255 255 255 255 255 255 255 255 255 255 255 255 255 255 255 255 255 255 255 255 255 255 255 255 255 255 255 255 255 255 
255 255 255 255 255 255 255 255 255 255 255 255 255 255 255 255 255 255 255 255 255 255 255 255 255 255 255 255 255 255 255 255 255 255 255 255 255 255 255 255 255 255 16 16 16 128 64 120 72 40 72 168 96 144 168 96 144 168 96 144 192 128 176 192 128 176 168 96 144 192 128 176 168 96 144 192 128 176 168 96 144 168 96 144 128 64 120 128 64 120 128 64 120 128 64 120 128 64 120 128 64 120 128 64 120 128 64 120 128 64 120 128 64 120 128 64 120 128 64 120 128 64 120 128 64 120 128 64 120 128 64 120 128 64 120 128 64 120 128 64 120 128 64 120 128 64 120 72 40 72 255 255 255 255 255 255 255 255 255 255 255 255 255 255 255 255 255 255 255 255 255 255 255 255 255 255 255 255 255 255 255 255 255 255 255 255 255 255 255 255 255 255 
255 255 255 255 255 255 255 255 255 255 255 255 255 255 255 255 255 255 255 255 255 255 255 255 255 255 255 128 64 120 128 64 120 255 255 255 255 255 255 255 255 255 255 255 255 72 40 72 72 40 72 168 96 144 168 96 144 168 96 144 168 96 144 168 96 144 192 128 176 168 96 144 192 128 176 168 96 144 168 96 144 168 96 144 128 64 120 128 64 120 128 64 120 128 64 120 128 64 120 128 64 120 128 64 120 128 64 120 128 64 120 128 64 120 128 64 120 128 64 120 128 64 120 128 64 120 128 64 120 128 64 120 128 64 120 128 64 120 128 64 120 128 64 120 128 64 120 16 16 16 255 255 255 255 255 255 255 255 255 255 255 255 255 255 255 255 255 255 255 255 255 255 255 255 255 255 255 255 255 255 255 255 255 255 255 255 255 255 255 255 255 255 
255 255 255 255 255 255 255 255 255 255 255 255 255 255 255 255 255 255 128 64 120 128 64 120 255 255 255 128 64 120 168 96 144 72 40 72 255 255 255 255 255 255 255 255 255 72 40 72 192 128 176 168 96 144 168 96 144 168 96 144 168 96 144 168 96 144 168 96 144 168 96 144 168 96 144 168 96 144 168 96 144 128 64 120 128 64 120 128 64 120 128 64 120 128 64 120 128 64 120 128 64 120 128 64 120 128 64 120 128 64 120 128 64 120 72 40 72 128 64 120 128 64 120 128 64 120 128 64 120 128 64 120 128 64 120 128 64 120 128 64 120 128 64 120 72 40 72 255 255 255 255 255 255 255 255 255 255 255 255 255 255 255 255 255 255 255 255 255 255 255 255 255 255 255 255 255 255 255 255 255 255 255 255 255 255 255 255 255 255 255 255 255 
255 255 255 255 255 255 255 255 255 255 255 255 255 255 255 255 255 255 128 64 120 192 128 176 72 40 72 72 40 72 168 96 144 72 40 72 255 255 255 255 255 255 255 255 255 168 96 144 192 128 176 168 96 144 192 128 176 192 128 176 192 128 176 168 96 144 168 96 144 168 96 144 168 96 144 168 96 144 128 64 120 128 64 120 128 64 120 128 64 120 128 64 120 128 64 120 128 64 120 128 64 120 128 64 120 128 64 120 128 64 120 128 64 120 72 40 72 128 64 120 128 64 120 128 64 120 128 64 120 128 64 120 128 64 120 128 64 120 128 64 120 128 64 120 192 128 176 72 40 72 72 40 72 16 16 16 255 255 255 255 255 255 255 255 255 255 255 255 255 255 255 255 255 255 255 255 255 255 255 255 255 255 255 255 255 255 255 255 255 255 255 255 
255 255 255 255 255 255 255 255 255 255 255 255 255 255 255 255 255 255 255 255 255 72 40 72 128 64 120 192 128 176 72 40 72 72 40 72 255 255 255 255 255 255 128 64 120 192 128 176 192 128 176 128 64 120 128 64 120 192 128 176 192 128 176 192 128 176 168 96 144 168 96 144 168 96 144 128 64 120 128 64 120 128 64 120 128 64 120 128 64 120 128 64 120 168 96 144 168 96 144 128 64 120 128 64 120 128 64 120 72 40 72 72 40 72 128 64 120 128 64 120 128 64 120 128 64 120 128 64 120 128 64 120 128 64 120 128 64 120 128 64 120 128 64 120 192 128 176 192 128 176 192 128 176 16 16 16 255 255 255 255 255 255 255 255 255 255 255 255 255 255 255 255 255 255 255 255 255 255 255 255 255 255 255 255 255 255 255 255 255 255 255 255 
255 255 255 255 255 255 255 255 255 255 255 255 255 255 255 128 64 120 128 64 120 128 64 120 192 128 176 72 40 72 168 96 144 192 128 176 128 64 120 255 255 255 168 96 144 192 128 176 192 128 176 200 56 32 200 56 32 128 64 120 128 64 120 192 128 176 168 96 144 168 96 144 128 64 120 128 64 120 128 64 120 128 64 120 128 64 120 128 64 120 168 96 144 192 128 176 168 96 144 168 96 144 128 64 120 200 56 32 200 56 32 200 56 32 128 64 120 128 64 120 128 64 120 128 64 120 128 64 120 128 64 120 128 64 120 128 64 120 128 64 120 128 64 120 128 64 120 128 64 120 16 16 16 255 255 255 255 255 255 255 255 255 255 255 255 255 255 255 255 255 255 255 255 255 255 255 255 255 255 255 255 255 255 255 255 255 255 255 255 255 255 255 
255 255 255 255 255 255 255 255 255 255 255 255 255 255 255 128 64 120 192 128 176 128 64 120 192 128 176 72 40 72 168 96 144 192 128 176 192 128 176 128 64 120 168 96 144 192 128 176 128 64 120 248 176 120 232 96 72 200 56 32 200 56 32 128 64 120 128 64 120 168 96 144 128 64 120 128 64 120 128 64 120 128 64 120 128 64 120 168 96 144 192 128 176 192 128 176 168 96 144 128 64 120 200 56 32 232 96 72 232 96 72 200 56 32 128 64 120 128 64 120 128 64 120 128 64 120 128 64 120 128 64 120 128 64 120 128 64 120 128 64 120 128 64 120 128 64 120 16 16 16 255 255 255 255 255 255 255 255 255 255 255 255 255 255 255 255 255 255 255 255 255 255 255 255 255 255 255 255 255 255 255 255 255 255 255 255 255 255 255 255 255 255 
255 255 255 255 255 255 255 255 255 255 255 255 255 255 255 255 255 255 128 64 120 192 128 176 192 128 176 192 128 176 192 128 176 192 128 176 192 128 176 128 64 120 192 128 176 192 128 176 128 64 120 248 176 120 248 176 120 232 96 72 232 96 72 200 56 32 72 40 72 128 64 120 128 64 120 128 64 120 128 64 120 128 64 120 128 64 120 168 96 144 192 128 176 168 96 144 128 64 120 200 56 32 232 96 72 232 96 72 232 96 72 200 56 32 128 64 120 128 64 120 128 64 120 128 64 120 128 64 120 128 64 120 128 64 120 128 64 120 128 64 120 128 64 120 72 40 72 128 64 120 16 16 16 255 255 255 255 255 255 255 255 255 255 255 255 255 255 255 255 255 255 255 255 255 255 255 255 255 255 255 255 255 255 255 255 255 255 255 255 255 255 255 
255 255 255 255 255 255 255 255 255 255 255 255 255 255 255 255 255 255 16 16 16 192 128 176 192 128 176 192 128 176 192 128 176 192 128 176 192 128 176 128 64 120 192 128 176 192 128 176 128 64 120 248 176 120 248 176 120 232 96 72 16 16 16 232 96 72 200 56 32 72 40 72 128 64 120 128 64 120 128 64 120 128 64 120 128 64 120 168 96 144 168 96 144 72 40 72 200 56 32 16 16 16 232 96 72 232 96 72 232 96 72 200 56 32 128 64 120 128 64 120 128 64 120 72 40 72 128 64 120 128 64 120 128 64 120 128 64 120 128 64 120 128 64 120 128 64 120 128 64 120 128 64 120 16 16 16 255 255 255 72 40 72 72 40 72 255 255 255 72 40 72 16 16 16 255 255 255 255 255 255 255 255 255 255 255 255 255 255 255 255 255 255 
255 255 255 255 255 255 255 255 255 255 255 255 255 255 255 255 255 255 72 40 72 192 128 176 192 128 176 192 128 176 192 128 176 192 128 176 168 96 144 128 64 120 192 128 176 168 96 144 128 64 120 72 40 72 232 96 72 232 96 72 16 16 16 232 96 72 232 96 72 200 56 32 128 64 120 128 64 120 128 64 120 128 64 120 128 64 120 72 40 72 72 40 72 200 56 32 232 96 72 16 16 16 232 96 72 232 96 72 200 56 32 128 64 120 128 64 120 128 64 120 72 40 72 72 40 72 128 64 120 128 64 120 128 64 120 128 64 120 128 64 120 128 64 120 72 40 72 16 16 16 16 16 16 16 16 16 72 40 72 168 96 144 72 40 72 72 40 72 192 128 176 16 16 16 255 255 255 255 255 255 255 255 255 255 255 255 255 255 255 255 255 255 
255 255 255 255 255 255 255 255 255 255 255 255 255 255 255 255 255 255 255 255 255 72 40 72 168 96 144 192 128 176 192 128 176 168 96 144 168 96 144 168 96 144 192 128 176 168 96 144 72 40 72 128 64 120 128 64 120 128 64 120 128 64 120 128 64 120 128 64 120 128 64 120 128 64 120 128 64 120 128 64 120 128 64 120 128 64 120 128 64 120 128 64 120 128 64 120 128 64 120 128 64 120 128 64 120 128 64 120 128 64 120 128 64 120 128 64 120 72 40 72 216 216 216 72 40 72 128 64 120 128 64 120 128 64 120 72 40 72 72 40 72 72 40 72 128 64 120 128 64 120 192 128 176 168 96 144 168 96 144 168 96 144 72 40 72 128 64 120 128 64 120 16 16 16 255 255 255 255 255 255 255 255 255 255 255 255 255 255 255 255 255 255 
255 255 255 255 255 255 255 255 255 255 255 255 255 255 255 255 255 255 255 255 255 16 16 16 128 64 120 168 96 144 168 96 144 168 96 144 128 64 120 192 128 176 192 128 176 168 96 144 72 40 72 72 40 72 128 64 120 128 64 120 128 64 120 128 64 120 128 64 120 128 64 120 128 64 120 128 64 120 128 64 120 128 64 120 128 64 120 128 64 120 128 64 120 128 64 120 128 64 120 128 64 120 128 64 120 128 64 120 128 64 120 72 40 72 72 40 72 216 216 216 216 216 216 128 64 120 128 64 120 128 64 120 128 64 120 168 96 144 192 128 176 192 128 176 168 96 144 192 128 176 168 96 144 168 96 144 168 96 144 72 40 72 128 64 120 128 64 120 72 40 72 255 255 255 255 255 255 255 255 255 255 255 255 255 255 255 255 255 255 255 255 255 
255 255 255 255 255 255 255 255 255 255 255 255 255 255 255 255 255 255 255 255 255 255 255 255 72 40 72 168 96 144 168 96 144 168 96 144 128 64 120 192 128 176 192 128 176 168 96 144 72 40 72 216 216 216 216 216 216 72 40 72 72 40 72 128 64 120 128 64 120 128 64 120 128 64 120 128 64 120 128 64 120 128 64 120 128 64 120 128 64 120 128 64 120 128 64 120 128 64 120 128 64 120 128 64 120 128 64 120 72 40 72 120 120 120 216 216 216 216 216 216 168 96 144 128 64 120 128 64 120 128 64 120 128 64 120 168 96 144 192 128 176 192 128 176 192 128 176 168 96 144 192 128 176 168 96 144 168 96 144 168 96 144 128 64 120 128 64 120 16 16 16 16 16 16 16 16 16 255 255 255 255 255 255 255 255 255 255 255 255 255 255 255 
255 255 255 255 255 255 255 255 255 255 255 255 255 255 255 255 255 255 255 255 255 255 255 255 16 16 16 128 64 120 168 96 144 128 64 120 128 64 120 192 128 176 192 128 176 168 96 144 72 40 72 216 216 216 248 248 248 120 120 120 216 216 216 120 120 120 72 40 72 72 40 72 72 40 72 72 40 72 72 40 72 72 40 72 72 40 72 72 40 72 72 40 72 72 40 72 72 40 72 72 40 72 120 120 120 216 216 216 216 216 216 120 120 120 248 248 248 216 216 216 128 64 120 128 64 120 128 64 120 128 64 120 128 64 120 168 96 144 192 128 176 192 128 176 192 128 176 192 128 176 192 128 176 192 128 176 168 96 144 168 96 144 168 96 144 128 64 120 128 64 120 192 128 176 16 16 16 255 255 255 255 255 255 255 255 255 255 255 255 255 255 255 
255 255 255 255 255 255 255 255 255 255 255 255 255 255 255 255 255 255 255 255 255 255 255 255 255 255 255 72 40 72 128 64 120 128 64 120 72 40 72 192 128 176 192 128 176 168 96 144 168 96 144 168 96 144 248 248 248 120 120 120 248 248 248 216 216 216 216 216 216 120 120 120 216 216 216 216 216 216 216 216 216 216 216 216 216 216 216 216 216 216 216 216 216 216 216 216 120 120 120 216 216 216 216 216 216 248 248 248 248 248 248 120 120 120 248 248 248 168 96 144 128 64 120 128 64 120 128 64 120 128 64 120 128 64 120 128 64 120 168 96 144 192 128 176 192 128 176 192 128 176 168 96 144 168 96 144 168 96 144 128 64 120 128 64 120 128 64 120 128 64 120 16 16 16 255 255 255 255 255 255 255 255 255 255 255 255 255 255 255 255 255 255 
255 255 255 255 255 255 255 255 255 255 255 255 255 255 255 255 255 255 255 255 255 255 255 255 255 255 255 16 16 16 128 64 120 128 64 120 72 40 72 192 128 176 192 128 176 192 128 176 168 96 144 128 64 120 216 216 216 120 120 120 248 248 248 248 248 248 248 248 248 120 120 120 248 248 248 248 248 248 248 248 248 248 248 248 248 248 248 248 248 248 248 248 248 248 248 248 120 120 120 248 248 248 248 248 248 248 248 248 248 248 248 120 120 120 168 96 144 128 64 120 128 64 120 128 64 120 128 64 120 128 64 120 128 64 120 128 64 120 128 64 120 168 96 144 168 96 144 168 96 144 168 96 144 128 64 120 128 64 120 128 64 120 128 64 120 128 64 120 16 16 16 255 255 255 255 255 255 255 255 255 255 255 255 255 255 255 255 255 255 255 255 255 
255 255 255 255 255 255 255 255 255 255 255 255 255 255 255 255 255 255 255 255 255 255 255 255 255 255 255 255 255 255 16 16 16 128 64 120 72 40 72 192 128 176 192 128 176 192 128 176 168 96 144 168 96 144 168 96 144 120 120 120 248 248 248 248 248 248 248 248 248 120 120 120 248 248 248 248 248 248 248 248 248 248 248 248 248 248 248 248 248 248 248 248 248 248 248 248 120 120 120 248 248 248 248 248 248 248 248 248 216 216 216 128 64 120 128 64 120 128 64 120 128 64 120 128 64 120 128 64 120 128 64 120 128 64 120 128 64 120 128 64 120 128 64 120 128 64 120 128 64 120 128 64 120 128 64 120 128 64 120 128 64 120 16 16 16 16 16 16 255 255 255 255 255 255 255 255 255 255 255 255 255 255 255 255 255 255 255 255 255 255 255 255 
255 255 255 255 255 255 255 255 255 255 255 255 255 255 255 255 255 255 255 255 255 255 255 255 255 255 255 255 255 255 255 255 255 16 16 16 72 40 72 192 128 176 192 128 176 192 128 176 192 128 176 168 96 144 128 64 120 120 120 120 248 248 248 248 248 248 248 248 248 120 120 120 248 248 248 248 248 248 248 248 248 248 248 248 248 248 248 248 248 248 248 248 248 248 248 248 120 120 120 248 248 248 248 248 248 216 216 216 168 96 144 128 64 120 128 64 120 128 64 120 128 64 120 128 64 120 128 64 120 128 64 120 128 64 120 128 64 120 128 64 120 128 64 120 128 64 120 128 64 120 128 64 120 128 64 120 72 40 72 16 16 16 255 255 255 255 255 255 255 255 255 255 255 255 255 255 255 255 255 255 255 255 255 255 255 255 255 255 255 255 255 255 
255 255 255 255 255 255 255 255 255 255 255 255 255 255 255 255 255 255 255 255 255 255 255 255 255 255 255 255 255 255 255 255 255 255 255 255 72 40 72 192 128 176 192 128 176 192 128 176 192 128 176 168 96 144 168 96 144 128 64 120 168 96 144 216 216 216 216 216 216 120 120 120 248 248 248 248 248 248 248 248 248 248 248 248 248 248 248 248 248 248 248 248 248 248 248 248 120 120 120 248 248 248 168 96 144 128 64 120 128 64 120 128 64 120 128 64 120 128 64 120 128 64 120 128 64 120 128 64 120 128 64 120 128 64 120 128 64 120 128 64 120 128 64 120 128 64 120 128 64 120 72 40 72 16 16 16 255 255 255 255 255 255 255 255 255 255 255 255 255 255 255 255 255 255 255 255 255 255 255 255 255 255 255 255 255 255 255 255 255 255 255 255 
255 255 255 255 255 255 255 255 255 255 255 255 255 255 255 255 255 255 255 255 255 255 255 255 255 255 255 255 255 255 255 255 255 255 255 255 72 40 72 192 128 176 192 128 176 192 128 176 192 128 176 168 96 144 168 96 144 168 96 144 128 64 120 128 64 120 168 96 144 120 120 120 216 216 216 216 216 216 216 216 216 216 216 216 216 216 216 216 216 216 216 216 216 168 96 144 128 64 120 128 64 120 128 64 120 128 64 120 128 64 120 128 64 120 128 64 120 128 64 120 128 64 120 128 64 120 128 64 120 128 64 120 128 64 120 128 64 120 128 64 120 128 64 120 16 16 16 16 16 16 255 255 255 255 255 255 255 255 255 255 255 255 255 255 255 255 255 255 255 255 255 255 255 255 255 255 255 255 255 255 255 255 255 255 255 255 255 255 255 255 255 255 
255 255 255 255 255 255 255 255 255 255 255 255 255 255 255 255 255 255 255 255 255 255 255 255 255 255 255 255 255 255 255 255 255 255 255 255 128 64 120 192 128 176 192 128 176 192 128 176 192 128 176 192 128 176 168 96 144 168 96 144 168 96 144 168 96 144 128 64 120 128 64 120 128 64 120 128 64 120 128 64 120 128 64 120 128 64 120 128 64 120 128 64 120 128 64 120 128 64 120 128 64 120 128 64 120 128 64 120 128 64 120 128 64 120 128 64 120 128 64 120 128 64 120 128 64 120 128 64 120 128 64 120 128 64 120 128 64 120 72 40 72 72 40 72 72 40 72 255 255 255 255 255 255 255 255 255 255 255 255 255 255 255 255 255 255 255 255 255 255 255 255 255 255 255 255 255 255 255 255 255 255 255 255 255 255 255 255 255 255 255 255 255 
255 255 255 255 255 255 255 255 255 255 255 255 255 255 255 255 255 255 255 255 255 255 255 255 255 255 255 255 255 255 255 255 255 255 255 255 255 255 255 128 64 120 192 128 176 192 128 176 192 128 176 192 128 176 192 128 176 168 96 144 168 96 144 168 96 144 128 64 120 128 64 120 128 64 120 128 64 120 128 64 120 128 64 120 128 64 120 128 64 120 128 64 120 128 64 120 128 64 120 128 64 120 128 64 120 128 64 120 128 64 120 128 64 120 128 64 120 128 64 120 128 64 120 128 64 120 128 64 120 128 64 120 128 64 120 72 40 72 128 64 120 128 64 120 72 40 72 255 255 255 255 255 255 255 255 255 255 255 255 255 255 255 255 255 255 255 255 255 255 255 255 255 255 255 255 255 255 255 255 255 255 255 255 255 255 255 255 255 255 255 255 255 
255 255 255 255 255 255 255 255 255 255 255 255 255 255 255 255 255 255 255 255 255 255 255 255 255 255 255 255 255 255 255 255 255 255 255 255 255 255 255 72 40 72 192 128 176 192 128 176 192 128 176 192 128 176 192 128 176 192 128 176 168 96 144 168 96 144 168 96 144 128 64 120 128 64 120 128 64 120 128 64 120 128 64 120 128 64 120 128 64 120 128 64 120 128 64 120 128 64 120 128 64 120 128 64 120 128 64 120 128 64 120 128 64 120 128 64 120 128 64 120 128 64 120 128 64 120 128 64 120 128 64 120 128 64 120 128 64 120 128 64 120 128 64 120 72 40 72 255 255 255 255 255 255 255 255 255 255 255 255 255 255 255 255 255 255 255 255 255 255 255 255 255 255 255 255 255 255 255 255 255 255 255 255 255 255 255 255 255 255 255 255 255 
255 255 255 255 255 255 255 255 255 255 255 255 255 255 255 255 255 255 255 255 255 255 255 255 255 255 255 255 255 255 255 255 255 255 255 255 255 255 255 128 64 120 192 128 176 192 128 176 192 128 176 192 128 176 192 128 176 192 128 176 168 96 144 168 96 144 168 96 144 128 64 120 128 64 120 128 64 120 128 64 120 128 64 120 128 64 120 128 64 120 128 64 120 128 64 120 128 64 120 128 64 120 128 64 120 128 64 120 128 64 120 128 64 120 128 64 120 128 64 120 128 64 120 128 64 120 128 64 120 128 64 120 128 64 120 128 64 120 128 64 120 128 64 120 128 64 120 72 40 72 255 255 255 255 255 255 255 255 255 255 255 255 255 255 255 255 255 255 255 255 255 255 255 255 255 255 255 255 255 255 255 255 255 255 255 255 255 255 255 255 255 255 
255 255 255 255 255 255 255 255 255 255 255 255 255 255 255 255 255 255 255 255 255 255 255 255 255 255 255 255 255 255 255 255 255 255 255 255 255 255 255 255 255 255 128 64 120 192 128 176 192 128 176 192 128 176 192 128 176 192 128 176 192 128 176 168 96 144 168 96 144 128 64 120 128 64 120 128 64 120 128 64 120 128 64 120 128 64 120 128 64 120 128 64 120 128 64 120 128 64 120 128 64 120 128 64 120 128 64 120 128 64 120 128 64 120 128 64 120 128 64 120 128 64 120 128 64 120 128 64 120 128 64 120 128 64 120 128 64 120 128 64 120 128 64 120 128 64 120 16 16 16 255 255 255 255 255 255 255 255 255 255 255 255 255 255 255 255 255 255 255 255 255 255 255 255 255 255 255 255 255 255 255 255 255 255 255 255 255 255 255 255 255 255 
255 255 255 255 255 255 255 255 255 255 255 255 255 255 255 255 255 255 255 255 255 255 255 255 255 255 255 255 255 255 255 255 255 255 255 255 255 255 255 255 255 255 72 40 72 168 96 144 192 128 176 192 128 176 192 128 176 192 128 176 192 128 176 168 96 144 168 96 144 168 96 144 128 64 120 128 64 120 128 64 120 128 64 120 128 64 120 128 64 120 128 64 120 128 64 120 128 64 120 128 64 120 128 64 120 128 64 120 128 64 120 128 64 120 128 64 120 128 64 120 128 64 120 128 64 120 128 64 120 128 64 120 128 64 120 128 64 120 128 64 120 128 64 120 128 64 120 16 16 16 255 255 255 255 255 255 255 255 255 255 255 255 255 255 255 255 255 255 255 255 255 255 255 255 255 255 255 255 255 255 255 255 255 255 255 255 255 255 255 255 255 255 
255 255 255 255 255 255 255 255 255 255 255 255 255 255 255 255 255 255 255 255 255 255 255 255 255 255 255 255 255 255 255 255 255 255 255 255 255 255 255 255 255 255 72 40 72 72 40 72 192 128 176 192 128 176 192 128 176 192 128 176 192 128 176 168 96 144 168 96 144 168 96 144 168 96 144 128 64 120 128 64 120 128 64 120 128 64 120 128 64 120 128 64 120 128 64 120 128 64 120 128 64 120 128 64 120 128 64 120 128 64 120 128 64 120 128 64 120 128 64 120 128 64 120 128 64 120 128 64 120 128 64 120 128 64 120 128 64 120 128 64 120 128 64 120 128 64 120 72 40 72 255 255 255 255 255 255 255 255 255 255 255 255 255 255 255 255 255 255 255 255 255 255 255 255 255 255 255 255 255 255 255 255 255 255 255 255 255 255 255 255 255 255 
255 255 255 255 255 255 255 255 255 255 255 255 255 255 255 255 255 255 255 255 255 255 255 255 255 255 255 255 255 255 255 255 255 255 255 255 255 255 255 255 255 255 72 40 72 168 96 144 128 64 120 192 128 176 192 128 176 192 128 176 168 96 144 168 96 144 168 96 144 168 96 144 168 96 144 128 64 120 128 64 120 128 64 120 128 64 120 128 64 120 128 64 120 128 64 120 128 64 120 128 64 120 128 64 120 128 64 120 128 64 120 128 64 120 128 64 120 168 96 144 168 96 144 168 96 144 168 96 144 128 64 120 128 64 120 128 64 120 128 64 120 128 64 120 128 64 120 128 64 120 72 40 72 255 255 255 255 255 255 255 255 255 255 255 255 255 255 255 255 255 255 255 255 255 255 255 255 255 255 255 255 255 255 255 255 255 255 255 255 255 255 255 
255 255 255 255 255 255 255 255 255 255 255 255 255 255 255 255 255 255 255 255 255 255 255 255 255 255 255 255 255 255 255 255 255 255 255 255 255 255 255 72 40 72 168 96 144 168 96 144 72 40 72 192 128 176 192 128 176 168 96 144 168 96 144 168 96 144 168 96 144 168 96 144 168 96 144 128 64 120 128 64 120 128 64 120 128 64 120 128 64 120 128 64 120 128 64 120 128 64 120 128 64 120 128 64 120 128 64 120 128 64 120 128 64 120 168 96 144 168 96 144 168 96 144 168 96 144 168 96 144 168 96 144 128 64 120 128 64 120 128 64 120 128 64 120 128 64 120 128 64 120 16 16 16 255 255 255 255 255 255 255 255 255 255 255 255 255 255 255 255 255 255 255 255 255 255 255 255 255 255 255 255 255 255 255 255 255 255 255 255 255 255 255 
255 255 255 255 255 255 255 255 255 255 255 255 255 255 255 255 255 255 255 255 255 255 255 255 255 255 255 255 255 255 255 255 255 255 255 255 255 255 255 72 40 72 192 128 176 168 96 144 168 96 144 72 40 72 192 128 176 168 96 144 168 96 144 168 96 144 168 96 144 168 96 144 168 96 144 128 64 120 128 64 120 128 64 120 128 64 120 128 64 120 128 64 120 128 64 120 128 64 120 128 64 120 128 64 120 128 64 120 128 64 120 168 96 144 168 96 144 168 96 144 168 96 144 168 96 144 168 96 144 168 96 144 168 96 144 128 64 120 128 64 120 128 64 120 128 64 120 128 64 120 16 16 16 255 255 255 255 255 255 255 255 255 255 255 255 255 255 255 255 255 255 255 255 255 255 255 255 255 255 255 255 255 255 255 255 255 255 255 255 255 255 255 
255 255 255 255 255 255 255 255 255 255 255 255 255 255 255 255 255 255 255 255 255 255 255 255 255 255 255 255 255 255 255 255 255 255 255 255 255 255 255 128 64 120 192 128 176 192 128 176 168 96 144 168 96 144 72 40 72 168 96 144 168 96 144 168 96 144 168 96 144 168 96 144 128 64 120 128 64 120 128 64 120 128 64 120 128 64 120 128 64 120 128 64 120 128 64 120 128 64 120 128 64 120 128 64 120 128 64 120 128 64 120 168 96 144 168 96 144 168 96 144 168 96 144 192 128 176 192 128 176 168 96 144 168 96 144 168 96 144 128 64 120 128 64 120 128 64 120 128 64 120 16 16 16 255 255 255 255 255 255 255 255 255 255 255 255 255 255 255 255 255 255 255 255 255 255 255 255 255 255 255 255 255 255 255 255 255 255 255 255 255 255 255 
255 255 255 255 255 255 255 255 255 255 255 255 255 255 255 255 255 255 255 255 255 255 255 255 255 255 255 255 255 255 255 255 255 255 255 255 168 96 144 192 128 176 192 128 176 192 128 176 168 96 144 168 96 144 128 64 120 72 40 72 128 64 120 168 96 144 168 96 144 128 64 120 128 64 120 128 64 120 128 64 120 128 64 120 128 64 120 128 64 120 128 64 120 128 64 120 128 64 120 128 64 120 128 64 120 128 64 120 128 64 120 168 96 144 168 96 144 168 96 144 192 128 176 192 128 176 192 128 176 192 128 176 168 96 144 168 96 144 128 64 120 128 64 120 128 64 120 128 64 120 16 16 16 255 255 255 255 255 255 255 255 255 255 255 255 255 255 255 255 255 255 255 255 255 255 255 255 255 255 255 255 255 255 255 255 255 255 255 255 255 255 255 
255 255 255 255 255 255 255 255 255 255 255 255 255 255 255 255 255 255 255 255 255 255 255 255 255 255 255 255 255 255 255 255 255 255 255 255 128 64 120 192 128 176 192 128 176 168 96 144 168 96 144 168 96 144 128 64 120 128 64 120 72 40 72 128 64 120 128 64 120 128 64 120 128 64 120 128 64 120 128 64 120 128 64 120 128 64 120 128 64 120 128 64 120 128 64 120 128 64 120 128 64 120 128 64 120 128 64 120 128 64 120 168 96 144 168 96 144 168 96 144 192 128 176 192 128 176 192 128 176 192 128 176 192 128 176 168 96 144 168 96 144 128 64 120 128 64 120 128 64 120 16 16 16 255 255 255 255 255 255 255 255 255 255 255 255 255 255 255 255 255 255 255 255 255 255 255 255 255 255 255 255 255 255 255 255 255 255 255 255 255 255 255 
255 255 255 255 255 255 255 255 255 255 255 255 255 255 255 255 255 255 255 255 255 255 255 255 255 255 255 255 255 255 255 255 255 255 255 255 128 64 120 192 128 176 192 128 176 168 96 144 168 96 144 168 96 144 128 64 120 128 64 120 128 64 120 72 40 72 72 40 72 128 64 120 128 64 120 128 64 120 128 64 120 128 64 120 128 64 120 128 64 120 128 64 120 128 64 120 128 64 120 128 64 120 128 64 120 128 64 120 72 40 72 168 96 144 168 96 144 168 96 144 192 128 176 192 128 176 192 128 176 192 128 176 192 128 176 168 96 144 168 96 144 128 64 120 128 64 120 128 64 120 16 16 16 255 255 255 255 255 255 255 255 255 255 255 255 255 255 255 255 255 255 255 255 255 255 255 255 255 255 255 255 255 255 255 255 255 255 255 255 255 255 255 
255 255 255 255 255 255 255 255 255 255 255 255 255 255 255 255 255 255 255 255 255 255 255 255 255 255 255 255 255 255 255 255 255 255 255 255 72 40 72 168 96 144 168 96 144 168 96 144 168 96 144 128 64 120 128 64 120 128 64 120 128 64 120 128 64 120 128 64 120 72 40 72 72 40 72 72 40 72 72 40 72 128 64 120 128 64 120 128 64 120 128 64 120 128 64 120 128 64 120 128 64 120 128 64 120 128 64 120 72 40 72 72 40 72 128 64 120 168 96 144 168 96 144 192 128 176 192 128 176 192 128 176 168 96 144 168 96 144 168 96 144 128 64 120 128 64 120 128 64 120 72 40 72 255 255 255 255 255 255 255 255 255 255 255 255 255 255 255 255 255 255 255 255 255 255 255 255 255 255 255 255 255 255 255 255 255 255 255 255 255 255 255 
255 255 255 255 255 255 255 255 255 255 255 255 255 255 255 255 255 255 255 255 255 255 255 255 255 255 255 255 255 255 255 255 255 255 255 255 72 40 72 128 64 120 168 96 144 168 96 144 128 64 120 128 64 120 128 64 120 128 64 120 128 64 120 128 64 120 128 64 120 72 40 72 16 16 16 16 16 16 16 16 16 16 16 16 16 16 16 16 16 16 16 16 16 16 16 16 16 16 16 16 16 16 16 16 16 16 16 16 72 40 72 72 40 72 72 40 72 128 64 120 168 96 144 168 96 144 168 96 144 168 96 144 168 96 144 168 96 144 128 64 120 128 64 120 128 64 120 72 40 72 255 255 255 255 255 255 255 255 255 255 255 255 255 255 255 255 255 255 255 255 255 255 255 255 255 255 255 255 255 255 255 255 255 255 255 255 255 255 255 255 255 255 
255 255 255 255 255 255 255 255 255 255 255 255 255 255 255 255 255 255 255 255 255 255 255 255 255 255 255 255 255 255 255 255 255 255 255 255 72 40 72 128 64 120 128 64 120 128 64 120 128 64 120 128 64 120 128 64 120 128 64 120 72 40 72 16 16 16 16 16 16 255 255 255 255 255 255 255 255 255 255 255 255 255 255 255 72 40 72 72 40 72 128 64 120 128 64 120 128 64 120 128 64 120 128 64 120 128 64 120 72 40 72 16 16 16 255 255 255 72 40 72 72 40 72 128 64 120 168 96 144 168 96 144 168 96 144 128 64 120 128 64 120 128 64 120 128 64 120 16 16 16 255 255 255 255 255 255 255 255 255 255 255 255 255 255 255 255 255 255 255 255 255 255 255 255 255 255 255 255 255 255 255 255 255 255 255 255 255 255 255 255 255 255 
255 255 255 255 255 255 255 255 255 255 255 255 255 255 255 255 255 255 255 255 255 255 255 255 255 255 255 255 255 255 255 255 255 72 40 72 128 64 120 128 64 120 128 64 120 128 64 120 128 64 120 128 64 120 128 64 120 16 16 16 255 255 255 255 255 255 255 255 255 255 255 255 255 255 255 255 255 255 255 255 255 255 255 255 255 255 255 255 255 255 72 40 72 72 40 72 128 64 120 128 64 120 128 64 120 128 64 120 128 64 120 16 16 16 255 255 255 255 255 255 255 255 255 72 40 72 128 64 120 128 64 120 128 64 120 128 64 120 128 64 120 128 64 120 128 64 120 72 40 72 255 255 255 255 255 255 255 255 255 255 255 255 255 255 255 255 255 255 255 255 255 255 255 255 255 255 255 255 255 255 255 255 255 255 255 255 255 255 255 255 255 255 
255 255 255 255 255 255 255 255 255 255 255 255 255 255 255 255 255 255 255 255 255 255 255 255 255 255 255 255 255 255 255 255 255 72 40 72 16 16 16 16 16 16 16 16 16 16 16 16 16 16 16 16 16 16 16 16 16 255 255 255 255 255 255 255 255 255 255 255 255 255 255 255 255 255 255 255 255 255 255 255 255 255 255 255 255 255 255 255 255 255 255 255 255 255 255 255 72 40 72 16 16 16 16 16 16 16 16 16 16 16 16 255 255 255 255 255 255 255 255 255 255 255 255 255 255 255 72 40 72 128 64 120 128 64 120 128 64 120 128 64 120 128 64 120 128 64 120 128 64 120 16 16 16 255 255 255 255 255 255 255 255 255 255 255 255 255 255 255 255 255 255 255 255 255 255 255 255 255 255 255 255 255 255 255 255 255 255 255 255 255 255 255 
255 255 255 255 255 255 255 255 255 255 255 255 255 255 255 255 255 255 255 255 255 255 255 255 255 255 255 255 255 255 255 255 255 255 255 255 255 255 255 255 255 255 255 255 255 255 255 255 255 255 255 255 255 255 255 255 255 255 255 255 255 255 255 255 255 255 255 255 255 255 255 255 255 255 255 255 255 255 255 255 255 255 255 255 255 255 255 255 255 255 255 255 255 255 255 255 255 255 255 255 255 255 255 255 255 255 255 255 255 255 255 255 255 255 255 255 255 255 255 255 255 255 255 255 255 255 255 255 255 72 40 72 16 16 16 16 16 16 16 16 16 16 16 16 16 16 16 16 16 16 16 16 16 255 255 255 255 255 255 255 255 255 255 255 255 255 255 255 255 255 255 255 255 255 255 255 255 255 255 255 255 255 255 255 255 255 255 255 255 255 255 255 
255 255 255 255 255 255 255 255 255 255 255 255 255 255 255 255 255 255 255 255 255 255 255 255 255 255 255 255 255 255 255 255 255 255 255 255 255 255 255 255 255 255 255 255 255 255 255 255 255 255 255 255 255 255 255 255 255 255 255 255 255 255 255 255 255 255 255 255 255 255 255 255 255 255 255 255 255 255 255 255 255 255 255 255 255 255 255 255 255 255 255 255 255 255 255 255 255 255 255 255 255 255 255 255 255 255 255 255 255 255 255 255 255 255 255 255 255 255 255 255 255 255 255 255 255 255 255 255 255 255 255 255 255 255 255 255 255 255 255 255 255 255 255 255 255 255 255 255 255 255 255 255 255 255 255 255 255 255 255 255 255 255 255 255 255 255 255 255 255 255 255 255 255 255 255 255 255 255 255 255 255 255 255 255 255 255 255 255 255 255 255 255 
255 255 255 255 255 255 255 255 255 255 255 255 255 255 255 255 255 255 255 255 255 255 255 255 255 255 255 255 255 255 255 255 255 255 255 255 255 255 255 255 255 255 255 255 255 255 255 255 255 255 255 255 255 255 255 255 255 255 255 255 255 255 255 255 255 255 255 255 255 255 255 255 255 255 255 255 255 255 255 255 255 255 255 255 255 255 255 255 255 255 255 255 255 255 255 255 255 255 255 255 255 255 255 255 255 255 255 255 255 255 255 255 255 255 255 255 255 255 255 255 255 255 255 255 255 255 255 255 255 255 255 255 255 255 255 255 255 255 255 255 255 255 255 255 255 255 255 255 255 255 255 255 255 255 255 255 255 255 255 255 255 255 255 255 255 255 255 255 255 255 255 255 255 255 255 255 255 255 255 255 255 255 255 255 255 255 255 255 255 255 255 255 
255 255 255 255 255 255 255 255 255 255 255 255 255 255 255 255 255 255 255 255 255 255 255 255 255 255 255 255 255 255 255 255 255 255 255 255 255 255 255 255 255 255 255 255 255 255 255 255 255 255 255 255 255 255 255 255 255 255 255 255 255 255 255 255 255 255 255 255 255 255 255 255 255 255 255 255 255 255 255 255 255 255 255 255 255 255 255 255 255 255 255 255 255 255 255 255 255 255 255 255 255 255 255 255 255 255 255 255 255 255 255 255 255 255 255 255 255 255 255 255 255 255 255 255 255 255 255 255 255 255 255 255 255 255 255 255 255 255 255 255 255 255 255 255 255 255 255 255 255 255 255 255 255 255 255 255 255 255 255 255 255 255 255 255 255 255 255 255 255 255 255 255 255 255 255 255 255 255 255 255 255 255 255 255 255 255 255 255 255 255 255 255 
255 255 255 255 255 255 255 255 255 255 255 255 255 255 255 255 255 255 255 255 255 255 255 255 255 255 255 255 255 255 255 255 255 255 255 255 255 255 255 255 255 255 255 255 255 255 255 255 255 255 255 255 255 255 255 255 255 255 255 255 255 255 255 255 255 255 255 255 255 255 255 255 255 255 255 255 255 255 255 255 255 255 255 255 255 255 255 255 255 255 255 255 255 255 255 255 255 255 255 255 255 255 255 255 255 255 255 255 255 255 255 255 255 255 255 255 255 255 255 255 255 255 255 255 255 255 255 255 255 255 255 255 255 255 255 255 255 255 255 255 255 255 255 255 255 255 255 255 255 255 255 255 255 255 255 255 255 255 255 255 255 255 255 255 255 255 255 255 255 255 255 255 255 255 255 255 255 255 255 255 255 255 255 255 255 255 255 255 255 255 255 255 
255 255 255 255 255 255 255 255 255 255 255 255 255 255 255 255 255 255 255 255 255 255 255 255 255 255 255 255 255 255 255 255 255 255 255 255 255 255 255 255 255 255 255 255 255 255 255 255 255 255 255 255 255 255 255 255 255 255 255 255 255 255 255 255 255 255 255 255 255 255 255 255 255 255 255 255 255 255 255 255 255 255 255 255 255 255 255 255 255 255 255 255 255 255 255 255 255 255 255 255 255 255 255 255 255 255 255 255 255 255 255 255 255 255 255 255 255 255 255 255 255 255 255 255 255 255 255 255 255 255 255 255 255 255 255 255 255 255 255 255 255 255 255 255 255 255 255 255 255 255 255 255 255 255 255 255 255 255 255 255 255 255 255 255 255 255 255 255 255 255 255 255 255 255 255 255 255 255 255 255 255 255 255 255 255 255 255 255 255 255 255 255 
