P3
80 80
255
25 0 0 25 0 0 25 0 0 25 0 0 25 0 0 25 0 0 25 0 0 25 0 0 25 0 0 25 0 0 25 0 0 25 0 0 25 0 0 25 0 0 25 0 0 25 0 0 25 0 0 25 0 0 25 0 0 25 0 0 25 0 0 25 0 0 25 0 0 25 0 0 25 0 0 25 0 0 25 0 0 25 0 0 25 0 0 25 0 0 25 0 0 25 0 0 25 0 0 25 0 0 25 0 0 25 0 0 25 0 0 25 0 0 25 0 0 25 0 0 25 0 0 25 0 0 25 0 0 25 0 0 25 0 0 25 0 0 25 0 0 25 0 0 25 0 0 25 0 0 25 0 0 25 0 0 25 0 0 25 0 0 25 0 0 25 0 0 25 0 0 25 0 0 25 0 0 25 0 0 25 0 0 25 0 0 25 0 0 25 0 0 25 0 0 25 0 0 25 0 0 25 0 0 25 0 0 25 0 0 25 0 0 25 0 0 25 0 0 25 0 0 25 0 0 25 0 0 25 0 0 25 0 0 25 0 0 25 0 0 
25 0 0 25 0 0 25 0 0 25 0 0 25 0 0 25 0 0 25 0 0 25 0 0 25 0 0 25 0 0 25 0 0 25 0 0 25 0 0 25 0 0 25 0 0 25 0 0 25 0 0 25 0 0 25 0 0 25 0 0 25 0 0 25 0 0 25 0 0 25 0 0 25 0 0 25 0 0 25 0 0 25 0 0 25 0 0 25 0 0 25 0 0 25 0 0 25 0 0 25 0 0 25 0 0 25 0 0 25 0 0 25 0 0 25 0 0 25 0 0 25 0 0 25 0 0 25 0 0 25 0 0 25 0 0 25 0 0 25 0 0 25 0 0 25 0 0 25 0 0 25 0 0 25 0 0 25 0 0 25 0 0 25 0 0 25 0 0 25 0 0 25 0 0 25 0 0 25 0 0 25 0 0 25 0 0 25 0 0 25 0 0 25 0 0 25 0 0 25 0 0 25 0 0 25 0 0 25 0 0 25 0 0 25 0 0 25 0 0 25 0 0 25 0 0 25 0 0 25 0 0 25 0 0 25 0 0 25 0 0 
25 0 0 25 0 0 25 0 0 25 0 0 25 0 0 25 0 0 25 0 0 25 0 0 25 0 0 25 0 0 25 0 0 25 0 0 25 0 0 25 0 0 25 0 0 25 0 0 25 0 0 25 0 0 25 0 0 25 0 0 25 0 0 25 0 0 25 0 0 25 0 0 25 0 0 25 0 0 25 0 0 25 0 0 25 0 0 25 0 0 25 0 0 25 0 0 25 0 0 25 0 0 25 0 0 25 0 0 25 0 0 25 0 0 25 0 0 25 0 0 25 0 0 25 0 0 25 0 0 25 0 0 25 0 0 25 0 0 25 0 0 25 0 0 25 0 0 25 0 0 25 0 0 25 0 0 25 0 0 25 0 0 25 0 0 25 0 0 25 0 0 25 0 0 25 0 0 25 0 0 25 0 0 25 0 0 25 0 0 25 0 0 25 0 0 25 0 0 25 0 0 25 0 0 25 0 0 25 0 0 25 0 0 25 0 0 25 0 0 25 0 0 25 0 0 25 0 0 25 0 0 25 0 0 25 0 0 25 0 0 
25 0 0 25 0 0 25 0 0 25 0 0 25 0 0 25 0 0 25 0 0 25 0 0 25 0 0 25 0 0 25 0 0 25 0 0 25 0 0 25 0 0 25 0 0 25 0 0 25 0 0 25 0 0 25 0 0 25 0 0 25 0 0 25 0 0 25 0 0 25 0 0 25 0 0 25 0 0 25 0 0 25 0 0 25 0 0 25 0 0 25 0 0 25 0 0 25 0 0 25 0 0 25 0 0 25 0 0 25 0 0 25 0 0 25 0 0 25 0 0 25 0 0 25 0 0 25 0 0 25 0 0 25 0 0 25 0 0 25 0 0 25 0 0 25 0 0 25 0 0 25 0 0 25 0 0 25 0 0 25 0 0 25 0 0 25 0 0 25 0 0 25 0 0 25 0 0 25 0 0 25 0 0 25 0 0 25 0 0 25 0 0 25 0 0 25 0 0 25 0 0 25 0 0 25 0 0 25 0 0 25 0 0 25 0 0 25 0 0 25 0 0 25 0 0 25 0 0 25 0 0 25 0 0 25 0 0 25 0 0 
25 0 0 25 0 0 25 0 0 25 0 0 25 0 0 25 0 0 25 0 0 25 0 0 25 0 0 25 0 0 25 0 0 25 0 0 25 0 0 25 0 0 25 0 0 25 0 0 25 0 0 25 0 0 25 0 0 25 0 0 25 0 0 25 0 0 25 0 0 25 0 0 25 0 0 25 0 0 25 0 0 25 0 0 25 0 0 25 0 0 25 0 0 25 0 0 25 0 0 25 0 0 25 0 0 25 0 0 25 0 0 25 0 0 25 0 0 25 0 0 25 0 0 25 0 0 25 0 0 25 0 0 25 0 0 25 0 0 25 0 0 25 0 0 25 0 0 25 0 0 25 0 0 25 0 0 25 0 0 25 0 0 25 0 0 25 0 0 25 0 0 25 0 0 25 0 0 25 0 0 25 0 0 25 0 0 25 0 0 25 0 0 25 0 0 25 0 0 25 0 0 25 0 0 25 0 0 25 0 0 25 0 0 25 0 0 25 0 0 25 0 0 25 0 0 25 0 0 25 0 0 25 0 0 25 0 0 25 0 0 
25 0 0 25 0 0 25 0 0 25 0 0 25 0 0 25 0 0 25 0 0 25 0 0 25 0 0 25 0 0 25 0 0 25 0 0 25 0 0 25 0 0 25 0 0 25 0 0 25 0 0 25 0 0 25 0 0 25 0 0 25 0 0 25 0 0 25 0 0 25 0 0 25 0 0 25 0 0 25 0 0 25 0 0 25 0 0 25 0 0 25 0 0 25 0 0 25 0 0 25 0 0 25 0 0 25 0 0 25 0 0 25 0 0 25 0 0 25 0 0 25 0 0 25 0 0 25 0 0 25 0 0 25 0 0 25 0 0 25 0 0 25 0 0 25 0 0 25 0 0 25 0 0 25 0 0 25 0 0 25 0 0 25 0 0 25 0 0 25 0 0 25 0 0 25 0 0 25 0 0 25 0 0 25 0 0 25 0 0 25 0 0 25 0 0 25 0 0 25 0 0 25 0 0 25 0 0 25 0 0 25 0 0 25 0 0 25 0 0 25 0 0 25 0 0 25 0 0 25 0 0 25 0 0 25 0 0 25 0 0 
25 0 0 25 0 0 25 0 0 25 0 0 25 0 0 25 0 0 25 0 0 25 0 0 25 0 0 25 0 0 25 0 0 25 0 0 25 0 0 25 0 0 25 0 0 25 0 0 25 0 0 25 0 0 25 0 0 25 0 0 25 0 0 25 0 0 25 0 0 25 0 0 25 0 0 25 0 0 25 0 0 25 0 0 25 0 0 25 0 0 25 0 0 25 0 0 25 0 0 25 0 0 25 0 0 25 0 0 25 0 0 25 0 0 25 0 0 25 0 0 25 0 0 25 0 0 25 0 0 25 0 0 25 0 0 25 0 0 25 0 0 25 0 0 25 0 0 25 0 0 25 0 0 25 0 0 25 0 0 25 0 0 25 0 0 25 0 0 25 0 0 25 0 0 25 0 0 25 0 0 25 0 0 25 0 0 25 0 0 25 0 0 25 0 0 25 0 0 25 0 0 25 0 0 25 0 0 25 0 0 25 0 0 25 0 0 25 0 0 25 0 0 25 0 0 25 0 0 25 0 0 25 0 0 25 0 0 25 0 0 
25 0 0 25 0 0 25 0 0 25 0 0 25 0 0 25 0 0 25 0 0 25 0 0 25 0 0 25 0 0 25 0 0 25 0 0 25 0 0 25 0 0 25 0 0 25 0 0 25 0 0 25 0 0 25 0 0 25 0 0 25 0 0 25 0 0 25 0 0 25 0 0 25 0 0 25 0 0 25 0 0 25 0 0 25 0 0 25 0 0 25 0 0 25 0 0 25 0 0 25 0 0 25 0 0 25 0 0 25 0 0 25 0 0 25 0 0 25 0 0 25 0 0 25 0 0 25 0 0 25 0 0 25 0 0 25 0 0 25 0 0 25 0 0 25 0 0 25 0 0 25 0 0 25 0 0 25 0 0 25 0 0 25 0 0 25 0 0 25 0 0 25 0 0 25 0 0 25 0 0 25 0 0 25 0 0 25 0 0 25 0 0 25 0 0 25 0 0 25 0 0 25 0 0 25 0 0 25 0 0 25 0 0 25 0 0 25 0 0 25 0 0 25 0 0 25 0 0 25 0 0 25 0 0 25 0 0 25 0 0 
25 0 0 25 0 0 25 0 0 25 0 0 25 0 0 25 0 0 25 0 0 25 0 0 25 0 0 25 0 0 25 0 0 25 0 0 25 0 0 25 0 0 25 0 0 25 0 0 25 0 0 25 0 0 25 0 0 25 0 0 25 0 0 25 0 0 25 0 0 25 0 0 25 0 0 25 0 0 25 0 0 25 0 0 25 0 0 25 0 0 25 0 0 25 0 0 25 0 0 25 0 0 25 0 0 25 0 0 25 0 0 25 0 0 25 0 0 25 0 0 25 0 0 25 0 0 25 0 0 25 0 0 25 0 0 25 0 0 25 0 0 25 0 0 25 0 0 25 0 0 25 0 0 25 0 0 25 0 0 25 0 0 25 0 0 25 0 0 25 0 0 25 0 0 25 0 0 25 0 0 25 0 0 25 0 0 25 0 0 25 0 0 25 0 0 25 0 0 25 0 0 25 0 0 25 0 0 25 0 0 25 0 0 25 0 0 25 0 0 25 0 0 25 0 0 25 0 0 25 0 0 25 0 0 25 0 0 25 0 0 
25 0 0 25 0 0 25 0 0 25 0 0 25 0 0 25 0 0 25 0 0 25 0 0 25 0 0 25 0 0 25 0 0 25 0 0 25 0 0 25 0 0 25 0 0 25 0 0 25 0 0 25 0 0 25 0 0 25 0 0 25 0 0 25 0 0 25 0 0 25 0 0 25 0 0 25 0 0 25 0 0 25 0 0 25 0 0 25 0 0 25 0 0 25 0 0 25 0 0 25 0 0 25 0 0 25 0 0 25 0 0 25 0 0 25 0 0 25 0 0 25 0 0 25 0 0 25 0 0 25 0 0 25 0 0 25 0 0 25 0 0 25 0 0 25 0 0 25 0 0 25 0 0 25 0 0 25 0 0 25 0 0 25 0 0 25 0 0 25 0 0 25 0 0 25 0 0 25 0 0 25 0 0 25 0 0 25 0 0 25 0 0 25 0 0 25 0 0 25 0 0 25 0 0 25 0 0 25 0 0 25 0 0 25 0 0 25 0 0 25 0 0 25 0 0 25 0 0 25 0 0 25 0 0 25 0 0 25 0 0 
25 0 0 25 0 0 25 0 0 25 0 0 25 0 0 25 0 0 25 0 0 25 0 0 25 0 0 25 0 0 25 0 0 25 0 0 25 0 0 25 0 0 25 0 0 25 0 0 25 0 0 25 0 0 25 0 0 25 0 0 25 0 0 25 0 0 25 0 0 25 0 0 25 0 0 25 0 0 25 0 0 25 0 0 25 0 0 25 0 0 25 0 0 25 0 0 25 0 0 25 0 0 25 0 0 25 0 0 25 0 0 25 0 0 25 0 0 25 0 0 25 0 0 25 0 0 25 0 0 25 0 0 25 0 0 25 0 0 25 0 0 25 0 0 25 0 0 25 0 0 25 0 0 25 0 0 25 0 0 25 0 0 25 0 0 25 0 0 25 0 0 25 0 0 25 0 0 25 0 0 25 0 0 25 0 0 25 0 0 25 0 0 25 0 0 25 0 0 25 0 0 25 0 0 25 0 0 25 0 0 25 0 0 25 0 0 25 0 0 25 0 0 25 0 0 25 0 0 25 0 0 25 0 0 25 0 0 25 0 0 
25 0 0 25 0 0 25 0 0 25 0 0 25 0 0 25 0 0 25 0 0 25 0 0 25 0 0 25 0 0 25 0 0 25 0 0 25 0 0 25 0 0 25 0 0 25 0 0 25 0 0 25 0 0 25 0 0 25 0 0 25 0 0 25 0 0 25 0 0 25 0 0 25 0 0 25 0 0 25 0 0 25 0 0 25 0 0 25 0 0 25 0 0 25 0 0 25 0 0 25 0 0 25 0 0 25 0 0 25 0 0 25 0 0 25 0 0 25 0 0 25 0 0 25 0 0 25 0 0 25 0 0 25 0 0 25 0 0 25 0 0 25 0 0 25 0 0 25 0 0 25 0 0 25 0 0 25 0 0 25 0 0 25 0 0 25 0 0 25 0 0 25 0 0 25 0 0 25 0 0 25 0 0 25 0 0 25 0 0 25 0 0 25 0 0 25 0 0 25 0 0 25 0 0 25 0 0 25 0 0 25 0 0 25 0 0 25 0 0 25 0 0 25 0 0 25 0 0 25 0 0 25 0 0 25 0 0 25 0 0 
25 0 0 25 0 0 25 0 0 25 0 0 25 0 0 25 0 0 25 0 0 25 0 0 25 0 0 25 0 0 25 0 0 25 0 0 25 0 0 25 0 0 25 0 0 25 0 0 25 0 0 25 0 0 25 0 0 25 0 0 25 0 0 25 0 0 25 0 0 25 0 0 25 0 0 25 0 0 25 0 0 25 0 0 25 0 0 25 0 0 25 0 0 25 0 0 25 0 0 25 0 0 25 0 0 25 0 0 25 0 0 25 0 0 25 0 0 25 0 0 25 0 0 25 0 0 25 0 0 25 0 0 25 0 0 25 0 0 25 0 0 25 0 0 25 0 0 25 0 0 25 0 0 25 0 0 25 0 0 25 0 0 25 0 0 25 0 0 25 0 0 25 0 0 25 0 0 25 0 0 25 0 0 25 0 0 25 0 0 25 0 0 25 0 0 25 0 0 25 0 0 25 0 0 25 0 0 25 0 0 25 0 0 25 0 0 25 0 0 25 0 0 25 0 0 25 0 0 25 0 0 25 0 0 25 0 0 25 0 0 
25 0 0 25 0 0 25 0 0 25 0 0 25 0 0 25 0 0 25 0 0 25 0 0 25 0 0 25 0 0 25 0 0 25 0 0 25 0 0 25 0 0 25 0 0 25 0 0 25 0 0 25 0 0 25 0 0 25 0 0 25 0 0 25 0 0 25 0 0 25 0 0 25 0 0 25 0 0 25 0 0 25 0 0 25 0 0 25 0 0 25 0 0 25 0 0 25 0 0 25 0 0 25 0 0 25 0 0 25 0 0 25 0 0 25 0 0 25 0 0 25 0 0 25 0 0 25 0 0 25 0 0 25 0 0 25 0 0 25 0 0 25 0 0 25 0 0 25 0 0 25 0 0 25 0 0 25 0 0 25 0 0 25 0 0 25 0 0 25 0 0 25 0 0 25 0 0 25 0 0 25 0 0 25 0 0 25 0 0 25 0 0 25 0 0 25 0 0 25 0 0 25 0 0 25 0 0 25 0 0 25 0 0 25 0 0 25 0 0 25 0 0 25 0 0 25 0 0 25 0 0 25 0 0 25 0 0 25 0 0 
25 0 0 25 0 0 25 0 0 25 0 0 25 0 0 25 0 0 25 0 0 25 0 0 25 0 0 25 0 0 25 0 0 25 0 0 25 0 0 25 0 0 25 0 0 25 0 0 25 0 0 25 0 0 25 0 0 25 0 0 25 0 0 25 0 0 25 0 0 25 0 0 25 0 0 25 0 0 25 0 0 25 0 0 25 0 0 25 0 0 25 0 0 25 0 0 25 0 0 25 0 0 25 0 0 25 0 0 25 0 0 25 0 0 25 0 0 25 0 0 25 0 0 25 0 0 25 0 0 25 0 0 25 0 0 25 0 0 25 0 0 25 0 0 25 0 0 25 0 0 25 0 0 25 0 0 25 0 0 25 0 0 25 0 0 25 0 0 25 0 0 25 0 0 25 0 0 25 0 0 25 0 0 25 0 0 25 0 0 25 0 0 25 0 0 25 0 0 25 0 0 25 0 0 25 0 0 25 0 0 25 0 0 25 0 0 25 0 0 25 0 0 25 0 0 25 0 0 25 0 0 25 0 0 25 0 0 25 0 0 
25 0 0 25 0 0 25 0 0 25 0 0 25 0 0 25 0 0 25 0 0 25 0 0 25 0 0 25 0 0 25 0 0 25 0 0 25 0 0 25 0 0 25 0 0 25 0 0 25 0 0 25 0 0 25 0 0 25 0 0 25 0 0 25 0 0 25 0 0 25 0 0 25 0 0 25 0 0 25 0 0 25 0 0 25 0 0 25 0 0 25 0 0 25 0 0 25 0 0 25 0 0 25 0 0 25 0 0 25 0 0 25 0 0 25 0 0 25 0 0 25 0 0 25 0 0 25 0 0 25 0 0 25 0 0 25 0 0 25 0 0 25 0 0 25 0 0 25 0 0 25 0 0 25 0 0 25 0 0 25 0 0 25 0 0 25 0 0 25 0 0 25 0 0 25 0 0 25 0 0 25 0 0 25 0 0 25 0 0 25 0 0 25 0 0 25 0 0 25 0 0 25 0 0 25 0 0 25 0 0 25 0 0 25 0 0 25 0 0 25 0 0 25 0 0 25 0 0 25 0 0 25 0 0 25 0 0 25 0 0 
25 0 0 25 0 0 25 0 0 25 0 0 25 0 0 25 0 0 25 0 0 25 0 0 25 0 0 25 0 0 25 0 0 25 0 0 25 0 0 25 0 0 25 0 0 25 0 0 25 0 0 25 0 0 25 0 0 25 0 0 25 0 0 25 0 0 25 0 0 25 0 0 25 0 0 25 0 0 25 0 0 25 0 0 25 0 0 25 0 0 25 0 0 25 0 0 25 0 0 25 0 0 25 0 0 25 0 0 25 0 0 25 0 0 25 0 0 25 0 0 25 0 0 41 172 189 41 172 189 25 0 0 25 0 0 25 0 0 25 0 0 25 0 0 25 0 0 25 0 0 25 0 0 25 0 0 25 0 0 25 0 0 25 0 0 25 0 0 25 0 0 25 0 0 25 0 0 25 0 0 25 0 0 25 0 0 25 0 0 25 0 0 25 0 0 25 0 0 25 0 0 25 0 0 25 0 0 25 0 0 25 0 0 25 0 0 25 0 0 25 0 0 25 0 0 25 0 0 25 0 0 25 0 0 25 0 0 25 0 0 
25 0 0 25 0 0 25 0 0 25 0 0 25 0 0 25 0 0 25 0 0 25 0 0 25 0 0 25 0 0 25 0 0 25 0 0 25 0 0 25 0 0 25 0 0 25 0 0 25 0 0 25 0 0 25 0 0 25 0 0 25 0 0 25 0 0 25 0 0 25 0 0 25 0 0 25 0 0 25 0 0 25 0 0 25 0 0 25 0 0 25 0 0 25 0 0 25 0 0 25 0 0 25 0 0 25 0 0 25 0 0 25 0 0 25 0 0 25 0 0 41 172 189 90 197 189 90 197 189 25 0 0 25 0 0 25 0 0 25 0 0 25 0 0 25 0 0 25 0 0 25 0 0 25 0 0 25 0 0 25 0 0 25 0 0 25 0 0 25 0 0 25 0 0 25 0 0 25 0 0 25 0 0 25 0 0 25 0 0 25 0 0 25 0 0 25 0 0 25 0 0 25 0 0 25 0 0 25 0 0 25 0 0 25 0 0 25 0 0 25 0 0 25 0 0 25 0 0 25 0 0 25 0 0 25 0 0 25 0 0 
25 0 0 25 0 0 25 0 0 25 0 0 25 0 0 25 0 0 25 0 0 25 0 0 25 0 0 25 0 0 25 0 0 25 0 0 25 0 0 25 0 0 25 0 0 25 0 0 25 0 0 25 0 0 25 0 0 25 0 0 25 0 0 25 0 0 25 0 0 25 0 0 25 0 0 25 0 0 25 0 0 25 0 0 25 0 0 25 0 0 25 0 0 25 0 0 25 0 0 25 0 0 25 0 0 25 0 0 25 0 0 25 0 0 25 0 0 25 0 0 41 172 189 90 197 189 90 197 189 41 172 189 25 0 0 25 0 0 25 0 0 25 0 0 25 0 0 25 0 0 25 0 0 25 0 0 25 0 0 25 0 0 25 0 0 25 0 0 25 0 0 25 0 0 25 0 0 25 0 0 25 0 0 25 0 0 25 0 0 25 0 0 25 0 0 25 0 0 25 0 0 25 0 0 25 0 0 25 0 0 25 0 0 25 0 0 25 0 0 25 0 0 25 0 0 25 0 0 25 0 0 25 0 0 25 0 0 25 0 0 
25 0 0 25 0 0 25 0 0 25 0 0 25 0 0 25 0 0 25 0 0 25 0 0 25 0 0 25 0 0 25 0 0 25 0 0 25 0 0 25 0 0 25 0 0 25 0 0 25 0 0 25 0 0 25 0 0 25 0 0 25 0 0 25 0 0 25 0 0 25 0 0 25 0 0 25 0 0 25 0 0 25 0 0 25 0 0 25 0 0 25 0 0 25 0 0 25 0 0 25 0 0 25 0 0 25 0 0 25 0 0 25 0 0 25 0 0 41 172 189 90 197 189 90 197 189 90 197 189 41 172 189 25 0 0 25 0 0 25 0 0 25 0 0 25 0 0 25 0 0 25 0 0 25 0 0 25 0 0 25 0 0 25 0 0 25 0 0 25 0 0 25 0 0 25 0 0 25 0 0 25 0 0 25 0 0 25 0 0 25 0 0 25 0 0 25 0 0 25 0 0 25 0 0 25 0 0 25 0 0 25 0 0 25 0 0 25 0 0 25 0 0 25 0 0 25 0 0 25 0 0 25 0 0 25 0 0 25 0 0 
25 0 0 25 0 0 25 0 0 25 0 0 25 0 0 25 0 0 25 0 0 25 0 0 25 0 0 25 0 0 25 0 0 25 0 0 25 0 0 25 0 0 25 0 0 25 0 0 25 0 0 25 0 0 25 0 0 25 0 0 25 0 0 25 0 0 25 0 0 25 0 0 25 0 0 25 0 0 25 0 0 25 0 0 25 0 0 25 0 0 25 0 0 25 0 0 25 0 0 25 0 0 25 0 0 25 0 0 25 0 0 25 0 0 25 0 0 41 172 189 90 197 189 197 74 24 90 197 189 41 172 189 25 0 0 25 0 0 25 0 0 25 0 0 25 0 0 25 0 0 25 0 0 25 0 0 25 0 0 25 0 0 25 0 0 25 0 0 25 0 0 25 0 0 25 0 0 25 0 0 25 0 0 25 0 0 25 0 0 25 0 0 25 0 0 25 0 0 25 0 0 25 0 0 25 0 0 25 0 0 25 0 0 25 0 0 25 0 0 25 0 0 25 0 0 25 0 0 25 0 0 25 0 0 25 0 0 25 0 0 
25 0 0 25 0 0 25 0 0 25 0 0 25 0 0 25 0 0 25 0 0 25 0 0 25 0 0 25 0 0 25 0 0 25 0 0 25 0 0 25 0 0 25 0 0 25 0 0 25 0 0 25 0 0 25 0 0 25 0 0 25 0 0 25 0 0 25 0 0 25 0 0 25 0 0 25 0 0 25 0 0 25 0 0 25 0 0 25 0 0 25 0 0 25 0 0 25 0 0 25 0 0 25 0 0 25 0 0 25 0 0 25 0 0 41 172 189 90 197 189 238 115 41 197 74 24 90 197 189 41 172 189 25 0 0 25 0 0 25 0 0 25 0 0 25 0 0 25 0 0 25 0 0 25 0 0 25 0 0 25 0 0 25 0 0 25 0 0 25 0 0 25 0 0 25 0 0 25 0 0 25 0 0 25 0 0 25 0 0 25 0 0 25 0 0 25 0 0 25 0 0 25 0 0 25 0 0 25 0 0 25 0 0 25 0 0 25 0 0 25 0 0 25 0 0 25 0 0 25 0 0 25 0 0 25 0 0 25 0 0 
25 0 0 25 0 0 25 0 0 25 0 0 25 0 0 25 0 0 25 0 0 25 0 0 25 0 0 25 0 0 25 0 0 25 0 0 25 0 0 25 0 0 25 0 0 25 0 0 25 0 0 25 0 0 25 0 0 25 0 0 25 0 0 25 0 0 25 0 0 25 0 0 25 0 0 25 0 0 25 0 0 25 0 0 25 0 0 25 0 0 25 0 0 25 0 0 25 0 0 25 0 0 25 0 0 25 0 0 25 0 0 25 0 0 41 172 189 90 197 189 238 115 41 197 74 24 90 197 189 41 172 189 25 0 0 25 0 0 25 0 0 25 0 0 25 0 0 25 0 0 25 0 0 25 0 0 25 0 0 25 0 0 25 0 0 25 0 0 25 0 0 25 0 0 25 0 0 25 0 0 25 0 0 25 0 0 25 0 0 25 0 0 25 0 0 25 0 0 25 0 0 25 0 0 25 0 0 25 0 0 25 0 0 25 0 0 25 0 0 25 0 0 25 0 0 25 0 0 25 0 0 25 0 0 25 0 0 25 0 0 
25 0 0 25 0 0 25 0 0 25 0 0 25 0 0 25 0 0 25 0 0 25 0 0 25 0 0 25 0 0 25 0 0 25 0 0 25 0 0 25 0 0 25 0 0 25 0 0 25 0 0 25 0 0 25 0 0 25 0 0 25 0 0 25 0 0 25 0 0 25 0 0 25 0 0 25 0 0 25 0 0 25 0 0 25 0 0 25 0 0 25 0 0 25 0 0 25 0 0 25 0 0 25 0 0 25 0 0 25 0 0 25 0 0 41 172 189 90 197 189 238 115 41 197 74 24 90 197 189 41 172 189 25 0 0 25 0 0 25 0 0 25 0 0 25 0 0 25 0 0 25 0 0 25 0 0 25 0 0 25 0 0 25 0 0 25 0 0 25 0 0 25 0 0 25 0 0 25 0 0 25 0 0 25 0 0 25 0 0 25 0 0 25 0 0 25 0 0 25 0 0 25 0 0 25 0 0 25 0 0 25 0 0 25 0 0 25 0 0 25 0 0 25 0 0 25 0 0 25 0 0 25 0 0 25 0 0 25 0 0 
25 0 0 25 0 0 25 0 0 25 0 0 25 0 0 25 0 0 25 0 0 25 0 0 25 0 0 25 0 0 25 0 0 25 0 0 25 0 0 25 0 0 25 0 0 25 0 0 25 0 0 25 0 0 25 0 0 25 0 0 25 0 0 25 0 0 25 0 0 25 0 0 25 0 0 25 0 0 25 0 0 25 0 0 25 0 0 25 0 0 25 0 0 25 0 0 25 0 0 25 0 0 25 0 0 25 0 0 25 0 0 25 0 0 90 197 189 90 197 189 238 115 41 197 74 24 90 197 189 41 172 189 25 0 0 25 0 0 25 0 0 25 0 0 25 0 0 25 0 0 25 0 0 25 0 0 25 0 0 25 0 0 25 0 0 25 0 0 25 0 0 25 0 0 25 0 0 25 0 0 25 0 0 25 0 0 25 0 0 25 0 0 25 0 0 25 0 0 25 0 0 25 0 0 25 0 0 25 0 0 25 0 0 25 0 0 25 0 0 25 0 0 25 0 0 25 0 0 25 0 0 25 0 0 25 0 0 25 0 0 
25 0 0 25 0 0 25 0 0 25 0 0 25 0 0 25 0 0 25 0 0 25 0 0 25 0 0 25 0 0 25 0 0 25 0 0 25 0 0 25 0 0 25 0 0 25 0 0 25 0 0 25 0 0 25 0 0 25 0 0 25 0 0 25 0 0 25 0 0 25 0 0 25 0 0 25 0 0 25 0 0 25 0 0 25 0 0 25 0 0 25 0 0 25 0 0 25 0 0 25 0 0 25 0 0 25 0 0 25 0 0 41 172 189 90 197 189 197 74 24 238 115 41 197 74 24 90 197 189 41 172 189 25 0 0 25 0 0 25 0 0 25 0 0 25 0 0 25 0 0 25 0 0 25 0 0 25 0 0 25 0 0 25 0 0 25 0 0 25 0 0 25 0 0 25 0 0 25 0 0 25 0 0 25 0 0 25 0 0 25 0 0 25 0 0 25 0 0 25 0 0 25 0 0 25 0 0 25 0 0 25 0 0 25 0 0 25 0 0 25 0 0 25 0 0 25 0 0 25 0 0 25 0 0 25 0 0 25 0 0 
25 0 0 25 0 0 25 0 0 25 0 0 25 0 0 25 0 0 25 0 0 25 0 0 25 0 0 25 0 0 25 0 0 25 0 0 25 0 0 25 0 0 25 0 0 25 0 0 25 0 0 25 0 0 25 0 0 25 0 0 25 0 0 25 0 0 25 0 0 25 0 0 25 0 0 25 0 0 25 0 0 25 0 0 25 0 0 25 0 0 25 0 0 25 0 0 25 0 0 25 0 0 25 0 0 25 0 0 25 0 0 41 172 189 90 197 189 197 74 24 238 115 41 197 74 24 90 197 189 41 172 189 25 0 0 25 0 0 25 0 0 25 0 0 25 0 0 25 0 0 25 0 0 25 0 0 25 0 0 25 0 0 25 0 0 25 0 0 25 0 0 25 0 0 25 0 0 25 0 0 25 0 0 25 0 0 25 0 0 25 0 0 25 0 0 25 0 0 25 0 0 25 0 0 25 0 0 25 0 0 25 0 0 25 0 0 25 0 0 25 0 0 25 0 0 25 0 0 25 0 0 25 0 0 25 0 0 25 0 0 
25 0 0 25 0 0 25 0 0 25 0 0 25 0 0 25 0 0 25 0 0 25 0 0 25 0 0 25 0 0 25 0 0 25 0 0 25 0 0 25 0 0 25 0 0 25 0 0 25 0 0 25 0 0 25 0 0 25 0 0 25 0 0 25 0 0 25 0 0 25 0 0 25 0 0 25 0 0 25 0 0 25 0 0 25 0 0 25 0 0 25 0 0 25 0 0 25 0 0 25 0 0 25 0 0 25 0 0 25 0 0 41 172 189 90 197 189 197 74 24 238 115 41 197 74 24 90 197 189 41 172 189 25 0 0 25 0 0 25 0 0 25 0 0 25 0 0 25 0 0 25 0 0 25 0 0 25 0 0 25 0 0 25 0 0 25 0 0 25 0 0 25 0 0 25 0 0 25 0 0 25 0 0 25 0 0 25 0 0 25 0 0 25 0 0 25 0 0 25 0 0 25 0 0 25 0 0 25 0 0 25 0 0 25 0 0 25 0 0 25 0 0 25 0 0 25 0 0 25 0 0 25 0 0 25 0 0 25 0 0 
25 0 0 25 0 0 25 0 0 25 0 0 25 0 0 25 0 0 25 0 0 25 0 0 25 0 0 25 0 0 25 0 0 25 0 0 25 0 0 25 0 0 25 0 0 25 0 0 25 0 0 25 0 0 25 0 0 25 0 0 25 0 0 25 0 0 25 0 0 25 0 0 25 0 0 25 0 0 25 0 0 25 0 0 25 0 0 25 0 0 25 0 0 25 0 0 25 0 0 25 0 0 25 0 0 25 0 0 41 172 189 90 197 189 197 74 24 238 115 41 238 115 41 197 74 24 90 197 189 41 172 189 25 0 0 25 0 0 25 0 0 25 0 0 25 0 0 25 0 0 25 0 0 25 0 0 25 0 0 25 0 0 25 0 0 25 0 0 25 0 0 25 0 0 25 0 0 25 0 0 25 0 0 25 0 0 25 0 0 25 0 0 25 0 0 25 0 0 25 0 0 25 0 0 25 0 0 25 0 0 25 0 0 25 0 0 25 0 0 25 0 0 25 0 0 25 0 0 25 0 0 25 0 0 25 0 0 25 0 0 
25 0 0 25 0 0 25 0 0 25 0 0 25 0 0 25 0 0 25 0 0 25 0 0 25 0 0 25 0 0 25 0 0 25 0 0 25 0 0 25 0 0 25 0 0 25 0 0 25 0 0 25 0 0 25 0 0 25 0 0 25 0 0 25 0 0 25 0 0 25 0 0 25 0 0 25 0 0 25 0 0 25 0 0 25 0 0 25 0 0 25 0 0 25 0 0 25 0 0 25 0 0 25 0 0 25 0 0 41 172 189 90 197 189 197 74 24 238 115 41 238 115 41 238 115 41 90 197 189 90 197 189 41 172 189 25 0 0 25 0 0 25 0 0 25 0 0 25 0 0 25 0 0 25 0 0 25 0 0 25 0 0 25 0 0 25 0 0 25 0 0 25 0 0 25 0 0 25 0 0 25 0 0 25 0 0 25 0 0 25 0 0 25 0 0 25 0 0 25 0 0 25 0 0 25 0 0 25 0 0 25 0 0 25 0 0 25 0 0 25 0 0 25 0 0 25 0 0 25 0 0 25 0 0 25 0 0 25 0 0 
25 0 0 25 0 0 25 0 0 25 0 0 25 0 0 25 0 0 25 0 0 25 0 0 25 0 0 25 0 0 25 0 0 25 0 0 25 0 0 25 0 0 25 0 0 25 0 0 25 0 0 25 0 0 25 0 0 25 0 0 25 0 0 25 0 0 25 0 0 25 0 0 25 0 0 25 0 0 25 0 0 25 0 0 25 0 0 25 0 0 25 0 0 25 0 0 25 0 0 25 0 0 25 0 0 41 172 189 41 172 189 90 197 189 123 57 32 238 115 41 238 115 41 238 115 41 197 74 24 90 197 189 41 172 189 25 0 0 25 0 0 25 0 0 25 0 0 25 0 0 25 0 0 25 0 0 25 0 0 25 0 0 25 0 0 25 0 0 25 0 0 25 0 0 25 0 0 25 0 0 25 0 0 25 0 0 25 0 0 25 0 0 25 0 0 25 0 0 25 0 0 25 0 0 25 0 0 25 0 0 25 0 0 25 0 0 25 0 0 25 0 0 25 0 0 25 0 0 25 0 0 25 0 0 25 0 0 25 0 0 
25 0 0 25 0 0 25 0 0 25 0 0 25 0 0 25 0 0 25 0 0 25 0 0 25 0 0 25 0 0 25 0 0 25 0 0 25 0 0 25 0 0 25 0 0 25 0 0 25 0 0 25 0 0 25 0 0 25 0 0 25 0 0 25 0 0 25 0 0 25 0 0 25 0 0 25 0 0 25 0 0 25 0 0 25 0 0 25 0 0 25 0 0 25 0 0 25 0 0 41 172 189 41 172 189 90 197 189 90 197 189 90 197 189 123 57 32 238 115 41 238 115 41 238 115 41 197 74 24 90 197 189 90 197 189 41 172 189 25 0 0 25 0 0 25 0 0 25 0 0 25 0 0 25 0 0 25 0 0 25 0 0 25 0 0 25 0 0 25 0 0 25 0 0 25 0 0 25 0 0 25 0 0 25 0 0 25 0 0 25 0 0 25 0 0 25 0 0 25 0 0 25 0 0 25 0 0 25 0 0 25 0 0 25 0 0 25 0 0 25 0 0 25 0 0 25 0 0 25 0 0 25 0 0 25 0 0 25 0 0 
25 0 0 25 0 0 25 0 0 25 0 0 25 0 0 25 0 0 25 0 0 25 0 0 25 0 0 25 0 0 25 0 0 25 0 0 25 0 0 25 0 0 25 0 0 25 0 0 25 0 0 25 0 0 25 0 0 25 0 0 25 0 0 25 0 0 25 0 0 25 0 0 25 0 0 25 0 0 25 0 0 25 0 0 25 0 0 25 0 0 25 0 0 25 0 0 41 172 189 90 197 189 90 197 189 90 197 189 197 74 24 197 74 24 238 115 41 238 115 41 238 115 41 238 115 41 197 74 24 123 57 32 90 197 189 90 197 189 41 172 189 25 0 0 25 0 0 25 0 0 25 0 0 25 0 0 25 0 0 25 0 0 25 0 0 25 0 0 25 0 0 25 0 0 25 0 0 25 0 0 25 0 0 25 0 0 25 0 0 25 0 0 25 0 0 25 0 0 25 0 0 25 0 0 25 0 0 25 0 0 25 0 0 25 0 0 25 0 0 25 0 0 25 0 0 25 0 0 25 0 0 25 0 0 25 0 0 25 0 0 
25 0 0 25 0 0 25 0 0 25 0 0 25 0 0 25 0 0 25 0 0 25 0 0 25 0 0 25 0 0 25 0 0 25 0 0 25 0 0 25 0 0 25 0 0 25 0 0 25 0 0 25 0 0 25 0 0 25 0 0 25 0 0 25 0 0 25 0 0 25 0 0 25 0 0 25 0 0 25 0 0 25 0 0 25 0 0 25 0 0 25 0 0 41 172 189 90 197 189 90 197 189 197 74 24 197 74 24 238 115 41 238 115 41 238 115 41 238 115 41 238 115 41 238 115 41 238 115 41 238 115 41 123 57 32 90 197 189 90 197 189 41 172 189 25 0 0 25 0 0 25 0 0 25 0 0 25 0 0 25 0 0 25 0 0 25 0 0 25 0 0 25 0 0 25 0 0 25 0 0 25 0 0 25 0 0 25 0 0 25 0 0 25 0 0 25 0 0 25 0 0 25 0 0 25 0 0 25 0 0 25 0 0 25 0 0 25 0 0 25 0 0 25 0 0 25 0 0 25 0 0 25 0 0 25 0 0 25 0 0 
25 0 0 25 0 0 25 0 0 25 0 0 25 0 0 25 0 0 25 0 0 25 0 0 25 0 0 25 0 0 25 0 0 25 0 0 25 0 0 25 0 0 25 0 0 25 0 0 25 0 0 25 0 0 25 0 0 25 0 0 25 0 0 25 0 0 25 0 0 25 0 0 25 0 0 25 0 0 25 0 0 25 0 0 25 0 0 25 0 0 25 0 0 90 197 189 90 197 189 197 74 24 255 172 131 255 255 255 255 172 131 238 115 41 238 115 41 238 115 41 238 115 41 238 115 41 238 115 41 238 115 41 238 115 41 16 16 16 90 197 189 90 197 189 41 172 189 25 0 0 25 0 0 25 0 0 25 0 0 25 0 0 25 0 0 25 0 0 25 0 0 25 0 0 25 0 0 25 0 0 25 0 0 25 0 0 25 0 0 25 0 0 25 0 0 25 0 0 25 0 0 25 0 0 25 0 0 25 0 0 25 0 0 25 0 0 25 0 0 25 0 0 25 0 0 25 0 0 25 0 0 25 0 0 25 0 0 25 0 0 
25 0 0 25 0 0 25 0 0 25 0 0 25 0 0 25 0 0 25 0 0 25 0 0 25 0 0 25 0 0 25 0 0 25 0 0 25 0 0 25 0 0 25 0 0 25 0 0 25 0 0 25 0 0 25 0 0 25 0 0 25 0 0 25 0 0 25 0 0 25 0 0 25 0 0 25 0 0 25 0 0 25 0 0 25 0 0 25 0 0 41 172 189 90 197 189 197 74 24 255 172 131 255 255 255 255 255 255 255 172 131 238 115 41 238 115 41 238 115 41 197 74 24 189 189 189 255 255 255 197 74 24 238 115 41 238 115 41 16 16 16 90 197 189 41 172 189 25 0 0 25 0 0 25 0 0 25 0 0 25 0 0 25 0 0 25 0 0 25 0 0 25 0 0 25 0 0 25 0 0 25 0 0 25 0 0 25 0 0 25 0 0 25 0 0 25 0 0 25 0 0 25 0 0 25 0 0 25 0 0 25 0 0 25 0 0 25 0 0 25 0 0 25 0 0 25 0 0 25 0 0 25 0 0 25 0 0 25 0 0 
25 0 0 25 0 0 25 0 0 25 0 0 25 0 0 25 0 0 25 0 0 25 0 0 25 0 0 25 0 0 25 0 0 25 0 0 25 0 0 25 0 0 25 0 0 25 0 0 25 0 0 25 0 0 25 0 0 25 0 0 25 0 0 25 0 0 25 0 0 25 0 0 25 0 0 25 0 0 25 0 0 25 0 0 25 0 0 25 0 0 90 197 189 90 197 189 255 255 255 197 74 24 255 172 131 255 172 131 238 115 41 238 115 41 238 115 41 238 115 41 189 189 189 255 255 255 49 123 238 189 189 189 238 115 41 238 115 41 123 57 32 90 197 189 90 197 189 41 172 189 25 0 0 25 0 0 25 0 0 25 0 0 25 0 0 25 0 0 25 0 0 25 0 0 25 0 0 25 0 0 25 0 0 25 0 0 25 0 0 25 0 0 25 0 0 25 0 0 25 0 0 25 0 0 25 0 0 25 0 0 25 0 0 25 0 0 25 0 0 25 0 0 25 0 0 25 0 0 25 0 0 25 0 0 25 0 0 25 0 0 
25 0 0 25 0 0 25 0 0 25 0 0 25 0 0 25 0 0 25 0 0 25 0 0 25 0 0 25 0 0 25 0 0 25 0 0 25 0 0 25 0 0 25 0 0 25 0 0 25 0 0 25 0 0 25 0 0 25 0 0 25 0 0 25 0 0 25 0 0 25 0 0 25 0 0 25 0 0 25 0 0 25 0 0 25 0 0 41 172 189 90 197 189 8 65 172 49 123 238 255 255 255 238 115 41 238 115 41 238 115 41 238 115 41 238 115 41 197 74 24 255 255 255 8 65 172 8 65 172 255 255 255 238 115 41 238 115 41 238 115 41 123 57 32 90 197 189 41 172 189 25 0 0 25 0 0 25 0 0 25 0 0 25 0 0 25 0 0 25 0 0 25 0 0 25 0 0 25 0 0 25 0 0 25 0 0 25 0 0 25 0 0 25 0 0 25 0 0 25 0 0 25 0 0 25 0 0 25 0 0 25 0 0 25 0 0 25 0 0 25 0 0 25 0 0 25 0 0 25 0 0 25 0 0 25 0 0 25 0 0 
25 0 0 25 0 0 25 0 0 25 0 0 25 0 0 25 0 0 25 0 0 25 0 0 25 0 0 25 0 0 25 0 0 25 0 0 25 0 0 25 0 0 25 0 0 25 0 0 25 0 0 25 0 0 25 0 0 25 0 0 25 0 0 25 0 0 25 0 0 25 0 0 25 0 0 25 0 0 25 0 0 25 0 0 25 0 0 41 172 189 90 197 189 8 65 172 8 65 172 16 16 16 123 57 32 238 115 41 238 115 41 238 115 41 238 115 41 16 16 16 8 65 172 8 65 172 8 65 172 255 255 255 238 115 41 238 115 41 238 115 41 16 16 16 90 197 189 41 172 189 25 0 0 25 0 0 25 0 0 25 0 0 25 0 0 25 0 0 25 0 0 25 0 0 25 0 0 25 0 0 25 0 0 25 0 0 25 0 0 25 0 0 25 0 0 25 0 0 25 0 0 25 0 0 25 0 0 25 0 0 25 0 0 25 0 0 25 0 0 25 0 0 25 0 0 25 0 0 25 0 0 25 0 0 25 0 0 25 0 0 
25 0 0 25 0 0 25 0 0 25 0 0 25 0 0 25 0 0 25 0 0 25 0 0 25 0 0 25 0 0 25 0 0 25 0 0 25 0 0 25 0 0 25 0 0 25 0 0 25 0 0 25 0 0 25 0 0 25 0 0 25 0 0 25 0 0 25 0 0 25 0 0 25 0 0 25 0 0 25 0 0 25 0 0 25 0 0 41 172 189 90 197 189 49 123 238 8 65 172 255 255 255 238 115 41 238 115 41 238 115 41 238 115 41 238 115 41 255 255 255 8 65 172 8 65 172 8 65 172 16 16 16 123 57 32 238 115 41 197 74 24 16 16 16 90 197 189 41 172 189 25 0 0 25 0 0 25 0 0 25 0 0 25 0 0 25 0 0 25 0 0 25 0 0 25 0 0 25 0 0 25 0 0 25 0 0 25 0 0 25 0 0 25 0 0 25 0 0 25 0 0 25 0 0 25 0 0 25 0 0 25 0 0 25 0 0 25 0 0 25 0 0 25 0 0 25 0 0 25 0 0 25 0 0 25 0 0 25 0 0 
25 0 0 25 0 0 25 0 0 25 0 0 25 0 0 25 0 0 25 0 0 25 0 0 25 0 0 25 0 0 25 0 0 25 0 0 25 0 0 25 0 0 25 0 0 25 0 0 25 0 0 25 0 0 25 0 0 25 0 0 25 0 0 25 0 0 25 0 0 25 0 0 25 0 0 25 0 0 25 0 0 25 0 0 25 0 0 41 172 189 90 197 189 255 255 255 49 123 238 189 189 189 238 115 41 238 115 41 238 115 41 238 115 41 238 115 41 255 255 255 8 65 172 8 65 172 189 189 189 197 74 24 197 74 24 197 74 24 197 74 24 16 16 16 90 197 189 41 172 189 25 0 0 25 0 0 25 0 0 25 0 0 25 0 0 25 0 0 25 0 0 25 0 0 25 0 0 25 0 0 25 0 0 25 0 0 25 0 0 25 0 0 25 0 0 25 0 0 25 0 0 25 0 0 25 0 0 25 0 0 25 0 0 25 0 0 25 0 0 25 0 0 25 0 0 25 0 0 25 0 0 25 0 0 25 0 0 25 0 0 
25 0 0 25 0 0 25 0 0 25 0 0 25 0 0 25 0 0 25 0 0 25 0 0 25 0 0 25 0 0 25 0 0 25 0 0 25 0 0 25 0 0 25 0 0 25 0 0 25 0 0 25 0 0 25 0 0 25 0 0 25 0 0 25 0 0 25 0 0 25 0 0 25 0 0 25 0 0 25 0 0 25 0 0 25 0 0 41 172 189 90 197 189 197 74 24 255 255 255 238 115 41 238 115 41 238 115 41 238 115 41 238 115 41 238 115 41 238 115 41 255 255 255 189 189 189 123 57 32 197 74 24 197 74 24 197 74 24 197 74 24 16 16 16 90 197 189 41 172 189 25 0 0 25 0 0 25 0 0 25 0 0 25 0 0 25 0 0 25 0 0 25 0 0 25 0 0 25 0 0 25 0 0 25 0 0 25 0 0 25 0 0 25 0 0 25 0 0 25 0 0 25 0 0 25 0 0 25 0 0 25 0 0 25 0 0 25 0 0 25 0 0 25 0 0 25 0 0 25 0 0 25 0 0 25 0 0 25 0 0 
25 0 0 25 0 0 25 0 0 25 0 0 25 0 0 25 0 0 25 0 0 25 0 0 25 0 0 25 0 0 25 0 0 25 0 0 25 0 0 25 0 0 25 0 0 25 0 0 25 0 0 25 0 0 25 0 0 25 0 0 25 0 0 25 0 0 25 0 0 25 0 0 25 0 0 25 0 0 25 0 0 25 0 0 25 0 0 25 0 0 41 172 189 197 74 24 197 74 24 197 74 24 123 57 32 238 115 41 238 115 41 238 115 41 16 16 16 197 74 24 123 57 32 123 57 32 197 74 24 197 74 24 197 74 24 197 74 24 123 57 32 90 197 189 41 172 189 25 0 0 25 0 0 25 0 0 25 0 0 25 0 0 25 0 0 25 0 0 25 0 0 25 0 0 25 0 0 25 0 0 25 0 0 25 0 0 25 0 0 25 0 0 25 0 0 25 0 0 25 0 0 25 0 0 25 0 0 25 0 0 25 0 0 25 0 0 25 0 0 25 0 0 25 0 0 25 0 0 25 0 0 25 0 0 25 0 0 25 0 0 
25 0 0 25 0 0 25 0 0 25 0 0 25 0 0 25 0 0 25 0 0 25 0 0 25 0 0 25 0 0 25 0 0 25 0 0 25 0 0 25 0 0 25 0 0 25 0 0 25 0 0 25 0 0 25 0 0 25 0 0 25 0 0 25 0 0 25 0 0 25 0 0 25 0 0 25 0 0 25 0 0 25 0 0 41 172 189 41 172 189 90 197 189 90 197 189 16 16 16 197 74 24 197 74 24 123 57 32 16 16 16 16 16 16 197 74 24 197 74 24 197 74 24 197 74 24 197 74 24 197 74 24 197 74 24 197 74 24 16 16 16 90 197 189 41 172 189 25 0 0 25 0 0 25 0 0 25 0 0 25 0 0 25 0 0 25 0 0 25 0 0 25 0 0 25 0 0 25 0 0 25 0 0 25 0 0 25 0 0 25 0 0 25 0 0 25 0 0 25 0 0 25 0 0 25 0 0 25 0 0 25 0 0 25 0 0 25 0 0 25 0 0 25 0 0 25 0 0 25 0 0 25 0 0 25 0 0 25 0 0 
25 0 0 25 0 0 25 0 0 25 0 0 25 0 0 25 0 0 25 0 0 25 0 0 25 0 0 25 0 0 25 0 0 25 0 0 25 0 0 25 0 0 25 0 0 25 0 0 25 0 0 25 0 0 25 0 0 25 0 0 25 0 0 25 0 0 41 172 189 41 172 189 41 172 189 41 172 189 41 172 189 41 172 189 90 197 189 90 197 189 90 197 189 90 197 189 90 197 189 16 16 16 197 74 24 197 74 24 197 74 24 197 74 24 197 74 24 197 74 24 197 74 24 197 74 24 197 74 24 197 74 24 197 74 24 16 16 16 90 197 189 90 197 189 90 197 189 41 172 189 41 172 189 25 0 0 25 0 0 25 0 0 25 0 0 25 0 0 25 0 0 25 0 0 25 0 0 25 0 0 25 0 0 25 0 0 25 0 0 25 0 0 25 0 0 25 0 0 25 0 0 25 0 0 25 0 0 25 0 0 25 0 0 25 0 0 25 0 0 25 0 0 25 0 0 25 0 0 25 0 0 25 0 0 25 0 0 25 0 0 
25 0 0 25 0 0 25 0 0 25 0 0 25 0 0 25 0 0 25 0 0 25 0 0 25 0 0 25 0 0 25 0 0 25 0 0 25 0 0 25 0 0 25 0 0 25 0 0 25 0 0 41 172 189 41 172 189 41 172 189 41 172 189 90 197 189 90 197 189 90 197 189 90 197 189 189 246 238 189 246 238 90 197 189 90 197 189 41 172 189 41 172 189 41 172 189 90 197 189 90 197 189 16 16 16 123 57 32 197 74 24 197 74 24 197 74 24 197 74 24 197 74 24 197 74 24 197 74 24 123 57 32 16 16 16 90 197 189 41 172 189 41 172 189 41 172 189 90 197 189 90 197 189 41 172 189 41 172 189 41 172 189 25 0 0 25 0 0 25 0 0 25 0 0 25 0 0 25 0 0 25 0 0 25 0 0 25 0 0 25 0 0 25 0 0 25 0 0 25 0 0 25 0 0 25 0 0 25 0 0 25 0 0 25 0 0 25 0 0 25 0 0 25 0 0 25 0 0 25 0 0 25 0 0 25 0 0 25 0 0 
25 0 0 25 0 0 25 0 0 25 0 0 25 0 0 25 0 0 25 0 0 25 0 0 25 0 0 25 0 0 25 0 0 25 0 0 25 0 0 25 0 0 25 0 0 25 0 0 41 172 189 41 172 189 90 197 189 90 197 189 189 246 238 255 255 255 255 255 255 255 255 255 255 255 255 189 246 238 90 197 189 41 172 189 41 172 189 25 0 0 25 0 0 25 0 0 25 0 0 41 172 189 90 197 189 90 197 189 123 57 32 16 16 16 16 16 16 123 57 32 197 74 24 16 16 16 16 16 16 90 197 189 90 197 189 41 172 189 25 0 0 25 0 0 25 0 0 41 172 189 90 197 189 90 197 189 90 197 189 90 197 189 41 172 189 41 172 189 41 172 189 25 0 0 25 0 0 25 0 0 25 0 0 25 0 0 25 0 0 25 0 0 25 0 0 25 0 0 25 0 0 25 0 0 25 0 0 25 0 0 25 0 0 25 0 0 25 0 0 25 0 0 25 0 0 25 0 0 25 0 0 25 0 0 25 0 0 25 0 0 
25 0 0 25 0 0 25 0 0 25 0 0 25 0 0 25 0 0 25 0 0 25 0 0 25 0 0 25 0 0 25 0 0 25 0 0 25 0 0 25 0 0 25 0 0 25 0 0 25 0 0 41 172 189 90 197 189 90 197 189 90 197 189 189 246 238 255 255 255 189 246 238 90 197 189 41 172 189 41 172 189 25 0 0 25 0 0 25 0 0 25 0 0 25 0 0 25 0 0 25 0 0 25 0 0 90 197 189 90 197 189 90 197 189 123 57 32 197 74 24 197 74 24 123 57 32 90 197 189 90 197 189 41 172 189 25 0 0 25 0 0 25 0 0 25 0 0 25 0 0 41 172 189 41 172 189 90 197 189 189 246 238 255 255 255 90 197 189 90 197 189 41 172 189 41 172 189 41 172 189 25 0 0 25 0 0 25 0 0 25 0 0 25 0 0 25 0 0 25 0 0 25 0 0 25 0 0 25 0 0 25 0 0 25 0 0 25 0 0 25 0 0 25 0 0 25 0 0 25 0 0 25 0 0 25 0 0 25 0 0 
25 0 0 25 0 0 25 0 0 25 0 0 25 0 0 25 0 0 25 0 0 25 0 0 25 0 0 25 0 0 25 0 0 25 0 0 25 0 0 25 0 0 25 0 0 25 0 0 25 0 0 25 0 0 41 172 189 41 172 189 90 197 189 90 197 189 90 197 189 41 172 189 41 172 189 25 0 0 25 0 0 25 0 0 25 0 0 25 0 0 25 0 0 25 0 0 25 0 0 25 0 0 41 172 189 41 172 189 90 197 189 123 57 32 197 74 24 197 74 24 197 74 24 197 74 24 123 57 32 90 197 189 90 197 189 41 172 189 25 0 0 25 0 0 25 0 0 25 0 0 25 0 0 25 0 0 41 172 189 90 197 189 90 197 189 255 255 255 255 255 255 189 246 238 90 197 189 90 197 189 41 172 189 41 172 189 25 0 0 25 0 0 25 0 0 25 0 0 25 0 0 25 0 0 25 0 0 25 0 0 25 0 0 25 0 0 25 0 0 25 0 0 25 0 0 25 0 0 25 0 0 25 0 0 25 0 0 25 0 0 
25 0 0 25 0 0 25 0 0 25 0 0 25 0 0 25 0 0 25 0 0 25 0 0 25 0 0 25 0 0 25 0 0 25 0 0 25 0 0 25 0 0 25 0 0 25 0 0 25 0 0 25 0 0 25 0 0 25 0 0 41 172 189 41 172 189 90 197 189 90 197 189 41 172 189 25 0 0 25 0 0 25 0 0 25 0 0 25 0 0 25 0 0 25 0 0 25 0 0 25 0 0 41 172 189 90 197 189 90 197 189 123 57 32 197 74 24 197 74 24 197 74 24 197 74 24 16 16 16 90 197 189 90 197 189 41 172 189 25 0 0 25 0 0 25 0 0 25 0 0 25 0 0 25 0 0 25 0 0 41 172 189 41 172 189 90 197 189 189 246 238 255 255 255 255 255 255 255 255 255 189 246 238 90 197 189 41 172 189 41 172 189 25 0 0 25 0 0 25 0 0 25 0 0 25 0 0 25 0 0 25 0 0 25 0 0 25 0 0 25 0 0 25 0 0 25 0 0 25 0 0 25 0 0 25 0 0 25 0 0 
25 0 0 25 0 0 25 0 0 25 0 0 25 0 0 25 0 0 25 0 0 25 0 0 25 0 0 25 0 0 25 0 0 25 0 0 25 0 0 25 0 0 25 0 0 25 0 0 25 0 0 25 0 0 25 0 0 25 0 0 25 0 0 25 0 0 41 172 189 90 197 189 90 197 189 41 172 189 41 172 189 25 0 0 25 0 0 25 0 0 25 0 0 25 0 0 25 0 0 25 0 0 25 0 0 41 172 189 90 197 189 90 197 189 123 57 32 16 16 16 16 16 16 123 57 32 90 197 189 90 197 189 41 172 189 25 0 0 25 0 0 25 0 0 25 0 0 25 0 0 25 0 0 25 0 0 25 0 0 25 0 0 25 0 0 41 172 189 90 197 189 90 197 189 255 255 255 189 246 238 90 197 189 90 197 189 90 197 189 41 172 189 41 172 189 25 0 0 25 0 0 25 0 0 25 0 0 25 0 0 25 0 0 25 0 0 25 0 0 25 0 0 25 0 0 25 0 0 25 0 0 25 0 0 25 0 0 25 0 0 
25 0 0 25 0 0 25 0 0 25 0 0 25 0 0 25 0 0 25 0 0 25 0 0 25 0 0 25 0 0 25 0 0 25 0 0 25 0 0 25 0 0 25 0 0 25 0 0 25 0 0 25 0 0 25 0 0 25 0 0 25 0 0 41 172 189 90 197 189 90 197 189 189 246 238 90 197 189 90 197 189 41 172 189 25 0 0 25 0 0 25 0 0 25 0 0 25 0 0 25 0 0 25 0 0 25 0 0 41 172 189 41 172 189 90 197 189 90 197 189 90 197 189 90 197 189 41 172 189 41 172 189 25 0 0 25 0 0 25 0 0 25 0 0 25 0 0 25 0 0 25 0 0 25 0 0 25 0 0 25 0 0 25 0 0 25 0 0 41 172 189 90 197 189 90 197 189 90 197 189 90 197 189 41 172 189 41 172 189 25 0 0 25 0 0 25 0 0 25 0 0 25 0 0 25 0 0 25 0 0 25 0 0 25 0 0 25 0 0 25 0 0 25 0 0 25 0 0 25 0 0 25 0 0 25 0 0 25 0 0 
25 0 0 25 0 0 25 0 0 25 0 0 25 0 0 25 0 0 25 0 0 25 0 0 25 0 0 25 0 0 25 0 0 25 0 0 25 0 0 25 0 0 25 0 0 25 0 0 25 0 0 25 0 0 25 0 0 41 172 189 41 172 189 90 197 189 90 197 189 255 255 255 255 255 255 255 255 255 90 197 189 90 197 189 41 172 189 41 172 189 25 0 0 25 0 0 25 0 0 25 0 0 25 0 0 25 0 0 25 0 0 41 172 189 189 246 238 189 246 238 189 246 238 41 172 189 41 172 189 25 0 0 25 0 0 25 0 0 25 0 0 25 0 0 25 0 0 25 0 0 25 0 0 25 0 0 25 0 0 25 0 0 41 172 189 41 172 189 90 197 189 90 197 189 90 197 189 90 197 189 41 172 189 25 0 0 25 0 0 25 0 0 25 0 0 25 0 0 25 0 0 25 0 0 25 0 0 25 0 0 25 0 0 25 0 0 25 0 0 25 0 0 25 0 0 25 0 0 25 0 0 25 0 0 25 0 0 25 0 0 
25 0 0 25 0 0 25 0 0 25 0 0 25 0 0 25 0 0 25 0 0 25 0 0 25 0 0 25 0 0 25 0 0 25 0 0 25 0 0 25 0 0 25 0 0 25 0 0 25 0 0 41 172 189 41 172 189 90 197 189 90 197 189 189 246 238 255 255 255 255 255 255 255 255 255 255 255 255 255 255 255 189 246 238 90 197 189 90 197 189 41 172 189 25 0 0 25 0 0 25 0 0 25 0 0 25 0 0 25 0 0 41 172 189 90 197 189 255 255 255 90 197 189 41 172 189 25 0 0 25 0 0 25 0 0 25 0 0 25 0 0 25 0 0 25 0 0 25 0 0 25 0 0 25 0 0 41 172 189 41 172 189 90 197 189 90 197 189 189 246 238 255 255 255 90 197 189 41 172 189 25 0 0 25 0 0 25 0 0 25 0 0 25 0 0 25 0 0 25 0 0 25 0 0 25 0 0 25 0 0 25 0 0 25 0 0 25 0 0 25 0 0 25 0 0 25 0 0 25 0 0 25 0 0 25 0 0 25 0 0 
25 0 0 25 0 0 25 0 0 25 0 0 25 0 0 25 0 0 25 0 0 25 0 0 25 0 0 25 0 0 25 0 0 25 0 0 25 0 0 25 0 0 25 0 0 25 0 0 41 172 189 90 197 189 90 197 189 189 246 238 255 255 255 255 255 255 255 255 255 255 255 255 255 255 255 255 255 255 189 246 238 90 197 189 90 197 189 90 197 189 90 197 189 41 172 189 25 0 0 25 0 0 25 0 0 25 0 0 25 0 0 25 0 0 90 197 189 255 255 255 90 197 189 41 172 189 25 0 0 25 0 0 25 0 0 25 0 0 25 0 0 25 0 0 25 0 0 25 0 0 41 172 189 41 172 189 90 197 189 90 197 189 189 246 238 255 255 255 255 255 255 255 255 255 90 197 189 90 197 189 41 172 189 25 0 0 25 0 0 25 0 0 25 0 0 25 0 0 25 0 0 25 0 0 25 0 0 25 0 0 25 0 0 25 0 0 25 0 0 25 0 0 25 0 0 25 0 0 25 0 0 25 0 0 25 0 0 25 0 0 
25 0 0 25 0 0 25 0 0 25 0 0 25 0 0 25 0 0 25 0 0 25 0 0 25 0 0 25 0 0 25 0 0 25 0 0 25 0 0 25 0 0 41 172 189 41 172 189 90 197 189 189 246 238 90 197 189 90 197 189 255 255 255 255 255 255 189 246 238 90 197 189 90 197 189 90 197 189 90 197 189 90 197 189 41 172 189 41 172 189 41 172 189 25 0 0 25 0 0 25 0 0 25 0 0 25 0 0 25 0 0 25 0 0 41 172 189 90 197 189 41 172 189 25 0 0 25 0 0 25 0 0 25 0 0 25 0 0 25 0 0 25 0 0 25 0 0 41 172 189 90 197 189 90 197 189 90 197 189 255 255 255 255 255 255 255 255 255 255 255 255 255 255 255 255 255 255 90 197 189 90 197 189 41 172 189 25 0 0 25 0 0 25 0 0 25 0 0 25 0 0 25 0 0 25 0 0 25 0 0 25 0 0 25 0 0 25 0 0 25 0 0 25 0 0 25 0 0 25 0 0 25 0 0 25 0 0 25 0 0 
25 0 0 25 0 0 25 0 0 25 0 0 25 0 0 25 0 0 25 0 0 25 0 0 25 0 0 25 0 0 25 0 0 25 0 0 25 0 0 41 172 189 90 197 189 90 197 189 255 255 255 255 255 255 255 255 255 90 197 189 90 197 189 90 197 189 90 197 189 90 197 189 41 172 189 41 172 189 41 172 189 41 172 189 25 0 0 25 0 0 25 0 0 25 0 0 25 0 0 25 0 0 25 0 0 25 0 0 25 0 0 25 0 0 41 172 189 90 197 189 41 172 189 25 0 0 25 0 0 25 0 0 25 0 0 25 0 0 25 0 0 25 0 0 25 0 0 41 172 189 41 172 189 90 197 189 90 197 189 90 197 189 189 246 238 255 255 255 255 255 255 255 255 255 255 255 255 255 255 255 90 197 189 90 197 189 41 172 189 25 0 0 25 0 0 25 0 0 25 0 0 25 0 0 25 0 0 25 0 0 25 0 0 25 0 0 25 0 0 25 0 0 25 0 0 25 0 0 25 0 0 25 0 0 25 0 0 25 0 0 
25 0 0 25 0 0 25 0 0 25 0 0 25 0 0 25 0 0 25 0 0 25 0 0 25 0 0 25 0 0 25 0 0 41 172 189 41 172 189 90 197 189 189 246 238 255 255 255 189 246 238 90 197 189 90 197 189 90 197 189 41 172 189 41 172 189 41 172 189 41 172 189 25 0 0 25 0 0 25 0 0 25 0 0 25 0 0 25 0 0 25 0 0 25 0 0 25 0 0 25 0 0 25 0 0 25 0 0 25 0 0 25 0 0 25 0 0 41 172 189 25 0 0 25 0 0 25 0 0 25 0 0 25 0 0 25 0 0 25 0 0 25 0 0 25 0 0 25 0 0 25 0 0 41 172 189 41 172 189 90 197 189 90 197 189 90 197 189 90 197 189 255 255 255 255 255 255 255 255 255 255 255 255 90 197 189 90 197 189 41 172 189 25 0 0 25 0 0 25 0 0 25 0 0 25 0 0 25 0 0 25 0 0 25 0 0 25 0 0 25 0 0 25 0 0 25 0 0 25 0 0 25 0 0 25 0 0 25 0 0 
25 0 0 25 0 0 25 0 0 25 0 0 25 0 0 25 0 0 25 0 0 25 0 0 25 0 0 25 0 0 41 172 189 90 197 189 90 197 189 90 197 189 90 197 189 41 172 189 41 172 189 41 172 189 41 172 189 41 172 189 25 0 0 25 0 0 25 0 0 25 0 0 25 0 0 25 0 0 25 0 0 25 0 0 25 0 0 25 0 0 25 0 0 25 0 0 25 0 0 25 0 0 25 0 0 25 0 0 25 0 0 25 0 0 25 0 0 25 0 0 25 0 0 25 0 0 25 0 0 25 0 0 25 0 0 25 0 0 25 0 0 25 0 0 25 0 0 25 0 0 25 0 0 25 0 0 25 0 0 41 172 189 41 172 189 41 172 189 90 197 189 90 197 189 90 197 189 189 246 238 90 197 189 90 197 189 255 255 255 90 197 189 41 172 189 25 0 0 25 0 0 25 0 0 25 0 0 25 0 0 25 0 0 25 0 0 25 0 0 25 0 0 25 0 0 25 0 0 25 0 0 25 0 0 25 0 0 25 0 0 
25 0 0 25 0 0 25 0 0 25 0 0 25 0 0 25 0 0 25 0 0 25 0 0 25 0 0 41 172 189 41 172 189 41 172 189 41 172 189 41 172 189 41 172 189 25 0 0 25 0 0 25 0 0 25 0 0 25 0 0 25 0 0 25 0 0 25 0 0 25 0 0 25 0 0 25 0 0 25 0 0 25 0 0 25 0 0 25 0 0 25 0 0 25 0 0 25 0 0 25 0 0 25 0 0 25 0 0 25 0 0 25 0 0 25 0 0 25 0 0 25 0 0 25 0 0 25 0 0 25 0 0 25 0 0 25 0 0 25 0 0 25 0 0 25 0 0 25 0 0 25 0 0 25 0 0 25 0 0 25 0 0 25 0 0 25 0 0 41 172 189 41 172 189 90 197 189 90 197 189 90 197 189 255 255 255 255 255 255 255 255 255 90 197 189 41 172 189 25 0 0 25 0 0 25 0 0 25 0 0 25 0 0 25 0 0 25 0 0 25 0 0 25 0 0 25 0 0 25 0 0 25 0 0 25 0 0 25 0 0 
25 0 0 25 0 0 25 0 0 25 0 0 25 0 0 25 0 0 25 0 0 25 0 0 25 0 0 25 0 0 25 0 0 25 0 0 25 0 0 25 0 0 25 0 0 25 0 0 25 0 0 25 0 0 25 0 0 25 0 0 25 0 0 25 0 0 25 0 0 25 0 0 25 0 0 25 0 0 25 0 0 25 0 0 25 0 0 25 0 0 25 0 0 25 0 0 25 0 0 25 0 0 25 0 0 25 0 0 25 0 0 25 0 0 25 0 0 25 0 0 25 0 0 25 0 0 25 0 0 25 0 0 25 0 0 25 0 0 25 0 0 25 0 0 25 0 0 25 0 0 25 0 0 25 0 0 25 0 0 25 0 0 25 0 0 25 0 0 25 0 0 25 0 0 41 172 189 41 172 189 41 172 189 90 197 189 90 197 189 255 255 255 255 255 255 90 197 189 41 172 189 25 0 0 25 0 0 25 0 0 25 0 0 25 0 0 25 0 0 25 0 0 25 0 0 25 0 0 25 0 0 25 0 0 25 0 0 25 0 0 
25 0 0 25 0 0 25 0 0 25 0 0 25 0 0 25 0 0 25 0 0 25 0 0 25 0 0 25 0 0 25 0 0 25 0 0 25 0 0 25 0 0 25 0 0 25 0 0 25 0 0 25 0 0 25 0 0 25 0 0 25 0 0 25 0 0 25 0 0 25 0 0 25 0 0 25 0 0 25 0 0 25 0 0 25 0 0 25 0 0 25 0 0 25 0 0 25 0 0 25 0 0 25 0 0 25 0 0 25 0 0 25 0 0 25 0 0 25 0 0 25 0 0 25 0 0 25 0 0 25 0 0 25 0 0 25 0 0 25 0 0 25 0 0 25 0 0 25 0 0 25 0 0 25 0 0 25 0 0 25 0 0 25 0 0 25 0 0 25 0 0 25 0 0 25 0 0 25 0 0 41 172 189 41 172 189 41 172 189 90 197 189 90 197 189 189 246 238 90 197 189 41 172 189 25 0 0 25 0 0 25 0 0 25 0 0 25 0 0 25 0 0 25 0 0 25 0 0 25 0 0 25 0 0 25 0 0 25 0 0 
25 0 0 25 0 0 25 0 0 25 0 0 25 0 0 25 0 0 25 0 0 25 0 0 25 0 0 25 0 0 25 0 0 25 0 0 25 0 0 25 0 0 25 0 0 25 0 0 25 0 0 25 0 0 25 0 0 25 0 0 25 0 0 25 0 0 25 0 0 25 0 0 25 0 0 25 0 0 25 0 0 25 0 0 25 0 0 25 0 0 25 0 0 25 0 0 25 0 0 25 0 0 25 0 0 25 0 0 25 0 0 25 0 0 25 0 0 25 0 0 25 0 0 25 0 0 25 0 0 25 0 0 25 0 0 25 0 0 25 0 0 25 0 0 25 0 0 25 0 0 25 0 0 25 0 0 25 0 0 25 0 0 25 0 0 25 0 0 25 0 0 25 0 0 25 0 0 25 0 0 25 0 0 25 0 0 25 0 0 41 172 189 41 172 189 90 197 189 90 197 189 90 197 189 41 172 189 25 0 0 25 0 0 25 0 0 25 0 0 25 0 0 25 0 0 25 0 0 25 0 0 25 0 0 25 0 0 25 0 0 
25 0 0 25 0 0 25 0 0 25 0 0 25 0 0 25 0 0 25 0 0 25 0 0 25 0 0 25 0 0 25 0 0 25 0 0 25 0 0 25 0 0 25 0 0 25 0 0 25 0 0 25 0 0 25 0 0 25 0 0 25 0 0 25 0 0 25 0 0 25 0 0 25 0 0 25 0 0 25 0 0 25 0 0 25 0 0 25 0 0 25 0 0 25 0 0 25 0 0 25 0 0 25 0 0 25 0 0 25 0 0 25 0 0 25 0 0 25 0 0 25 0 0 25 0 0 25 0 0 25 0 0 25 0 0 25 0 0 25 0 0 25 0 0 25 0 0 25 0 0 25 0 0 25 0 0 25 0 0 25 0 0 25 0 0 25 0 0 25 0 0 25 0 0 25 0 0 25 0 0 25 0 0 25 0 0 25 0 0 25 0 0 25 0 0 41 172 189 41 172 189 90 197 189 90 197 189 41 172 189 25 0 0 25 0 0 25 0 0 25 0 0 25 0 0 25 0 0 25 0 0 25 0 0 25 0 0 25 0 0 
25 0 0 25 0 0 25 0 0 25 0 0 25 0 0 25 0 0 25 0 0 25 0 0 25 0 0 25 0 0 25 0 0 25 0 0 25 0 0 25 0 0 25 0 0 25 0 0 25 0 0 25 0 0 25 0 0 25 0 0 25 0 0 25 0 0 25 0 0 25 0 0 25 0 0 25 0 0 25 0 0 25 0 0 25 0 0 25 0 0 25 0 0 25 0 0 25 0 0 25 0 0 25 0 0 25 0 0 25 0 0 25 0 0 25 0 0 25 0 0 25 0 0 25 0 0 25 0 0 25 0 0 25 0 0 25 0 0 25 0 0 25 0 0 25 0 0 25 0 0 25 0 0 25 0 0 25 0 0 25 0 0 25 0 0 25 0 0 25 0 0 25 0 0 25 0 0 25 0 0 25 0 0 25 0 0 25 0 0 25 0 0 25 0 0 25 0 0 25 0 0 41 172 189 41 172 189 41 172 189 25 0 0 25 0 0 25 0 0 25 0 0 25 0 0 25 0 0 25 0 0 25 0 0 25 0 0 25 0 0 
25 0 0 25 0 0 25 0 0 25 0 0 25 0 0 25 0 0 25 0 0 25 0 0 25 0 0 25 0 0 25 0 0 25 0 0 25 0 0 25 0 0 25 0 0 25 0 0 25 0 0 25 0 0 25 0 0 25 0 0 25 0 0 25 0 0 25 0 0 25 0 0 25 0 0 25 0 0 25 0 0 25 0 0 25 0 0 25 0 0 25 0 0 25 0 0 25 0 0 25 0 0 25 0 0 25 0 0 25 0 0 25 0 0 25 0 0 25 0 0 25 0 0 25 0 0 25 0 0 25 0 0 25 0 0 25 0 0 25 0 0 25 0 0 25 0 0 25 0 0 25 0 0 25 0 0 25 0 0 25 0 0 25 0 0 25 0 0 25 0 0 25 0 0 25 0 0 25 0 0 25 0 0 25 0 0 25 0 0 25 0 0 25 0 0 25 0 0 25 0 0 25 0 0 25 0 0 25 0 0 25 0 0 25 0 0 25 0 0 25 0 0 25 0 0 25 0 0 25 0 0 25 0 0 25 0 0 25 0 0 
25 0 0 25 0 0 25 0 0 25 0 0 25 0 0 25 0 0 25 0 0 25 0 0 25 0 0 25 0 0 25 0 0 25 0 0 25 0 0 25 0 0 25 0 0 25 0 0 25 0 0 25 0 0 25 0 0 25 0 0 25 0 0 25 0 0 25 0 0 25 0 0 25 0 0 25 0 0 25 0 0 25 0 0 25 0 0 25 0 0 25 0 0 25 0 0 25 0 0 25 0 0 25 0 0 25 0 0 25 0 0 25 0 0 25 0 0 25 0 0 25 0 0 25 0 0 25 0 0 25 0 0 25 0 0 25 0 0 25 0 0 25 0 0 25 0 0 25 0 0 25 0 0 25 0 0 25 0 0 25 0 0 25 0 0 25 0 0 25 0 0 25 0 0 25 0 0 25 0 0 25 0 0 25 0 0 25 0 0 25 0 0 25 0 0 25 0 0 25 0 0 25 0 0 25 0 0 25 0 0 25 0 0 25 0 0 25 0 0 25 0 0 25 0 0 25 0 0 25 0 0 25 0 0 25 0 0 25 0 0 
25 0 0 25 0 0 25 0 0 25 0 0 25 0 0 25 0 0 25 0 0 25 0 0 25 0 0 25 0 0 25 0 0 25 0 0 25 0 0 25 0 0 25 0 0 25 0 0 25 0 0 25 0 0 25 0 0 25 0 0 25 0 0 25 0 0 25 0 0 25 0 0 25 0 0 25 0 0 25 0 0 25 0 0 25 0 0 25 0 0 25 0 0 25 0 0 25 0 0 25 0 0 25 0 0 25 0 0 25 0 0 25 0 0 25 0 0 25 0 0 25 0 0 25 0 0 25 0 0 25 0 0 25 0 0 25 0 0 25 0 0 25 0 0 25 0 0 25 0 0 25 0 0 25 0 0 25 0 0 25 0 0 25 0 0 25 0 0 25 0 0 25 0 0 25 0 0 25 0 0 25 0 0 25 0 0 25 0 0 25 0 0 25 0 0 25 0 0 25 0 0 25 0 0 25 0 0 25 0 0 25 0 0 25 0 0 25 0 0 25 0 0 25 0 0 25 0 0 25 0 0 25 0 0 25 0 0 25 0 0 
25 0 0 25 0 0 25 0 0 25 0 0 25 0 0 25 0 0 25 0 0 25 0 0 25 0 0 25 0 0 25 0 0 25 0 0 25 0 0 25 0 0 25 0 0 25 0 0 25 0 0 25 0 0 25 0 0 25 0 0 25 0 0 25 0 0 25 0 0 25 0 0 25 0 0 25 0 0 25 0 0 25 0 0 25 0 0 25 0 0 25 0 0 25 0 0 25 0 0 25 0 0 25 0 0 25 0 0 25 0 0 25 0 0 25 0 0 25 0 0 25 0 0 25 0 0 25 0 0 25 0 0 25 0 0 25 0 0 25 0 0 25 0 0 25 0 0 25 0 0 25 0 0 25 0 0 25 0 0 25 0 0 25 0 0 25 0 0 25 0 0 25 0 0 25 0 0 25 0 0 25 0 0 25 0 0 25 0 0 25 0 0 25 0 0 25 0 0 25 0 0 25 0 0 25 0 0 25 0 0 25 0 0 25 0 0 25 0 0 25 0 0 25 0 0 25 0 0 25 0 0 25 0 0 25 0 0 25 0 0 
25 0 0 25 0 0 25 0 0 25 0 0 25 0 0 25 0 0 25 0 0 25 0 0 25 0 0 25 0 0 25 0 0 25 0 0 25 0 0 25 0 0 25 0 0 25 0 0 25 0 0 25 0 0 25 0 0 25 0 0 25 0 0 25 0 0 25 0 0 25 0 0 25 0 0 25 0 0 25 0 0 25 0 0 25 0 0 25 0 0 25 0 0 25 0 0 25 0 0 25 0 0 25 0 0 25 0 0 25 0 0 25 0 0 25 0 0 25 0 0 25 0 0 25 0 0 25 0 0 25 0 0 25 0 0 25 0 0 25 0 0 25 0 0 25 0 0 25 0 0 25 0 0 25 0 0 25 0 0 25 0 0 25 0 0 25 0 0 25 0 0 25 0 0 25 0 0 25 0 0 25 0 0 25 0 0 25 0 0 25 0 0 25 0 0 25 0 0 25 0 0 25 0 0 25 0 0 25 0 0 25 0 0 25 0 0 25 0 0 25 0 0 25 0 0 25 0 0 25 0 0 25 0 0 25 0 0 25 0 0 
25 0 0 25 0 0 25 0 0 25 0 0 25 0 0 25 0 0 25 0 0 25 0 0 25 0 0 25 0 0 25 0 0 25 0 0 25 0 0 25 0 0 25 0 0 25 0 0 25 0 0 25 0 0 25 0 0 25 0 0 25 0 0 25 0 0 25 0 0 25 0 0 25 0 0 25 0 0 25 0 0 25 0 0 25 0 0 25 0 0 25 0 0 25 0 0 25 0 0 25 0 0 25 0 0 25 0 0 25 0 0 25 0 0 25 0 0 25 0 0 25 0 0 25 0 0 25 0 0 25 0 0 25 0 0 25 0 0 25 0 0 25 0 0 25 0 0 25 0 0 25 0 0 25 0 0 25 0 0 25 0 0 25 0 0 25 0 0 25 0 0 25 0 0 25 0 0 25 0 0 25 0 0 25 0 0 25 0 0 25 0 0 25 0 0 25 0 0 25 0 0 25 0 0 25 0 0 25 0 0 25 0 0 25 0 0 25 0 0 25 0 0 25 0 0 25 0 0 25 0 0 25 0 0 25 0 0 25 0 0 
25 0 0 25 0 0 25 0 0 25 0 0 25 0 0 25 0 0 25 0 0 25 0 0 25 0 0 25 0 0 25 0 0 25 0 0 25 0 0 25 0 0 25 0 0 25 0 0 25 0 0 25 0 0 25 0 0 25 0 0 25 0 0 25 0 0 25 0 0 25 0 0 25 0 0 25 0 0 25 0 0 25 0 0 25 0 0 25 0 0 25 0 0 25 0 0 25 0 0 25 0 0 25 0 0 25 0 0 25 0 0 25 0 0 25 0 0 25 0 0 25 0 0 25 0 0 25 0 0 25 0 0 25 0 0 25 0 0 25 0 0 25 0 0 25 0 0 25 0 0 25 0 0 25 0 0 25 0 0 25 0 0 25 0 0 25 0 0 25 0 0 25 0 0 25 0 0 25 0 0 25 0 0 25 0 0 25 0 0 25 0 0 25 0 0 25 0 0 25 0 0 25 0 0 25 0 0 25 0 0 25 0 0 25 0 0 25 0 0 25 0 0 25 0 0 25 0 0 25 0 0 25 0 0 25 0 0 25 0 0 
25 0 0 25 0 0 25 0 0 25 0 0 25 0 0 25 0 0 25 0 0 25 0 0 25 0 0 25 0 0 25 0 0 25 0 0 25 0 0 25 0 0 25 0 0 25 0 0 25 0 0 25 0 0 25 0 0 25 0 0 25 0 0 25 0 0 25 0 0 25 0 0 25 0 0 25 0 0 25 0 0 25 0 0 25 0 0 25 0 0 25 0 0 25 0 0 25 0 0 25 0 0 25 0 0 25 0 0 25 0 0 25 0 0 25 0 0 25 0 0 25 0 0 25 0 0 25 0 0 25 0 0 25 0 0 25 0 0 25 0 0 25 0 0 25 0 0 25 0 0 25 0 0 25 0 0 25 0 0 25 0 0 25 0 0 25 0 0 25 0 0 25 0 0 25 0 0 25 0 0 25 0 0 25 0 0 25 0 0 25 0 0 25 0 0 25 0 0 25 0 0 25 0 0 25 0 0 25 0 0 25 0 0 25 0 0 25 0 0 25 0 0 25 0 0 25 0 0 25 0 0 25 0 0 25 0 0 25 0 0 
25 0 0 25 0 0 25 0 0 25 0 0 25 0 0 25 0 0 25 0 0 25 0 0 25 0 0 25 0 0 25 0 0 25 0 0 25 0 0 25 0 0 25 0 0 25 0 0 25 0 0 25 0 0 25 0 0 25 0 0 25 0 0 25 0 0 25 0 0 25 0 0 25 0 0 25 0 0 25 0 0 25 0 0 25 0 0 25 0 0 25 0 0 25 0 0 25 0 0 25 0 0 25 0 0 25 0 0 25 0 0 25 0 0 25 0 0 25 0 0 25 0 0 25 0 0 25 0 0 25 0 0 25 0 0 25 0 0 25 0 0 25 0 0 25 0 0 25 0 0 25 0 0 25 0 0 25 0 0 25 0 0 25 0 0 25 0 0 25 0 0 25 0 0 25 0 0 25 0 0 25 0 0 25 0 0 25 0 0 25 0 0 25 0 0 25 0 0 25 0 0 25 0 0 25 0 0 25 0 0 25 0 0 25 0 0 25 0 0 25 0 0 25 0 0 25 0 0 25 0 0 25 0 0 25 0 0 25 0 0 
25 0 0 25 0 0 25 0 0 25 0 0 25 0 0 25 0 0 25 0 0 25 0 0 25 0 0 25 0 0 25 0 0 25 0 0 25 0 0 25 0 0 25 0 0 25 0 0 25 0 0 25 0 0 25 0 0 25 0 0 25 0 0 25 0 0 25 0 0 25 0 0 25 0 0 25 0 0 25 0 0 25 0 0 25 0 0 25 0 0 25 0 0 25 0 0 25 0 0 25 0 0 25 0 0 25 0 0 25 0 0 25 0 0 25 0 0 25 0 0 25 0 0 25 0 0 25 0 0 25 0 0 25 0 0 25 0 0 25 0 0 25 0 0 25 0 0 25 0 0 25 0 0 25 0 0 25 0 0 25 0 0 25 0 0 25 0 0 25 0 0 25 0 0 25 0 0 25 0 0 25 0 0 25 0 0 25 0 0 25 0 0 25 0 0 25 0 0 25 0 0 25 0 0 25 0 0 25 0 0 25 0 0 25 0 0 25 0 0 25 0 0 25 0 0 25 0 0 25 0 0 25 0 0 25 0 0 25 0 0 
25 0 0 25 0 0 25 0 0 25 0 0 25 0 0 25 0 0 25 0 0 25 0 0 25 0 0 25 0 0 25 0 0 25 0 0 25 0 0 25 0 0 25 0 0 25 0 0 25 0 0 25 0 0 25 0 0 25 0 0 25 0 0 25 0 0 25 0 0 25 0 0 25 0 0 25 0 0 25 0 0 25 0 0 25 0 0 25 0 0 25 0 0 25 0 0 25 0 0 25 0 0 25 0 0 25 0 0 25 0 0 25 0 0 25 0 0 25 0 0 25 0 0 25 0 0 25 0 0 25 0 0 25 0 0 25 0 0 25 0 0 25 0 0 25 0 0 25 0 0 25 0 0 25 0 0 25 0 0 25 0 0 25 0 0 25 0 0 25 0 0 25 0 0 25 0 0 25 0 0 25 0 0 25 0 0 25 0 0 25 0 0 25 0 0 25 0 0 25 0 0 25 0 0 25 0 0 25 0 0 25 0 0 25 0 0 25 0 0 25 0 0 25 0 0 25 0 0 25 0 0 25 0 0 25 0 0 25 0 0 
25 0 0 25 0 0 25 0 0 25 0 0 25 0 0 25 0 0 25 0 0 25 0 0 25 0 0 25 0 0 25 0 0 25 0 0 25 0 0 25 0 0 25 0 0 25 0 0 25 0 0 25 0 0 25 0 0 25 0 0 25 0 0 25 0 0 25 0 0 25 0 0 25 0 0 25 0 0 25 0 0 25 0 0 25 0 0 25 0 0 25 0 0 25 0 0 25 0 0 25 0 0 25 0 0 25 0 0 25 0 0 25 0 0 25 0 0 25 0 0 25 0 0 25 0 0 25 0 0 25 0 0 25 0 0 25 0 0 25 0 0 25 0 0 25 0 0 25 0 0 25 0 0 25 0 0 25 0 0 25 0 0 25 0 0 25 0 0 25 0 0 25 0 0 25 0 0 25 0 0 25 0 0 25 0 0 25 0 0 25 0 0 25 0 0 25 0 0 25 0 0 25 0 0 25 0 0 25 0 0 25 0 0 25 0 0 25 0 0 25 0 0 25 0 0 25 0 0 25 0 0 25 0 0 25 0 0 25 0 0 
25 0 0 25 0 0 25 0 0 25 0 0 25 0 0 25 0 0 25 0 0 25 0 0 25 0 0 25 0 0 25 0 0 25 0 0 25 0 0 25 0 0 25 0 0 25 0 0 25 0 0 25 0 0 25 0 0 25 0 0 25 0 0 25 0 0 25 0 0 25 0 0 25 0 0 25 0 0 25 0 0 25 0 0 25 0 0 25 0 0 25 0 0 25 0 0 25 0 0 25 0 0 25 0 0 25 0 0 25 0 0 25 0 0 25 0 0 25 0 0 25 0 0 25 0 0 25 0 0 25 0 0 25 0 0 25 0 0 25 0 0 25 0 0 25 0 0 25 0 0 25 0 0 25 0 0 25 0 0 25 0 0 25 0 0 25 0 0 25 0 0 25 0 0 25 0 0 25 0 0 25 0 0 25 0 0 25 0 0 25 0 0 25 0 0 25 0 0 25 0 0 25 0 0 25 0 0 25 0 0 25 0 0 25 0 0 25 0 0 25 0 0 25 0 0 25 0 0 25 0 0 25 0 0 25 0 0 25 0 0 
25 0 0 25 0 0 25 0 0 25 0 0 25 0 0 25 0 0 25 0 0 25 0 0 25 0 0 25 0 0 25 0 0 25 0 0 25 0 0 25 0 0 25 0 0 25 0 0 25 0 0 25 0 0 25 0 0 25 0 0 25 0 0 25 0 0 25 0 0 25 0 0 25 0 0 25 0 0 25 0 0 25 0 0 25 0 0 25 0 0 25 0 0 25 0 0 25 0 0 25 0 0 25 0 0 25 0 0 25 0 0 25 0 0 25 0 0 25 0 0 25 0 0 25 0 0 25 0 0 25 0 0 25 0 0 25 0 0 25 0 0 25 0 0 25 0 0 25 0 0 25 0 0 25 0 0 25 0 0 25 0 0 25 0 0 25 0 0 25 0 0 25 0 0 25 0 0 25 0 0 25 0 0 25 0 0 25 0 0 25 0 0 25 0 0 25 0 0 25 0 0 25 0 0 25 0 0 25 0 0 25 0 0 25 0 0 25 0 0 25 0 0 25 0 0 25 0 0 25 0 0 25 0 0 25 0 0 25 0 0 
25 0 0 25 0 0 25 0 0 25 0 0 25 0 0 25 0 0 25 0 0 25 0 0 25 0 0 25 0 0 25 0 0 25 0 0 25 0 0 25 0 0 25 0 0 25 0 0 25 0 0 25 0 0 25 0 0 25 0 0 25 0 0 25 0 0 25 0 0 25 0 0 25 0 0 25 0 0 25 0 0 25 0 0 25 0 0 25 0 0 25 0 0 25 0 0 25 0 0 25 0 0 25 0 0 25 0 0 25 0 0 25 0 0 25 0 0 25 0 0 25 0 0 25 0 0 25 0 0 25 0 0 25 0 0 25 0 0 25 0 0 25 0 0 25 0 0 25 0 0 25 0 0 25 0 0 25 0 0 25 0 0 25 0 0 25 0 0 25 0 0 25 0 0 25 0 0 25 0 0 25 0 0 25 0 0 25 0 0 25 0 0 25 0 0 25 0 0 25 0 0 25 0 0 25 0 0 25 0 0 25 0 0 25 0 0 25 0 0 25 0 0 25 0 0 25 0 0 25 0 0 25 0 0 25 0 0 25 0 0 
