P3
64 64
255
255 255 255 255 255 255 255 255 255 255 255 255 255 255 255 255 255 255 255 255 255 255 255 255 255 255 255 255 255 255 255 255 255 255 255 255 255 255 255 255 255 255 255 255 255 255 255 255 255 255 255 255 255 255 255 255 255 255 255 255 255 255 255 255 255 255 255 255 255 255 255 255 255 255 255 255 255 255 255 255 255 255 255 255 255 255 255 255 255 255 255 255 255 255 255 255 255 255 255 255 255 255 255 255 255 255 255 255 255 255 255 255 255 255 255 255 255 255 255 255 255 255 255 255 255 255 255 255 255 255 255 255 255 255 255 255 255 255 255 255 255 255 255 255 255 255 255 255 255 255 255 255 255 255 255 255 255 255 255 255 255 255 255 255 255 255 255 255 255 255 255 255 255 255 255 255 255 255 255 255 255 255 255 255 255 255 255 255 255 255 255 255 
255 255 255 255 255 255 255 255 255 255 255 255 255 255 255 255 255 255 255 255 255 255 255 255 255 255 255 255 255 255 255 255 255 255 255 255 255 255 255 255 255 255 255 255 255 255 255 255 255 255 255 255 255 255 255 255 255 255 255 255 255 255 255 255 255 255 255 255 255 255 255 255 255 255 255 255 255 255 255 255 255 255 255 255 255 255 255 255 255 255 255 255 255 255 255 255 255 255 255 255 255 255 255 255 255 255 255 255 255 255 255 255 255 255 255 255 255 255 255 255 255 255 255 255 255 255 255 255 255 255 255 255 255 255 255 255 255 255 255 255 255 255 255 255 255 255 255 255 255 255 255 255 255 255 255 255 255 255 255 255 255 255 255 255 255 255 255 255 255 255 255 255 255 255 255 255 255 255 255 255 255 255 255 255 255 255 255 255 255 255 255 255 
255 255 255 255 255 255 255 255 255 255 255 255 255 255 255 255 255 255 255 255 255 255 255 255 255 255 255 255 255 255 255 255 255 255 255 255 255 255 255 255 255 255 255 255 255 255 255 255 255 255 255 255 255 255 255 255 255 255 255 255 255 255 255 255 255 255 255 255 255 255 255 255 255 255 255 255 255 255 255 255 255 255 255 255 255 255 255 255 255 255 255 255 255 255 255 255 255 255 255 255 255 255 255 255 255 255 255 255 255 255 255 255 255 255 255 255 255 255 255 255 255 255 255 255 255 255 255 255 255 255 255 255 255 255 255 255 255 255 255 255 255 255 255 255 255 255 255 255 255 255 255 255 255 255 255 255 255 255 255 255 255 255 255 255 255 255 255 255 255 255 255 255 255 255 255 255 255 255 255 255 255 255 255 255 255 255 255 255 255 255 255 255 
255 255 255 255 255 255 255 255 255 255 255 255 255 255 255 255 255 255 255 255 255 255 255 255 255 255 255 255 255 255 255 255 255 255 255 255 255 255 255 255 255 255 255 255 255 255 255 255 255 255 255 255 255 255 255 255 255 255 255 255 255 255 255 255 255 255 255 255 255 255 255 255 255 255 255 255 255 255 255 255 255 255 255 255 255 255 255 255 255 255 255 255 255 255 255 255 255 255 255 255 255 255 255 255 255 255 255 255 255 255 255 255 255 255 255 255 255 255 255 255 255 255 255 255 255 255 255 255 255 255 255 255 255 255 255 255 255 255 255 255 255 255 255 255 255 255 255 255 255 255 255 255 255 255 255 255 255 255 255 255 255 255 255 255 255 255 255 255 255 255 255 255 255 255 255 255 255 255 255 255 255 255 255 255 255 255 255 255 255 255 255 255 
255 255 255 255 255 255 255 255 255 255 255 255 255 255 255 255 255 255 255 255 255 255 255 255 255 255 255 255 255 255 255 255 255 255 255 255 255 255 255 255 255 255 255 255 255 255 255 255 255 255 255 255 255 255 255 255 255 255 255 255 255 255 255 255 255 255 255 255 255 255 255 255 255 255 255 255 255 255 255 255 255 255 255 255 255 255 255 255 255 255 255 255 255 255 255 255 255 255 255 255 255 255 255 255 255 255 255 255 255 255 255 255 255 255 255 255 255 255 255 255 255 255 255 255 255 255 255 255 255 255 255 255 255 255 255 255 255 255 255 255 255 255 255 255 255 255 255 255 255 255 255 255 255 255 255 255 255 255 255 255 255 255 255 255 255 255 255 255 255 255 255 255 255 255 255 255 255 255 255 255 255 255 255 255 255 255 255 255 255 255 255 255 
255 255 255 255 255 255 255 255 255 255 255 255 255 255 255 255 255 255 255 255 255 255 255 255 255 255 255 255 255 255 255 255 255 255 255 255 255 255 255 255 255 255 255 255 255 255 255 255 128 136 152 128 136 152 255 255 255 255 255 255 255 255 255 255 255 255 255 255 255 255 255 255 255 255 255 255 255 255 255 255 255 255 255 255 255 255 255 255 255 255 255 255 255 255 255 255 255 255 255 255 255 255 255 255 255 255 255 255 255 255 255 255 255 255 255 255 255 255 255 255 255 255 255 255 255 255 255 255 255 255 255 255 255 255 255 255 255 255 255 255 255 255 255 255 255 255 255 255 255 255 255 255 255 255 255 255 255 255 255 255 255 255 255 255 255 255 255 255 255 255 255 255 255 255 255 255 255 255 255 255 255 255 255 255 255 255 255 255 255 255 255 255 
255 255 255 255 255 255 255 255 255 255 255 255 255 255 255 255 255 255 255 255 255 255 255 255 255 255 255 255 255 255 255 255 255 255 255 255 255 255 255 255 255 255 255 255 255 255 255 255 128 136 152 248 248 248 16 16 16 255 255 255 255 255 255 255 255 255 255 255 255 255 255 255 255 255 255 255 255 255 255 255 255 255 255 255 255 255 255 255 255 255 255 255 255 255 255 255 255 255 255 255 255 255 255 255 255 255 255 255 255 255 255 255 255 255 255 255 255 255 255 255 255 255 255 255 255 255 255 255 255 255 255 255 255 255 255 255 255 255 255 255 255 255 255 255 255 255 255 255 255 255 255 255 255 255 255 255 255 255 255 255 255 255 255 255 255 255 255 255 255 255 255 255 255 255 255 255 255 255 255 255 255 255 255 255 255 255 255 255 255 255 255 255 
255 255 255 255 255 255 255 255 255 255 255 255 255 255 255 255 255 255 255 255 255 255 255 255 255 255 255 255 255 255 255 255 255 255 255 255 255 255 255 255 255 255 255 255 255 255 255 255 128 136 152 248 248 248 88 88 96 255 255 255 255 255 255 255 255 255 255 255 255 255 255 255 255 255 255 255 255 255 255 255 255 255 255 255 255 255 255 255 255 255 255 255 255 255 255 255 255 255 255 255 255 255 255 255 255 255 255 255 128 136 152 128 136 152 88 88 96 255 255 255 255 255 255 255 255 255 255 255 255 255 255 255 255 255 255 255 255 255 255 255 255 255 255 255 255 255 255 255 255 255 255 255 255 255 255 255 255 255 255 255 255 255 255 255 255 255 255 255 255 255 255 255 255 255 255 255 255 255 255 255 255 255 255 255 255 255 255 255 255 255 255 255 
255 255 255 255 255 255 255 255 255 255 255 255 255 255 255 255 255 255 255 255 255 255 255 255 255 255 255 255 255 255 255 255 255 255 255 255 255 255 255 255 255 255 255 255 255 255 255 255 88 88 96 248 248 248 248 248 248 16 16 16 255 255 255 255 255 255 255 255 255 255 255 255 255 255 255 255 255 255 255 255 255 255 255 255 255 255 255 255 255 255 255 255 255 255 255 255 255 255 255 255 255 255 255 255 255 128 136 152 208 208 216 208 208 216 208 208 216 88 88 96 255 255 255 255 255 255 255 255 255 255 255 255 255 255 255 255 255 255 255 255 255 255 255 255 255 255 255 255 255 255 255 255 255 255 255 255 255 255 255 255 255 255 255 255 255 255 255 255 255 255 255 255 255 255 255 255 255 255 255 255 255 255 255 255 255 255 255 255 255 255 255 255 
255 255 255 255 255 255 255 255 255 255 255 255 255 255 255 255 255 255 255 255 255 255 255 255 255 255 255 255 255 255 255 255 255 255 255 255 255 255 255 255 255 255 255 255 255 255 255 255 88 88 96 248 248 248 248 248 248 88 88 96 255 255 255 255 255 255 255 255 255 255 255 255 255 255 255 255 255 255 128 136 152 128 136 152 255 255 255 255 255 255 255 255 255 255 255 255 255 255 255 128 136 152 128 136 152 248 248 248 248 248 248 208 208 216 208 208 216 208 208 216 128 136 152 88 88 96 255 255 255 255 255 255 255 255 255 255 255 255 255 255 255 128 136 152 88 88 96 88 88 96 88 88 96 88 88 96 168 176 184 255 255 255 255 255 255 255 255 255 255 255 255 255 255 255 255 255 255 255 255 255 255 255 255 255 255 255 255 255 255 255 255 255 
255 255 255 255 255 255 255 255 255 255 255 255 255 255 255 255 255 255 255 255 255 255 255 255 255 255 255 255 255 255 255 255 255 255 255 255 255 255 255 255 255 255 255 255 255 255 255 255 88 88 96 248 248 248 248 248 248 208 208 216 16 16 16 255 255 255 255 255 255 255 255 255 255 255 255 255 255 255 88 88 96 248 248 248 128 136 152 128 136 152 128 136 152 255 255 255 88 88 96 248 248 248 248 248 248 248 248 248 248 248 248 248 248 248 208 208 216 208 208 216 208 208 216 208 208 216 88 88 96 255 255 255 255 255 255 255 255 255 128 136 152 248 248 248 248 248 248 248 248 248 248 248 248 248 248 248 248 248 248 128 136 152 255 255 255 255 255 255 255 255 255 255 255 255 255 255 255 255 255 255 255 255 255 255 255 255 255 255 255 255 255 255 
255 255 255 255 255 255 255 255 255 255 255 255 255 255 255 255 255 255 255 255 255 255 255 255 255 255 255 255 255 255 255 255 255 255 255 255 255 255 255 255 255 255 255 255 255 255 255 255 88 88 96 248 248 248 248 248 248 208 208 216 88 88 96 255 255 255 255 255 255 255 255 255 255 255 255 255 255 255 88 88 96 248 248 248 248 248 248 248 248 248 248 248 248 128 136 152 88 88 96 248 248 248 80 80 80 80 80 80 168 176 184 248 248 248 208 208 216 208 208 216 208 208 216 208 208 216 88 88 96 255 255 255 255 255 255 255 255 255 128 136 152 248 248 248 248 248 248 248 248 248 248 248 248 248 248 248 248 248 248 248 248 248 128 136 152 255 255 255 255 255 255 255 255 255 255 255 255 255 255 255 255 255 255 255 255 255 255 255 255 255 255 255 
255 255 255 255 255 255 255 255 255 255 255 255 255 255 255 255 255 255 255 255 255 255 255 255 255 255 255 255 255 255 255 255 255 255 255 255 255 255 255 255 255 255 255 255 255 255 255 255 88 88 96 248 248 248 248 248 248 208 208 216 208 208 216 16 16 16 255 255 255 255 255 255 255 255 255 255 255 255 88 88 96 248 248 248 248 248 248 248 248 248 248 248 248 128 136 152 248 248 248 80 80 80 80 80 80 80 80 80 80 80 80 248 248 248 208 208 216 208 208 216 208 208 216 208 208 216 88 88 96 255 255 255 255 255 255 128 136 152 248 248 248 248 248 248 248 248 248 248 248 248 248 248 248 248 248 248 248 248 248 208 208 216 88 88 96 88 88 96 255 255 255 255 255 255 255 255 255 255 255 255 255 255 255 255 255 255 255 255 255 255 255 255 
255 255 255 255 255 255 255 255 255 255 255 255 255 255 255 255 255 255 255 255 255 255 255 255 255 255 255 255 255 255 255 255 255 255 255 255 255 255 255 255 255 255 255 255 255 255 255 255 88 88 96 248 248 248 208 208 216 208 208 216 208 208 216 88 88 96 255 255 255 255 255 255 255 255 255 88 88 96 248 248 248 248 248 248 248 248 248 248 248 248 248 248 248 248 248 248 128 136 152 168 176 184 80 80 80 80 80 80 248 248 248 248 248 248 208 208 216 208 208 216 208 208 216 208 208 216 88 88 96 255 255 255 255 255 255 128 136 152 248 248 248 248 248 248 248 248 248 168 176 184 168 176 184 80 80 80 208 208 216 208 208 216 208 208 216 88 88 96 255 255 255 255 255 255 255 255 255 255 255 255 255 255 255 255 255 255 255 255 255 255 255 255 
255 255 255 255 255 255 255 255 255 255 255 255 255 255 255 255 255 255 255 255 255 255 255 255 255 255 255 255 255 255 255 255 255 255 255 255 255 255 255 255 255 255 255 255 255 255 255 255 88 88 96 208 208 216 208 208 216 208 208 216 208 208 216 168 176 184 16 16 16 255 255 255 255 255 255 88 88 96 248 248 248 248 248 248 248 248 248 248 248 248 248 248 248 208 208 216 128 136 152 88 88 96 248 248 248 248 248 248 248 248 248 248 248 248 208 208 216 208 208 216 208 208 216 208 208 216 88 88 96 255 255 255 128 136 152 248 248 248 248 248 248 248 248 248 80 80 80 80 80 80 80 80 80 80 80 80 208 208 216 208 208 216 208 208 216 208 208 216 128 136 152 255 255 255 255 255 255 255 255 255 255 255 255 255 255 255 255 255 255 255 255 255 
255 255 255 255 255 255 255 255 255 255 255 255 255 255 255 255 255 255 255 255 255 255 255 255 255 255 255 255 255 255 255 255 255 255 255 255 255 255 255 255 255 255 255 255 255 255 255 255 128 136 152 208 208 216 208 208 216 208 208 216 168 176 184 160 48 32 216 64 32 160 48 32 160 48 32 160 48 32 248 248 248 248 248 248 248 248 248 248 248 248 248 248 248 208 208 216 168 176 184 168 176 184 88 88 96 88 88 96 248 248 248 208 208 216 208 208 216 208 208 216 208 208 216 88 88 96 255 255 255 128 136 152 248 248 248 248 248 248 248 248 248 248 248 248 80 80 80 168 176 184 168 176 184 208 208 216 208 208 216 208 208 216 208 208 216 208 208 216 88 88 96 255 255 255 255 255 255 255 255 255 255 255 255 255 255 255 255 255 255 255 255 255 
255 255 255 255 255 255 255 255 255 255 255 255 255 255 255 255 255 255 255 255 255 255 255 255 255 255 255 255 255 255 255 255 255 255 255 255 255 255 255 255 255 255 255 255 255 255 255 255 216 64 32 160 48 32 240 120 88 160 48 32 160 48 32 248 160 120 248 160 120 248 160 120 248 160 120 160 48 32 160 48 32 160 48 32 128 136 152 248 248 248 208 208 216 208 208 216 168 176 184 168 176 184 208 208 216 208 208 216 16 16 16 208 208 216 208 208 216 208 208 216 208 208 216 88 88 96 128 136 152 248 248 248 168 176 184 80 80 80 248 248 248 248 248 248 208 208 216 208 208 216 208 208 216 208 208 216 208 208 216 208 208 216 208 208 216 208 208 216 16 16 16 255 255 255 255 255 255 255 255 255 255 255 255 255 255 255 255 255 255 255 255 255 
255 255 255 255 255 255 255 255 255 255 255 255 255 255 255 255 255 255 255 255 255 255 255 255 255 255 255 255 255 255 255 255 255 255 255 255 255 255 255 255 255 255 160 48 32 248 160 120 248 160 120 248 160 120 248 160 120 248 160 120 248 160 120 248 160 120 248 160 120 248 160 120 160 48 32 208 208 216 248 248 248 248 248 248 248 248 248 88 88 96 88 88 96 208 208 216 208 208 216 208 208 216 208 208 216 248 248 248 248 248 248 16 16 16 208 208 216 208 208 216 208 208 216 128 136 152 248 248 248 248 248 248 80 80 80 168 176 184 248 248 248 208 208 216 208 208 216 208 208 216 208 208 216 208 208 216 208 208 216 208 208 216 208 208 216 208 208 216 16 16 16 255 255 255 255 255 255 255 255 255 255 255 255 255 255 255 255 255 255 255 255 255 
255 255 255 255 255 255 255 255 255 255 255 255 255 255 255 255 255 255 255 255 255 255 255 255 255 255 255 255 255 255 255 255 255 255 255 255 255 255 255 160 48 32 216 64 32 216 64 32 216 64 32 216 64 32 248 160 120 248 160 120 248 160 120 248 160 120 248 160 120 160 48 32 208 208 216 208 208 216 80 80 80 80 80 80 16 16 16 248 248 248 128 136 152 160 48 32 160 48 32 208 208 216 208 208 216 248 248 248 248 248 248 16 16 16 208 208 216 208 208 216 128 136 152 208 208 216 248 248 248 248 248 248 80 80 80 168 176 184 248 248 248 208 208 216 208 208 216 168 176 184 168 176 184 168 176 184 16 16 16 16 16 16 208 208 216 208 208 216 16 16 16 255 255 255 255 255 255 255 255 255 255 255 255 255 255 255 255 255 255 255 255 255 
255 255 255 255 255 255 255 255 255 255 255 255 255 255 255 255 255 255 255 255 255 255 255 255 255 255 255 255 255 255 255 255 255 255 255 255 160 48 32 248 192 200 248 192 200 248 192 200 248 192 200 248 192 200 248 192 200 216 64 32 248 160 120 248 160 120 248 160 120 160 48 32 208 208 216 80 80 80 248 248 248 248 248 248 16 16 16 16 16 16 248 248 248 160 48 32 216 64 32 160 48 32 248 248 248 248 248 248 248 248 248 16 16 16 208 208 216 208 208 216 88 88 96 208 208 216 248 248 248 248 248 248 248 248 248 248 248 248 208 208 216 208 208 216 168 176 184 208 208 216 208 208 216 248 248 248 88 88 96 128 136 152 16 16 16 16 16 16 255 255 255 255 255 255 255 255 255 255 255 255 255 255 255 255 255 255 255 255 255 255 255 255 
255 255 255 255 255 255 255 255 255 255 255 255 255 255 255 255 255 255 255 255 255 255 255 255 255 255 255 255 255 255 255 255 255 160 48 32 248 192 200 248 248 248 16 16 16 16 16 16 16 16 16 248 248 248 248 192 200 248 192 200 160 48 32 240 120 88 248 160 120 160 48 32 248 248 248 80 80 80 16 16 16 16 16 16 16 16 16 16 16 16 248 248 248 160 48 32 240 120 88 216 64 32 88 88 96 248 248 248 208 208 216 88 88 96 208 208 216 208 208 216 208 208 216 208 208 216 248 248 248 248 248 248 248 248 248 208 208 216 208 208 216 168 176 184 248 248 248 248 248 248 248 248 248 88 88 96 128 136 152 128 136 152 16 16 16 255 255 255 255 255 255 255 255 255 255 255 255 255 255 255 255 255 255 255 255 255 255 255 255 255 255 255 
255 255 255 255 255 255 255 255 255 255 255 255 255 255 255 255 255 255 255 255 255 255 255 255 255 255 255 255 255 255 255 255 255 160 48 32 248 192 200 16 16 16 16 16 16 160 56 64 160 56 64 160 56 64 160 56 64 248 192 200 160 48 32 240 120 88 240 120 88 160 48 32 248 248 248 128 136 152 16 16 16 16 16 16 16 16 16 16 16 16 248 248 248 160 48 32 240 120 88 240 120 88 160 48 32 16 16 16 208 208 216 208 208 216 16 16 16 208 208 216 208 208 216 248 248 248 248 248 248 248 248 248 208 208 216 168 176 184 168 176 184 248 248 248 248 248 248 248 248 248 248 248 248 88 88 96 128 136 152 16 16 16 255 255 255 255 255 255 255 255 255 255 255 255 255 255 255 255 255 255 255 255 255 255 255 255 255 255 255 255 255 255 
255 255 255 255 255 255 255 255 255 255 255 255 255 255 255 255 255 255 255 255 255 255 255 255 255 255 255 255 255 255 255 255 255 160 48 32 240 120 88 16 16 16 160 56 64 160 56 64 160 56 64 160 56 64 160 56 64 240 120 88 160 48 32 240 120 88 240 120 88 240 120 88 160 48 32 208 208 216 128 136 152 16 16 16 16 16 16 208 208 216 248 248 248 160 48 32 240 120 88 240 120 88 216 64 32 16 16 16 16 16 16 208 208 216 16 16 16 208 208 216 208 208 216 248 248 248 208 208 216 208 208 216 168 176 184 208 208 216 248 248 248 248 248 248 248 248 248 248 248 248 248 248 248 88 88 96 128 136 152 255 255 255 255 255 255 255 255 255 255 255 255 255 255 255 255 255 255 255 255 255 255 255 255 255 255 255 255 255 255 255 255 255 
255 255 255 255 255 255 255 255 255 255 255 255 255 255 255 255 255 255 255 255 255 255 255 255 255 255 255 255 255 255 255 255 255 160 48 32 240 120 88 240 120 88 240 120 88 240 120 88 240 120 88 240 120 88 240 120 88 160 48 32 248 160 120 240 120 88 240 120 88 240 120 88 240 120 88 160 48 32 248 248 248 248 248 248 248 248 248 248 248 248 160 48 32 240 120 88 240 120 88 240 120 88 216 64 32 16 16 16 16 16 16 16 16 16 16 16 16 208 208 216 208 208 216 208 208 216 208 208 216 168 176 184 208 208 216 248 248 248 248 248 248 248 248 248 248 248 248 248 248 248 248 248 248 248 248 248 128 136 152 168 176 184 255 255 255 255 255 255 255 255 255 255 255 255 255 255 255 255 255 255 255 255 255 255 255 255 255 255 255 255 255 255 
255 255 255 255 255 255 255 255 255 255 255 255 255 255 255 255 255 255 128 136 152 128 136 152 128 136 152 128 136 152 168 176 184 216 64 32 208 208 216 240 120 88 160 48 32 160 48 32 160 48 32 160 48 32 216 64 32 208 208 216 208 208 216 240 120 88 240 120 88 240 120 88 240 120 88 240 120 88 216 64 32 160 48 32 160 48 32 160 48 32 240 120 88 240 120 88 240 120 88 240 120 88 216 64 32 216 64 32 16 16 16 16 16 16 16 16 16 208 208 216 208 208 216 208 208 216 208 208 216 248 248 248 248 248 248 248 248 248 248 248 248 248 248 248 248 248 248 248 248 248 248 248 248 248 248 248 248 248 248 248 248 248 128 136 152 255 255 255 255 255 255 255 255 255 255 255 255 255 255 255 255 255 255 255 255 255 255 255 255 255 255 255 
255 255 255 255 255 255 255 255 255 255 255 255 255 255 255 255 255 255 88 88 96 248 248 248 248 248 248 248 248 248 128 136 152 248 160 120 248 248 248 248 248 248 208 208 216 208 208 216 208 208 216 208 208 216 208 208 216 248 248 248 248 248 248 248 160 120 240 120 88 240 120 88 240 120 88 240 120 88 240 120 88 240 120 88 240 120 88 240 120 88 80 80 80 80 80 80 240 120 88 240 120 88 216 64 32 216 64 32 16 16 16 16 16 16 16 16 16 16 16 16 208 208 216 208 208 216 248 248 248 248 248 248 248 248 248 248 248 248 248 248 248 248 248 248 248 248 248 168 176 184 168 176 184 168 176 184 248 248 248 248 248 248 208 208 216 88 88 96 255 255 255 255 255 255 255 255 255 255 255 255 255 255 255 255 255 255 255 255 255 255 255 255 
255 255 255 255 255 255 255 255 255 255 255 255 255 255 255 255 255 255 88 88 96 248 248 248 248 248 248 208 208 216 216 64 32 248 248 248 248 248 248 248 248 248 248 248 248 248 248 248 248 248 248 248 248 248 248 248 248 248 248 248 248 248 248 248 248 248 240 120 88 240 120 88 240 120 88 80 80 80 16 16 16 16 16 16 16 16 16 16 16 16 16 16 16 240 120 88 240 120 88 240 120 88 216 64 32 216 64 32 16 16 16 16 16 16 16 16 16 16 16 16 208 208 216 248 248 248 248 248 248 248 248 248 248 248 248 248 248 248 248 248 248 248 248 248 168 176 184 80 80 80 80 80 80 80 80 80 80 80 80 208 208 216 208 208 216 208 208 216 88 88 96 255 255 255 255 255 255 255 255 255 255 255 255 255 255 255 255 255 255 255 255 255 
255 255 255 255 255 255 255 255 255 255 255 255 255 255 255 255 255 255 255 255 255 88 88 96 168 176 184 208 208 216 160 48 32 248 248 248 248 248 248 248 248 248 248 248 248 248 248 248 248 248 248 248 248 248 248 248 248 248 248 248 248 248 248 248 248 248 240 120 88 240 120 88 240 120 88 240 120 88 240 120 88 16 16 16 16 16 16 16 16 16 240 120 88 240 120 88 80 80 80 240 120 88 216 64 32 216 64 32 16 16 16 16 16 16 16 16 16 16 16 16 16 16 16 208 208 216 248 248 248 248 248 248 168 176 184 80 80 80 248 248 248 248 248 248 80 80 80 80 80 80 80 80 80 80 80 80 80 80 80 168 176 184 208 208 216 208 208 216 208 208 216 88 88 96 255 255 255 255 255 255 255 255 255 255 255 255 255 255 255 255 255 255 
255 255 255 255 255 255 255 255 255 255 255 255 255 255 255 255 255 255 255 255 255 88 88 96 208 208 216 248 248 248 160 48 32 248 248 248 248 248 248 248 248 248 248 248 248 248 248 248 248 248 248 248 248 248 248 248 248 248 248 248 248 248 248 248 248 248 248 160 120 240 120 88 240 120 88 80 80 80 240 120 88 240 120 88 240 120 88 240 120 88 16 16 16 16 16 16 240 120 88 240 120 88 216 64 32 80 80 80 16 16 16 16 16 16 16 16 16 16 16 16 16 16 16 208 208 216 248 248 248 248 248 248 80 80 80 168 176 184 248 248 248 248 248 248 80 80 80 80 80 80 80 80 80 80 80 80 80 80 80 168 176 184 208 208 216 208 208 216 208 208 216 88 88 96 255 255 255 255 255 255 255 255 255 255 255 255 255 255 255 255 255 255 
255 255 255 255 255 255 255 255 255 255 255 255 255 255 255 255 255 255 168 176 184 208 208 216 248 248 248 248 248 248 160 48 32 248 248 248 248 248 248 248 248 248 248 248 248 248 248 248 248 248 248 248 248 248 248 248 248 248 248 248 248 248 248 248 248 248 248 248 248 240 120 88 240 120 88 240 120 88 16 16 16 16 16 16 16 16 16 16 16 16 16 16 16 240 120 88 240 120 88 240 120 88 216 64 32 16 16 16 16 16 16 16 16 16 16 16 16 16 16 16 16 16 16 16 16 16 208 208 216 248 248 248 248 248 248 248 248 248 208 208 216 208 208 216 80 80 80 80 80 80 80 80 80 80 80 80 80 80 80 168 176 184 208 208 216 208 208 216 208 208 216 208 208 216 88 88 96 255 255 255 255 255 255 255 255 255 255 255 255 255 255 255 
255 255 255 255 255 255 255 255 255 255 255 255 255 255 255 255 255 255 88 88 96 208 208 216 248 248 248 248 248 248 160 48 32 248 248 248 248 248 248 248 248 248 248 248 248 248 248 248 248 248 248 248 248 248 248 248 248 248 248 248 248 248 248 248 248 248 248 248 248 240 120 88 240 120 88 240 120 88 240 120 88 16 16 16 16 16 16 16 16 16 240 120 88 240 120 88 240 120 88 240 120 88 216 64 32 16 16 16 16 16 16 16 16 16 16 16 16 16 16 16 16 16 16 16 16 16 208 208 216 248 248 248 248 248 248 248 248 248 208 208 216 208 208 216 168 176 184 80 80 80 80 80 80 80 80 80 168 176 184 208 208 216 208 208 216 208 208 216 208 208 216 208 208 216 16 16 16 255 255 255 255 255 255 255 255 255 255 255 255 255 255 255 
255 255 255 255 255 255 255 255 255 255 255 255 255 255 255 255 255 255 16 16 16 208 208 216 248 248 248 248 248 248 160 48 32 208 208 216 248 248 248 248 248 248 248 248 248 248 248 248 248 248 248 248 248 248 248 248 248 248 248 248 248 248 248 248 248 248 248 248 248 240 120 88 240 120 88 240 120 88 240 120 88 240 120 88 240 120 88 240 120 88 240 120 88 240 120 88 240 120 88 216 64 32 16 16 16 16 16 16 80 80 80 216 64 32 16 16 16 16 16 16 216 64 32 16 16 16 208 208 216 208 208 216 208 208 216 208 208 216 208 208 216 208 208 216 208 208 216 208 208 216 208 208 216 208 208 216 208 208 216 208 208 216 208 208 216 208 208 216 208 208 216 208 208 216 16 16 16 255 255 255 255 255 255 255 255 255 255 255 255 255 255 255 
255 255 255 255 255 255 255 255 255 255 255 255 255 255 255 255 255 255 16 16 16 208 208 216 248 248 248 248 248 248 168 176 184 208 208 216 248 248 248 248 248 248 248 248 248 248 248 248 248 248 248 248 248 248 248 248 248 248 248 248 248 248 248 248 248 248 248 248 248 240 120 88 240 120 88 240 120 88 240 120 88 240 120 88 240 120 88 240 120 88 240 120 88 240 120 88 240 120 88 16 16 16 16 16 16 80 80 80 216 64 32 216 64 32 16 16 16 16 16 16 16 16 16 16 16 16 16 16 16 80 80 80 80 80 80 208 208 216 208 208 216 208 208 216 208 208 216 208 208 216 208 208 216 208 208 216 208 208 216 208 208 216 208 208 216 208 208 216 208 208 216 208 208 216 16 16 16 255 255 255 255 255 255 255 255 255 255 255 255 255 255 255 
255 255 255 255 255 255 255 255 255 255 255 255 255 255 255 255 255 255 255 255 255 16 16 16 248 248 248 248 248 248 208 208 216 160 48 32 248 248 248 248 248 248 248 248 248 248 248 248 248 248 248 248 248 248 248 248 248 248 248 248 248 248 248 248 248 248 248 248 248 240 120 88 240 120 88 240 120 88 240 120 88 240 120 88 240 120 88 240 120 88 240 120 88 240 120 88 16 16 16 16 16 16 80 80 80 216 64 32 128 136 152 128 136 152 248 248 248 248 248 248 248 248 248 248 248 248 248 248 248 248 248 248 248 248 248 128 136 152 128 136 152 128 136 152 208 208 216 208 208 216 208 208 216 208 208 216 208 208 216 208 208 216 168 176 184 80 80 80 248 248 248 248 248 248 88 88 96 255 255 255 255 255 255 255 255 255 255 255 255 255 255 255 
255 255 255 255 255 255 255 255 255 255 255 255 255 255 255 255 255 255 255 255 255 255 255 255 16 16 16 248 248 248 208 208 216 160 48 32 208 208 216 248 248 248 248 248 248 248 248 248 248 248 248 248 248 248 248 248 248 248 248 248 248 248 248 248 248 248 248 160 120 240 120 88 240 120 88 240 120 88 240 120 88 240 120 88 240 120 88 240 120 88 80 80 80 16 16 16 216 64 32 216 64 32 216 64 32 248 248 248 248 248 248 248 248 248 248 248 248 248 248 248 248 248 248 248 248 248 248 248 248 248 248 248 80 80 80 80 80 80 168 176 184 248 248 248 128 136 152 128 136 152 128 136 152 248 248 248 248 248 248 248 248 248 80 80 80 168 176 184 248 248 248 16 16 16 255 255 255 255 255 255 255 255 255 255 255 255 255 255 255 255 255 255 
255 255 255 255 255 255 255 255 255 255 255 255 255 255 255 255 255 255 255 255 255 255 255 255 255 255 255 88 88 96 16 16 16 16 16 16 216 64 32 208 208 216 248 248 248 248 248 248 248 248 248 248 248 248 248 248 248 248 248 248 248 248 248 248 248 248 240 120 88 240 120 88 240 120 88 240 120 88 240 120 88 240 120 88 240 120 88 240 120 88 240 120 88 216 64 32 216 64 32 248 248 248 248 248 248 248 248 248 248 248 248 248 248 248 248 248 248 248 248 248 248 248 248 248 248 248 248 248 248 248 248 248 80 80 80 80 80 80 80 80 80 80 80 80 248 248 248 248 248 248 248 248 248 88 88 96 248 248 248 248 248 248 248 248 248 248 248 248 248 248 248 16 16 16 255 255 255 255 255 255 255 255 255 255 255 255 255 255 255 255 255 255 
255 255 255 255 255 255 255 255 255 255 255 255 255 255 255 255 255 255 255 255 255 255 255 255 255 255 255 255 255 255 255 255 255 255 255 255 160 48 32 208 208 216 240 120 88 240 120 88 240 120 88 240 120 88 248 160 120 248 248 248 248 248 248 248 160 120 240 120 88 240 120 88 240 120 88 240 120 88 240 120 88 240 120 88 240 120 88 240 120 88 240 120 88 216 64 32 128 136 152 248 248 248 248 248 248 248 248 248 168 176 184 208 208 216 208 208 216 208 208 216 248 248 248 248 248 248 248 248 248 248 248 248 248 248 248 248 248 248 80 80 80 80 80 80 248 248 248 248 248 248 248 248 248 248 248 248 88 88 96 248 248 248 248 248 248 248 248 248 16 16 16 255 255 255 255 255 255 255 255 255 255 255 255 255 255 255 255 255 255 255 255 255 
255 255 255 255 255 255 255 255 255 255 255 255 255 255 255 255 255 255 255 255 255 255 255 255 255 255 255 255 255 255 255 255 255 255 255 255 255 255 255 160 48 32 240 120 88 240 120 88 240 120 88 240 120 88 240 120 88 240 120 88 240 120 88 240 120 88 240 120 88 240 120 88 240 120 88 240 120 88 240 120 88 240 120 88 240 120 88 240 120 88 216 64 32 216 64 32 216 64 32 216 64 32 128 136 152 248 248 248 248 248 248 248 248 248 168 176 184 168 176 184 208 208 216 208 208 216 248 248 248 248 248 248 248 248 248 248 248 248 248 248 248 248 248 248 248 248 248 248 248 248 248 248 248 248 248 248 248 248 248 88 88 96 248 248 248 248 248 248 16 16 16 255 255 255 255 255 255 255 255 255 255 255 255 255 255 255 255 255 255 255 255 255 
255 255 255 255 255 255 255 255 255 255 255 255 255 255 255 255 255 255 255 255 255 255 255 255 255 255 255 255 255 255 255 255 255 255 255 255 128 136 152 160 48 32 216 64 32 216 64 32 240 120 88 240 120 88 240 120 88 240 120 88 240 120 88 240 120 88 240 120 88 240 120 88 240 120 88 240 120 88 240 120 88 240 120 88 240 120 88 216 64 32 216 64 32 216 64 32 216 64 32 216 64 32 216 64 32 128 136 152 248 248 248 248 248 248 248 248 248 248 248 248 168 176 184 168 176 184 208 208 216 208 208 216 248 248 248 248 248 248 248 248 248 248 248 248 248 248 248 248 248 248 248 248 248 248 248 248 88 88 96 248 248 248 248 248 248 16 16 16 255 255 255 255 255 255 255 255 255 255 255 255 255 255 255 255 255 255 255 255 255 255 255 255 
255 255 255 255 255 255 255 255 255 255 255 255 255 255 255 255 255 255 255 255 255 255 255 255 255 255 255 255 255 255 255 255 255 128 136 152 248 248 248 248 248 248 160 48 32 216 64 32 216 64 32 240 120 88 240 120 88 240 120 88 240 120 88 240 120 88 240 120 88 240 120 88 240 120 88 240 120 88 240 120 88 216 64 32 216 64 32 216 64 32 216 64 32 216 64 32 216 64 32 216 64 32 216 64 32 216 64 32 208 208 216 168 176 184 80 80 80 80 80 80 80 80 80 168 176 184 168 176 184 208 208 216 208 208 216 208 208 216 208 208 216 248 248 248 248 248 248 248 248 248 248 248 248 88 88 96 248 248 248 248 248 248 16 16 16 255 255 255 255 255 255 255 255 255 255 255 255 255 255 255 255 255 255 255 255 255 255 255 255 255 255 255 
255 255 255 255 255 255 255 255 255 255 255 255 255 255 255 255 255 255 255 255 255 255 255 255 255 255 255 255 255 255 255 255 255 128 136 152 248 248 248 248 248 248 16 16 16 216 64 32 216 64 32 216 64 32 216 64 32 240 120 88 240 120 88 240 120 88 240 120 88 240 120 88 216 64 32 216 64 32 216 64 32 216 64 32 216 64 32 216 64 32 216 64 32 216 64 32 216 64 32 216 64 32 216 64 32 216 64 32 208 208 216 80 80 80 80 80 80 80 80 80 80 80 80 80 80 80 168 176 184 208 208 216 208 208 216 208 208 216 208 208 216 248 248 248 248 248 248 248 248 248 248 248 248 88 88 96 248 248 248 248 248 248 16 16 16 255 255 255 255 255 255 255 255 255 255 255 255 255 255 255 255 255 255 255 255 255 255 255 255 255 255 255 
255 255 255 255 255 255 255 255 255 255 255 255 255 255 255 255 255 255 255 255 255 255 255 255 255 255 255 255 255 255 16 16 16 248 248 248 248 248 248 248 248 248 248 248 248 16 16 16 216 64 32 216 64 32 216 64 32 216 64 32 216 64 32 216 64 32 216 64 32 216 64 32 216 64 32 216 64 32 216 64 32 216 64 32 216 64 32 216 64 32 216 64 32 216 64 32 216 64 32 216 64 32 216 64 32 216 64 32 128 136 152 80 80 80 80 80 80 80 80 80 80 80 80 80 80 80 248 248 248 168 176 184 80 80 80 80 80 80 168 176 184 208 208 216 208 208 216 208 208 216 88 88 96 248 248 248 248 248 248 16 16 16 255 255 255 255 255 255 255 255 255 255 255 255 255 255 255 255 255 255 255 255 255 255 255 255 255 255 255 255 255 255 
255 255 255 255 255 255 255 255 255 255 255 255 255 255 255 255 255 255 255 255 255 255 255 255 255 255 255 255 255 255 16 16 16 248 248 248 248 248 248 248 248 248 248 248 248 248 248 248 16 16 16 216 64 32 216 64 32 216 64 32 216 64 32 216 64 32 216 64 32 216 64 32 216 64 32 216 64 32 216 64 32 216 64 32 216 64 32 216 64 32 216 64 32 216 64 32 216 64 32 216 64 32 216 64 32 216 64 32 160 48 32 208 208 216 80 80 80 80 80 80 80 80 80 168 176 184 248 248 248 248 248 248 168 176 184 80 80 80 80 80 80 168 176 184 208 208 216 208 208 216 88 88 96 248 248 248 248 248 248 16 16 16 255 255 255 255 255 255 255 255 255 255 255 255 255 255 255 255 255 255 255 255 255 255 255 255 255 255 255 255 255 255 
255 255 255 255 255 255 255 255 255 255 255 255 255 255 255 255 255 255 255 255 255 255 255 255 255 255 255 255 255 255 255 255 255 128 136 152 248 248 248 248 248 248 168 176 184 168 176 184 128 136 152 16 16 16 160 48 32 216 64 32 216 64 32 216 64 32 216 64 32 216 64 32 216 64 32 216 64 32 216 64 32 216 64 32 216 64 32 216 64 32 216 64 32 216 64 32 216 64 32 216 64 32 216 64 32 216 64 32 160 48 32 88 88 96 208 208 216 208 208 216 248 248 248 248 248 248 248 248 248 248 248 248 248 248 248 168 176 184 80 80 80 80 80 80 208 208 216 208 208 216 88 88 96 88 88 96 88 88 96 255 255 255 255 255 255 255 255 255 255 255 255 255 255 255 255 255 255 255 255 255 255 255 255 255 255 255 255 255 255 255 255 255 
255 255 255 255 255 255 255 255 255 255 255 255 255 255 255 255 255 255 255 255 255 255 255 255 255 255 255 255 255 255 255 255 255 255 255 255 88 88 96 208 208 216 208 208 216 208 208 216 208 208 216 208 208 216 208 208 216 16 16 16 160 48 32 216 64 32 216 64 32 216 64 32 216 64 32 216 64 32 216 64 32 216 64 32 216 64 32 216 64 32 216 64 32 216 64 32 216 64 32 216 64 32 216 64 32 16 16 16 208 208 216 88 88 96 208 208 216 208 208 216 208 208 216 248 248 248 248 248 248 248 248 248 248 248 248 248 248 248 168 176 184 80 80 80 208 208 216 208 208 216 208 208 216 16 16 16 255 255 255 255 255 255 255 255 255 255 255 255 255 255 255 255 255 255 255 255 255 255 255 255 255 255 255 255 255 255 255 255 255 255 255 255 
255 255 255 255 255 255 255 255 255 255 255 255 255 255 255 255 255 255 255 255 255 255 255 255 255 255 255 255 255 255 255 255 255 255 255 255 16 16 16 208 208 216 208 208 216 168 176 184 80 80 80 80 80 80 208 208 216 208 208 216 208 208 216 16 16 16 16 16 16 160 48 32 216 64 32 216 64 32 216 64 32 216 64 32 216 64 32 216 64 32 216 64 32 216 64 32 216 64 32 160 48 32 16 16 16 208 208 216 208 208 216 208 208 216 88 88 96 208 208 216 208 208 216 208 208 216 248 248 248 248 248 248 16 16 16 16 16 16 168 176 184 208 208 216 208 208 216 208 208 216 208 208 216 88 88 96 16 16 16 255 255 255 255 255 255 255 255 255 255 255 255 255 255 255 255 255 255 255 255 255 255 255 255 255 255 255 255 255 255 255 255 255 
255 255 255 255 255 255 255 255 255 255 255 255 255 255 255 255 255 255 255 255 255 255 255 255 255 255 255 255 255 255 255 255 255 255 255 255 16 16 16 208 208 216 208 208 216 80 80 80 80 80 80 80 80 80 80 80 80 208 208 216 208 208 216 248 248 248 128 136 152 248 248 248 160 48 32 16 16 16 16 16 16 16 16 16 16 16 16 16 16 16 16 16 16 16 16 16 160 48 32 248 248 248 248 248 248 128 136 152 208 208 216 208 208 216 16 16 16 208 208 216 208 208 216 208 208 216 208 208 216 16 16 16 128 136 152 128 136 152 88 88 96 208 208 216 208 208 216 16 16 16 16 16 16 168 176 184 16 16 16 255 255 255 255 255 255 255 255 255 255 255 255 255 255 255 255 255 255 255 255 255 255 255 255 255 255 255 255 255 255 255 255 255 
255 255 255 255 255 255 255 255 255 255 255 255 255 255 255 255 255 255 255 255 255 255 255 255 255 255 255 255 255 255 255 255 255 88 88 96 208 208 216 208 208 216 208 208 216 168 176 184 80 80 80 80 80 80 168 176 184 248 248 248 248 248 248 128 136 152 248 248 248 248 248 248 248 248 248 248 248 248 128 136 152 248 248 248 248 248 248 248 248 248 248 248 248 248 248 248 248 248 248 248 248 248 248 248 248 128 136 152 248 248 248 208 208 216 208 208 216 16 16 16 208 208 216 208 208 216 16 16 16 208 208 216 208 208 216 208 208 216 88 88 96 16 16 16 16 16 16 208 208 216 208 208 216 208 208 216 168 176 184 16 16 16 255 255 255 255 255 255 255 255 255 255 255 255 255 255 255 255 255 255 255 255 255 255 255 255 255 255 255 255 255 255 
255 255 255 255 255 255 255 255 255 255 255 255 255 255 255 255 255 255 255 255 255 255 255 255 255 255 255 255 255 255 255 255 255 16 16 16 208 208 216 208 208 216 208 208 216 208 208 216 208 208 216 208 208 216 248 248 248 168 176 184 128 136 152 248 248 248 248 248 248 248 248 248 248 248 248 128 136 152 248 248 248 248 248 248 248 248 248 248 248 248 208 208 216 248 248 248 248 248 248 248 248 248 248 248 248 128 136 152 248 248 248 168 176 184 208 208 216 208 208 216 16 16 16 16 16 16 208 208 216 208 208 216 208 208 216 208 208 216 208 208 216 208 208 216 208 208 216 208 208 216 208 208 216 208 208 216 168 176 184 88 88 96 255 255 255 255 255 255 255 255 255 255 255 255 255 255 255 255 255 255 255 255 255 255 255 255 255 255 255 255 255 255 
255 255 255 255 255 255 255 255 255 255 255 255 255 255 255 255 255 255 255 255 255 255 255 255 255 255 255 255 255 255 255 255 255 16 16 16 208 208 216 208 208 216 208 208 216 248 248 248 248 248 248 168 176 184 168 176 184 248 248 248 248 248 248 248 248 248 248 248 248 128 136 152 128 136 152 248 248 248 248 248 248 248 248 248 248 248 248 168 176 184 208 208 216 248 248 248 80 80 80 168 176 184 248 248 248 128 136 152 248 248 248 208 208 216 128 136 152 168 176 184 208 208 216 208 208 216 208 208 216 208 208 216 208 208 216 208 208 216 208 208 216 208 208 216 208 208 216 208 208 216 208 208 216 208 208 216 168 176 184 128 136 152 255 255 255 255 255 255 255 255 255 255 255 255 255 255 255 255 255 255 255 255 255 255 255 255 255 255 255 255 255 255 
255 255 255 255 255 255 255 255 255 255 255 255 255 255 255 255 255 255 255 255 255 255 255 255 255 255 255 255 255 255 255 255 255 255 255 255 128 136 152 248 248 248 248 248 248 168 176 184 168 176 184 248 248 248 248 248 248 248 248 248 248 248 248 128 136 152 128 136 152 248 248 248 248 248 248 248 248 248 248 248 248 248 248 248 168 176 184 208 208 216 248 248 248 80 80 80 80 80 80 80 80 80 248 248 248 128 136 152 248 248 248 208 208 216 128 136 152 128 136 152 88 88 96 208 208 216 208 208 216 208 208 216 208 208 216 208 208 216 208 208 216 208 208 216 208 208 216 208 208 216 208 208 216 208 208 216 88 88 96 255 255 255 255 255 255 255 255 255 255 255 255 255 255 255 255 255 255 255 255 255 255 255 255 255 255 255 255 255 255 255 255 255 
255 255 255 255 255 255 255 255 255 255 255 255 255 255 255 255 255 255 255 255 255 255 255 255 255 255 255 255 255 255 255 255 255 255 255 255 88 88 96 248 248 248 248 248 248 248 248 248 248 248 248 248 248 248 248 248 248 128 136 152 128 136 152 248 248 248 248 248 248 248 248 248 248 248 248 248 248 248 248 248 248 128 136 152 208 208 216 208 208 216 248 248 248 80 80 80 80 80 80 80 80 80 248 248 248 128 136 152 248 248 248 208 208 216 168 176 184 128 136 152 88 88 96 16 16 16 208 208 216 208 208 216 208 208 216 208 208 216 208 208 216 208 208 216 208 208 216 208 208 216 208 208 216 168 176 184 16 16 16 255 255 255 255 255 255 255 255 255 255 255 255 255 255 255 255 255 255 255 255 255 255 255 255 255 255 255 255 255 255 255 255 255 
255 255 255 255 255 255 255 255 255 255 255 255 255 255 255 255 255 255 255 255 255 255 255 255 255 255 255 255 255 255 255 255 255 255 255 255 168 176 184 88 88 96 248 248 248 248 248 248 248 248 248 248 248 248 248 248 248 88 88 96 248 248 248 248 248 248 248 248 248 248 248 248 248 248 248 128 136 152 128 136 152 208 208 216 208 208 216 208 208 216 248 248 248 80 80 80 80 80 80 80 80 80 248 248 248 128 136 152 248 248 248 248 248 248 168 176 184 16 16 16 255 255 255 255 255 255 16 16 16 208 208 216 208 208 216 208 208 216 208 208 216 208 208 216 168 176 184 168 176 184 168 176 184 16 16 16 255 255 255 255 255 255 255 255 255 255 255 255 255 255 255 255 255 255 255 255 255 255 255 255 255 255 255 255 255 255 255 255 255 255 255 255 
255 255 255 255 255 255 255 255 255 255 255 255 255 255 255 255 255 255 255 255 255 255 255 255 255 255 255 255 255 255 255 255 255 255 255 255 255 255 255 255 255 255 128 136 152 88 88 96 16 16 16 16 16 16 88 88 96 255 255 255 88 88 96 248 248 248 248 248 248 248 248 248 128 136 152 168 176 184 80 80 80 208 208 216 208 208 216 208 208 216 248 248 248 168 176 184 80 80 80 168 176 184 208 208 216 168 176 184 248 248 248 248 248 248 168 176 184 16 16 16 255 255 255 255 255 255 255 255 255 16 16 16 88 88 96 168 176 184 168 176 184 168 176 184 88 88 96 16 16 16 16 16 16 255 255 255 255 255 255 255 255 255 255 255 255 255 255 255 255 255 255 255 255 255 255 255 255 255 255 255 255 255 255 255 255 255 255 255 255 255 255 255 
255 255 255 255 255 255 255 255 255 255 255 255 255 255 255 255 255 255 255 255 255 255 255 255 255 255 255 255 255 255 255 255 255 255 255 255 255 255 255 255 255 255 255 255 255 255 255 255 255 255 255 255 255 255 255 255 255 255 255 255 255 255 255 16 16 16 16 16 16 16 16 16 208 208 216 80 80 80 168 176 184 208 208 216 248 248 248 248 248 248 248 248 248 248 248 248 248 248 248 248 248 248 168 176 184 208 208 216 248 248 248 248 248 248 16 16 16 255 255 255 255 255 255 255 255 255 255 255 255 255 255 255 255 255 255 16 16 16 16 16 16 16 16 16 255 255 255 255 255 255 255 255 255 255 255 255 255 255 255 255 255 255 255 255 255 255 255 255 255 255 255 255 255 255 255 255 255 255 255 255 255 255 255 255 255 255 255 255 255 255 255 255 
255 255 255 255 255 255 255 255 255 255 255 255 255 255 255 255 255 255 255 255 255 255 255 255 255 255 255 255 255 255 255 255 255 255 255 255 255 255 255 255 255 255 255 255 255 255 255 255 255 255 255 255 255 255 255 255 255 255 255 255 255 255 255 255 255 255 88 88 96 208 208 216 208 208 216 208 208 216 208 208 216 208 208 216 248 248 248 248 248 248 248 248 248 248 248 248 248 248 248 208 208 216 168 176 184 208 208 216 248 248 248 248 248 248 16 16 16 255 255 255 255 255 255 255 255 255 255 255 255 255 255 255 255 255 255 255 255 255 255 255 255 255 255 255 255 255 255 255 255 255 255 255 255 255 255 255 255 255 255 255 255 255 255 255 255 255 255 255 255 255 255 255 255 255 255 255 255 255 255 255 255 255 255 255 255 255 255 255 255 255 255 255 
255 255 255 255 255 255 255 255 255 255 255 255 255 255 255 255 255 255 255 255 255 255 255 255 255 255 255 255 255 255 255 255 255 255 255 255 255 255 255 255 255 255 255 255 255 255 255 255 255 255 255 255 255 255 255 255 255 255 255 255 255 255 255 255 255 255 16 16 16 208 208 216 208 208 216 208 208 216 208 208 216 248 248 248 248 248 248 248 248 248 248 248 248 248 248 248 248 248 248 168 176 184 208 208 216 208 208 216 248 248 248 16 16 16 255 255 255 255 255 255 255 255 255 255 255 255 255 255 255 255 255 255 255 255 255 255 255 255 255 255 255 255 255 255 255 255 255 255 255 255 255 255 255 255 255 255 255 255 255 255 255 255 255 255 255 255 255 255 255 255 255 255 255 255 255 255 255 255 255 255 255 255 255 255 255 255 255 255 255 255 255 255 
255 255 255 255 255 255 255 255 255 255 255 255 255 255 255 255 255 255 255 255 255 255 255 255 255 255 255 255 255 255 255 255 255 255 255 255 255 255 255 255 255 255 255 255 255 255 255 255 255 255 255 255 255 255 255 255 255 255 255 255 255 255 255 255 255 255 255 255 255 16 16 16 208 208 216 208 208 216 208 208 216 16 16 16 16 16 16 88 88 96 248 248 248 248 248 248 248 248 248 168 176 184 208 208 216 208 208 216 128 136 152 16 16 16 255 255 255 255 255 255 255 255 255 255 255 255 255 255 255 255 255 255 255 255 255 255 255 255 255 255 255 255 255 255 255 255 255 255 255 255 255 255 255 255 255 255 255 255 255 255 255 255 255 255 255 255 255 255 255 255 255 255 255 255 255 255 255 255 255 255 255 255 255 255 255 255 255 255 255 255 255 255 
255 255 255 255 255 255 255 255 255 255 255 255 255 255 255 255 255 255 255 255 255 255 255 255 255 255 255 255 255 255 255 255 255 255 255 255 255 255 255 255 255 255 255 255 255 255 255 255 255 255 255 255 255 255 255 255 255 255 255 255 255 255 255 255 255 255 255 255 255 255 255 255 16 16 16 16 16 16 88 88 96 255 255 255 255 255 255 255 255 255 88 88 96 248 248 248 208 208 216 208 208 216 208 208 216 208 208 216 16 16 16 255 255 255 255 255 255 255 255 255 255 255 255 255 255 255 255 255 255 255 255 255 255 255 255 255 255 255 255 255 255 255 255 255 255 255 255 255 255 255 255 255 255 255 255 255 255 255 255 255 255 255 255 255 255 255 255 255 255 255 255 255 255 255 255 255 255 255 255 255 255 255 255 255 255 255 255 255 255 255 255 255 
255 255 255 255 255 255 255 255 255 255 255 255 255 255 255 255 255 255 255 255 255 255 255 255 255 255 255 255 255 255 255 255 255 255 255 255 255 255 255 255 255 255 255 255 255 255 255 255 255 255 255 255 255 255 255 255 255 255 255 255 255 255 255 255 255 255 255 255 255 255 255 255 255 255 255 255 255 255 255 255 255 255 255 255 255 255 255 255 255 255 255 255 255 88 88 96 16 16 16 16 16 16 16 16 16 16 16 16 255 255 255 255 255 255 255 255 255 255 255 255 255 255 255 255 255 255 255 255 255 255 255 255 255 255 255 255 255 255 255 255 255 255 255 255 255 255 255 255 255 255 255 255 255 255 255 255 255 255 255 255 255 255 255 255 255 255 255 255 255 255 255 255 255 255 255 255 255 255 255 255 255 255 255 255 255 255 255 255 255 255 255 255 
255 255 255 255 255 255 255 255 255 255 255 255 255 255 255 255 255 255 255 255 255 255 255 255 255 255 255 255 255 255 255 255 255 255 255 255 255 255 255 255 255 255 255 255 255 255 255 255 255 255 255 255 255 255 255 255 255 255 255 255 255 255 255 255 255 255 255 255 255 255 255 255 255 255 255 255 255 255 255 255 255 255 255 255 255 255 255 255 255 255 255 255 255 255 255 255 255 255 255 255 255 255 255 255 255 255 255 255 255 255 255 255 255 255 255 255 255 255 255 255 255 255 255 255 255 255 255 255 255 255 255 255 255 255 255 255 255 255 255 255 255 255 255 255 255 255 255 255 255 255 255 255 255 255 255 255 255 255 255 255 255 255 255 255 255 255 255 255 255 255 255 255 255 255 255 255 255 255 255 255 255 255 255 255 255 255 255 255 255 255 255 255 
255 255 255 255 255 255 255 255 255 255 255 255 255 255 255 255 255 255 255 255 255 255 255 255 255 255 255 255 255 255 255 255 255 255 255 255 255 255 255 255 255 255 255 255 255 255 255 255 255 255 255 255 255 255 255 255 255 255 255 255 255 255 255 255 255 255 255 255 255 255 255 255 255 255 255 255 255 255 255 255 255 255 255 255 255 255 255 255 255 255 255 255 255 255 255 255 255 255 255 255 255 255 255 255 255 255 255 255 255 255 255 255 255 255 255 255 255 255 255 255 255 255 255 255 255 255 255 255 255 255 255 255 255 255 255 255 255 255 255 255 255 255 255 255 255 255 255 255 255 255 255 255 255 255 255 255 255 255 255 255 255 255 255 255 255 255 255 255 255 255 255 255 255 255 255 255 255 255 255 255 255 255 255 255 255 255 255 255 255 255 255 255 
255 255 255 255 255 255 255 255 255 255 255 255 255 255 255 255 255 255 255 255 255 255 255 255 255 255 255 255 255 255 255 255 255 255 255 255 255 255 255 255 255 255 255 255 255 255 255 255 255 255 255 255 255 255 255 255 255 255 255 255 255 255 255 255 255 255 255 255 255 255 255 255 255 255 255 255 255 255 255 255 255 255 255 255 255 255 255 255 255 255 255 255 255 255 255 255 255 255 255 255 255 255 255 255 255 255 255 255 255 255 255 255 255 255 255 255 255 255 255 255 255 255 255 255 255 255 255 255 255 255 255 255 255 255 255 255 255 255 255 255 255 255 255 255 255 255 255 255 255 255 255 255 255 255 255 255 255 255 255 255 255 255 255 255 255 255 255 255 255 255 255 255 255 255 255 255 255 255 255 255 255 255 255 255 255 255 255 255 255 255 255 255 
255 255 255 255 255 255 255 255 255 255 255 255 255 255 255 255 255 255 255 255 255 255 255 255 255 255 255 255 255 255 255 255 255 255 255 255 255 255 255 255 255 255 255 255 255 255 255 255 255 255 255 255 255 255 255 255 255 255 255 255 255 255 255 255 255 255 255 255 255 255 255 255 255 255 255 255 255 255 255 255 255 255 255 255 255 255 255 255 255 255 255 255 255 255 255 255 255 255 255 255 255 255 255 255 255 255 255 255 255 255 255 255 255 255 255 255 255 255 255 255 255 255 255 255 255 255 255 255 255 255 255 255 255 255 255 255 255 255 255 255 255 255 255 255 255 255 255 255 255 255 255 255 255 255 255 255 255 255 255 255 255 255 255 255 255 255 255 255 255 255 255 255 255 255 255 255 255 255 255 255 255 255 255 255 255 255 255 255 255 255 255 255 
